<?xml version="1.0" encoding="utf-8"?>
<svg version="1.1" id="Layer_1" xmlns="http://www.w3.org/2000/svg" xmlns:xlink="http://www.w3.org/1999/xlink" x="0px" y="0px"
	 viewBox="0 0 150 150" style="enable-background:new 0 0 150 150;" xml:space="preserve" aria-hidden="true">
<g>
	<path style="fill:currentColor;" d="M119.8,1.2h-89C14.4,1.2,1.1,14.5,1.1,30.8v89c0,16.4,13.3,29.7,29.7,29.7h89
		c16.4,0,29.7-13.3,29.7-29.7v-89C149.5,14.5,136.2,1.2,119.8,1.2z M134.6,129.7c0,2.7-2.2,4.9-4.9,4.9H20.9c-2.7,0-4.9-2.2-4.9-4.9
		V65.5h31.4c4.1-11.5,15-19.8,27.9-19.8c12.9,0,23.9,8.3,28,19.8h31.4V129.7z M134.6,40.7c0,2.7-2.2,4.9-4.9,4.9h-19.8
		c-2.7,0-4.9-2.2-4.9-4.9V20.9c0-2.7,2.2-4.9,4.9-4.9h19.8c2.7,0,4.9,2.2,4.9,4.9V40.7z"/>
	<path style="fill:currentColor;" d="M112.3,50.6H91.7c8,5.3,13.3,14.4,13.3,24.7c0,16.4-13.3,29.7-29.7,29.7
		c-16.4,0-29.7-13.3-29.7-29.7c0-10.3,5.3-19.4,13.3-24.7H38.3c-4.7,7.1-7.5,15.6-7.5,24.7c0,24.6,19.9,44.5,44.5,44.5
		c24.6,0,44.5-19.9,44.5-44.5C119.8,66.2,117,57.7,112.3,50.6z"/>
</g>
</svg>
