<?xml version="1.0" encoding="UTF-8"?>
<svg width="67px" height="66px" viewBox="0 0 67 66" version="1.1" xmlns="http://www.w3.org/2000/svg" xmlns:xlink="http://www.w3.org/1999/xlink" aria-hidden="true">
    <defs>
        <polygon id="path-1" points="0 0 66.8237 0 66.8237 58.537785 0 58.537785"></polygon>
    </defs>
    <g id="Round-1" stroke="none" stroke-width="1" fill="none" fill-rule="evenodd">
        <g id="Events-browse" transform="translate(-666.000000, -371.000000)">
            <g id="Group-6" transform="translate(600.000000, 338.000000)">
                <g id="Group-30" transform="translate(66.000000, 33.000000)">
                    <g id="Group-3" transform="translate(0.000000, 7.406757)">

                        <g id="Clip-2"></g>
                        <path d="M33.2677,14.8724239 C24.7687,14.8724239 16.2697,14.871535 7.7707,14.875535 C7.4757,14.875535 7.1727,14.886535 6.8877,14.953535 C5.6617,15.239535 4.9507,16.183535 4.9507,17.512535 C4.9492,28.665535 4.9492,39.818535 4.9507,50.971535 C4.9507,52.535535 6.0007,53.581535 7.5637,53.581535 C24.8107,53.582535 42.0587,53.582535 59.3057,53.578535 C59.5407,53.578535 59.7847,53.551535 60.0097,53.484535 C61.2207,53.125535 61.8667,52.232535 61.8667,50.947535 C61.8682,41.988535 61.8682,33.030535 61.8682,24.071535 C61.8682,21.858535 61.8697,19.644535 61.8657,17.431535 C61.8647,16.634535 61.5767,15.969535 60.9537,15.446535 C60.4047,14.984535 59.7647,14.8724239 59.0807,14.8724239 C50.4767,14.8724239 41.8717,14.8724239 33.2677,14.8724239 M10.5077,0.0185350224 C10.5077,0.172535022 10.5067,0.285535022 10.5077,0.398535022 C10.5167,1.62453502 10.4967,2.85153502 10.5417,4.07553502 C10.5937,5.49453502 11.1787,6.70153502 12.1797,7.69753502 C13.2537,8.76553502 14.5727,9.31753502 16.0787,9.30053502 C18.1297,9.27853502 19.7287,8.36653502 20.8307,6.62953502 C21.4197,5.70053502 21.6587,4.67053502 21.6437,3.57153502 C21.6287,2.50753502 21.6407,1.44353502 21.6407,0.380535022 L21.6407,0.0425350224 L27.8287,0.0425350224 C27.8327,0.133535022 27.8407,0.233535022 27.8407,0.334535022 C27.8447,1.54153502 27.8047,2.75053502 27.8587,3.95553502 C27.9477,5.95153502 28.8657,7.49653502 30.5877,8.51853502 C32.2937,9.53153502 34.0877,9.59953502 35.8487,8.72353502 C37.8017,7.75253502 38.8537,6.11653502 38.9567,3.92753502 C39.0117,2.75153502 38.9777,1.57153502 38.9847,0.393535022 C38.9847,0.280535022 38.9847,0.167535022 38.9847,0.0365350224 L45.1577,0.0365350224 C45.1577,0.155535022 45.1567,0.266535022 45.1577,0.377535022 C45.1697,1.66053502 45.1377,2.94653502 45.2077,4.22653502 C45.2857,5.65053502 45.9127,6.84453502 46.9587,7.81653502 C48.0057,8.79153502 49.2557,9.28753502 50.6737,9.30353502 C52.1157,9.31953502 53.3977,8.83453502 54.4667,7.85653502 C55.6977,6.73153502 56.2927,5.31453502 56.2997,3.65053502 C56.3037,2.55853502 56.3007,1.46653502 56.3007,0.373535022 L56.3007,0.0735350224 C56.3327,0.0495350224 56.3477,0.0285350224 56.3627,0.0285350224 C57.8357,0.0425350224 59.3187,-0.108464978 60.7777,0.169535022 C62.9197,0.576535022 64.5627,1.74353502 65.7217,3.58553502 C66.4907,4.80853502 66.8217,6.15853502 66.8217,7.59353502 C66.8237,22.042535 66.8257,36.491535 66.8197,50.940535 C66.8187,53.567535 65.7507,55.677535 63.6097,57.210535 C62.3197,58.135535 60.8507,58.537785 59.2687,58.537785 C42.0117,58.537785 24.7547,58.538535 7.4977,58.536535 C5.6837,58.535535 4.0447,57.982535 2.6647,56.804535 C0.9397,55.332535 0.0087,53.443535 0.0077,51.157535 C-6.42703128e-05,36.564535 -0.0063,21.971535 0.0117,7.37953502 C0.0157,4.79553502 1.1827,2.76753502 3.2857,1.29353502 C4.5327,0.417535022 5.9567,0.0415350224 7.4717,0.0205350224 C8.4677,0.00653502241 9.4637,0.0185350224 10.5077,0.0185350224" id="Fill-1" fill="currentColor" mask="url(#mask-2)"></path>
                    </g>
                    <path d="M47.036,7.41589214 C47.036,6.08489214 46.991,4.75289214 47.046,3.42389214 C47.147,0.96689214 49.9,-0.70610786 52.15,0.29689214 C53.667,0.97289214 54.43,2.17289214 54.446,3.81689214 C54.47,6.21989214 54.461,8.62389214 54.449,11.0268921 C54.44,12.8598921 53.41,14.2218921 51.682,14.7288921 C49.505,15.3688921 47.108,13.6698921 47.041,11.4078921 C47.002,10.0778921 47.034,8.74689214 47.034,7.41589214 C47.035,7.41589214 47.035,7.41589214 47.036,7.41589214" id="Fill-4" fill="currentColor"></path>
                    <path d="M37.1081,7.41179214 C37.1081,8.67579214 37.1101,9.93979214 37.1081,11.2037921 C37.1031,13.6797921 34.6201,15.4587921 32.2661,14.6727921 C30.7181,14.1567921 29.7001,12.7827921 29.6931,11.1497921 C29.6810893,8.67879214 29.6731,6.20879214 29.6941,3.73779214 C29.7191,0.84279214 32.7471,-0.91620786 35.2601,0.51579214 C36.4371,1.18679214 37.0751,2.24879214 37.1031,3.61979214 C37.1281,4.88379214 37.1081,6.14779214 37.1081,7.41179214" id="Fill-6" fill="currentColor"></path>
                    <path d="M19.7924,7.42599214 C19.7924,8.64299214 19.7934,9.85999214 19.7924,11.0769921 C19.7894,13.9439921 16.8824,15.7409921 14.3454,14.4159921 C13.1074,13.7689921 12.4104,12.6939921 12.3874,11.2959921 C12.3444,8.71899214 12.3524,6.14099214 12.3814,3.56399214 C12.4074,1.11599214 15.0334,-0.63900786 17.3284,0.22199214 C18.8494,0.79199214 19.7884,2.14399214 19.7914,3.77499214 C19.7944,4.99199214 19.7924,6.20899214 19.7924,7.42599214" id="Fill-8" fill="currentColor"></path>
                    <path d="M39.4242,48.6383921 C40.3912,48.6383921 41.3592,48.6073921 42.3242,48.6463921 C43.4442,48.6913921 44.4692,49.7243921 44.5082,50.8443921 C44.5442,51.8383921 44.5452,52.8353921 44.5072,53.8283921 C44.4662,54.9233921 43.4832,55.9553921 42.3912,55.9953921 C40.7652,56.0543921 39.1372,56.0353921 37.5102,56.0444391 C37.2622,56.0453921 37.0122,56.0303921 36.7662,56.0023921 C35.6862,55.8813921 34.7392,54.9413921 34.6862,53.8513921 C34.6362,52.8403921 34.6222,51.8223921 34.6862,50.8143921 C34.7622,49.6143921 35.7562,48.6903921 36.9552,48.6423921 C37.7772,48.6093921 38.6012,48.6363921 39.4242,48.6363921 L39.4242,48.6383921 Z" id="Fill-10" fill="currentColor"></path>
                    <path d="M27.2184,56.0261921 C26.3374,56.0261921 25.4554,56.0551921 24.5754,56.0191921 C23.3394,55.9681921 22.3504,54.9741921 22.2864,53.7211921 C22.2394,52.8041921 22.2204,51.8781921 22.2904,50.9641921 C22.4014,49.5131921 23.3984,48.6331921 24.8924,48.6131921 C26.4534,48.5931921 28.0154,48.5921921 29.5774,48.6131921 C31.1464,48.6331921 32.1614,49.6891921 32.1634,51.2561921 C32.1644,52.0031921 32.1664,52.7511921 32.1624,53.4981921 C32.1564,54.5791921 31.6544,55.3691921 30.6864,55.8191921 C30.3524,55.9741921 29.9494,56.0211921 29.5754,56.0361921 C28.7904,56.0681921 28.0044,56.0461921 27.2184,56.0461921 C27.2184,56.0391921 27.2184,56.0331921 27.2184,56.0261921" id="Fill-12" fill="currentColor"></path>
                    <path d="M14.8349,56.0078921 C13.9159,56.0078921 12.9939,56.0548921 12.0789,55.9958921 C10.9199,55.9208921 9.9929,54.9728921 9.9229,53.7998921 C9.8669,52.8548921 9.8599,51.9008921 9.9159,50.9568921 C10.0009,49.5288921 11.0389,48.6268921 12.5529,48.6118921 C14.0859,48.5968921 15.6189,48.6018921 17.1519,48.6108921 C18.2249,48.6168921 19.0669,49.0448921 19.5399,50.0428921 C19.6709,50.3208921 19.7659,50.6428921 19.7729,50.9468921 C19.7979,51.9038921 19.8029,52.8628921 19.7589,53.8188921 C19.7069,54.9438921 18.7449,55.9388921 17.5899,55.9988921 C16.6739,56.0458921 15.7539,56.0078921 14.8349,56.0078921" id="Fill-14" fill="currentColor"></path>
                    <path d="M39.5888,27.2406921 C40.3548,27.2406921 41.1228,27.2666921 41.8878,27.2346921 C43.3358,27.1756921 44.5258,28.2746921 44.5318,29.6626921 C44.5358,30.5526921 44.5808,31.4466921 44.5178,32.3326921 C44.4228,33.6766921 43.4968,34.6046921 42.1568,34.6436921 C40.4248,34.6946921 38.6898,34.6626921 36.9558,34.6356921 C35.7478,34.6166921 34.6988,33.5326921 34.6758,32.4006921 C34.6568,31.4066921 34.6228,30.4086921 34.6868,29.4186921 C34.7628,28.2286921 35.7788,27.2956921 36.9738,27.2556921 C37.8448,27.2266921 38.7168,27.2496921 39.5888,27.2496921 C39.5888,27.2466921 39.5888,27.2436921 39.5888,27.2406921" id="Fill-16" fill="currentColor"></path>
                    <path d="M39.6041,45.3067921 C38.6471,45.3067921 37.6871,45.3477921 36.7331,45.2957921 C35.7401,45.2407921 34.7471,44.2557921 34.6941,43.2677921 C34.6391,42.2187921 34.6251,41.1617921 34.6871,40.1137921 C34.7571,38.9337921 35.7561,37.9787921 36.9381,37.9537921 C38.7191,37.9147921 40.5031,37.9157921 42.2841,37.9557921 C43.4541,37.9817921 44.4681,39.0137921 44.5111,40.1787921 C44.5471,41.1817921 44.5561,42.1907921 44.5031,43.1927921 C44.4461,44.2717921 43.4701,45.2167921 42.3881,45.3087921 C41.9221,45.3487921 41.4521,45.3447921 40.9841,45.3517921 C40.5241,45.3577921 40.0641,45.3527921 39.6041,45.3527921 C39.6041,45.3377921 39.6041,45.3217921 39.6041,45.3067921" id="Fill-18" fill="currentColor"></path>
                    <path d="M51.9511,45.3123921 C51.0141,45.3123921 50.0731,45.3603921 49.1401,45.2993921 C48.0511,45.2283921 47.0971,44.2223921 47.0521,43.1333921 C47.0121,42.1403921 47.0141,41.1433921 47.0521,40.1503921 C47.0941,39.0373921 48.1051,38.0143921 49.2181,37.9573921 C50.1161,37.9123921 51.0171,37.9373921 51.9171,37.9353921 C52.7411,37.9323921 53.5641,37.9323921 54.3871,37.9343921 C55.4591,37.9373921 56.2311,38.4403921 56.6931,39.3883921 C56.8311,39.6703921 56.9011,40.0113921 56.9091,40.3263921 C56.9301,41.2543921 56.9591,42.1873921 56.8831,43.1093921 C56.7751,44.4353921 55.7301,45.3373921 54.3931,45.3513921 C53.5791,45.3593921 52.7651,45.3523921 51.9511,45.3523921 C51.9511,45.3393921 51.9511,45.3253921 51.9511,45.3123921" id="Fill-20" fill="currentColor"></path>
                    <path d="M51.9731,27.2406921 C52.7491,27.2406921 53.5251,27.2456921 54.3011,27.2396921 C55.3921,27.2306921 56.2021,27.6986921 56.6761,28.6786921 C56.8211,28.9776921 56.9051,29.3356921 56.9111,29.6686921 C56.9301,30.6256921 56.9321,31.5856921 56.8711,32.5396921 C56.8051,33.5806921 55.8221,34.5606921 54.7821,34.6106921 C53.5781,34.6676921 52.3701,34.6526921 51.1631,34.6566921 C50.4941,34.6576921 49.8201,34.6696921 49.1551,34.6116921 C48.0411,34.5136921 47.0981,33.5366921 47.0521,32.4216921 C47.0111,31.4476921 47.0111,30.4686921 47.0511,29.4936921 C47.1001,28.3166921 48.0931,27.3196921 49.2721,27.2646921 C50.1711,27.2226921 51.0731,27.2566921 51.9731,27.2566921 C51.9731,27.2506921 51.9731,27.2456921 51.9731,27.2406921" id="Fill-22" fill="currentColor"></path>
                    <path d="M27.231,37.9431921 C28.103,37.9431921 28.975,37.9181921 29.846,37.9491921 C31.07,37.9921921 32.088,38.9821921 32.142,40.2031921 C32.185,41.1591921 32.189,42.1201921 32.143,43.0751921 C32.088,44.2341921 31.158,45.3131921 29.736,45.3421921 C28.051,45.3771921 26.363,45.3881921 24.679,45.3311921 C23.319,45.2841921 22.399,44.3981921 22.295,43.0471921 C22.221,42.0861921 22.231,41.1101921 22.306,40.1481921 C22.41,38.8421921 23.442,37.9521921 24.759,37.9361921 C25.583,37.9261921 26.407,37.9341921 27.231,37.9341921 C27.231,37.9371921 27.231,37.9401921 27.231,37.9431921" id="Fill-24" fill="currentColor"></path>
                    <path d="M27.2078,27.2409921 C28.0028,27.2409921 28.7978,27.2379921 29.5938,27.2409921 C31.1058,27.2469921 32.1558,28.2939921 32.1628,29.8039921 C32.1668,30.5609921 32.1678,31.3169921 32.1628,32.0739921 C32.1528,33.6119921 31.0978,34.6579921 29.5588,34.6589921 C27.9878,34.6599921 26.4158,34.6619921 24.8448,34.6579921 C23.6148,34.6549921 22.7128,33.9789921 22.3638,32.7989921 C22.3178,32.6449921 22.2788,32.4809921 22.2788,32.3219921 C22.2808,31.3359921 22.2448,30.3459921 22.3178,29.3649921 C22.4028,28.2349921 23.3998,27.3359921 24.5348,27.2529921 C24.5928,27.2479921 24.6498,27.2419921 24.7068,27.2419921 C25.5408,27.2409921 26.3738,27.2409921 27.2078,27.2409921" id="Fill-26" fill="currentColor"></path>
                    <path d="M14.84,37.9343921 C15.635,37.9343921 16.43,37.932439 17.225,37.9343921 C18.729,37.9403921 19.788,38.9973921 19.791,40.5003921 C19.793,41.3423921 19.83,42.1883921 19.77,43.0273921 C19.671,44.4053921 18.64,45.3393921 17.262,45.3493921 C15.652,45.3613921 14.043,45.3613921 12.434,45.3503921 C11.015,45.3403921 9.978,44.3673921 9.91,42.9493921 C9.868,42.0793921 9.873,41.2053921 9.909,40.3353921 C9.967,38.9203921 11.007,37.9463921 12.426,37.9353921 C13.231,37.9293921 14.035,37.9343921 14.84,37.9343921" id="Fill-28" fill="currentColor"></path>
                </g>
            </g>
        </g>
    </g>
</svg>