<?xml version="1.0" encoding="utf-8"?>
<svg version="1.1" id="Layer_1" xmlns="http://www.w3.org/2000/svg" xmlns:xlink="http://www.w3.org/1999/xlink" x="0px" y="0px"
	 viewBox="0 0 150 150" style="enable-background:new 0 0 150 150;" xml:space="preserve" aria-hidden="true">
<g>
	<path style="fill:currentColor;" d="M78.9,1.3c-41.7,0-62.3,29-62.3,53.1c0,14.6,5.2,27.6,17.5,32.5c2,0.8,3.8,0,4.4-2.1
		c0.4-1.5,1.4-5.3,1.8-6.8c0.6-2.1,0.4-2.9-1.3-4.7c-3.5-4-5.8-9.3-5.8-16.7c0-21.5,16.6-40.7,43.2-40.7c23.6,0,36.5,13.9,36.5,32.6
		C113,72.9,101.8,95,85.2,95c-9.2,0-16.1-8.8-13.9-17.8c2.6-10.8,8.9-22.4,8.9-30.2c0-7-4.3-11.2-13-11.2
		c-10.8,0-16.6,7.9-16.6,20.5c0,8,2.4,13.4,2.4,13.4S42.6,109,41.8,116.1c-1.7,14.4-0.5,30.6-0.3,32.3c0.1,1,1.5,1.2,2.1,0.5
		c0.9-1.1,12-14.5,15.9-27.8c1.1-3.8,6.2-23.4,6.2-23.4c3.1,5.6,12,12.2,21.5,12.2c28.2,0,47-26.5,47-59.8
		C134,24.8,112.4,1.3,78.9,1.3z"/>
</g>
</svg>
