<?xml version="1.0" encoding="UTF-8"?>
<svg width="37px" height="35px" viewBox="0 0 37 35" version="1.1" xmlns="http://www.w3.org/2000/svg" xmlns:xlink="http://www.w3.org/1999/xlink" aria-hidden="true">
    <title>print-gray</title>
    <g id="Round-1" stroke="none" stroke-width="1" fill="none" fill-rule="evenodd">
        <g id="News-Details" transform="translate(-1192.000000, -428.000000)" fill="currentColor" fill-rule="nonzero">
            <g id="print-gray" transform="translate(1192.000000, 428.000000)">
                <path d="M30.0084926,34.0450864 C30.0084926,34.6006006 29.6157113,34.9973965 29.0658174,34.9973965 L10.0552017,34.9973965 C9.50530786,34.9973965 9.11252654,34.6006006 9.11252654,34.0450864 C9.11252654,33.4895722 9.50530786,33.0927763 10.0552017,33.0927763 L29.1443737,33.0927763 C29.6157113,33.0927763 30.0084926,33.4895722 30.0084926,34.0450864 Z M37,20.4746673 L37,31.2675152 C37,33.3308538 35.3503185,34.9973965 33.3078556,34.9973965 L31.8152866,34.9973965 C31.8152866,32.6959804 31.4225053,31.4262336 28.8301486,31.4262336 C28.8301486,31.4262336 10.2123142,31.4262336 10.133758,31.4262336 C7.54140127,31.4262336 7.38428875,32.6959804 7.38428875,34.9973965 L3.69214437,34.9973965 C1.64968153,35.0767557 0,33.3308538 0,31.2675152 L0,20.4746673 C0,18.4113288 1.64968153,16.6654269 3.69214437,16.6654269 L29.4585987,16.6654269 L29.4585987,10.5547704 L23.7239915,10.5547704 C22.2314225,10.5547704 21.0530786,9.36438274 21.0530786,7.8565584 L21.0530786,2.06333857 L8.5626327,2.06333857 C8.16985138,2.06333857 7.85562633,2.38077527 7.85562633,2.77757115 C7.85562633,2.77757115 7.85562633,12.9355456 7.85562633,12.9355456 L7.85562633,13.0149048 C7.85562633,13.5704191 7.38428875,14.0465741 6.8343949,14.0465741 C6.28450106,14.0465741 5.81316348,13.5704191 5.81316348,13.0149048 L5.81316348,2.69821197 C5.89171975,1.19038764 7.07006369,0 8.5626327,0 L21.6029724,0 C22.4670913,0 23.0955414,0.55551423 23.3312102,0.872950933 C23.6454352,1.19038764 30.2441614,7.8565584 30.5583864,8.1739951 C30.5583864,8.1739951 31.4225053,9.12630521 31.4225053,10.396052 L31.4225053,16.6654269 L33.1507431,16.6654269 C35.2717622,16.6654269 37,18.4113288 37,20.4746673 Z M15.6326964,21.9031325 C15.6326964,21.4269774 15.2399151,21.0301816 14.7685775,21.0301816 L4.94904459,21.0301816 C4.47770701,21.0301816 4.08492569,21.4269774 4.08492569,21.9031325 C4.08492569,22.3792876 4.47770701,22.7760834 4.94904459,22.7760834 L14.7685775,22.7760834 C15.2399151,22.7760834 15.6326964,22.3792876 15.6326964,21.9031325 Z M31.8152866,21.665055 C31.8152866,20.792104 31.1082803,20.1572306 30.3227176,20.1572306 C29.4585987,20.1572306 28.8301486,20.8714632 28.8301486,21.665055 C28.8301486,22.5380059 29.537155,23.1728793 30.3227176,23.1728793 C31.1868365,23.2522385 31.8152866,22.5380059 31.8152866,21.665055 Z M11.5477707,8.01527675 L17.4394904,8.01527675 C17.9893843,8.01527675 18.4607219,7.53912169 18.4607219,6.98360746 C18.4607219,6.42809323 17.9893843,5.95193818 17.4394904,5.95193818 L11.5477707,5.95193818 C10.9978769,5.95193818 10.5265393,6.42809323 10.5265393,6.98360746 C10.5265393,7.53912169 10.9978769,8.01527675 11.5477707,8.01527675 Z M11.5477707,12.3006722 L17.4394904,12.3006722 C17.9893843,12.3006722 18.4607219,11.8245172 18.4607219,11.269003 C18.4607219,10.7134887 17.9893843,10.2373337 17.4394904,10.2373337 L11.5477707,10.2373337 C10.9978769,10.2373337 10.5265393,10.7134887 10.5265393,11.269003 C10.5265393,11.8245172 10.9978769,12.3006722 11.5477707,12.3006722 Z" id="Shape"></path>
            </g>
        </g>
    </g>
</svg>