<?xml version="1.0" encoding="UTF-8"?>
<svg width="34px" height="27px" viewBox="0 0 34 27" version="1.1" xmlns="http://www.w3.org/2000/svg" xmlns:xlink="http://www.w3.org/1999/xlink" aria-hidden="true">
    <g id="Round-1" stroke="none" stroke-width="1" fill="none" fill-rule="evenodd">
        <g id="News-Details" transform="translate(-280.000000, -742.000000)" fill="currentColor">
            <g id="social_icons" transform="translate(59.000000, 741.000000)">
                <path d="M232.161947,28 C228.337739,28 224.780007,26.8793852 221.781701,24.9558102 C225.376492,25.3793497 228.960694,24.3822672 231.807233,22.1516261 C228.845986,22.0951542 226.343574,20.138049 225.478847,17.4485735 C226.54299,17.6515195 227.589486,17.5897533 228.540685,17.3321002 C225.284725,16.675614 223.034672,13.7426033 223.108791,10.6066467 C224.02293,11.1131293 225.065896,11.4166659 226.175923,11.4537256 C223.158204,9.43661894 222.307596,5.45534813 224.079402,2.41115835 C227.418305,6.50890251 232.410776,9.20543699 238.038557,9.48603188 C237.050298,5.2506374 240.265668,1.17054071 244.636948,1.17054071 C246.583465,1.17054071 248.344683,1.99291314 249.578242,3.30941493 C251.122396,3.00764307 252.573019,2.44292381 253.880697,1.66643482 C253.374214,3.2494135 252.301248,4.57473903 250.903567,5.41299419 C252.273012,5.24887265 253.578925,4.88533462 254.791307,4.34532183 C253.884226,5.70417756 252.738905,6.897147 251.411815,7.85187551 C251.842413,17.3779836 244.739304,28 232.161947,28 Z" id="Fill-1"></path>
            </g>
        </g>
    </g>
</svg>