<?xml version="1.0" encoding="utf-8"?>
<!-- Generator: Adobe Illustrator 21.1.0, SVG Export Plug-In . SVG Version: 6.00 Build 0)  -->
<svg version="1.1" id="Layer_1" xmlns="http://www.w3.org/2000/svg" xmlns:xlink="http://www.w3.org/1999/xlink" x="0px" y="0px"
	 viewBox="0 0 350 300" style="enable-background:new 0 0 350 300;" xml:space="preserve">
<style type="text/css">
	.st0{fill:#622D50;}
</style>
<g>
	<g>
		<path class="st0" d="M275.2,103.1c-1.9,0-3.4-1.5-3.4-3.4V81.5h-93.4v18.2c0,1.9-1.5,3.4-3.4,3.4c-1.9,0-3.4-1.5-3.4-3.4v-25h107
			v25C278.5,101.5,277,103.1,275.2,103.1z"/>
	</g>
	<g>
		<path class="st0" d="M267.9,273.8h-78.2l-7.2-40.4c-0.3-1.8,0.9-3.6,2.7-3.9c1.8-0.3,3.6,0.9,3.9,2.7l6.2,34.8h66.9l23.3-136.6
			c0.3-1.8,2.1-3.1,3.9-2.8c1.8,0.3,3.1,2.1,2.8,3.9L267.9,273.8z"/>
	</g>
	<g>
		<path class="st0" d="M172.8,158.5c-1.6,0-3.1-1.2-3.3-2.8l-4.1-24.2c-0.3-1.8,0.9-3.6,2.8-3.9c1.8-0.3,3.6,0.9,3.9,2.8l4.1,24.2
			c0.3,1.8-0.9,3.6-2.8,3.9C173.1,158.5,172.9,158.5,172.8,158.5z"/>
	</g>
	<g>
		<path class="st0" d="M303.5,132.2H148.8V97h154.7V132.2z M155.5,125.4h141.2v-21.7H155.5V125.4z"/>
	</g>
	<g>
		<g>
			<path class="st0" d="M120.7,277.4c-40.9,0-74.1-33.3-74.1-74.1s33.2-74.1,74.1-74.1s74.1,33.2,74.1,74.1S161.6,277.4,120.7,277.4
				z M120.7,135.8c-37.1,0-67.3,30.2-67.3,67.4c0,37.1,30.2,67.3,67.3,67.3s67.3-30.2,67.3-67.3C188.1,166,157.8,135.8,120.7,135.8z
				"/>
		</g>
		<g>
			<path class="st0" d="M120.7,231.9c-15.8,0-28.6-12.8-28.6-28.6c0-15.8,12.8-28.6,28.6-28.6s28.6,12.8,28.6,28.6
				C149.2,218.9,136.5,231.9,120.7,231.9z M120.7,181.3c-12,0-21.8,9.8-21.8,21.8s9.8,21.8,21.8,21.8s21.8-9.8,21.8-21.8
				C142.5,191.1,132.8,181.3,120.7,181.3z"/>
		</g>
		<g>
			<path class="st0" d="M93.6,253.4c-7.4,0-13.4-6-13.4-13.4v-4.5c-1.4,0.6-2.9,0.9-4.5,0.9c-6.2,0-11.3-5-11.3-11.2V218
				c-0.2-0.2-0.4-0.4-0.5-0.7C55.7,206,51.3,192.8,51.3,179c0-1.9,1.5-3.4,3.4-3.4c1.9,0,3.4,1.5,3.4,3.4c0,12.3,3.9,24.2,11.3,34.4
				c0.2,0.3,0.3,0.4,0.3,0.4l1.5,1v10.4c0,2.5,2,4.5,4.5,4.5s4.5-2,4.5-4.5h6.8V240c0,3.6,3,6.6,6.6,6.6c3.3,0,6.1-2.4,6.5-5.7
				l0.5-3.9l3.8,1.2c6.9,2.1,14.2,3.2,21.5,3.2c26.4,0,50.6-14.2,61.7-36.3c0.8-1.7,2.9-2.3,4.5-1.5c1.7,0.8,2.3,2.9,1.5,4.5
				c-12.2,24.3-38.8,40-67.8,40c-6.9,0-13.7-0.9-20.3-2.6C103.6,250.1,98.9,253.4,93.6,253.4z"/>
		</g>
		<g>
			<circle class="st0" cx="81.8" cy="181.8" r="5.3"/>
		</g>
		<g>
			<circle class="st0" cx="102.7" cy="150.3" r="5.3"/>
		</g>
		<g>
			<circle class="st0" cx="130.6" cy="163.4" r="5.3"/>
		</g>
		<g>
			<circle class="st0" cx="168.6" cy="174.5" r="5.3"/>
		</g>
		<g>
			<circle class="st0" cx="160.1" cy="210.5" r="5.3"/>
		</g>
	</g>
	<g>
		<path class="st0" d="M235.8,91.8h-21.4c-1.9,0-3.4-1.5-3.4-3.4c0-1.9,1.5-3.4,3.4-3.4h21.4c1.9,0,3.4,1.5,3.4,3.4
			C239.2,90.2,237.7,91.8,235.8,91.8z"/>
	</g>
	<g>
		<path class="st0" d="M271.7,235.8h-43.5c-1.9,0-3.4-1.5-3.4-3.4s1.5-3.4,3.4-3.4h43.5c1.9,0,3.4,1.5,3.4,3.4
			S273.5,235.8,271.7,235.8z"/>
	</g>
	<g>
		<path class="st0" d="M267.7,257.5h-39.5c-1.9,0-3.4-1.5-3.4-3.4s1.5-3.4,3.4-3.4h39.5c1.9,0,3.4,1.5,3.4,3.4
			S269.5,257.5,267.7,257.5z"/>
	</g>
	<g>
		<path class="st0" d="M275.7,214h-47.5c-1.9,0-3.4-1.5-3.4-3.4s1.5-3.4,3.4-3.4h47.5c1.9,0,3.4,1.5,3.4,3.4S277.5,214,275.7,214z"
			/>
	</g>
	<g>
		<path class="st0" d="M277.7,191.3h-49.5c-1.9,0-3.4-1.5-3.4-3.4c0-1.9,1.5-3.4,3.4-3.4h49.5c1.9,0,3.4,1.5,3.4,3.4
			C281,189.8,279.5,191.3,277.7,191.3z"/>
	</g>
	<g>
		<path class="st0" d="M285.7,147.7h-57.5c-1.9,0-3.4-1.5-3.4-3.4c0-1.9,1.5-3.4,3.4-3.4h57.5c1.9,0,3.4,1.5,3.4,3.4
			C289,146.2,287.5,147.7,285.7,147.7z"/>
	</g>
	<g>
		<path class="st0" d="M280.7,169.5h-52.5c-1.9,0-3.4-1.5-3.4-3.4s1.5-3.4,3.4-3.4h52.5c1.9,0,3.4,1.5,3.4,3.4
			S282.5,169.5,280.7,169.5z"/>
	</g>
</g>
</svg>
