<svg id="Layer_1" data-name="Layer 1" xmlns="http://www.w3.org/2000/svg" viewBox="0 0 10.01 86.02"><defs><style>.cls-1{fill:#f3e600;fill-rule:evenodd;}</style></defs><g id="Round-1"><g id="Home_slider1" data-name="Home slider1"><g id="section_1" data-name="section 1"><g id="Group-3-Copy"><path id="Fill-1" class="cls-1" d="M686.27-.38h-.52A2.26,2.26,0,0,1,686.27-.38Zm.7.32c-1,0-1.09,0-.93-.12h.14L687,0Zm1.68,19.48c-.6.06-.83-.05-1.64,0A6.43,6.43,0,0,1,688.65,19.42Zm0-13.27H687A5.7,5.7,0,0,1,688.65,6.15Zm-.94.94h.71c.24,0,.26,0,.14.08a6,6,0,0,1-.85,0Zm1.74.19h1.15a6.91,6.91,0,0,1-.91,0c-.26,0,.46,0,.14.08h-1.7l-.44-.06c.64,0,.77-.13,1.76-.14Zm0,.33c.19,0,.21,0,.12.07a6.76,6.76,0,0,1-.9,0A3,3,0,0,1,689.45,7.61Zm.25,15.48a4.79,4.79,0,0,1-1.31.07c-.06,0,.24,0,.32-.07Zm.34-1.55h-1.15a6.86,6.86,0,0,1,1.11,0ZM688.63,51.8h1.18l.44.06h-.91l.23.06h-1.93l1-.1Zm.15-4.54h.16a2,2,0,0,1-.59,0Zm.85.14a4.18,4.18,0,0,1-1,0A5.57,5.57,0,0,1,689.63,47.4ZM689,51.56a2.15,2.15,0,0,1-.62,0A1.62,1.62,0,0,1,689,51.56Zm1.3,0a3.42,3.42,0,0,1-.64,0A1.72,1.72,0,0,1,690.3,51.56Zm-1.38.5a3.54,3.54,0,0,1-.92,0A7.06,7.06,0,0,1,688.92,52.06Zm0,2.87H688a3.47,3.47,0,0,1,.91,0Zm1.32-1.37c0,.08-.65.09-.62.14s-.19.1-.77.14l-.6-.08a11.21,11.21,0,0,1,2-.2Zm-.63-.19a3.7,3.7,0,0,1-.94,0A7.37,7.37,0,0,1,689.61,53.37Zm-1.45,14c.4.08-.16.09-.31.14C687.45,67.43,688,67.42,688.16,67.37ZM.51,36.43H.86c.05,0-.18-.09.36-.09-.06,0,.17.09-.36.09,0,0,0,.09.13.14a2.32,2.32,0,0,0,1.31-.34c-.06,0-1.44.08-1.79.14h0Zm0-2.25a4.17,4.17,0,0,0,.71.06c0-.09.5-.18.81-.28-1,0-.47.19-1.17.19.07,0,0-.06-.19-.09H.51Zm0-.57c.18,0,.35,0,.35-.07H.51Zm0-16.3C1.67,17.26.59,17.12.51,17.31Zm0-6.62s0,.08.11.12c1.17-.07.75-.13-.11-.15Zm0-.91c.22,0,.35,0,.35-.09.19,0,1.2,0,.58-.09a3.66,3.66,0,0,0-.93.08C.26,9.76.51,9.78.51,9.78Zm0-5.51a.54.54,0,0,0,.16.1c.32-.06,0-.15.54-.17a2.51,2.51,0,0,0-.67,0h0Zm0-1.19a6.32,6.32,0,0,0,.87,0C.26,3.13,1.38,3,.62,3H.51c-.17,0,0,.11,0,.11ZM3.37-.63l-.18.09a10.82,10.82,0,0,0,1.61,0c-.14.06-.17.12-.12.19a5.63,5.63,0,0,1,1.64,0s.28-.15.14-.17A7.18,7.18,0,0,1,5.07-.63Zm62.05,0c.08.05.12.08.62.13h.57l-1-.13Zm16.36,0c-.07,0,0,0,.15.06.52,0,.34,0,0-.06Zm25.09,0a.81.81,0,0,0,.31.06h.09a1.46,1.46,0,0,0,.46-.1,1.94,1.94,0,0,1-.68,0Zm127.74,0c-.71.14-.39.07.35.11-.17,0-.23-.07-.22-.11Zm72.79,0c-.56,0-1.07.11-.75.18s.21-.06.22,0a1.9,1.9,0,0,0,.67-.09c.22-.09.19,0,.69,0a3.53,3.53,0,0,0-.46,0Zm1.4,0-.2.06c.15,0,1,0,.3-.06ZM339-.48c.11,0,2.74,0,1.47-.1a2.79,2.79,0,0,1-1.22,0Zm160.5.09c.05.1.27,0,.2,0a7,7,0,0,1,.8-.08ZM684.6,85.5c-.64.1-.39,0-.13-.06S684.89,85.44,684.6,85.5Zm-2-.33a6.62,6.62,0,0,1-2.87,0c-.3-.35,2-.22,3.09,0-.13.06-.2.07-.22.06ZM678.1,0a2.26,2.26,0,0,1,.52,0ZM660.27,85.6c-.94.1-2.64.09-2.11-.11a4.4,4.4,0,0,1,2.44.06.92.92,0,0,1-.33,0ZM654,85.37a8.38,8.38,0,0,1-2.45.07c-.62-.11.18-.33,1.51-.29a8.56,8.56,0,0,1,1.13.17c-.13.08-.19.07-.19,0Zm-6.3-.2a7.22,7.22,0,0,1-3,0c-.77-.35,1.77-.27,3.11-.11a.13.13,0,0,1-.14.07ZM643.12-.09l.35-.06h.44a2.62,2.62,0,0,1-.79,0Zm.14,86c-1.17.07-2.87,0-1.86-.16,1.38-.25,2.23-.06,2.24.14h-.38ZM640.51.11h.09c.67-.13,1.66.07,1.21.17-.75.17-1.38-.09-1.3-.16Zm-2.58,85.67h-.35C640.72,85.16,641.47,86.09,637.93,85.78ZM638.79.13c.35,0,1,.18-.19.13C638.6.26,638.34.17,638.79.13Zm-1.46,85c2-.15,2.36.06,2.28.27h-.53c-1.82.08-4.11-.13-1.75-.3ZM633.3.37c-.48,0-.54-.08-.21-.14C633.09.23,634,.33,633.3.37Zm-1,85.3c-.28,0,.38-.09.65-.08A2,2,0,0,1,632.3,85.67Zm-.78-.31c-.59.1-.38,0-.14-.06s.4,0,.14.06ZM630.17,0h1.11C631.28.11,630.61.07,630.17,0ZM622,.37c-1.16,0-.58-.12.3-.16h.08C623.38.21,622.66.39,622,.37Zm-17.88,0a2.44,2.44,0,0,1,.54,0ZM603,.14a3.09,3.09,0,0,1,.43,0ZM601.18.3c-.19-.07.68-.1,1-.13h.38L604,.23a14.9,14.9,0,0,1-2.91.07Zm-1-.25ZM587.62,85.37c-.87.13-2.42.13-2.3-.06a6.54,6.54,0,0,1,2.57,0c-.28.07-.32.06-.27,0Zm-4.15-85c-.81.14-1-.08-.71-.15h.1c.8-.08.93.09.61.15Zm-2.08-.2h1.51a3.84,3.84,0,0,1-1.51,0Zm.06.2h-.51s0-.07.44-.09c.18,0,.2.08.07.12Zm-3.61,85.3h0a2.35,2.35,0,0,1-.53,0,3.3,3.3,0,0,1,2.61-.19c.7.19-.9.48-2.08.15ZM574.94.26a2,2,0,0,1,.49,0Zm.81.28c-.54,0-.79,0-.74-.11S576.23.43,575.75.54ZM561,.61s1.21.05.66.12S560.88.68,561,.61Zm1.49,84.53a6.89,6.89,0,0,1-2.86,0c-.77-.35,1.69-.27,3-.12,0,.07-.1.08-.13.07Zm-3.38.09c-1.36.12-3.34.06-2.67-.17a5.5,5.5,0,0,1,3.14.12,1.85,1.85,0,0,1-.47,0ZM552.38.74c-.56,0-.81,0-.76-.11S552.86.63,552.38.74Zm-.89-.4C552.08.43,550.64.34,551.49.34Zm-3.93.1c-.11,0,.89,0,.38.09S547.42.53,547.56.44ZM548,85.06c-1.33.13-3.33.07-2.71-.15a5.75,5.75,0,0,1,3.16.1,1.69,1.69,0,0,1-.45,0ZM542.16.51c.25,0,.36.05.32.08C541.75.59,542,.47,542.16.51Zm-.68-.14a2.42,2.42,0,0,1,.76,0A4.82,4.82,0,0,1,541.48.37Zm-13.4,0h-.52a4.51,4.51,0,0,1,.52,0Zm1.81,85a6.26,6.26,0,0,1-2.44,0,7.21,7.21,0,0,1,2.7,0c-.25.08-.29.07-.26,0ZM522.82.5h1.86C524.61.67,523.58.61,522.82.5Zm1.36-.36c-.13.08.12.12-1.21.15C523,.18,523.25.15,524.18.14Zm1.21,85.1c-1.34.12-3.33.06-2.69-.17a5.72,5.72,0,0,1,3.15.11A3.62,3.62,0,0,1,525.39,85.24ZM513.93.66a1.88,1.88,0,0,1,.58,0Zm-.83,84.56a11.59,11.59,0,0,1-3,0h0c-2.19.24-3.61-.18-1.92-.31a15.1,15.1,0,0,1,2.33,0c1,0,3.84,0,2.63.25Zm-2.86.63c-.48.08-.31,0-.12,0ZM502.65.37c-1.3.08-1.56-.09-.16-.12h0C502.57.25,503.49.32,502.65.37ZM501.19.15a3,3,0,0,1,.84,0l-.41.08h-.43ZM488.5.17h0l.63-.06c.24.08-.21.09-.67.08Zm-6.66,0h.88C482.64.17,481.36.27,481.84.17ZM478.4.62c-.49,0-.71,0-.67-.09S478.81.53,478.4.62ZM471.93.37h1.5A3.79,3.79,0,0,1,471.93.37ZM463.76.21a1.1,1.1,0,0,1,.57,0q.15,0,.09-.09l.33.09h.16C466.46.28,464.72.31,463.76.21Zm-1,85.39h-.14a4.17,4.17,0,0,1,2.21-.25c-.59.1.72.4-2.09.27Zm-2-.52a6.9,6.9,0,0,1-3,0c-.68-.35,1.84-.26,3.12-.09-.06.06-.12.08-.15.07ZM456,.37l1.42.1A2.3,2.3,0,0,1,456,.37Zm-7.87.11h1.79A4.16,4.16,0,0,1,448.13.48ZM443.44.25a3.32,3.32,0,0,1,.89,0h.43a7.41,7.41,0,0,1-1.33-.06ZM438.66,0Zm-6.27.3a3.66,3.66,0,0,1,.81,0A3.66,3.66,0,0,1,432.39.3ZM430.55.07a3.75,3.75,0,0,1,.67,0C431,.15,430.22.07,430.55.07Zm.21.48q-.78,0-.45-.12c.33-.12,1.08.07.45.12ZM420.63.23a1.34,1.34,0,0,1,.4,0C420.57.23,420.43.17,420.63.23Zm-2.07,85.24c-1.87.1-4.34-.11-2-.3,2.05-.16,2.49,0,2.5.26-.53.06-.61,0-.53,0ZM411.08.09h1A2.41,2.41,0,0,1,411.08.09Zm-2,.21c.23,0,.33,0,.3.07C408.72.37,408.94.26,409.08.3Zm-2.47,85.27h-.49c-1.7.08-3.75-.12-1.56-.28,1.89-.13,2.16.07,2.05.26Zm-4.47.28c-.52.11-1.89.17-1.94,0s1.26-.18,2.1,0Zm-3.05-.42c-.85.14-2.4.14-2.29-.06a6.49,6.49,0,0,1,2.56,0c-.28.06-.32.06-.27,0ZM396.75.37l.58.07h.17C398.93.44,397.32.62,396.75.37ZM399,.15a3.7,3.7,0,0,1,.66.07,12.06,12.06,0,0,1-1.7,0,3.72,3.72,0,0,1,1-.08Zm-6.1,0h0s-.18,0,0-.07.72,0,0,0Zm-1.51.1c-.37,0-.54,0-.5-.07s.88,0,.5,0Zm-7.28,0a3.36,3.36,0,0,1,1-.08,2.39,2.39,0,0,1,.65.06,11.5,11.5,0,0,1-1.66,0Zm-.21.07a4.05,4.05,0,0,1,1.1,0,9.73,9.73,0,0,1-1.08,0Zm-.9.1.58.08h.17c1.4,0-.16.12-.75-.13Zm-5.67,85.16c-.43,0,.07-.1.26-.11s.13,0,.71,0a8.4,8.4,0,0,1-1,.07ZM374.54,85a5.62,5.62,0,0,1,3.07.1,3.09,3.09,0,0,1-.43,0C375.89,85.3,374,85.24,374.54,85ZM373.49,0h0ZM372-.14Zm-.65.29c-1.54.11-.91-.13-.29-.2h.14C372.31,0,372.06.11,371.35.15ZM365.11,85c-1,0-.65-.34.67-.39a9.05,9.05,0,0,1,2.08.11C371.22,85.12,364.86,85,365.11,85ZM355.56,0h1A1.89,1.89,0,0,1,355.56,0Zm-.17,85.34h0c-.38.13-.46,0-.28,0ZM352.1.22c-1.16.06-.79-.13-.52-.19h.11C352.56,0,353,.16,352.1.22ZM350.18.11h-.53s0-.07.49-.1c.18,0,.2.09,0,.13ZM347.06,0c.31,0,.49,0,.52.07C346.77,0,346.8-.08,347.06,0Zm-.19-.41c.33,0,.34,0,0,.08-.1,0-.62-.09,0-.12Zm-.62.11h0c-.75-.11.75,0,0,0Zm-1.18.3c-.3,0-.24-.08.19-.12C345.26-.16,345.76,0,345.07,0Zm-.49-.12c-.34,0-.37-.06-.08-.11a1.19,1.19,0,0,1,.46,0c-.38,0,0,0-.38.06ZM93,0h0Zm63.86,0,.53-.07h.46a8.34,8.34,0,0,1-1,0Zm6.81.1a3.32,3.32,0,0,1,.44.06,10.14,10.14,0,0,1-1.35,0,4.61,4.61,0,0,1,.91,0Zm-.94-.1a2.15,2.15,0,0,1,.8,0A2.15,2.15,0,0,1,162.73,0Zm69.75-.12s.37.11-.06.11a4.7,4.7,0,0,1-1.12-.13,5.82,5.82,0,0,1,1.18,0Zm22.37-.1h.43c.42,0,.13.06-.43,0Zm86.89,0h0s-.36,0-.33-.06c.24,0,1,0,.34.07h0Zm-14.3.37h1.66a3.87,3.87,0,0,1-1.66,0Zm-4-.22c-.57.16-1.69-.1-.48-.08.67,0,.72,0,.48.07ZM320.55,85c-1.12.15-3.12.13-2.8-.1.47-.35,2.48-.16,3.17,0a1.15,1.15,0,0,1-.37.06ZM315.32-.17H316a10,10,0,0,1-1.55.05,2.18,2.18,0,0,1,.84-.1Zm-1.7.28h1.73A3.89,3.89,0,0,1,313.62.11Zm-2,.07c-2,0,.58-.31.92-.23C313.08,0,312.54.19,311.62.18Zm-1.3-.34c0,.06-.21.21-.83.08a2.9,2.9,0,0,1,.83-.09h-.05a2.35,2.35,0,0,1,.53,0s.31,0,.15.06a1.67,1.67,0,0,1-.63-.06ZM308.4.07a1.77,1.77,0,0,1,.46,0C308.25.12,308.17,0,308.4.07Zm-.67-.28c.25,0,.82,0,.69.06a2.69,2.69,0,0,1-.69-.06ZM306.21,85.1c-.67.11-.39,0-.12-.06S306.52,85,306.21,85.1ZM295.27-.07a1.55,1.55,0,0,1,.43,0ZM287-.2Zm2.32,85.28a6.9,6.9,0,0,1-3,0c-.63-.36,1.92-.26,3.21-.09-.09.07-.14.08-.18.07ZM281.42-.35s.27,0,.27.06a6.49,6.49,0,0,1-1.08,0h.81Zm-1.85.09s.62.06.85.11C279.59-.09,279.51-.15,279.57-.26Zm-1.78.13Zm-3.6.15a2.58,2.58,0,0,1,.68,0c-.61.05-1,0-.68,0Zm-.72-.28c-.39,0-1.36-.12-.32-.13-.14.07,0,.09.27,0,0,0,.67,0,.05.08Zm-6.83.34a1.46,1.46,0,0,1,.55.07C266.39.15,266.37,0,266.64.08Zm0-.22h-.47A1.85,1.85,0,0,1,266.64-.14Zm-2,0c-1.11,0-1.32-.17.54-.13C265.18-.27,266.18-.13,264.64-.14ZM259.28,0a1.85,1.85,0,0,1,.47,0Zm-.44,0Zm-7-.24h.75c-.09,0-.34,0-.75-.1Zm-.08.27h0s-.15.06-.16,0h.15s-.28-.06.05-.11.51.06.54.11Zm-4.52.15c-.45,0-.55-.06-.32-.11,0-.07.88-.07.32,0Zm-3,0h.95c.85-.14,1.15.11-1,0ZM240,.09a2.81,2.81,0,0,1,.58,0Zm-17.6,85.1c-1,.15-2.93.15-2.83-.07a7.9,7.9,0,0,1,3.14,0A1.55,1.55,0,0,1,222.4,85.19Zm-7.53,0c-.24.09-2.2.17-2.13.22h0a15.18,15.18,0,0,1-2.86,0c-.72-.08-.26-.22.53-.33l2-.15c1.23-.06,3.16,0,2.48.21Zm-2.44.49a1.51,1.51,0,0,1,.52,0S212.19,85.82,212.43,85.68Zm-1.18.07a4.18,4.18,0,0,1-2.19.1c-1.08-.26.7-.26,2.17-.16.08,0,.06.06,0,.06Zm-7.67-.28c-.28,0,.48-.09.76-.07A2.76,2.76,0,0,1,203.58,85.47ZM190.55.22c-.4,0-.58,0-.55-.08S190.88.14,190.55.22Zm-4.81,85.15c-.34.12-.44,0-.28-.06C185.79,85.31,185.88,85.31,185.74,85.37Zm-.9-.38c-1.14.15-3.17.13-2.85-.1.5-.36,2.54-.17,3.23,0a1.21,1.21,0,0,1-.38.06ZM180.74.22H182a2.7,2.7,0,0,1-1.2,0Zm-7.22,84.89a6.39,6.39,0,0,1-2.82.07c-1.06-.33,1.46-.28,2.89-.14,0,.06,0,.07-.07.07Zm-5.77-85h.92A2.37,2.37,0,0,1,167.75.11Zm1.64,85.26c-1.12.14-3,.11-2.67-.11a5.87,5.87,0,0,1,3,.06,1.15,1.15,0,0,1-.37,0ZM161.71.26a6.51,6.51,0,0,0,.88.06h.35c-1.19.13-.79-.06-1.23-.11ZM161,.12c.29,0,.44,0,.45.07C160.7.19,160.78.08,161,.12Zm-2,.25h.7C159,.51,158.44.37,159,.37Zm-1.57.11c-.51,0-.63-.07-.35-.14C157.08.34,158.08.43,157.43.48ZM153.1,85.77C157.15,85.72,152.26,86.31,153.1,85.77Zm-.9-.15a4.27,4.27,0,0,1,2.35,0h-.28c-.83.1-2.44.11-2.07-.08ZM149,.23a1.69,1.69,0,0,1,.45,0Zm-4.71,0h0s-.17,0,.07-.08.73.11-.06.08Zm-.75-.16h.18c.26,0,0,.08-.19,0h0Zm-.29,85.37c-.28,0,.58-.08.86-.06A4.1,4.1,0,0,1,143.25,85.44ZM141.65,0c.64,0,.65.14,0,.18-.26,0-.35-.08-.25-.13s0,0,.24,0Zm1.4,85.18a6.52,6.52,0,0,1-2.78,0c-.86-.33,1.56-.26,2.88-.12a.07.07,0,0,1-.09.07h0ZM141,.29c-.32,0-.38,0-.19-.08C140.71.21,141.51.26,141,.29Zm-.41-.23h-.09c-.12,0-.18,0,0,.06-3,.15.57-.34.13-.12Zm-1.45,0c-.5.07-1.09,0-.68-.08S139.46,0,139.14.06Zm-1.44,0s0-.06.54-.08C138.82.22,137.11,0,137.7.06Zm0,.22c-.29,0-.37,0-.24-.07C137.38.21,138.12.21,137.7.28Zm-2,0-.36-.05C135.27.23,136,.23,135.7.28Zm-15.5.2.63.06C120.13.6,119.72.46,120.2.48Zm-.7-.22c.36,0,1,0,.8.1A4.27,4.27,0,0,1,119.5.26Zm-13.13,85.5c-1,.09-2.63.08-2.06-.11a4.06,4.06,0,0,1,2.39.07h-.33Zm-2.18.28ZM103.8.16a2.94,2.94,0,0,1,.42,0Zm.56.11s1.13.06.56.12S104.21.34,104.36.27Zm0,85.13c-.76.09-.38,0-.08-.07S104.7,85.33,104.36,85.4Zm-2.78.58Zm-.2-.55c.33,0,.36,0,.11.06C100.94,85.58,101.15,85.49,101.38,85.43ZM97.2.19h0s0-.06.38-.08c.14,0,.14.07,0,.1h-.4ZM92.7.11a2.56,2.56,0,0,1,.62.05C92.7.16,92.38.09,92.7.11ZM79,.37c-.52,0-.74,0-.66-.1S79.5.27,79,.37Zm-4.44,0L76.23.3c.12.16-.91.12-1.67.06Zm1,84.69a6.59,6.59,0,0,1-2.83.08c-1.1-.33,1.44-.29,2.89-.15C75.62,85.05,75.62,85.07,75.56,85.06ZM70.59.37a2.62,2.62,0,0,1,.56,0ZM68.71,0h.85A1.75,1.75,0,0,1,68.71,0Zm-.52.09a11.56,11.56,0,0,1,1.54.07c.54.07-2.38.07-1.54-.08Zm-2,0a1.84,1.84,0,0,1,.41.05c-.54,0-.6-.08-.41-.06Zm-8.57.1a2.18,2.18,0,0,1,.51,0Zm-5,.07h1.71A3.8,3.8,0,0,1,52.62.26ZM41.35-.42c.14.09-.5.07-1,0h.51a1.14,1.14,0,0,0,.45,0Zm-.94,85.7c.22.09-.75.12,0,0-1,.17-3.18.16-2.71-.08a5.32,5.32,0,0,1,2.63,0C45.07,84.81,42.33,86,40.41,85.28ZM37.48-.24h.39a8.34,8.34,0,0,1-1,0ZM36.23-.1a8.39,8.39,0,0,1,1,.06A1.89,1.89,0,0,1,36.23-.1ZM31.9.2ZM29.52.3c-1.71,0-.52-.16.22-.2h.14C31,.1,30.31.28,29.52.3ZM26.74-.17h.35C27.16-.17,27-.1,26.74-.17Zm-7.13,0a1.46,1.46,0,0,1,.51,0Zm-.26.09a4,4,0,0,1,.84-.08h.46C21.16-.16,19.88,0,19.35-.08Zm-.29-.16h0a4.17,4.17,0,0,1,.5,0A.72.72,0,0,1,19.06-.24ZM4.42,35.37c-.66,0-1.42,0-1.42-.13s.26-.19,1-.14c-.27,0,.35.3.43.27ZM4,34.2c-.51-.08-1.55-.2-.6-.3C3.4,34,4.5,34,4,34.2Zm2.31-6.57v-.2C7.13,27.54,6.94,27.52,6.31,27.63ZM5.67,25c-.19,0,.1-.18.4-.19S6.3,25,5.67,25ZM6,24.54c0-.08,0-.08.59-.11C6.64,24.49,6.35,24.51,6,24.54Zm1.11-1.77c-.46-.09.18-.1.34-.15C7.91,22.71,7.27,22.72,7.11,22.77Zm0-.81c-.66,0,.69-.19.74-.2s-.12.24-.74.24Zm-.76-3-.3-.1c1.08-.09.78,0,.3.14Zm.23-2.59A1.72,1.72,0,0,0,6,16.6C5.86,16.54,5.26,16.26,6.58,16.37Zm.62,1H6.89c-.51-.09,0-.11.14-.16.54.08,0,.09,0,.16s.17,0,.16,0ZM5.9,14.09H5c.51,0,.75-.08.86,0Zm-.54-2.83a3,3,0,0,1-.94.06A7.42,7.42,0,0,1,5.36,11.26Zm-.77-5.7c-.46,0,0-.08,0-.08C4.83,5.48,4.81,5.54,4.59,5.56ZM6,.79Q5.64.73,6.06.7C6.51.7,6.06.78,6,.79Zm-.32.42c-.28-.05-.28-.09,0-.14S6,1.16,5.68,1.21ZM4.54,1.06q-.18,0-.12-.06A8.33,8.33,0,0,0,6,.91,11.84,11.84,0,0,1,4.54,1.06ZM9,18.45a1.89,1.89,0,0,1-.81.19C8,18.52,8,18.52,9,18.45ZM7.82,15.92h.55a4.87,4.87,0,0,1-1,.17c-.29,0,.32-.14.43-.18ZM7,10.14H6.28C5.83,10.14,6.62,10,7,10.14Zm.85,2.92c-.73,0,.64-.18.72-.19S8.39,13.09,7.85,13.06ZM7.72,9.79a1.89,1.89,0,0,1,.81-.19C8.67,9.73,8.67,9.73,7.72,9.79ZM8.4,6.37a4.22,4.22,0,0,1-1,.2C7.25,6.45,7.25,6.45,8.4,6.37ZM7.13,2.19A6.47,6.47,0,0,0,8,2.08C8.08,2.15,7.66,2.18,7.13,2.19Zm.46,2.86c.15.09-.42.12-.45.23C6.78,5.16,6.92,5.1,7.59,5.05ZM6.33,2.89c-.13,0-.17,0-.12-.09h.71A2,2,0,0,1,6.33,2.89Zm1,.24c.16.08-.07.11-.68.08A3.08,3.08,0,0,1,7.33,3.13ZM6,8.49c.4.12-.43.13-.32.23a10.2,10.2,0,0,0-1.35-.09A7.2,7.2,0,0,0,6,8.49Zm-.16-.8a5.67,5.67,0,0,1,1-.18C6.93,7.64,6.52,7.66,5.84,7.69Zm.26.68c0,.06,0,.06-.48,0ZM4.91,9.88A1.42,1.42,0,0,1,3.72,10c-.17,0,.36-.25.34-.3s-.46-.17-.4-.24A4.44,4.44,0,0,1,4.78,9.1c.5-.1,1.71-.1,2.06-.18,0,.08.08.16.13.24a5.55,5.55,0,0,1,1,.09,8.24,8.24,0,0,0-1.22.06H7.2a1.26,1.26,0,0,1-.43.08c-.19,0-.24,0-.22-.07l-1.32.19c.24.07-.8.11-.41.2A6.79,6.79,0,0,1,6,9.78c.2.07,1.11-.18,0-.11-.41-.12.43-.22,1.16-.13s.12.06.21.18-1.6.43-1.18.16c-.41-.07-.85.09-1.24,0Zm.94.86a2.93,2.93,0,0,1,.59-.11C6.44,10.71,6.44,10.71,5.85,10.74Zm.55,4.39c-.61-.07.08-.16.4-.2S6.32,15,6.4,15.13Zm-.07-1.7c-.54,0,.19-.09.58-.07Zm.88-.83a1.07,1.07,0,0,1-.43.09c-.16,0-.22,0-.23-.06-1.19.16-3.18.38,0,.38.26-.13-1-.06-1-.16,1.52-.1,1.34-.06,1.59.12s.07.23-1.14.32c-.45,0,.09-.06.2-.11h-1c-1.49.3-1,.06-1.12-.06s-.37-.29-.29-.4A5.76,5.76,0,0,1,5,12.37c.52-.08,1.42,0,1.8-.1s.11.21.12.24,1.11-.08.19.09l-.31.05Zm2,8.42c-.71,0,.21-.16.43-.17s.14.15-.43.15Zm-.5,38.44a2.8,2.8,0,0,1,.81-.18h.21l-1,.13ZM8.6,73.61c.36-.08,1-.1.84-.19C9.83,73.55,9.83,73.55,8.6,73.61ZM7.6,77a3.26,3.26,0,0,1,1.06-.24C8.66,76.92,8.49,76.92,7.6,77Zm.14,2.92a2.19,2.19,0,0,1,.88-.12c-.42,0,0,.2-.88.13Zm0,3.14a2.55,2.55,0,0,1,.87-.13c-.39,0,0,.17-.87.14Zm-4.55.3.73-.1c.17.06.21.12.12.19-.77,0,.23-.13-.85-.08Zm3.41-2.1c-.09-.13.55-.16,1-.25,0,.16-.6.17-1,.26Zm.72.57L6.73,82c-.68-.1,0-.14.59-.16ZM5.26,83.37c1.13.07-.92.07,1.27.1v.12C5.79,83.59,4.7,83.52,5.26,83.37Zm.13.91-.47.1C4.85,84.27,4.85,84.27,5.39,84.28ZM7.14,85c.32.1-.2.12-.4.15C6.24,85,6.88,85,7.14,85Zm-.27-2c.31,0-1.26-.08-.68-.11l.17-.07a10.39,10.39,0,0,1,1.37.06c-.3.07-.23.27-.61.3a7.21,7.21,0,0,1-.93,0H5.32c-.46,0-.1.12-.8.12-.32,0,.07-.19.07-.24s-.18-.2.22-.37a4.61,4.61,0,0,1,.71-.25,8.18,8.18,0,0,0,1.21-.06.19.19,0,0,1,.25.06.14.14,0,0,1,0,.06,7.6,7.6,0,0,1,1.07.1c-.88,0-1.31.09-2.1.11-.27.08-1.12.42.91.27Zm-1-5.27.67-.08s0,.13-.67,0Zm.52.47A4,4,0,0,1,7.67,78a5.7,5.7,0,0,1-1.28.16Zm.17.77a2.35,2.35,0,0,1-.65-.06,4.09,4.09,0,0,1,.7,0V79Zm1.08-2.45a1.83,1.83,0,0,1-.66,0c-.09-.11.63,0,.66,0Zm-3.49-.2a1.12,1.12,0,0,1,.44-.09c.41,0,.22.08-.44,0Zm1.7-.7c.05,0,0,.06-.13.09-.53,0-.24-.14.13-.14Zm-1.43-1.2c-.23-.08-.12-.11.36-.1.12,0,0,0-.36.05ZM689.42,86l2-.09L692,86a2.52,2.52,0,0,0,1.22,0,4.43,4.43,0,0,1,1.26,0c.18,0,.33,0,.2-.06a7.84,7.84,0,0,1-1.19-.06,2.8,2.8,0,0,1-1,0c.53,0,.24-.06.32-.09a5.55,5.55,0,0,0-1-.09l1.21-.15h1.18c-.81,0-1.07-.11-1.75-.12h1.2l.72-.09c.09-.06-.15-.08-.44-.11h1.61c.29-.07,0-.14.18-.21H697l-1.06-.14a6.12,6.12,0,0,1-1.6,0c-.32.08.51.08,0,.13-2.14-.08-1.72-.12-2.27-.31-.41,0,0,.06-.45.08v-.39a6.14,6.14,0,0,1-1.05,0s.09-.06-.09-.08-.36,0-.66,0-.21,0-.19-.17c.76,0,.36-.13.94-.17l-.74-.15a4.29,4.29,0,0,1,1.24,0c.29-.07.05-.15.19-.21h.46c.28,0-.5.06-.1.12a9.55,9.55,0,0,1,1.07,0c.28,0,.07-.08-.13-.1a4.15,4.15,0,0,1,.7-.15h.7l.64-.16c.29,0,0,.07.36.08h.31c.1-.1-.79-.14-.85-.24-.51,0-1-.07-1.59-.06a1.61,1.61,0,0,0-.61-.15h.57c-.2,0-.4-.09-.21-.15-.89,0-1.66,0-2.32-.07v-.08a9.1,9.1,0,0,1,1.28-.13l-.15-.06h-.87c.14-.09.84-.11.8-.2h1.48v-.1h-.61c.13-.08-1.24,0-.53-.13H691c-.33-.08.4-.09.52-.14l-.56-.07.43-.12h.49a.58.58,0,0,1-.26-.06c.36-.07.28-.16.74-.23h.33c.19,0,.14,0,.15-.06a6.34,6.34,0,0,1-1.07-.06,4.22,4.22,0,0,1-.87,0l1-.37a17.92,17.92,0,0,1-2.31-.15l.74-.19H690a5.1,5.1,0,0,1,.87-.07c.16-.06.19-.11-.3-.15h1.36l-.58-.06c-.13,0-.21-.12.23-.17-.94-.07-2-.11-2.91-.21a5.15,5.15,0,0,1,1.11,0h1.14a12.63,12.63,0,0,0-1.51-.12h.32a8.7,8.7,0,0,1-2.1-.14h1.74l1.81.13c.15,0,.17-.07,0-.07-.77,0-.85-.09-.9-.17H690c0-.06.38,0,.55,0-.11-.11-.74-.2-.51-.33,1,.06,2,.11,3.07.08.22,0,.07-.06.12-.08a3.05,3.05,0,0,0,.6-.06V79h-.17l-.23-.07h-.34c-.48-.06.08-.15-.4-.22a16.48,16.48,0,0,1-1.72.06h-.49l-.52-.22a12.13,12.13,0,0,1,2-.08c0-.14-.71-.13-1.36-.13h.34c-.14,0-.47-.1-.1-.16s0,.07.45.09c0-.14.29-.29-.58-.41h.63c-.15,0-.8,0-.68-.09h-.46c-.32-.08-1,0-1.41-.06a2,2,0,0,1,.49,0c.26,0-.52-.06-.23-.1a5.89,5.89,0,0,1,.84,0,.37.37,0,0,1-.21,0,8.05,8.05,0,0,1-1.2-.07,4,4,0,0,0,.91-.11h-.52c-.17,0-.13-.06,0-.08a2,2,0,0,1,.54.08h0c.43,0,.25,0,.47-.09l1,.13a1.85,1.85,0,0,0,.47,0H691c.16,0,.87,0,.59-.09a4.18,4.18,0,0,0-1,0l-1.59-.2c0-.12,1.07-.1,1.21-.21h-.61a2.7,2.7,0,0,1-.63-.07s.56-.05.24-.1a11.36,11.36,0,0,1,1.65,0v-.11a8.15,8.15,0,0,0-1.78-.1,5.15,5.15,0,0,1,1.46-.26h.23c-.26-.07-.28-.13-.14-.25a3.43,3.43,0,0,0,1,.21h.24c.43,0,.48.09,1,.08s.12-.09.21-.13a9.67,9.67,0,0,1-1.2-.08l-.2.07c-.63,0-.54-.14-1.16-.17v-.29a.57.57,0,0,1,.26,0l2.3.24c-.07,0,.06-.08.29-.11h-.1a8.9,8.9,0,0,1-1.46,0h.88c.28,0-.06-.05.22-.07a9.37,9.37,0,0,1,1.06,0c.31-.07-.38-.1-.21-.2l-.44.1a18.76,18.76,0,0,0-2.12.06l-1-.05c-.32-.09.29-.18,0-.27h.45c.31-.07.08-.11-.35-.16h-1.08c0-.06.45,0,.55,0v-.09l1.08-.12c-.51,0-.44-.09-.45-.14s.12-.1-.12-.14H690c-.49,0,0-.08.08-.12h-.22a3.72,3.72,0,0,1,1-.08,3.75,3.75,0,0,0-.67,0,11,11,0,0,1-1.62,0,5.07,5.07,0,0,1,.54-.09h-.58a2.57,2.57,0,0,0,.73-.1,6.61,6.61,0,0,0,.89,0,2.62,2.62,0,0,0-.79,0,2.35,2.35,0,0,0-.79-.1c-.25-.07,0-.11.89-.18h-.23c-.16,0,.31,0,.1-.07a2.82,2.82,0,0,0-.82,0l.09-.06a10.19,10.19,0,0,1,1.35.08c.23,0,.15,0,.16-.07h-.68a4,4,0,0,1,1.1-.06h-.27c-.89,0-1.65,0-2.54-.07a24.23,24.23,0,0,1,2.95-.09c.15,0,.09,0,.07.06h-.87c.7,0,1.34.06,2.08.06.29-.07.21-.12-.2-.15,0-.07.48-.09.64-.13l-.57-.07c0-.06.5,0,.52,0a21.72,21.72,0,0,0-2.55-.07c.14,0,.88,0,.74-.11s.58,0,.88-.06c1,.08,2.18,0,3.26,0a7.91,7.91,0,0,0-1.28-.19h.86l.42-.21h-.48a4.87,4.87,0,0,1-1,.17,3.72,3.72,0,0,1-.94-.06l-.15.09a10.29,10.29,0,0,1-1.57-.14v-.63h-1.19l.7-.18a3.09,3.09,0,0,0,.43,0,3.68,3.68,0,0,0-1.18-.22,3.11,3.11,0,0,1,.79-.23,3.48,3.48,0,0,0,1.06-.19c.09-.09,1.09-.09.85-.2l-1.37.08c-.27,0,.13-.11-.38-.13l.71-.17-.67-.06-.15.06a.38.38,0,0,1-.21,0c0-.07,0-.15-.61-.15s-.24-.09-.66-.1l.59-.22h-.36c.61-.06.84-.17,1.59-.2.25-.09-.33-.14-.39-.2-.86,0-.63.13-1.47.13l1.06-.29a7.54,7.54,0,0,0,1.5-.13c.29,0-.55-.1,0-.16a4.58,4.58,0,0,0-1.17,0,2.6,2.6,0,0,0-.88-.12,7.08,7.08,0,0,0,2.24-.29,10.32,10.32,0,0,0-1.11-.06c-.15,0,.15,0,.11.07a7.75,7.75,0,0,1-1.18,0,19.65,19.65,0,0,1,2-.4v-.14a4.12,4.12,0,0,0,.86,0l-.4-.11h-.45c-.32,0-.28.08-.56.11s-.08-.06-.14-.1l.67-.09a4.17,4.17,0,0,1-1.15-.26c.21-.06.63-.11.59-.19h.33c.16-.09-.49-.16-.33-.25h.28c.25-.08-.49-.1-.41-.17H689.3s0-.08.33-.11.36-.06.32-.1a1.91,1.91,0,0,1-.63-.08c-.06,0,0-.08-.33-.11h-.49c-.38,0,.07-.11-.37-.13l.93-.11c-.18,0-.45-.06-.37-.12a7,7,0,0,0,1.55-.12v-.12a6.07,6.07,0,0,1-1.13,0c-.32-.06.8,0,0-.12h1.37c.21-.06,0-.12.1-.17.85,0,1.41.08,2.12.12.54,0,.47-.1.47-.17-.49,0-.28,0-.33-.08.48,0,.28,0,.33.08h.5c.19,0,0-.07.18-.11.55,0,.7,0,.59.07h1.18c.28,0,.57-.06.45-.12-.49,0-.56.1-1.22.08.48-.11,0-.27.91-.36l-.48-.06a3.06,3.06,0,0,1-1,.13c-.16,0-.2,0-.15-.06s.19,0,.28,0a1.77,1.77,0,0,0-.46,0c-.3,0,0,.08-.21.08-.65,0-.69-.06-1.13-.07h-.25c-.61-.06.46-.1,0-.17h-1.14c-.08-.07.56,0,.65-.08-.63,0-1.25,0-1.88-.06a8.76,8.76,0,0,1,1.35-.1c-.35-.09-1.23,0-1.36-.12h-.32c.19,0,.56-.11,0-.17.37-.11,1.78-.07,1.91-.21a3.39,3.39,0,0,0-.9,0c-.44,0-.76,0-.72-.11h0c-.16,0-.16,0,.41-.12s.6.1,1.13,0l1-.14h1c.4,0,.5.07.84.09l.49-.15h-.66c-.41,0-.27,0-.41-.07h-.59v-.22c-.51,0-.18,0-.41.06-.44,0-.14-.06-.25-.1a9,9,0,0,0-1.27,0h.32a5.43,5.43,0,0,0-1.14,0l-.41-.06a6.38,6.38,0,0,1,1.22-.22c.08-.07-.52-.08-.57-.13h.2v-.18c.28-.11,1.64-.08,1.67-.22H692c-.22,0,0,0-.1-.08h-.51c-.2,0,.06-.11-.44-.14,0-.11-.27-.22.32-.32.37-.06.16-.14.64-.2-.28,0-.12-.11,0-.17h-.55c-.37-.11.24-.24-.38-.35a6.86,6.86,0,0,0,.9-.09,9.66,9.66,0,0,0-1.2-.07c-.09,0-.16-.07.26-.07V62a7.69,7.69,0,0,1-1.26-.13h.45c.28,0,.08-.08.48-.1l-.65-.09h.72a4.62,4.62,0,0,1,1.23-.17c-.09,0-.38,0-.33-.08-.77,0,0-.08,0-.13-.41-.06-.53-.13,0-.19,0-.06-.52-.07-.29-.12a1.62,1.62,0,0,1,.44,0c.37,0,.06.08.31.12h1.46s-.74-.06-.65-.14a15.72,15.72,0,0,0-2.17,0s.39-.07.21-.12H688.7c.47-.06,1.06-.06,1.75-.09h-.75l-.06-.08h1.57c.19-.11-.43-.11-.86-.14.17-.07.81-.08.92-.16a5.89,5.89,0,0,0,.84,0c.23,0-.17,0-.29-.07a2.47,2.47,0,0,0-.6-.08c.62,0,1.44,0,1.34-.14h-.49c-.28,0-.13-.07-.13-.11a2.91,2.91,0,0,1,.59,0v0H693c.32,0,0,.08.28.13s.17-.09.5-.11a4.17,4.17,0,0,0-.93-.13c-.14,0,.23-.06.26-.09h-.69l.93-.06a2.8,2.8,0,0,0-1,0l-.35-.38c-.42.06.1.15-.32.21s0-.11-.14-.13l-1.63-.19.47-.06h.39c.34-.14-.2-.24-.91-.33l.84-.23a3.75,3.75,0,0,1,.67,0c.28,0,.07-.07.21-.11h-1.51a2.2,2.2,0,0,0-.62.12h-1.09c-.13,0-.07-.06,0-.1.82-.08,1.8,0,2.75-.06l.21-.08h1.06c.18,0,.09,0,.15-.06.21-.06-.55-.07-.27-.15s.5.06.74.08.11,0,.24-.07a3.53,3.53,0,0,1,.46,0c.21,0,0-.07-.22-.09s-.42,0-.28-.09a2.43,2.43,0,0,1,.66,0c.29,0,.61.09.9.12a2.62,2.62,0,0,0,.56,0h-.12a1.7,1.7,0,0,1,.55-.07h-.48c-.22,0-.13,0-.21-.07a11.53,11.53,0,0,0-1.44,0c-.25,0,.13,0,.17-.07a5.45,5.45,0,0,0-1.14-.06l-.23-.08a15.14,15.14,0,0,1-1.78.07,8.78,8.78,0,0,1,1.24-.25c.31,0,.31,0,.32,0a3.23,3.23,0,0,0-.69-.07h-.43c-.22,0-.15,0-.25-.08l-.75.08H690c.07,0,.39-.09.6-.14h-.19a3.19,3.19,0,0,0,.87-.1c-.32,0-.32,0-.33,0s.67,0,.66-.06-1,0-.87-.14h-.35c-.35,0,.47-.09.22-.12-.5-.06.15-.1,0-.14s.5-.07.33-.13a4.31,4.31,0,0,0-.88,0c-.28,0,.12,0,.14-.06-.17,0-.34-.07-.19-.13a4.61,4.61,0,0,1,.91,0c.16,0,0,0,0-.09l-.57-.08a1,1,0,0,1,.35,0h.46a1.4,1.4,0,0,0,.5-.06c-.13-.07-.69-.13-.35-.21l.46-.06h.33c.17,0,.16,0,.16-.06a2.35,2.35,0,0,0-.53,0h-.6c-.32,0,0-.08-.22-.11a1.89,1.89,0,0,0-.74.12c-.84,0-.82-.09-.86-.16h-.46c-.27,0,.08,0,.15-.06h-.31a8,8,0,0,0,1.3-.1H688.1c-.15,0-.18-.07.17-.09a16.67,16.67,0,0,0,2-.15,7.88,7.88,0,0,0-1.19,0c-.2,0-.06,0-.1-.08.21,0,.41,0,.62-.06h-.54s.39-.07.24-.12a8.72,8.72,0,0,0,1.25-.06c.06,0,.13-.06-.28-.07a4.22,4.22,0,0,1,.62-.1,2.42,2.42,0,0,0-.76,0h-.5V55a3.54,3.54,0,0,1-.92.06,3.05,3.05,0,0,1,.9-.17c-.12,0-.07-.1-.15-.11-.34,0,.51-.09-.34-.12a11.78,11.78,0,0,0,1.88-.09,9.87,9.87,0,0,1,1.2-.16c.21,0-.36-.06-.31-.11-.65,0-.26-.07.09-.11h-.62l-.21.09h-.89a4.63,4.63,0,0,1,.65-.1c-.3-.12-.3-.12,0-.28a2.88,2.88,0,0,1-.59-.06,4.09,4.09,0,0,0-.7,0s-.09,0,.09-.07a2.81,2.81,0,0,1,.71,0,7.62,7.62,0,0,0,.81-.14,9.84,9.84,0,0,0-1.33,0l.39.06a10.36,10.36,0,0,1-2.08-.1h2.12a12,12,0,0,1,2.39-.21c-.9,0-1.44-.07-2.44-.06.67,0,.47-.12.88-.12a2.06,2.06,0,0,0,.7-.06c.08-.07-.44-.08-.56-.14h0a1.28,1.28,0,0,0,.34-.07h0a2.89,2.89,0,0,1-.83,0c-.28,0,0,.07-.37.08l-.19-.08a2.81,2.81,0,0,1-.71,0l-.67-.14c.15-.06.58-.14.49-.24h.87l.76-.1v-.1c-.31,0-.35,0-.32-.06a.86.86,0,0,1,.32,0v-.15h-1.37l1.24-.16-.54-.08a6,6,0,0,0-.85,0c-.15,0-.13,0-.07-.06a5.62,5.62,0,0,1,.92-.08c-.28,0-.71,0-.7-.1h-.88a6.64,6.64,0,0,0,1-.1L689,51.4h.32c.06,0-.24,0-.3-.07h.28l-.66-.09a12.45,12.45,0,0,0,1.73-.08l-.68-.09h1L689.9,51l.42-.06H690a7.11,7.11,0,0,1,1.13,0l.51-.13-.41-.06h2.54c0-.06-.38-.1-.23-.14H694c.33,0,0,.08.26.12a11.61,11.61,0,0,0,1.18,0,22.12,22.12,0,0,0-2.57-.24c.17-.07.75-.08.65-.15h-.12c-.5,0-1,.09-.87.17l-.75-.1c-.21,0-.26-.07.11-.1a1.13,1.13,0,0,1-.48-.11l-.3.09a5.12,5.12,0,0,1-.78-.06l.64-.15a6.65,6.65,0,0,1-1-.11c-.2-.11-.15-.09.24-.12-.05,0-.41,0-.24-.1h1.49c.32-.1-.37-.15-.48-.22s.27,0,.48,0,.11-.09,0-.14a1.82,1.82,0,0,0-.57,0l.52-.06c.14,0-.23,0-.22-.07s.44-.07.32-.11a3.11,3.11,0,0,0-.61,0c.55,0,.9-.1.92-.18s0-.14.66-.22a13.53,13.53,0,0,1-1.56,0c-.18,0,0-.06.23-.09a8.63,8.63,0,0,0-1.23-.16c.43-.11,1.48-.12,1.89-.23-.55-.09-1.44-.07-2.18-.11,0-.06.5,0,.52-.06-.67,0-1.26-.11-2.09-.11-.24,0,.12-.11-.42-.14.76,0,1.46-.08,2.26-.06h.32c-.24-.08-.85-.12-1.19-.18a7.23,7.23,0,0,1,1.84-.42c.8-.08.84-.12.32-.25-.77-.09-.77-.09-.34-.19a6.19,6.19,0,0,0-1.66-.2l.7-.36a5.57,5.57,0,0,0-1,0l1.58-.18v-.08a3.11,3.11,0,0,0-.61,0l.59-.16h-1.16c0-.13,0-.13.89-.16,0-.07.46,0,.73,0h.56c-.31,0-.32,0-.33-.06l2-.08c.14,0-.19-.07.06-.1h.42c.27,0,.15-.12-.3-.2a8.72,8.72,0,0,1-1.77,0c0-.06.41,0,.53,0s0-.07.38-.07h1a1.88,1.88,0,0,0-.77-.39c-.28,0-.17,0-.27.07h-.79c-.31-.07,0-.16-.2-.24h-.58l.71-.11c-.24-.07-1.06,0-1-.14s.49,0,.62-.06a8.65,8.65,0,0,0-1.44,0l-.29-.08,1.22-.08c-.38-.08-1.09-.09-1.36-.17a7.8,7.8,0,0,0,1.28-.1,9.91,9.91,0,0,1,1.63-.1h-1.33l1.24-.08v-.27h-.82l-.21-.07h-.59c.17-.1.68-.18.28-.28s-.95-.11-1.19-.19a3,3,0,0,0,.84-.12c.38,0,.43,0,.47.06a6.61,6.61,0,0,0,.89,0,5.07,5.07,0,0,0-.54-.09h.55c.05,0,.11,0-.1-.06s-.17,0-.33,0c-.52,0-.68-.06-1.13-.07h.58l.09-.1.91-.12c-.06,0-.7,0-.62-.07h-.54c-.46-.11.8-.2,0-.3l.66-.07c.51-.13-.45-.23-.16-.35a2.51,2.51,0,0,0-.82.13c-.34,0,0-.11-.22-.16a3.42,3.42,0,0,1-.84-.08l1.34-.08-1-.14a5.42,5.42,0,0,1,.57,0s-.59-.2-.2-.2h.54v-.2c0-.06-.73-.06-.18-.12h.32c.25,0,.14,0,.25-.08.37,0,.44.07.79.07l.27-.09.43.1c.57,0,.21-.09.75-.1a14.14,14.14,0,0,0-1.84-.06l.48-.07H690.6c-.2,0,0-.1-.1-.14h-.83l.84-.11c0-.13-1.22-.09-1.29-.19H689v.07a2.91,2.91,0,0,1-.59,0h1.84l.52.08c.22,0,.24,0,.19-.06a2.77,2.77,0,0,1-.64-.11,16.67,16.67,0,0,1-2-.15c.67,0,1.4,0,1.94-.05l.12.06a14.43,14.43,0,0,0,1.86,0c0-.05-.8,0-.6-.09a1.3,1.3,0,0,1,.62,0,2.28,2.28,0,0,1-.64-.06c.47-.06.28-.14.41-.26.35.06.57.09.73.13s.66,0,.76.06.12.08.6,0c0-.1-.88-.11-1.17-.18a1.77,1.77,0,0,1,.46,0c.33,0,0-.08.26-.12l1.22.08h.29c-.49,0-.6-.11-1.16-.09l-.91-.25c-.34,0-.06.07-.34.08s0-.11-.21-.16c-.53,0-1-.06-1.66-.06l.41-.06h-1.53c-.13,0,.22,0,.26-.06a10.55,10.55,0,0,1,1.59,0c0-.06.37,0,.58,0s-.26,0-.21-.06h.22a3.64,3.64,0,0,0-1.09-.07c-.22,0-.16-.11-.09-.16h.89c-.1,0-.42,0-.29-.09a4.41,4.41,0,0,0,.89,0h-.36a2.32,2.32,0,0,1,1.08-.14.77.77,0,0,0,.3-.06,20.2,20.2,0,0,0-2.2-.06c-.18-.19.36-.36.43-.54-.58,0-.79-.12-1.44-.14v-.07c.54,0,.9.06,1.42.07l.46-.06a2,2,0,0,0-.59-.07h-.33c-.64,0-1-.14-1.7-.2h1.7l.43.09a2.62,2.62,0,0,0,.56,0,7.08,7.08,0,0,1,.92-.16c.14-.06-.46-.08-.27-.13s.85,0,1.07-.07l.74.09a3.66,3.66,0,0,0,.93-.08,3.86,3.86,0,0,0,.68,0c.33-.07.07-.13-.46-.16a1.7,1.7,0,0,0-.45,0,31.16,31.16,0,0,0-3.35.09c-.27,0,.32,0-.13-.11a7.94,7.94,0,0,1-1.54.06l2.2-.29c-.31-.07-1,0-1.14-.11l-.32.12c-.29,0-.14-.09-.18-.13h-.47c-.33,0-.13-.07-.17-.11.12-.07.88,0,1-.1-.44,0-.39,0-.2-.08h-1.57a15.19,15.19,0,0,1,1.77-.19c.19-.06-.47-.07-.35-.14s.17-.09-.11-.14h-.36c-.33,0,.07-.12-.52-.16h.67c.14-.08-.72-.11-.23-.19h-.94c-.15,0,.23,0,.23-.07V35.1a15.17,15.17,0,0,0,1.65-.06l-.47-.07a14.44,14.44,0,0,1-2.08,0l.41-.08a1.37,1.37,0,0,1,.57.06c.51,0,1-.07,1.53-.07h0a11.69,11.69,0,0,0-1.45,0,4.45,4.45,0,0,0-.89-.13,13.3,13.3,0,0,1,1.55-.09,1.31,1.31,0,0,0,.8-.13c-.15-.06-.73-.08-.94-.15h.25c-.31,0-.63-.07-.94-.08,0-.09.5-.1.93-.12-.13,0-.68-.09.06-.13-.37,0-.46-.09-.23-.15a5.31,5.31,0,0,0,1.25.18,5,5,0,0,0-.67-.16v-.19a11.34,11.34,0,0,0,2.18,0h.18c.42,0,.61,0,.49.07h1c-.28-.08-.56-.14-.11-.23.28,0,.24-.13-.39-.19a5.19,5.19,0,0,0-.79.12H691.7c-.09-.06.58-.1.26-.18h-.33a2.13,2.13,0,0,0-.44-.07,2,2,0,0,1-.69.12c-.28,0-.06-.06.17-.09l-.42-.11h-.66c-.35,0-.11-.08.24-.12a14.8,14.8,0,0,1-2-.08q1.5-.07,3-.06c.44,0,.06-.09.59-.08,0-.06-.38,0-.55,0s1,0,.87-.14a3.66,3.66,0,0,0-.81,0c-.28,0,0,.07-.36.08H690l1.28-.17a23,23,0,0,0,2.35,0,9.26,9.26,0,0,0-1.29,0c.17,0,.72,0,.71-.07a4.45,4.45,0,0,0,.73,0c.21,0,.22,0,.12-.07H693a2.29,2.29,0,0,0-.64,0,1.31,1.31,0,0,1-.68,0c-.7,0-.41-.16-1.33-.14a5.57,5.57,0,0,1,1,0c.28,0-.09-.09.24-.12a3.7,3.7,0,0,0,1.32.18,3.62,3.62,0,0,1,.46.06,4.18,4.18,0,0,0,1,0c0-.14-1.64-.12-1.7-.28h-2.54c.27-.07.8,0,1-.06h0a4.2,4.2,0,0,0-1.12,0l-.43,0a4.58,4.58,0,0,1,.9-.09l-.63-.09a5.69,5.69,0,0,1,1.74-.26,6.53,6.53,0,0,0,1.16-.19c0-.06-.45,0-.59,0s-.34-.09.26-.12v-.07h-.88a4.62,4.62,0,0,1-.65.07c-.34-.07.68-.1.3-.18l-.82-.07.43-.06c-.11,0-.36,0-.3-.08a17.6,17.6,0,0,1,2.18-.13,9.83,9.83,0,0,1-1.71-.11c-.17,0-.51,0-.49.09s.3,0,.26,0h-.58a3,3,0,0,1-.85,0c-.24,0,.14,0,.19-.07l-.57-.06a5.4,5.4,0,0,1,1.2-.22c.07-.06-.15-.07-.27-.09.06,0,.35,0,.3-.07h1.13c.38,0-.4-.05-.18-.1s0-.07,0-.1h-.63c.22-.08.9-.07,1.24-.14l.06-.13h.61c-.19-.06-.45-.09-.18-.17s.38-.22-.1-.32c.77-.06.49.11,1.2.07v.2h-.49c.29,0,.44.07.8.08.07,0,0-.06.31-.08s.67,0,.71.11a4.18,4.18,0,0,1-1,0s-.08.08.12.12a8.34,8.34,0,0,1,1,0h.11v-.33c0-.11,0,0,.32,0a6.12,6.12,0,0,0-1.21,0c-.14.07-.18.14.31.21h-.61c-.22-.06,0-.14-.12-.2H693l.35-.06h-1.84L691,29.3h.66c.09-.07-.17-.15.39-.2a4.21,4.21,0,0,0-.94,0c-.39-.1.7,0,.57-.12h-.47c-.24,0-.13-.05-.26-.08h-.69c-.34,0,.2,0,.14-.08s0-.07,0-.11a5.88,5.88,0,0,0,.94-.11,2.74,2.74,0,0,0-.94-.17l.32-.08a4.33,4.33,0,0,0-.72,0,3.75,3.75,0,0,1-.82,0v-.19c.85,0,.25-.23,1.51-.23v-.1a1.7,1.7,0,0,0-.45,0c-.19-.07-.64-.12-.42-.22a14.45,14.45,0,0,0,1.86-.06c.07,0-.1-.06.14-.1h.33c.37,0,0-.07.34-.08h.33c.22,0,.12-.05.2-.07h.41l.71-.08a3.11,3.11,0,0,1,.61,0h.43s-.45,0,0-.12l.47-.05c-.68-.08-.26-.17-.39-.24a1.78,1.78,0,0,0-.65,0c.59,0,.36.08.25.11l-.76.19h-.47c.1-.13-.22-.27.38-.39a1.52,1.52,0,0,0-.6,0,6,6,0,0,1-.74.07,3.11,3.11,0,0,1-.61,0c-.17-.1.87,0,.93-.13a19.77,19.77,0,0,0-2.55.2c.41-.06,0-.11,0-.16s.51-.11.33-.17.51-.1.27-.19c-.49,0-.75.11-1.28.15s.13-.19.07-.27-.3,0-.26,0h.58a3.58,3.58,0,0,0,1.08-.16h.36c.23,0,.46-.07.68-.12a2.73,2.73,0,0,0-.7,0c-.37-.05,0-.07.19-.1-.52-.05-.25-.12-.34-.17a5.81,5.81,0,0,0-.59,0,2.94,2.94,0,0,0-.51,0c-.21,0-.21,0-.12-.07h.56v-.09c-.47,0-.15,0-.48.07a5.06,5.06,0,0,1-1.1,0,6.61,6.61,0,0,1,.89,0c.15,0-.24,0-.24-.06v-.08h-1.68a2.37,2.37,0,0,0,.88-.11h.64c.51,0,.54-.14,1.12-.19l-.33-.05h.6a.21.21,0,0,0-.11,0H689.6c0-.09.23-.15.88-.18.24,0-.1-.09.23-.12h.38c.26-.08,0-.17.17-.25a1,1,0,0,1,.35,0,8.27,8.27,0,0,1,1.11-.07c.16,0-.48.06-.16.11h.51c.22.06-.1.14.2.2s.26,0,.49,0c-.53-.09-.2-.2-.31-.31l-.45-.06h-.59a9.55,9.55,0,0,1-1.07,0c-.19,0-.13,0-.13-.06s-.21-.25-1.33-.3h.7l-1.3-.08c.38,0,.25-.11.65-.14s.84,0,1.21,0c0-.06-.46,0-.52,0s0-.06.3-.1l-.73-.07c.27-.05.79,0,1-.05h-1a5.61,5.61,0,0,1,.82,0c.27,0,.13-.11.11-.16h-.81l-.21.08h-1.41c-.28,0,.54-.06.21-.1a4.41,4.41,0,0,1,.89,0,4.31,4.31,0,0,1,.88,0h.81c-.13,0-.46-.08-.34-.14s-.08,0-.22,0a2.73,2.73,0,0,1-.7,0,2,2,0,0,1,.6,0c-.09-.08-.63,0-.71,0-.37,0-.16-.08-.28-.12a8,8,0,0,0,1.29-.08h-.81c-.2,0,0-.07.16-.09-.19,0-.34-.08-.28-.13s.59,0,.65-.12l-.62-.14a2.62,2.62,0,0,1,.79,0l.4-.07h-.21a6.27,6.27,0,0,1,1.37-.07,7.27,7.27,0,0,0-1.32,0c-.19,0,0,0-.09-.07a11.13,11.13,0,0,1,1.29,0v-.12h-1v-.09a4.78,4.78,0,0,0-.76.08l-.84,0c-.13-.11.52-.17.4-.29a1.81,1.81,0,0,0-.57-.12h-.32c-.29,0,0-.07-.4-.08h-.41V19.37a5.57,5.57,0,0,1,1,0h.2c-.21,0-.24-.06-.24-.08a8.43,8.43,0,0,1-2-.19c.69,0,1.24-.05,2,0l.94.13c.29-.08-.07-.15-.29-.21a11.5,11.5,0,0,1,1.66,0,6.88,6.88,0,0,0-1.28-.15h.78c.24,0,.13-.05.25-.07l1.5.08c0-.07-.54-.08-.65-.14s-.14-.1-.6-.12v.08a1.94,1.94,0,0,1-.59-.05,3.11,3.11,0,0,1,.61,0,3.16,3.16,0,0,0-1.12-.34l-.51.06c.14-.1-.26-.18.37-.26-.55,0-.56-.14-1.27-.15a7.27,7.27,0,0,1,1.23-.26c.15-.05-.21-.06-.25-.09l.25-.05a2.62,2.62,0,0,0-.79,0l-.48-.07.92-.12c.16-.06-.28-.06-.28-.09a8.27,8.27,0,0,1,1-.12,8.49,8.49,0,0,0-1-.11c0-.1.71-.17.36-.24-.16-.1-.9-.07-1-.14h.65l-.32-.09H689l-1-.21c.28-.06,1,0,1-.07a4.18,4.18,0,0,0,1,0s-.13-.05-.15-.09h-.56c.27-.07.69-.13.61-.21-.3-.06-1,0-1.12-.07s-.18,0,0,0h.3c.67-.06.87-.17,1.92-.22l-2.4-.1a9.26,9.26,0,0,1,1.29,0c-.1-.07.48-.14.4-.22h1.37c-.59-.08-.06-.12,0-.17a4.82,4.82,0,0,0,.76,0c-.1-.06.51-.11.16-.18h.54c.07,0,.1-.06,0-.06a5.89,5.89,0,0,0-.84,0c-.22,0-.07-.05-.11-.07h-.45a4.12,4.12,0,0,1-.86,0l-1-.13a4.62,4.62,0,0,0,.63-.11c.13,0-.13-.15-.36-.21h.78a11.69,11.69,0,0,1-1.32-.08,3.69,3.69,0,0,1,1.1-.07c-.45,0-.55-.08-.5-.13a2.22,2.22,0,0,0-.63,0c-.46,0-.33.05-.33.08a2.14,2.14,0,0,1-.44.08H687.6c.36,0,.37-.08.29-.14a12.89,12.89,0,0,0,2.32-.18c-.22-.08-.75,0-1-.06a3.37,3.37,0,0,1,1-.06c-.11-.17.13-.32.63-.47,0,0-.69-.1-.13-.18l.2.08h.8c.42-.07-.79-.11-.14-.18h1.11l.22-.09.71.09a2.76,2.76,0,0,1,.8-.15c-.37-.06-.87-.07-1.31-.11h0c.06.07-.14.1-.55.13-.22-.08.19-.1.54-.13a8.42,8.42,0,0,0-1-.08h-.24a2.89,2.89,0,0,1-.83,0c0-.08.37-.14.83-.19a2.82,2.82,0,0,0-.82,0l-.51-.07a3.14,3.14,0,0,1,.67-.17,5.5,5.5,0,0,1-.91-.08h.77c.27,0,.61-.23.44-.36h.44c.6-.09-.41-.15.38-.22a19.1,19.1,0,0,1-2.14,0,8.54,8.54,0,0,0,1.34-.08,3.91,3.91,0,0,0-1.08,0c-.48,0-.65-.08-.45-.16h1.34c.4,0,0-.12.3-.17a10.59,10.59,0,0,1,1.38,0c.24,0-.18,0-.19-.07a8.54,8.54,0,0,1,1.23-.12,4.61,4.61,0,0,0-1.11-.07c0-.06-.57-.09-.45-.16-.43,0-.27,0-.33.06H691c-.28.07-.82,0-.84.09-.24,0-.19,0-.2-.06a8.34,8.34,0,0,1,1,0c0-.06-.56,0-.62-.06l.39-.06H688.8a5.15,5.15,0,0,1,1.3-.17c.31,0-.09-.12.49-.15h-.67l.31,0h-.8c-.29,0,.1-.12-.47-.14h.92c.16,0-.2,0-.26,0h.29l-1.35-.09a6.56,6.56,0,0,0,1.08-.09,4.82,4.82,0,0,0,.93,0l.63-.06c-.37,0-.43-.09-.21-.15a3.57,3.57,0,0,0,.8,0,.87.87,0,0,1-.32-.06h-1.23a4.37,4.37,0,0,1,.76-.43h1.27a2.58,2.58,0,0,0,.77-.16,8.15,8.15,0,0,1-1.21,0c.65-.06,0-.17.58-.23h-.57a2.83,2.83,0,0,1-.71.1c-.44,0-.16-.06-.42-.08h-.48a5.34,5.34,0,0,1-1.2-.17,2.53,2.53,0,0,0-.55,0c-.44,0,0-.1-.61-.09l.7-.1h-.29a4.41,4.41,0,0,1,.89,0c.3,0,0,0,.06-.08a6,6,0,0,0,.73-.07h1.19A11,11,0,0,1,690,8.37a11.06,11.06,0,0,1,1.41,0l.46-.07h-1.45L690,8.23l.42-.11h3.38c.11-.09-.46-.11-.62-.16s1-.2-.08-.3a7,7,0,0,0-1.21.11V7.58c-.31.07-.52.1-.63.14s.14.1-.18.14l-.3-.08h-.35c-.35,0,0-.11-.22-.16a3.7,3.7,0,0,0-.94,0,1.82,1.82,0,0,1,.57,0c.22,0,.08,0,.12-.08a4.85,4.85,0,0,0,.93-.06V7.15a7.06,7.06,0,0,1-.92,0h-.56c-.26,0,.23,0,.18-.06h.24L689.28,7a8,8,0,0,0,1.1-.1,3.64,3.64,0,0,0,.66,0h0l.6-.16a3.53,3.53,0,0,0-.65-.11.14.14,0,0,1,.09-.26h-.54c-.38,0,0-.11-.21-.15a15,15,0,0,1-1.57-.11S688.64,6,689,6c-.17-.09-1-.1-1.38-.18h1.91a4.81,4.81,0,0,1,1,.07c.53-.06-.52-.08-.17-.14s.54.07.93,0c-.55-.08-1.1-.14-1.66-.17h.62c0-.06-.45,0-.49,0L691,5.37h.36c.58-.13.58-.27.45-.42-.88,0-.95.14-1.78.12h.13c.1,0-.69-.06-.28-.13L691,4.83c-.22,0-.61-.07-.38-.11a2.36,2.36,0,0,0-.75,0l-.72-.12a2,2,0,0,1,.6,0,5.14,5.14,0,0,0,.55-.06c.08-.06-.5-.08-.46-.14h-.37a3.48,3.48,0,0,1-.85-.11,16.48,16.48,0,0,1,2.31-.43c0-.06.21-.12-.26-.17l.87-.22a5.81,5.81,0,0,0-.59,0s0-.06-.16-.13a3.5,3.5,0,0,1-.85.13h-.28c.2-.13,1.31-.22,1-.37s-.27-.06-.32-.09c.49,0,.27,0,.32.09h1c.11,0-.29-.07-.47-.1s-.13,0-.22.07h-.12c-.51-.07-.81-.14-.83-.23a3.42,3.42,0,0,1,.64,0h.49a8.45,8.45,0,0,1,1,.21,4.9,4.9,0,0,0,.77-.06V2.77a5.61,5.61,0,0,1-.82,0c-.43,0,.12-.07.11-.11h-.56a2.91,2.91,0,0,0,.59-.1c.08,0-.07-.16-.53-.23h-.4a3.72,3.72,0,0,1-1-.08c-.13-.06.26-.16-.25-.24h.91s0-.09-.47-.12c.49-.06.49-.12.47-.17l1-.07L691,1.58l1-.12h.33a3.7,3.7,0,0,0,1.1-.1h-.24c.4-.06.24-.13.27-.2.52,0,.16.08.55.09h.58a4.76,4.76,0,0,0,1.13.11V1.31c-.1,0-.71,0-.65-.06s.43,0,.31-.1a3,3,0,0,0-.78-.07h-.35L693.84,1c-.11-.06.11-.13-.28-.22-.15.11.09.21-.39.28s-.44-.06-.84,0-.07-.1-.14-.14-.84,0-.9-.11h.81c.26,0-.24-.14.43-.18C692,.54,691.14.57,690.59.5l1.29-.09a5.57,5.57,0,0,0-1,0,8.15,8.15,0,0,1,1.21,0c.37,0-.23-.08-.41-.12h-.28a3.53,3.53,0,0,1-.65,0h0a7.5,7.5,0,0,1-1.34.12c-.25,0-.06-.09-.12-.14h-.64C687.37.2,687.17.14,687.47,0a14.67,14.67,0,0,1,1.47.16c.5-.2,0-.22,1.5-.25a7.92,7.92,0,0,0-1.61-.32,4.81,4.81,0,0,0,1,.07c-.66.06-3.16,0-2.3.08-1.41,0-2-.19-.79-.31H686a7.53,7.53,0,0,0-.83.07h.61a8,8,0,0,1-2.53.38c.48.11-.44.23-1.2.11s.75-.25,1.33-.29c-.25,0-1.3-.1-1.58-.1.47,0-1.08,0-.73-.06a19.58,19.58,0,0,0-2.16.26,21,21,0,0,0,2.51,0c-1,0,0-.18.57-.17,1.4,0-.57.18-.86.21a35.78,35.78,0,0,1-3.59.09c-.29,0-1.32.06-2.06.06.58,0,1.45.11,1,.21a4.65,4.65,0,0,1-1.23-.2c-.52.1.92.23.63.31a7.31,7.31,0,0,1-1.62,0c-.78,0-1.94.06-2.94,0-.51,0-1.86-.26-.26-.25h.25l-1-.1a12.35,12.35,0,0,1,1.49,0c.15.06-.85.25.71.27,0-.1-.39-.22-.1-.31a8.13,8.13,0,0,1,1.56,0c-.59-.11-2.29-.11-3.2-.13,0,.06.9.06.91.13-1.12,0-1.31,0-1.45.11a7.22,7.22,0,0,1-1.61,0,13.9,13.9,0,0,1,1.56.21c.39.22-1.23,0-1.55,0,.32.1-4,.11-4.58.1a34.72,34.72,0,0,0-3.68-.07h1A8.38,8.38,0,0,1,658,0c-.11.06,0,.08.43.08-.43.1-1.94,0-.66-.09-1.34-.07-.5-.1-.4-.22-.6,0,0,.09-.65,0-.36.06.18.12-.8.12a1,1,0,0,0,.44.07c-.68,0,1.29.15.63.21A5.21,5.21,0,0,1,655.75,0c-.59.1.55.2.38.29S656,.3,655,.3c-1.57,0-4.19,0-4.14-.32-.41,0-.69.05-.55.06.59.07-1.65.15-1.85,0s.38-.09.8-.11c-.49,0-.83-.08-1.23-.1h0c-.71,0-.33-.08-.39-.12-.4,0-.61.21-.88.2l-1.59-.24c-.43.25-2-.14-3.22,0,2,0-2,.37-1.21.13l-1.54.2c-.39,0-.26.12-.81.15S638-.18,636.61,0c-.56.06,0,.26-1,.29-.55-.09.14-.09.1-.18-.94,0-.67.23-1.41.27a9.75,9.75,0,0,0-1.86-.3h.29a12.51,12.51,0,0,0-2.29,0c-.81,0,.14-.17.16-.17a5.24,5.24,0,0,0,1.37,0c-.49,0-1.21-.13-1.62-.12S629,0,630.2,0a12.89,12.89,0,0,1-1.76.06c.57,0,.8.07.68.14a4.78,4.78,0,0,1-1.07-.08c2,.33-1.09.2-2.93.16-1.66,0-4,0-2.64-.32-.43,0-1.46.14-1.68.11.54.12.58.29-1.22.28-.09,0,.48-.13.19-.16a3.26,3.26,0,0,0-1.08,0h-.37c-.61,0,.68.09.36.13a11.71,11.71,0,0,0-1.18.09c-1.07-.06,0-.13.28-.2-.25,0-1.74.11-2,.12l.15-.11s-.65.08-.34.06a8,8,0,0,1-1.1-.1q-.29.07-.57.18c-.2.08,1.16,0,.22.14-.77,0-.2-.07-.58-.15-.68.07.29.22-.16.29-.27,0-3.17-.28-3.74-.29.13.07-.43.08-.87.07-1.1,0-.31,0-.42-.07-.55,0-2.6.09-3.25.06-.46,0-2-.2-.71-.22A19.1,19.1,0,0,0,601.9,0h.51a9.31,9.31,0,0,1-2.11,0h.8a7.89,7.89,0,0,0-2-.11l.55.07h-.35a1.62,1.62,0,0,1,.44,0c-1.14.06,0,.26-1.46.38-.86-.07-.48-.28-1.68-.17-1,.09,0,.33-1.15.39-.71-.08,0-.1-.17-.2-.77,0-.68.31-1.27.32L592.47.4c-.67,0-1.63-.15-2.47-.23a20.22,20.22,0,0,1-3.3-.09c-.79,0-1,0-1.8.05-1.69,0-3,0-4.64-.07,1.34.05-.48.05-.41.05A6,6,0,0,1,579,0c-.06,0,.55.28-.2.19.32.07-1.18.19-1.58.19-1.19,0-.78,0-1.09-.09s.75-.23-1-.21c-.79,0-1.28.15-2,.17.21.07,1.13.07,1,.16h0a4.5,4.5,0,0,1-1.16,0c-.43.09,1,.19.79.28h-2.87c-1.33,0-1.67-.07-1.8-.23-.44,0-.71,0-.13.12-.53,0-1.59.09-2.24.06-.08,0-.81-.23-.7-.26h-.26c1.1.15-1,.06-.73.06-.31,0-1.44.1-.92.09-.55,0-.62.1-1.27.08-.12-.13.4-.08.9-.17-.69,0-2,.16-2.65.12-.46,0,.37-.15.3-.19-.34-.14-.81.09-.69-.14a19,19,0,0,1-2,.13c-.48,0-1.53-.13-1.77-.12.9.12-.25.23-.64.24S554.1.24,553.66.2c.49.11-.84.18-1.08,0-.33,0-.64.06-.93.07h0c-.25,0-.31,0-.27-.06A28.89,28.89,0,0,1,547.9,0c.3.06-.43.09-.45.14a11.06,11.06,0,0,0,1.41,0c-1.09.25-2.09-.21-3.31-.11.44,0,.59,0,.43.07a2.06,2.06,0,0,1-.7,0c0,.06-.17.09-.64.11-.28,0-.17-.1.34-.13-.43,0-1.2.17-1.44.16L543,.2a4.84,4.84,0,0,1-.65-.19,1.38,1.38,0,0,1-.75.09c0,.08.73.18-.25.22-.55,0-.61-.07-.16-.12-1.27.06-1,.42-2,.06a16,16,0,0,1-2.49.11c.13,0,1.23-.08,1-.14a7.82,7.82,0,0,0-1.37-.07c1.61.08-.76.26-1.66.24-.11-.06.45-.16.38-.24s-2.85.21-3,.21c.57.08-.94.15-1.34,0L532.43.2c-.9-.11-2.94.28-4.49.07a16.56,16.56,0,0,1-4.16.13,11.69,11.69,0,0,1,1.87-.14c-.3,0-2.24-.14-2.16-.17s.87-.14-.43-.16c.75.1-.08.08-.45.13s0,.07-.16.09a1.71,1.71,0,0,0-.78,0c-.16,0-.74.06-.9.09.7,0,1.32.1,2.12.09a20.06,20.06,0,0,1-3,.1c.55.14-1.06.11-1.7.11l1-.1h-.58a2.81,2.81,0,0,1,.58,0c.47-.06-.47,0-1.16-.14,1,0-.08,0,.6-.09-.35,0-.8.09-1.37.09-1.46,0-.6,0-1.08-.09a8.86,8.86,0,0,0-1.78.15,25,25,0,0,0,3,0,8,8,0,0,1-2.93.24c-.82-.07-.35-.25-1.36-.32a2.49,2.49,0,0,1-.77,0c.09.16,1.22,0,.23.26a4.22,4.22,0,0,1-2.06,0s1.9-.3-.64-.17a13,13,0,0,1-2.06.23c-.23-.12.49-.08.81-.18-.82,0-1.95.21-2.52.18.1,0-.46-.31-.39-.34a16.7,16.7,0,0,1-1.87.07c-.13-.09.35,0,.45,0s-1.4-.21-1.64-.26c1.15,0,.34-.14.4-.12A4.3,4.3,0,0,0,504,0h-1.25a5.39,5.39,0,0,0,.56-.08q-.6,0-1.32.06c.28,0,.63.08,1,.1a12.32,12.32,0,0,0-1.61.07h0a4.34,4.34,0,0,0-.88.06c1.39.12-.06.08-.21.18s.7.09-.15.18a11.92,11.92,0,0,1-1.69,0c.1-.11,1.49-.14.41-.21s-1.89.06-2.78,0c0-.07.57-.08.9-.11a16.68,16.68,0,0,1-2,0c-.06,0,.15-.11.62-.14h-.16s-1,0-.1-.08c-.18,0-1.66.25-1,0a11.8,11.8,0,0,1-1.46.08c-.16-.09.23,0,.16-.11-.75-.06-.48,0-.53-.07-.88,0-1.14.17-2,.13-.13-.07.12-.11.75-.11-.75,0-1.87.14-2.75.11a2.57,2.57,0,0,1,.78-.1A5.07,5.07,0,0,0,488,0a2.11,2.11,0,0,0-1,0c1,0,1.23,0,.68.06H487c-.4,0-1.28,0-.9-.08-.53,0-.91.11-1.41.13s-.87,0-1.45,0c-1.53,0-2.87-.06-4.33-.15a6.1,6.1,0,0,1-2,.06q.6.08,1.2.09c-.17,0-2.5.16-3,.18s-1.09,0-1.57,0c-.32,0-.93-.13-1.06-.13H472c.18.16-.16,0-1.26,0,.83.2,1.11.23-.12.27H467.9A7.55,7.55,0,0,1,466,.27a1.78,1.78,0,0,1,.72-.14c-.34,0-.83-.08-.55-.1a12.08,12.08,0,0,1-2.25,0,2.71,2.71,0,0,0,.57,0h-1.84a3.91,3.91,0,0,0,.9-.2h-.62c-.22,0,0,.05.27,0a5.87,5.87,0,0,1-1.87,0c.23.07-.19.16,0,.22s1.62.05,1.36.18a8,8,0,0,1-1.3-.1c-.22.08,1.58.23,1.27.28H459c-1.19,0-3.28-.12-1.33-.25-.94,0-.09-.12-.33-.21-1.09.06.31.26-1.07.27-.66,0-1.22-.18-2.22-.17-1.84,0-2.32.43-4.95.18a5.52,5.52,0,0,1,1.22-.08,1,1,0,0,0-.35,0,6.63,6.63,0,0,1-1.54.12c.12-.1.23-.13,1.07-.13a1.7,1.7,0,0,0-.61-.06c.46,0,.38-.06.33-.09h-1.07c1.17.09,0,0-.34,0s-1.26.11-1.61.1a14.24,14.24,0,0,0,2.16.13,13.43,13.43,0,0,1-2.69,0c-.5-.06-.08,0-.19-.14s.6-.31-.46-.33c.31,0-.5.15-.72.17a8.83,8.83,0,0,0,1.26,0c-.56.26-2.3-.06-1.72-.11-.38,0-.74.06-1.08.09.93,0,2.06.19.39.17A4.05,4.05,0,0,1,442,0c-.05.26-2.56-.1-2.07-.09h-.14c-.07,0,.53.1,0,.09a1.54,1.54,0,0,1-.64-.11,2,2,0,0,0-.94.14c-.13.09,1.58.31-.58.22.09,0-.84-.21-.75-.12-.11-.11.4-.09.66-.19a13.61,13.61,0,0,0-1.8.22c1.75.15-.78.14-.15,0-.56,0-1.26-.28-2.33-.31-.51,0-3,.2-2.74,0-1,0-.94.24-.59.3.19,0-3.75,0-2.12-.08h-.15a.74.74,0,0,1-.41-.1l-.57.08c.07,0,.89,0,.66.08a12.43,12.43,0,0,1-2.2.11c0-.13,1.59-.18-.22-.22a4.68,4.68,0,0,0-1.18.06c-.76,0-3.49.29-2.09,0-.81,0-.27-.09,0-.13-.62,0-1.25,0-1.87.06-1.1.11-.49.06-.23.16a10.7,10.7,0,0,1-1.7-.05c-.27,0,1-.12,1-.13-.7,0-2.22.22-2.85.13-.34,0,.27-.12-.33-.18.25.09-.76,0-1.09,0a17.39,17.39,0,0,1-3.06-.07c-.15,0,.27-.11.3-.1s.06,0,0,0h0c-.12,0-.31-.08-.29,0s-.9.07.06.14a7,7,0,0,1-1.88-.11,18.07,18.07,0,0,1-2.21.05c-.18,0,1.3.34-.54.09.17,0,1,.16.79.21a5.57,5.57,0,0,1-1,0H404.1c.34,0,.44.07.28.11a3.17,3.17,0,0,1-.87,0s1.09.21.9.25h-2a15.22,15.22,0,0,1-4.1-.17c1,0,1.39.07,2.31,0-.37-.15-1.29-.23-.78-.39A4.09,4.09,0,0,0,401,0a6.73,6.73,0,0,1-1.27-.1c0,.06-.29.06-.63.09-.56,0,.25.06.29.1-.73,0-.94,0-.64-.11-1.36,0-2.38.13-.85.25a12.06,12.06,0,0,1-3-.14c.12.05-.16,0-.46,0h0c-.49,0-1-.14-.13-.16.34,0,.47.08.4.13a2.37,2.37,0,0,0,.75-.08c.24,0-.17-.08-.51-.14h-.31a1.32,1.32,0,0,1-.33.08h-4l-1.8-.14c-1.6.19,2.12.32,2,.47A9.64,9.64,0,0,1,389,.13c-.18.1,1.85.23,1.57.3L387.22.5a8.64,8.64,0,0,1-2.73-.19c.94,0,1.37.06,2.27,0a4.29,4.29,0,0,0-1-.24c-.67,0-1.89.07-2.51,0a1.82,1.82,0,0,0,.8.12,19.87,19.87,0,0,1-2.67-.1c-.44.23-.25.11-1.28.13a21.51,21.51,0,0,1-3-.12c.64-.07,2.56-.09.45-.2h-3.92c-.21,0-1.42-.18-1.83-.16-.23,0-.25.08-.42.1-.92.09-1.36.21-2.54.29-.43,0-.22-.21-.72-.23-.16.21-.41.2-1.9.21.8.29-1.89.53-2.67.14.21.18-1.74-.19-1.87-.23-.88-.27-.22-.19,1.13-.23-.61-.07-.48-.07-.45-.16-.77,0-1,.18-1.64.21H360c0,.11-.56,0-1.17.06.13.07,1.33.08,1.21.17a2.45,2.45,0,0,1-1-.17c-.15.08,1.52.13,1.18.21A31.82,31.82,0,0,1,356.4,0h1.31a.26.26,0,0,1-.11-.07h0a.49.49,0,0,0-.42-.19c0,.35-3.64.22-3.34,0l-.62.11c-.07,0,0,0,.21-.07h-2.86c-.95,0-.32-.12-1-.2s-1.77,0-1.75-.15c0,.1.72,0,.11,0h-1.55L345-.37h-.49c.14,0,.13.09,0,.13l-1.83,0c-.46,0-.32-.09-.86-.09-1,0-1.16.08-2.57,0a.17.17,0,0,1-.16.15c-.4,0-.49-.08-.89-.08.06,0,.66.19.34.22l-2.1-.07a4.86,4.86,0,0,0-.54,0h.3c-.52-.06-3,.07-2-.12a12.71,12.71,0,0,0-1.51.06c.3,0,2.55.07,1.51.15-.6,0-1.1-.08-1.64-.09,0,.09,2.14.17,2,.24l-1.71.06c-.46,0-.9.06-1.41.07s-1.26,0-1.7,0c-1.17-.07-.75-.12-.2-.2-2.54-.17-.24,0-1.64,0-.26,0-1.15,0-.45-.08-.89,0-1,.2-1.62.19-.07,0-.78-.18-.86-.2l-.57-.1a8.41,8.41,0,0,0-2-.17c.41,0-.4.17-.67.18-.61-.06-.07-.13-.09-.19-.55.09-1.12-.07-1-.12a5.38,5.38,0,0,0-1.2.13,3.92,3.92,0,0,1,1.23.11,3.4,3.4,0,0,1-1.19,0c-.28.11,1.45.14,1.48.23s-2.73.12-3,.14A10.49,10.49,0,0,1,315,0c.89-.06,1.32,0,2.2,0a3.92,3.92,0,0,1-1-.28s1.28-.15-.09-.16c-.91,0-.52.09-.95.15H315a13.52,13.52,0,0,1-1.8,0,4.92,4.92,0,0,0,1.27.11c-1.06.11-3.69-.07-2.66-.12-.62,0-.72,0-.33-.08a18.09,18.09,0,0,1-2.08-.09,11.13,11.13,0,0,1-2,0c.23.13,0,0-.5.1a4.81,4.81,0,0,0,.53-.07,9.53,9.53,0,0,0-1.5.15,11.17,11.17,0,0,1-2.31-.08c-.17,0-.35.16-.56,0,0,0,.13.14,0,.16a8.39,8.39,0,0,1-1-.06c-.26.26-1,0-1.12,0-.88,0-.41.22-1.08.26a2.13,2.13,0,0,1-.7-.18c-.87.11-.83-.12-1.19-.13a29.68,29.68,0,0,1-4,.08c-1.91-.12.72-.11.61,0,.18-.08,1.7-.17.68-.25A5.19,5.19,0,0,0,294-.34c-1.5.12-1.16.3-2.35.14-.27,0,.36.2.11.22l-3.1-.14a9.55,9.55,0,0,1-1.31,0c.35,0-.38-.15-.38-.15h.76c-.25,0-2,.08-2.28.1-1.14.1-.66.08-1.05.18a21.47,21.47,0,0,1-3.76-.24c.72,0,.68.08,1.32.09l.16-.1h0c.15-.09.33-.19.18-.22a6.41,6.41,0,0,1-1.24.09c.3,0-.55-.14-.71-.16s-.1.17.21.22h-.39a1.94,1.94,0,0,0-.76,0c-.34-.1-.05,0-.67,0h.09a3,3,0,0,1-.94.06c-.38,0,.39-.14.72-.16h.15c-.05,0,.05-.07.15,0h.25c.85-.14-2.39-.07-2.57-.07s.59.08.63.12a7.75,7.75,0,0,1-1.18,0h0c.2,0,.37-.06.09-.09h-.74c.06.07.06.1,0,0h0L273-.42h-.07c-.72.09-1.08.13-.82.2a13.18,13.18,0,0,0-1.66.08c.1,0,.64,0-.56.08H267.8c-1,0-1-.33-2.23-.34.2.18-.84.12-1.85.15-.41,0-.09.08-.3.1-.84.07-.48,0-1.19.06q-.6,0-.36-.09c-.29,0,0,.17-.1.18a14.14,14.14,0,0,0-1.72-.07c.32-.08-.26,0-.78-.12a5.65,5.65,0,0,0-1.07-.22c1.06.14-2.26.57-3.22.23a6.91,6.91,0,0,1,.91,0c-.12-.06-.55-.11,0-.14h-1.58a1,1,0,0,0,.47.12c-.77,0,0,.08.21.1-.38.07-2,0-1.84-.14a5.58,5.58,0,0,1,1-.12h0c.17,0,.3,0,.31-.09a27.83,27.83,0,0,1-5-.06c-.32,0,.35.09-.11.15H249a.11.11,0,0,1-.09.1,7.07,7.07,0,0,0-1.14,0h-.91a10,10,0,0,1-2.32.14c.19-.12,1.22-.11,1.55-.21a2.32,2.32,0,0,0-.83,0h-.55l-1.13.1c-.22-.07.24-.4-1.25-.26-1.18.12-.44.36,1.2.27-1.24.59-4.89-.19-5.84-.07.65,0,1.21.21.93.27a5.39,5.39,0,0,1-1.7,0,2.8,2.8,0,0,0-1,0c-.44,0-.29.09-.37.14s.77.24,0,.31-.19-.11-.55-.2c-.68.06-.06.32-.61.34L233,.45c-.47-.08-1-.08-1.61-.2L230.08.11h0c-.57-.06-.92-.13-.46-.24l.62.19c-.06-.23,1.57,0,1.88.08,0-.09.6-.21,1.18-.24s.67,0,1.46,0c-.36-.24-1.69-.14-3.45-.12a4.82,4.82,0,0,1-1.2,0,1.77,1.77,0,0,1-.74-.26c-1.34.11.18.21-.09.28H228c.45.12,1.49.12.32.24-.49,0-1.53.16-1.56,0a6.32,6.32,0,0,1-1.23,0c.56.09-.46.09-.75.12.08-.09-2.28-.24-2.14-.27-.32,0-.69.06-1.11.08h-.69l.54.15c0,.2-1.14.08-.88,0-1.25.09,1.24.57-1.62.21a9.54,9.54,0,0,1-2-.06,9,9,0,0,1-1.27,0,3,3,0,0,0-.67-.07c-.81,0,.23-.29-1.62-.07-.7.08-.28.29-1.45.31-.58-.1.24-.11.24-.21-1,0-1,.26-1.73.27s.07,0-.58-.08a10.13,10.13,0,0,0-1.08-.18,1.88,1.88,0,0,1-.78.12c-.31-.09.28-.07.42-.15-.35,0-1.67.2-1.79.18a2.7,2.7,0,0,1-.61-.25c-.55.11-.34,0-.22-.09l-.45.08c-.83,0,.11.11-.1.15-.74,0-.8-.25-1.38-.29,0,0,.32.21-.13.23.28,0-2.27-.14-2.22-.13-.76.44-1.38,0-2.24,0,.57,0-.62.12-.5,0-1,.07-.41.3-1.61.32-.54-.1.23-.09.25-.19-.8,0-1.26.27-1.84.26a5.33,5.33,0,0,0-1.1-.26c-.26,0-1.4-.18-1.79-.18a5.53,5.53,0,0,1-.9.11A2.67,2.67,0,0,1,191,0a3.63,3.63,0,0,0-1.14,0,14.23,14.23,0,0,0-1.6,0,6.11,6.11,0,0,1-.86.06,4,4,0,0,1,.69.06,3.64,3.64,0,0,1-.66,0c.1.06-2.46.16-2.94.18s-1.36,0-1.9,0c-.91-.06-.44-.2-1.24-.25h.09a13.67,13.67,0,0,1-1.81,0c-.33.09.85.19.06.27s-.16-.08-.51-.15c-.7.06.19.21-.3.28,0,0-3.76-.25-3.27-.41a5.66,5.66,0,0,1-1.3.1c-.43-.24-.58-.09-2.12,0-1.72-.18.06,0-1.45.09-.3,0-.3-.07,0-.1a1.92,1.92,0,0,0-.63.14A10,10,0,0,0,168,.11l.64-.11h-.8a3.11,3.11,0,0,1,.44-.08,15.51,15.51,0,0,0-1.67,0A7.84,7.84,0,0,0,167.8,0h-1.19c.23.08,1.51.08,1.17.2a6,6,0,0,1-1.11-.1c-.34.1,1.11.18,1,.27s-6.9,0-5-.26c.47.05,1.38.13,2,.13-.4-.12-.61-.23.45-.3a2.51,2.51,0,0,1-.6-.1c-.15.11-3.75,0-1.77.24-1,0-1.14-.1-1.75-.1.43,0-1.77.07-1.72.07a11.81,11.81,0,0,1-2.91,0h.52c.18,0,.56-.08.6,0-.09-.15.06,0,1-.07A5.32,5.32,0,0,0,157-.11a2.24,2.24,0,0,1-.57.13,4.91,4.91,0,0,0-1.08.08c-.28.08.3.06.11.09-1.75.29-.52-.1-3,0,.44-.08-.1-.13.95-.21h-.9c.25,0,.24-.07,0-.09A8.46,8.46,0,0,1,151,0c.69,0,.35-.06-.31,0a13,13,0,0,0-1.39.11,19.06,19.06,0,0,0,2.39,0,4.79,4.79,0,0,1-1.84.24c-.85,0-.59-.17-1-.23-.1,0-1.33.09-1.66.15,1.51,0-.58.26-1.43.14-.27,0,.31-.25.35-.3-.34.06-1.78.07-2.33.07a5,5,0,0,1-.55,0h-1.5l-.12.06c-.11,0,0,0,.09-.06h-2.35c-.75,0-2.16,0-3.16.07.08.07.4.21-.06.25-1-.06-.22-.11-.63-.21-1.24.1.25.61-1.92.21a5.81,5.81,0,0,1-1.9-.2,11.68,11.68,0,0,1-1.45.15c-.17-.07,0-.11.58-.12-.42,0-1.53.14-1.73.11a.62.62,0,0,1-.16-.31c-1.26,0-1.75.18-3,.19-.07,0-.09-.09-.07-.14-.51,0-1.78,0-.89-.09-1.11,0-.66,0-.8.08a7.87,7.87,0,0,1-1.53.16c-.21-.09.2-.11.73-.18-1,0-3.07.39-2.29,0-.58.06-2.06,0-2.82,0,.16.06.44,0,.59.05-.4.07-1.13.08-1.64.13H117c.31,0,.76.06.45.1a2.88,2.88,0,0,1-.59-.06s.15,0-.18.09c-1.13,0-3,0-3.86-.12.09,0,.94-.06,1-.08a8.16,8.16,0,0,1-1.4-.06h.17A10.55,10.55,0,0,1,111,.2c.07.07.1.18-.71.19-.15,0,.28-.16,0-.17a5.22,5.22,0,0,1-1.36.22c-.64,0-.24-.14-.47-.17H107c.14,0,1.09-.08.86-.12-.61,0-.81,0-.61-.1-1.62.17-.6-.13-.11,0a6.8,6.8,0,0,0-2.38.14h1.74c0,.07-.27.11-.83.13a1.74,1.74,0,0,1,.68.08,16.28,16.28,0,0,1-2.21-.12c.43.16-1,0-1.33,0a1.74,1.74,0,0,1-.75.16,13.36,13.36,0,0,0-1.55,0c-.64,0-.82,0-.45-.13-1.55.1.37.38-1.9.17a.24.24,0,0,1-.22-.12,2.82,2.82,0,0,1-.82,0c-.3-.06-.46-.14-.68-.2a6.1,6.1,0,0,1-.72.14A4.33,4.33,0,0,0,95,.3c-.15,0,.43.08.27.1-.34,0-.46,0-.36-.07-.35,0,.33.1,0,.15A7,7,0,0,1,93,0a1.47,1.47,0,0,1,.59.06A2.54,2.54,0,0,1,94.46,0c.11-.09-2.27-.1-1.66.11-1.62.07-.57-.1-.44-.16-.42,0-1.7.2-2,.17s-.1-.09,0-.14a18.39,18.39,0,0,1-2.1,0C88,0,86.06.12,86,.12c-1.75,0-.79-.15-.73-.09.58-.17-1-.06-1.42-.1.73.09.28.13-.25.12h-.45v0h0c-.27.12-1.45.1-1.36,0-1.79.15-1.4,0-1.54-.13-.29.06-.75.11-1,.16a16.23,16.23,0,0,1-4,.19C75.66.13,76.48.24,77,.1A9.49,9.49,0,0,1,75.4,0c-.67.08.43.12-1,.18,0-.07,0-.43.78-.35.14-.2-1.84.11-1.23,0a14.92,14.92,0,0,1-2,.22,18.64,18.64,0,0,0,2.48.1A13.86,13.86,0,0,1,71.7.3c-.7-.08.07-.18-.06-.3a8.92,8.92,0,0,1-2.19,0h1.13c-.36-.12-.38-.08.14-.19H68.54c-.13.13,1,.09,1.56.12-1.54.18-2.74-.17-1.87-.18h-1.3c.33.09.58.28-.68.29-.35-.1.75-.13-.57-.13-.82,0-.41.15-1.25.13-.17,0,0-.08.42-.1A12.56,12.56,0,0,0,63.54,0c-.21,0,.27-.11-.27-.12.25.07-.37.2-.92.22A9.08,9.08,0,0,1,60.88,0c-.72,0-1.59.14-2.36.13-.43,0-.45-.13-.58-.13a6.37,6.37,0,0,0-1.07.12,15.08,15.08,0,0,1-3.29,0A16.38,16.38,0,0,1,55.29,0c-.29,0-.88-.09-1.22-.1a1.1,1.1,0,0,1-.51,0c1.57,0-.19.12-.68.13-.1,0,0-.09.34-.11-.71,0-.4-.06-.4-.08h0a9.86,9.86,0,0,0,1.53-.12c-1.49,0-4.22.35-1.53.36a13.93,13.93,0,0,1-1.94.07c.21,0-2,0-3.66-.07h-.15c-1.12,0-2-.12-1.75-.2a33.36,33.36,0,0,1-4,0A9.34,9.34,0,0,0,42.9-.31a11.25,11.25,0,0,0-2.17-.12c-3.14,0,0,.13-.14.26a2.66,2.66,0,0,1-.89-.06c-.15.08,1,.11,1,.18a33.28,33.28,0,0,1-3.6-.08h1.3c-.4-.13-.4-.08.24-.2-.91-.08-3.48,0-1.79.14-.72,0-.78.06-1.61.08.57-.1,1,0,0-.15,0,.08-.49.08-.7.15S35,0,34.91,0a6.41,6.41,0,0,1-2.54.21c0-.07,1.17-.16,1-.22-1.58.23-.67,0-1.59,0-.54,0-2.18.12-2.68.09A4.85,4.85,0,0,1,30.4,0c-1-.07-1.65.14-2.53.11-1.57-.06.46-.18.3-.23A8.37,8.37,0,0,0,26.76-.3h-.4c-.11,0-.59-.14-.83-.17-.38.13-.39.23-2.16.18a12,12,0,0,0,1.68-.18l-1.27.08c-.85.07-1,.06-.35,0,0,0-.95.12-.95.09a.51.51,0,0,0,.17-.07,5.82,5.82,0,0,1-2.56.06c-.27,0,0-.11-.33-.15-.65-.07-.92,0-1.69-.07h-1.2c.65.05,1.42,0,.53.1h1.08c.26.19-.22.21-.73.33s-.64,0-.66.05c.14,0,.12.07-.08.1h-.5c0,.06.08.12-.15.14a5.55,5.55,0,0,1-1-.09c0,.06-.13.09-.47.09l-.51-.27c-.54,0,.14.27-.33.29A6.3,6.3,0,0,1,13,.07h-.93A5.56,5.56,0,0,1,10.5-.15C9.19-.08,9.2.19,8.36.21c-.58-.1.22-.09.22-.2-1,0-1,.28-1.8.28C6.41.29,6.32.1,6.33.11A.89.89,0,0,1,5.39,0L5,.13h.3c.19.12-.76.16.51.22-.07,0-1.66.12-1.74.14-.37.11.35.15.9.07.56.11.52.51-.66.3-1.31,0,.07.37.41.42A4.7,4.7,0,0,0,2,1.85a8.58,8.58,0,0,0,2.47-.3c.18,0,.16-.16.4-.19.47-.06,1.37,0,1.92-.05.38.07-.23.14-.15.2s1,0,.86.09c-.31.14-.44,0-.91.06A4.89,4.89,0,0,0,4.86,2c-.07.24,1.51.18.85.06C5,2.14,4.93,2,5.61,2c1.55,0,1.38.21,1,.33a4.07,4.07,0,0,1-1.15.19c-.51,0,.11-.16.08-.16-.54.1-2.22.34-1.22.45,1.09,0,.75-.2,1.24-.29.79,0,.44.13,1.23,0a1.71,1.71,0,0,0,.13.23H6.65A7.66,7.66,0,0,0,5.3,2.8c-1.38.19,0,.24-.13.35.33,0,.55-.18,0-.13a1.07,1.07,0,0,1,.61-.1c1.39,0,.43.35-.37.41a7.76,7.76,0,0,0-1.36-.15c.09.06-.2.23-.73.23.17,0-.32,0-.32-.06l.76-.11a.17.17,0,0,1,0-.14l-.08-.16s1,0,0-.17c-1.45.14-1,.3-1,.53s.13.2,0,.28-.92,0-1,.12c1-.08.29.07.89.09a7.43,7.43,0,0,0,1.22-.28A8.15,8.15,0,0,1,5,3.65c0,.13-.37.08-1,.17H3c-.06.06.12.09.54.08a1.55,1.55,0,0,1,.52.1h.52c.64,0-.08.09-.12.11a2.36,2.36,0,0,1,.65,0c.16.07-1,.14-1-.07a5.3,5.3,0,0,0-.65.28q.78.13-.33.18l-.43.07c-.16.1-1,.32-.61.4.64-.06.58-.22,1.09,0A4.69,4.69,0,0,1,5.76,4.5a3.81,3.81,0,0,0,1.15.24,8.4,8.4,0,0,1-1,.07c.33,0,.38.07.17.1s-.2,0-.25-.09H4.92c-1.11.16-.55.49.9.31,0,0-1.62-.25.19-.17.84,0,.65.25.54.34s-.5,0-.66,0,.55.09.11.13a2.6,2.6,0,0,1-.88,0c-.29,0,1.3,0-.48-.11,1.74-.12.06,0-.49-.12.11.19-.64.21.32.32a6.7,6.7,0,0,0,2,.06c.25.06,0,.15.16.21s1,0,.86.12S6.74,6,6.6,6a11.18,11.18,0,0,0-1.82.23c-.47.16.38.32,1.47.17H5.13a3.16,3.16,0,0,1,1.26-.1c.91,0,.3.14.2.23s-.86.21-1.1.33H6c.15,0,.06.18.11.21l-.29.09a6.64,6.64,0,0,1,1,.1H5.68c-.18,0-.27,0-.27.08a7,7,0,0,0-1.82.27,13,13,0,0,0,1.53,0c-.08,0-1.08,0-.66-.08l.85-.13.87.13c-1.3.13.17.32-2,.29a.44.44,0,0,0,.19-.07,4.92,4.92,0,0,0-.94,0c.79.09-.38.2,0,.31,1.26-.07.11-.2,1.93-.18,0,0,.22.23.29.22a1.51,1.51,0,0,0-.52,0c-.54.09-1,.16-1.51.27a6.37,6.37,0,0,0,1.07,0c.36-.12-.76-.09.82-.12-.45.1-.2.23-.92.31a1.86,1.86,0,0,0-.41-.08c-1.26.22.88.27-.06.51-.69.18-1.29.22-1.5.44s-.15.12,0,.19.9.17.8.25a3.4,3.4,0,0,1-.64.09c.46,0,.68.11.6.18H4.1c0,.13-1.76.21-1.66.4A4.1,4.1,0,0,0,4,10.37c.55-.11,2-.19,1.13-.06l1.58.14a14.9,14.9,0,0,0-2.31.11c-.87.15,0,.15.64.2.07-.1-.51,0-.59-.08a4.2,4.2,0,0,1,1-.06c-.17.12.34.23-.49.31-.23,0-.33,0-.29-.07l-1.14.06,1.52.28a2.89,2.89,0,0,1-.83,0c-.47,0-.15.1-.88.12a1.91,1.91,0,0,1,.33-.06,2.89,2.89,0,0,0-.72,0c0,.06.76.14.89.21s-.84.18,0,.29c.38,0-.08-.12.45-.14a5.57,5.57,0,0,0,1,0c.43.1,0,.26.26.32a8.3,8.3,0,0,0-1.41,0c-.86.09-.3.24.57.15a3.21,3.21,0,0,0-.62,0,3.63,3.63,0,0,1,1.85,0c.27.18-1.61.13-1.64.38-.45,0-.07-.08-.35-.08-1,.09-.47.09.06.2-.45.09-1.4,0-1.4.23s.9.2.87.4-.51.23.6.34c.72.08.69,0,1.53.13,1-.11.1.06.92.06-.52.1-1.44.08-2,.13a2.84,2.84,0,0,0-1.19.19,2,2,0,0,0,.49,0H4.2S4.14,14,5.2,14c-.7.14-.13.34-1.35.44-.08,0-.15-.22-.12-.22a3.14,3.14,0,0,0-.75,0c.77.08.41.5,2.3.21-.08,0,.75.33.87.25-.17.12-.38,0-.52,0-1,.15-2.56.23-.25.14.11.06.42.45.26.45.81,0,.57,0,.57.19,1.51,0,.57,0,1.11.13h-1c.24,0,.29.06.1.09s-.22,0-.24-.09H5.62A5.42,5.42,0,0,0,4.08,16H5.41c-.44.07.25.12.79.05C6,16,5,16,5.2,15.9s.28-.18,1.24-.09c.8.08.33.14.21.25s-.33.15-.86.26-.85-.06-.88.13c-.08.37.2,0,1,.15A9.49,9.49,0,0,1,7.28,17a3.75,3.75,0,0,1-.67,0H6.47a2.79,2.79,0,0,0-1.31.16c1,.17,1.9-.05.71.29.7.06,1.11,0,1.11.09H5.32c-.45.13.62.38-1.65.42.81.13-.67.46-.93.59A3.58,3.58,0,0,1,4,18.66c.56-.16.34-.26.85-.41.33-.09.66-.16,1-.22l.16-.1a11,11,0,0,0,1.52-.07,3.6,3.6,0,0,1,.75.34,9.5,9.5,0,0,0-3,.36c3.33.05.3,0,1.5-.14,2.42-.22-.06.78-.46.31-.85-.08-1.33.21-1.23.26a4.56,4.56,0,0,0,1.8.19s.31.27.47.2H6.47c-.18,0-3.16.39-.75.32,0,0-.63-.19.24-.13s.36.1.18.23l1.14-.09c.07,0-.35.3-.5.32-.8,0,.52-.17-1-.13-.93,0-.19.1-.38.15a3.29,3.29,0,0,0-1.4.48c-.17.19.08.45-.18.6s-1.31.14-.3.43c.35-.12.55-.25.85-.36S5,21.19,5,21s-.47-.18-.36-.28A6.67,6.67,0,0,1,6,20.33c.16,0-.38,0,.09-.09s1.24,0,1.76-.09c.09.07.14.14.12.21a5.55,5.55,0,0,1,1,.09l-1.71.13c-.77.08-1.56.2-1.47.38H7.44c.16,0-1.36-.36.78-.21,1.58.1-.56.42-1.17.49s.66-.1.2-.16c-1.24.13-1.06.36.57.17,1.09.13-1.17.15-1.25.21s1.42.05,1,.21a17.19,17.19,0,0,0-2.78-.05c-1.19.13.45.1.36.1,1.3,0,1.1-.14,1.42.12L6.18,22l.41.08a.86.86,0,0,1-.2.18s.64,0,.54.06-.52,0-.57.06-1,.05-.92.18,1,0,1.1.06-.25.1-.21.15-.07.25-.37.41c-.68,0-.68-.23-.44-.27-1-.09-1.52,0-1.46.14l.75.09a6.67,6.67,0,0,0,1,.13c-.09.07.1.1.58.08a2.68,2.68,0,0,1,.8,0c-.86.2,1,.19.81.26a8.34,8.34,0,0,1-1,0c.12,0-.68.11-.46.09-.67.07-1.88.1-1.77.26A4,4,0,0,0,6.6,24c-.78,0-2-.1-.47-.18S7,24,7,24.08s.09.27-1.35.27c-.24,0,.67-.11-.08-.14A10.34,10.34,0,0,0,4,24.3c.82,0,1.2.11.75.18,1.43.07.12.12,0,.09a8.44,8.44,0,0,1,1,.09c.22.15-.48.14-.62.24s-.46.46-2.07.16c-.51.09-.65.19-.44.29l-1.57.21c1.35.08.33,0,1.27-.07a1.61,1.61,0,0,1,.38.08c.23,0,.07-.21.38-.25h0A3,3,0,0,1,4,25.26a2.81,2.81,0,0,1-.71,0c0,.16.34.12,1.32.09.23,0,0,.15,0,.18s.87,0,.7.13-.81,0-1,0c-.84.12-.84.14.25.25h1c.47.09-.48.18-.42.27S4.51,26,4.86,26a1.34,1.34,0,0,0-1,.4,10.37,10.37,0,0,0-1.25.11h.52c.15,0-.63.23-.49.12-.08.07-.5.08-.49.18s.42.1,1.23.23c.63,0-.25-.16-.19-.2s.77-.16,1-.25l.4-.28a17.22,17.22,0,0,0,1.76,0c.3.06,0,.16.2.22h1a3.65,3.65,0,0,1-.93.12h.52a1.56,1.56,0,0,1-.43.08c-.2,0-.26-.05-.22-.08H6.3c-.7.07-1.72.17-1.54.3A4.79,4.79,0,0,0,6.57,27c-.36,0-2.43,0-.27-.09,1.21,0,.72,0,.87.15s-.22.35-1.69.35l.65-.17a5.89,5.89,0,0,0-.84,0c-.94,0-.94,0-.85.17a4.05,4.05,0,0,0,.76.2c1.6-.09,1,.08,1.69.18-.44.06-1.07,0-.6.15a2.84,2.84,0,0,0-1.58.1c1.44,0,1.73,0,1.14.15s-2.19.21-.58.44c-3.18.12-2.68.81-2.68,1.14a11.54,11.54,0,0,0,1.66-.18c-.13,0,.64.21.63.18A5.71,5.71,0,0,0,4.3,30c-.42.1-.83,0-.83.12a3.16,3.16,0,0,1,.68.14c.47,0,.08-.06.44-.07,1.37.16-.38.07-.7.13a7.31,7.31,0,0,0-1.12.36c-.2.05-.73,0-.92.14s-.13.21.68.2A5.65,5.65,0,0,1,5,30.6c2,0,0,0,.58.1-.35.08-.22.12.4.12.41,0,.57,0,.48.05s-.89.05-1.34.09c-1,0-1.3.08-1,.19H4.9c.63,0,.94,0,1,.08-.21.05-.3.11-.28.17l1.18-.16c.51.11-.62.15-.8.2H5.59c-.27,0,.6.07.18.13a7,7,0,0,0-1.29,0c.35,0,.46.1.32.16.9,0,1.43,0,2.27-.06-.22.1-.75.2-.23.3a2.17,2.17,0,0,1,.51,0,.17.17,0,0,0,0,.1,8.34,8.34,0,0,0-1,0H6.24c.32,0,.38.07.17.1s-.22,0-.24-.09-.29.07-.41.08a7.45,7.45,0,0,0-1.16.06c-.28.06-.7.23-.88.27l1.52.06c-.08,0,.31-.15-.12-.09,0,0-.67-.22.92-.14,1.06.06-.24.65-1.14.69s0-.23.27-.34a9.11,9.11,0,0,0-1.88.14c.57,0,1,.19.44.3,1.43,0,2.15,0,2.07.22s-1,0-.46,0c-.92,0-2.77.32-.7.32.16,0-.65-.21.48-.12.68.06.08.12,0,.17a1.09,1.09,0,0,1-.83.06c-.34,0-1.93.12-2,.1s.32.22.24.31l.38.13a3.84,3.84,0,0,1-.48,0c-.2.12-.89.22-.86.35s.9.23.84.35c.27-.07.06-.13.09-.2s0-.16.38-.29a2.5,2.5,0,0,1,.71-.2,6.92,6.92,0,0,0,1.11-.09,2.56,2.56,0,0,0,.35.22c.31,0,.45,0,.4.07l-1.11.08c-.7.12-1.4.09-.79.26a1.67,1.67,0,0,0,.83-.06H3.86c-1-.06,1-.08,1.23-.07a.45.45,0,0,1-.31.29,1.42,1.42,0,0,1-.91-.07,1.5,1.5,0,0,1-.73,0,.31.31,0,0,0-.25.13H1.82c1.71.2-2.12.83-.06.9a5.24,5.24,0,0,0,.94-.33,2,2,0,0,1,.59-.24,10.65,10.65,0,0,0,1.13,0c.08,0,.86.22.88.19-.09.13-.39,0-.86.11l.68.06a14.22,14.22,0,0,0-1.73.1c-.3.08-.18.27,1,.18A4.93,4.93,0,0,1,3.73,36c.29,0,.58-.07.86-.12s.81.36.25.42c-.82.08-.61-.06-.78,0a2.21,2.21,0,0,0-.81,0,3.22,3.22,0,0,1-.6.13c.16,0,1.74.21,1.74.2a13.51,13.51,0,0,1-2.11.13q-.72.14-1.41.33c-.27.11,0,.11,0,.19s-.18.06-.35.08a1.41,1.41,0,0,0-.45.07c-.3.1.44.29.44.29.2-.09.74-.19,0-.25h0c1.22.06.71-.09,1.09-.19A12.12,12.12,0,0,1,2.93,37,5,5,0,0,1,5,36.69c.34,0-.32.11-.26.15s1.17,0,.67.1a4.81,4.81,0,0,0-1,.07,8.37,8.37,0,0,0-1.73.15l.88.18c.26,0-.49-.16-.21-.17,1,0,1.09,0,1.27.11l-.4.19a1.08,1.08,0,0,1,.5.09c-.33,0-.49-.08-.73,0-.08,0,0,.13.06.13a5.56,5.56,0,0,0-1.5.41c-.13.14-.13.35-.59.52-.28.11-2,.35-.2.42a4.09,4.09,0,0,1,2.3-.44v-.13c1.1.06,1.09,0,1,.17h-1c0,.16.81.13.89.24s-.86,0-.85,0a10.16,10.16,0,0,0,1.65.28c-.23.16-1,.2-1.06.37l.48.25-1,.06a8.14,8.14,0,0,0-.85.08v.19c-.21.08-.46,0-.69.14s-.1.38-.34.61c.67.11.52.18-.47.19l-.65.09c.09,0-.33.31-.33.33A9.36,9.36,0,0,0,3,41H4.44c.11,0,1.08.14,1,.22s-.33,0-1,.09a7,7,0,0,0-1.3.09c-.84.19,0,.1.4.22.64-.08-.44-.08.66-.19.68-.06-.85.43,1.08.08.45.09-2.1.66-.29.72a7.53,7.53,0,0,0-1.89.3c-.09,0-1,.45-.22.39a11.65,11.65,0,0,0,1.52-.38,6.9,6.9,0,0,1,1-.23,4.18,4.18,0,0,0,1,0c.54.07.21.17.88.25-.21.06-1.76.1-2.14.17-1.15.21-.07.1.17.23s.25-.09-.2-.12c1.48-.14,1.42,0,.89.18-.26.06.11.1-.41.13s-.87,0-.41-.07c-1-.09-1.94.5.94.36.22.06.15.12-.24.16,1.46.07.2.08,0,.11h0c-.27.06-1.53.12-1.45.22s.78,0,.89.11c.28,0-.31-.22.48-.16s.27.09.11.17v.12a3.22,3.22,0,0,1-.76,0c-.59.09-.44,0-.29.22s-.08.24-1.15.39c.73,0,.34.26.32.4a2.41,2.41,0,0,0,0,.38c0,.12.27.11.24.13a9.12,9.12,0,0,1-.91.17c-.48.12-1,.29-.14.4.53-.16,1.27-.31,2-.45-.44-.05-.48-.08-.25-.11s.18,0,.27.1L6,45.63a4,4,0,0,1,.9.22c.23.11.63.07-.12.19-.49.07-1.5.09-1.89.2-.69.19.45.11.39.23,1-.13-.3-.1,0-.15a3,3,0,0,1,1.51,0c.27.14-1.74.68-1.25.37H4.85s.18.09-.36.1c.06,0-.17-.09.36-.1a6,6,0,0,0,.7-.12c-3-.18-1,.59.93.36a.51.51,0,0,1,.24.22,6.74,6.74,0,0,1,1,.08c-.66.09-1.95.05-2.51.2-1.12.3,1.32.22,1,.16-1.39.09-.22-.22.71-.09.72.1-.78.23.16.35-1.09.07-.21.15-1,.25-.94-.16.38,0-.86-.21a2.5,2.5,0,0,0,.67-.06c-1.34-.07-1.43,0-1.41.15a6.66,6.66,0,0,0,2.39.22c-.09,0,0,.22.06.18.42,0,.54,0,.37.07a2.44,2.44,0,0,1-.54,0c-.2,0-4.48.45-.91.37,0,0-1.18-.31.56-.15.76.06-.55.52-1,.58-.28,0-.31-.16-.4-.18.17,0,.24,0,.21-.08a3.65,3.65,0,0,1-.87-.07c-.25-.07-.3.12-.26.19s.78,0,0,.12a8,8,0,0,1,2.38.36s.55.25-.81.17c-.41,0,.28-.09.08-.08a5.7,5.7,0,0,0-1.64.23c-.46.23.2,0,.53.19.46-.08-.54-.25.76-.22s.53.11.31.21,0,.17-1.37.19c.79-.11-.17-.11-.6,0-.08,0-.14.28-.06.29,1,.06.63-.15,1.12-.18H6.12c.29,0-.36.1-.21.13s.87.08,1,.12-1.48.09-1.7.12c-.57.06-.69.2-1.33.25H5.5c-.2-.09-.71,0-.71-.11,1.71-.17,1.55.23,1.09.32a17.46,17.46,0,0,1-2.28.15,3,3,0,0,1,.66.14c.58,0,.34-.14.73-.19s1.07,0,1.4-.08.1.12-.15.15a5.58,5.58,0,0,1,1,.12,8.16,8.16,0,0,0-1.31.08c-.26.08-.74.15-1.1.24H6.19c.21,0-.63-.11-.65-.12H7.07c-.45.15-.25.29-1.08.39-.65-.24-1,0-1.74,0-1.25-.1,1-.36-.25-.52-.92-.14-.71.17-.75.23s-.79.29.38.35c-1.34.07-1.85.28-.84.41a11.13,11.13,0,0,0,1.39-.42,1.44,1.44,0,0,0,1-.06l1,.23c-.12.16-.33.06-.93.14-1.06.13-1.55.14-1.42.39A3.09,3.09,0,0,1,5,52.66c1.07,0,.51.11.53.16.1.24-.83.27-2,.11,0,.2-2.61.36-1.3.53,1,.14,1-.11,1.21-.16-.29-.12.08-.17,1.1-.12l.66-.1v.29h1c.13.09-1,.07-.86.16L5,53.46c-.07.12-2.59.23-1.5.41a5.53,5.53,0,0,1,2.18-.14c.07,0-.11.19-.14.21-.63.4-.91-.06-2.48.1.54.1-.73.32-.91.46s-.76.54.35.41c.43,0-.07.08.54.09-.18-.15,0-.31,0-.43s-.18-.21.13-.28c.88-.2,2.31-.24,2.31,0,.41.06,1.06-.07.76.09-.14.08-.49,0-.75,0a6.75,6.75,0,0,0-1.4.25c0,.13.6.25,1.34.11-2-.1,1.78-.24.4.13-.55.15-.43.14-.8.06-1.33,0-.83.24-.54.35.92,0,1.25,0,.63.14H6.53c-.17.16.37.13-.12.28a7.89,7.89,0,0,0-1.61.13c-.17.12,0,.15.92.15.24,0-.65-.2.89-.11-.23.05-.19.25-.4.27a2.06,2.06,0,0,1-.7,0h-1c.11,0-.25.1-.57.1-.77-.09.24-.16-.9-.19-.4.3-1.44.56-1.7.86,0,0-.35.21-.31.21a12.06,12.06,0,0,0,1.7,0c-1.35-.14-.17-.41.24-.56a7.94,7.94,0,0,1,2-.31,3.26,3.26,0,0,1,.91.26,1,1,0,0,1-.35.06H5.25c-.17,0,0,.07-.18.08-1.08.1-.06-.2-1.39.06-.79.15.22.33,1.15.21-.14,0-1.52-.2.08-.16,1,0,.76.45-.43.41.14,0,0-.08-.26-.09-.72,0-.38.3-.38.36h1c0,.25-.32.1-1.44.2-.49,0-.93.1-.84.17a2.11,2.11,0,0,0,1,0A5.34,5.34,0,0,1,5,57.73l.38.14c.18.07-.56.28-.56.34s.33.16.33.24-.15.07-.47.2-.62.15-.75.29a1.88,1.88,0,0,1-.43.31c-.17.08,0,.21-.15.29-.32.18-1.17.34-1,.54.56-.07,2.1-.29,2.44-.36-.18,0-.06-.09-.06-.09.29,0,.43-.06.42-.1a2,2,0,0,0-.49,0,2.44,2.44,0,0,1-.54,0c-.09,0,0-.07.33-.07a2.23,2.23,0,0,1,.27-.26,8.72,8.72,0,0,1,1.22-.31c.2,0,.31-.11.32-.17a11.2,11.2,0,0,0,1.53-.07,2.53,2.53,0,0,0,1.3.26,12.36,12.36,0,0,1-1.72.16c-.61.06-1.57.18-1.45.29s.86,0,1.22.14.56-.08.44-.14c-1.06.11-.63-.18.38-.1,1.28.1-.6.25.6.4-.45,0-.93.06-1.43.08-.28,0-.23-.09.17-.12H5.6c-.26,0-.31.37-.13.37.42,0,.61,0,.56-.1.19.06.27.13.24.19,1.06,0,1,0,1,.13.21-.05-2.39-.08-2.72-.06s-.67.07-1.09.13l1.77.06a6.61,6.61,0,0,0-.74.28c-.16.07-.59,0-.7.1.13,0-.6.45-.26.44H5.21c-.36.07.28.33-1.17.28a3.63,3.63,0,0,1,.65.16s-.48.11-.49.16.33.19.26.21-1.22.11-1.5.16a3.48,3.48,0,0,0-1,.24c0,.07.94.09,1.21.21s0-.08.09-.09c-.14,0,.27-.2.34-.22A8.06,8.06,0,0,1,4.78,62c.37-.06,1.36-.06,1.64-.12s1,.35.54.38a1.68,1.68,0,0,1-.59.08c-.13,0-.17,0-.12-.08H7a8.25,8.25,0,0,0-1.72.12c-.94.14-.85.2.08.36,1.17-.18-.78-.06-.2-.16a3.49,3.49,0,0,1,1.44,0c.13,0-.34.24-.38.27s.31.21-.68.33c-1-.08-.09-.29-.5-.34a6.51,6.51,0,0,1-1.25.06l.76.2a1.38,1.38,0,0,0,.59.2H6.52l.06.13a2.16,2.16,0,0,0,.67.08c-.33.13-.59,0-.91,0a10.29,10.29,0,0,0-2.21.35h1.2c-.24,0-.08-.36.93-.14.75.16-2.07.5-1.14.26-.58-.08-.55.07-1.24,0s.21.16-.82.12.13-.15.21-.21.15-.12.09-.19,0-.17.72-.21c.24-.1,1-.08.34-.19a3.06,3.06,0,0,0-2.26.48c-.14.11.06.17.09.27s.46.07.74.14c-1.25,0-1.43.15-1.53.26s.86.16.26.18a10.61,10.61,0,0,0,1.13-.17c.64-.13-.13-.14,1-.28.17,0,.24,0,.23.07a11.85,11.85,0,0,1,1.33-.07c-.5.2-.37.12,0,.3h-1c0,.07.5,0,.59,0s-.56.07-.58.16c0-.11.69.29.3.23l1.42.1c-.09.08-1.59,0-2.13.12.35.11,1.12.07-.34.19.21.06.88.08.74.16-1.16.06-2-.14-1.95.13s.4.14,1.38,0a5.93,5.93,0,0,1,1.78-.19,5.57,5.57,0,0,1,1,0c-1-.09.28.18.58.22h0a7.32,7.32,0,0,0-1.48.09c-.81.16,0,0,.25.16,0,0,.69.16.34.14H7.57c.18.08-.65.17-1,.23a3.5,3.5,0,0,0-.63-.12c0,.15-.43.29-1.17.41H4.53c-.24,0,0,.18-.24.26a5,5,0,0,0-.77,0c-.53.18-.12.32-.22.49,0,0,0,.34.07.32-.23.09-1.2.08-1.45.13s-.18.21-.36.29c-.52.21-.69.18.8.32-.24-.14,0-.45.53-.56.07,0,1.67-.08,1.89-.13-.48,0-.43-.1.16-.16-.08,0,1.29.22,1.3.2a7.8,7.8,0,0,0-1.45.1c.41.13.72,0,.18.17a2.11,2.11,0,0,0-1.06,0,2.87,2.87,0,0,0-.92.21H4.06c-.08-.07.07-.25.73-.1.24.06-.17.26-.67.29-.32,0-.48-.08-.44-.08a3.76,3.76,0,0,0-1.25.09c-.48.09-.32.13-.49.22s.06.08.35.12l-.61.08H.83c.07.08,0,.16-.31.23h0c1.36,0,2.55-.52,3.28-.21.44.19-.4.1-1.13.23s-1.24.19.2.18c0,0-.51-.23.35-.13s.11.26-.64.33c.6,0,.56.09-.11.13s-.45-.17.23-.21c-1.22-.12-1.43.08-.89.18.33.06,2.13.1,1.23.19h.67c0,.08-.31.11-1,.12,0,0-1.65.18-.21.23-.35,0-.08-.24.77-.09.57.09-.45.21-.6.27a4.66,4.66,0,0,0,1.18,0c.84.09.11.48-.08.55H3.24c-.34,0-.3.06.13.09a7.36,7.36,0,0,0-.92.25,17.17,17.17,0,0,1,2.86-.33c2,.13-.42.23-.86.25.31.14,1.07,0,.88.2a2.3,2.3,0,0,1-1,.17c.43.07.43.28.37.38.48-.07,1.22,0,1.67-.1.3.06.23.11-.21.16h.71L6.36,72c-.18,0-.27,0-.28-.09-1,0-.34.46,1.25.17.51.1-.47.16,0,.28a2.61,2.61,0,0,1-1-.14c-.2.07-.2.15-.49.21s-1.27.15-1.38.21l.79.08a3,3,0,0,0-1.57.33c-.06,0,0,.07.18.1.33,0,.22.08-.31.1,0,0-.68.22.34.11.35.11-.7.14-.94.22-.43.14-.62.29-1.08.44-.64,0,0-.11-.49-.15s-1.12.47-.26.51c1.13,0,.4-.15.42-.16A11.19,11.19,0,0,1,5,73.93c.07.17-1.36.21.48.24,0,.2-1,0-1.41.15a5.33,5.33,0,0,1,.69.48,9.46,9.46,0,0,0-1.07.12c.11,0,.11.25.49.31s1.22,0,1.61.08c-.21,0,.52.24.56.18-.09.14-.38,0-.64,0s-.81.15-1.29.2a17.11,17.11,0,0,0,2.48,0c.1.11-.34.2-.87.28s0-.11.08-.17a3.11,3.11,0,0,0-.61,0c.2.26-3.5.57-1.2.57.46.06-.1.07-.2.11a3.55,3.55,0,0,0,1.55-.23c.62,0,1.23,0,1.84-.12.42.08-.31.15-.14.23a4.17,4.17,0,0,0,.71.06c-.27.16.07,0-.8.06a14,14,0,0,0-1.93.25c-1,.24.43.1.61.25,1.46-.18-.71-.07-.11-.16a8.35,8.35,0,0,1,1.87,0,9.4,9.4,0,0,1-1,.39c-1.31.09-1,0-.85-.1a6.53,6.53,0,0,1-1.25,0c-.14.06-.19.13-.14.2l-1.37.06c-.46.08-.57.14-1.35.24l1.13.13a11.14,11.14,0,0,1,4.06-.37c.11,0-.47.14-.36.18s.66.14.85.18a14.58,14.58,0,0,0-2.95.12c-1.49.18.39.41,1,.22h-1a3.14,3.14,0,0,1,1.77,0,5.93,5.93,0,0,1-2.29.3c.94,0,1.08.27,1.11.41s-.11.11-.39.16c0,.07.23.13.55.18l-1.48.25c-.07.06,0,.11.32.14-.2.1-1.15.12-.58.24a18,18,0,0,1,3.72-.51v.13c.48,0,.72,0,.71.06s-.66,0-.64,0c.3.18-.92,0-1.68.19-.61.13-.43.24.83.21.4,0-.54-.15-.21-.17,1.56,0,1.11.08,1,.19s-.56.29-.44.28a2,2,0,0,1-.92,0c-.7-.14.43-.07.24-.21-1.16,0-2.12.16-1.66.33,1.3-.17,1.16,0,.63,0,.43.1.73,0,1.2.11,1.18-.12.17.12.21.16s.94,0,.63.17a12.8,12.8,0,0,0-1.75.06c-.23,0-2.21.26-1.07.27.39,0,1.49-.32,2.07,0l-.55.21a2.06,2.06,0,0,0,1,.25s-4.5.46-1.52.35c0,0,.06-.29.72-.1.25.07-.31.1-.3.17s1.11,0,.24.22c-.87-.1-.16,0-.76,0C5.08,82.05,5,82,5,81.9c-1.2,0,.1.39,0,.46-1.19-.13-1.62.21-1.72.33s0,.11.32.16l-.6.08a2.27,2.27,0,0,1-.3.32c-.1.09.12.13,0,.21s-.87.18-1.09.28V84h1c-.32-.16-.2-.28.68-.42.56-.09,1.88-.17,1.08,0,1.28.06.24.15,0,.19S2.49,84,3.68,84c.13,0,0-.17.47-.14,1.37.08-.17.27-.27.33s-.18.24-.32.35-1.06.38-.57.58a3.14,3.14,0,0,1,.75,0c.56,0,0-.27.1-.34s.78-.16.48-.29a5.3,5.3,0,0,1,1.68.2c.81.1-.1.07.2.22H5.79c-1.13.17-1.29.18,0,.27,0,0-1.26-.21.36-.14,0,.18-1.68.6.78.6a1.09,1.09,0,0,0-.49.19l-1.21-.2c-.23.08-.15.16.26.22,0,0,1.06,0,1.07.17s.64-.17,1.33-.12a4.38,4.38,0,0,0,1.2-.07,12,12,0,0,1,3.21-.4c2.7-.13.57.55,2,.7a6.85,6.85,0,0,1,2.7-.21,5.26,5.26,0,0,1,1.58-.24c.73,0,1.08.06,1.85,0a9.55,9.55,0,0,0,2,0,23.46,23.46,0,0,1,4.1-.33,26.71,26.71,0,0,1,4,.28,16.92,16.92,0,0,1,3.18.18H36a5.12,5.12,0,0,1,1.91-.13,5.27,5.27,0,0,1,2.55.3,5.83,5.83,0,0,1,2.24-.07L45,85.62c1.2,0,3.08.11,4.24,0,1.45-.07,2-.3,3.47-.39,1.11-.07,2.86-.06,4.23,0a7.67,7.67,0,0,1,2.73.37,5.34,5.34,0,0,0,2.17.27.27.27,0,0,0,.12.06,9.55,9.55,0,0,1,1.5-.33c0-.11.4-.16,1.19-.16-.09,0,0-.07.18-.09q.54,0,.15.06h0a3.41,3.41,0,0,0,1.42-.09,7.13,7.13,0,0,1,2.6-.19c-.87,0,2,.4,1.66.36-.42-.22,2.46,0,2.6,0a46.77,46.77,0,0,1,5.8,0c-.55-.13-.13-.2,1.25-.21.52.22.39.25,2.08.4a29.86,29.86,0,0,1,3.54,0,25.67,25.67,0,0,0,4.47,0c1.86-.21-.33-.08.84-.27a17.1,17.1,0,0,1-2.48-.12A8.53,8.53,0,0,1,91.44,85c1.31,0,1,.09,1,.24a6.39,6.39,0,0,0,1.8-.1,11.59,11.59,0,0,1,2.76,0,15.87,15.87,0,0,1,3.64.27c.94.24.37.39.22.65,2.33,0,.14.23,2.56.12a11.33,11.33,0,0,0,1.43-.12c.43,0,1.44-.1,1.8-.14a17.19,17.19,0,0,1,2.68-.21c.46,0,3.16.26,3.62.23-1.31-.09-1.39-.17-.74-.33-1.8,0-2.51-.22-1-.33a8.42,8.42,0,0,1,2.24.13c.08.11.67.13,1.75.07h1.51a8,8,0,0,1,2.29.11l1.22.17a18.33,18.33,0,0,0,2.77-.18c.79-.07,2.65-.1,3.3-.15l1.13-.22H129a23.14,23.14,0,0,1,4.85.16,1.55,1.55,0,0,1,.43,0s-.18.09-.07.1c.76,0,1.58-.15,2.62-.14,1.46,0,2.8.25,4.26.26.54,0,1.19-.11,1.66-.1a1.22,1.22,0,0,1-.46.09h2.93c-.58-.3.67-.2,1.94-.19l1.86.07c2.82.39-2.51.2-3,.21a15.35,15.35,0,0,0,3.52.17,28.91,28.91,0,0,1,2.94.26c4,.29,1.35-.21,3.5-.21-1.2-.09-1.19-.19,0-.28a20.2,20.2,0,0,0,3.3,0,26.15,26.15,0,0,1,4.51.12c0-.11,0-.45,1.63-.24,1.12.14-.31.15-.28.24s.19.22.2.34.09.65,1.41.27c-2,.09-1.08-.39.49-.15a8.35,8.35,0,0,1,3.64-.48,9.75,9.75,0,0,0,2.16,0c1.57-.27-2.87-.19.74-.44l1.87.63a30.64,30.64,0,0,1,3.32,0c2.59-.17-1-.28,1.91-.49a7.16,7.16,0,0,0,3.14.47l-.34.18c.34,0,2.13-.07,2.11-.07a2,2,0,0,1,1.58-.21,10.19,10.19,0,0,1,3.1-.48,30,30,0,0,1,4.24,0,10.61,10.61,0,0,0,2.39,0l.77-.07c1.53.07,2.57.25.8.39.8.07.84.13.79.21a.41.41,0,0,0,.07.11h.15a.17.17,0,0,1-.17,0h-.13V86h-5.14l1.27.29c1.61-.4,1.07-.07,2.69-.08s2.72-.31,3.34-.31h-.09a12.56,12.56,0,0,1,1.94,0c-1.18.14,0,.17,1.06.2.85,0,3.63-.21,2.49.1a16.62,16.62,0,0,0,2.64,0L211,86a4.3,4.3,0,0,0,.94-.16h1.72c.53,0,3.89-.16,4.21-.09-.76-.57,4.48-.07,1.59.12a9.84,9.84,0,0,1,1.8.22,6.72,6.72,0,0,1,.87.18,12.26,12.26,0,0,0,1.36-.11c-.54.1.29-.13,0,0,.54-.18,4.52-.14,4.25-.41-1,0-1.68-.16-.85-.29a15.06,15.06,0,0,1,1.9,0h1.84c-.56,0-1-.06-.79-.17a5.57,5.57,0,0,1,2.81,0,.92.92,0,0,1-.33,0c-.27,0-.62.06-1,.07a31.77,31.77,0,0,1,4.25.23c.25-.13,3.16.06,1.34.19.32,0,1.91,0,1.64.13a9.48,9.48,0,0,1,2.13,0c.3-.14-1.33,0-.34-.2a11.25,11.25,0,0,1,2.46-.06c-.26.21-.33.25,1.65.3,2.14,0,2.14,0,2.07-.24a8.48,8.48,0,0,1-1.81.17c-.69-.18-1.47-.28.3-.39l1.57.1c0,.08.41.07,1.39,0,.34.3.38,0,1.24.18.36.06.4.12-.18.16h2.25a1.42,1.42,0,0,0,.58,0,2.27,2.27,0,0,1,1.1,0c.3,0,1.53.11,1.83.1.49,0,1.46-.21,1.86-.2-.68-.09-2.41.13-3.65,0-1-.12-.36-.34-.07-.44s-.41-.09.84-.21h1.63a34.16,34.16,0,0,1,5.54.15A30.23,30.23,0,0,1,266.8,85c-.25-.22,1.93-.27,2.86-.08.5.11-.55.14-.44.2a7,7,0,0,0,1,.26q-1.17,0-1.14.12c.27,0,3.55.09,3,.11,1.08,0,.05,0,.47-.18.1,0-.57-.16-.43-.19a10.83,10.83,0,0,1,2.13,0c1.72,0,3.38-.17,5.7,0,1.14.07,2.42.08,2.29.29a19,19,0,0,1,3.2,0c1.48.16-.25.3-1.36.47h1.83c-.31,0-.23-.13.11-.17-.07,0,2,0,2.52-.06.43.1.72.06,1.07.17,1-.15.07-.2,1.73-.32-1.1.07-2.4,0-1.91-.14a14.16,14.16,0,0,1-2.06,0c.16-.24,1.06-.45,2.52-.16.56-.14,3.35.13,1.49.25.93-.06,2.55-.25,3.59-.2-.17-.06.33-.35,1.22-.38,2.31-.08,2.87.35.4.36a9.84,9.84,0,0,0,3.26.68c-1.17-.2-1-.16,0-.39a15.44,15.44,0,0,1,1.92-.35,33.12,33.12,0,0,1,6.45.19,29.13,29.13,0,0,1,5.83-.22c1.26,0,.87.07,2,.06.36,0,.2-.09.51-.1H320c1,0,1.91,0,2.69.07,1.16,0,1.85,0,2.74.08,1.3.09.14.21,2.1.22-1.6-.16,3.4-.56,2.71,0,.75,0,2.83-.11,3.36-.2.71-.12-1.06-.2.6-.28,1.92-.1,2.89.26.68.33a10.11,10.11,0,0,0,3.91-.23c-2.35.2-3.26-.22-1.61-.33,1.44-.09,3.23.11,2,.29,4.94-.06,2.35.33,5.08.52a30.73,30.73,0,0,1,4.5-.16,24,24,0,0,1,3.39.24,46.37,46.37,0,0,0,5,.24A3.18,3.18,0,0,0,356,86a6.86,6.86,0,0,1,2.43-.22c-.38,0-.21-.06.5-.12-1.72-.09,1.64-.51,2.15-.18a27,27,0,0,1,3.48-.13h1.75l1.41.18h3.86a20.88,20.88,0,0,1,2.85.19l1.59.21-.36.15a6.09,6.09,0,0,0,2.33,0c-1.26,0-1.69-.08-1.54-.23a10.63,10.63,0,0,1,2.81-.26,26.34,26.34,0,0,1,3.77.06c.82,0,1.15.11,1.74.1-.22-.25-.9-.31,1.2-.41l.49.28a31.65,31.65,0,0,1,5.84-.14,25.39,25.39,0,0,1,2.87.4,81.66,81.66,0,0,0,8.71.26c0-.16-2.2-.21.1-.37a16.57,16.57,0,0,1,1.73.12H409c1.09-.06,1.37-.14,2.59-.23.56,0,2.42-.13,3.06-.12,1.1,0,2.38.27,3.48.26,2.58,0,.5-.24,2.9-.26-.34,0,2.16.19,2.08.18a2.15,2.15,0,0,1,.62-.07,2,2,0,0,1-.54.08,3.63,3.63,0,0,0,1.14,0c-.74,0-.8-.22-.21-.27a7,7,0,0,1,1.94.11,4.68,4.68,0,0,0,1.18.06l.6-.09a13.35,13.35,0,0,1,2,0c.7.06.77.67,1.41.21H431c.47-.16-.47-.13,1.5-.24l.48.22h7.11c-.4-.23-1.22,0-1.92-.15s-.6-.16.2-.28c-2.23.28-3.63-.47-.64-.4,2.11,0,.75.24,1.22.31,1.14.18,2,0,2,.29a34.74,34.74,0,0,1,4.78-.27l3.34.09.52.16c1,0,2.61-.09,3.84-.06.82,0,1.9.21,2.59.25a2.38,2.38,0,0,1,.75.06c1.16,0,1.7,0,1.62.13.59.08-.55.11.55.19h1.72c1.33,0,4.49,0,2.25.28l1.12.08a3.91,3.91,0,0,1,1.94-.29,3.58,3.58,0,0,1,1.78,0l.89-.09A3,3,0,0,1,470,86l.88.07a8.72,8.72,0,0,0,1.77,0c-1.42-.17,1-.38,2.23-.29a20.7,20.7,0,0,1,4.16-.22c-.22-.11-.63-.34,1.17-.32,1.58,0,1,.19,1.24.26-.83.07-.64.14.57.2l1.11.13a7.45,7.45,0,0,1,2-.1,5.06,5.06,0,0,1,1.9,0c.59-.15,3.1-.49,3.7-.12.33.2-1.9.15-2.19.26,0,0,.42.14.38.19,1.85,0,.07,0,.79.15,3.34-.11-.23-.26,1.73-.48l1.73.32c.21,0-.45-.15,0-.2a11.12,11.12,0,0,1,2.3-.2,34,34,0,0,1,4.51.1,24,24,0,0,0,2.81.23c.28,0,1.45-.06,1.94-.06a21.79,21.79,0,0,1,3.23.18c-.76.09-.9.32.23.22-1.52-.25,2.59-.18,3.28-.2.89,0,3.83-.21,4.93-.16a1,1,0,0,1-.42,0c1.06.11,2,.2,3.11.29.09,0-.45-.13-.36-.14l1.43-.16c-1.25,0-1.65,0-1.21-.13-.24-.14.3-.2,1.64-.17-1,.07,1.68.13,1.54.13-2-.43,3.8-.29,2,0a19.56,19.56,0,0,0,2.54-.14c.61.08,2.56,0,3.46,0-.26,0,0-.1.35-.12,0,.14-.37.15.72.26-.25-.14.88-.28,1.41-.08-.31-.71,4.92.06,0,0,.25.09,1.18,0,2.16.11a9.77,9.77,0,0,1,2.75.15s2-.17,2.22-.17c2.64-.06,2.54.25.71.25l2.24.15c.06-.12,1.88-.25,1.47,0,3.45-.17-.59-.29,1.44-.55l1.72.26a31.63,31.63,0,0,1,3.64-.24,27.81,27.81,0,0,1,4.18-.13c1.73,0,2.34.1,3.84.08a25.52,25.52,0,0,1,3.91,0,25.62,25.62,0,0,1,4-.43,27.65,27.65,0,0,1,5.75.27,11.42,11.42,0,0,1,2.74,0c.91.19-1.15.25-1,.34.42.24,2.85.3,3.63.47a29.4,29.4,0,0,1,3.51.1c.27-.21-3.22-.22-1.14-.49.28,0,.85-.07,1.5-.09a2.81,2.81,0,0,1,.65-.07h3.19c1.21,0,1.35.12,2.49.12.88,0,1.15-.13,2.2-.09,0,0,3.29-.4,3.6-.4.8,0,3.77,0,4.36.07l.79.2H600a15.32,15.32,0,0,0,2.14-.09c1.27-.1,1.66-.14,3.23-.18h4.77a8.84,8.84,0,0,1,2.41,0c-.39-.72,6,.08.57.09l2.21.15v.15a4.5,4.5,0,0,1,1.37.09l.82.17c.41-.13.14-.25,1.64-.29.34,0-.27.12.4.1l2.54-.1.87.08a22.58,22.58,0,0,0,2.31.08c.42,0,1.77-.07,1.77.1h1.2A7.32,7.32,0,0,0,630,86h2.49a12.63,12.63,0,0,1,1.51.12c1,.06,1.2.12,2.62.16.8,0,2.09.11,2.48.12h3.09l.3.24c1.21,0,2.24-.32,3.54-.39.81,0,3.23-.17,4.34-.21a20.34,20.34,0,0,0,3.31.27c-1-.13-3.75-.12-2.06-.32a9.61,9.61,0,0,1,3.42.2,29.28,29.28,0,0,1,5.92,0c-.26-.14.09-.21,1-.19-.7-.14-.3-.23,1.17-.25.55.22,0,.06.92,0s2.09,0,3-.12a12.18,12.18,0,0,0,2.56.06l2.38-.16,1.56.08a36.54,36.54,0,0,1,4.56.1c-.48-.13,0-.2,1.34-.2l.7.34a21.45,21.45,0,0,1,3,0s1.44.11,1,.2,2.43-.17,2.37-.09.63.22.63.22h.35a5.46,5.46,0,0,1,1.8.12ZM.51,85.44c.76,0,1,0,.65-.12a.64.64,0,0,0-.65.11Zm0-4.39c.14-.09.48,0,.66-.11a.42.42,0,0,0-.31,0H.51c-.19.06,0,.07,0,.07Zm0-10.29a.22.22,0,0,0,.13.08c.48,0,0-.11.39-.14s.52.06,1,0c-.64-.06-.2-.17-.94-.22-.3.07-.54.15-.57.22h0Zm0-.5c.43,0,.11.06.72.06-.14-.08.28-.18-.32-.24a8.49,8.49,0,0,1,1.22-.24,6.53,6.53,0,0,0-1.25,0c-.41.06,0,.1-.06.13l-.31.1s-.37,0-.12.11-.3.14.12.13ZM3.7,68.73a11.08,11.08,0,0,1-1.63-.13l.82-.11C2.78,68.6,3.77,68.62,3.7,68.73Zm.2.71c-.46-.09.18-.1.34-.15C4.7,69.38,4.06,69.39,3.9,69.44Zm1.62,1.28a2.66,2.66,0,0,1-.69,0A2,2,0,0,1,5.52,70.72Zm-.07,1,.66-.09C6.22,71.71,6.2,71.76,5.45,71.72Zm.22-.17c-.17,0-.23-.06-.18-.1h.59c.39.07-.15.09-.41.14ZM5.6,65c-.29-.1.45-.13.39-.2C6.51,64.88,6.12,64.93,5.6,65Zm1-1.46q.08,0-.12.09c-.48,0-.24-.1.12-.1Zm.71.32c.08.08-.16.12-.62.15-.25-.1.23-.12.62-.16Zm-2.73-3a2.71,2.71,0,0,1-.41-.09C4.56,60.82,5.17,60.82,4.58,60.91Zm1.27.65v.2a6.61,6.61,0,0,1-1.07-.24H5.85Zm2.1,1c0,.12-.41.18-.85.27-.47-.15.28-.19.9-.27ZM6.22,67.37H5.94a1.22,1.22,0,0,1,.27,0c0-.14-.63-.06-1.47-.11.12.1,0,.21-.46.29-1.19,0,.64-.75,1.13-.86a5.78,5.78,0,0,1,2.11-.21c.36,0-.29.11-.2.13s.74.06,1,.13H7c-.12.07.66,0,.56.07a6.09,6.09,0,0,0-2.4.27,11.67,11.67,0,0,1,1.18.07c.85-.1-1.07-.24,1.39-.18-.51.09-.12.22-.47.29a8.44,8.44,0,0,1-1,.09Zm1.25-.15A7.84,7.84,0,0,1,9,67a5,5,0,0,1-1.54.2ZM6.21,73.94v.16h.71s.72,0,.18.14c-1.57,0-1.93-.19-.89-.33Zm-.9.77c-.34-.11.15-.13.37-.17C6.2,74.62,5.48,74.64,5.31,74.71Zm-.39.44q-.36,0,.06-.09C5.43,75.06,5,75.15,4.92,75.15Zm.22-.09c.06-.08-.55,0-.7-.07A6.25,6.25,0,0,1,5.5,75q.18.06-.36.09ZM8,73.91,7.34,74C7.23,73.92,7.26,73.86,8,73.91Zm.17-.68c-.3,0-.22,0-.24-.09a8.16,8.16,0,0,0-1.56.23c-.82.23-.35.17.88.13a1.93,1.93,0,0,1-.34,0,2.89,2.89,0,0,0,.72,0c-.06-.1-1.12,0-.46-.18s.93.07,1.6,0c-.7.16.1.35-1,.44s-.63,0-.48-.09c-.58-.08-.56.06-1.23,0-.43,0-.64.11-.62.18-.73,0-.45-.57-.23-.65s.83-.27,1-.3q-.4-.14.69-.12a3.38,3.38,0,0,0,1.1,0c.47.06,0,.17.11.19-.25,0,.53.18.62.06s.5,0,.36.07-.9,0-1,.07c.33,0,.38.07.17.1ZM4.62,57.44c-.34-.07-.2-.1.44-.08A1.63,1.63,0,0,1,4.62,57.44Zm1.16.76a1.56,1.56,0,0,1-.43.08c-.23,0-.3,0-.22-.09ZM5.2,55.28v-.22C5.62,55.15,6.27,55.23,5.2,55.28Zm.65-.84c.05,0,0,.06-.13.09C5.19,54.53,5.48,54.44,5.85,54.44Zm-1-11.19c-.2-.1.14-.13,1-.09A4.19,4.19,0,0,1,4.85,43.25Zm.86-9.52c-.17,0-.23-.06-.18-.1a2.72,2.72,0,0,0,.57,0c.4.07-.12.09-.39.14Zm.7,4.45c-.45,0,0-.09,0-.09C6.66,38.09,6.64,38.15,6.41,38.18Zm-.61-1c.25.14-.61.15-.85.21C4.77,37.28,5.42,37.26,5.8,37.18Zm.41-1.29c.15.09-.43.12-.45.22C5.39,36,5.54,35.93,6.21,35.89Zm-.82,2.53c-.29,0-.22-.05-.23-.08l-.67-.11c-.51,0-.7.12-1.33.14-.11,0,.46-.19.56-.24S3.55,38,3.24,38l.85-.07c.27-.1-.45-.14.57-.2s1.46.09,1,.2a5.57,5.57,0,0,1-1,0,1,1,0,0,1-.61.17h1c.17,0-.47-.19.55-.11.64,0-.56.14.28.22-.13.07-.71,0-.72.06.43,0,.47.08.24.11ZM7,39.37c.62,0,.09.17-.41.19,0,0-1.27-.08-.55-.14A1.5,1.5,0,0,0,7,39.37ZM7.76,24.2c-.1-.11.28-.18.9-.23C8.56,24.06,8.36,24.13,7.76,24.2Zm.9,2.8a1.79,1.79,0,0,1-.9.22C7.66,27.13,8,27.06,8.66,27ZM7.77,40.7c-.43-.14.33-.18.91-.26,0,.13-.35.21-.91.28Zm1.34,4.37c.6.11,0,.16-.17.27-1.13-.13.32-.08.17-.25ZM7.63,40.15c-.06,0,.08.11-.51.09C6.38,40.24,7.47,40.15,7.63,40.15ZM6.4,39.54c.45,0,0,.09-.05.09C6.1,39.63,6.12,39.57,6.4,39.54ZM4.59,41c-.46,0,0-.09,0-.09C4.83,40.9,4.82,41,4.59,41Zm1-.15c-.38-.13.64-.09-.66-.08a6.61,6.61,0,0,0-.89,0c-.43,0-.28.23-1.06,0l.69-.28c.19-.15.05-.22.59-.37a9.33,9.33,0,0,1,1.16-.28c.43,0,1.69-.06,2-.13.48.09-.38.15-.18.19a4.93,4.93,0,0,1,1.08.15c0,.09-1.48-.07-1.43.09-.82,0,0,.1-.94,0-.88.16-1.78.55.58.35-.42-.09-1.09,0-.94-.11a8.36,8.36,0,0,1,2,0c-1.25.16.26.43-2,.39ZM5.47,41a1.52,1.52,0,0,1,.66-.15V41Zm.72,1c-.16,0,.32.11-.36.14q.11-.07-.33-.12a4,4,0,0,1,.69,0Zm-1,2.31s0-.17.67-.09Zm1.59-.39q.36,0-.06.09c-.45,0,0-.07.06-.07Zm-.22.28s-.65.18-.71,0Zm.55,2.3c-.46-.09.18-.1.34-.15.46.11-.18.12-.34.17Zm.26,1.22a1.83,1.83,0,0,1,.92-.18c-.29.08,0,.18-.92.2ZM7.18,50l-1,.13A2.18,2.18,0,0,1,7.18,50Zm.09,1c0,.08-.38.11-1.12.14Zm-.16-2c-.46-.09.18-.1.34-.15C7.91,48.9,7.27,48.91,7.11,49Zm-.18,3,.64-.07C7.66,52,7.57,52,6.93,52Zm.18,2.78c.31.11,0,.17-.89.2.19-.13.88-.17.89-.24Zm-.31-1c.24.05-.39.25-1,.16C6.3,54,6.09,53.82,6.8,53.8Zm-1-1.57a4.09,4.09,0,0,1,.7,0A2.06,2.06,0,0,1,5.8,52.23Zm.74.61L6,53C6,52.87,6,52.87,6.54,52.84Zm0,3.29a2.22,2.22,0,0,1,.68-.08c.21.08,0,.11-.63.08Zm.14.85L6,57.13c-.2-.11-.13-.17.79-.21Zm0,1.55c-.25,0-.23-.06,0-.09.5,0,.05.09.05.09ZM7,58.37H6.24a4,4,0,0,1,.91-.07c.32.05-.49.05-.15.09ZM8,44.84s0,.06-.13.08C7.34,44.92,7.63,44.84,8,44.84Zm-.36,0A11.38,11.38,0,0,0,6,45.08c-.29.13-.27.19,1,.23.32,0,.26-.11.34-.12a3,3,0,0,0-.6,0c-.92-.1.91-.2,1.62-.07.39.07-.41.42-1.59.4-.37-.05.5-.08,0-.13a16.67,16.67,0,0,1-2,.15c-.19,0,0-.27,0-.35s.06-.21.57-.38c.15-.05.27-.23.47-.26a16.1,16.1,0,0,0,1.67-.06.41.41,0,0,1,.19.24c.69-.08,1.34,0,.71.09-.32,0-.83-.1-.78,0Zm.55-12.47A4.8,4.8,0,0,1,7,32.65c-.36-.12.26-.17,1.17-.24Zm-.66-3.1c.3.12-.54.13-.8.19C6.73,29.37,6.73,29.37,7.53,29.27Zm-1.33-1,.66-.08S6.86,28.36,6.2,28.27Zm0,.26c0,.07-.78,0-.71,0Zm-.78.81a.71.71,0,0,1-.29,0c.21-.06.78,0,.77-.09.71.09.67.49-.75.37.5-.05.4-.07-.3-.07s-1,0-1,.11c-.34,0-.48.22-.54.06s.16-.4.67-.55c0,0,1.31-.33,1.22-.32,1.27-.13,1.45.08,1.51.09-.15,0,.32.13.49.12h0a1.71,1.71,0,0,1-.32,0h-.4c-.16,0-1.72.19-2,.27a7.53,7.53,0,0,0,.95,0Zm-.77,7.15-1-.06a8.51,8.51,0,0,1,1.43-.07l-.48.13ZM.51,68.65s0,.09.12.13c.28,0,.68-.27.8-.27a6.6,6.6,0,0,0-.87.15L.51,68.6Zm0-.71a.43.43,0,0,0,.16,0c.22,0,.72,0,.41-.15a3.78,3.78,0,0,0-.57.1Zm0-7.42c1.07,0,1.11,0,1.44-.13s-.23-.28-.56-.37l-.88.35h0a5.81,5.81,0,0,0,.59,0c.46,0-.15.09-.59.13h0Zm0-18.4c.32-.13,1.94-.41.15-.43a.26.26,0,0,1-.15.07C.09,41.9.51,42.12.51,42.12ZM688.69-.28s.28.05.22.09a8.16,8.16,0,0,1-1.31-.08,5,5,0,0,1,1.09,0Zm.6,5.83a5.57,5.57,0,0,1-1,0A5.57,5.57,0,0,1,689.29,5.55Zm.93-.34h0a4.09,4.09,0,0,1-.7,0Zm-.76.57c-.29,0-.19,0-.22-.08a.53.53,0,0,1-.25,0h.25c.43,0,.46.07.24.1Zm0-2.72a3.15,3.15,0,0,1-.81-.1c.89-.06.41.09.81.1ZM690.55.42a7.06,7.06,0,0,1-.92,0A3.54,3.54,0,0,1,690.55.42Zm1.28.3V.78l-1-.06A4.18,4.18,0,0,1,691.83.72Zm-.17,7.19c.24,0,.24,0,0,.08-.44,0-.55,0-.48-.06a1.85,1.85,0,0,1,.47,0Zm-2.83,2.34c.15,0,.19.1-.66,0Zm1.37-.73a3,3,0,0,1-.94,0A4.92,4.92,0,0,1,690.2,9.52Zm-1,4.67a4.92,4.92,0,0,1-.94,0A7.37,7.37,0,0,1,689.2,14.19Zm.38,1a2.36,2.36,0,0,1-.65,0A2.36,2.36,0,0,1,689.58,15.19Zm1.8-.41c.3.09-.17.1-.36.14C690.57,14.85,691.15,14.83,691.38,14.78Zm-1.21,4c.1,0,.07,0-.11.07a8.12,8.12,0,0,0-.85-.07,5.57,5.57,0,0,1,1,0Zm-.54,3.85c.29.09.47.13.78.21C689.51,22.84,689.53,22.74,689.63,22.63Zm1,1.45a3.37,3.37,0,0,0-1,.15h-.78a4.19,4.19,0,0,0-.78-.11,22.38,22.38,0,0,1,2.59,0Zm-1.49,2.29c.34.08-.14.09-.38.13S688.9,26.41,689.14,26.37Zm.14,4.65a2.43,2.43,0,0,1-.66,0,2.43,2.43,0,0,1,.66,0Zm-.2-2h.39c.34.06-.13.08-.38.13s-.21-.09,0-.13Zm3.54-4-1,.13a1.16,1.16,0,0,0-.45-.12h1.45Zm-1.94,2.5c.43,0,.09.07.17.09a3.31,3.31,0,0,0,.63,0v.19c-.54,0-.67-.07-1.13,0-.31-.13.23-.21.33-.3Zm-.15,2.94a1.72,1.72,0,0,1-.64,0,2.31,2.31,0,0,1,.64-.05Zm-1,1.18a11.61,11.61,0,0,1-1.18,0,7.77,7.77,0,0,1,1.18-.05ZM689.9,33a2.36,2.36,0,0,1-.65,0A2.36,2.36,0,0,1,689.9,33Zm-.52,3c.39,0,.41.09.9.09a3.52,3.52,0,0,1-1.12-.06h.22Zm.14-.85h-.12a2.68,2.68,0,0,1,.8,0,2.36,2.36,0,0,1-.65,0h-.26a.45.45,0,0,1,.23,0Zm.27-.83h-.44s0,0,.44,0Zm1.28,4.08h-1.42a8.42,8.42,0,0,1,1.42,0Zm-.52-.69a2.43,2.43,0,0,1-.66,0,2.43,2.43,0,0,1,.66,0Zm-.66,7.2a2.08,2.08,0,0,1-.61,0,3.11,3.11,0,0,1,.61,0Zm3.56-.75a2.36,2.36,0,0,1-.65,0,1.77,1.77,0,0,1,.65,0Zm-3.59,1.66c-.09,0,.58,0,.2.1-.72,0-.38-.09-.8-.11h.6Zm.37,7h-.91a4.62,4.62,0,0,1,.91,0Zm2.44,5c.16,0,.18,0,.08.07a7.06,7.06,0,0,1-.92,0l.84-.07Zm-3.41.87a2.43,2.43,0,0,1-.66,0,2.43,2.43,0,0,1,.66,0Zm.34,1.83a3.32,3.32,0,0,1-.63,0,1.67,1.67,0,0,1,.63,0Zm.9,3.3a1.62,1.62,0,0,1-.62,0,2.14,2.14,0,0,1,.62,0Zm.34-1.59v.09a2.24,2.24,0,0,1-.57-.08Zm.68,2a5.57,5.57,0,0,1-1,0,4.18,4.18,0,0,1,1,0Zm-.33,1.51a2.15,2.15,0,0,1-.62,0,2.14,2.14,0,0,1,.62,0Zm-1.82,2h.15c.19,0,.52,0,.32.1h-.1c-.17,0-.53,0-.49-.09h.12Zm1.09,1.74.1.06a4.09,4.09,0,0,1-.7,0l.6-.08Zm-.91,2.31a2.15,2.15,0,0,1-.62,0,1.61,1.61,0,0,1,.62,0Zm-.15,1c.26,0,.22.06,0,.09-.43,0-.6,0-.46-.07a3.09,3.09,0,0,1,.43,0Zm1-.36c.06.1.06.1-.43.09Zm3,.17a3.32,3.32,0,0,1-.63,0,1.67,1.67,0,0,1,.63,0Zm-2.25.3a3.31,3.31,0,0,1-.63,0,1.67,1.67,0,0,1,.63,0Zm-2.81,1h.5l-.46.13c-.21,0-.21-.09,0-.13Zm1.44,2.48v.08a2.29,2.29,0,0,1-.64,0l.59-.08Zm.31-1.75a3.47,3.47,0,0,1-.91,0,6.91,6.91,0,0,1,.91,0Zm0,1.34c-.31,0-.59,0-.54-.1.5,0,.5,0,.54.13Zm.14-.86h-.67c-.18,0,.09,0,.67,0Zm-.77,4.22h-.17a2,2,0,0,0,.65.08,3.85,3.85,0,0,1-1.35-.12,6.32,6.32,0,0,1,.87,0Zm2.73-.39c.69,0,.94,0,.91.12h-.91Zm-3.64,1a1.87,1.87,0,0,1-.78-.07,3.44,3.44,0,0,1,.78.13Zm.21,5.52a3.78,3.78,0,0,1-.82.06,6.47,6.47,0,0,1,.82,0Zm.49-1.59.88.06h-.73c-.25,0-.25-.06-.15-.07Zm.63-2.92a2.51,2.51,0,0,1,.67,0,4.64,4.64,0,0,1-.91.06c-.18,0,.15,0,.24,0Zm1.61,1.87c.58.07,0,.17.66.2-.54,0-.13.16-.85.2s-.39-.15-.47-.22c.17,0,.84-.06.66-.16Zm3.34,2c.23,0,.68.06.47.12a1,1,0,0,1-.43,0c-.2,0-.2,0,0-.09Z"/></g></g></g></g></svg>