<?xml version="1.0" encoding="utf-8"?>
<!-- Generator: Adobe Illustrator 21.1.0, SVG Export Plug-In . SVG Version: 6.00 Build 0)  -->
<svg version="1.1" id="Layer_1" xmlns="http://www.w3.org/2000/svg" xmlns:xlink="http://www.w3.org/1999/xlink" x="0px" y="0px"
	 viewBox="0 0 100 110.8" style="enable-background:new 0 0 100 110.8;" xml:space="preserve">
<style type="text/css">
	.st0{fill:#545386;}
	.st1{fill:#FFFFFF;}
	.st2{fill:#7DAED3;}
</style>
<g>
	<path class="st0" d="M100,43.2l-2.2-0.4l-1.5-0.3c-0.4-0.1-0.9-0.2-1.5-0.2l-1-0.2l0,0.1c-1.3-0.1-2.8-0.2-4.5-0.4l-4.9-0.3
		c-1.4-0.1-2.7-0.2-3.8-0.3c0,0,0,0,0,0c0-0.2,0-0.4-0.1-0.7l-0.1-1.3c0-0.4-0.1-0.8-0.1-1.3c-0.1-0.9-0.1-1.7,0-2.4l0,0
		c0.3-2.9-0.8-10.2-0.9-10.5l-0.5-1.6l-0.3-11.4L77.4,0L46.7,9.6L45,10.6c-1.3,0.2-2.7,0.6-4.3,1l-0.2,0.1c-0.7,0.2-1.4,0.4-2.2,0.7
		c-0.8,0.3-1.7,0.6-2.6,0.9c-3.3,1.3-6.4,2.8-9.6,4.4l-1.7,0.9l0.1,0.3c-0.1,0-0.1,0.1-0.2,0.1l-0.3,0.2c-1.8,1.2-3.5,2.5-5.4,4.1
		c-1.8,1.6-3.4,3.2-4.8,4.8c-3,3.4-5.5,7.2-7.4,11.2c-1.9,4-3.3,8.2-4.2,12.4L2,52.6l-0.5,3.2l-0.6,7.8c-0.1,0.8-0.2,1.9-0.3,3.6
		l0,0.2c0,0.9-0.1,2.3-0.2,2.7l-0.1,0.4l0,0.4c0.3,4.6-0.3,23.1-0.3,23.3l0,0.1c0,0.6,0,1.8,0,2.9c0,1.2,0,2.4,0,3
		c0,0.9,0,1.8,0.1,2.6c0,0.8,0.1,1.6,0.1,2.4l0,1.3l1,0.8l1.6,1.2c0.3,0.2,0.5,0.4,0.6,0.4l0.1,0.1c0.3,0.2,1.8,1.1,2.2,1.4l0.4,0.2
		l1.2,0.3c0.4,0.1,0.7,0.1,0.9,0.1l2.4,0c0.9,0,6.1,0,7.8-0.1c3.3,0,24.2-0.4,26-0.4l2.6-0.1c0.4,0,0.8,0,1.2-0.1l0.2,0
		c0.4,0,0.7,0,1.1-0.1l0.4,0c4.8-0.3,9.8-1.8,14.7-4.3c4.2-2.2,8.3-5.2,12.3-9l-0.3,1.1l0.8-1.6c0.8-0.7,2-2,3.2-3.5
		c1.6-2,3.2-4.6,4.5-7c1.6-3.2,2.7-6.1,3.1-7.6c0.3-1.1,0.6-1.9,0.8-2.6l0-0.1c0.3-1,0.4-1.3,0.4-1.5l0.9-4.1
		c0.1-0.2,0.2-0.4,0.2-0.6c0.3-0.5,0.5-1.1,0.7-1.7c0.1-0.2,0.2-0.4,0.2-0.6l0.4-0.4l0.1-0.9c0.2-1.8,0.8-3.7,1.4-5.4l0.2-0.9
		c0.1-0.2,0.2-0.5,0.3-0.9c0.3-0.8,0.8-2.1,1.1-2.8l0.1-0.1c0,0,0.4-1,0.6-1.6l1.7-5.5c0.1-0.2,0.2-0.5,0.3-0.8
		c0.2-0.5,0.4-1,0.5-1.5L100,43.2z"/>
	<g>
		<path class="st1" d="M17.6,35.3c0.6-0.2,1.1-0.2,1.5-0.2c0.4,0.1,0.7,0.2,0.9,0.4s0.3,0.5,0.4,0.8c0.1,0.3,0.1,0.6,0.2,0.9
			c-0.1,0.1-0.2,0.3-0.4,0.3c-0.2,0.1-0.4,0.1-0.5,0.1l-0.2,0.1c-0.2,0.1-0.4,0-0.5,0c-0.1-0.1-0.1-0.2-0.2-0.3c0,0-0.1-0.1-0.1-0.2
			c0-0.1-0.1-0.1-0.1-0.2c-0.2-0.2-0.4-0.2-0.6-0.2c-0.2,0.1-0.4,0.2-0.5,0.5s-0.3,0.5-0.4,0.8c-0.1,0.3-0.2,0.6-0.2,0.8
			c-0.1,0.5-0.1,1-0.1,1.5c0,0.5,0,1,0,1.5v6.5c0,0.4,0,0.8,0,1.2c0,0.4,0,0.8,0.1,1.2c0,0.4,0.1,0.8,0.1,1.2
			c0.1,0.4,0.2,0.8,0.4,1.1c0,0.1,0.1,0.2,0.2,0.4c0.1,0.1,0.2,0.2,0.4,0.2c0.1,0,0.1,0,0.2,0c0.1,0,0.2,0,0.3-0.1
			c0.1,0,0.2-0.1,0.3-0.1s0.1-0.1,0.2-0.2c0-0.1,0.1-0.2,0.1-0.4c0-0.1,0-0.3,0.1-0.4c0-0.2,0.1-0.4,0.1-0.6
			c0.1-0.2,0.2-0.3,0.3-0.5c0.3-0.2,0.6-0.3,0.9-0.3c0.3,0,0.4,0.2,0.4,0.6c0,0.9-0.2,1.7-0.5,2.3s-0.9,1-1.8,1.1
			c-0.7,0.1-1.3,0.1-1.7-0.1c-0.4-0.2-0.7-0.5-0.9-0.8c-0.2-0.4-0.3-0.8-0.4-1.3c-0.1-0.5-0.1-1-0.1-1.4c0-0.3-0.1-0.6-0.1-0.9
			c0-0.3,0-0.6,0-0.9c0-0.2,0-0.4,0-0.7c0-0.2,0-0.4,0-0.7c0-0.6-0.1-1.3-0.1-1.9c0-0.6,0-1.2,0-1.9c0-0.2,0-0.4,0-0.7
			c0-0.2,0-0.5,0-0.7c0-0.3,0-0.5,0-0.8c0-0.3,0-0.5,0-0.8c0-0.6,0-1.2,0.1-1.8c0.1-0.6,0.2-1.2,0.3-1.7c0.1-0.3,0.2-0.6,0.3-0.9
			c0.1-0.3,0.3-0.6,0.5-0.9c0.2-0.3,0.4-0.5,0.6-0.7C17,35.5,17.3,35.4,17.6,35.3z"/>
		<path class="st1" d="M25.1,33.3c0.5-0.1,0.9-0.2,1.2-0.1c0.3,0.1,0.5,0.2,0.7,0.3c0.2,0.2,0.3,0.4,0.4,0.6
			c0.1,0.2,0.1,0.5,0.2,0.8l0.1,0.2c0,0.2,0.1,0.5,0.1,0.8s0,0.7,0.1,1.2c0,0.4,0,0.9,0,1.4c0,0.5,0,0.9,0,1.3v0.5
			c0,0.1,0,0.3,0,0.4c0,0.1,0,0.3,0,0.4c0,0.3,0,0.7,0,1.1c0,0.4,0,0.8,0,1.1V46c0,0.5,0,1.1,0,1.7c0,0.6-0.1,1.2-0.1,1.7
			c-0.1,0.6-0.2,1.1-0.3,1.6s-0.3,1-0.5,1.3c-0.1,0.2-0.3,0.4-0.5,0.6c-0.2,0.1-0.4,0.3-0.7,0.3c-0.3,0.1-0.6,0.1-0.9,0.1
			c-0.4,0-0.7-0.1-1-0.2c-0.2-0.1-0.5-0.3-0.7-0.6c-0.4-0.4-0.6-0.9-0.7-1.4c-0.1-0.5-0.2-1.1-0.2-1.7c0-0.1,0-0.2,0-0.2
			c0-0.1,0-0.2,0-0.2c-0.1-1-0.1-2.1-0.2-3.1c0-1.1,0-2.1,0-3.2c0-0.4,0-0.9,0-1.3s0-0.9,0-1.3c0-1,0.1-1.8,0.2-2.6
			c0.1-0.7,0.4-1.5,0.7-2.4c0.1-0.3,0.2-0.5,0.4-0.7c0.2-0.2,0.4-0.3,0.5-0.5c0.2-0.1,0.4-0.2,0.6-0.3
			C24.7,33.5,24.9,33.4,25.1,33.3z M26.1,36.1c0-0.2-0.1-0.5-0.1-0.8c-0.1-0.3-0.2-0.5-0.4-0.5c-0.3-0.1-0.6-0.1-0.7,0
			c-0.2,0.1-0.4,0.2-0.5,0.5c-0.1,0.2-0.2,0.5-0.3,0.7c-0.1,0.4-0.2,0.7-0.2,1.1c0,0.3-0.1,0.7-0.1,1l-0.1,0.8c0,0.1,0,0.3,0,0.5
			c0,0.2,0,0.4,0,0.6v2.7c0,0.2,0,0.5,0,0.9c0,0.4,0,0.8,0.1,1.3c0,0.5,0.1,0.9,0.1,1.4c0,0.5,0.1,1,0.1,1.4l0.1,1.6
			c0,0.4,0.1,0.8,0.2,1.2c0.1,0.4,0.2,0.8,0.4,1c0.1,0.1,0.2,0.1,0.3,0.1c0.1,0,0.2,0,0.4,0c0.1,0,0.2-0.1,0.3-0.1
			c0.1-0.1,0.2-0.1,0.2-0.2c0.2-0.5,0.3-1,0.4-1.5s0.1-0.9,0.1-1.4v-0.7c0-0.5,0-1,0-1.6c0-0.5,0-1.1,0-1.6c0-0.4,0-0.7,0-1.1
			c0-0.4,0-0.8,0-1.1c0-0.6,0-1.1,0-1.6c0-0.5,0-1,0-1.4c0-0.5,0-1,0-1.5C26.2,37.1,26.2,36.6,26.1,36.1L26.1,36.1z"/>
		<path class="st1" d="M31,36.5c0,3,0.1,5.9,0.2,8.7c0,1,0.1,2,0.1,3.1s0,2.1,0.1,3.1c0,0.1-0.1,0.2-0.2,0.3
			c-0.1,0.1-0.3,0.2-0.5,0.2C30.4,52,30.2,52,30,52c-0.2,0-0.3,0-0.3,0v0c-0.1-0.1-0.1-0.2-0.1-0.4c0-0.2,0-0.4,0-0.6
			c0-0.3,0-0.7,0-1c0-0.4,0-0.8,0-1.1V33.2c0-0.3,0-0.5,0.1-0.7c0.1-0.2,0.3-0.3,0.7-0.5c0.4-0.1,0.7-0.2,0.8-0.1s0.2,0.3,0.3,0.6
			l0.1,0.2c0.2,0.6,0.4,1.2,0.5,1.9c0.1,0.7,0.3,1.3,0.4,1.9l0.6,3.6c0.1,0.6,0.2,1.2,0.2,1.7c0.1,0.5,0.1,0.9,0.2,1.4
			s0.1,0.9,0.2,1.4s0.2,1,0.3,1.6c-0.1-1.1-0.1-2.3-0.1-3.5c0-1.2,0-2.4,0-3.4v-0.7c0-0.4,0-0.7,0-1c0-0.3,0-0.7,0-1v-3.7
			c0-0.2,0-0.4,0-0.6c0-0.2,0-0.4,0-0.6c0-0.3,0.1-0.4,0.2-0.5c0.1-0.1,0.3-0.1,0.5-0.2l0.3-0.1c0.2-0.1,0.3-0.1,0.4-0.1
			c0.1,0,0.2,0.1,0.2,0.4c0,0.1,0,0.3,0,0.4c0,0.1,0,0.3,0,0.4V36c0,1.3,0,2.5,0,3.8c0,1.3,0,2.5,0,3.8c0,0.5,0,1,0,1.6
			c0,0.5,0,1.1,0,1.6c0,0.5,0,1,0,1.6c0,0.6,0,1.1,0,1.6c0,0.3,0,0.5-0.1,0.6c-0.1,0.1-0.2,0.3-0.5,0.5c-0.1,0.1-0.2,0.1-0.5,0.1
			c-0.2,0-0.4,0-0.5,0c-0.3-0.1-0.4-0.3-0.5-0.6c-0.1-0.3-0.2-0.7-0.3-1.2L33,48.9c-0.3-1.4-0.5-2.8-0.8-4.2
			c-0.2-1.4-0.5-2.8-0.7-4.2c-0.1-0.6-0.2-1.2-0.3-1.8c-0.1-0.6-0.1-1.2-0.2-1.8L31,36.5z"/>
		<path class="st1" d="M39.2,31.5c-0.1,0-0.3,0.1-0.5,0.1s-0.4,0.1-0.6,0.1c-0.2,0-0.4,0.1-0.5,0.1c-0.2,0.1-0.3,0.1-0.4,0.1
			c-0.1,0-0.2,0-0.2-0.1c-0.1-0.1-0.1-0.2-0.1-0.4c0-0.1,0-0.3,0-0.4c0-0.1,0-0.3,0.1-0.3c0.1-0.2,0.2-0.3,0.3-0.3
			c0.1,0,0.3-0.1,0.4-0.1l5-1.2c0.3-0.1,0.5-0.1,0.6-0.1c0.1,0,0.2,0.2,0.2,0.5c0,0,0,0.1,0,0.2c0,0.1,0,0.2-0.1,0.3
			c0,0.1-0.1,0.2-0.1,0.3c0,0.1-0.1,0.2-0.1,0.2c-0.3,0.1-0.6,0.2-0.9,0.3s-0.6,0.1-0.9,0.2c-0.1,0-0.1,0-0.2,0c-0.1,0-0.1,0-0.2,0
			c0,0.5,0,1,0,1.5c0,0.5,0,1,0,1.5c0,0.5,0,1,0,1.5c0,0.5,0,1,0,1.5c0,0.5,0,1.1,0,1.6c0,0.5,0,1.1,0,1.6c0,1.4,0,2.9,0.1,4.3
			c0,1.4,0.1,2.8,0.3,4.2c0,0,0,0.1,0,0.1c0,0,0,0.1,0,0.1c0,0.2,0,0.3,0,0.3s-0.1,0.1-0.2,0.2l0.1,0c0,0,0,0-0.1,0s0,0-0.1,0
			c-0.1,0-0.1,0.1-0.2,0.1s-0.2,0.1-0.3,0.1s-0.2,0.1-0.3,0.1c-0.1,0-0.2,0-0.2,0c-0.2,0-0.3-0.2-0.3-0.4c0-0.2-0.1-0.5-0.1-0.8
			c0-0.1,0-0.1,0-0.2c0-0.1,0-0.1,0-0.2c0-0.3-0.1-0.7-0.1-1.1c0-0.4,0-0.8,0-1.1c0-0.6,0-1.2,0-1.8c0-0.6,0-1.2,0-1.7
			c0-0.8,0-1.5-0.1-2.3c0-0.8,0-1.5,0-2.3v-5c0-0.3,0-0.6,0-1C39.3,31.6,39.3,31.4,39.2,31.5z"/>
		<path class="st1" d="M45.9,42.2V48c0,0.1-0.1,0.2-0.2,0.3s-0.2,0.1-0.4,0.2c-0.2,0-0.4,0.1-0.6,0.1c-0.2,0-0.3,0-0.3,0
			c-0.1-0.1-0.2-0.3-0.2-0.5c0-0.3,0-0.5,0-0.6c0-0.1,0-0.2,0-0.2v-4.8l0-2.9c0-0.4,0-0.8,0-1.1s0-0.7,0-1.2c0-0.1,0-0.2,0-0.3
			c0-0.1,0-0.2,0-0.3c0-0.1,0-0.3,0-0.4c0-0.2,0-0.3,0-0.5c0-0.6,0-1.2,0.1-2s0.1-1.5,0.3-2.2c0.1-0.7,0.4-1.4,0.7-2
			c0.3-0.6,0.7-1.1,1.3-1.4c0,0,0.1-0.1,0.3-0.1c0.2-0.1,0.4-0.1,0.6-0.2c0.2-0.1,0.4-0.1,0.6-0.2c0.2-0.1,0.3-0.1,0.4-0.1
			c0.5-0.1,0.9,0,1.1,0.4s0.5,0.8,0.7,1.4c0.2,0.6,0.2,1.2,0.3,2c0,0.7,0.1,1.4,0.1,2.1v1.6l0,6.1l0.1,3.9v0.6c0,0.1,0,0.3,0,0.4
			c0,0.2,0,0.3,0,0.5c0,0.2-0.1,0.4-0.3,0.5c-0.2,0.1-0.5,0.3-0.8,0.3c-0.2,0.1-0.4,0.1-0.5,0c-0.1,0-0.2-0.2-0.2-0.4
			c0-0.2,0-0.4,0-0.7c0-0.2,0-0.6,0-1.2c0-0.5,0-1.3,0-2.2c0-1,0-2.2,0-3.9c0-0.6-0.1-0.8-0.4-0.8c-0.2,0-0.4,0.1-0.6,0.2
			c-0.1,0.1-0.3,0.1-0.6,0.2c-0.2,0.1-0.6,0.2-1,0.3c-0.1,0-0.2,0.1-0.2,0.3c0,0.2-0.1,0.4-0.1,0.5L45.9,42.2z M46,37.4
			c0.3-0.1,0.7-0.2,1.1-0.4c0.4-0.1,0.7-0.3,1-0.4c0,0,0.1,0,0.2-0.1s0.1,0,0.2,0c0.3-0.1,0.4-0.3,0.4-0.5c0-0.3,0-0.7,0-1
			c0-0.3,0-0.6,0-0.9c0-0.9,0-1.6-0.1-2.4s-0.1-1.5-0.2-2.3c0-0.1-0.1-0.2-0.2-0.2c-0.1,0-0.3,0-0.5,0c-0.2,0-0.4,0.1-0.6,0.2
			s-0.4,0.2-0.4,0.3c-0.2,0.3-0.3,0.7-0.4,1.2c-0.1,0.6-0.1,1.3-0.2,2.1c0,0.3,0,0.6-0.1,1c0,0.3,0,0.7-0.1,1.1L46,37.4z"/>
		<path class="st1" d="M56.3,44.6c0,0.3,0,0.5,0,0.6s-0.1,0.3-0.2,0.3c-0.1,0.1-0.2,0.1-0.4,0.2c-0.2,0-0.3,0.1-0.5,0.1
			c-0.2,0.1-0.4,0.1-0.6,0.1c-0.2,0-0.3,0.1-0.5,0.1l-1.3,0.3c-0.1,0-0.1,0-0.2-0.2s-0.1-0.3-0.1-0.5c0-0.2,0-0.3,0-0.5
			s0.1-0.3,0.2-0.3l0.4-0.1c0,0,0.1,0,0.1,0c0,0,0.1,0,0.2-0.1c0,0,0.1-0.2,0.1-0.4c0-0.2,0-0.4,0-0.6v-0.2c0-0.4,0-0.9,0-1.5
			c0-0.5,0-1.1,0-1.7c0-0.5,0-1.1,0-1.7s0-1.1,0-1.5V28c0-0.1,0-0.1-0.1-0.1c-0.1,0-0.2,0-0.3,0c-0.2,0-0.3,0.1-0.5,0.1
			c-0.2,0-0.3-0.1-0.4-0.3c-0.1-0.2-0.1-0.4-0.1-0.6c0-0.1,0.1-0.3,0.2-0.3c0.1-0.1,0.2-0.2,0.4-0.2c0.2-0.1,0.4-0.1,0.6-0.2
			l0.6-0.1c0.3-0.1,0.6-0.1,0.9-0.2c0.3-0.1,0.6-0.1,0.7-0.2l0.2,0c0.2-0.1,0.4-0.1,0.5,0c0.1,0,0.1,0.2,0.1,0.4
			c0,0.4-0.1,0.6-0.3,0.7c-0.2,0.1-0.3,0.2-0.5,0.2c-0.1,0-0.2,0.1-0.2,0.1c-0.1,0-0.1,0.1-0.1,0.2v2c0,1.9,0,3.9,0,5.8s0,3.9,0,5.8
			v1.4c0,0.1,0,0.2,0,0.3c0,0.1,0,0.2,0,0.3v1c0,0.2,0.1,0.3,0.1,0.3c0.1,0,0.2,0,0.5,0c0.2,0,0.3-0.1,0.4,0
			C56.2,44.3,56.3,44.4,56.3,44.6z"/>
		<path class="st1" d="M59.5,29.5c0,3,0.1,5.9,0.2,8.7c0,1,0.1,2,0.1,3.1c0,1.1,0,2.1,0.1,3.1c0,0.1-0.1,0.2-0.2,0.3
			c-0.1,0.1-0.3,0.2-0.5,0.2C58.9,45,58.7,45,58.5,45c-0.2,0-0.3,0-0.3,0v0c-0.1-0.1-0.1-0.2-0.1-0.4c0-0.2,0-0.4,0-0.6
			c0-0.3,0-0.7,0-1c0-0.4,0-0.8,0-1.1V26.2c0-0.3,0-0.5,0.1-0.7c0.1-0.2,0.3-0.3,0.7-0.5c0.4-0.1,0.7-0.2,0.8-0.1
			c0.1,0.1,0.2,0.3,0.3,0.6l0.1,0.2c0.2,0.6,0.4,1.2,0.5,1.9c0.1,0.7,0.3,1.3,0.4,1.9l0.6,3.6c0.1,0.6,0.2,1.2,0.2,1.7
			c0.1,0.5,0.1,0.9,0.2,1.4s0.1,0.9,0.2,1.4s0.2,1,0.3,1.6c-0.1-1.1-0.1-2.3-0.1-3.5c0-1.2,0-2.4,0-3.4v-0.7c0-0.4,0-0.7,0-1
			c0-0.3,0-0.7,0-1v-3.7c0-0.2,0-0.4,0-0.6c0-0.2,0-0.4,0-0.6c0-0.3,0.1-0.4,0.2-0.5c0.1-0.1,0.3-0.1,0.5-0.2l0.3-0.1
			c0.2-0.1,0.3-0.1,0.4-0.1c0.1,0,0.2,0.1,0.2,0.4c0,0.1,0,0.3,0,0.4c0,0.1,0,0.3,0,0.4v3.9c0,1.3,0,2.5,0,3.8c0,1.3,0,2.5,0,3.8
			c0,0.5,0,1,0,1.6c0,0.5,0,1.1,0,1.6c0,0.5,0,1,0,1.6c0,0.6,0,1.1,0,1.6c0,0.3,0,0.5-0.1,0.6c-0.1,0.1-0.2,0.3-0.5,0.5
			c-0.1,0.1-0.2,0.1-0.5,0.1c-0.2,0-0.4,0-0.5,0c-0.3-0.1-0.4-0.3-0.5-0.6c-0.1-0.3-0.2-0.7-0.3-1.2l-0.1-0.4
			c-0.3-1.4-0.5-2.8-0.8-4.2c-0.2-1.4-0.5-2.8-0.7-4.2c-0.1-0.6-0.2-1.2-0.3-1.8c-0.1-0.6-0.1-1.2-0.2-1.8L59.5,29.5z"/>
		<path class="st1" d="M70.7,27.6c0,0.1-0.1,0.2-0.2,0.3s-0.3,0.2-0.5,0.2s-0.4,0.1-0.5,0.1c-0.2,0-0.3-0.1-0.3-0.2
			c0-0.2-0.1-0.5-0.1-0.8c0-0.3,0-0.6,0-0.9v-0.5c0-0.3,0-0.5-0.1-0.8c0-0.3-0.1-0.5-0.2-0.7c-0.1-0.1-0.3-0.2-0.5-0.2
			c-0.2,0-0.4,0.2-0.5,0.4c-0.1,0.1-0.2,0.3-0.2,0.5c-0.1,0.2-0.1,0.5-0.1,0.7c0,0.3-0.1,0.5-0.1,0.8c0,0.3,0,0.6,0,0.9
			c0,0.5,0,0.9,0,1.3c0,0.4,0,0.6,0.1,0.8c0.1,0.3,0.2,0.6,0.3,0.9s0.3,0.5,0.5,0.7l0.2,0.1c0.2,0.1,0.4,0.2,0.7,0.4
			c0.2,0.1,0.4,0.2,0.5,0.3c0.2,0.1,0.4,0.3,0.7,0.6c0.2,0.3,0.4,0.5,0.5,0.8c0.1,0.2,0.2,0.5,0.2,0.9c0,0.4,0.1,0.7,0.1,1.1
			c0,0.2,0,0.5,0,0.7c0,0.2,0,0.4,0,0.6c0,0.1,0,0.2,0,0.3c0,0.1,0,0.2,0,0.3v0.7c0,0.5,0,1-0.1,1.5c0,0.5-0.1,1-0.3,1.5
			c-0.2,0.5-0.4,0.9-0.8,1.2c-0.4,0.4-0.9,0.6-1.5,0.8c-0.1,0-0.2,0-0.3,0.1c-0.1,0-0.3,0-0.5,0.1c-0.2,0-0.3,0-0.5,0
			c-0.2,0-0.3-0.1-0.4-0.2c-0.3-0.3-0.5-0.6-0.6-1C66,41.3,66,41,65.9,40.8v-0.1c0-0.2,0-0.5,0-0.7s0-0.5,0-0.7v-2.7
			c0-0.2,0-0.4,0-0.6c0-0.1,0-0.3,0.1-0.4c0.1-0.1,0.2-0.2,0.3-0.2c0.1-0.1,0.3-0.1,0.6-0.2c0.4-0.1,0.6,0,0.6,0.3
			c0.1,0.2,0.1,0.6,0,0.9v0.1c0,0.2,0,0.4,0,0.6s0,0.4,0,0.6c0,0.3,0,0.5,0,0.8c0,0.3,0,0.5,0,0.8c0,0.1,0,0.3,0,0.5
			c0,0.2,0,0.3,0,0.5c0,0.2,0.1,0.5,0.2,0.7c0.1,0.2,0.2,0.4,0.4,0.4c0.3,0,0.6-0.2,0.7-0.4c0.2-0.3,0.2-0.5,0.3-0.8
			c0.1-0.4,0.1-0.8,0.1-1.2c0-0.4,0-0.8,0-1.3c0-0.2,0-0.5,0-0.7c0-0.2,0-0.4,0-0.6c0-0.3,0-0.6,0-0.9c0-0.3,0-0.6-0.1-0.8
			c-0.1-0.3-0.2-0.5-0.3-0.7c-0.2-0.2-0.4-0.4-0.7-0.5c-0.3-0.1-0.5-0.3-0.8-0.4s-0.5-0.4-0.8-0.6c-0.2-0.2-0.4-0.5-0.6-0.8
			c-0.2-0.3-0.3-0.6-0.4-0.9c-0.1-0.4-0.1-0.8-0.1-1.2c0-0.3,0-0.7,0-1.1v-0.7c0-0.3,0-0.6,0-0.9s0-0.6,0.1-0.9
			c0-0.3,0.1-0.6,0.2-0.9s0.2-0.6,0.4-0.9c0.2-0.4,0.5-0.7,0.8-0.9c0.3-0.2,0.6-0.4,0.9-0.5c0.5-0.1,1-0.1,1.5,0.1
			c0.6,0.2,0.9,0.5,1,1c0.1,0.4,0.2,0.9,0.2,1.5v0.2L70.7,27.6z"/>
	</g>
	<g>
		<path class="st1" d="M34.3,55.3c0.3-0.1,0.7-0.1,1-0.2c0.1,0,0.2,0,0.2,0.2s0.1,0.3,0.1,0.4c0,0.2,0,0.3,0,0.5
			c0,0.2-0.1,0.3-0.1,0.3c-0.1,0.1-0.2,0.2-0.4,0.2c-0.1,0-0.3,0.1-0.4,0.1l-3.5,0.9c-0.1,0-0.1,0.2-0.1,0.4c0,0.2,0,0.5,0,0.8v4
			c0,0.1,0,0.2,0,0.4c0,0.2,0,0.3,0,0.5c0,0.2,0,0.3,0,0.4c0,0.1,0,0.1,0,0.1l2.1-0.5c0.1,0,0.2,0,0.2,0.2c0,0.1,0.1,0.3,0.1,0.5
			s0,0.4,0,0.5c0,0.2-0.1,0.2-0.1,0.3c-0.3,0.1-0.6,0.2-1,0.3c-0.3,0.1-0.6,0.2-0.9,0.2c-0.1,0-0.2,0.1-0.3,0.1
			c-0.1,0-0.2,0.1-0.2,0.1c0,0.2,0,0.3,0,0.4c0,0.1,0,0.2,0,0.3c0,0.1,0,0.2,0,0.3v1.9c0,1,0,2,0,3c0,1,0.1,2,0.2,2.9
			c0,0,0,0.1,0.1,0.2c0,0.1,0.1,0.3,0.1,0.4c0,0.1,0,0.3-0.1,0.4c0,0-0.1,0.1-0.2,0.2c-0.1,0.1-0.2,0.1-0.4,0.2
			c-0.1,0.1-0.3,0.1-0.4,0.1c-0.1,0-0.2,0.1-0.3,0.1c-0.1,0-0.2-0.1-0.3-0.3c-0.1-0.2-0.1-0.4-0.2-0.6c0-0.2-0.1-0.5-0.1-0.8
			c0-0.3,0-0.5,0-0.7c0-0.1,0-0.2,0-0.3c0-0.1,0-0.2,0-0.2c0-0.6-0.1-1.2-0.1-1.9c0-0.7,0-1.3,0-1.9c0-0.7,0-1.3,0-2
			c0-0.7,0-1.3,0-2c0-0.6,0-1.2,0-1.9c0-0.6,0-1.2,0-1.8v-3.1c0-0.3,0-0.6,0-1c0-0.4,0.1-0.7,0.3-1c0.2-0.2,0.5-0.4,0.9-0.6
			c0.4-0.1,0.8-0.2,1.1-0.3l1.4-0.4C33.6,55.4,34,55.3,34.3,55.3z"/>
		<path class="st1" d="M41.1,72.5c0,0.3,0,0.5,0,0.6s-0.1,0.3-0.2,0.3c-0.1,0.1-0.2,0.1-0.4,0.2c-0.2,0-0.3,0.1-0.5,0.1
			c-0.2,0.1-0.4,0.1-0.6,0.1c-0.2,0-0.3,0.1-0.5,0.1l-1.3,0.3c-0.1,0-0.1,0-0.2-0.2s-0.1-0.3-0.1-0.5c0-0.2,0-0.3,0-0.5
			s0.1-0.3,0.2-0.3l0.4-0.1c0,0,0.1,0,0.1,0c0,0,0.1,0,0.2-0.1c0,0,0.1-0.2,0.1-0.4c0-0.2,0-0.4,0-0.6v-0.2c0-0.4,0-0.9,0-1.5
			c0-0.5,0-1.1,0-1.7c0-0.5,0-1.1,0-1.7s0-1.1,0-1.5v-9.2c0-0.1,0-0.1-0.1-0.1c-0.1,0-0.2,0-0.3,0c-0.2,0-0.3,0.1-0.5,0.1
			c-0.2,0-0.3-0.1-0.4-0.3c-0.1-0.2-0.1-0.4-0.1-0.6c0-0.1,0.1-0.3,0.2-0.3c0.1-0.1,0.2-0.2,0.4-0.2c0.2-0.1,0.4-0.1,0.6-0.2
			l0.6-0.1c0.3-0.1,0.6-0.1,0.9-0.2c0.3-0.1,0.6-0.1,0.7-0.2l0.2,0c0.2-0.1,0.4-0.1,0.5,0c0.1,0,0.1,0.2,0.1,0.4
			c0,0.4-0.1,0.6-0.3,0.7c-0.2,0.1-0.3,0.2-0.5,0.2c-0.1,0-0.2,0.1-0.2,0.1c-0.1,0-0.1,0.1-0.1,0.2v2c0,1.9,0,3.9,0,5.8s0,3.9,0,5.8
			v1.4c0,0.1,0,0.2,0,0.3c0,0.1,0,0.2,0,0.3v1c0,0.2,0.1,0.3,0.1,0.3c0.1,0,0.2,0,0.5,0c0.2,0,0.3-0.1,0.4,0
			C41,72.2,41.1,72.3,41.1,72.5z"/>
		<path class="st1" d="M47.7,57.4c0,0.1-0.1,0.2-0.2,0.3s-0.3,0.2-0.5,0.2S46.5,58,46.3,58c-0.2,0-0.3-0.1-0.3-0.2
			c0-0.2-0.1-0.5-0.1-0.8c0-0.3,0-0.6,0-0.9v-0.5c0-0.3,0-0.5-0.1-0.8c0-0.3-0.1-0.5-0.2-0.7c-0.1-0.1-0.3-0.2-0.5-0.2
			c-0.2,0-0.4,0.2-0.5,0.4c-0.1,0.1-0.2,0.3-0.2,0.5c-0.1,0.2-0.1,0.5-0.1,0.7c0,0.3-0.1,0.5-0.1,0.8c0,0.3,0,0.6,0,0.9
			c0,0.5,0,0.9,0,1.3c0,0.4,0,0.6,0.1,0.8c0.1,0.3,0.2,0.6,0.3,0.9s0.3,0.5,0.5,0.7l0.2,0.1c0.2,0.1,0.4,0.2,0.7,0.4
			c0.2,0.1,0.4,0.2,0.5,0.3c0.2,0.1,0.4,0.3,0.7,0.6c0.2,0.3,0.4,0.5,0.5,0.8c0.1,0.2,0.2,0.5,0.2,0.9c0,0.4,0.1,0.7,0.1,1.1
			c0,0.2,0,0.5,0,0.7c0,0.2,0,0.4,0,0.6c0,0.1,0,0.2,0,0.3c0,0.1,0,0.2,0,0.3v0.7c0,0.5,0,1-0.1,1.5c0,0.5-0.1,1-0.3,1.5
			c-0.2,0.5-0.4,0.9-0.8,1.2c-0.4,0.4-0.9,0.6-1.5,0.8c-0.1,0-0.2,0-0.3,0.1c-0.1,0-0.3,0-0.5,0.1c-0.2,0-0.3,0-0.5,0
			c-0.2,0-0.3-0.1-0.4-0.2c-0.3-0.3-0.5-0.6-0.6-1c-0.1-0.4-0.1-0.6-0.1-0.9v-0.1c0-0.2,0-0.5,0-0.7s0-0.5,0-0.7v-2.7
			c0-0.2,0-0.4,0-0.6c0-0.1,0-0.3,0.1-0.4c0.1-0.1,0.2-0.2,0.3-0.2c0.1-0.1,0.3-0.1,0.6-0.2c0.4-0.1,0.6,0,0.6,0.3
			c0.1,0.2,0.1,0.6,0,0.9v0.1c0,0.2,0,0.4,0,0.6s0,0.4,0,0.6c0,0.3,0,0.5,0,0.8c0,0.3,0,0.5,0,0.8c0,0.1,0,0.3,0,0.5
			c0,0.2,0,0.3,0,0.5c0,0.2,0.1,0.5,0.2,0.7c0.1,0.2,0.2,0.4,0.4,0.4c0.3,0,0.6-0.2,0.7-0.4c0.2-0.3,0.2-0.5,0.3-0.8
			c0.1-0.4,0.1-0.8,0.1-1.2c0-0.4,0-0.8,0-1.3c0-0.2,0-0.5,0-0.7c0-0.2,0-0.4,0-0.6c0-0.3,0-0.6,0-0.9c0-0.3,0-0.6-0.1-0.8
			s-0.2-0.5-0.3-0.7c-0.2-0.2-0.4-0.4-0.7-0.5c-0.3-0.1-0.5-0.3-0.8-0.4s-0.5-0.4-0.8-0.6c-0.2-0.2-0.4-0.5-0.6-0.8
			c-0.2-0.3-0.3-0.6-0.4-0.9c-0.1-0.4-0.1-0.8-0.1-1.2c0-0.3,0-0.7,0-1.1v-0.7c0-0.3,0-0.6,0-0.9s0-0.6,0.1-0.9
			c0-0.3,0.1-0.6,0.2-0.9s0.2-0.6,0.4-0.9c0.2-0.4,0.5-0.7,0.8-0.9c0.3-0.2,0.6-0.4,0.9-0.5c0.5-0.1,1-0.1,1.5,0.1
			c0.6,0.2,0.9,0.5,1,1c0.1,0.4,0.2,0.9,0.2,1.5v0.2L47.7,57.4z"/>
		<path class="st1" d="M53.3,51.4c0-0.2,0-0.3-0.1-0.5c0-0.1,0.1-0.2,0.2-0.3c0.2-0.1,0.3-0.2,0.5-0.2c0.2,0,0.4-0.1,0.5-0.1
			c0.2,0,0.3,0,0.3,0.1c0.1,0.1,0.1,0.3,0.1,0.5c0,0.2,0,0.4,0,0.5v5.4c0,1.3,0,2.6,0,3.9s0,2.6,0,3.8c0,0.2,0,0.5,0,0.8
			c0,0.3,0,0.6,0.1,1c0,0.3,0.1,0.7,0.1,1c0,0.3,0,0.6,0.1,0.9c0,0,0,0.1,0,0.1c0,0,0,0.1,0,0.1l0.1,0.5c0,0.2,0,0.4,0,0.6
			c0,0.1-0.2,0.3-0.3,0.4c-0.6,0.3-0.9,0.5-1.1,0.3c-0.1-0.1-0.2-0.4-0.3-1l-0.1-0.5c-0.1-0.5-0.1-1.2-0.2-2c0-0.8,0-1.6-0.1-2.4
			c0-0.3,0-0.5,0-0.8s0-0.5,0-0.7c0-0.2,0-0.5,0-0.8s0-0.5,0-0.8c0-0.1,0-0.2-0.1-0.2c-0.1,0-0.2,0-0.4,0c-0.1,0-0.2,0-0.3,0
			s-0.3,0.1-0.5,0.1c-0.2,0-0.3,0.1-0.5,0.1c-0.2,0-0.2,0.1-0.3,0.1c0,0,0,0.2,0,0.4c0,0.2,0,0.4,0,0.5c0,0.1,0,0.1,0,0.2
			c0,0,0,0.1,0,0.1v3.7c0,0.3,0,0.5,0,0.8c0,0.3,0,0.5,0,0.8c0,0.1,0,0.2,0,0.4c0,0.2,0,0.3,0,0.5c0,0.3,0,0.6,0,0.9
			c0,0.3,0,0.6-0.1,0.8c0,0.2-0.1,0.3-0.3,0.3c-0.2,0.1-0.3,0.1-0.4,0.1l-0.2,0.1c-0.2,0-0.3,0.1-0.4,0c-0.1,0-0.2-0.1-0.2-0.3
			c0-0.1,0-0.3,0-0.5c0-0.2,0-0.4,0-0.6c0-0.3,0-0.5,0-0.7c0-0.2,0-0.5,0-0.7c0-0.1,0-0.3,0-0.4c0-0.2,0-0.4,0-0.5s0-0.4,0-0.5
			c0-0.2,0-0.3,0-0.4c0-0.2,0-0.4,0-0.7c0-0.2,0-0.5,0-0.7c0-0.5,0-1.1,0-1.6c0-0.5,0-1.1,0-1.6c0-0.5,0-0.9,0-1.4
			c0-0.4,0-0.9,0-1.3c0-0.6,0-1.3,0-1.9c0-0.6,0-1.2,0-1.9c0-0.2,0-0.5,0-0.9c0-0.4,0-0.8,0-1.1c0-0.3,0-0.6,0-0.8s0-0.5,0-0.7
			c0-0.1,0.1-0.2,0.2-0.3s0.3-0.2,0.5-0.2c0.2-0.1,0.4-0.1,0.5-0.1c0.2,0,0.3,0,0.4,0.1c0,0.1,0.1,0.2,0.1,0.4c0,0.2,0,0.4,0,0.5
			c0,0,0,0.1,0,0.1c0,0.1,0,0.1,0,0.1v5.8c0,0.1,0,0.1,0,0.2s0,0.2,0,0.3v0c0,0.2-0.1,0.5-0.1,0.7c0,0.2,0,0.4,0.1,0.5
			c0.1,0.1,0.2,0.1,0.4,0c0.2,0,0.4-0.1,0.6-0.2c0.1,0,0.1,0,0.2-0.1c0.1,0,0.1,0,0.1,0c0.1,0,0.2,0,0.2,0c0.1,0,0.1,0,0.2,0
			c0.1,0,0.2,0,0.3-0.1c0.1,0,0.1-0.1,0.1-0.2c0-0.2,0-0.4,0-0.7c0-0.2,0-0.5,0-0.7v-6.2C53.3,51.7,53.3,51.6,53.3,51.4z"/>
		<path class="st1" d="M61.7,49.6c0.1,0,0.1,0.1,0.1,0.3c0,0.1,0,0.3-0.1,0.4c0,0.1-0.1,0.2-0.1,0.2l-0.4,2.4
			c-0.1,0.3-0.1,0.6-0.2,0.9c-0.1,0.3-0.1,0.6-0.2,0.9c-0.2,1.2-0.4,2.3-0.5,3.4c-0.1,1.1-0.3,2.3-0.4,3.4c-0.1,1.3-0.3,2.6-0.5,3.9
			c-0.1,0.6-0.2,1.1-0.3,1.7c-0.1,0.6-0.2,1.1-0.3,1.7c0,0,0,0.1,0,0.1c0,0,0,0,0,0.1c-0.1,0.3-0.1,0.4-0.2,0.5
			c-0.1,0.1-0.2,0.2-0.5,0.3c-0.2,0.1-0.5,0.2-0.7,0.2s-0.4-0.1-0.5-0.3c0-0.1,0-0.3,0-0.5c0-0.2,0.1-0.4,0.1-0.7l0.1-0.4
			c0-0.3,0.1-0.6,0.1-0.9c0-0.3,0.1-0.6,0.2-0.9l0.2-1c0.1-0.7,0.2-1.3,0.3-1.9l0.1-1.4c0-0.4,0-0.8,0.1-1.2c0-0.4,0.1-0.8,0.1-1.1
			c0-0.2,0.1-0.5,0.1-0.7c0.1-0.2,0.1-0.5,0.2-0.7l0.2-0.7c0.1-0.6,0.2-1.1,0.3-1.7c0.1-0.6,0.2-1.1,0.3-1.7c0,0,0-0.1,0-0.1
			c0,0,0,0,0-0.1c0.1-0.3,0.1-0.6,0.1-0.8c0-0.3,0.1-0.5,0.1-0.8c0-0.4,0.1-0.8,0.1-1.2s0.1-0.7,0.2-1.1c0-0.1,0.1-0.2,0.2-0.2
			c0.1-0.1,0.3-0.1,0.5-0.2c0.2,0,0.3-0.1,0.5-0.1c0.2,0,0.3,0,0.3,0L61.7,49.6z"/>
	</g>
	<g>
		<path class="st1" d="M18.7,88c0,0.1-0.1,0.2-0.2,0.3s-0.3,0.2-0.5,0.2c-0.2,0-0.4,0.1-0.5,0c-0.2,0-0.2-0.1-0.3-0.1
			c0-0.2-0.1-0.4-0.1-0.7s0-0.6,0-0.8v-0.4c0-0.2,0-0.5,0-0.8c0-0.3-0.1-0.5-0.2-0.7c-0.1-0.1-0.3-0.2-0.5-0.2
			c-0.2,0-0.4,0.2-0.5,0.4c-0.1,0.1-0.1,0.3-0.2,0.5c-0.1,0.2-0.1,0.4-0.1,0.7c0,0.2-0.1,0.5-0.1,0.8c0,0.3,0,0.6,0,0.8
			c0,0.4,0,0.8,0,1.2s0,0.6,0.1,0.7c0,0.3,0.1,0.6,0.3,0.9s0.3,0.5,0.5,0.6l0.2,0.1c0.2,0.1,0.4,0.2,0.6,0.3
			c0.2,0.1,0.4,0.2,0.5,0.3c0.2,0.1,0.4,0.3,0.6,0.6c0.2,0.3,0.4,0.5,0.5,0.7c0.1,0.2,0.1,0.5,0.2,0.8c0,0.3,0.1,0.7,0.1,1.1
			c0,0.2,0,0.4,0,0.6s0,0.4,0,0.6c0,0.1,0,0.2,0,0.3c0,0.1,0,0.2,0,0.2v0.6c0,0.5,0,0.9,0,1.4c0,0.5-0.1,0.9-0.3,1.4
			s-0.4,0.8-0.7,1.1c-0.3,0.3-0.8,0.6-1.4,0.7c0,0-0.1,0-0.3,0.1c-0.1,0-0.3,0-0.4,0.1s-0.3,0-0.4,0s-0.3-0.1-0.4-0.2
			c-0.3-0.3-0.5-0.6-0.5-0.9c-0.1-0.3-0.1-0.6-0.1-0.8v-0.1c0-0.2,0-0.4,0-0.7s0-0.5,0-0.7v-2.5c0-0.2,0-0.4,0-0.5
			c0-0.1,0-0.3,0.1-0.3c0.1-0.1,0.2-0.2,0.3-0.2c0.1-0.1,0.3-0.1,0.5-0.1c0.3-0.1,0.5,0,0.6,0.2c0.1,0.2,0.1,0.5,0,0.9v0.1
			c0,0.2,0,0.4,0,0.5s0,0.4,0,0.6c0,0.3,0,0.5,0,0.7s0,0.5,0,0.7c0,0.1,0,0.3,0,0.4c0,0.1,0,0.3,0,0.4c0,0.2,0.1,0.4,0.2,0.7
			c0.1,0.2,0.2,0.4,0.4,0.4c0.3,0,0.5-0.2,0.7-0.4c0.1-0.2,0.2-0.5,0.3-0.8c0.1-0.4,0.1-0.8,0.1-1.2c0-0.4,0-0.8,0-1.2
			c0-0.2,0-0.4,0-0.6c0-0.2,0-0.4,0-0.6c0-0.3,0-0.6,0-0.9c0-0.3,0-0.5-0.1-0.8c-0.1-0.2-0.2-0.5-0.3-0.6c-0.1-0.2-0.3-0.3-0.6-0.5
			c-0.2-0.1-0.5-0.2-0.8-0.4c-0.3-0.2-0.5-0.3-0.7-0.6c-0.2-0.2-0.4-0.4-0.6-0.7c-0.2-0.3-0.3-0.6-0.3-0.9c-0.1-0.4-0.1-0.8-0.1-1.1
			c0-0.3,0-0.7,0-1v-0.7c0-0.3,0-0.5,0-0.8s0-0.6,0.1-0.9c0-0.3,0.1-0.6,0.2-0.9c0.1-0.3,0.2-0.6,0.4-0.8c0.2-0.3,0.5-0.6,0.8-0.8
			c0.3-0.2,0.6-0.4,0.9-0.4c0.5-0.1,1-0.1,1.4,0.1c0.5,0.2,0.8,0.5,0.9,0.9c0.1,0.4,0.1,0.9,0.2,1.4v0.2L18.7,88z"/>
		<path class="st1" d="M24,82.4c0-0.1,0-0.3-0.1-0.5c0-0.1,0.1-0.2,0.2-0.3c0.1-0.1,0.3-0.2,0.5-0.2c0.2,0,0.3-0.1,0.5-0.1
			c0.2,0,0.3,0,0.3,0.1c0.1,0.1,0.1,0.2,0.1,0.5c0,0.2,0,0.4,0,0.5v5.1c0,1.2,0,2.4,0,3.6c0,1.2,0,2.4,0,3.6c0,0.2,0,0.5,0,0.8
			c0,0.3,0,0.6,0.1,0.9s0.1,0.6,0.1,0.9c0,0.3,0,0.6,0.1,0.8c0,0,0,0.1,0,0.1c0,0,0,0.1,0,0.1l0,0.5c0,0.2,0,0.4,0,0.5
			c0,0.1-0.1,0.2-0.3,0.4c-0.5,0.3-0.9,0.4-1,0.3c-0.1-0.1-0.2-0.4-0.2-0.9l0-0.4c-0.1-0.5-0.1-1.1-0.2-1.9s0-1.5,0-2.2
			c0-0.3,0-0.5,0-0.8c0-0.2,0-0.5,0-0.7c0-0.2,0-0.5,0-0.7s0-0.5,0-0.7c0-0.1,0-0.2-0.1-0.2c0,0-0.2,0-0.3,0c-0.1,0-0.2,0-0.3,0
			c-0.1,0-0.3,0.1-0.4,0.1c-0.2,0-0.3,0.1-0.5,0.1c-0.1,0-0.2,0.1-0.3,0.1c0,0,0,0.2,0,0.3c0,0.2,0,0.4,0,0.5c0,0.1,0,0.1,0,0.2
			c0,0,0,0.1,0,0.1v3.4c0,0.2,0,0.5,0,0.7c0,0.3,0,0.5,0,0.7c0,0.1,0,0.2,0,0.4c0,0.1,0,0.3,0,0.4c0,0.3,0,0.6,0,0.9
			c0,0.3,0,0.5-0.1,0.8c0,0.1-0.1,0.3-0.3,0.3s-0.3,0.1-0.4,0.1l-0.2,0.1c-0.1,0-0.3,0.1-0.4,0c-0.1,0-0.2-0.1-0.2-0.3
			c0-0.1,0-0.3,0-0.5c0-0.2,0-0.4,0-0.6c0-0.2,0-0.5,0-0.7c0-0.2,0-0.4,0-0.6c0-0.1,0-0.2,0-0.4s0-0.3,0-0.5s0-0.3,0-0.5
			s0-0.3,0-0.4c0-0.2,0-0.4,0-0.6s0-0.5,0-0.7c0-0.5,0-1,0-1.5c0-0.5,0-1,0-1.5c0-0.4,0-0.9,0-1.3c0-0.4,0-0.8,0-1.2
			c0-0.6,0-1.2,0-1.8c0-0.6,0-1.2,0-1.8c0-0.2,0-0.5,0-0.9c0-0.4,0-0.7,0-1.1c0-0.3,0-0.5,0-0.8s0-0.5,0-0.7c0-0.1,0.1-0.2,0.2-0.3
			c0.1-0.1,0.3-0.2,0.5-0.2c0.2-0.1,0.3-0.1,0.5-0.1c0.2,0,0.3,0,0.3,0.1c0,0.1,0.1,0.2,0.1,0.4c0,0.2,0,0.4,0,0.5c0,0,0,0.1,0,0.1
			s0,0.1,0,0.1v5.4c0,0.1,0,0.1,0,0.2s0,0.2,0,0.3v0c0,0.2-0.1,0.5-0.1,0.7c0,0.2,0,0.4,0.1,0.4c0.1,0.1,0.2,0.1,0.4,0
			c0.2,0,0.4-0.1,0.5-0.2c0.1,0,0.1,0,0.2-0.1s0.1,0,0.1,0c0.1,0,0.2,0,0.2,0s0.1,0,0.2,0c0.1,0,0.2,0,0.3-0.1
			c0.1,0,0.1-0.1,0.1-0.2c0-0.2,0-0.4,0-0.6c0-0.2,0-0.4,0-0.7v-5.8C24,82.7,24,82.5,24,82.4z"/>
		<path class="st1" d="M29.5,97.5c0.1,0,0.1,0,0.3-0.1s0.3-0.1,0.4-0.1s0.3-0.1,0.4-0.1c0.2,0,0.3-0.1,0.4-0.1v-0.1
			c0.1,0,0.2,0,0.2,0c0.1,0,0.2,0,0.2,0c0.1,0,0.2-0.1,0.3-0.1c0.1,0,0.2-0.1,0.4-0.1c0.1,0,0.1,0.1,0.1,0.2c0,0.1,0,0.3,0,0.4
			c0,0.2,0,0.3-0.1,0.4c0,0.1-0.1,0.2-0.1,0.2c-0.2,0.1-0.5,0.1-0.8,0.2c-0.3,0.1-0.5,0.1-0.7,0.2c-0.1,0-0.3,0.1-0.6,0.1
			c-0.3,0.1-0.5,0.1-0.8,0.2l-1.2,0.3c-0.1,0-0.3,0-0.3-0.1c-0.1-0.1-0.1-0.3-0.2-0.5c0-0.2,0-0.4,0-0.7c0-0.2,0-0.5,0-0.7v-0.3
			c0-0.1,0-0.2,0-0.4s0-0.3,0-0.4c0-0.1,0-0.2,0-0.4s0-0.3,0-0.4c0-0.8,0-1.6,0-2.6c0-0.9,0-1.8,0-2.6c0-0.6,0-1.2,0-1.8
			c0-0.6,0-1.2,0-1.8c0-0.8,0-1.5,0-2.2c0-0.7,0-1.4,0-2.2c0-0.1,0-0.1,0-0.1c0,0,0-0.1,0-0.1c0-0.2,0-0.4,0-0.6
			c0-0.2,0.1-0.4,0.2-0.5v0c0.1-0.1,0.2-0.1,0.4-0.2c0.1,0,0.3-0.1,0.4-0.1c0,0,0.1,0,0.1,0c0.1,0,0.1,0,0.1,0l3.5-0.9
			c0.1,0,0.1,0,0.1,0.2s0,0.3,0,0.5c0,0.2,0,0.3,0,0.5s-0.1,0.2-0.1,0.2c-0.3,0.1-0.6,0.2-1,0.2s-0.7,0.2-1.1,0.3
			c-0.2,0.1-0.4,0.1-0.6,0.2c-0.2,0-0.3,0.1-0.4,0.1c0,0-0.1,0.1-0.1,0.2c0,0.1,0,0.3,0,0.4c0,0.2,0,0.4,0,0.5c0,0.2,0,0.4,0,0.5
			c0,0.1,0,0.2,0,0.2s0,0.1,0,0.2c0,0.3,0,0.6,0,0.9c0,0.3,0,0.6,0,0.8v1.7c0,0.1,0,0.2,0,0.4c0,0.2,0,0.3,0,0.3c0,0,0.2,0,0.4-0.1
			c0.2-0.1,0.5-0.1,0.6-0.2l0.4-0.1c0.2,0,0.4-0.1,0.5-0.1c0.2,0,0.2,0,0.2,0.2c0,0,0,0.1,0,0.3s0,0.3,0,0.4c0,0.1-0.1,0.2-0.2,0.3
			c-0.1,0.1-0.2,0.1-0.3,0.1c-0.2,0.1-0.5,0.1-0.9,0.2c-0.4,0.1-0.7,0.2-0.8,0.2c0,0,0,0.1,0,0.2c0,0.1,0,0.2,0,0.3v4.2
			c0,0.2,0,0.4,0,0.8c0,0.4,0,0.8,0,1.2c0,0.4,0,0.7,0,1C29.4,97.4,29.4,97.5,29.5,97.5z"/>
		<path class="st1" d="M34.1,81.6c0-0.3,0-0.7,0-1s-0.1-0.6-0.2-0.9c0-0.1,0.1-0.2,0.2-0.3s0.3-0.2,0.4-0.3c0.2-0.1,0.3-0.1,0.5-0.2
			c0.1,0,0.3-0.1,0.4,0c0,0,0.1,0.1,0.1,0.3c0,0.1,0.1,0.3,0.1,0.4c0,0.2,0,0.3,0.1,0.5c0,0.2,0,0.3,0,0.5v14.8c0,0.1,0,0.2,0,0.3
			c0,0.1,0,0.2,0,0.4c0.2,0,0.4-0.1,0.5-0.1c0.1,0,0.3-0.1,0.4-0.1l1-0.3c0,0,0.1,0,0.1,0c0,0,0.1,0,0.1,0c0.2-0.1,0.4-0.1,0.7-0.2
			c0.3-0.1,0.5-0.1,0.6-0.1c0.1,0,0.2,0.1,0.3,0.2s0.1,0.3,0.1,0.5c0,0.2,0,0.3-0.1,0.5s-0.1,0.2-0.1,0.2l-0.8,0.2
			c-0.2,0.1-0.5,0.1-0.7,0.2s-0.5,0.1-0.7,0.2L36,97.4c-0.5,0.1-1,0.2-1.3,0.2c-0.4,0-0.6,0-0.6-0.1c0-0.3,0-0.7,0-1.1
			c0-0.4,0-0.8,0-1.1c0-0.3,0-0.5,0-0.8c0-0.3,0-0.5,0-0.8c0-0.3,0-0.7,0-1c0-0.3,0-0.7,0-1c0-0.5,0-1,0-1.4c0-0.5,0-0.9,0-1.4
			c0-0.5,0-1,0-1.4c0-0.5,0-1,0-1.5v-1.6c0-0.3,0-0.7,0-1s0-0.8,0-1.2V81.6z"/>
		<path class="st1" d="M40.8,80c0-0.3,0-0.7,0-1s-0.1-0.6-0.2-0.9c0-0.1,0.1-0.2,0.2-0.3s0.3-0.2,0.4-0.3c0.2-0.1,0.3-0.1,0.5-0.2
			c0.1,0,0.3-0.1,0.4,0c0,0,0.1,0.1,0.1,0.3c0,0.1,0.1,0.3,0.1,0.4c0,0.2,0,0.3,0.1,0.5c0,0.2,0,0.3,0,0.5v14.8c0,0.1,0,0.2,0,0.3
			c0,0.1,0,0.2,0,0.4c0.2,0,0.4-0.1,0.5-0.1c0.1,0,0.3-0.1,0.4-0.1l1-0.3c0,0,0.1,0,0.1,0c0,0,0.1,0,0.1,0c0.2-0.1,0.4-0.1,0.7-0.2
			c0.3-0.1,0.5-0.1,0.6-0.1c0.1,0,0.2,0.1,0.3,0.2s0.1,0.3,0.1,0.5c0,0.2,0,0.3-0.1,0.5s-0.1,0.2-0.1,0.2l-0.8,0.2
			c-0.2,0.1-0.5,0.1-0.7,0.2s-0.5,0.1-0.7,0.2l-0.9,0.2c-0.5,0.1-1,0.2-1.3,0.2c-0.4,0-0.6,0-0.6-0.1c0-0.3,0-0.7,0-1.1
			c0-0.4,0-0.8,0-1.1c0-0.3,0-0.5,0-0.8c0-0.3,0-0.5,0-0.8c0-0.3,0-0.7,0-1c0-0.3,0-0.7,0-1c0-0.5,0-1,0-1.4c0-0.5,0-0.9,0-1.4
			c0-0.5,0-1,0-1.4c0-0.5,0-1,0-1.5v-1.6c0-0.3,0-0.7,0-1s0-0.8,0-1.2V80z"/>
		<path class="st1" d="M52,74.7c0.3-0.1,0.6-0.1,0.9-0.2c0.1,0,0.2,0,0.2,0.2c0,0.1,0.1,0.2,0.1,0.4c0,0.1,0,0.3,0,0.4
			c0,0.1-0.1,0.2-0.1,0.3C53,75.9,52.9,76,52.8,76c-0.1,0-0.3,0.1-0.4,0.1l-3.3,0.8c-0.1,0-0.1,0.1-0.1,0.4c0,0.2,0,0.5,0,0.7v3.8
			c0,0.1,0,0.2,0,0.4c0,0.1,0,0.3,0,0.4s0,0.3,0,0.4c0,0.1,0,0.1,0,0.1l2-0.5c0.1,0,0.1,0,0.2,0.2c0,0.1,0.1,0.3,0.1,0.4
			c0,0.2,0,0.3,0,0.5c0,0.1-0.1,0.2-0.1,0.3c-0.3,0.1-0.6,0.2-0.9,0.3c-0.3,0.1-0.6,0.2-0.8,0.2c-0.1,0-0.2,0.1-0.3,0.1
			c-0.1,0-0.1,0-0.2,0.1c0,0.2,0,0.3,0,0.4s0,0.2,0,0.3c0,0.1,0,0.2,0,0.3v1.8c0,0.9,0,1.8,0,2.8c0,0.9,0.1,1.9,0.2,2.7
			c0,0,0,0.1,0,0.2c0,0.1,0.1,0.3,0.1,0.4c0,0.1,0,0.3-0.1,0.4c0,0-0.1,0.1-0.2,0.2s-0.2,0.1-0.4,0.2c-0.1,0.1-0.3,0.1-0.4,0.1
			S48,94.3,48,94.4c-0.1,0-0.2-0.1-0.3-0.3c-0.1-0.2-0.1-0.4-0.2-0.6c0-0.2-0.1-0.5-0.1-0.7c0-0.3,0-0.5,0-0.7c0-0.1,0-0.2,0-0.3
			c0-0.1,0-0.1,0-0.2c0-0.6-0.1-1.2-0.1-1.8c0-0.6,0-1.2,0-1.8c0-0.6,0-1.2,0-1.8c0-0.6,0-1.2,0-1.8c0-0.6,0-1.2,0-1.7
			c0-0.6,0-1.1,0-1.7v-2.9c0-0.3,0-0.6,0-1c0-0.4,0.1-0.7,0.3-0.9c0.2-0.2,0.5-0.4,0.9-0.5c0.4-0.1,0.8-0.2,1.1-0.3l1.3-0.3
			C51.4,74.8,51.7,74.8,52,74.7z"/>
		<path class="st1" d="M58.4,90.8c0,0.2,0,0.4,0,0.6c0,0.1-0.1,0.2-0.2,0.3s-0.2,0.1-0.4,0.2c-0.1,0-0.3,0.1-0.5,0.1
			c-0.2,0.1-0.4,0.1-0.6,0.1c-0.2,0-0.3,0.1-0.4,0.1l-1.2,0.3c-0.1,0-0.1,0-0.2-0.2c0-0.1-0.1-0.3-0.1-0.4c0-0.2,0-0.3,0-0.5
			c0-0.2,0.1-0.2,0.2-0.3l0.4-0.1c0,0,0.1,0,0.1,0s0.1,0,0.2-0.1c0,0,0.1-0.2,0.1-0.3c0-0.2,0-0.4,0-0.6v-0.2c0-0.4,0-0.9,0-1.4
			c0-0.5,0-1,0-1.6c0-0.5,0-1,0-1.6c0-0.6,0-1.1,0-1.4v-8.6c0-0.1,0-0.1-0.1-0.1c-0.1,0-0.1,0-0.2,0c-0.1,0-0.3,0.1-0.5,0.1
			c-0.2,0-0.3-0.1-0.4-0.3c-0.1-0.2-0.1-0.4-0.1-0.5s0.1-0.2,0.2-0.3c0.1-0.1,0.2-0.1,0.4-0.2c0.2,0,0.3-0.1,0.5-0.1l0.5-0.1
			c0.2-0.1,0.5-0.1,0.8-0.2c0.3-0.1,0.5-0.1,0.7-0.2l0.2,0c0.2,0,0.3-0.1,0.4,0c0.1,0,0.1,0.2,0.1,0.4c0,0.3-0.1,0.6-0.2,0.7
			c-0.1,0.1-0.3,0.2-0.5,0.2c-0.1,0-0.2,0-0.2,0.1c-0.1,0-0.1,0.1-0.1,0.1v1.9c0,1.8,0,3.6,0,5.5c0,1.8,0,3.6,0,5.5v1.3
			c0,0.1,0,0.2,0,0.2c0,0.1,0,0.2,0,0.2v0.9c0,0.2,0.1,0.3,0.1,0.3c0.1,0,0.2,0,0.4,0c0.2,0,0.3-0.1,0.4,0
			C58.3,90.5,58.4,90.6,58.4,90.8z"/>
		<path class="st1" d="M64.6,76.7c0,0.1-0.1,0.2-0.2,0.3s-0.3,0.2-0.5,0.2s-0.4,0.1-0.5,0s-0.2-0.1-0.3-0.1c0-0.2-0.1-0.4-0.1-0.7
			s0-0.6,0-0.8v-0.4c0-0.2,0-0.5,0-0.8c0-0.3-0.1-0.5-0.2-0.7c-0.1-0.1-0.3-0.2-0.5-0.2c-0.2,0-0.4,0.2-0.5,0.4
			c-0.1,0.1-0.1,0.3-0.2,0.5s-0.1,0.4-0.1,0.7c0,0.2-0.1,0.5-0.1,0.8c0,0.3,0,0.6,0,0.8c0,0.4,0,0.8,0,1.2s0,0.6,0.1,0.7
			c0,0.3,0.1,0.6,0.3,0.9s0.3,0.5,0.5,0.6l0.2,0.1c0.2,0.1,0.4,0.2,0.6,0.3c0.2,0.1,0.4,0.2,0.5,0.3c0.2,0.1,0.4,0.3,0.6,0.6
			c0.2,0.3,0.4,0.5,0.5,0.7c0.1,0.2,0.1,0.5,0.2,0.8c0,0.3,0.1,0.7,0.1,1.1c0,0.2,0,0.4,0,0.6s0,0.4,0,0.6c0,0.1,0,0.2,0,0.3
			c0,0.1,0,0.2,0,0.2v0.6c0,0.5,0,0.9,0,1.4c0,0.5-0.1,0.9-0.3,1.4c-0.2,0.4-0.4,0.8-0.7,1.1c-0.3,0.3-0.8,0.6-1.4,0.7
			c0,0-0.1,0-0.3,0.1c-0.1,0-0.3,0-0.4,0.1s-0.3,0-0.4,0s-0.3-0.1-0.4-0.2c-0.3-0.3-0.5-0.6-0.5-0.9c-0.1-0.3-0.1-0.6-0.1-0.8v-0.1
			c0-0.2,0-0.4,0-0.7c0-0.3,0-0.5,0-0.7v-2.5c0-0.2,0-0.4,0-0.5c0-0.1,0-0.3,0.1-0.3c0.1-0.1,0.2-0.2,0.3-0.2
			c0.1-0.1,0.3-0.1,0.5-0.1c0.3-0.1,0.5,0,0.6,0.2c0.1,0.2,0.1,0.5,0,0.9v0.1c0,0.2,0,0.4,0,0.5s0,0.4,0,0.6c0,0.3,0,0.5,0,0.7
			c0,0.2,0,0.5,0,0.7c0,0.1,0,0.3,0,0.4c0,0.1,0,0.3,0,0.4c0,0.2,0.1,0.4,0.2,0.7c0.1,0.2,0.2,0.4,0.4,0.4c0.3,0,0.5-0.2,0.7-0.4
			c0.1-0.2,0.2-0.5,0.3-0.8c0.1-0.4,0.1-0.8,0.1-1.2c0-0.4,0-0.8,0-1.2c0-0.2,0-0.4,0-0.6c0-0.2,0-0.4,0-0.6c0-0.3,0-0.6,0-0.9
			c0-0.3,0-0.5-0.1-0.8c-0.1-0.2-0.2-0.5-0.3-0.6c-0.1-0.2-0.3-0.3-0.6-0.5c-0.2-0.1-0.5-0.2-0.8-0.4c-0.3-0.2-0.5-0.3-0.7-0.6
			c-0.2-0.2-0.4-0.4-0.6-0.7c-0.2-0.3-0.3-0.6-0.3-0.9c-0.1-0.4-0.1-0.8-0.1-1.1c0-0.3,0-0.7,0-1v-0.7c0-0.3,0-0.5,0-0.8
			s0-0.6,0.1-0.9c0-0.3,0.1-0.6,0.2-0.9c0.1-0.3,0.2-0.6,0.4-0.8c0.2-0.3,0.5-0.6,0.8-0.8c0.3-0.2,0.6-0.4,0.9-0.4
			c0.5-0.1,1-0.1,1.4,0.1c0.5,0.2,0.8,0.5,0.9,0.9c0.1,0.4,0.1,0.9,0.2,1.4v0.2L64.6,76.7z"/>
		<path class="st1" d="M69.9,71.1c0-0.1,0-0.3-0.1-0.5c0-0.1,0.1-0.2,0.2-0.3c0.1-0.1,0.3-0.2,0.5-0.2c0.2,0,0.3-0.1,0.5-0.1
			c0.2,0,0.3,0,0.3,0.1c0.1,0.1,0.1,0.2,0.1,0.5c0,0.2,0,0.4,0,0.5v5.1c0,1.2,0,2.4,0,3.6c0,1.2,0,2.4,0,3.6c0,0.2,0,0.5,0,0.8
			c0,0.3,0,0.6,0.1,0.9s0.1,0.6,0.1,0.9c0,0.3,0,0.6,0.1,0.8c0,0,0,0.1,0,0.1c0,0,0,0.1,0,0.1l0,0.5c0,0.2,0,0.4,0,0.5
			c0,0.1-0.1,0.2-0.3,0.4c-0.5,0.3-0.9,0.4-1,0.3c-0.1-0.1-0.2-0.4-0.2-0.9l0-0.4c-0.1-0.5-0.1-1.1-0.2-1.9s0-1.5,0-2.2
			c0-0.3,0-0.5,0-0.8c0-0.2,0-0.5,0-0.7c0-0.2,0-0.5,0-0.7s0-0.5,0-0.7c0-0.1,0-0.2-0.1-0.2c0,0-0.2,0-0.3,0c-0.1,0-0.2,0-0.3,0
			c-0.1,0-0.3,0.1-0.4,0.1c-0.2,0-0.3,0.1-0.5,0.1c-0.1,0-0.2,0.1-0.3,0.1c0,0,0,0.2,0,0.3c0,0.2,0,0.4,0,0.5c0,0.1,0,0.1,0,0.2
			c0,0,0,0.1,0,0.1v3.4c0,0.2,0,0.5,0,0.7c0,0.3,0,0.5,0,0.7c0,0.1,0,0.2,0,0.4c0,0.1,0,0.3,0,0.4c0,0.3,0,0.6,0,0.9
			c0,0.3,0,0.5-0.1,0.8c0,0.1-0.1,0.3-0.3,0.3s-0.3,0.1-0.4,0.1l-0.2,0.1c-0.1,0-0.3,0.1-0.4,0c-0.1,0-0.2-0.1-0.2-0.3
			c0-0.1,0-0.3,0-0.5c0-0.2,0-0.4,0-0.6c0-0.2,0-0.5,0-0.7c0-0.2,0-0.4,0-0.6c0-0.1,0-0.2,0-0.4s0-0.3,0-0.5s0-0.3,0-0.5
			s0-0.3,0-0.4c0-0.2,0-0.4,0-0.6s0-0.5,0-0.7c0-0.5,0-1,0-1.5c0-0.5,0-1,0-1.5c0-0.4,0-0.9,0-1.3c0-0.4,0-0.8,0-1.2
			c0-0.6,0-1.2,0-1.8c0-0.6,0-1.2,0-1.8c0-0.2,0-0.5,0-0.9c0-0.4,0-0.7,0-1.1c0-0.3,0-0.5,0-0.8s0-0.5,0-0.7c0-0.1,0.1-0.2,0.2-0.3
			c0.1-0.1,0.3-0.2,0.5-0.2c0.2-0.1,0.3-0.1,0.5-0.1c0.2,0,0.3,0,0.3,0.1c0,0.1,0.1,0.2,0.1,0.4c0,0.2,0,0.4,0,0.5c0,0,0,0.1,0,0.1
			s0,0.1,0,0.1v5.4c0,0.1,0,0.1,0,0.2s0,0.2,0,0.3v0c0,0.2-0.1,0.5-0.1,0.7c0,0.2,0,0.4,0.1,0.4c0.1,0.1,0.2,0.1,0.4,0
			c0.2,0,0.4-0.1,0.5-0.2c0.1,0,0.1,0,0.2-0.1s0.1,0,0.1,0c0.1,0,0.2,0,0.2,0s0.1,0,0.2,0c0.1,0,0.2,0,0.3-0.1
			c0.1,0,0.1-0.1,0.1-0.2c0-0.2,0-0.4,0-0.6c0-0.2,0-0.4,0-0.7v-5.8C69.9,71.4,69.9,71.2,69.9,71.1z"/>
	</g>
	<path class="st2" d="M11.9,70.6C11.9,70.6,11.9,70.6,11.9,70.6L11.9,70.6z"/>
	<path class="st2" d="M17.8,68.5C17.8,68.5,17.8,68.5,17.8,68.5C17.8,68.5,17.8,68.5,17.8,68.5L17.8,68.5z"/>
	<path class="st2" d="M18.8,68.4L18.8,68.4C18.8,68.4,18.8,68.4,18.8,68.4z"/>
	<path class="st2" d="M15.6,69.4C15.6,69.4,15.6,69.4,15.6,69.4C15.6,69.4,15.6,69.4,15.6,69.4z"/>
	<path class="st2" d="M10.2,71C10.2,71,10.2,71,10.2,71C10.2,71,10.2,71,10.2,71L10.2,71z"/>
	<path class="st2" d="M10.2,71C10.2,71,10.2,71,10.2,71C10.3,71.1,10.3,71.1,10.2,71C10.3,71,10.2,71,10.2,71z"/>
	<path class="st2" d="M6.8,71.5L6.8,71.5C6.8,71.5,6.8,71.5,6.8,71.5z"/>
	<path class="st2" d="M16.5,70.9C16.5,70.9,16.5,70.9,16.5,70.9C16.5,70.9,16.5,70.9,16.5,70.9z"/>
	<path class="st2" d="M7.3,71.4L7.3,71.4C7.3,71.4,7.3,71.4,7.3,71.4z"/>
	<path class="st2" d="M17.8,68.4L17.8,68.4C17.8,68.4,17.8,68.4,17.8,68.4z"/>
	<path class="st2" d="M19.8,68.2C19.8,68.2,19.8,68.2,19.8,68.2L19.8,68.2L19.8,68.2z"/>
	<path class="st2" d="M24.8,68.1L24.8,68.1L24.8,68.1C24.8,68.1,24.8,68.1,24.8,68.1z"/>
	<path class="st2" d="M21.2,68.2C21.2,68.2,21.2,68.2,21.2,68.2c0,0-0.1,0-0.2,0l0,0.1L21.2,68.2z"/>
	<path class="st2" d="M23.2,69.4L23,69.3c0.4-0.2,0.7-0.1,1-0.3l0,0c0.1,0,0-0.3,0.7-0.1l0,0c0,0,0,0,0.1,0l-0.1-0.1
		c0,0,0.1-0.1,0.2-0.1c0,0,0,0,0.1,0.1l0.2-0.1l0.1,0.1c0-0.1-0.1-0.2,0.1-0.2c-0.1-0.1,0.1-0.1,0-0.1c0,0,0,0,0.1,0.1
		c0.1,0,0.3-0.1,0.3-0.2c0,0-0.5-0.2-0.6-0.3c0.2,0,0,0,0-0.1l0,0c-0.1,0-0.1-0.1-0.2-0.1c0,0,0,0,0,0l0,0c0,0,0,0,0,0c0,0,0,0,0,0
		l0,0c0,0-0.1,0-0.1,0l0-0.1c0,0.1-0.5-0.1-0.6-0.1c-0.1-0.1-0.2,0.1-0.3,0c-0.2,0-0.1-0.1-0.2-0.1c-0.1,0,0.1,0.1,0,0.1l-0.2-0.1
		c0.1,0,0-0.1,0-0.1c-0.1,0-0.3-0.1-0.3,0.1c-0.2,0-0.2-0.1-0.3-0.1c0,0,0.1,0,0.1,0.1c-0.1,0,0,0,0,0c-0.1,0.1-0.6-0.1-0.5,0l0,0
		c0,0.1,0.1,0.2,0.1,0.3l-0.1,0l0,0.1c-0.1,0,0-0.1-0.1-0.1c-0.1,0.1-0.2,0-0.4,0.1l0.3,0.3c-0.1,0-0.4-0.1-0.4,0l-0.1-0.1
		c-0.3-0.1-0.1,0.1-0.2,0.1l-0.1-0.1l0.1,0c-0.1,0-0.2-0.1-0.3-0.1l0,0c0,0,0,0,0,0l0,0c0,0.1,0,0.1-0.1,0.1c-0.1,0-0.2,0.1-0.4,0
		l0,0.1l-0.2,0l0-0.1c0.1,0,0.3-0.1,0.5-0.1l0,0c-0.1,0-0.2,0.1-0.3,0.1c0,0-0.2-0.1-0.1-0.2l0,0.1c-0.3,0.1-0.3,0.1-0.7,0l0,0
		c-0.1,0-0.1,0.1-0.2,0c-0.2,0-0.4,0-0.6-0.1l0,0.1c0,0-0.2-0.1-0.1,0L19,68.4c-0.1,0-0.1,0.1-0.2,0l0,0l0,0l0,0l0,0
		c-0.1,0,0,0.1-0.1,0.1c-0.1-0.1,0,0.1-0.1,0.1l-0.1-0.1c-0.2,0-0.1,0.1-0.3,0.1c-0.1,0-0.2-0.1-0.2-0.3c0,0.2,0,0.1-0.1,0.2
		c0,0,0-0.1,0-0.1c-0.1,0,0,0.1-0.1,0.1c0,0.1,0.1,0.3,0.1,0.3l0,0c0,0.1-0.1,0.1-0.2,0.1l0-0.1l-0.1,0.1l0-0.1l-0.1,0.1l0,0
		c0,0-0.1,0.1-0.2,0.1l0,0c-0.2-0.1-0.3,0.1-0.5,0.2l0-0.1c-0.1-0.1,0,0.1-0.1,0.1l0-0.1c0,0.1-0.1,0-0.2,0l0.1,0.1l-0.1,0
		c-0.1,0-0.1-0.1-0.2-0.2l0,0.1L16.2,69c0,0.1-0.1,0-0.1,0.1c0,0,0-0.1-0.1-0.1L16,69.2l0.1-0.1l0.1,0.2c0,0.1-0.1,0-0.2,0.1l0-0.1
		c-0.1,0.1-0.1,0-0.2,0c0,0,0.1,0.1,0,0.1c0,0,0,0-0.1-0.1c0,0.1,0,0.2-0.1,0.2c0,0,0,0,0,0c0,0,0,0.1,0,0l0-0.1l0,0.1
		c-0.1,0-0.1,0.1-0.1,0l0,0l-0.3,0.1l0-0.1c0,0.1-0.2,0-0.1,0.2c-0.1-0.1-0.2,0.1-0.2-0.1c-0.2,0.1-0.2,0.2-0.5,0.2
		c-0.2-0.1-0.3,0-0.5,0c-0.2,0.2-0.4,0.3-0.7,0.4c-0.3-0.1-0.4,0.2-0.6,0.2l0,0.1c-0.2-0.1-0.3,0.1-0.5,0c0,0,0,0.1-0.1,0.1
		c0,0,0,0,0.1,0.1c-0.1,0-0.1,0.1-0.2-0.1l0,0c0-0.1-0.1,0.1-0.2,0l0.1,0.1l-0.1,0l0,0c-0.3,0.3-0.6,0-0.9,0.3
		c0-0.1-0.1,0.1-0.1-0.1c-0.2-0.2-0.2,0.1-0.2,0.1c0,0,0,0,0,0l-0.2,0c0-0.2-0.1,0.2,0,0c-0.4-0.1-0.9,0.1-1.4,0.1l0,0
		c-0.1,0-0.2,0.1-0.4,0c-0.1-0.1-0.2,0.1-0.2,0.1C8.1,71.4,8,71.3,8,71.3c-0.1,0-0.1,0.2-0.3,0.1c-0.1-0.1-0.3,0.2-0.4,0l0,0
		c-0.2-0.1-0.3,0.1-0.6,0.1c0,0,0,0,0,0l-0.2,0.6l0.3,0.5l0.5,0.4c0.3-0.1,0.6-0.2,0.9-0.2l0.8,0.1c0.6-0.1,1.2-0.1,1.9-0.2l0.1-0.1
		c0.5,0.2,0.8-0.2,1.3-0.1l0-0.1c0.1,0,0.1,0,0.2,0c1-0.3,1.9-0.8,2.8-0.9c0.1,0,0.3-0.1,0.4,0c0.2-0.2,0.5-0.3,0.8-0.4l0,0l0.1-0.1
		c0,0,0,0,0,0c0.1-0.1,0.4-0.1,0.6-0.1l0,0c1-0.3,1.9-0.8,3-0.9c0.6,0.1,1-0.3,1.7-0.2C22,69.8,23.1,69.4,23.2,69.4z"/>
	<path class="st2" d="M24.8,68.8L24.8,68.8C24.9,68.9,24.9,68.9,24.8,68.8z"/>
	<polygon class="st2" points="21.9,68.2 21.9,68.2 21.9,68.1 	"/>
	<path class="st2" d="M23.4,67.8C23.4,67.8,23.4,67.8,23.4,67.8C23.4,67.8,23.4,67.8,23.4,67.8z"/>
	<path class="st2" d="M25.4,68.7C25.4,68.7,25.4,68.6,25.4,68.7C25.3,68.6,25.3,68.6,25.4,68.7C25.3,68.6,25.3,68.7,25.4,68.7z"/>
	<path class="st2" d="M25,68.1L25,68.1C24.9,68.1,25,68.1,25,68.1z"/>
	<path class="st2" d="M76.6,57.7C76.6,57.7,76.6,57.7,76.6,57.7L76.6,57.7z"/>
	<path class="st2" d="M70.8,59.8C70.8,59.8,70.8,59.8,70.8,59.8C70.8,59.8,70.8,59.8,70.8,59.8L70.8,59.8z"/>
	<path class="st2" d="M69.7,59.9L69.7,59.9C69.7,59.9,69.7,59.9,69.7,59.9z"/>
	<path class="st2" d="M72.9,58.9C72.9,58.9,72.9,58.9,72.9,58.9C72.9,58.9,72.9,58.9,72.9,58.9z"/>
	<path class="st2" d="M78.4,57.2C78.4,57.2,78.4,57.2,78.4,57.2C78.4,57.2,78.4,57.2,78.4,57.2L78.4,57.2z"/>
	<path class="st2" d="M78.4,57.3C78.3,57.2,78.3,57.2,78.4,57.3C78.3,57.2,78.3,57.2,78.4,57.3C78.3,57.2,78.3,57.2,78.4,57.3z"/>
	<path class="st2" d="M81.8,56.8L81.8,56.8C81.8,56.8,81.8,56.8,81.8,56.8z"/>
	<path class="st2" d="M72,57.4C72,57.4,72,57.3,72,57.4C72,57.3,72,57.4,72,57.4z"/>
	<path class="st2" d="M81.2,56.8L81.2,56.8C81.3,56.8,81.2,56.8,81.2,56.8z"/>
	<path class="st2" d="M70.8,59.8L70.8,59.8C70.8,59.8,70.8,59.8,70.8,59.8z"/>
	<path class="st2" d="M68.8,60.1C68.8,60.1,68.8,60,68.8,60.1L68.8,60.1L68.8,60.1z"/>
	<path class="st2" d="M63.8,60.2L63.8,60.2L63.8,60.2C63.8,60.2,63.8,60.2,63.8,60.2z"/>
	<path class="st2" d="M67.4,60.1C67.4,60.1,67.4,60.1,67.4,60.1c0,0,0.1,0,0.2,0l0-0.1L67.4,60.1z"/>
	<path class="st2" d="M65.4,58.9l0.2,0.1c-0.4,0.2-0.7,0.1-1,0.3l0,0c-0.1,0,0,0.3-0.7,0.1l0,0c0,0,0,0-0.1,0l0.1,0.1
		c0,0-0.1,0.1-0.2,0.1c0,0,0,0-0.1-0.1l-0.2,0.1l-0.1-0.1c0,0.1,0.1,0.2-0.1,0.2c0.1,0.1-0.1,0.1,0,0.1c0,0,0,0-0.1-0.1
		c-0.1,0-0.3,0.1-0.3,0.2c0,0,0.5,0.2,0.6,0.3c-0.2,0,0,0,0,0.1l0,0c0.1,0,0.1,0.1,0.2,0.1c0,0,0,0,0,0l0,0c0,0,0,0,0,0c0,0,0,0,0,0
		l0,0c0,0,0.1,0,0.1,0l0,0.1c0-0.1,0.5,0.1,0.6,0.1c0.1,0.1,0.2-0.1,0.3,0c0.2,0,0.1,0.1,0.2,0.1c0.1,0-0.1-0.1,0-0.1l0.2,0.1
		c-0.1,0,0,0.1,0,0.1c0.1,0,0.3,0.1,0.3-0.1c0.2,0,0.2,0.1,0.3,0.1c0,0-0.1,0-0.1-0.1c0.1,0,0,0,0,0c0.1-0.1,0.6,0.1,0.5,0l0,0
		c0-0.1-0.1-0.2-0.1-0.3l0.1,0l0-0.1c0.1,0,0,0.1,0.1,0.1c0.1-0.1,0.2,0,0.4-0.1l-0.3-0.3c0.1,0,0.4,0.1,0.4,0l0.1,0.1
		c0.3,0.1,0.1-0.1,0.2-0.1l0.1,0.1l-0.1,0c0.1,0,0.2,0.1,0.3,0.1l0,0c0,0,0,0,0,0l0,0c0-0.1,0-0.1,0.1-0.1c0.1,0,0.2-0.1,0.4,0
		l0-0.1l0.2,0l0,0.1c-0.1,0-0.3,0.1-0.5,0.1l0,0c0.1,0,0.2-0.1,0.3-0.1c0,0,0.2,0.1,0.1,0.2l0-0.1c0.3-0.1,0.3-0.1,0.7,0l0,0
		c0.1,0,0.1-0.1,0.2,0c0.2,0,0.4,0,0.6,0.1l0-0.1c0,0,0.2,0.1,0.1,0l0.1-0.1c0.1,0,0.1-0.1,0.2,0l0,0l0,0l0,0l0,0
		c0.1,0,0-0.1,0.1-0.1c0.1,0.1,0-0.1,0.1-0.1l0.1,0.1c0.2,0,0.1-0.1,0.3-0.1c0.1,0,0.2,0.1,0.2,0.3c0-0.2,0-0.1,0.1-0.2
		c0,0,0,0.1,0,0.1c0.1,0,0-0.1,0.1-0.1c0-0.1-0.1-0.3-0.1-0.3l0,0c0-0.1,0.1-0.1,0.2-0.1l0,0.1l0.1-0.1l0,0.1l0.1-0.1l0,0
		c0,0,0.1-0.1,0.2-0.1l0,0c0.2,0.1,0.3-0.1,0.5-0.2l0,0.1c0.1,0.1,0-0.1,0.1-0.1l0,0.1c0-0.1,0.1,0,0.2,0L72,59.1l0.1,0
		c0.1,0,0.1,0.1,0.2,0.2l0-0.1l0.1,0.1c0-0.1,0.1,0,0.1-0.1c0,0,0,0.1,0.1,0.1l0.1-0.2l-0.1,0.1L72.5,59c0-0.1,0.1,0,0.2-0.1l0,0.1
		c0.1-0.1,0.1,0,0.2,0c0,0-0.1-0.1,0-0.1c0,0,0,0,0.1,0.1c0-0.1,0-0.2,0.1-0.2c0,0,0,0,0,0c0,0,0-0.1,0,0l0,0.1l0-0.1
		c0.1,0,0.1-0.1,0.1,0l0,0l0.3-0.1l0,0.1c0-0.1,0.2,0,0.1-0.2c0.1,0.1,0.2-0.1,0.2,0.1c0.2-0.1,0.2-0.2,0.5-0.2c0.2,0.1,0.3,0,0.5,0
		c0.2-0.2,0.4-0.3,0.7-0.4c0.3,0.1,0.4-0.2,0.6-0.2l0-0.1c0.2,0.1,0.3-0.1,0.5,0c0,0,0-0.1,0.1-0.1c0,0,0,0-0.1-0.1
		c0.1,0,0.1-0.1,0.2,0.1l0,0c0,0.1,0.1-0.1,0.2,0l-0.1-0.1l0.1,0l0,0c0.3-0.3,0.6,0,0.9-0.3c0,0.1,0.1-0.1,0.1,0.1
		c0.2,0.2,0.2-0.1,0.2-0.1c0,0,0,0,0,0l0.2,0c0,0.2,0.1-0.2,0,0c0.4,0.1,0.9-0.1,1.4-0.1l0,0c0.1,0,0.2-0.1,0.4,0
		c0.1,0.1,0.2-0.1,0.2-0.1c0.1-0.1,0.2,0.1,0.2,0.1c0.1,0,0.1-0.2,0.3-0.1c0.1,0.1,0.3-0.2,0.4,0l0,0c0.2,0.1,0.3-0.1,0.6-0.1
		c0,0,0,0,0,0l0.2-0.6l-0.3-0.5l-0.5-0.4c-0.3,0.1-0.6,0.2-0.9,0.2l-0.8-0.1c-0.6,0.1-1.2,0.1-1.9,0.2l-0.1,0.1
		c-0.5-0.2-0.8,0.2-1.3,0.1l0,0.1c-0.1,0-0.1,0-0.2,0c-1,0.3-1.9,0.8-2.8,0.9c-0.1,0-0.3,0.1-0.4,0c-0.2,0.2-0.5,0.3-0.8,0.4l0,0
		L72,57.4c0,0,0,0,0,0c-0.1,0.1-0.4,0.1-0.6,0.1l0,0c-1,0.3-1.9,0.8-3,0.9c-0.6-0.1-1,0.3-1.7,0.2C66.6,58.5,65.4,58.8,65.4,58.9z"
		/>
	<path class="st2" d="M63.7,59.4L63.7,59.4C63.7,59.4,63.7,59.4,63.7,59.4z"/>
	<polygon class="st2" points="66.6,60.1 66.6,60.1 66.7,60.1 	"/>
	<path class="st2" d="M65.1,60.5C65.2,60.5,65.2,60.4,65.1,60.5C65.2,60.4,65.1,60.4,65.1,60.5z"/>
	<path class="st2" d="M63.2,59.6C63.2,59.6,63.2,59.6,63.2,59.6C63.3,59.6,63.3,59.6,63.2,59.6C63.3,59.6,63.2,59.6,63.2,59.6z"/>
	<path class="st2" d="M63.6,60.2L63.6,60.2C63.6,60.2,63.6,60.2,63.6,60.2z"/>
</g>
</svg>
