<svg id="Layer_1" data-name="Layer 1" xmlns="http://www.w3.org/2000/svg" viewBox="0 0 10 85.94"><defs><style>.cls-1{fill:#1d4289;fill-rule:evenodd;}</style></defs><g id="Round-1"><g id="Home_slider1" data-name="Home slider1"><g id="section_1" data-name="section 1"><g id="Group-3-Copy"><path id="Fill-1" class="cls-1" d="M-.73-.5h-.52A2.26,2.26,0,0,1-.73-.5ZM0-.18c-1,0-1.09,0-.94-.12h.07l.08.06ZM1.65,19.3c-.6.06-.83-.05-1.64,0A5.63,5.63,0,0,1,1.65,19.3ZM1.65,6A11.25,11.25,0,0,1,0,6,5.7,5.7,0,0,1,1.65,6ZM.71,7h.71c.24,0,.25,0,.14.07A6.09,6.09,0,0,1,.71,7Zm1.74.2H3.6a6.91,6.91,0,0,1-.91,0c-.26,0,.45,0,.14.08H1.13l-.44,0a17.16,17.16,0,0,1,1.76-.14Zm0,.32c.19,0,.21,0,.11.08a6.61,6.61,0,0,1-.89,0,3.43,3.43,0,0,1,.78-.07ZM2.68,23a5.74,5.74,0,0,1-1.31,0,.86.86,0,0,0,.32-.07ZM3,21.42H1.85A7.36,7.36,0,0,1,3,21.42ZM1.61,51.67H2.79l.44.07H2.32l.22.06q-1,0-1.92,0l1-.11Zm.15-4.53h.16a2,2,0,0,1-.59,0Zm.85.14a4.18,4.18,0,0,1-1,0A5.57,5.57,0,0,1,2.61,47.28ZM2,51.44a2.22,2.22,0,0,1-.63,0A1.67,1.67,0,0,1,2,51.44Zm1.29,0a2.22,2.22,0,0,1-.63,0A1.67,1.67,0,0,1,3.29,51.44ZM1.89,52A4.41,4.41,0,0,1,1,52a7.06,7.06,0,0,1,.92,0Zm0,2.86H1a3.47,3.47,0,0,1,.91,0ZM3.21,53.5c0,.08-.65.09-.62.14s-.19.1-.78.14l-.59-.08a10.36,10.36,0,0,1,2-.2Zm-.63-.19a3.7,3.7,0,0,1-.94,0A7.37,7.37,0,0,1,2.58,53.31Zm-1.45,14c.4.08-.16.09-.31.14C.41,67.37,1,67.35,1.13,67.31Zm-687.63-31h.35s-.18-.09.36-.1c-.06,0,.17.09-.36.1-.05,0,0,.09.13.13a2.31,2.31,0,0,0,1.31-.33c-.06,0-1.44.08-1.79.13s0,0,0,0Zm0-2.26a3.35,3.35,0,0,0,.71.07c0-.09.5-.19.81-.28-1,0-.47.19-1.17.19.07,0,0-.07-.2-.09h-.15Zm0-.56c.18,0,.35,0,.35-.07h-.35Zm0-16.3C-685.34,17.13-686.42,17-686.5,17.19Zm0-6.62a.14.14,0,0,0,.1.12c1.18-.07.75-.13-.1-.15Zm0-.91c.22,0,.35,0,.35-.09.19,0,1.2,0,.58-.09a3.66,3.66,0,0,0-.93.08C-686.75,9.64-686.5,9.66-686.5,9.66Zm0-5.51a.48.48,0,0,0,.16.08c.32-.05,0-.14.54-.16a2.51,2.51,0,0,0-.67,0v.06Zm0-1.19a6.32,6.32,0,0,0,.87,0c-1.12,0,0-.1-.76-.09h-.11c-.17,0,0,.11,0,.11Zm2.86-3.7-.18.08a10.82,10.82,0,0,0,1.61,0c-.14.06-.17.12-.12.18a6.43,6.43,0,0,1,1.64,0s.28-.15.14-.17a6.48,6.48,0,0,1-1.39-.12h-1.7Zm62,0c.08.06.12.09.62.13h.57a9.32,9.32,0,0,1-1-.14Zm16.36,0c-.07,0,0,.05.15.06.52,0,.33,0,0-.06Zm25.09,0a1.21,1.21,0,0,0,.31.07h.08a1.53,1.53,0,0,0,.47-.11,1.94,1.94,0,0,1-.68,0Zm127.74,0c-.71.15-.39.08.35.12-.17,0-.23-.07-.22-.12Zm72.79,0c-.56,0-1.08.12-.75.19s.21-.06.22-.06a3.73,3.73,0,0,0,.67-.09c.15.07.19,0,.68,0a3.47,3.47,0,0,0-.45-.06Zm1.4,0a.66.66,0,0,1-.2.06c.15,0,1,0,.3-.06ZM-348-.61c.11,0,2.74,0,1.47-.1a2.56,2.56,0,0,1-1.23,0Zm108.09,0Zm52.41.09c0,.09.27,0,.19,0a7.17,7.17,0,0,1,.81-.08ZM-2.38,85.36c-.64.1-.39,0-.13-.06S-2.09,85.3-2.38,85.36Zm-2-.33a6.89,6.89,0,0,1-2.86,0c-.3-.35,2-.23,3.09-.06-.13.06-.2.08-.23.07ZM-8.9-.1a2.26,2.26,0,0,1,.52,0ZM-26.73,85.47c-.94.1-2.64.1-2.11-.1a4.37,4.37,0,0,1,2.43.06h-.32ZM-33,85.26a8.38,8.38,0,0,1-2.45.08c-.62-.11.18-.34,1.5-.29a8,8,0,0,1,1.13.17q-.18.11-.18,0Zm-6.31-.19a6.9,6.9,0,0,1-3,0c-.77-.35,1.77-.27,3.1-.12,0,.07-.1.09-.14.08ZM-43.88-.21l.35-.06h.44a2.62,2.62,0,0,1-.79,0Zm.14,86c-1.17.07-2.87,0-1.86-.17,1.38-.24,2.22-.06,2.24.14h-.38ZM-46.49,0h.09c.67-.12,1.66.08,1.21.18-.75.17-1.38-.09-1.3-.16Zm-2.58,85.66h-.35C-46.29,85.05-45.53,86-49.07,85.66ZM-48.21,0c.35.05,1,.19-.19.13C-48.4.13-48.66.05-48.21,0Zm-1.46,85.05c2-.15,2.36.06,2.28.27h-.53c-1.83.08-4.11-.14-1.75-.3ZM-53.7.22c-.48,0-.54-.07-.21-.13C-53.91.09-53,.19-53.7.22Zm-1,85.31c-.28,0,.38-.09.65-.08A2,2,0,0,1-54.7,85.53Zm-.79-.31c-.58.1-.37,0-.13-.06S-55.22,85.16-55.49,85.22ZM-56.83-.11h1.11C-55.72,0-56.39,0-56.83-.11ZM-65,.21c-1.17,0-.59-.12.3-.16h.07C-63.63.05-64.34.23-65,.21Zm-17.83,0h0ZM-84,0a1.55,1.55,0,0,1,.43,0Zm-1.82.16c-.19-.07.68-.1,1-.13h.39L-83,.09a14.9,14.9,0,0,1-2.91.07ZM-86.9-.09h0ZM-99.38,85.28c-.87.13-2.42.13-2.3-.07a6.43,6.43,0,0,1,2.57,0c-.28.07-.32.06-.27,0Zm-4.15-85c-.81.14-1-.08-.72-.15h.11c.8-.07.93.1.61.16ZM-105.61,0h1.51A3.5,3.5,0,0,1-105.61,0Zm.06.2h-.51s0-.07.44-.1c.18,0,.2.09.07.12Zm-3.61,85.31h0a2.35,2.35,0,0,1-.53,0,3.26,3.26,0,0,1,2.61-.2c.7.2-.9.49-2.08.16ZM-112.06.14a2,2,0,0,1,.49,0Zm.81.28c-.55,0-.79,0-.74-.11S-110.77.31-111.25.42ZM-126,.49s1.21.05.65.11S-126.12.6-126,.49ZM-124.47,85a6.89,6.89,0,0,1-2.86,0c-.77-.34,1.68-.26,3-.11,0,.07-.09.08-.12.07Zm-3.38.09c-1.36.12-3.34.06-2.67-.17a5.5,5.5,0,0,1,3.14.11A3.78,3.78,0,0,1-127.85,85.09ZM-134.62.61c-.56,0-.81,0-.76-.1S-134.14.51-134.62.61Zm-.89-.39C-134.92.31-136.37.22-135.51.22Zm-3.94.1c-.1,0,.9,0,.39.09S-139.58.41-139.45.32Zm.48,84.62c-1.32.13-3.32.07-2.7-.15a5.66,5.66,0,0,1,3.16.1,1.77,1.77,0,0,1-.46,0ZM-144.84.39c.25,0,.36,0,.32.08C-145.25.47-145,.35-144.84.39Zm-.68-.17a3.22,3.22,0,0,1,.76,0A4.82,4.82,0,0,1-145.52.22Zm-13.4,0h-.53A2.35,2.35,0,0,1-158.92.22Zm1.81,85a6.1,6.1,0,0,1-2.44,0,7.08,7.08,0,0,1,2.7,0C-157.1,85.29-157.14,85.29-157.11,85.22ZM-164.18.38h1.86C-162.39.55-163.42.49-164.18.38Zm1.36-.37c-.13.09.12.12-1.21.15C-164,.06-163.75,0-162.82,0Zm1.21,85.1c-1.34.13-3.33.07-2.69-.16a5.72,5.72,0,0,1,3.15.11,1.77,1.77,0,0,1-.46,0ZM-173.07.54a1.88,1.88,0,0,1,.58,0Zm-.83,84.55a10.77,10.77,0,0,1-3,0h0c-2.19.24-3.62-.18-1.92-.31a13,13,0,0,1,2.33,0c1,0,3.83,0,2.63.24Zm-2.86.64c-.48.08-.31,0-.12,0ZM-184.35.27c-1.3.08-1.56-.09-.16-.12h0C-184.43.15-183.51.21-184.35.27ZM-185.81,0A2.75,2.75,0,0,1-185,0l-.41.08h-.42ZM-198.5,0h0l.63-.06c.24.08-.21.09-.67.07Zm-6.66,0h.87C-204.36,0-205.64.1-205.16,0Zm-3.44.46c-.49,0-.71,0-.67-.1S-208.19.36-208.6.46Zm-6.48-.29h1.51A3.84,3.84,0,0,1-215.08.17ZM-223.24,0a1.06,1.06,0,0,1,.56,0c.11,0,.14-.06.1-.09l.33.09a.22.22,0,0,1,.16,0c1.55.07-.19.09-1.15,0Zm-1,85.39h-.15a4.07,4.07,0,0,1,2.21-.26c-.59.11.72.4-2.09.28Zm-2-.52a7.22,7.22,0,0,1-3,0c-.67-.35,1.85-.26,3.13-.1a.19.19,0,0,1-.15.08ZM-231,.21l1.42.1A2.3,2.3,0,0,1-231,.21Zm-7.87.11h1.79A4.5,4.5,0,0,1-238.87.32Zm-4.67-.2a3.77,3.77,0,0,1,.89.05h.43a7.41,7.41,0,0,1-1.33-.06Zm-4.78-.21h0Zm-6.27.27a3.66,3.66,0,0,1,.81,0A3.66,3.66,0,0,1-254.59.18Zm-1.84-.24a3.75,3.75,0,0,1,.67,0C-255.95,0-256.76-.06-256.43-.06Zm.21.49c-.52,0-.67-.07-.45-.13C-256.67.3-255.59.38-256.22.43ZM-266.37.11a1.34,1.34,0,0,1,.4,0C-266.43.11-266.57.05-266.37.11Zm-2.07,85.24c-1.87.1-4.34-.12-2-.3,2.05-.17,2.49,0,2.5.26h-.53ZM-275.92,0h1A2.41,2.41,0,0,1-275.92,0Zm-2,.21q.35,0,.3.06C-278.28.27-278.06.17-277.92.21Zm-2.52,85.26h-.48c-1.71.08-3.75-.12-1.56-.28,1.89-.14,2.16.07,2,.25Zm-4.46.29c-.52.11-1.89.17-1.94,0s1.26-.17,2.1,0Zm-3.05-.42c-.86.13-2.4.13-2.3-.06a6.58,6.58,0,0,1,2.57,0c-.28.07-.32.06-.27,0Zm-2.35-85,.58.08h.18c1.43,0-.18.17-.76-.08ZM-288,0q.33,0,.66.06a9.77,9.77,0,0,1-1.71,0A4.63,4.63,0,0,1-288,0Zm-6.1,0h0s-.18,0,0-.06.72.08,0,.07Zm-1.51.1c-.37,0-.54,0-.5-.08S-295.23,0-295.61.1Zm-7.29,0a3.36,3.36,0,0,1,1-.08q.33,0,.66.06a11.64,11.64,0,0,1-1.67,0Zm-.17.07a3.26,3.26,0,0,1,1.08,0A9.73,9.73,0,0,1-303.07.17Zm-1,.09.58.07a.54.54,0,0,1,.18,0c1.4,0-.16.17-.76-.07Zm-5.66,85.16c-.43,0,.06-.11.25-.11h.72a8.4,8.4,0,0,1-1,.07Zm-2.8-.51a5.56,5.56,0,0,1,3.08.1,2.1,2.1,0,0,1-.43,0C-311.17,85.19-313.11,85.13-312.53,84.91Zm-1-85c-.06,0-.26-.06-.21-.06C-313.21-.15-313.1-.15-313.53-.09ZM-315-.26a2.94,2.94,0,0,1,.42,0Zm-.65.29c-1.54.1-.91-.14-.29-.2h.14C-314.69-.17-314.94,0-315.65,0Zm-6.28,84.82c-1,0-.65-.35.67-.39a9.68,9.68,0,0,1,2.08.1C-315.83,85-322.18,84.92-321.93,84.85ZM-331.44-.09h1A1.89,1.89,0,0,1-331.44-.09Zm-.17,85.37h0c-.38.13-.46,0-.28,0ZM-334.9.09c-1.16.07-.79-.12-.52-.18h.11C-334.44-.17-334,0-334.9.09Zm-1.92-.1h-.53s0-.08.49-.1c.18,0,.2.08,0,.13Zm-3.13-.15c.32,0,.5,0,.53.07C-340.24-.09-340.2-.2-339.95-.16Zm-.18-.42c.33,0,.34.06,0,.08C-340.23-.5-340.75-.5-340.13-.58Zm-.62.11h0C-341.5-.53-340-.47-340.75-.47Zm-1.18.31c-.3,0-.24-.08.19-.12C-341.74-.28-341.24-.16-341.93-.16Zm-.49-.12c-.34,0-.37-.07-.08-.11a1.35,1.35,0,0,1,.46,0c-.38,0,0,0-.38.06ZM-594-.15h.49C-593.26-.1-593.65-.08-594-.15Zm63.86,0,.53-.06h.46a5.57,5.57,0,0,1-1,0Zm6.81.11a1.54,1.54,0,0,1,.43.06,10,10,0,0,1-1.34,0,6.91,6.91,0,0,1,.91,0Zm-.94-.08a2.15,2.15,0,0,1,.8,0A2.15,2.15,0,0,1-524.27-.12Zm69.71-.16s.37.11-.06.11a5.36,5.36,0,0,1-1.13-.13,5.92,5.92,0,0,1,1.19,0Zm22.37-.1h.43C-431.34-.38-431.63-.32-432.19-.38Zm86.89,0h0s-.36,0-.33-.06c.24,0,1,0,.34.06h0ZM-359.6,0h1.66A3.87,3.87,0,0,1-359.6,0Zm-4-.21c-.57.15-1.69-.1-.48-.09C-363.41-.32-363.36-.32-363.6-.23Zm-2.89,85.09c-1.12.15-3.12.13-2.8-.1.47-.36,2.48-.16,3.17,0a1.15,1.15,0,0,1-.37.06ZM-371.68-.29c.24,0,.47,0,.71,0a13.36,13.36,0,0,1-1.55,0,2.18,2.18,0,0,1,.84-.1Zm-1.7.27h1.72A3.84,3.84,0,0,1-373.38,0Zm-2,.08c-2,0,.58-.31.92-.23C-373.92-.17-374.46.07-375.38.06Zm-1.29-.35c0,.07-.21.21-.83.09a2.28,2.28,0,0,1,.82-.09h0a4.69,4.69,0,0,1,.53,0s.31,0,.14.06a1.45,1.45,0,0,1-.62-.07ZM-378.6,0a1.19,1.19,0,0,1,.46.05c-.61,0-.69-.08-.46,0Zm-.67-.28c.25,0,.82,0,.68.06A2.57,2.57,0,0,1-379.27-.28ZM-380.79,85c-.67.11-.39,0-.13-.06S-380.48,84.94-380.79,85ZM-391.73-.19a1.55,1.55,0,0,1,.43,0ZM-400-.32a2,2,0,0,0-.35,0h.35ZM-397.64,85a7.22,7.22,0,0,1-3,0c-.63-.36,1.91-.26,3.21-.09-.09.07-.14.08-.18.07ZM-405.58-.47s.27,0,.27.06a6.61,6.61,0,0,1-1.09,0h.82Zm-1.85.09s.62.06.85.11C-407.41-.21-407.49-.27-407.43-.38Zm-1.78.13c-.32,0-.45,0-.42-.06S-408.9-.31-409.21-.25Zm-3.6.14a3.07,3.07,0,0,1,.68.05c-.61,0-1-.07-.68,0Zm-.72-.27c-.39,0-1.36-.12-.32-.14q-.21.12.27.06c.48-.06.66.05.05.08Zm-6.83.34a1.41,1.41,0,0,1,.54.07C-420.61,0-420.63-.08-420.36,0Zm0-.22h-.47A1.85,1.85,0,0,1-420.36-.26Zm-2,0c-1.11,0-1.32-.17.54-.13C-421.82-.39-420.82-.25-422.36-.26Zm-5.36.09a1.19,1.19,0,0,1,.46,0Zm-.44,0h0Zm-7-.24h.75C-434.51-.39-434.75-.4-435.16-.46Zm-.08.27h0s-.15.06-.16,0h.15c-.05,0-.28-.07,0-.11a.69.69,0,0,1,.54.11Zm-4.52.15c-.45,0-.55-.06-.32-.11C-440.08-.15-439.2-.08-439.76,0Zm-2.95,0h.95c.85-.13,1.15.11-.95,0ZM-447,0a2.81,2.81,0,0,1,.58,0Zm-17.6,85.06c-1,.16-2.94.16-2.83-.07s2.29-.18,3.14,0c-.22.06-.3.07-.31.06Zm-7.53,0c-.24.08-2.2.17-2.13.21h0a15.19,15.19,0,0,1-2.86.06c-.72-.08-.26-.22.53-.34-.16,0,2-.14,2-.14,1.23-.06,3.16,0,2.48.21Zm-2.44.49a1.51,1.51,0,0,1,.52,0C-474.1,85.55-474.81,85.7-474.57,85.55Zm-1.19.07a4,4,0,0,1-2.18.09c-1.09-.26.69-.25,2.17-.15.08,0,.06.06,0,.06Zm-7.66-.28c-.28,0,.48-.09.76-.08A2.77,2.77,0,0,1-483.42,85.34Zm-13-85.28c-.4,0-.58,0-.55-.07S-496.09,0-496.42.06Zm-4.82,85.12c-.33.12-.43,0-.27,0Zm-.89-.37c-1.15.15-3.17.12-2.85-.11.5-.36,2.54-.16,3.23,0a1.21,1.21,0,0,1-.38.06ZM-506.26.1H-505a3,3,0,0,1-1.2,0ZM-513.48,85a6.7,6.7,0,0,1-2.82.07c-1.06-.33,1.46-.28,2.89-.15C-513.41,85-513.41,85-513.48,85Zm-5.77-85h.91A2.32,2.32,0,0,1-519.25,0Zm1.64,85.18c-1.12.14-3,.11-2.67-.11a5.87,5.87,0,0,1,3,0,1.15,1.15,0,0,1-.37.06Zm-7.68-85a6.51,6.51,0,0,0,.88.06h.35c-1.2.13-.79,0-1.23-.1ZM-526,0c.29,0,.44,0,.45.06C-526.3.06-526.22,0-526,0Zm-2,.26h.7C-528,.34-528.51.19-528,.26Zm-1.57.1c-.51,0-.63-.06-.35-.13C-529.92.23-528.92.32-529.57.36Zm-4.28,85.29C-529.85,85.59-534.69,86.18-533.85,85.65Zm-.9-.15a4.27,4.27,0,0,1,2.35,0h-.29c-.82.11-2.43.12-2.06-.07ZM-538,.11a1.7,1.7,0,0,1,.45,0Zm-4.71,0h0s-.17,0,.07-.08.73.11-.06.08Zm-.77-.14h.18c.26,0,0,.09-.19.05h0Zm-.29,85.38c-.28,0,.58-.08.86-.06A4.1,4.1,0,0,1-543.77,85.35Zm-1.59-85.5c.65,0,.66.14,0,.18-.26,0-.35-.08-.25-.14s.05,0,.23,0ZM-543.95,85a6.52,6.52,0,0,1-2.78.06c-.86-.33,1.56-.26,2.88-.12a.08.08,0,0,1-.1.06ZM-546,.17c-.32,0-.38-.05-.19-.08C-546.29.09-545.49.14-546,.17Zm-.41-.23h-.09c-.12,0-.18,0,0,.06-3,.15.57-.34.13-.12Zm-1.45,0c-.5.07-1.09,0-.69-.09S-547.55-.1-547.86-.06Zm-1.44,0s0-.07.54-.08C-548.19.1-549.89-.08-549.3-.06Zm0,.22c-.29,0-.37,0-.24-.07C-549.62.09-548.88.09-549.3.16Zm-2,0-.36-.06C-551.73.1-551,.1-551.3.16Zm-15.51.2.64,0C-566.87.48-567.29.34-566.81.36Zm-.69-.22c.36,0,1,0,.8.09A3.57,3.57,0,0,1-567.5.14Zm-13.11,85.5c-1,.1-2.63.09-2.06-.1a4.22,4.22,0,0,1,2.39.06h-.33Zm-2.19.29ZM-583.2,0h0Zm.56.11s1.13.06.56.12S-582.79.17-582.64.11Zm0,85.12c-.75.1-.37,0-.07-.06S-582.29,85.17-582.64,85.23Zm-2.77.59h0Zm-.21-.55c.34,0,.37,0,.12.06C-586,85.42-585.84,85.33-585.62,85.27ZM-589.81.07h0l.38-.07c.14,0,.14.07,0,.1h-.41Zm-4.5-.08a2.68,2.68,0,0,1,.63.05c-.62,0-.94-.07-.63,0ZM-608,.21c-.52,0-.74,0-.66-.11S-607.5.1-608,.21Zm-4.42,0a15.82,15.82,0,0,0,1.67-.06C-610.64.31-611.66.27-612.42.21Zm1,84.69a6.59,6.59,0,0,1-2.83.08c-1.1-.33,1.44-.29,2.89-.16C-611.36,84.89-611.36,84.91-611.42,84.9Zm-5-84.73a2.62,2.62,0,0,1,.56,0Zm-1.88-.34a6.61,6.61,0,0,1,.85.05A1.89,1.89,0,0,1-618.3-.17Zm-.52.09a13.24,13.24,0,0,1,1.54.08C-616.78.13-619.66.08-618.82-.08Zm-2,0a1.07,1.07,0,0,1,.4.05c-.53,0-.6-.07-.4,0Zm-8.56.1a2.09,2.09,0,0,1,.5,0Zm-5,.08h1.71A3.8,3.8,0,0,1-634.38.1Zm-11.26-.68c.15.09-.49.07-1,0h.51a.82.82,0,0,0,.44,0Zm-.94,85.7c.23.08-.74.12,0,0-1,.16-3.17.16-2.7-.08a5.32,5.32,0,0,1,2.63,0C-641.91,84.64-644.65,85.83-646.58,85.12ZM-649.52-.36h.39a5.57,5.57,0,0,1-1,0h.61Zm-1.26.14h1A1.89,1.89,0,0,1-650.78-.22Zm-4.33.3h.44l-.44.05Zm-2.37.1c-1.71,0-.52-.17.22-.21h.14C-656,0-656.69.16-657.48.18Zm-2.78-.47h.34C-659.84-.29-659.92-.22-660.26-.29Zm-7.13,0a2.18,2.18,0,0,1,.51,0Zm-.26.09a4,4,0,0,1,.84-.08h.45c.52,0-.77.13-1.29.08Zm-.3-.13h0a2.09,2.09,0,0,1,.5,0,.77.77,0,0,1-.52,0Zm-14.64,35.61c-.65,0-1.38,0-1.43-.13s.26-.19,1-.14C-683.28,35-682.66,35.3-682.59,35.28Zm-.45-1.17c-.51-.08-1.55-.2-.6-.3C-683.64,34-682.54,33.92-683,34.11Zm2.3-6.58v-.19C-679.91,27.45-680.1,27.43-680.74,27.53Zm-.63-2.61c-.19,0,.1-.18.4-.19S-680.74,24.88-681.37,24.92Zm.34-.47c0-.08,0-.08.59-.11C-680.39,24.4-680.69,24.42-681,24.45Zm1.14-1.77c-.46-.09.18-.1.33-.15C-679.1,22.62-679.73,22.63-679.89,22.68Zm0-.81c-.66,0,.69-.19.73-.2S-679.28,21.9-679.89,21.87Zm-.76-3-.3-.09C-679.88,18.69-680.17,18.78-680.65,18.87Zm.22-2.56a1.82,1.82,0,0,0-.56.22C-681.15,16.48-681.76,16.2-680.43,16.31Zm.62,1h-.26c-.5-.1,0-.12.15-.16.54.07,0,.09,0,.15s.17,0,.16,0ZM-681.1,14h-.9c.51,0,.75-.08.86,0Zm-.54-2.83a3.72,3.72,0,0,1-.94.06A7.42,7.42,0,0,1-681.64,11.17Zm-.78-5.7c-.45,0,0-.08,0-.09C-682.17,5.38-682.19,5.45-682.42,5.47ZM-681,.66c-.24,0-.23-.06.06-.09C-680.49.57-680.94.66-681,.66Zm-.32.43c-.28-.05-.28-.1,0-.14S-681,1-681.32,1.09Zm-1.13-.15c-.13,0-.16,0-.12-.07A10.27,10.27,0,0,0-681,.79C-681.45.86-681.95.91-682.45.94ZM-678,18.32a1.76,1.76,0,0,1-.81.2C-678.95,18.39-678.95,18.39-678,18.32Zm-1.15-2.52h.55a4.87,4.87,0,0,1-1,.17c-.29,0,.32-.14.43-.18ZM-680,10l-.72.06C-681.17,10-680.38,9.84-680,10Zm.85,2.93c-.73,0,.64-.18.72-.2S-678.61,13-679.15,12.93Zm-.13-3.27a2.06,2.06,0,0,1,.81-.2C-678.33,9.59-678.33,9.59-679.28,9.66Zm.68-3.45a4,4,0,0,1-.95.21C-679.7,6.29-679.7,6.29-678.6,6.21Zm-1.27-4.15L-679,2c.07.07-.35.1-.88.11Zm.46,2.86c.15.09-.42.12-.45.22C-680.22,5-680.08,5-679.41,4.92Zm-1.26-2.16q-.2,0-.12-.09h.71A2,2,0,0,1-680.67,2.76Zm1,.24c.15.08-.07.11-.69.08A2.33,2.33,0,0,1-679.67,3ZM-681,8.37c.4.12-.43.12-.32.23a10.35,10.35,0,0,0-1.36-.09A7.29,7.29,0,0,0-681,8.37Zm-.16-.8a5.67,5.67,0,0,1,1-.18C-680.07,7.51-680.48,7.54-681.16,7.57Zm.24.66c0,.07,0,.07-.48.06Zm-1.19,1.53a1.39,1.39,0,0,1-1.19.13c-.17,0,.36-.24.34-.3s-.46-.16-.4-.24A5,5,0,0,1-682.22,9c.5-.09,1.71-.12,2.06-.21L-680,9a6.74,6.74,0,0,1,1,.08c-.34.06-.82,0-1.21.06h.44a1.26,1.26,0,0,1-.43.08c-.18,0-.24,0-.22-.07l-1.31.18c.24.08-.8.11-.41.21.22.05,1,0,1.19.06s1.11-.18-.07-.1c-.4-.12.43-.22,1.17-.13s.12.06.21.17-1.6.44-1.18.17c-.41-.07-.85.09-1.24,0Zm.94.86a3,3,0,0,1,.59-.11C-680.58,10.59-680.58,10.59-681.17,10.62Zm.55,4.39c-.61-.07.08-.16.39-.2S-680.7,14.92-680.62,15Zm-.07-1.7c-.54,0,.19-.1.58-.07Zm.87-.83a1.26,1.26,0,0,1-.43.08c-.15,0-.21,0-.22-.06-1.2.17-3.18.39,0,.39.26-.13-1-.06-1-.16,1.53-.1,1.35-.07,1.6.12s.07.23-1.14.32c-.46-.05.09-.07.19-.11h-1c-1.48.3-.94,0-1.11-.06s-.37-.29-.29-.4a5.26,5.26,0,0,1,1.21-.42c.53-.08,1.43,0,1.81-.1s.11.21.12.23,1.11-.07.19.1h-.31Zm2,8.42c-.71,0,.21-.16.43-.18S-677.25,20.86-677.82,20.9Zm-.5,38.44a2.81,2.81,0,0,1,.8-.18h.22l-1,.14Zm-.13,14.15c.36-.08,1-.1.84-.19C-677.22,73.43-677.22,73.43-678.45,73.49Zm-1,3.4a3.26,3.26,0,0,1,1.06-.24C-678.39,76.8-678.56,76.8-679.45,76.89Zm.13,2.91a2.7,2.7,0,0,1,.89-.12C-678.85,79.68-678.43,79.85-679.32,79.8Zm0,3.15a2.14,2.14,0,0,1,.87-.13C-678.84,82.82-678.45,83-679.32,83Zm-4.57.32.72-.09q.27.09.12.18c-.76,0,.24-.13-.84-.09Zm3.41-2.12c-.09-.13.55-.16,1-.25C-679.48,81.05-680.09,81.06-680.48,81.15Zm.72.57-.59.15C-681,81.78-680.35,81.73-679.76,81.72Zm-2.07,1.55c1.14.08-.91.07,1.28.11v.12C-681.29,83.5-682.38,83.42-681.83,83.27Zm.14.92-.47.09C-682.23,84.17-682.23,84.17-681.69,84.19Zm1.75.67c.32.1-.2.11-.4.15C-680.84,84.94-680.2,84.91-679.94,84.86Zm-.27-2c.31,0-1.26-.09-.68-.12l.17-.06h1.37c-.3.08-.23.27-.61.31a7.21,7.21,0,0,1-.93,0h-.87c-.46,0-.1.12-.8.12-.32,0,.07-.19.07-.24s-.18-.2.22-.37a4.61,4.61,0,0,1,.71-.25,9.82,9.82,0,0,0,1.21-.07c.18.06.26.12.26.18a7.6,7.6,0,0,1,1.07.1c-.88,0-1.31.09-2.1.11-.27.08-1.12.42.91.27Zm-1-5.27.66-.09S-680.55,77.68-681.21,77.59Zm.52.47a3.69,3.69,0,0,1,1.27-.22C-679.42,78-680,78-680.69,78.06Zm.17.76c-.22,0-.43,0-.65,0a4.09,4.09,0,0,1,.7,0l0,.09Zm1.08-2.44a2.43,2.43,0,0,1-.66,0C-680.19,76.32-679.47,76.38-679.44,76.38Zm-3.46-.27a1.07,1.07,0,0,1,.43-.09C-682.1,76-682.24,76.15-682.9,76.11Zm1.7-.7s0,.06-.13.09C-681.86,75.5-681.57,75.41-681.2,75.41Zm-1.43-1.22c-.23-.07-.12-.1.36-.09Q-682.09,74.18-682.63,74.19Zm685,11.59,2-.09.61.12a2.52,2.52,0,0,0,1.22,0,5.31,5.31,0,0,1,1.26,0c.18,0,.33,0,.2-.06a7.52,7.52,0,0,1-1.19-.06,3.35,3.35,0,0,1-1,0c.53,0,.24-.06.32-.09a6.64,6.64,0,0,0-1-.1L6,85.35H7.17c-.8,0-1.06-.11-1.74-.12q.6,0,1.2,0l.72-.1c.08,0-.15-.07-.45-.1H8.58c.28-.07.05-.14.18-.21.41,0,.83,0,1.24,0l-1.06-.15a6.12,6.12,0,0,1-1.6,0c-.33.07.51.08,0,.13-2.13-.08-1.71-.13-2.26-.31-.41,0,0,.06-.45.07v-.32h-1s.09-.06-.09-.08-.36,0-.66,0-.21,0-.2-.16c.77,0,.37-.13,1-.17l-.74-.15a4.23,4.23,0,0,1,1.23,0c.3-.07.06-.14.2-.21H4.7c.29.06-.5.06-.09.12a6.34,6.34,0,0,1,1.07.06c.27-.06.07-.08-.13-.1a4.15,4.15,0,0,1,.7-.15H7l.64-.17c.29,0,0,.07.36.09h.31c.1-.11-.79-.15-.85-.24-.51,0-1-.07-1.59-.06a1.82,1.82,0,0,0-.61-.15h.57c-.2,0-.4-.09-.21-.16a22.46,22.46,0,0,1-2.32-.06v-.08a10.89,10.89,0,0,1,1.28-.14l-.15-.06H3.51c.14-.08.83-.1.8-.19h.38a6.73,6.73,0,0,1,1.1,0v-.1c-.2,0-.41,0-.61,0,.13-.08-1.25,0-.53-.13L4,82c-.33-.08.4-.09.52-.14L4,81.78l.43-.11h.48a.86.86,0,0,1-.25-.06c.36-.07.28-.16.74-.24h.33c.19,0,.14,0,.15-.06a6,6,0,0,1-1.07-.06,4.22,4.22,0,0,1-.87,0l1-.38a20.67,20.67,0,0,1-2.32-.14l.75-.19H3a4.91,4.91,0,0,1,.86-.08c.17,0,.2-.1-.29-.14H4.89l-.58-.06c-.12,0-.2-.12.24-.17-.94-.08-2-.11-2.91-.21a5.15,5.15,0,0,1,1.11,0h.53c.2,0,.41,0,.61,0a15.12,15.12,0,0,0-1.51-.13s-.22.06-.06,0H2.7a8.7,8.7,0,0,1-2.1-.14H2.34l1.8.13c.16,0,.18-.07,0-.08-.77,0-.85-.08-.9-.16H2.92c0-.06.38,0,.55,0-.11-.11-.74-.2-.51-.33,1,.06,2,.1,3.07.07.21,0,.07,0,.12-.07s.4,0,.6-.06v-.19H6.58l-.23-.08H6c-.49-.06.08-.15-.4-.22a14.12,14.12,0,0,1-1.72,0H3.4l-.52-.22a13.33,13.33,0,0,1,2-.08c0-.14-.71-.13-1.36-.14h.34c-.14,0-.47-.1-.1-.16s0,.07.45.09c0-.15.28-.29-.58-.41a4.51,4.51,0,0,1,.52,0h.11c-.15,0-.8,0-.68-.08s-.07,0-.12,0H3.12a8.28,8.28,0,0,0-1.41,0,2,2,0,0,1,.49,0c.26,0-.52,0-.23-.09a5.89,5.89,0,0,1,.84,0,.37.37,0,0,1-.21,0,8.19,8.19,0,0,1-1.21-.07,4.06,4.06,0,0,0,.92-.11H1.74c-.17,0-.14-.06,0-.08a2,2,0,0,1,.54.08h0c.43,0,.25,0,.47-.09l1,.13a3.69,3.69,0,0,0,.47,0H3.93c.15,0,.87,0,.59-.09a4.18,4.18,0,0,0-1,0L2,77.06c0-.12,1.07-.11,1.21-.21H2.59A2.51,2.51,0,0,1,2,76.78c.05,0,.56,0,.24-.1.66,0,1-.09,1.65-.06v-.1a8.16,8.16,0,0,0-1.78-.11,5.14,5.14,0,0,1,1.46-.25h.23c-.26-.07-.28-.14-.14-.25a3.77,3.77,0,0,0,1,.21h.24c.43,0,.48.09,1,.07s.11-.08.21-.12A7.21,7.21,0,0,1,5,75.88L4.8,76c-.63,0-.55-.14-1.16-.17v-.14a.57.57,0,0,1,.26,0c.76.09,1.53.16,2.3.24-.07,0,.06-.08.29-.1h-.1a9,9,0,0,1-1.47,0h.89c.28,0-.06-.06.22-.07a6.25,6.25,0,0,1,1.06,0c.31-.07-.38-.1-.21-.2l-.44.1a20.53,20.53,0,0,0-2.12.06l-1-.05c-.32-.09.29-.18,0-.28h.45c.31-.07.08-.12-.35-.16H2.34c0-.06.45,0,.55,0V75.1L4,74.77c-.51,0-.44-.09-.46-.14s.13-.1-.12-.14H3.08c-.48,0,.06-.07.09-.11H2.94a3.75,3.75,0,0,1,1-.07,2.51,2.51,0,0,0-.67,0,11,11,0,0,1-1.62,0,5.07,5.07,0,0,1,.54-.09H1.61a2.57,2.57,0,0,0,.73-.1,6.46,6.46,0,0,0,.88,0,2.55,2.55,0,0,0-.78,0,2.35,2.35,0,0,0-.79-.1c-.25-.08,0-.11.89-.18H2.31c-.16,0,.31,0,.1-.07a3.12,3.12,0,0,0-.82,0l.09-.06A10.19,10.19,0,0,1,3,73.79c.23,0,.15-.05.16-.07H2.51a4,4,0,0,1,1.1-.06H3.34c-.89,0-1.66,0-2.54-.07a21.48,21.48,0,0,1,3-.09H3c.7,0,1.34.06,2.08.06.29-.07.21-.12-.2-.15,0-.07.48-.09.64-.13L5,73.2c0-.06.49,0,.52,0-.65-.09-1.57,0-2.55-.07.14,0,.88,0,.74-.1s.58,0,.88-.06c1,.08,2.18,0,3.26,0a7.91,7.91,0,0,0-1.28-.19h.86l.42-.2H7.28a4.87,4.87,0,0,1-1,.17,3.69,3.69,0,0,1-.94-.07.6.6,0,0,1-.15.09,9.16,9.16,0,0,1-1.57-.13v-.12H2.42l.7-.18a1.55,1.55,0,0,0,.43,0,4,4,0,0,0-1.18-.21,2.75,2.75,0,0,1,.79-.23,4.21,4.21,0,0,0,1.06-.19c.09-.09,1.09-.09.85-.2l-1.37.08c-.27,0,.13-.11-.38-.14L4,70.9l-.68-.05a.35.35,0,0,1-.14.06H3s0-.14-.6-.14-.24-.09-.66-.1l.59-.22H1.93c.52-.09,1.05-.16,1.58-.2.26-.1-.32-.14-.38-.2-.86,0-.63.12-1.47.12l1.06-.29a6.29,6.29,0,0,0,1.5-.12c.29-.06-.55-.1,0-.17a5.72,5.72,0,0,0-1.17,0,3.27,3.27,0,0,0-.88-.11,6.74,6.74,0,0,0,2.23-.29c-.35-.08-.7-.14-1.06-.19-.15,0,.15,0,.11.06-.32,0-.56.07-1.18.06a19.65,19.65,0,0,1,2-.4V68.6a4.12,4.12,0,0,0,.86,0l-.4-.1a3.38,3.38,0,0,0-.45,0c-.33,0-.28.08-.57.11s-.07-.07-.13-.1l.67-.1A4.07,4.07,0,0,1,3,68.27c.21-.06.63-.11.59-.19h.33c.16-.09-.49-.16-.33-.25h.28c.25-.07-.49-.09-.41-.16H2.3s0-.09.32-.11.37-.06.33-.1a1.51,1.51,0,0,1-.63-.09c-.06,0,0-.08-.33-.1l.31,0a1.41,1.41,0,0,0-.41,0H1.5c-.38,0,.07-.11-.37-.14L2,67c-.18,0-.45,0-.38-.11.38,0,1.13,0,1.56-.12v-.13a5.32,5.32,0,0,1-1.13.06c-.32-.06.8-.06,0-.12h1.4c.22-.06,0-.12.11-.18.85,0,1.41.09,2.12.12.54,0,.47-.09.47-.16-.49,0-.28,0-.33-.08.48,0,.28,0,.33.08a4.17,4.17,0,0,1,.5,0c.3,0,0-.08.18-.11.55,0,.7,0,.59.07H8.6c.28,0,.57-.07.45-.13a9.87,9.87,0,0,1-1.22.08c.48-.11,0-.26.91-.35l-.48-.06a2.81,2.81,0,0,1-1,.12H7.11a1.31,1.31,0,0,1,.28,0,1.77,1.77,0,0,0-.46,0c-.3,0,0,.08-.22.08C6.06,66.06,6,66,5.59,66H5.34c-.61,0,.46-.09,0-.16H4.21c-.08-.07.56,0,.64-.08A18.35,18.35,0,0,1,3,65.69a8.78,8.78,0,0,1,1.35-.11C4,65.5,3.1,65.58,3,65.46H2.65c.19-.06.56-.12,0-.17.37-.11,1.78-.07,1.91-.21a3.39,3.39,0,0,0-.9,0c-.45,0-.76,0-.72-.11H4.13c.16,0,.08,0,.09-.06H3c-.17,0-.17,0,.41-.11s.6.1,1.13,0l1-.14h1c.41,0,.51.07.85.08l.49-.14a3.64,3.64,0,0,0-.66,0c-.41,0-.27,0-.41-.07s-.35,0-.59,0v-.18c-.51,0-.19,0-.41.06-.44,0-.14-.06-.25-.1a9,9,0,0,0-1.27,0h.32a4.35,4.35,0,0,0-1.14,0L3,64.07a8.31,8.31,0,0,1,1.23-.21c.08-.07-.52-.08-.57-.13h.23c-.07,0-.5,0-.61,0h.58V63.5c.28-.11,1.64-.09,1.67-.22H5c-.22,0,0-.05-.1-.08a4.34,4.34,0,0,0-.51,0c-.29,0,.06-.11-.44-.14,0-.11-.27-.23.32-.32.36-.06.16-.15.63-.2-.27,0-.11-.11,0-.17H4.33C4,62.26,4.57,62.13,4,62a5.47,5.47,0,0,0,.9-.08,7,7,0,0,0-1.21-.07c-.08,0-.15-.07.27-.08V61.7a7.69,7.69,0,0,1-1.26-.13,1.69,1.69,0,0,1,.45,0c.28,0,.08-.09.47-.1l-.64-.09h.69a4.7,4.7,0,0,1,1.24-.17c-.09,0-.38,0-.33-.08-.77,0,0-.08,0-.13-.41-.06-.53-.14,0-.2,0,0-.52-.06-.29-.12a1.07,1.07,0,0,1,.44,0c.37,0,.06.08.3.13H6.44s-.75-.07-.65-.14a15.71,15.71,0,0,0-2.17,0c0-.06.39-.07.21-.12H2.1l-.46-.06c.47,0,1.06-.06,1.74-.09H2.64l-.06-.07H4.15C4.34,60,3.72,60,3.29,60c.17-.07.81-.09.92-.16a5.89,5.89,0,0,0,.84,0c.23,0-.17-.05-.29-.07l-.6-.08c.62,0,1.44,0,1.34-.14a2,2,0,0,0-.49,0c-.28,0-.13-.07-.14-.11a2,2,0,0,1,.6,0v.07H6c.33,0,0,.08.29.13s.17-.1.5-.11a3.66,3.66,0,0,0-.93-.13c-.15,0,.23-.06.26-.09h.24a2.8,2.8,0,0,0-1,0H5c-.42.06.1.15-.32.21s0-.11-.14-.14L2.93,59.2l.47-.06.39,0c.34-.14-.2-.24-.91-.34l.84-.22a3.75,3.75,0,0,1,.67,0c.28,0,.07-.07.21-.11H3.09a2.2,2.2,0,0,0-.62.12H1.38c-.13,0-.07-.06,0-.1.82-.08,1.8,0,2.75-.06l.21-.08H5.51c.21-.06-.55-.08-.27-.15a6.47,6.47,0,0,1,.76,0c.23,0,.11-.05.24-.07a3.45,3.45,0,0,1,.46,0c.22,0,0-.07-.22-.1s-.48,0-.3,0a2.43,2.43,0,0,1,.66,0l.9.12a2.62,2.62,0,0,0,.56,0H8.18A1.25,1.25,0,0,1,8.72,58H8.25C8,58,8.12,58,8,57.93a11.53,11.53,0,0,0-1.44,0c-.25,0,.13,0,.17-.06a4.37,4.37,0,0,0-1.14-.06l-.23-.09a15.15,15.15,0,0,1-1.78.08,7.25,7.25,0,0,1,1.23-.25c.32,0,.32,0,.33,0a3.25,3.25,0,0,0-.69-.08H4.22a.67.67,0,0,1,.2,0H4.06c-.22,0-.15,0-.25-.09l-.75.09c-.16,0-.2,0-.13-.06l.6-.13H3.22a.28.28,0,0,1,.12,0,3.18,3.18,0,0,0,.87-.09c-.32,0-.32,0-.33-.05s.67,0,.66-.06-1,0-.87-.14H3.32c-.35-.06.47-.09.22-.12-.5-.06.15-.1,0-.14s.51-.07.34-.13a6.46,6.46,0,0,0-.88,0c-.21,0,.12,0,.14-.06-.17,0-.34-.08-.19-.13a5.3,5.3,0,0,1,.91,0c.16,0,0-.06,0-.1L3.26,56h.82l.5-.06c-.13-.08-.69-.14-.35-.22a3.47,3.47,0,0,0,.45-.06H5c.16,0,.16,0,.16-.06a2.35,2.35,0,0,0-.53,0h-.6c-.33,0,0-.08-.22-.11a1.89,1.89,0,0,0-.74.12c-.84,0-.82-.09-.86-.16a1.77,1.77,0,0,0-.46,0c-.27,0,.08,0,.15-.06l-.31,0a6.28,6.28,0,0,0,1.3-.1H1.1c-.15,0-.18-.06.17-.09a15.44,15.44,0,0,0,2-.14,9.44,9.44,0,0,0-1.19,0c-.2,0-.06,0-.1-.08a3.15,3.15,0,0,0,.61-.06,2.35,2.35,0,0,0-.53,0s.39-.07.24-.12c.42,0,.83,0,1.25-.06.06,0,.13-.07-.28-.07a4.86,4.86,0,0,0,.62-.11,3.31,3.31,0,0,0-.77,0h-.5v.1a3.47,3.47,0,0,1-.91,0,3.87,3.87,0,0,1,.9-.17c-.12,0-.07-.1-.16-.1-.33,0,.52-.09-.34-.12A11.38,11.38,0,0,0,4,54.13,6.92,6.92,0,0,1,5.2,54c.21,0-.37-.07-.32-.11-.64,0-.25-.07.09-.11H4.35l-.2.08H3.23a6.26,6.26,0,0,0,.65-.09c-.31-.12-.31-.12,0-.28a2.88,2.88,0,0,1-.59-.06,4.21,4.21,0,0,0-.71,0s-.08,0,.09-.08a2.89,2.89,0,0,1,.72,0,5.69,5.69,0,0,0,.81-.13,9.84,9.84,0,0,0-1.33,0l.39.06A12,12,0,0,1,1.19,53H3.31a12,12,0,0,1,2.39-.21c-.9,0-1.44-.07-2.44-.06.67,0,.47-.12.88-.12a2.19,2.19,0,0,0,.7-.06c.08-.07-.44-.09-.56-.14h0a.79.79,0,0,0,.34-.07h0a2.89,2.89,0,0,1-.83,0c-.28,0,0,.07-.37.07l-.2-.07a2.69,2.69,0,0,1-.7,0L1.8,52.2c.15-.06.58-.14.49-.24h.84l.76-.09v-.11c-.31,0-.35,0-.32,0a.58.58,0,0,1,.32,0v-.15H2.52l1.24-.17-.55-.07H2.3a5.62,5.62,0,0,1,.92-.08c-.28,0-.71,0-.7-.1H1.64a6.64,6.64,0,0,0,1-.1L2,50.74s0-.05.32,0L2,50.67H2.3l-.66-.09a10.83,10.83,0,0,0,1.73-.09l-.68-.08h1a3.6,3.6,0,0,1-.79-.06l.42-.06-.3,0a10.46,10.46,0,0,1,1.12,0L4.57,50l-.41-.07H6.7c0-.06-.38-.09-.23-.13H7c.33,0,0,.07.26.12a9.06,9.06,0,0,0,1.17,0,24.37,24.37,0,0,0-2.56-.25c.17-.06.75-.07.64-.14H6.35c-.5,0-1,.09-.88.16l-.74-.09c-.22,0-.27-.07.11-.1a1.13,1.13,0,0,1-.48-.11l-.3.08a3.42,3.42,0,0,1-.78-.06l.64-.15a8.91,8.91,0,0,1-1-.1c-.2-.1-.15-.09.24-.13-.06,0-.41,0-.24-.09H4.41c.32-.09-.37-.14-.48-.21s.27,0,.47,0,.12-.1,0-.14H3.83l.52-.06c.13,0-.23,0-.22-.07s.44-.06.32-.11H3.83c.56,0,.91-.1.93-.18s0-.14.66-.23a13.53,13.53,0,0,1-1.56,0c-.18,0,0-.06.23-.09a8.66,8.66,0,0,0-1.23-.17c.43-.1,1.48-.12,1.88-.22-.54-.09-1.43-.08-2.17-.12,0-.06.5,0,.52-.05-.67,0-1.26-.11-2.1-.11-.24,0,.13-.11-.41-.14C1.34,47,2,47,2.84,47a.78.78,0,0,1,.32,0c-.24-.08-.85-.12-1.19-.18a7.67,7.67,0,0,1,1.84-.41c.79-.09.84-.12.32-.25-.78-.09-.78-.09-.35-.19a6.55,6.55,0,0,0-1.65-.21l.69-.35a6,6,0,0,0-.95,0L3.53,45v-.1a3.11,3.11,0,0,0-.61,0l.59-.16H2.35c0-.13,0-.13.89-.16,0-.08.46,0,.72,0h.57c-.31,0-.32,0-.33-.06l2-.08c.14,0-.19-.07.06-.11h.42c.27,0,.15-.12-.3-.21a7.49,7.49,0,0,1-1.77,0h.53c.12,0-.06-.08.38-.07a.24.24,0,0,0,.12,0h.87a2.29,2.29,0,0,0-.78-.39c-.27,0-.16.06-.26.08a5.21,5.21,0,0,1-.79,0c-.31-.08,0-.16-.2-.24H3.9l.71-.11c-.24-.07-1.06,0-1-.15s.49,0,.62-.05a8.78,8.78,0,0,0-1.45,0L2.45,43l1.22-.09c-.38-.07-1.09-.08-1.37-.16a8,8,0,0,0,1.29-.1,9.85,9.85,0,0,1,1.63-.1H3.89l1.24-.08V42.2H4.31l-.21-.08H3.51c.17-.1.68-.19.28-.29s-1-.1-1.2-.18a4.05,4.05,0,0,0,.85-.12c.37,0,.42,0,.47.06a6.61,6.61,0,0,0,.89,0,2.54,2.54,0,0,0-.54-.09s.49,0,.55,0,.11,0-.11,0H4.38c-.52,0-.69-.06-1.13-.07h.58l.09-.1.91-.12c-.06,0-.7,0-.62-.07H3.67c-.46-.11.8-.2,0-.31l.66-.06c.5-.13-.46-.23-.16-.35a2.92,2.92,0,0,0-.83.12c-.33,0,0-.1-.21-.15a4.8,4.8,0,0,1-.85-.08l1.35-.09-1-.13a3.13,3.13,0,0,1,.61,0s-.58-.07-.22-.13h.54V39.7c0-.06-.73-.06-.19-.12H3.7c.25,0,.13,0,.25-.08.37,0,.44.06.79.07l.26,0,.43.1c.57,0,.21-.09.75-.1a14.14,14.14,0,0,0-1.84-.06l.48-.07a11.61,11.61,0,0,0-1.18,0c-.21,0-.05-.1-.1-.15H2.7a5.17,5.17,0,0,0,.85-.11c0-.12-1.22-.08-1.29-.19H2V39a2.91,2.91,0,0,1-.59,0A3.31,3.31,0,0,1,2,39H3.25l.52.09c.22,0,.24,0,.19-.06-.22,0-.43-.06-.64-.11a19,19,0,0,1-2-.15c.67,0,1.39,0,1.94-.06l.12.07a14.43,14.43,0,0,0,1.86,0c0-.05-.8,0-.6-.09a1.43,1.43,0,0,1,.62,0,2.46,2.46,0,0,1-.65-.06c.48,0,.29-.13.42-.25l.73.12a2.89,2.89,0,0,1,.76.06c.1.06.11.09.6.06,0-.1-.88-.12-1.17-.18h.46c.33,0,0-.07.26-.12l1.22.09h.29c-.49,0-.6-.1-1.16-.09l-1-.59c-.34,0-.06.07-.34.09s0-.11-.21-.16c-.54,0-1-.07-1.66-.06l.41-.06H2.67c-.14,0,.22,0,.26-.06a10.55,10.55,0,0,1,1.59,0c0-.06.37,0,.58-.06s-.26,0-.21-.05h.22A3.77,3.77,0,0,0,4,37.3c-.22-.06-.16-.11-.1-.16h.89c-.09,0-.41,0-.28-.09a4.41,4.41,0,0,0,.89,0H5a2.48,2.48,0,0,1,1.08-.13s.23,0,.3-.06a20.2,20.2,0,0,0-2.2-.06c-.18-.2.36-.36.43-.54-.58,0-.79-.12-1.44-.14V36c.54,0,.9.06,1.42.07L5.12,36a2,2,0,0,0-.59-.07H4.2c-.65,0-1-.13-1.7-.19H4.2l.43.09a2.62,2.62,0,0,0,.56,0,6.93,6.93,0,0,1,.91-.16c.15-.07-.45-.08-.26-.13s.85,0,1.07-.07l.74.09a8.05,8.05,0,0,0,.93-.08,3.86,3.86,0,0,0,.68,0c.32-.08.06-.13-.46-.16a1.69,1.69,0,0,0-.45,0A31.17,31.17,0,0,0,5,35.47c-.27,0,.32,0-.13-.11a7.94,7.94,0,0,1-1.54.06l2.2-.29c-.31-.07-1,0-1.14-.11l-.32.12c-.29,0-.14-.09-.18-.14H3.42c-.33,0-.13-.06-.17-.1.12-.07.88,0,1-.1-.44,0-.4,0-.2-.09H2.44a17.75,17.75,0,0,1,1.77-.2c.19,0-.47-.06-.35-.13s.17-.09-.12-.14H3.39c-.33,0,.07-.12-.52-.15h.67c.14-.08-.72-.11-.23-.19H2.37c-.15,0,.22,0,.22-.06V33.7c.61,0,1.05-.05,1.66-.06l-.47-.07a12,12,0,0,1-2.08,0,1.93,1.93,0,0,1,1,0c.4-.09,1.06,0,1.52-.07h0a11.53,11.53,0,0,0-1.44,0,5.31,5.31,0,0,0-.89-.13,13.3,13.3,0,0,1,1.55-.09,1.31,1.31,0,0,0,.8-.13c-.15-.06-.73-.08-.94-.15h.25c-.19,0-.59-.06-.94-.09,0-.08.5-.09.93-.11-.14,0-.68-.09.06-.13-.37,0-.46-.1-.23-.15a5.89,5.89,0,0,0,1.25.18,5,5,0,0,0-.67-.16v-.2a11.24,11.24,0,0,0,2.17,0h.19c.42,0,.61,0,.49.07h1c-.28-.07-.56-.13-.11-.22.28-.05.24-.14-.39-.2a5.21,5.21,0,0,0-.79.13H4.54c-.09-.06.57-.11.26-.18H4.46A1.57,1.57,0,0,0,4,31.53a2,2,0,0,1-.69.12c-.28,0-.06-.06.17-.09l-.42-.12H2.43c-.35,0-.11-.07.23-.11a15.28,15.28,0,0,1-2-.08c1-.05,2-.08,3-.06.43,0,.06-.09.59-.08,0-.06-.38,0-.55-.05s1,0,.87-.14a5.47,5.47,0,0,0-.81,0c-.28,0,0,.08-.36.09H3L3.27,31a2.67,2.67,0,0,0-.4,0l1.28-.17a22.65,22.65,0,0,0,2.35,0c-.35-.06-.94,0-1.29-.05.17,0,.72,0,.71-.06a4.45,4.45,0,0,0,.73,0c.21,0,.22,0,.12-.07H5.85c-.31,0-.34-.06-.63-.05s-.38.06-.68.05a9.83,9.83,0,0,0-1.33-.14c.32-.06.72,0,1,0s-.1-.08.24-.11a3.93,3.93,0,0,0,1.32.17l.46.06a4.18,4.18,0,0,0,1,0c0-.15-1.64-.12-1.7-.28H2.87c.27-.07.8,0,1-.06h0a4.2,4.2,0,0,0-1.12,0l-.44-.05a5.51,5.51,0,0,1,.91-.1L2.58,30a5.5,5.5,0,0,1,1.75-.26,6.53,6.53,0,0,0,1.16-.19c0-.06-.46,0-.59,0s-.34-.1.26-.12a.11.11,0,0,0,0-.08l-.88.05a4.78,4.78,0,0,1-.65.07c-.34-.08.67-.11.3-.18l-.82-.07.43-.06c-.11,0-.36,0-.3-.09a15.85,15.85,0,0,1,2.18-.12,9.84,9.84,0,0,1-1.71-.12c-.17.05-.51.05-.49.1s.3,0,.26,0H3a.17.17,0,0,1-.1,0,6,6,0,0,1-.85,0c-.24,0,.14,0,.19-.06l-.57-.06a5.42,5.42,0,0,1,1.2-.23c.07-.05-.15-.06-.28-.08.07,0,.36,0,.31-.07H4.05c.38,0-.4,0-.19-.1s0-.07,0-.1H3.23c.22-.08.9-.07,1.24-.14l.06-.13h.61c-.2,0-.45-.09-.18-.16s.38-.22-.1-.33c.77-.06.49.12,1.2.08v.2H5.57c.29,0,.44.07.8.08.06,0,0-.06.31-.08s.67,0,.71.1a4.18,4.18,0,0,1-1,0s-.08.08.12.12a4,4,0,0,0,1-.05h.11v-.33c0-.11,0-.06.32,0a7,7,0,0,0-1.21,0c-.15.08-.18.15.31.21H6.57c-.23-.06,0-.13-.12-.19H5.82l.35-.06H4.32l-.47-.06h.66c.09-.07-.17-.16.39-.2A5.63,5.63,0,0,0,4,26.9c-.39-.1.7,0,.57-.12H4.05c-.23,0-.12-.05-.25-.08H3.11c-.34-.05.2-.05.14-.09s0-.07,0-.1a4.94,4.94,0,0,0,.94-.12,2.73,2.73,0,0,0-.94-.16l.32-.09a4.33,4.33,0,0,0-.72,0,2.89,2.89,0,0,1-.83,0V26c.86,0,.26-.23,1.52-.23v-.1a1.69,1.69,0,0,0-.45,0c-.19-.07-.64-.12-.42-.22a14.45,14.45,0,0,0,1.86-.06c.07,0-.1-.07.14-.1H5c.37,0,0-.06.34-.07h.33c.22,0,.12,0,.2-.07h.41l.72,0a3.11,3.11,0,0,1,.61,0A1.07,1.07,0,0,0,8,25.11c.14-.06-.45,0,0-.12h.47c-.69-.08-.26-.17-.39-.25a1,1,0,0,0-.65.05c.59,0,.36.07.25.11s-.51.13-.76.19H6.45c.1-.14-.23-.27.37-.4a2,2,0,0,0-.6,0,6,6,0,0,1-.73.08,3.21,3.21,0,0,1-.62,0c-.17-.1.88,0,.94-.13a19.91,19.91,0,0,0-2.55.2c.41-.06,0-.11,0-.16s.51-.11.33-.17.51-.11.27-.19c-.49,0-.75.11-1.28.14s.13-.18.06-.27-.29,0-.25,0H3A3.29,3.29,0,0,0,4,24h.36L5,23.94a2.73,2.73,0,0,0-.7,0c-.37-.05,0-.08.19-.11-.52,0-.25-.11-.34-.17a5.81,5.81,0,0,0-.59,0,4.34,4.34,0,0,0-.51,0c-.21,0-.21,0-.12-.06s.45,0,.56-.05v-.09c-.47,0-.15.06-.48.08s-.71,0-1.1,0a6.61,6.61,0,0,1,.89,0c.15,0-.24,0-.25-.06V23.4H.88a2.91,2.91,0,0,0,.88-.11H2.4c.51-.05.53-.15,1.12-.19L3.23,23H2.59c.05-.08.24-.15.89-.18.24,0-.1-.08.23-.11h.38c.26-.08,0-.16.17-.24a1,1,0,0,1,.35,0,10.32,10.32,0,0,1,1.11-.06c.16,0-.48.06-.16.11h.51c.22.06-.1.14.2.2s.26,0,.49,0c-.53-.09-.2-.2-.31-.31l-.45,0H5.41a6.37,6.37,0,0,1-1.07,0c-.19,0-.14,0-.13,0S4,22.06,2.88,22h.7l-1.3-.09c.38,0,.25-.1.65-.13s.84,0,1.21,0c0-.06-.47,0-.52,0s0-.06.3-.09l-.73-.07c.27-.06.79,0,1-.05a6.6,6.6,0,0,0-1,0,5.61,5.61,0,0,1,.82,0c.27,0,.13-.1.11-.15a5.47,5.47,0,0,0-.81,0l-.21.07H1.74c-.28,0,.54,0,.2-.1a6.76,6.76,0,0,1,.9,0,4.3,4.3,0,0,1,.88,0H4a4.17,4.17,0,0,1,.5,0c-.14-.05-.46-.08-.34-.14S4.11,21,4,21a2.12,2.12,0,0,1-.71,0,3.11,3.11,0,0,1,.61,0c-.09-.08-.63,0-.71,0-.37-.05-.16-.09-.28-.12a9.32,9.32,0,0,0,1.29-.09H3.39c-.2,0,0-.07.16-.09-.19,0-.34-.08-.28-.13a3.55,3.55,0,0,0,.65-.12L3.3,20.3a2.62,2.62,0,0,1,.79,0l.4-.07H4.28a7,7,0,0,1,1.37-.08,9.67,9.67,0,0,0-1.32,0c-.19,0,0,0-.09-.08A12.59,12.59,0,0,0,5.53,20V19.9h-1v-.2a6.51,6.51,0,0,0-.76.07l-.84-.05c-.13-.1.52-.17.4-.28a1.81,1.81,0,0,0-.57-.12H2.44c-.29,0,0-.07-.4-.09H1.63v-.06a4.18,4.18,0,0,1,1,0h.2c-.21,0-.25-.06-.25-.08a9,9,0,0,1-2-.2h2l.94.13c.29-.08-.07-.15-.29-.22.67-.07,1.1.05,1.65,0a6.78,6.78,0,0,0-1.27-.15h.78c.24,0,.13,0,.25-.08l1.49.09c0-.07-.53-.09-.64-.14a1,1,0,0,0-.6-.12v.07a3.92,3.92,0,0,1-.59,0c.2,0,.41,0,.61,0a3.15,3.15,0,0,0-1.12-.33l-.51.06c.14-.1-.26-.19.36-.26-.54,0-.55-.14-1.26-.16a8.4,8.4,0,0,1,1.23-.26c.15,0-.21-.06-.25-.09h.25a2.62,2.62,0,0,0-.79,0l-.48-.07.92-.12c.16-.06-.29-.07-.28-.1A4.21,4.21,0,0,1,4,17c-.35,0-.5-.09-1-.1,0-.1.7-.17.36-.24-.16-.1-.91-.08-1-.14H3l-.33-.09h-.6l-1-.14a5,5,0,0,0,1-.06,5.57,5.57,0,0,0,1,0S3,16.2,3,16.12H2.4c.27-.07.69-.13.61-.22a9.71,9.71,0,0,1-1.21-.1h.3c.67-.05.87-.16,1.91-.22l-2.39-.09H2.91c-.1-.08.48-.14.4-.23.45,0,.71-.07,1.37,0-.59-.07-.07-.12,0-.16a4.82,4.82,0,0,0,.76,0c-.1-.06.51-.11.16-.19h.54c.07,0,.09-.06,0-.07a5.89,5.89,0,0,0-.84,0c-.22,0-.07,0-.11-.08a1.69,1.69,0,0,1-.45,0,4.92,4.92,0,0,1-.86,0l-1-.12c.08-.06.51-.07.64-.12s-.13-.14-.36-.21h.78a8.36,8.36,0,0,1-1.32-.08A4.23,4.23,0,0,1,3.74,14c-.45,0-.55-.09-.5-.13-.31,0-.35,0-.63,0-.46,0-.33.06-.33.09a1,1,0,0,1-.44.09H.66C1,14,1,13.92,1,13.86a11.24,11.24,0,0,0,2.32-.19c-.22-.07-.75,0-1-.05a3.37,3.37,0,0,1,1-.06c-.11-.17.13-.32.63-.47,0-.05-.7-.11-.13-.18L4,13h.8c.42-.07-.79-.11-.14-.19H5.77L6,12.7l.7.09a2.76,2.76,0,0,1,.81-.15c-.37-.06-.87-.08-1.31-.11h0c.06.06-.15.1-.55.13-.23-.08.19-.1.54-.13a6.74,6.74,0,0,0-1-.08H5a3.73,3.73,0,0,1-.82,0c0-.08.36-.14.83-.18a2.26,2.26,0,0,0-.82,0l-.51-.07A2.27,2.27,0,0,1,4.2,12a4.61,4.61,0,0,1-.91,0,5,5,0,0,1,.77,0c.31-.12.61-.23.44-.36l.44-.05c.6-.1-.41-.15.38-.22a19.09,19.09,0,0,1-2.14,0,8.48,8.48,0,0,0,1.33-.08,3.84,3.84,0,0,0-1.07,0c-.48,0-.65-.08-.45-.15H4.33c.4,0,0-.12.3-.17A10.45,10.45,0,0,0,6,11c.24,0-.17,0-.18-.06a5.11,5.11,0,0,1,1.23-.12,3.84,3.84,0,0,0-1.12-.07c0-.07-.56-.1-.44-.17-.43,0-.27,0-.33.06a2.08,2.08,0,0,1-.56,0H4c-.24,0-.82,0-.84.09-.24,0-.19,0-.2-.06a8.34,8.34,0,0,1,1,0c0-.06-.56,0-.62-.06l.39-.06H1.8a5.07,5.07,0,0,1,1.29-.17c.32-.05-.08-.12.5-.15H2.92l.31-.05h-.8c-.28,0,.1-.18-.43-.26h.92c.16,0-.2,0-.26-.05H3L1.56,9.71a9.83,9.83,0,0,0,1.08-.09h.93c.31,0,.43,0,.63,0-.37,0-.43-.09-.21-.15a3.57,3.57,0,0,0,.8,0,.77.77,0,0,1-.32-.06H3.24A6.32,6.32,0,0,1,4,9.27H5.31a2.46,2.46,0,0,0,.76-.16,6.86,6.86,0,0,1-1.2,0c.65,0,0-.16.58-.22l-.35,0a.41.41,0,0,0-.22,0c-.06.06-.27.1-.71.11S4,8.91,3.75,8.89H3.27a6.09,6.09,0,0,1-1.2-.17,2.53,2.53,0,0,0-.55,0c-.44,0,0-.09-.61-.09l.69-.09H1.32a5.25,5.25,0,0,1,.89,0c.3,0,0,0,.06-.07A6,6,0,0,0,3,8.39H4.19A9.45,9.45,0,0,1,3,8.23a11.21,11.21,0,0,1,1.42,0l.46-.07H3.43L3,8.11,3.38,8H6.76c.11-.09-.46-.1-.62-.15s1-.21-.09-.3a6.09,6.09,0,0,0-1.2.11v-.2c-.31.08-.53.11-.63.15s.14.09-.18.14l-.3-.08H3.39c-.35,0,0-.11-.22-.16a3.7,3.7,0,0,0-.94,0,2.71,2.71,0,0,1,.57,0c.22,0,.08-.06.12-.08a4.85,4.85,0,0,0,.93-.06V7a4.71,4.71,0,0,1-.92,0h.31a6.32,6.32,0,0,0-.87,0c-.18,0,.23,0,.18-.07h.24l-.54-.09a8,8,0,0,0,1.1-.1,3.64,3.64,0,0,0,.66,0c.33,0,0,0-.08-.06l.6-.15a3.53,3.53,0,0,0-.65-.11.16.16,0,0,1,.06-.11c.06,0-.09,0-.06,0H3.4c-.38,0,0-.11-.22-.16s-1.13,0-1.56-.1c0,0-.08-.07.27-.09-.18-.09-1-.1-1.38-.18H2.42c.27,0,.71.06,1,.08.53-.06-.52-.08-.17-.14s.53.06.92,0a15.38,15.38,0,0,0-1.65-.17h.62c0-.06-.45,0-.49,0L4,5.23h.37C5,5.09,5,5,4.82,4.81c-.9,0-1,.19-1.82.19h.13c.1,0-.69-.06-.28-.13l1.07-.11c-.22-.06-.61-.07-.38-.11a2.36,2.36,0,0,0-.75,0l-.72-.12a2,2,0,0,1,.6,0,5.14,5.14,0,0,0,.55-.06c.07-.06-.5-.08-.46-.14-.2,0-.24,0-.37,0a3.11,3.11,0,0,1-.86-.1A15.28,15.28,0,0,1,3.85,3.8c0-.06.21-.13-.26-.17l.87-.22a2.91,2.91,0,0,0-.59,0s0-.06-.16-.13a3.5,3.5,0,0,1-.85.13H2.6c.2-.13,1.31-.23,1-.38-.52,0-.31,0-.36,0,.48,0,.27,0,.32.08h.33V3a2.72,2.72,0,0,0,.64,0c.11-.05-.29-.07-.47-.1s-.13,0-.22.07H3.72c-.51-.07-.81-.15-.83-.23a3.42,3.42,0,0,1,.64,0H4A8.45,8.45,0,0,1,5,2.9a5.12,5.12,0,0,0,.78-.06v-.2a5.61,5.61,0,0,1-.82,0c-.43,0,.11-.07.11-.11H4.53c.07,0,.51-.06.59-.1s-.07-.17-.53-.23h-.4a3.72,3.72,0,0,1-1-.08c-.09,0,.3-.12-.19-.18a5.81,5.81,0,0,1,.59,0h.33s0-.09-.47-.12c.49-.06.49-.12.47-.18l1-.06-.86-.07,1-.12h.32a3.89,3.89,0,0,0,1.11-.1H6.25c.4-.06.24-.13.27-.2.52,0,.16.08.54.09H7.6a4.67,4.67,0,0,0,1.12.1h0c-.09,0-.7,0-.64-.06s.43,0,.31-.1A2.59,2.59,0,0,0,7.61,1H7.26L6.82.94C6.7.87,6.93.81,6.54.72c-.15.11.09.2-.39.28S5.71.93,5.31,1,5.24.86,5.17.81a4.59,4.59,0,0,1-.9-.1h.81c.26,0-.24-.16.43-.2C5,.42,4.12.45,3.57.39L4.85.3h.21c.37,0-.19-.15-.37-.19H4.41a3.53,3.53,0,0,1-.65,0h0A7.84,7.84,0,0,1,2.39.23c-.25,0-.06-.09-.12-.14h1L3.14,0H1.63C.35-.08.15-.14.45-.3a13.78,13.78,0,0,1,1.47.16c.5-.21,0-.23,1.5-.25A8.5,8.5,0,0,0,1.83-.56a4.18,4.18,0,0,0,1,.08C2.19-.42-.31-.49.54-.4c-1.4,0-2-.19-.78-.31a1.41,1.41,0,0,0-.29,0H-1l-.83.07h.61A7.77,7.77,0,0,1-3.8-.29c.47.11-.44.23-1.2.11s.75-.26,1.33-.29c-.25,0-1.3-.11-1.58-.1.47,0-1.08-.05-.73-.06a19.56,19.56,0,0,0-2.16.25,17.52,17.52,0,0,0,2.51,0c-1,0,0-.17.57-.17,1.4,0-.57.19-.86.22a35.78,35.78,0,0,1-3.59.09c-.29,0-1.32.06-2.06.06.58,0,1.45.11,1,.21A5.47,5.47,0,0,1-11.78-.1c-.52.1.92.23.63.31a7.31,7.31,0,0,1-1.62,0c-.78,0-2,.06-2.94,0-.51,0-1.86-.27-.26-.25h.24l-1-.1a12.32,12.32,0,0,1,1.49,0c.15.06-.85.26.71.28,0-.1-.39-.22-.1-.31s1.15,0,1.56,0c-.6-.1-2.29-.1-3.2-.13,0,.07.9.07.91.14-1.12,0-1.31,0-1.46.11a7.75,7.75,0,0,1-1.6,0,6.6,6.6,0,0,1,1.54.1c.39.22-1.23,0-1.55,0,.32.1-4,.11-4.58.1A32.24,32.24,0,0,0-26.69,0h1a10.18,10.18,0,0,1-3.39-.25c-.11,0,0,.08.43.08-.43.1-1.94,0-.66-.09-1.34-.07-.5-.1-.4-.22-.6,0,0,.09-.65,0-.36.06.18.12-.8.12a1,1,0,0,0,.44.06c-.68,0,1.29.16.62.22a5.68,5.68,0,0,1-1.23-.16c-.59.09.55.2.38.29s-.14,0-1.18,0c-1.58,0-4.19,0-4.14-.31-.41,0-.69,0-.55.06.59.07-1.65.15-1.85,0s.38-.09.8-.11c-.49,0-.84-.08-1.23-.1l.08.15c-.71,0-.34-.08-.39-.12-.4,0-.61.2-.88.2l-1.54-.24c-.43.25-2-.15-3.22,0,2,0-2.05.37-1.21.13l-1.56.08c-.39,0-.26.12-.81.15S-49-.31-50.39-.15c-.56.06,0,.26-1,.29-.56-.09.14-.09.1-.18-1,0-.67.22-1.41.26a10.59,10.59,0,0,0-1.86-.29h.29a13.48,13.48,0,0,0-2.29,0c-.82,0,.14-.16.16-.17a5,5,0,0,0,1.4,0c-.49,0-1.22-.13-1.62-.12s-1.37.21-.15.16a12.89,12.89,0,0,1-1.76.06c.57,0,.8.07.68.14-.56,0-1-.11-1.07-.09,2,.33-1.1.21-2.93.17-1.66,0-4,0-2.64-.32-.43,0-1.46.14-1.68.11.54.12.58.28-1.23.28-.08,0,.48-.14.2-.16a3.38,3.38,0,0,0-1.1,0h-.37c-.61,0,.68.1.36.14.1,0-1.5.07-1.18.08-1.07,0,0-.13.28-.19-.25,0-1.74.1-2,.12A.54.54,0,0,1-71.06,0s-.65.08-.34.06A8,8,0,0,1-72.5,0a2.7,2.7,0,0,0-.57.18c-.2.07,1.16,0,.22.14-.77,0-.2-.08-.58-.15-.68.07.29.22-.17.29-.26,0-3.16-.28-3.73-.3.13.08-.43.08-.87.08-1.1,0-.31,0-.42-.08-.55,0-2.6.1-3.25.06-.46,0-2-.19-.71-.21a16.17,16.17,0,0,0-2.51-.1h.5a8.2,8.2,0,0,1-2.1,0h.8c.27-.1-1.55-.13-2-.11l.55.07h-.35a1.62,1.62,0,0,1,.44,0c-1.14.05,0,.26-1.46.37-.86-.06-.48-.27-1.68-.16s0,.33-1.15.39c-.71-.08,0-.11-.17-.2-.77,0-.68.3-1.27.31l-1.5-.22C-95.21.23-96.16.12-97,.05A20.22,20.22,0,0,1-100.3,0h-1.8c-1.69,0-3,0-4.64-.06h-.42c-.17,0-.75-.09-.82-.1s.56.27-.19.19c.32.06-1.18.18-1.58.19-1.19,0-.78,0-1.09-.1s.75-.22-1-.2c-.79,0-1.28.14-2,.16.21.08,1.13.08,1,.16h0a5.58,5.58,0,0,1-1-.12c-.44.1,1,.2.79.29h-2.87c-1.34,0-1.67-.08-1.8-.23-.44,0-.72,0-.14.11a18.46,18.46,0,0,1-2.23.07c-.08,0-.81-.24-.7-.26H-121c1.1.15-1,0-.73.06-.31,0-1.44.1-.92.09A10.81,10.81,0,0,1-124,.28c-.12-.12.39-.08.9-.16-.69,0-2,.16-2.65.12-.46,0,.37-.16.29-.19-.34-.15-.8.09-.68-.14a19,19,0,0,1-2,.13c-.47,0-1.52-.13-1.76-.12.9.12-.26.23-.64.24S-132.75,0-133.18,0c.49.11-.84.17-1.08,0a4.08,4.08,0,0,0-.94.07h0c-.25,0-.31,0-.27-.06a28.67,28.67,0,0,1-3.59,0c.3.06-.43.08-.45.13a8.3,8.3,0,0,0,1.41,0c-1.09.26-2.09-.21-3.31-.1.44,0,.58,0,.43.07a2.73,2.73,0,0,1-.7,0s-.17.09-.64.1c-.28,0-.17-.09.34-.12-.43,0-1.2.17-1.44.15L-144,.07a3.72,3.72,0,0,1-.65-.19,1.29,1.29,0,0,1-.75.1c0,.08.73.17-.25.22-.55,0-.61-.08-.17-.13-1.26.06-1,.42-1.94.07a15.39,15.39,0,0,1-2.54,0c.13,0,1.23-.07,1-.13a9.89,9.89,0,0,0-1.33,0c1.61.07-.77.26-1.66.24-.11-.06.45-.17.38-.24s-2.85.21-3,.2c.56.09-1,.16-1.34.06l1.72-.22c-.9-.11-2.94.27-4.49.06a17,17,0,0,1-4.16.14A11.65,11.65,0,0,1-161.32.1c-.29,0-2.23-.14-2.15-.18s.87-.13-.43-.15c.75.1-.08.07-.45.12s0,.08-.16.09a2,2,0,0,0-.78,0,6.88,6.88,0,0,0-.9.1c.7,0,1.32.1,2.12.09a20.06,20.06,0,0,1-3,.1c.54.13-1.06.11-1.7.1l1-.09h-.58a2.81,2.81,0,0,1,.58,0c.47-.06-.47,0-1.16-.14,1,0-.08-.05.6-.1-.35,0-.8.1-1.37.1-1.46,0-.6,0-1.08-.1a10.6,10.6,0,0,0-1.78.15,21.45,21.45,0,0,0,3,0,8,8,0,0,1-2.92.24c-.82-.08-.35-.25-1.36-.32a3.31,3.31,0,0,1-.77,0c.09.15,1.22,0,.23.26a4.22,4.22,0,0,1-2.06,0s1.9-.3-.64-.17a16,16,0,0,1-2.07.23c-.22-.12.5-.08.82-.18-.82,0-2,.21-2.52.17.1,0-.46-.31-.39-.33a16.7,16.7,0,0,1-1.87.07c-.13-.09.35,0,.45,0,.25-.09-1.4-.21-1.64-.26,1.15,0,.34-.14.4-.12A4.21,4.21,0,0,0-183-.27h-1.26a5.17,5.17,0,0,0,.55-.07A10.25,10.25,0,0,0-185-.28c.28,0,.63.07,1,.1-.54,0-1.08,0-1.61.07h0a4.34,4.34,0,0,0-.88.06c1.39.11-.06.07-.21.18s.7.08-.15.17a11.92,11.92,0,0,1-1.69,0c.1-.1,1.48-.13.41-.2s-1.93.13-2.77,0c0-.07.57-.07.9-.1a16.63,16.63,0,0,1-2,0c-.06-.06.15-.11.62-.14h-.16s-1,0-.1-.07c-.18,0-1.66.25-1.05,0a11.8,11.8,0,0,1-1.46.08c-.16-.09.23,0,.16-.11-.75-.06-.48,0-.53-.07-.88,0-1.14.17-2,.13-.13-.07.12-.11.75-.11-.75,0-1.87.13-2.75.11a2.57,2.57,0,0,1,.78-.1,4.94,4.94,0,0,0-1.33.09,2.11,2.11,0,0,0-1,0c1,0,1.23,0,.68.05a6,6,0,0,1-.73,0c-.4,0-1.28,0-.91-.08-.52,0-.9.11-1.4.13s-.88,0-1.45,0c-1.53,0-2.87-.06-4.34-.15a6.1,6.1,0,0,1-2,.06c-.19,0,1.09.06,1.21.09-.17,0-2.5.16-3,.18s-1.09,0-1.57,0c-.32,0-.93-.13-1.06-.13H-215c.18.16-.16,0-1.26,0,.83.2,1.11.23-.12.27h-2.73A7.05,7.05,0,0,1-221,.15a4.61,4.61,0,0,1,.72-.15c-.34,0-.83-.07-.55-.09a10.58,10.58,0,0,1-2.25,0,1.82,1.82,0,0,0,.57,0h-1.84a3.9,3.9,0,0,0,.9-.19h-.62c-.22,0,0,.05.27,0a5.87,5.87,0,0,1-1.87,0c.23.07-.19.16,0,.22S-224,0-224.3.16a8.17,8.17,0,0,1-1.31-.1c-.22.09,1.59.24,1.28.29H-228c-1.19,0-3.28-.12-1.33-.24-.94-.06-.1-.12-.34-.21-1.08.06.32.26-1.06.27-.67,0-1.22-.18-2.22-.18-1.84,0-2.32.44-5,.18A5.52,5.52,0,0,1-236.69.1.87.87,0,0,0-237,0a7.93,7.93,0,0,1-1.54.12c.12-.1.23-.13,1.07-.13a1.7,1.7,0,0,0-.61-.06c.46,0,.38-.07.33-.09h-1.07c1.17.08,0,0-.34,0s-1.26.11-1.61.09a13.06,13.06,0,0,0,2.16.14,16.1,16.1,0,0,1-2.69,0c-.5-.06-.08,0-.19-.14s.6-.32-.46-.33c.31,0-.5.15-.73.17a6.74,6.74,0,0,0,1.27,0c-.56.27-2.3-.05-1.72-.11l-1.08.1c.93,0,2.06.19.39.17A4.68,4.68,0,0,1-245-.09c0,.25-2.55-.11-2.06-.09h-.15c-.06,0,.54.1.05.09a1.54,1.54,0,0,1-.64-.11,2.19,2.19,0,0,0-.95.13c-.12.1,1.59.32-.57.23.09,0-.84-.21-.75-.12-.11-.11.4-.09.65-.2a15.37,15.37,0,0,0-1.79.23c1.74.15-.78.13-.16,0-.55,0-1.25-.27-2.32-.3-.51,0-3,.2-2.74,0-1,.05-.94.24-.59.31.19,0-3.75,0-2.12-.08h-.15a.67.67,0,0,1-.41-.11l-.57.09c.07,0,.89,0,.66.08a12.43,12.43,0,0,1-2.2.11c0-.13,1.59-.18-.22-.22a3.91,3.91,0,0,0-1.18.06c-.76,0-3.49.29-2.09,0-.81,0-.27-.08,0-.12a14.61,14.61,0,0,0-1.87.06c-1.1.11-.49.06-.23.16a10.7,10.7,0,0,1-1.7,0c-.27,0,1-.12,1.05-.14-.7,0-2.22.23-2.85.14-.34,0,.27-.12-.33-.18.24.09-.76,0-1.09,0a15.75,15.75,0,0,1-3.07-.06c-.14,0,.28-.11.31-.11h-.06a.72.72,0,0,0-.29-.06s-.9.08.06.14a7,7,0,0,1-1.88-.1,16.3,16.3,0,0,1-2.21,0c-.18,0,1.3.35-.54.1.17,0,1,.16.79.21a5.57,5.57,0,0,1-1,0h-2.66c.35,0,.45.06.29.11a3.17,3.17,0,0,1-.87,0c0,.06,1.09.22.9.26h-2A15.31,15.31,0,0,1-288.66.2c1,0,1.4.07,2.31,0-.36-.15-1.28-.23-.77-.39a4.2,4.2,0,0,0,1.12,0,6.72,6.72,0,0,1-1.27-.1c0,.06-.29.06-.63.08-.57,0,.25.07.29.11-.74,0-.94,0-.64-.11-1.36,0-2.38.13-.85.25a12.56,12.56,0,0,1-3-.14c.12.05-.16,0-.46,0h0c-.49,0-1-.14-.14-.16.34,0,.48.07.41.12a6.34,6.34,0,0,0,.75-.07c.24,0-.17-.08-.51-.14h0l-.31-.06a1,1,0,0,1-.33.09h.45l-.32.05c-.24,0-.33,0-.35-.05a20.68,20.68,0,0,1-2.57,0h-1.2c-.57,0-1.17-.06-1.69-.1-1.6.19,2.12.32,2,.46a10.22,10.22,0,0,1-1.56-.1c-.18.11,1.85.24,1.57.31l-3.32.07a8.1,8.1,0,0,1-2.73-.2c.94,0,1.37.07,2.27.05a4.31,4.31,0,0,0-1-.25c-.67,0-1.89.08-2.52,0a1.86,1.86,0,0,0,.81.12,17.83,17.83,0,0,1-2.83,0c-.45.24-.25.12-1.28.14s-2,0-3-.14c.64-.06,2.56-.08.45-.19-1.08,0-2.09,0-3.2,0h-.72c-.21,0-1.43-.18-1.83-.17-.23,0-.25.09-.42.11-.92.09-1.36.21-2.54.29-.43,0-.22-.21-.72-.23-.16.21-.41.2-1.9.21.79.29-1.89.52-2.67.14.21.18-1.74-.19-1.87-.23-.88-.27-.22-.19,1.12-.23-.6-.07-.48-.07-.44-.16-.77,0-1,.18-1.64.21h-.76c-.05.11-.56,0-1.17,0,.13.08,1.33.09,1.21.17a2.22,2.22,0,0,1-.89,0c-.15.08,1.52.13,1.18.2a31.81,31.81,0,0,1-3.78-.1h1.31a.26.26,0,0,1-.11-.07h0a.53.53,0,0,0-.42-.2c0,.35-3.64.23-3.34,0l-.62.1c-.07,0,0,0,.21-.06h-2.87c-.94,0-.31-.12-1-.2s-1.78,0-1.75-.16c0,.11.72,0,.11,0h-1.55l-1.42.2-.49-.06c.14,0,.13.1,0,.14l-1.83-.05c-.46,0-.32-.1-.86-.1-1,0-1.16.09-2.57,0a.16.16,0,0,1-.16.15c-.4,0-.49-.08-.89-.08.06,0,.66.18.34.22l-2.1-.07h-.25c-.51,0-3,.08-2-.12a9.93,9.93,0,0,0-1.5.07c.3,0,2.55.07,1.5.14-.59,0-1.09-.08-1.63-.09,0,.09,2.14.18,2,.24l-1.71.07-1.41.07h-1.7c-1.17-.07-.75-.13-.2-.2-2.53-.12-.25.09-1.64.08-.26,0-1.15,0-.45-.08-.89,0-1,.19-1.62.18-.07,0-.78-.18-.86-.2l-.58-.09a8.42,8.42,0,0,0-2-.18c.41,0-.4.18-.67.19-.61-.06-.07-.13-.09-.19-.55.09-1.12-.07-1-.12a6.11,6.11,0,0,0-1.2.12,3.65,3.65,0,0,1,1.23.12,3.4,3.4,0,0,1-1.19,0c-.29.11,1.45.14,1.48.23s-2.73.12-3.05.13A10.62,10.62,0,0,1-372-.1c.89-.06,1.32,0,2.2,0a3.92,3.92,0,0,1-1-.28s1.28-.15-.09-.16c-.91,0-.52.09-1,.15h-.17a13.52,13.52,0,0,1-1.8,0,4.92,4.92,0,0,0,1.27.11c-1.06.11-3.7-.07-2.66-.12-.62,0-.72,0-.33-.09a20.66,20.66,0,0,1-2.08-.08,13.35,13.35,0,0,1-2,0c.23.14,0,.06-.5.11a4.51,4.51,0,0,0,.53-.08,12.7,12.7,0,0,0-1.5.15,9.91,9.91,0,0,1-2.31-.08c-.17,0-.35.17-.57,0,0,0,.14.15.06.17a8.39,8.39,0,0,1-1-.06c-.25.26-1,0-1.11,0-.89,0-.41.22-1.08.25a1.89,1.89,0,0,1-.7-.17c-.87.11-.83-.12-1.2-.14a29.69,29.69,0,0,1-4,.09c-1.92-.13.72-.12.61,0,.18-.08,1.7-.18.68-.25A5.24,5.24,0,0,0-393-.47c-1.5.12-1.16.31-2.35.15-.27,0,.36.2.11.21s-3.06-.12-3.11-.13h-1.3c.35,0-.38-.15-.38-.15h.76a19.33,19.33,0,0,0-2.28.1c-1.14.1-.66.08-1.06.17a19.64,19.64,0,0,1-3.75-.23c.72,0,.68.08,1.32.09a.54.54,0,0,1,.16-.1h0c.16-.09.34-.19.19-.22a8.52,8.52,0,0,1-1.24.09c.3-.05-.55-.14-.71-.16s-.11.17.2.22h-.38a1.94,1.94,0,0,0-.76,0c-.34-.09-.05,0-.67,0h.09a3.77,3.77,0,0,1-.95.06c-.37-.06.4-.15.72-.16h.16c-.06,0,.05-.07.15,0h.25c.85-.14-2.39-.07-2.57-.08s.59.09.63.13a7.88,7.88,0,0,1-1.19,0h0c.21,0,.38-.05.1-.08h-.74c.06.08.06.11,0,0H-414c-.72.09-1.07.13-.81.2a9.75,9.75,0,0,0-1.66.07c.1,0,.64.06-.56.09h-2.09c-1,0-1-.33-2.23-.35.2.18-.84.12-1.86.16-.4,0-.08.08-.29.1-.84.07-.48,0-1.19.06q-.6,0-.36-.09c-.29,0,0,.16-.1.18a14.14,14.14,0,0,0-1.72-.07c.32-.08-.26,0-.78-.12a5.69,5.69,0,0,0-1.08-.13c1.06.14-2.27.56-3.22.22h.9c-.11,0-.54-.1.05-.13h-1.58a1,1,0,0,0,.47.12c-.77,0,0,.08.2.1-.37.07-2,0-1.83-.14a5.58,5.58,0,0,1,1-.12h0s.3,0,.31-.08a26.94,26.94,0,0,1-5-.07c-.32.06.35.1-.11.15h-.36a.11.11,0,0,1-.09.1c-.09,0-.82-.06-1.14,0H-440a10,10,0,0,1-2.32.13c.19-.11,1.22-.1,1.55-.2a1.94,1.94,0,0,0-.83,0c-.16,0-1.74,0-.55,0l-1.13.1c-.22-.08.24-.4-1.25-.26-1.18.12-.44.36,1.2.27-1.24.59-4.89-.19-5.84-.08.65,0,1.21.22.93.28a5.39,5.39,0,0,1-1.7,0,2.8,2.8,0,0,0-1,0c-.44,0-.29.08-.37.14s.77.23,0,.3-.19-.1-.56-.19c-.67.06,0,.31-.6.34L-453.9.28c-.53-.05-1.12-.09-1.67-.15L-456.92,0h0c-.57-.06-.92-.13-.46-.24l.62.19c-.06-.23,1.57,0,1.88.07a2.65,2.65,0,0,1,1.18-.23h1.45c-.35-.24-1.68-.14-3.44-.12a6,6,0,0,1-1.2,0,2,2,0,0,1-.75-.26c-1.33.11.19.21-.08.28A11.85,11.85,0,0,1-459-.38c.45.12,1.49.12.32.23-.49.06-1.53.17-1.56,0a6.32,6.32,0,0,1-1.23,0c.56.08-.46.08-.75.11.08-.08-2.29-.24-2.15-.27-.31,0-.68.07-1.1.09h-.7a2.64,2.64,0,0,1,.55.15c0,.19-1.15.08-.88,0-1.26.09,1.24.57-1.62.21a9.54,9.54,0,0,1-2-.06c-.38,0-1.06.06-1.27.05s-.41-.06-.67-.07c-.82,0,.23-.29-1.62-.08-.7.08-.28.29-1.45.32-.58-.1.23-.11.24-.21-1,0-1,.25-1.73.27s.06,0-.58-.08a9.85,9.85,0,0,0-1.08-.19,1.71,1.71,0,0,1-.78.12c-.31-.08.28-.06.41-.15-.34,0-1.66.21-1.78.18A2.34,2.34,0,0,1-481.1,0c-.54.1-.33-.06-.21-.09s-.45.07-.45.07c-.83.05.11.12-.11.16-.73,0-.79-.25-1.37-.29,0,0,.32.21-.13.22.28,0-2.27-.13-2.22-.12-.76.44-1.38,0-2.24,0,.57,0-.62.12-.5,0-1,.07-.42.3-1.61.32-.54-.1.23-.09.25-.2-.8,0-1.27.27-1.84.27a5.36,5.36,0,0,0-1.1-.27c-.26,0-1.4-.17-1.79-.17a5.53,5.53,0,0,1-.9.11,2.24,2.24,0,0,1-.68-.1,3.7,3.7,0,0,0-1.15,0,12,12,0,0,0-1.59,0,6.11,6.11,0,0,1-.86.06q.35,0,.69.06a2.43,2.43,0,0,1-.66,0c.1.06-2.46.16-2.94.17a17.19,17.19,0,0,1-1.9,0c-.91,0-.44-.19-1.24-.24h.08a10.82,10.82,0,0,1-1.8,0c-.33.1.85.2.06.28s-.16-.08-.51-.15c-.7.06.19.21-.3.28,0,0-3.77-.25-3.27-.41a7,7,0,0,1-1.3.09c-.43-.23-.58-.08-2.12,0-1.72-.17.06,0-1.45.09-.3,0-.3-.06,0-.09a1.92,1.92,0,0,0-.63.14A8.78,8.78,0,0,0-519,0c.18,0,.4-.08.64-.11h-.81a2.36,2.36,0,0,1,.45-.08,15.69,15.69,0,0,0-1.68,0,6.92,6.92,0,0,0,1.2.08,9.88,9.88,0,0,0-1.19.05c.23.08,1.51.08,1.17.19a5.21,5.21,0,0,1-1.11-.1c-.34.1,1.11.18,1,.27s-6.9,0-5-.26c.47,0,1.38.12,2,.13-.4-.13-.61-.23.44-.31a2,2,0,0,1-.59-.09c-.15.11-3.75,0-1.77.23-1,0-1.14-.09-1.75-.09.43,0-1.77.06-1.72.06a11.81,11.81,0,0,1-2.91,0h.52c.14,0,.56-.08.6,0-.09-.14,0,0,1-.06A5.38,5.38,0,0,0-530-.23a2.24,2.24,0,0,1-.57.13,5.65,5.65,0,0,0-1.08.07c-.28.07.3.07.11.1-1.75.29-.53-.1-3,0,.44-.08-.1-.14.95-.21h-.9c.25,0,.24-.07,0-.09a7.62,7.62,0,0,1-1.51,0c.69,0,.35-.06-.31,0s-1,.06-1.39.1a15.89,15.89,0,0,0,2.39,0,4.82,4.82,0,0,1-1.85.24c-.84,0-.58-.16-1-.22-.09,0-1.32.09-1.65.15,1.51,0-.58.26-1.43.13-.27,0,.31-.24.35-.29-.34,0-1.78.07-2.33.07a5,5,0,0,1-.55,0h-1.51l-.11.06c-.11,0-.05,0,.09-.06h-2.36c-.74,0-2.16,0-3.15.07.08.06.4.21-.07.25-.94-.07-.21-.12-.62-.22-1.24.11.25.62-1.92.21a5.58,5.58,0,0,1-1.91-.1,10,10,0,0,1-1.45.14c-.18-.06,0-.1.58-.11-.42,0-1.53.13-1.73.11a.62.62,0,0,1-.16-.31c-1.26,0-1.75.18-3,.19-.07,0-.09-.09-.07-.14-.51,0-1.78,0-.89-.1-1.11,0-.67,0-.8.09-.31-.06-.56.17-1.53.16-.22-.09.2-.11.73-.18-1,0-3.07.39-2.29,0-.58,0-2.06,0-2.82,0,.16,0,.44,0,.59,0-.4.06-1.14.08-1.64.12L-570,0c.3,0,.76.06.45.1a2,2,0,0,1-.59-.07s.15.06-.18.1A35.7,35.7,0,0,1-574.18,0a4.72,4.72,0,0,0,1-.07,10.85,10.85,0,0,1-1.4-.06h.18a10.55,10.55,0,0,1-1.59,0c.07.07.09.18-.71.19-.15,0,.28-.16,0-.18A4.78,4.78,0,0,1-578,.11c-.64,0-.24-.14-.47-.17H-580c.14,0,1.09-.07.86-.11-.61,0-.82,0-.61-.1-1.63.17-.6-.14-.11,0a7.32,7.32,0,0,0-2.38.14h1.74c0,.07-.28.11-.83.13a2,2,0,0,1,.68.07A11.66,11.66,0,0,1-582.89,0c.43.17-1,0-1.33,0A2,2,0,0,1-585,0a10,10,0,0,0-1.55,0c-.64,0-.83,0-.45-.13-1.55.09.37.37-1.9.17a.24.24,0,0,1-.22-.12,2.82,2.82,0,0,1-.82,0,4.11,4.11,0,0,1-.68-.21,4.38,4.38,0,0,1-.72.15,3.74,3.74,0,0,0-.72.05c-.15,0,.43.08.27.1-.34,0-.46,0-.37-.07-.34,0,.33.09,0,.15A7.58,7.58,0,0,1-594-.11a1.94,1.94,0,0,1,.59.05,2.56,2.56,0,0,1,.87-.1c.12-.09-2.26-.1-1.65.1-1.62.08-.57-.09-.44-.15-.42,0-1.7.2-2,.17s-.1-.1,0-.14c-.8,0-1.72.06-2.11,0A22.43,22.43,0,0,0-601,0c-1.75,0-.79-.15-.73-.09.58-.17-1-.06-1.43-.1.74.09.29.13-.24.11h-.45v.06h0c-.27.12-1.45.1-1.36,0-1.79.16-1.4,0-1.55-.12-.28.06-.74.11-1,.15a15.76,15.76,0,0,1-4,.2c.45-.11,1.27-.06,1.81-.14a8.42,8.42,0,0,1-1.62-.09c-.67.08.43.12-1,.18,0-.07,0-.42.78-.35.14-.19-1.84.12-1.23.06-.73.07-1.09.14-2.09.19a18.64,18.64,0,0,0,2.48.11,15.19,15.19,0,0,1-2.78.13c-.71-.08.07-.18-.06-.28a8.08,8.08,0,0,1-2.14-.07h1.13c-.37-.12-.39-.08.14-.19-.7-.06-1.4,0-2.18,0-.13.13,1,.09,1.55.12-1.53.19-2.73-.16-1.86-.17h-1.3c.33.09.58.28-.68.29-.35-.1.72-.13-.58-.13-.81,0-.41.14-1.24.13-.18,0,0-.08.42-.1-.58,0-.82.11-1.31.11-.21,0,.27-.11-.27-.12.25.06-.37.2-.92.22A7.29,7.29,0,0,1-626.21,0c-.72,0-1.59.14-2.36.13-.43,0-.45-.13-.58-.13a7.61,7.61,0,0,0-1.07.11,15.08,15.08,0,0,1-3.29,0,13.73,13.73,0,0,1,1.7-.11c-.26,0-.87-.12-1.21-.14,0,0-.14.06-.51.06,1.57,0-.19.11-.68.12-.1,0,0-.08.34-.1-.71,0-.4-.06-.4-.08h-.19a.61.61,0,0,1,.19,0h0a13.26,13.26,0,0,0,1.53-.17c-1.49,0-4.22.34-1.54.36a13.84,13.84,0,0,1-1.93.07c.21,0-2,0-3.66-.07H-640c-1.12,0-2-.12-1.75-.2a33.36,33.36,0,0,1-4,0,14.8,14.8,0,0,0,1.62-.16,12.1,12.1,0,0,0-2.17-.11c-3.14,0,0,.13-.14.26a2.42,2.42,0,0,1-.89-.06c-.15.08,1,.11,1,.18a32.49,32.49,0,0,1-3.56-.08h1.3c-.39-.15-.4-.1.24-.22-.91-.08-3.48,0-1.8.14-.71,0-.77.06-1.6.08.57-.1,1,0,0-.15,0,.08-.49.08-.7.15s.43.09.37.11a6.23,6.23,0,0,1-2.54.22c0-.07,1.17-.16.95-.22-1.59.22-.67,0-1.59,0-.54,0-2.18.12-2.68.09.11-.13.71-.06,1.29-.14-1-.07-1.64.13-2.52.1-1.57,0,.45-.17.3-.22a8.81,8.81,0,0,0-1.35-.13h-.13a1.22,1.22,0,0,1-.27,0c-.11,0-.59-.13-.83-.16-.38.13-.39.23-2.16.18a15.88,15.88,0,0,0,1.68-.15l-1.27.08c-.85.07-1,0-.35-.05,0,0-.95.12-.95.09s.15,0,.17-.08a5.68,5.68,0,0,1-2.56.07c-.27,0,0-.11-.34-.15-.64-.08-.91,0-1.68-.08h-1.2c.65.06,1.42,0,.53.11h1.08c.26.19-.22.21-.73.32s-.64,0-.66.06c.14,0,.11.07-.08.1h-.5c0,.06.08.13-.15.15a5.55,5.55,0,0,1-1-.09c0,.06-.13.09-.47.09a5.23,5.23,0,0,0-.54-.12c-.54,0,.14.27-.33.29a5.62,5.62,0,0,1-1-.15h-.93a6,6,0,0,1-1.58-.22c-1.31.07-1.3.34-2.14.36-.58-.1.21-.09.21-.2-1,0-1,.28-1.79.28-.37,0-.46-.19-.45-.18a.91.91,0,0,1-.94-.11L-682,0h.3c.19.12-.76.15.5.21-.06.05-1.66.12-1.73.15-.37.1.35.15.9.06.56.12.52.51-.66.3-1.31,0,.07.38.41.43-2.44.08-2.07.39-2.76.58a8.58,8.58,0,0,0,2.47-.3c.17,0,.16-.16.4-.19.47-.06,1.37,0,1.91-.05s-.22.14-.14.2,1,0,.86.09c-.31.13-.44,0-.91.06a4.84,4.84,0,0,0-1.73.29c-.08.24,1.51.18.85.06-.73.07-.78-.09-.1-.1,1.55,0,1.38.21,1,.33a4.45,4.45,0,0,1-1.15.18c-.51,0,.11-.15.08-.16-.51.06-2.17.35-1.17.45s.75-.19,1.24-.29c.79,0,.44.14,1.23.05.05,0,.12.25.13.24h-.27a7.49,7.49,0,0,0-1.35.09c-1.39.18,0,.24-.14.34.34,0,.55-.18.05-.12a1.08,1.08,0,0,1,.61-.1c1.39,0,.43.34-.37.41a6.92,6.92,0,0,0-1.36-.16c.09.07-.2.24-.73.24.13,0-.37-.11-.37-.16l.75-.11a.33.33,0,0,1,0-.14l-.08-.17s1,0,0-.16c-1.45.14-1,.3-1,.53s.12.2,0,.28-.92,0-1,.12c1-.08.29.07.89.09a7.43,7.43,0,0,0,1.22-.28,7.32,7.32,0,0,1,1.23.19c0,.12-.36.08-1,.16h-.92c-.06.06.12.09.54.07a1.55,1.55,0,0,1,.52.1h.51c.65,0-.07.09-.12.11a2.75,2.75,0,0,1,.66,0c.16.07-1,.14-1-.07a5.3,5.3,0,0,0-.65.28c.52.08.41.14-.33.17l-.43.08c-.16.09-1,.32-.61.4.64-.06.58-.22,1.09,0a4.76,4.76,0,0,1,2.57-.46,4.52,4.52,0,0,0,1.16.24,8.4,8.4,0,0,1-1,.07c.33,0,.38.07.17.1s-.2,0-.25-.1a4.18,4.18,0,0,0-.91,0c-1.11.16-.55.5.9.32,0,0-1.62-.26.19-.17.84,0,.65.24.54.33s-.48,0-.64.1.55.09.11.13a2.66,2.66,0,0,1-.89,0c-.29,0,1.3,0-.47-.11,1.74-.13.06,0-.49-.13.11.2-.65.21.31.33a7.44,7.44,0,0,0,2,0c.25.07,0,.16.16.22s1,0,.86.11a6.61,6.61,0,0,1-.89,0,9.36,9.36,0,0,0-1.82.24c-.47.16.37.32,1.47.16h-1.08a2.94,2.94,0,0,1,1.25-.12c.92,0,.31.14.21.23s-.86.21-1.1.33a2.44,2.44,0,0,1,.54,0c.15,0,.06.18.11.21L-681,7a6.64,6.64,0,0,1,1,.1h-1.17c-.18,0-.27,0-.27.07a8.7,8.7,0,0,0-1.82.27,9.77,9.77,0,0,0,1.53,0c-.08,0-1.08,0-.66-.08l.81-.09.88.13c-1.31.12.17.32-2,.29a.27.27,0,0,1,.19-.07,4.92,4.92,0,0,0-.94,0c.79.1-.38.2,0,.32,1.25-.08.11-.21,1.93-.18,0,0,.22.23.29.21h-.52c-.54.09-1,.16-1.51.27a6.14,6.14,0,0,0,1,0c.36-.12-.76-.09.82-.13-.45.11-.2.24-.92.32l-.41-.09c-1.26.23.88.28-.06.52a4.18,4.18,0,0,0-1.5.44c-.08.09-.15.11,0,.19s.9.16.8.24a3.41,3.41,0,0,1-.64.1c.46,0,.68.11.6.18h.72c0,.13-1.76.21-1.66.4a4.4,4.4,0,0,0,1.61-.19c.55-.12,2-.19,1.13-.06l1.57.14a14.44,14.44,0,0,0-2.3.11c-.87.15,0,.14.64.19.07-.09-.51,0-.59-.07a4.2,4.2,0,0,1,1-.06c-.17.11.34.22-.49.31-.24,0-.33,0-.29-.08l-1.14.07,1.52.28a2.89,2.89,0,0,1-.83,0c-.47,0-.15.11-.89.12l.34-.05a2.89,2.89,0,0,0-.72,0c0,.05.76.14.88.2s-.83.19,0,.29c.38,0-.08-.12.45-.13a8.34,8.34,0,0,0,1,0c.42.1-.06.25.26.32a8.3,8.3,0,0,0-1.41,0c-.86.09-.31.24.56.14h-.61a3.63,3.63,0,0,1,1.85,0c.27.18-1.61.12-1.64.38-.45,0-.07-.08-.35-.09-1,.09-.47.1.06.2-.45.1-1.4,0-1.4.24s.9.2.86.4-.5.22.61.34a13.14,13.14,0,0,1,1.53.12c1-.11.1.06.92.06-.52.1-1.44.09-2,.14a2.88,2.88,0,0,0-1.2.19,1.67,1.67,0,0,0,.5,0h.37s-.06-.13,1-.07c-.7.14-.13.34-1.35.44-.08,0-.15-.22-.12-.23a4.69,4.69,0,0,0-.75,0c.77.08.41.5,2.3.21-.08,0,.74.33.86.24-.16.12-.38,0-.51.05-1,.15-2.56.22-.25.13.11.06.42.46.26.46.81,0,.57,0,.57.18,1.51,0,.56,0,1.11.14h-1c.24,0,.3.07.11.09s-.23,0-.24-.08h-.56a5.76,5.76,0,0,0-1.54.36h1.33c-.44.07.25.12.78.05-.19,0-1.19-.05-1-.11s.28-.18,1.24-.09c.8.08.33.14.21.25s-.33.15-.86.25-.85,0-.89.14c-.07.37.21,0,1,.15a11,11,0,0,1,1.37.35,3.75,3.75,0,0,1-.67,0h-.14a2.79,2.79,0,0,0-1.31.16c1,.17,1.9-.05.71.28.7.07,1.11,0,1.11.1h-1.66c-.45.12.62.38-1.65.42.81.12-.67.46-.93.59.24-.13,1.06.05,1.23.06.56-.16.34-.27.84-.42.18-.05.75-.17,1-.21l.16-.11a12.71,12.71,0,0,0,1.52-.06,3.57,3.57,0,0,1,.75.33,10.15,10.15,0,0,0-3,.36c3.32.06.29,0,1.5-.13,2.42-.22-.06.77-.46.31-.85-.08-1.33.21-1.23.26a4.56,4.56,0,0,0,1.8.19s.31.27.47.2c-.21.09-.38,0-.74.08-.18,0-3.16.39-.76.32,0,0-.62-.2.25-.14s.36.1.18.24l1.13-.09c.08,0-.34.29-.49.32-.8,0,.52-.18-1-.14-.93,0-.19.11-.38.15a3.28,3.28,0,0,0-1.39.47c-.17.18.08.45-.18.6s-1.31.14-.3.43c.35-.13.55-.26.85-.37s.58,0,.66-.14-.47-.18-.36-.28a6.69,6.69,0,0,1,1.38-.43c.16,0-.38,0,.09-.09s1.24-.05,1.76-.09q.13.1.12.21a8.42,8.42,0,0,1,1,.08l-1.72.14c-.77.08-1.56.2-1.46.38h1.59c.16,0-1.36-.36.78-.22,1.58.11-.56.42-1.17.5s.66-.11.2-.16c-1.24.13-1.06.35.57.16,1.09.14-1.17.15-1.25.21s1.42.06,1,.22a17.09,17.09,0,0,0-2.77-.05c-1.19.13.45.09.36.09,1.3,0,1.1-.13,1.42.13l-.39.11.41.08s-.19.16-.2.18.64,0,.54.06a5.42,5.42,0,0,1-.57,0c-.18.06-1,.06-.92.18s1,.05,1.1.07-.25.1-.21.15-.07.24-.37.41c-.68,0-.69-.23-.44-.27-1-.1-1.52,0-1.46.13l.75.1a8.28,8.28,0,0,0,1,.13c-.09.07.1.1.58.08a2.68,2.68,0,0,1,.8,0c-.86.19,1,.19.81.26a8.34,8.34,0,0,1-1,0c.12,0-.68.11-.46.09-.68.06-1.88.1-1.77.26a4,4,0,0,0,1.83.09c-.78,0-2-.11-.48-.18s.89.13.86.22.09.26-1.35.26c-.25,0,.67-.1-.08-.13a8.9,8.9,0,0,0-1.55.07c.82,0,1.2.12.75.19,1.42.07.12.12,0,.08a6.37,6.37,0,0,1,1,.1c.22.14-.48.14-.62.23s-.46.47-2.07.17c-.51.09-.65.19-.44.29l-1.58.21c1.36.08.34,0,1.28-.08a2.34,2.34,0,0,1,.38.09c.23,0,.07-.21.38-.26h0a3.72,3.72,0,0,1,.94-.06,3.35,3.35,0,0,1-.71,0c0,.17.34.13,1.32.1.23,0,0,.14,0,.18s.87,0,.7.13-.81,0-1,0c-.84.12-.85.15.25.25h1c.47.1-.49.18-.42.28-.09,0-.65-.17-.31-.18a1.29,1.29,0,0,0-1,.4,5.94,5.94,0,0,0-1.25.1h.52c.15,0-.63.24-.49.13-.08.07-.5.08-.49.17s.42.11,1.23.24c.63,0-.25-.16-.19-.2s.77-.16,1-.26a2.69,2.69,0,0,0,.4-.27c.4-.06,1.27,0,1.65-.07s0,.16.2.22h1a4.73,4.73,0,0,1-.92.12h.51a1.07,1.07,0,0,1-.43.09c-.19,0-.25,0-.22-.08h-.23c-.7.07-1.72.17-1.54.29a4.42,4.42,0,0,0,1.81.08c-.36-.06-2.43-.14-.27-.16,1.21,0,.71,0,.87.15s-.22.36-1.69.36l.65-.17a3.93,3.93,0,0,0-.84,0c-.94,0-.94,0-.85.17a4.05,4.05,0,0,0,.76.2c1.6-.09,1,.08,1.69.18-.44.06-1.08,0-.6.15a2.75,2.75,0,0,0-1.58.1c1.44,0,1.73,0,1.14.15s-2.19.21-.59.43c-3.17.13-2.67.81-2.67,1.15a11.54,11.54,0,0,0,1.66-.18,3.38,3.38,0,0,0,.62.18c.07.11-.15.06-.57.16s-.83,0-.83.12a3.16,3.16,0,0,1,.68.14c.47,0,.08-.06.44-.08,1.37.17-.38.08-.7.14a11.4,11.4,0,0,0-1.13.36,2.13,2.13,0,0,0-.92.14c-.2.14-.12.2.69.2a5.65,5.65,0,0,1,2.47-.41c2,0,0,0,.58.1-.35.07-.22.12.4.12.41,0,.57,0,.48.05s-.89,0-1.35.09c-1,0-1.29.07-1,.19h.79c.63,0,.94,0,1,.08-.21.05-.3.11-.28.17l1.18-.16c.51.11-.62.14-.8.2a2.94,2.94,0,0,0-.42,0c-.26,0,.6.08.19.14a9.26,9.26,0,0,0-1.29,0c.35.05.45.11.32.17.9,0,1.43,0,2.27-.06-.22.1-.75.19-.23.3a2.17,2.17,0,0,1,.51,0,.14.14,0,0,0,0,.09,6.68,6.68,0,0,0-1,0h-.11c.32,0,.38.07.17.1s-.22-.05-.24-.09l-.41.08a8.85,8.85,0,0,0-1.16.05,9,9,0,0,0-.88.28,11.43,11.43,0,0,1,1.52.06c0,.06.31-.15-.12-.1,0,0-.67-.21.92-.13,1.06.06-.24.65-1.14.69s0-.24.27-.35a9.86,9.86,0,0,0-1.88.14c.56.06,1,.2.44.3,1.43,0,2.14,0,2.07.23s-.95,0-.46,0c-.92,0-2.77.32-.7.32.16,0-.65-.21.48-.12.68.06.08.12,0,.17a1,1,0,0,1-.83,0c-.35,0-1.93.12-2,.11s.32.22.24.31l.38.12a3.84,3.84,0,0,1-.48,0c-.2.12-.89.22-.86.35s.89.22.84.35c.27-.07,0-.13.09-.21s0-.16.38-.28a3,3,0,0,1,.71-.21,5.93,5.93,0,0,0,1.11-.08c.11.08.23.15.35.22.31,0,.45,0,.4.07l-1.11.08c-.7.11-1.4.09-.79.26a1.67,1.67,0,0,0,.83-.06H-683c-1-.06,1-.09,1.24-.08a.46.46,0,0,1-.31.3,1.52,1.52,0,0,1-.91-.07,1.84,1.84,0,0,1-.74,0,.55.55,0,0,0-.24.12H-685c1.71.2-2.12.83-.06.9a8.07,8.07,0,0,0,.94-.33,1.6,1.6,0,0,1,.59-.24,8,8,0,0,0,1.1-.08c.08,0,.86.22.88.19-.09.13-.39,0-.86.11l.68.06a12.46,12.46,0,0,0-1.73.1c-.3.07-.18.27,1,.18a5.08,5.08,0,0,1-.66-.07,8.1,8.1,0,0,0,.86-.13c.38.08.81.36.25.42-.82.09-.61,0-.78,0a2.75,2.75,0,0,0-.81,0,2.06,2.06,0,0,1-.6.12c.15,0,1.74.21,1.74.21a13.51,13.51,0,0,1-2.11.13,11.11,11.11,0,0,0-1.41.33c-.27.1,0,.11,0,.18s-.18.06-.35.09a1.64,1.64,0,0,0-.44.09c-.3.1.44.29.44.29.2-.09.74-.2,0-.26h0c1.22.06.71-.1,1.09-.19a9.72,9.72,0,0,1,1.32-.3,5.42,5.42,0,0,1,2.12-.16c.33,0-.32.11-.26.15s1.17,0,.67.1a5.21,5.21,0,0,0-1,.07,7.73,7.73,0,0,0-1.73.15l.88.17c.26,0-.49-.15-.21-.16,1,0,1.09,0,1.27.11l-.4.19a1.08,1.08,0,0,1,.5.09c-.33,0-.49-.09-.73,0-.08,0,0,.13,0,.13a5.58,5.58,0,0,0-1.49.4c-.13.15-.13.36-.59.53-.28.11-2,.35-.2.42a4.09,4.09,0,0,1,2.3-.44v-.13c1.1.06,1.09,0,1,.16h-1c0,.16.81.13.89.23s-.86,0-.86,0a11.74,11.74,0,0,0,1.66.28c-.23.15-1.06.2-1.06.37l.48.25-1,.06a6,6,0,0,0-.84.08V40c-.21.08-.46,0-.69.13s-.1.39-.34.61c.67.12.52.18-.47.2l-.65.09c.09,0-.33.31-.33.33a8.71,8.71,0,0,0,2.08-.47h1.44c.11,0,1.08.14,1,.22s-.34,0-1,.09a7.79,7.79,0,0,0-1.28.08c-.84.19,0,.1.4.22.64-.09-.44-.09.66-.19.67-.06-.85.42,1.08.08.45.09-2.1.66-.29.72a7.53,7.53,0,0,0-1.89.3c-.09,0-1,.45-.22.39a11.65,11.65,0,0,0,1.52-.38,5.79,5.79,0,0,1,1-.23,4.18,4.18,0,0,0,1,0c.54.07.21.18.88.26-.21.06-1.76.09-2.15.16-1.14.21-.06.11.18.24s.25-.09-.2-.12c1.48-.14,1.42,0,.89.17-.26.06.11.1-.41.13s-.87,0-.41-.07c-1-.08-2,.5.94.37.22.06.14.11-.24.16,1.46.07.2.07,0,.11h0c-.27.06-1.53.12-1.45.22s.78,0,.89.11c.28,0-.31-.22.48-.17s.27.09.11.18V44a3.22,3.22,0,0,1-.76,0c-.6.1-.44.06-.29.23s-.08.23-1.15.39c.73,0,.34.26.31.39a1.7,1.7,0,0,0,0,.39c0,.13.27.11.24.13a9.32,9.32,0,0,1-.92.17c-.47.12-1,.28-.13.4a17.47,17.47,0,0,1,2-.45c-.44-.06-.48-.09-.25-.12s.18.06.26.11l.74-.14a4.53,4.53,0,0,1,.9.21c.23.12.63.08-.12.19-.49.08-1.5.09-1.89.2-.69.2.45.11.39.24,1-.13-.31-.1,0-.15a2.77,2.77,0,0,1,1.51,0c.27.14-1.75.67-1.25.37a3.64,3.64,0,0,0-.66,0s.18.09-.36.1c.06,0-.18-.09.36-.1a5.58,5.58,0,0,1,.69-.13c-3-.17-1,.59.94.36a.53.53,0,0,1,.24.23,6.63,6.63,0,0,1,1,.08c-.65.09-1.94,0-2.5.2-1.12.3,1.32.22,1,.16-1.39.09-.22-.23.71-.09.72.1-.79.23.16.34-1.09.08-.21.16-1,.26-.94-.16.38,0-.86-.21l.67-.06c-1.34-.07-1.43,0-1.41.15a6.61,6.61,0,0,0,2.38.21c-.08,0,0,.23.07.19.42,0,.54,0,.37.07a2.44,2.44,0,0,1-.54,0c-.21,0-4.48.45-.91.37,0,0-1.18-.31.56-.15.76.06-.55.52-1,.58-.29,0-.31-.16-.4-.18.17,0,.23,0,.2-.08l-.86-.07c-.41.1-.3.12-.26.19s.78,0,0,.12a7.37,7.37,0,0,1,2.37.36s.56.25-.8.17c-.41,0,.28-.09.08-.08a5.69,5.69,0,0,0-1.64.22c-.46.24.2,0,.53.2.46-.08-.55-.25.76-.23s.52.11.31.22,0,.17-1.38.19c.8-.12-.16-.11-.59,0-.08,0-.14.28-.06.28,1,.06.63-.14,1.12-.17h1.36c.29,0-.36.1-.21.13s.87.08,1,.12-1.47.09-1.69.12c-.57.06-.69.2-1.34.24a14.77,14.77,0,0,0,1.63,0c-.21-.09-.71,0-.71-.11,1.71-.17,1.55.23,1.09.31s-1.77.1-2.27.18a2.43,2.43,0,0,1,.66.14c.58,0,.34-.14.73-.19s1.07,0,1.4-.09.09.13-.15.16a6.65,6.65,0,0,1,1,.11,8.19,8.19,0,0,0-1.31.08l-1.1.24h1.35c.2,0-.63-.11-.64-.12h1.53c-.45.15-.25.29-1.08.39-.65-.24-1,0-1.74,0-1.27-.14,1-.36-.22-.53-.92-.13-.71.17-.76.24s-.78.28.38.34c-1.33.08-1.85.29-.83.42a11.13,11.13,0,0,0,1.39-.42,1.43,1.43,0,0,0,1-.06s1,.24,1,.23c-.12.16-.33.06-.93.13-1.06.14-1.55.15-1.42.39a3,3,0,0,1,1.11-.22c1.07,0,.51.11.53.16.1.23-.83.27-2,.11,0,.2-2.61.36-1.3.53,1,.14,1-.11,1.21-.16-.29-.13.08-.17,1.1-.12.19,0,.41-.07.66-.1v.26h1.08c.13.1-1,.07-.86.16a2.21,2.21,0,0,1-.37-.08c-.07.11-2.59.23-1.5.41a5.53,5.53,0,0,1,2.18-.14c.07,0-.11.18-.14.21-.64.39-.91-.06-2.48.09.54.11-.73.33-.91.46s-.76.55.35.42c.43,0-.07.08.54.09-.18-.16,0-.31,0-.43s-.18-.21.13-.28c.88-.2,2.31-.24,2.31,0,.4,0,1.06-.07.76.09-.14.08-.49,0-.75,0a6.74,6.74,0,0,0-1.41.26c0,.13.61.24,1.35.1-2-.09,1.78-.24.4.14-.55.15-.43.14-.8.06-1.33,0-.83.24-.54.35.92,0,1.25,0,.62.14h1.4c-.17.16.37.13-.12.28a7.89,7.89,0,0,0-1.61.13c-.17.11,0,.15.92.15.23,0-.66-.21.89-.12-.23.05-.19.26-.4.28a2.73,2.73,0,0,1-.7,0h-1c.11,0-.25.09-.57.1-.77-.09.24-.16-.91-.19-.39.3-1.43.56-1.69.86,0,0-.35.21-.31.21a9.65,9.65,0,0,0,1.7,0c-1.35-.14-.18-.41.24-.56a8,8,0,0,1,2-.32,3.66,3.66,0,0,1,.91.27,1.11,1.11,0,0,1-.35.06,1.14,1.14,0,0,0-.29.05s0,.07-.17.08c-1.08.09-.06-.2-1.39.06-.79.15.22.33,1.15.21-.14-.05-1.52-.21.08-.16,1,0,.76.45-.43.41.14,0,0-.08-.27-.09-.71,0-.37.3-.37.36h1c0,.26-.32.11-1.44.21-.49,0-.93.09-.84.17a2.41,2.41,0,0,0,1,0,5.49,5.49,0,0,1,1.51-.1l.38.14c.18.08-.56.28-.56.35s.33.16.33.24-.15.07-.47.19-.62.15-.76.3a1.43,1.43,0,0,1-.42.31c-.17.08,0,.21-.15.28-.32.18-1.17.35-1,.55.56-.07,2.1-.29,2.44-.37-.18,0-.06-.09-.06-.09q.44,0,.42-.09a2,2,0,0,0-.49,0h-.54c-.09,0,0-.07.33-.07a2.29,2.29,0,0,1,.27-.26,8.72,8.72,0,0,1,1.22-.31c.2-.06.31-.11.32-.18A12.38,12.38,0,0,0-679,58.5a2.53,2.53,0,0,0,1.3.26,12.36,12.36,0,0,1-1.72.16c-.61.06-1.58.18-1.45.29s.86,0,1.22.14.55-.08.44-.14c-1.06.11-.64-.19.37-.11,1.29.11-.59.26.6.41l-1.42.08c-.28,0-.23-.09.17-.12h-1.7c-.27,0-.31.36-.13.37.42,0,.61,0,.56-.1.19.06.26.12.24.19,1.06,0,1-.06,1,.13.21-.05-2.39-.08-2.73-.06s-.66.07-1.08.13l1.77.06a5.1,5.1,0,0,0-.74.28c-.16.07-.59,0-.7.1.13,0-.6.45-.26.44h1.68c-.36.08.28.34-1.17.29a4.38,4.38,0,0,1,.64.15s-.47.12-.48.17.33.19.26.21-1.22.1-1.5.16a3.23,3.23,0,0,0-1,.36c0,.08.94.09,1.21.22s0-.08.09-.09c-.14,0,.26-.2.34-.22a7.3,7.3,0,0,1,1.14-.28c.37-.06,1.36-.06,1.64-.12s1,.35.54.37a1.49,1.49,0,0,1-.59.09q-.19,0-.12-.09h.71a9.45,9.45,0,0,0-1.68.07c-.94.14-.85.2.08.36,1.17-.18-.78-.07-.2-.17a3.49,3.49,0,0,1,1.44,0c.13,0-.34.25-.38.28s.3.2-.68.32c-1-.08-.09-.28-.5-.33a6.51,6.51,0,0,1-1.25.06l.76.2a1.25,1.25,0,0,0,.59.19h1.42l.06.14a3.07,3.07,0,0,0,.67.08c-.33.13-.59,0-.91,0a10.93,10.93,0,0,0-2.21.34l1.2.06c-.24,0-.08-.37.93-.14.75.16-2.07.5-1.14.26-.58-.08-.55.06-1.24,0s.21.16-.82.12.13-.15.21-.22.15-.12.09-.18,0-.17.72-.22c.24-.09,1-.07.34-.18a3.09,3.09,0,0,0-2.27.48c-.13.11.07.17.1.27s.46.06.74.14c-1.25,0-1.43.15-1.53.26s.86.16.26.18a10.61,10.61,0,0,0,1.13-.17c.64-.13-.13-.15,1-.29.17,0,.24,0,.23.08a11.85,11.85,0,0,1,1.33-.07c-.5.2-.37.11,0,.29h-1c0,.07.5,0,.59,0s-.56.07-.58.15c0-.1.69.29.3.23l1.42.11a16.36,16.36,0,0,0-2.13.12c.35.11,1.12.06-.34.18.21.06.88.09.74.17-1.16,0-2-.14-2,.13s.4.14,1.38,0a5.74,5.74,0,0,1,1.7-.26,4.18,4.18,0,0,1,1,0c-1-.09.28.18.58.21h0c-.51.06-1,0-1.48.09-.81.17,0,0,.25.16,0,0,.69.17.34.15h1.26c.18.08-.65.17-1,.23A3.36,3.36,0,0,0-681,66c0,.16-.43.29-1.17.42h-.24c-.24,0,0,.18-.25.25s-.56-.05-.77,0c-.53.18-.11.32-.21.48,0,0,0,.35.07.32-.23.09-1.21.09-1.45.14s-.18.21-.36.29c-.52.21-.69.18.8.32-.24-.15,0-.45.53-.57.07,0,1.67-.08,1.89-.12-.48,0-.43-.1.16-.16-.08,0,1.29.22,1.3.2a8,8,0,0,0-1.45.1c.41.13.72,0,.18.16a2.11,2.11,0,0,0-1.06,0A2.42,2.42,0,0,0-684,68h1.07c-.08-.08.07-.25.72-.1.25.06-.16.26-.66.28-.32,0-.49-.07-.44-.07a3.76,3.76,0,0,0-1.25.09c-.48.08-.32.13-.49.22s.06.08.35.12l-.61.07-.85.06c.07.08,0,.16-.31.23h0c1.36,0,2.55-.53,3.28-.21.44.18-.41.1-1.13.22s-1.24.2.19.19c0,0-.5-.23.36-.13s.11.26-.64.33c.59,0,.56.09-.11.13s-.45-.17.22-.21c-1.21-.13-1.42.07-.89.17.34.07,2.14.11,1.24.2l.67,0c0,.07-.32.11-1,.12,0,0-1.65.18-.21.22-.35,0-.08-.24.77-.09.57.1-.45.21-.6.27a4.66,4.66,0,0,0,1.18,0c.84.08.11.48-.08.55h-.53c-.34,0-.3,0,.13.08a7.4,7.4,0,0,0-.92.26,15.29,15.29,0,0,1,2.86-.33c2,.13-.42.22-.86.25.31.14,1.07,0,.88.2a2.63,2.63,0,0,1-1,.17c.43.07.43.28.37.38.48-.07,1.22,0,1.67-.11s.23.12-.21.16h.71l-.51.16c-.18,0-.27,0-.28-.08-1,0-.34.46,1.25.16.51.11-.47.17,0,.29a3.06,3.06,0,0,1-1-.14c-.2.07-.2.15-.49.21s-1.27.14-1.38.21l.79.08a3,3,0,0,0-1.57.33c-.06,0,0,.07.18.09.33,0,.22.09-.32.1,0,0-.67.23.34.11.36.12-.69.14-.94.23-.42.13-.61.29-1.08.43-.63,0,0-.1-.48-.14s-1.12.47-.27.51c1.13,0,.41-.15.43-.16a10.64,10.64,0,0,1,3.45-.54c.07.17-1.36.2.48.23,0,.21-1,0-1.41.16a5.33,5.33,0,0,1,.69.48,8.32,8.32,0,0,0-1.07.12c.11,0,.1.25.49.31s1.22,0,1.61.08c-.22,0,.52.24.55.18-.08.14-.37,0-.63,0s-.81.15-1.29.2a20.52,20.52,0,0,0,2.48,0c.1.11-.34.2-.87.28s0-.11.08-.17c-.2,0-.41,0-.61,0,.18.21-3.51.53-1.22.48.46.06-.1.07-.2.11a3.55,3.55,0,0,0,1.55-.23,16.23,16.23,0,0,0,1.84-.12c.42.08-.31.15-.14.22a2.81,2.81,0,0,0,.71.07c-.27.16.07,0-.8.06a15.65,15.65,0,0,0-1.93.24c-1,.24.43.11.61.26,1.46-.18-.71-.07-.11-.17a8.35,8.35,0,0,1,1.87,0c-.21.08-.93.38-1.05.39-1.3.09-.94,0-.84-.11a6.53,6.53,0,0,1-1.25,0c-.15.07-.19.14-.15.21l-1.32.11a12.33,12.33,0,0,1-1.35.25l1.13.13a11.13,11.13,0,0,1,4.06-.4c.11,0-.47.14-.36.19s.66.14.85.18a13.69,13.69,0,0,0-3,.12c-1.48.18.4.4,1,.21h-.95a3.3,3.3,0,0,1,1.77,0,6.69,6.69,0,0,1-2.24.38c.94,0,1.08.27,1.11.41s-.11.11-.39.15c0,.07.23.13.55.19l-1.49.16c-.07.06,0,.1.32.14-.2.1-1.15.12-.59.24a16.76,16.76,0,0,1,3.73-.51v.21h.07c.3.18-.92,0-1.68.19s-.43.23.83.2c.4,0-.54-.15-.21-.16,1.56-.06,1.11.08,1,.19s-.56.29-.44.28a2,2,0,0,1-.92,0c-.7-.14.43-.07.24-.21-1.17,0-2.13.15-1.67.32,1.31-.16,1.17,0,.64,0,.43.1.73,0,1.2.11,1.18-.13.17.12.21.16s.94,0,.63.16a17.06,17.06,0,0,0-1.75.06c-.23,0-2.21.26-1.07.28.39,0,1.49-.32,2.07,0,0,0-.55.21-.55.2a2,2,0,0,0,1,.26s-4.5.46-1.52.35c0,0,.06-.29.72-.1.24.07-.31.09-.3.16s1.11,0,.24.23c-.87-.1-.16,0-.76,0-.15-.08-.23-.15-.24-.23-1.2,0,.1.4,0,.47-1.19-.14-1.62.21-1.72.33s0,.11.32.15l-.63.09a2.27,2.27,0,0,1-.3.32c-.1.09.12.12,0,.21s-.88.18-1.09.28v.24h1c-.32-.17-.2-.29.68-.42.56-.09,1.88-.18,1.07,0,1.29.06.24.15,0,.19s-1.84.23-.65.2c.13,0,0-.16.47-.13,1.37.08-.17.27-.27.33s-.18.24-.32.35-1.06.38-.57.58a2.35,2.35,0,0,1,.75,0c.56,0,0-.27.1-.34s.78-.16.48-.29a5.67,5.67,0,0,1,1.54,0c.81.11-.1.08.2.23h-.41c-1.13.17-1.29.18,0,.27,0,0-1.26-.21.36-.14,0,.18-1.68.6.78.6a1.09,1.09,0,0,0-.49.19l-1.21-.21c-.23.09-.15.16.26.23,0,0,1.06,0,1.07.17s.64-.17,1.33-.12a4.38,4.38,0,0,0,1.2-.07,12,12,0,0,1,3.21-.4c2.7-.13.57.55,2,.69a6.93,6.93,0,0,1,2.72-.15,5.66,5.66,0,0,1,1.58-.24c.73,0,1.08.06,1.84,0a9.55,9.55,0,0,0,2,0,23.47,23.47,0,0,1,4.1-.34,28.11,28.11,0,0,1,4,.28,16.19,16.19,0,0,1,3.19.19h2.24c1.28-.18,1.61-.23,1.91-.13a5.27,5.27,0,0,1,2.55.3,5.83,5.83,0,0,1,2.24-.07l2.27-.29c1.2,0,3.08.1,4.24,0,1.45-.08,2.05-.3,3.47-.39,1.11-.07,2.86-.06,4.23,0a7.9,7.9,0,0,1,2.73.36,5.12,5.12,0,0,0,2.16.28.18.18,0,0,1,.13.06,12.54,12.54,0,0,1,1.5-.34c0-.1.4-.15,1.18-.15-.08,0,0-.07.19-.09.36,0,.41,0,.15.06h.05a3.41,3.41,0,0,0,1.42-.09A7.34,7.34,0,0,1-618,85c-.86,0,2,.41,1.66.37-.41-.22,2.47,0,2.61,0a51,51,0,0,1,5.8,0c-.55-.12-.14-.19,1.25-.21.52.23.39.26,2.08.4a29.86,29.86,0,0,1,3.54,0,25.55,25.55,0,0,0,4.46,0c1.87-.22-.32-.08.84-.27a17,17,0,0,1-2.47-.12,8.52,8.52,0,0,1,2.66-.24c1.31,0,1,.09,1,.24a6.79,6.79,0,0,0,1.8-.1A11.68,11.68,0,0,1-590,85a14.91,14.91,0,0,1,3.65.27c.94.23.37.38.22.65,2.33,0,.14.22,2.55.12a10,10,0,0,0,1.44-.13c.44,0,1.44-.09,1.8-.13a17.06,17.06,0,0,1,2.67-.21c.47,0,3.17.26,3.63.23-1.31-.1-1.39-.17-.74-.33-1.8,0-2.51-.22-1-.34a9.34,9.34,0,0,1,2.24.13c.08.11.66.14,1.75.08h1.51a8,8,0,0,1,2.29.1l1.22.17a16.05,16.05,0,0,0,2.77-.18c.79-.06,2.65-.09,3.3-.14l1.13-.22H-558a23.84,23.84,0,0,1,4.85.16,1.58,1.58,0,0,1,.43,0s-.18.08-.07.1c.76,0,1.58-.15,2.62-.14,1.46,0,2.8.25,4.25.26.55,0,1.2-.11,1.66-.11a.87.87,0,0,1-.45.1h2.93c-.58-.3.67-.21,1.94-.19l1.89.07c2.82.4-2.51.21-3,.22a15.34,15.34,0,0,0,3.52.16,24,24,0,0,1,2.94.27c4,.29,1.35-.21,3.5-.21-1.2-.09-1.19-.19,0-.28a20.2,20.2,0,0,0,3.3,0,27.19,27.19,0,0,1,4.51.11c0-.1,0-.44,1.63-.23,1.12.14-.31.15-.29.24s.2.22.21.34.09.65,1.4.26c-2,.1-1.07-.38.5-.14a8.16,8.16,0,0,1,3.63-.48,9.84,9.84,0,0,0,2.17,0c1.57-.28-2.87-.2.74-.44l1.87.63a30,30,0,0,1,3.32,0c2.58-.16-1-.28,1.91-.48a7.16,7.16,0,0,0,3.14.47l-.34.18c.34,0,2.13-.07,2.1-.07a2.1,2.1,0,0,1,1.59-.21,9.61,9.61,0,0,1,3.1-.48,30,30,0,0,1,4.24,0,9.56,9.56,0,0,0,2.39,0l.77-.07c1.53.07,2.57.25.8.39.79.06.84.12.79.21a.41.41,0,0,0,.07.11h.15a.17.17,0,0,1-.17,0h-.13v.11l-5.15,0,1.28.3c1.61-.4,1.07-.07,2.69-.09s2.71-.3,3.34-.3h-.1a14,14,0,0,1,2,0c-1.18.14,0,.17,1.06.2.85,0,3.63-.21,2.49.09a23.27,23.27,0,0,0,2.64.06L-476,86a5,5,0,0,0,.94-.16h1.72c.53,0,3.89-.17,4.21-.09-.76-.57,4.48-.07,1.59.12a9.84,9.84,0,0,1,1.8.22,4.26,4.26,0,0,1,.87.17,12.44,12.44,0,0,0,1.36-.1c-.54.1.29-.14,0,0,.54-.17,4.51-.13,4.25-.41-1,0-1.68-.15-.85-.28a12.05,12.05,0,0,1,1.9,0h1.84c-.56,0-1-.07-.8-.17a5.4,5.4,0,0,1,2.82,0,.91.91,0,0,1-.33,0c-.28,0-.62.06-1,.07a31.77,31.77,0,0,1,4.25.23c.25-.14,3.16.06,1.34.19.31,0,1.91,0,1.64.13a9.48,9.48,0,0,1,2.13,0c.29-.14-1.33,0-.34-.21a11.91,11.91,0,0,1,2.46,0c-.26.21-.33.25,1.65.29,2.14,0,2.14,0,2.07-.23a8.48,8.48,0,0,1-1.81.17c-.69-.18-1.48-.28.3-.39l1.57.1c-.06.08.4.06,1.39,0,.34.3.38,0,1.24.18.36.06.39.11-.18.16h2.25a1.42,1.42,0,0,0,.58,0,2.55,2.55,0,0,1,1.1,0c.3,0,1.53.12,1.83.11.49,0,1.46-.21,1.86-.2-.68-.09-2.41.13-3.65,0-1-.12-.36-.33-.07-.43s-.41-.1.84-.21h1.63a34.16,34.16,0,0,1,5.54.15,29.46,29.46,0,0,1,5.86-.29c-.25-.22,1.93-.28,2.86-.08.5.1-.55.14-.44.2a6.33,6.33,0,0,0,.95.25q-1.17,0-1.14.12c.27,0,3.55.1,3,.12,1.08,0,.06,0,.48-.18.1,0-.57-.16-.43-.19a10.83,10.83,0,0,1,2.13,0,54.19,54.19,0,0,1,5.7,0c1.14.06,2.42.08,2.29.28a21.36,21.36,0,0,1,3.2,0c1.48.17-.25.31-1.37.47h1.84c-.31,0-.23-.13.11-.17-.08,0,2,0,2.52-.06a2,2,0,0,1,1.07.17c1-.16.07-.2,1.72-.32-1.09.07-2.39,0-1.9-.14a17.7,17.7,0,0,1-2.06,0c.16-.24,1-.45,2.52-.16.56-.15,3.35.12,1.49.25a33.08,33.08,0,0,1,3.59-.2c-.18-.06.33-.35,1.22-.38,2.31-.08,2.87.35.4.35a9.26,9.26,0,0,0,3.25.68c-1.16-.19-1-.15,0-.38a15.47,15.47,0,0,1,1.92-.36,35.65,35.65,0,0,1,6.45.19,29.81,29.81,0,0,1,5.82-.21,19,19,0,0,0,2,0c.36,0,.19-.09.51-.09H-367c1,0,1.92,0,2.7.06a25.24,25.24,0,0,1,2.74.09c1.3.09.14.21,2.1.22-1.6-.16,3.4-.56,2.7,0,.76,0,2.84-.11,3.37-.2.71-.12-1.06-.2.6-.29,1.92-.09,2.89.26.67.34a10.16,10.16,0,0,0,3.92-.23c-2.35.2-3.26-.23-1.61-.33,1.44-.09,3.23.11,1.95.29,4.94-.06,2.35.32,5.08.52a29.4,29.4,0,0,1,4.5-.16,24,24,0,0,1,3.39.24,46.37,46.37,0,0,0,5,.24,3.21,3.21,0,0,0-1.07-.09,7.16,7.16,0,0,1,2.44-.22c-.38,0-.21-.07.5-.13-1.72-.09,1.64-.5,2.15-.18a28.91,28.91,0,0,1,3.48-.12h1.75l1.41.18h3.86a22.72,22.72,0,0,1,2.85.18l1.58.22-.35.15A5.72,5.72,0,0,0-309,86c-1.26,0-1.69-.08-1.54-.23a11.08,11.08,0,0,1,2.81-.27,29.62,29.62,0,0,1,3.77.06c.82,0,1.15.12,1.74.11-.22-.25-.9-.32,1.2-.41l.48.27a32.66,32.66,0,0,1,5.85-.13,21.53,21.53,0,0,1,2.87.4q4.35.35,8.71.26c0-.17-2.2-.21.1-.37a16.57,16.57,0,0,1,1.73.12h3.33c1.09,0,1.37-.13,2.58-.22.57,0,2.43-.13,3.07-.12,1.1,0,2.38.27,3.47.26,2.59,0,.5-.24,2.91-.26-.34,0,2.16.18,2.08.18a2.08,2.08,0,0,1,.61-.07,1.36,1.36,0,0,1-.53.07,3.12,3.12,0,0,0,1.14,0c-.74,0-.8-.22-.21-.26a7.88,7.88,0,0,1,1.94.1,4.17,4.17,0,0,0,1.17.07l.61-.09a13.35,13.35,0,0,1,2,0c.7,0,.77.66,1.41.2H-256c.48-.17-.46-.13,1.51-.24l.48.21h7.1c-.39-.24-1.21,0-1.91-.15s-.6-.16.2-.28c-2.23.28-3.63-.47-.65-.4,2.12,0,.76.24,1.23.31,1.14.18,2,0,2,.29a34.74,34.74,0,0,1,4.78-.27l3.35.08.52.17c1,0,2.61-.09,3.84-.06.82,0,1.9.21,2.59.25a2.3,2.3,0,0,1,.74.06c1.17,0,1.71,0,1.63.13.59.08-.55.11.55.18h1.72c1.33,0,4.49,0,2.25.28l1.11.08a3.81,3.81,0,0,1,2-.29c.15-.14.75-.13,1.78,0l.89-.1a3.31,3.31,0,0,1,1.33,0l.88.07a7.49,7.49,0,0,0,1.77,0c-1.42-.16,1-.38,2.23-.28a20,20,0,0,1,4.16-.22c-.22-.12-.63-.34,1.17-.32,1.58,0,1,.19,1.24.26-.83.07-.64.14.56.2l1.12.12a7.45,7.45,0,0,1,2-.09,5.51,5.51,0,0,1,1.9,0c.59-.14,3.1-.48,3.7-.12.33.21-1.9.16-2.19.27,0,0,.42.14.38.18,1.84,0,.07,0,.79.16,3.34-.11-.23-.27,1.73-.49l1.73.33c.21,0-.45-.15,0-.21a11.74,11.74,0,0,1,2.29-.19,34.08,34.08,0,0,1,4.52.1c.93.12,1.87.2,2.81.23.28,0,1.45-.06,1.94-.06A19.38,19.38,0,0,1-179,86c-.77.09-.9.32.23.22-1.52-.25,2.59-.18,3.28-.21.89,0,3.83-.2,4.93-.15a1.48,1.48,0,0,1-.42,0c1.06.11,2,.2,3.11.29.09,0-.45-.13-.36-.14s1.22-.13,1.43-.17c-1.25,0-1.65,0-1.21-.12-.24-.14.3-.2,1.64-.17-1,.06,1.68.12,1.53.12-2-.43,3.8-.28,2,0a19.4,19.4,0,0,0,2.53-.13c.62.07,2.57,0,3.47,0-.26,0,0-.1.35-.11,0,.13-.38.15.72.26-.26-.15.88-.28,1.41-.08-.31-.72,4.92.06,0,0,.25.09,1.18,0,2.16.1a9.39,9.39,0,0,1,2.75.16s2-.17,2.22-.17c2.63-.06,2.54.25.71.24l2.24.15c.06-.12,1.88-.24,1.47,0,3.45-.16-.59-.28,1.44-.55l1.72.27a34.06,34.06,0,0,1,3.64-.25,29.19,29.19,0,0,1,4.18-.12c1.73,0,2.33.09,3.84.08a25.52,25.52,0,0,1,3.91,0,25.62,25.62,0,0,1,4-.43,27,27,0,0,1,5.75.26,12.55,12.55,0,0,1,2.74,0c.91.19-1.16.25-1,.34,1.2.16,2.4.26,3.61.3a29.4,29.4,0,0,1,3.51.1c.28-.21-3.21-.22-1.13-.49.28,0,.84-.07,1.5-.09a2.81,2.81,0,0,1,.65-.07h3.19c1.21,0,1.35.12,2.49.12.87,0,1.15-.14,2.2-.09,0,0,3.29-.4,3.6-.41.79,0,3.77,0,4.36.08l.79.2h.93c.71,0,1.43,0,2.14-.1,1.27-.09,1.66-.14,3.23-.18h4.77a9.72,9.72,0,0,1,2.41,0c-.39-.72,6,.09.57.09l2.21.16v.15a4.84,4.84,0,0,1,1.37.08l.82.18c.41-.13.14-.25,1.64-.3.34,0-.27.12.4.11l2.54-.11.87.08a22.52,22.52,0,0,0,2.31.09c.42,0,1.77-.08,1.77.09h1.2a7.4,7.4,0,0,0,1.63,0h2.49a11.77,11.77,0,0,1,1.51.12c1,.06,1.2.12,2.62.16.8,0,2.09.11,2.48.12h3.09l.3.24c1.21,0,2.24-.33,3.54-.39.8,0,3.23-.17,4.34-.21a20.34,20.34,0,0,0,3.31.27c-1-.13-3.75-.12-2.06-.32a9.61,9.61,0,0,1,3.42.2,29.28,29.28,0,0,1,5.92,0c-.26-.14.09-.21,1.05-.19-.7-.15-.3-.23,1.17-.25.55.21,0,.06.92,0s2.09-.06,3-.12a12.18,12.18,0,0,0,2.56.06l2.37-.16,1.57.08a38.56,38.56,0,0,1,4.56.09c-.48-.13,0-.19,1.34-.19l.7.34q1.5-.08,3,0s1.43.11,1,.19,2.43-.16,2.37-.09.63.23.63.23H.52a5.46,5.46,0,0,1,1.8.12Zm-688.86-.5c.75,0,1,0,.65-.12a.64.64,0,0,0-.65.11Zm0-4.39c.13-.09.48,0,.66-.12a.55.55,0,0,0-.31,0h-.35c-.19.06,0,.07,0,.07Zm0-10.29.13.08c.48,0,0-.11.39-.14s.52.06,1,0c-.63-.06-.19-.17-.93-.23-.3.08-.54.15-.57.23h0Zm0-.5a3.75,3.75,0,0,1,.72.06c-.14-.08.28-.18-.32-.25a10.09,10.09,0,0,1,1.22-.23,8.65,8.65,0,0,0-1.25-.06c-.41.07,0,.11-.06.14l-.31.09s-.37.06-.12.11-.3.15.12.14Zm3.19-1.53a12.64,12.64,0,0,1-1.63-.13l.82-.11C-684.22,68.43-683.23,68.46-683.3,68.57Zm.2.71c-.46-.09.18-.1.34-.15C-682.3,69.22-682.94,69.23-683.1,69.28Zm1.62,1.28a4.09,4.09,0,0,1-.7,0A2.06,2.06,0,0,1-681.48,70.56Zm-.07,1,.66-.09C-680.78,71.54-680.81,71.6-681.55,71.56Zm.21-.18c-.16,0-.22-.06-.17-.09h.58c.4.07-.14.09-.41.13Zm-.06-6.5c-.29-.1.45-.13.39-.2C-680.49,64.77-680.88,64.82-681.4,64.88Zm1-1.46s0,.06-.13.09C-681,63.51-680.77,63.42-680.4,63.42Zm.71.32c.08.07-.16.11-.62.15C-680.56,63.8-680.08,63.78-679.69,63.74Zm-2.69-2.94a2.71,2.71,0,0,1-.41-.09C-682.4,60.71-681.79,60.71-682.38,60.8Zm1.27.65v.19a5,5,0,0,1-1.07-.24h1.07Zm2.1,1c0,.11-.41.18-.85.27C-680.33,62.57-679.58,62.53-679,62.45Zm-1.73,4.8H-681a1.13,1.13,0,0,1,.26,0c0-.14-.62-.06-1.46-.12.12.11,0,.21-.46.3-1.19,0,.64-.76,1.13-.86a5.78,5.78,0,0,1,2.11-.21c.36,0-.29.1-.2.13s.74.06,1,.12H-680c-.12.07.65,0,.56.07a6.09,6.09,0,0,0-2.4.27,9.34,9.34,0,0,1,1.18.07c.85-.1-1.07-.24,1.38-.18-.5.09-.11.22-.46.29a8.42,8.42,0,0,1-1,.08Zm1.25-.14a8,8,0,0,1,1.54-.2A4.73,4.73,0,0,1-679.49,67.11Zm-1.26,6.74V74h.71s.72,0,.18.13c-1.58,0-1.93-.18-.89-.33Zm-.9.77c-.34-.1.15-.12.37-.16C-680.77,74.54-681.49,74.56-681.65,74.62Zm-.39.45q-.36-.06.06-.09C-681.54,75-682,75.06-682,75.07Zm.21-.09c.07-.08-.54,0-.69-.07a9.37,9.37,0,0,1,1.06,0c.12,0,0,.08-.37.1Zm2.9-1.16-.66.09C-679.7,73.84-679.67,73.78-678.93,73.82Zm.17-.67c-.3,0-.22,0-.24-.09a8.44,8.44,0,0,0-1.59.2c-.82.24-.35.18.88.14H-680a2.18,2.18,0,0,0,.72,0c-.06-.1-1.13-.06-.46-.18s.93.07,1.59,0c-.69.17.11.36-1,.45s-.63,0-.49-.09c-.58-.08-.55.06-1.22,0-.44,0-.64.1-.62.18-.73,0-.45-.57-.23-.66a8.26,8.26,0,0,1,1-.29q-.4-.15.69-.12a4.61,4.61,0,0,0,1.11-.07c.47.06,0,.17.11.19-.25,0,.53.17.62.06s.5,0,.36.07-.9,0-1,.06c.34,0,.39.08.18.11Zm-3.58-15.79c-.35-.08-.2-.11.44-.08A1.63,1.63,0,0,1-682.34,57.36Zm1.16.75a1.57,1.57,0,0,1-.43.09c-.23,0-.3-.06-.22-.09Zm-.58-2.91V55C-681.34,55.07-680.7,55.14-681.76,55.2Zm.65-.84s0,.06-.13.09C-681.77,54.45-681.48,54.36-681.11,54.36Zm-1-11.2c-.2-.09.13-.12,1-.08A3.72,3.72,0,0,1-682.11,43.16Zm.85-9.51c-.16,0-.22-.06-.17-.1a5.42,5.42,0,0,0,.57,0c.4.07-.12.09-.4.14Zm.7,4.45c-.44,0,0-.09.06-.09Q-680.12,38-680.56,38.1Zm-.6-1c.25.13-.61.14-.85.2C-682.19,37.2-681.54,37.18-681.16,37.1Zm.41-1.29c.15.08-.43.12-.45.22C-681.57,35.91-681.42,35.85-680.75,35.81Zm-.82,2.53c-.29,0-.22-.05-.24-.08l-.66-.11c-.51,0-.7.12-1.33.14-.11,0,.46-.19.56-.25s-.17-.1-.48-.14l.85-.07c.27-.1-.45-.15.57-.21s1.45.1,1,.21a6.54,6.54,0,0,1-1,0,1,1,0,0,1-.7.17h1c.16,0-.47-.19.55-.11.64,0-.56.14.28.22-.13.07-.72,0-.72.06.43,0,.47.07.24.11Zm1.62.88c.62.05.09.18-.41.2,0,0-1.27-.08-.55-.14a1.44,1.44,0,0,0,1-.06Zm.76-15.16c-.1-.11.28-.18.9-.23A1.91,1.91,0,0,1-679.19,24.06Zm.9,2.81c-.1.09-.3.17-.9.23C-679.29,27-678.91,26.92-678.29,26.87Zm-.86,13.72c-.43-.13.33-.17.91-.25C-678.24,40.45-678.59,40.52-679.15,40.59Zm1.34,4.38c.59.11,0,.16-.17.27C-679.12,45.09-677.66,45.14-677.81,45Zm-1.56-5c-.06,0,.08.11-.51.09S-679.53,40-679.37,40Zm-1.23-.61c.45,0,0,.09,0,.09C-680.85,39.48-680.83,39.42-680.6,39.39Zm-1.82,1.45c-.45,0,0-.09,0-.09C-682.17,40.75-682.18,40.81-682.42,40.84Zm1-.15c-.38-.13.64-.1-.67-.08a6.46,6.46,0,0,0-.88,0c-.44,0-.28.23-1.07,0l.7-.27c.19-.16,0-.23.58-.38a11.67,11.67,0,0,1,1.17-.27c.43-.06,1.69-.06,2-.13.48.08-.37.15-.17.19a5.38,5.38,0,0,1,1.08.15c0,.09-1.48-.08-1.43.09-.82,0,0,.1-.94,0-.88.16-1.78.54.58.35-.42-.09-1.09,0-.94-.11a9.55,9.55,0,0,1,2,0c-1.25.17.26.44-2,.4Zm-.12.17a1.62,1.62,0,0,1,.65-.14v.16h-.65Zm.72,1c-.16,0,.32.11-.36.14q.1-.07-.33-.12a2.66,2.66,0,0,1,.69,0Zm-1,2.31c0-.05,0-.17.67-.09Zm1.58-.39c.25,0,.23.06,0,.09C-680.69,43.87-680.24,43.78-680.24,43.78Zm-.21.28c-.06,0-.66.18-.71,0Zm.55,2.3c-.46-.09.18-.1.33-.16C-679.11,46.3-679.74,46.31-679.9,46.36Zm.26,1.22a1.83,1.83,0,0,1,.92-.18C-679,47.46-678.72,47.56-679.64,47.58Zm-.19,2.29-1,.12C-680.78,49.91-680.45,49.87-679.83,49.87Zm.09,1c0,.09-.38.11-1.13.15Zm-.16-2.06c-.46-.1.18-.11.33-.16C-679.11,48.75-679.74,48.76-679.9,48.81Zm-.18,3,.63-.08C-679.35,51.8-679.45,51.84-680.08,51.81Zm.18,2.78c.31.1,0,.16-.89.19C-680.6,54.69-679.91,54.66-679.9,54.59Zm-.31-.94c.24.05-.39.25-.95.16C-680.66,53.81-680.87,53.67-680.21,53.65Zm-1-1.58a2.73,2.73,0,0,1,.7,0A2.06,2.06,0,0,1-681.21,52.07Zm.74.62c.05.05-.25.08-.59.11C-681.06,52.72-681.06,52.72-680.47,52.69Zm0,3.28a2.7,2.7,0,0,1,.69-.07C-679.63,56-679.85,56-680.47,56Zm.15.86L-681,57c-.2-.11-.13-.17.79-.21Zm0,1.54c-.25,0-.23-.06,0-.08C-679.87,58.29-680.32,58.37-680.32,58.37Zm.29-.13h-.76a3.09,3.09,0,0,1,.91-.07c.32,0-.49,0-.15.09Zm1-13.5s0,.06-.13.09C-679.69,44.83-679.4,44.74-679,44.74Zm-.36,0A12.55,12.55,0,0,0-681,45c-.29.13-.27.19,1,.23.32,0,.26-.11.34-.12a2,2,0,0,0-.6,0c-.92-.11.91-.2,1.62-.07.39.07-.41.42-1.59.4-.37-.06.5-.09,0-.14a14.84,14.84,0,0,1-2,.16c-.19,0,0-.28,0-.35s.06-.21.57-.38c.15,0,.27-.23.47-.27a16.1,16.1,0,0,0,1.67-.06.41.41,0,0,1,.19.24c.68-.07,1.33,0,.7.09-.31,0-.82-.09-.77,0Zm.56-12.43a4.29,4.29,0,0,1-1.17.25C-680.36,32.43-679.74,32.39-678.83,32.31Zm-.66-3.13c.3.12-.54.13-.81.19C-680.3,29.28-680.3,29.28-679.49,29.18Zm-1.34-1,.67-.08S-680.16,28.26-680.83,28.18Zm0,.26c0,.07-.79,0-.71,0Zm-.79.81h-.29c.22-.06.79,0,.78-.08.71.09.67.49-.75.37.5-.05.4-.08-.3-.08s-1,0-1,.11c-.34.05-.49.22-.54.07s.16-.4.67-.56c0,0,1.3-.32,1.22-.31,1.27-.13,1.45.08,1.51.09-.15,0,.32.12.49.12h-.72c-.16,0-1.72.19-2,.26a4.92,4.92,0,0,0,.94,0Zm-.76,7.15-1-.07a11.32,11.32,0,0,1,1.43-.06Zm-4.15,32.21s0,.08.12.12c.28,0,.68-.27.8-.27a6.64,6.64,0,0,0-.87.16v-.07Zm0-.71h.16c.22,0,.71,0,.41-.15a3.78,3.78,0,0,0-.57.1Zm0-7.42c1.07,0,1.11,0,1.44-.13s-.23-.28-.56-.38l-.88.35h.59c.46,0-.15.09-.59.13h0Zm0-18.4c.32-.13,1.93-.41.15-.43a.26.26,0,0,1-.15.07C-686.95,41.85-686.53,42.08-686.53,42.08ZM1.69-.4s.28.05.22.08A7.15,7.15,0,0,1,.6-.4,6.61,6.61,0,0,1,1.69-.4Zm.6,5.83a5.57,5.57,0,0,1-1,0A5.57,5.57,0,0,1,2.29,5.43Zm.92-.35v.06a4,4,0,0,1-.69,0h.69Zm-.75.58c-.29,0-.19,0-.22-.08a.53.53,0,0,1-.25,0h.25c.43,0,.46.08.24.11Zm0-2.72a3.16,3.16,0,0,1-.81-.11C2.54,2.78,2.06,2.93,2.46,2.94ZM3.57.3H2.66A3.47,3.47,0,0,1,3.57.3ZM4.85.6V.66L3.85.6A4.18,4.18,0,0,1,4.85.6ZM4.68,7.78c.25,0,.24.06,0,.09-.44,0-.55,0-.48-.06a1.77,1.77,0,0,1,.46,0ZM1.86,10.13c.15,0,.19.09-.66,0ZM3.23,9.4a3.7,3.7,0,0,1-.94,0A7.37,7.37,0,0,1,3.23,9.4Zm-1,4.67a3.7,3.7,0,0,1-.94,0A7.37,7.37,0,0,1,2.23,14.07Zm.38,1a2.43,2.43,0,0,1-.66,0A2.43,2.43,0,0,1,2.61,15.07Zm1.8-.41c.3.08-.18.1-.36.13C3.6,14.73,4.18,14.7,4.41,14.66Zm-1.21,4c.1,0,.07,0-.11.07a8.12,8.12,0,0,0-.85-.07,5.57,5.57,0,0,1,1,0Zm-.54,3.85.78.21C2.54,22.67,2.56,22.61,2.66,22.51Zm1,1.44a3.37,3.37,0,0,0-1,.16H1.8A4.28,4.28,0,0,0,1,24H3.61ZM2.13,26.27c.35.08-.13.09-.37.13S1.9,26.31,2.13,26.27Zm.15,4.64a2.43,2.43,0,0,1-.66,0A2.43,2.43,0,0,1,2.28,30.91Zm-.2-2h.39c.34.06-.13.08-.38.12s-.21-.09,0-.12Zm3.54-4.07-1,.12a1.47,1.47,0,0,0-.46-.11H5.62Zm-1.95,2.5c.44,0,.1.07.18.09s.42,0,.63,0v.19c-.55.05-.67-.07-1.13,0-.31-.13.22-.21.32-.3Zm-.14,2.93a1.72,1.72,0,0,1-.64,0A3.42,3.42,0,0,1,3.53,30.27Zm-1,1.19a11.81,11.81,0,0,1-1.19,0A11.81,11.81,0,0,1,2.53,31.46ZM2.92,33a2.36,2.36,0,0,1-.65,0A2.36,2.36,0,0,1,2.92,33ZM2.4,36c.39,0,.41.09.9.1A3.24,3.24,0,0,1,2.18,36Zm.14-.84H2.42a2.62,2.62,0,0,1,.79,0,3.42,3.42,0,0,1-.64,0H2.31A.45.45,0,0,1,2.54,35.16Zm.26-.84-.43,0C2.37,34.31,2.37,34.31,2.8,34.32Zm1.29,4.09H2.66A8.54,8.54,0,0,1,4.09,38.41Zm-.52-.69a2.43,2.43,0,0,1-.66,0A2.43,2.43,0,0,1,3.57,37.72Zm-.66,7.19a1.57,1.57,0,0,1-.61,0A3.11,3.11,0,0,1,2.91,44.91Zm3.56-.74a2.36,2.36,0,0,1-.65,0A1.78,1.78,0,0,1,6.47,44.17ZM2.88,45.81c-.1,0,.57,0,.2.09-.72,0-.38-.09-.8-.11h.6Zm.37,7a6.91,6.91,0,0,1-.91,0A3.47,3.47,0,0,1,3.25,52.81Zm2.44,5c.16,0,.18,0,.07.07a6.91,6.91,0,0,1-.91,0Zm-3.41.87a2.43,2.43,0,0,1-.66,0A2.43,2.43,0,0,1,2.28,58.68Zm.34,1.82a3.31,3.31,0,0,1-.63,0A1.67,1.67,0,0,1,2.62,60.5Zm.9,3.3a1.62,1.62,0,0,1-.62,0A3.21,3.21,0,0,1,3.52,63.8Zm.34-1.58v.09a2.24,2.24,0,0,1-.57-.08Zm.68,2a5.57,5.57,0,0,1-1,0A5.57,5.57,0,0,1,4.54,64.22ZM4.2,65.76a1.57,1.57,0,0,1-.61,0A3.11,3.11,0,0,1,4.2,65.76Zm-1.81,2h.15c.19,0,.52,0,.32.1h-.1c-.17,0-.53,0-.49-.1Zm1.09,1.73.1.07a2.73,2.73,0,0,1-.7,0l.6-.08Zm-.91,2.32a3.21,3.21,0,0,1-.62,0A1.62,1.62,0,0,1,2.57,71.81Zm-.15,1c.26,0,.22,0,0,.08-.43,0-.6,0-.46-.06a1.55,1.55,0,0,1,.43,0Zm1-.36c.07.1.07.1-.42.09Zm3.05.17a3.31,3.31,0,0,1-.63,0A1.67,1.67,0,0,1,6.47,72.62Zm-2.25.3a2.22,2.22,0,0,1-.63,0A1.67,1.67,0,0,1,4.22,72.92Zm-2.81,1h.5l-.46.13c-.21-.06-.22-.09,0-.13ZM2.85,76.4l0,.08a2.29,2.29,0,0,1-.64,0Zm.31-1.76a4.61,4.61,0,0,1-.91,0A6.91,6.91,0,0,1,3.16,74.64Zm0,1.35c-.31,0-.59,0-.55-.1C3.12,75.89,3.12,75.89,3.16,76Zm.14-.87H2.63C2.45,75.07,2.72,75.06,3.3,75.12Zm-.77,4.23H2.36A2.38,2.38,0,0,0,3,79.5a3.63,3.63,0,0,1-1.35-.12,6.31,6.31,0,0,1,.87,0ZM5.24,79c.69,0,.93,0,.91.12H5.24ZM1.6,80a1.87,1.87,0,0,1-.78-.07A3,3,0,0,1,1.6,80Zm.21,5.51a3.21,3.21,0,0,1-.82.07C.71,85.58,1.53,85.5,1.81,85.51Zm.49-1.58.88.06H2.44c-.24,0-.24-.06-.14-.07ZM2.93,81a3.75,3.75,0,0,1,.67,0,4,4,0,0,1-.91.07c-.18,0,.15,0,.24-.06Zm1.61,1.87c.58.07,0,.16.66.2-.54,0-.14.16-.85.19S4,83.07,3.88,83c.19-.06.84-.08.66-.18Zm3.34,2c.23,0,.67.06.47.12a1,1,0,0,1-.43,0c-.2,0-.21,0,0-.09Z"/></g></g></g></g></svg>