<?xml version="1.0" encoding="utf-8"?>
<!-- Generator: Adobe Illustrator 21.1.0, SVG Export Plug-In . SVG Version: 6.00 Build 0)  -->
<svg version="1.1" id="Layer_1" xmlns="http://www.w3.org/2000/svg" xmlns:xlink="http://www.w3.org/1999/xlink" x="0px" y="0px"
	 viewBox="0 0 350 300" style="enable-background:new 0 0 350 300;" xml:space="preserve">
<style type="text/css">
	.st0{fill:#622D50;}
</style>
<g>
	<g>
		<g>
			<path class="st0" d="M179.3,278.4c-45.7,0-82.9-37.2-82.9-82.9s37.2-82.9,82.9-82.9s82.9,37.2,82.9,82.9S225,278.4,179.3,278.4z
				 M179.3,118.6c-42.3,0-76.8,34.4-76.8,76.8c0,42.3,34.4,76.8,76.8,76.8c42.3,0,76.8-34.4,76.8-76.8
				C256,153.1,221.6,118.6,179.3,118.6z"/>
		</g>
		<g>
			<path class="st0" d="M179.3,248.6c-29.4,0-53.3-23.9-53.3-53.3s23.9-53.3,53.3-53.3s53.3,23.9,53.3,53.3
				C232.5,224.9,208.6,248.6,179.3,248.6z M179.3,148.3c-26,0-47.1,21.1-47.1,47.1s21.1,47.1,47.1,47.1s47.1-21.1,47.1-47.1
				C226.4,169.4,205.2,148.3,179.3,148.3z"/>
		</g>
	</g>
	<g>
		<g>
			<path class="st0" d="M52.6,135.8h-0.1c-1.7-0.1-3-1.5-3-3.2l1.6-42.5c0.1-1.7,1.5-3,3.2-3c1.7,0.1,3,1.5,3,3.2l-1.7,42.6
				C55.6,134.5,54.2,135.8,52.6,135.8z"/>
		</g>
		<g>
			<path class="st0" d="M63.2,136.4c-1.7,0-3.1-1.4-3.1-3.1V90.2c0-1.7,1.4-3.1,3.1-3.1c1.7,0,3.1,1.4,3.1,3.1v43.1
				C66.3,135,64.9,136.4,63.2,136.4z"/>
		</g>
		<g>
			<path class="st0" d="M83.8,135.8c-1.6,0-3-1.3-3.1-3L79,90.4c-0.1-1.7,1.3-3.1,3-3.2c1.7-0.1,3.1,1.3,3.2,3l1.6,42.5
				c0.1,1.7-1.3,3.1-3,3.2C83.8,135.8,83.8,135.8,83.8,135.8z"/>
		</g>
		<g>
			<path class="st0" d="M73.1,136.4c-1.7,0-3.1-1.4-3.1-3.1V90.2c0-1.7,1.4-3.1,3.1-3.1c1.7,0,3.1,1.4,3.1,3.1v43.1
				C76.2,135,74.8,136.4,73.1,136.4z"/>
		</g>
		<g>
			<path class="st0" d="M68.3,278.4c-9.1,0-16.5-5.9-16.5-13.2c0-0.3,0-0.4,1.1-10c1.6-13.4,4.2-35.9,4.7-42.8
				c1-15.1,2.9-46.5,2.5-50.3c-0.3-2.8-3-5.5-5.5-7.1c-3-1.9-5.9-6.7-6-10.1c-0.1-2.3,0.5-10,0.6-10.9l0.2-2.8h37.7l0.2,2.8
				c0.1,0.9,0.7,8.5,0.6,10.9c-0.1,3.4-3,8.2-5.9,10.1c-2.5,1.6-5.2,4.3-5.5,7.1c-0.4,3.8,1.5,35.2,2.5,50.3
				c0.5,6.8,3.1,29.1,4.7,42.5c1.1,9.7,1.2,10,1.2,10.4C84.8,272.4,77.4,278.4,68.3,278.4z M57.9,265.2c0.1,3.8,4.8,6.9,10.4,6.9
				c5.6,0,10.3-3.2,10.4-6.9c-0.1-0.8-0.6-4.9-1.1-9.7c-1.6-13.4-4.2-35.8-4.7-42.8s-3-46.1-2.5-51.3c0.6-6.1,6-10.2,8.3-11.7
				c1.5-1,3.1-4,3.1-5.2c0-1.1-0.1-4.4-0.4-7.3H55.1c-0.2,2.9-0.4,6.2-0.4,7.3c0,1.2,1.6,4.2,3.1,5.2c2.3,1.5,7.7,5.6,8.3,11.7
				c0.5,5.1-2,44.3-2.5,51.3s-3.1,29.6-4.7,43.1C58.4,260.4,58,264.5,57.9,265.2z"/>
		</g>
	</g>
	<g>
		<g>
			<path class="st0" d="M288.7,278.4c-7.1,0-12.8-5.9-12.8-13.2c0-0.3,0.5-8.8,3.2-58.4l0.5-8.4c0.1-1.7,1.6-3,3.2-2.9
				c1.7,0.1,3,1.5,2.9,3.2l-0.5,8.4c-1.2,21.3-3.2,57-3.2,58.1c0,3.8,3,7,6.7,7c3.7,0,6.7-3.2,6.7-7c0-1-1.8-31.7-2.9-52l-1-17.8
				c-0.1-1.7,1.2-3.1,2.9-3.2c1.7-0.1,3.1,1.2,3.2,2.9l1,17.8c2.5,44.1,2.9,52,2.9,52.4C301.5,272.4,295.8,278.4,288.7,278.4z"/>
		</g>
		<g>
			<path class="st0" d="M288,200.8h-1.9c-4.7,0-9.2-2.5-12-6.6c-3.2-4.6-3.5-9.2-3.5-14.2v-48.5c0.1-1.2,0.1-2.1,0.1-3
				c0-20.7,7.9-43.8,18.4-43.8c5.4,0,7,7.6,7.7,11.2v0.1c0.3,1.3,1.1,5.4,0.6,93.2c0,1.9,0,3,0,3.3c0,2.2-0.8,4.3-2.2,5.9l-0.4,0.4
				l-0.5,0.3C292.4,200.1,290.2,200.8,288,200.8z M276.7,131.8v48.1c0,5.1,0.3,7.8,2.4,10.7c1.7,2.5,4.3,4,7,4h1.9
				c1,0,2.1-0.2,3-0.6c0.2-0.4,0.3-0.9,0.3-1.4c0-0.3,0-1.5,0-3.4c0.4-78.5-0.2-90.5-0.5-92V97c-0.9-4.2-1.6-5.7-2-6.3
				c-4.2,0.9-11.9,17.6-11.9,37.6C276.9,129.3,276.8,130.4,276.7,131.8z"/>
		</g>
	</g>
</g>
</svg>
