<?xml version="1.0" encoding="utf-8"?>
<!-- Generator: Adobe Illustrator 21.1.0, SVG Export Plug-In . SVG Version: 6.00 Build 0)  -->
<svg version="1.1" id="Layer_1" xmlns="http://www.w3.org/2000/svg" xmlns:xlink="http://www.w3.org/1999/xlink" x="0px" y="0px"
	 viewBox="0 0 45.2 44.2" style="enable-background:new 0 0 45.2 44.2;" xml:space="preserve">
<style type="text/css">
	.st0{fill:#808080;}
</style>
<path class="st0" d="M45.2,13v27.7c0,1.9-1.5,3.4-3.4,3.4H16.2l2.5-2.8h22.9c0.5,0,0.9-0.4,0.9-0.9V13.2h-7c-1.9,0-3.4-1.5-3.4-3.4
	v-7H13.2c-0.5,0-0.9,0.4-0.9,0.9v17.6h3.4c0.7,0,1.2,0.5,1.2,1.1v9h4.3c0.7,0,1.2,0.5,1.2,1.1c0,0.3-0.1,0.6-0.4,0.8
	c0,0-10,10.4-10,10.4C12,43.8,11.6,44,11.3,44c-0.3,0-0.6-0.1-0.9-0.3c0,0-10-10.5-10.1-10.5C0.1,33,0,32.7,0,32.4
	c0-0.6,0.6-1.1,1.2-1.1h4.4v-9c0-0.6,0.5-1.1,1.2-1.1h2.7V3.4C9.6,1.5,11.1,0,13,0h19.7c1.1,0,1.8,0.7,2.2,1.1
	c0.4,0.4,8.7,8.7,9.1,9.1C44.2,10.2,45.2,11.3,45.2,13z M16.8,10h7.5c0.7,0,1.3-0.6,1.3-1.3c0-0.7-0.6-1.3-1.3-1.3h-7.5
	c-0.7,0-1.3,0.6-1.3,1.3C15.5,9.5,16.1,10,16.8,10z M16.8,15.4h7.5c0.7,0,1.3-0.6,1.3-1.3c0-0.7-0.6-1.3-1.3-1.3h-7.5
	c-0.7,0-1.3,0.6-1.3,1.3C15.5,14.8,16.1,15.4,16.8,15.4z M27.3,30.3H37c0.7,0,1.3-0.6,1.3-1.3c0-0.7-0.6-1.3-1.3-1.3h-9.7
	c-0.7,0-1.3,0.6-1.3,1.3C26,29.7,26.6,30.3,27.3,30.3z M27.3,25H37c0.7,0,1.3-0.6,1.3-1.3c0-0.7-0.6-1.3-1.3-1.3h-9.7
	c-0.7,0-1.3,0.6-1.3,1.3C26,24.4,26.6,25,27.3,25z M27.3,35.6H37c0.7,0,1.3-0.6,1.3-1.3c0-0.7-0.6-1.3-1.3-1.3h-9.7
	c-0.7,0-1.3,0.6-1.3,1.3C26,35.1,26.6,35.6,27.3,35.6z"/>
</svg>
