<?xml version="1.0" encoding="utf-8"?>
<!-- Generator: Adobe Illustrator 21.1.0, SVG Export Plug-In . SVG Version: 6.00 Build 0)  -->
<svg version="1.1" id="Layer_1" xmlns="http://www.w3.org/2000/svg" xmlns:xlink="http://www.w3.org/1999/xlink" x="0px" y="0px"
	 viewBox="0 0 100 110.8" style="enable-background:new 0 0 100 110.8;" xml:space="preserve">
<style type="text/css">
	.st0{fill:#A4D55D;}
	.st1{fill:none;}
	.st2{enable-background:new    ;}
	.st3{fill:#FFFFFF;}
</style>
<path class="st0" d="M100,43.2l-2.2-0.4l-1.5-0.3c-0.4-0.1-0.9-0.2-1.5-0.2l-1-0.2v0.1c-1.3-0.1-2.8-0.2-4.5-0.4l-4.9-0.3
	c-1.4-0.1-2.7-0.2-3.8-0.3l0,0c0-0.2,0-0.4-0.1-0.7l-0.1-1.3c0-0.4-0.1-0.8-0.1-1.3c-0.1-0.9-0.1-1.7,0-2.4l0,0
	c0.3-2.9-0.8-10.2-0.9-10.5l-0.5-1.6L78.6,12L77.4,0L46.7,9.6l-1.7,1c-1.3,0.2-2.7,0.6-4.3,1l-0.2,0.1c-0.7,0.2-1.4,0.4-2.2,0.7
	s-1.7,0.6-2.6,0.9c-3.3,1.3-6.4,2.8-9.6,4.4l-1.7,0.9l0.1,0.3c-0.1,0-0.1,0.1-0.2,0.1L24,19.2c-1.8,1.2-3.5,2.5-5.4,4.1
	c-1.8,1.6-3.4,3.2-4.8,4.8c-3,3.4-5.5,7.2-7.4,11.2s-3.3,8.2-4.2,12.4L2,52.6l-0.5,3.2l-0.6,7.8c-0.1,0.8-0.2,1.9-0.3,3.6v0.2
	c0,0.9-0.1,2.3-0.2,2.7l-0.1,0.4v0.4C0.6,75.5,0,94,0,94.2v0.1c0,0.6,0,1.8,0,2.9c0,1.2,0,2.4,0,3c0,0.9,0,1.8,0.1,2.6
	c0,0.8,0.1,1.6,0.1,2.4v1.3l1,0.8l1.6,1.2c0.3,0.2,0.5,0.4,0.6,0.4l0.1,0.1c0.3,0.2,1.8,1.1,2.2,1.4l0.4,0.2l1.2,0.3
	C7.7,111,8,111,8.2,111h2.4c0.9,0,6.1,0,7.8-0.1c3.3,0,24.2-0.4,26-0.4l2.6-0.1c0.4,0,0.8,0,1.2-0.1h0.2c0.4,0,0.7,0,1.1-0.1h0.4
	c4.8-0.3,9.8-1.8,14.7-4.3c4.2-2.2,8.3-5.2,12.3-9L76.6,98l0.8-1.6c0.8-0.7,2-2,3.2-3.5c1.6-2,3.2-4.6,4.5-7
	c1.6-3.2,2.7-6.1,3.1-7.6c0.3-1.1,0.6-1.9,0.8-2.6v-0.1c0.3-1,0.4-1.3,0.4-1.5l0.9-4.1c0.1-0.2,0.2-0.4,0.2-0.6
	c0.3-0.5,0.5-1.1,0.7-1.7c0.1-0.2,0.2-0.4,0.2-0.6l0.4-0.4l0.1-0.9c0.2-1.8,0.8-3.7,1.4-5.4l0.2-0.9c0.1-0.2,0.2-0.5,0.3-0.9
	c0.3-0.8,0.8-2.1,1.1-2.8l0.1-0.1c0,0,0.4-1,0.6-1.6l1.7-5.5c0.1-0.2,0.2-0.5,0.3-0.8c0.2-0.5,0.4-1,0.5-1.5L100,43.2z"/>
<polygon class="st1" points="86.5,84.3 3.7,104.7 3.7,39.5 86.5,19 "/>
<g class="st2">
	<path class="st3" d="M19.4,35.6c0.2-0.1,0.4-0.2,0.7-0.3c0.2-0.1,0.5-0.2,0.8-0.3c0.6-0.2,1.2-0.2,1.8-0.1s1.1,0.4,1.6,0.8
		c0.1,0.1,0.1,0.2,0.1,0.3c0,0.1,0,0.3-0.1,0.4c-0.1,0.1-0.1,0.3-0.2,0.4c-0.1,0.1-0.2,0.2-0.3,0.3c-0.2,0.2-0.4,0.3-0.6,0.2
		c-0.2,0-0.5-0.1-0.9-0.4c-0.4-0.2-0.8-0.2-1.2-0.1c-0.3,0.1-0.6,0.2-0.8,0.4c-0.2,0.2-0.4,0.4-0.5,0.6c-0.4,0.7-0.7,1.5-0.8,2.3
		c-0.1,0.8-0.2,1.6-0.2,2.4c0,0.3,0,0.6,0,0.9c0,0.3,0,0.6,0,0.8c0,0.3,0,0.6,0,0.9c0,0.3,0,0.6,0,0.9v1.9c0,1.9,0,3.8,0.1,5.6
		c0,0.4,0.1,0.9,0.1,1.5c0,0.6,0.1,1.1,0.2,1.7c0.1,0.5,0.2,1,0.4,1.4c0.2,0.4,0.4,0.6,0.7,0.7c0.4,0,0.8-0.2,1.2-0.4
		c0.3-0.2,0.6-0.7,0.7-1.3c0-0.1,0-0.3,0.1-0.6c0-0.2,0-0.5,0.1-0.7c0-0.3,0-0.5,0-0.8c0-0.2,0-0.4,0-0.6c0-0.2,0-0.5,0-0.8
		c0-0.3,0-0.7,0-1.1c0-0.3,0-0.7,0-1.2s0-0.8,0-1.2c0-0.3,0-0.7,0-1s0-0.6,0-0.8c0-0.3,0-0.5-0.1-0.7c0-0.2-0.1-0.3-0.2-0.3
		l-0.8,0.2c-0.3,0.1-0.5,0.1-0.7,0.2c-0.2,0.1-0.4,0.1-0.5,0.1c-0.1,0-0.2-0.1-0.2-0.3c0-0.2-0.1-0.4-0.1-0.6c0-0.2,0-0.4,0.1-0.6
		c0-0.2,0.1-0.3,0.1-0.3l0.6-0.1c0.2-0.1,0.5-0.1,0.7-0.2c0.3-0.1,0.6-0.1,0.8-0.2c0.3-0.1,0.5-0.1,0.8-0.2c0.2-0.1,0.4-0.1,0.5-0.1
		c0.4-0.1,0.7-0.1,0.7,0.1s0.1,0.5,0.1,1v1c0,0.5,0,1.1,0.1,1.7c0,0.6,0,1.2,0,1.9c0,0.6,0,1.3,0,1.9s0,1.2,0,1.7v5.2
		c0,0.3,0,0.4-0.1,0.5c-0.1,0.1-0.2,0.1-0.4,0.2l-0.4,0.1c-0.4,0.1-0.6,0.1-0.6-0.1c-0.1-0.2-0.1-0.3-0.1-0.5v-0.6
		c0,0.1-0.1,0.1-0.1,0.2c0,0.1-0.1,0.2-0.1,0.3c-0.2,0.4-0.5,0.7-0.8,0.9c-0.3,0.2-0.7,0.4-1.1,0.5c-0.4,0.1-0.9,0.1-1.3,0
		c-0.4-0.1-0.8-0.3-1.1-0.6c-0.3-0.4-0.5-0.8-0.7-1.3c-0.2-0.5-0.3-1-0.4-1.5c-0.1-0.5-0.2-1-0.2-1.5c0-0.5,0-1,0-1.4v-0.4
		c0-0.5,0-1,0-1.5s0-1,0-1.5c0-1,0-2-0.1-2.9c0-1,0-1.9,0-2.9c0-0.7,0-1.4,0-2.1c0-0.7,0-1.5,0.1-2.3c0-1.1,0.3-2.1,0.7-3.1
		C17.8,37,18.5,36.2,19.4,35.6z"/>
	<path class="st3" d="M26.5,46.3c0-2,0-4,0-6c0-2,0-4,0-6.2c0-0.1,0.1-0.3,0.3-0.4c0.2-0.1,0.4-0.2,0.6-0.2c0.2,0,0.4-0.1,0.6,0
		c0.2,0,0.3,0.1,0.4,0.1c0,0.1,0.1,0.3,0.1,0.6c0,0.3,0.1,0.4,0.1,0.5v19.1c0,0.2,0,0.4,0,0.6s0,0.4,0,0.7c0,0.1,0,0.3,0,0.4
		c0,0.2,0,0.4,0,0.6s0,0.4,0,0.5s0,0.3,0,0.4l0.1,0.6c0.1,0.4,0.1,0.7,0,0.9s-0.4,0.5-1,0.7c-0.6,0.2-1,0.3-1.2,0.2
		c-0.2-0.1-0.2-0.5-0.2-1.1c0-0.4,0-0.9,0-1.4c0-0.5,0-1,0.1-1.6c0-0.5,0-1.1,0.1-1.6c0-0.5,0-1,0-1.4L26.5,46.3L26.5,46.3z"/>
	<path class="st3" d="M31.2,52.2c0-2,0-4,0-6c0-2,0-4,0-5.8c0.1-0.2,0.2-0.3,0.4-0.5s0.4-0.3,0.6-0.4c0.2-0.1,0.4-0.1,0.6-0.2
		c0.2,0,0.3,0,0.4,0.1c0.2,0.2,0.3,0.5,0.3,0.8c0,0.3,0,0.6,0,0.9v2.1c0,0.8,0,1.7,0,2.6s0,1.7,0,2.5v1.3c0,0.3,0,0.6,0,0.9
		c0,0.3,0,0.6,0,0.9c0,0.3,0,0.7,0,1.1c0,0.4,0,0.7,0.1,1c0.1,0.7,0.3,1.2,0.5,1.5c0.3,0.3,0.6,0.3,0.9,0.3c0.3-0.1,0.5-0.2,0.7-0.5
		c0.2-0.3,0.3-0.6,0.3-0.9c0-0.2-0.1-0.6-0.1-1c0-0.4,0-0.8-0.1-1.2c0-0.4,0-0.8,0-1.2c0-0.4,0-0.7,0-1v-4.6c0-0.3,0-0.6,0-1
		c0-0.4,0-0.7,0-1.1l0.1-2.2v-0.2c0-0.2,0-0.5,0-0.8s0-0.6,0.1-0.7c0.1-0.1,0.2-0.2,0.4-0.3c0.2-0.1,0.4-0.2,0.6-0.3
		c0.2-0.1,0.4-0.1,0.6-0.1c0.2,0,0.3,0.1,0.4,0.2c0.1,0.1,0.2,0.2,0.2,0.4c0,0.2,0,0.4,0,0.6c0,0.2,0,0.4,0,0.6c0,0.2,0,0.4-0.1,0.6
		c0,0,0,0.1,0,0.2c0,0.1,0,0.1,0,0.1c0,0.3,0,0.6,0,0.9c0,0.3,0,0.6,0,0.9v3.7c0,0.4,0,0.7,0,1.1c0,0.4,0,0.7,0,1v3
		c0,0.6,0.1,1.3,0.1,2c0.1,0.7,0.2,1.4,0.2,2c0.1,0.4,0,0.8-0.2,1c-0.4,0.4-0.7,0.5-1,0.5s-0.4-0.2-0.6-0.5
		c-0.2,0.4-0.5,0.7-0.8,0.9c-0.3,0.2-0.7,0.4-1.1,0.5c-0.6,0.1-1.1,0.1-1.6,0c-0.5-0.1-0.9-0.4-1.2-0.8c-0.2-0.3-0.3-0.6-0.4-1
		c-0.1-0.4-0.2-0.8-0.2-1.2c0-0.4-0.1-0.8-0.1-1.3C31.2,53,31.2,52.6,31.2,52.2z"/>
	<path class="st3" d="M41.2,39.3l-0.9,0.2c-0.1,0-0.2,0-0.3-0.1c-0.1-0.1-0.1-0.2-0.1-0.3c0-0.1,0-0.2,0-0.3c0-0.1,0-0.2,0-0.3
		c0,0,0-0.1,0-0.1c0,0,0-0.1,0-0.1c0-0.2,0-0.4,0.1-0.5c0-0.1,0.2-0.2,0.5-0.3l0.9-0.2c0,0-0.1-0.1-0.1-0.3c0-0.1,0-0.2,0-0.3
		c0-0.1,0-0.2,0-0.3s0-0.4,0-0.7c0-0.4,0-0.8,0-1.3c0-0.5,0-0.9,0-1.4c0-0.5,0-0.8,0-1.1v-0.2c0-0.2,0-0.4,0-0.6
		c0-0.2,0.1-0.4,0.2-0.6c0-0.1,0.2-0.1,0.3-0.2c0.2-0.1,0.3-0.1,0.5-0.2c0.2,0,0.3-0.1,0.5-0.1c0.2,0,0.3,0,0.3,0
		c0.1,0.1,0.2,0.3,0.2,0.6c0,0.3,0.1,0.5,0.1,0.6c0,0.5-0.1,1-0.1,1.5c0,0.5,0,0.9,0,1.4v1.6c0,0.1,0,0.1,0,0.2c0,0.1,0,0.1,0,0.2
		c0,0.5,0,0.8,0,0.8l0.5-0.1c0.2-0.1,0.4-0.1,0.7-0.2c0.2-0.1,0.5-0.1,0.7-0.2c0.2,0,0.4,0,0.6,0c0.2,0,0.3,0.1,0.3,0.2
		c0,0.1,0,0.3,0,0.6c0,0.3,0,0.5-0.1,0.6c-0.1,0.2-0.1,0.4-0.2,0.5c-0.1,0.1-0.2,0.2-0.4,0.2l-0.2,0.1c-0.3,0.1-0.5,0.1-0.8,0.2
		c-0.3,0.1-0.5,0.1-0.7,0.2l-0.2,0c0,0,0,0.1-0.1,0.2c0,0.1,0,0.2,0,0.4c0,0.1,0,0.3,0,0.4c0,0.1,0,0.3,0,0.4v0.1c0,0.6,0,1.3,0,1.9
		c0,0.6,0,1.3-0.1,1.9c0,0.5,0,1.1-0.1,1.7c0,0.6,0,1.1,0,1.7c0,0.6,0,1.1,0,1.7c0,0.5,0.1,1.1,0.1,1.6c0,0.4,0.1,0.7,0.2,1.1
		c0.1,0.4,0.2,0.8,0.4,1.1c0.1,0.2,0.2,0.3,0.2,0.3c0,0,0.1,0.1,0.1,0.1c0.1,0.1,0.2,0.3,0.3,0.4c0.1,0.1,0,0.3-0.1,0.5
		c-0.4,0.7-0.8,1.1-1.3,1.2c-0.4,0.1-0.7,0-1-0.3c-0.2-0.2-0.4-0.5-0.5-0.8c-0.1-0.3-0.2-0.6-0.3-1c-0.1-0.3-0.1-0.7-0.1-1
		c0-0.3,0-0.7-0.1-1v-0.4c0-0.6-0.1-1.3-0.1-2c0-0.7,0-1.4,0-2.1c0-0.4,0-0.8,0-1.2c0-0.4,0-0.8,0-1.2V39.3z"/>
	<path class="st3" d="M50.8,44.6c-0.2,0.2-0.4,0.3-0.7,0.5c0,0.1-0.1,0.1-0.1,0.2c0,0-0.1,0.2-0.1,0.3v1.6c0,0.5,0,1,0,1.5
		c0,0.5,0.1,1,0.1,1.4s0.1,0.8,0.2,1.1c0.1,0.3,0.3,0.4,0.4,0.4c0.4-0.1,0.7-0.2,0.9-0.5c0.2-0.3,0.4-0.5,0.5-0.8
		c0.1-0.3,0.1-0.6,0.2-0.9c0-0.3,0-0.6,0-0.8v-0.7c0-0.3,0-0.5,0.1-0.7c0.1-0.2,0.3-0.4,0.7-0.5c0.6-0.1,0.9-0.2,1.1,0
		c0.2,0.1,0.3,0.2,0.3,0.4v0.3c0,0.5,0,1-0.1,1.6c0,0.6-0.2,1.3-0.4,1.9c-0.2,0.6-0.6,1.2-1.1,1.7c-0.5,0.5-1.2,0.9-2.1,1
		c-0.8,0.2-1.3,0.1-1.8-0.1c-0.4-0.2-0.7-0.6-0.9-1c-0.2-0.4-0.4-0.9-0.4-1.5c-0.1-0.6-0.1-1.2-0.1-1.8v-0.9c0-0.6-0.1-1.3-0.1-1.9
		c0-0.7,0-1.3,0-2c0-0.8,0-1.7,0-2.7c0-1,0.1-2,0.3-3c0.2-1,0.5-1.8,0.9-2.6c0.4-0.7,1-1.2,1.8-1.4c0.6-0.2,1.2-0.2,1.6-0.1
		c0.5,0.1,0.9,0.3,1.2,0.5c0.3,0.3,0.6,0.6,0.7,1c0.2,0.4,0.2,0.8,0.2,1.3c0,1.1-0.2,2-0.4,2.7c-0.2,0.7-0.5,1.4-0.8,1.9
		c-0.3,0.5-0.7,1-1.1,1.4c-0.4,0.4-0.8,0.8-1.2,1.1L50.8,44.6z M49.9,40.8c0,0.6,0,1,0,1.3c0,0.3,0,0.6-0.1,0.9c0,0,0,0,0.1,0
		c0,0,0,0,0.1,0l0,0c0.3-0.2,0.5-0.5,0.8-0.8c0.3-0.3,0.6-0.7,0.8-1.1c0.2-0.4,0.4-0.9,0.6-1.5c0.1-0.6,0.2-1.2,0.2-2
		c0-0.5-0.2-0.8-0.6-0.9c-0.4-0.1-0.7-0.2-0.9-0.1c-0.2,0-0.3,0.2-0.4,0.5c-0.1,0.3-0.2,0.6-0.2,1c-0.1,0.4-0.1,0.8-0.1,1.3
		C49.9,40,49.9,40.4,49.9,40.8z"/>
	<path class="st3" d="M56.9,40c0-1,0-2-0.1-2.9c0-0.9-0.1-1.8-0.3-2.9c0-0.1,0.1-0.3,0.3-0.4c0.2-0.1,0.3-0.3,0.5-0.4
		c0.2-0.1,0.4-0.2,0.6-0.3c0.2-0.1,0.3-0.1,0.4-0.1c0.2,0.1,0.3,0.2,0.4,0.5c0,0.3,0.1,0.6,0,0.9c0.4-0.6,0.8-1.2,1.3-1.7
		c0.5-0.5,1.1-0.8,1.8-0.8c0.7,0,1.2,0.3,1.4,0.8c0.3,0.5,0.4,1.2,0.4,2c0,1,0,2,0,2.9c0,1,0,1.9,0,2.9s0,2,0.1,2.9c0,1,0,2,0,3v1.4
		c0,0.4,0,0.8,0,1.1c0,0.3-0.1,0.5-0.2,0.7c-0.1,0.2-0.2,0.4-0.5,0.5c-0.2,0.1-0.5,0.2-1,0.3c-0.1,0-0.3,0-0.3-0.2
		c-0.1-0.2-0.1-0.4-0.2-0.7c0-0.3-0.1-0.6-0.1-0.9c0-0.3,0-0.7,0-1v-0.7c0-0.8,0-1.7,0-2.8s0-2.2,0-3.4c0-1.2,0-2.3-0.1-3.4
		c0-1.1,0-2,0-2.8c0-0.5-0.2-0.8-0.5-0.7c-0.2,0-0.4,0.2-0.6,0.3c-0.2,0.2-0.4,0.4-0.6,0.7c-0.2,0.3-0.3,0.6-0.5,1
		c-0.1,0.4-0.2,0.7-0.2,1.1v11.3v0.7c0,0.4,0.1,0.8,0,1.3c0,0.4-0.2,0.7-0.4,0.9c-0.2,0.1-0.5,0.2-0.8,0.3c-0.3,0.1-0.6,0-0.7-0.1
		C57.1,51.6,57,51.4,57,51c0-0.3,0-0.8,0-1.3c0-0.4,0-0.8,0-1.1s0-0.7,0-1.1c0-0.4,0-0.7,0-1.1s0-0.7,0-1.1c0-0.4,0-0.8,0-1.2
		c0-0.4,0-0.8,0-1.2V40z"/>
	<path class="st3" d="M73,38.4c0.2,0.1,0.3,0.4,0.1,0.9c-0.1,0.4-0.3,0.7-0.4,1c-0.2,0.2-0.5,0.3-0.8,0.4c-0.3,0.1-0.7,0.1-1,0.2
		c-0.1,0-0.2,0-0.3,0c-0.1,0-0.2,0.1-0.3,0.1c-0.2,0.1-0.4,0.1-0.6,0.2s-0.4,0.1-0.6,0.2c-0.2,0.1-0.4,0.1-0.6,0.2s-0.4,0.1-0.6,0.2
		c-0.2,0-0.4,0.1-0.7,0.2s-0.5,0.1-0.7,0.1c-0.2,0-0.3-0.1-0.3-0.2c0-0.2,0-0.3,0-0.6c0-0.2,0.1-0.4,0.2-0.7
		c0.1-0.2,0.2-0.4,0.3-0.5c0.2-0.2,0.5-0.3,0.8-0.4c0.3-0.1,0.7-0.1,1-0.2c0.1,0,0.3,0,0.4,0c0.1,0,0.2,0,0.3-0.1l1.7-0.4
		c0,0,0.1,0,0.2,0c0.1,0,0.2-0.1,0.3-0.1c0.3-0.1,0.7-0.2,1.1-0.3c0.4-0.1,0.7-0.1,0.9,0.1L73,38.4z"/>
</g>
<g class="st2">
	<path class="st3" d="M28.4,63.1c0.7-0.1,1.4-0.3,2.2-0.4c0.2,0,0.4,0.1,0.5,0.3c0.1,0.2,0.2,0.4,0.2,0.7c0,0.3,0,0.5-0.1,0.8
		c-0.1,0.3-0.1,0.4-0.3,0.5c-0.2,0.2-0.5,0.4-0.8,0.5c-0.3,0.1-0.6,0.2-0.9,0.2l-7.5,1.8c-0.2,0-0.2,0.3-0.2,0.7c0,0.4,0,0.9,0,1.3
		v6.9c0,0.2,0,0.4,0,0.7s0,0.5,0,0.8c0,0.3,0,0.5,0.1,0.6c0,0.2,0,0.2,0.1,0.2l4.5-1.1c0.2,0,0.3,0,0.4,0.3c0.1,0.2,0.1,0.5,0.1,0.8
		s0,0.6-0.1,0.9c-0.1,0.3-0.1,0.4-0.3,0.5c-0.6,0.3-1.3,0.5-2.1,0.7c-0.7,0.2-1.4,0.4-1.9,0.5c-0.2,0.1-0.4,0.1-0.6,0.2
		c-0.2,0.1-0.3,0.1-0.5,0.1c0,0.3-0.1,0.5-0.1,0.7c0,0.2,0,0.4,0,0.6c0,0.2,0,0.4,0,0.5v3.2c0,1.7,0,3.4,0.1,5.1
		c0,1.7,0.2,3.4,0.5,4.9c0,0,0,0.2,0.1,0.4c0.1,0.2,0.1,0.5,0.2,0.7c0.1,0.3,0,0.5-0.2,0.7c-0.1,0.1-0.2,0.2-0.5,0.3
		c-0.2,0.1-0.5,0.2-0.8,0.3c-0.3,0.1-0.6,0.2-0.9,0.3c-0.3,0.1-0.5,0.1-0.6,0.1c-0.3,0-0.5-0.2-0.7-0.5c-0.2-0.3-0.3-0.7-0.4-1.1
		C18,97.4,18,97,17.9,96.5c0-0.5-0.1-0.9-0.1-1.3c0-0.2,0-0.3,0-0.5s0-0.3,0-0.4c-0.1-1-0.1-2.1-0.2-3.2c0-1.1-0.1-2.2-0.1-3.3
		c0-1.1,0-2.2,0-3.4c0-1.1,0-2.2,0-3.4c0-1.1,0.1-2.1,0.1-3.2c0-1.1,0-2.1,0-3.1v-5.3c0-0.5,0-1.1,0.1-1.8c0.1-0.7,0.3-1.2,0.7-1.7
		c0.4-0.4,1.1-0.8,2-1.1c0.9-0.3,1.7-0.5,2.5-0.6l3.1-0.8C26.9,63.4,27.7,63.2,28.4,63.1z"/>
	<path class="st3" d="M30.7,73.8c0-0.4,0-0.7,0-1c0-0.2,0.2-0.3,0.5-0.5c0.3-0.2,0.7-0.4,1.2-0.5c0.8-0.2,1.3-0.2,1.7,0
		c0.4-0.4,0.9-0.8,1.5-1.1c0.6-0.3,1.2-0.6,1.9-0.7c0.7-0.2,1.3-0.2,2-0.1c0.6,0.1,1.1,0.3,1.6,0.7c0.5,0.5,0.7,0.9,0.7,1.3
		c0,0.7-0.5,1.3-1.5,1.9l-0.1,0c-0.3,0.2-0.6,0.3-0.8,0.2c-0.2-0.1-0.4-0.2-0.6-0.4c-0.1,0-0.1-0.1-0.2-0.2c-0.1-0.1,0-0.1,0-0.1
		c-0.6-0.6-1.3-0.8-2.1-0.6c-0.6,0.2-1.2,0.5-1.7,1c-0.5,0.5-0.7,1-0.7,1.5v16.3c0,0.3,0,0.7,0,1.2c0,0.5,0,0.9-0.1,1.4
		c0,0.5-0.1,0.9-0.2,1.2c-0.1,0.3-0.2,0.5-0.4,0.6c-0.4,0.2-0.8,0.3-1.4,0.4c-0.6,0.1-0.9,0.1-1.1-0.1c-0.1-0.2-0.2-0.5-0.2-0.9
		s0-0.8,0-1.1v-0.4v-5.8c0-1-0.1-2-0.1-3c0-1,0-1.9,0-2.9c0-0.5,0-1,0-1.5c0-0.5,0-1.1,0-1.7v-4C30.7,74.5,30.7,74.1,30.7,73.8z"/>
	<path class="st3" d="M49,80.3c-0.3,0.2-0.7,0.5-1.1,0.7c-0.1,0.1-0.1,0.2-0.2,0.2c-0.1,0.1-0.1,0.2-0.1,0.5v2.2c0,0.6,0,1.3,0.1,2
		c0,0.7,0.1,1.3,0.2,1.9c0.1,0.6,0.2,1,0.4,1.4c0.2,0.4,0.4,0.5,0.7,0.4c0.6-0.1,1.1-0.4,1.4-0.7s0.6-0.7,0.7-1.1
		c0.2-0.4,0.2-0.8,0.3-1.2c0-0.4,0-0.7,0-1v-0.9c0-0.3,0.1-0.7,0.2-0.9c0.2-0.3,0.6-0.5,1.2-0.7c0.9-0.2,1.5-0.3,1.8-0.1
		c0.3,0.1,0.5,0.3,0.5,0.5v0.4c0,0.6,0,1.3-0.1,2.2c-0.1,0.8-0.3,1.7-0.6,2.6c-0.4,0.9-0.9,1.6-1.7,2.4c-0.8,0.7-1.9,1.2-3.4,1.5
		c-1.2,0.3-2.2,0.3-2.8,0c-0.7-0.3-1.2-0.7-1.5-1.2s-0.6-1.2-0.7-2c-0.1-0.8-0.2-1.5-0.2-2.3v-1.2c-0.1-0.8-0.1-1.7-0.2-2.6
		c0-0.9-0.1-1.8-0.1-2.7c0-1,0-2.2,0.1-3.6c0-1.4,0.2-2.7,0.5-4c0.3-1.3,0.8-2.5,1.5-3.5c0.7-1,1.6-1.7,2.9-2c1-0.2,1.9-0.3,2.6-0.2
		c0.8,0.1,1.4,0.3,1.9,0.6c0.5,0.3,0.9,0.7,1.2,1.2c0.3,0.5,0.4,1.1,0.3,1.7c-0.1,1.4-0.3,2.6-0.6,3.6c-0.3,1-0.8,1.9-1.3,2.6
		c-0.5,0.7-1.1,1.4-1.7,1.9c-0.6,0.5-1.3,1.1-2,1.6L49,80.3z M47.5,75.4c0,0.8,0,1.3,0,1.7c0,0.4,0,0.8-0.1,1.2c0,0,0.1,0,0.1,0
		c0,0,0,0,0.1,0l-0.1,0.1c0.4-0.3,0.9-0.7,1.3-1.1c0.5-0.4,0.9-0.9,1.3-1.5c0.4-0.6,0.7-1.2,0.9-2c0.2-0.7,0.3-1.6,0.3-2.6
		c-0.1-0.6-0.4-1-1-1.1c-0.6-0.2-1.1-0.2-1.5-0.1c-0.3,0.1-0.5,0.3-0.7,0.7c-0.2,0.4-0.3,0.8-0.4,1.4s-0.2,1.1-0.2,1.7
		C47.5,74.2,47.5,74.8,47.5,75.4z"/>
	<path class="st3" d="M63.3,76.8c-0.3,0.2-0.7,0.5-1.1,0.7c-0.1,0.1-0.1,0.2-0.2,0.2c-0.1,0.1-0.1,0.2-0.1,0.5v2.2
		c0,0.6,0,1.3,0.1,2c0,0.7,0.1,1.3,0.2,1.9c0.1,0.6,0.2,1,0.4,1.4c0.2,0.4,0.4,0.5,0.7,0.4c0.6-0.1,1.1-0.4,1.4-0.7
		c0.3-0.4,0.6-0.7,0.7-1.1c0.2-0.4,0.2-0.8,0.3-1.2c0-0.4,0-0.7,0-1V81c0-0.3,0.1-0.7,0.2-0.9c0.2-0.3,0.6-0.5,1.2-0.7
		c0.9-0.2,1.5-0.3,1.8-0.1c0.3,0.1,0.5,0.3,0.5,0.5v0.4c0,0.6,0,1.3-0.1,2.2c-0.1,0.8-0.3,1.7-0.6,2.6c-0.4,0.9-0.9,1.6-1.7,2.4
		c-0.8,0.7-1.9,1.2-3.4,1.5c-1.2,0.3-2.2,0.3-2.8,0c-0.7-0.3-1.2-0.7-1.5-1.2c-0.3-0.6-0.6-1.2-0.7-2c-0.1-0.8-0.2-1.5-0.2-2.3v-1.2
		c-0.1-0.8-0.1-1.7-0.2-2.6c0-0.9-0.1-1.8-0.1-2.7c0-1,0-2.2,0.1-3.6c0-1.4,0.2-2.7,0.5-4c0.3-1.3,0.8-2.5,1.5-3.5
		c0.7-1,1.6-1.7,2.9-2c1-0.2,1.9-0.3,2.6-0.2c0.8,0.1,1.4,0.3,1.9,0.6c0.5,0.3,0.9,0.7,1.2,1.2c0.3,0.5,0.4,1.1,0.3,1.7
		c-0.1,1.4-0.3,2.6-0.6,3.6c-0.3,1-0.8,1.9-1.3,2.6c-0.5,0.7-1.1,1.4-1.7,1.9c-0.6,0.5-1.3,1.1-2,1.6L63.3,76.8z M61.8,71.8
		c0,0.8,0,1.3,0,1.7s0,0.8-0.1,1.2c0,0,0.1,0,0.1,0c0,0,0,0,0.1,0l-0.1,0.1c0.4-0.3,0.9-0.7,1.3-1.1c0.5-0.4,0.9-0.9,1.3-1.5
		c0.4-0.6,0.7-1.2,0.9-2c0.2-0.7,0.3-1.6,0.3-2.6c-0.1-0.6-0.4-1-1-1.1c-0.6-0.2-1.1-0.2-1.5-0.1c-0.3,0.1-0.5,0.3-0.7,0.7
		c-0.2,0.4-0.3,0.8-0.4,1.4c-0.1,0.5-0.2,1.1-0.2,1.7C61.9,70.7,61.8,71.3,61.8,71.8z"/>
</g>
</svg>
