<?xml version="1.0" encoding="UTF-8"?>
<svg width="216px" height="168px" viewBox="0 0 216 168" version="1.1" xmlns="http://www.w3.org/2000/svg" xmlns:xlink="http://www.w3.org/1999/xlink">
    <title>DM_logo</title>
    <defs>
        <polygon id="path-1" points="0 0 216 0 216 168 0 168"></polygon>
    </defs>
    <g id="Round-1" stroke="none" stroke-width="1" fill="none" fill-rule="evenodd">
        <g id="Home_slider1" transform="translate(-119.000000, -37.000000)">
            <g id="DM_logo" transform="translate(119.000000, 37.000000)">
                <g id="Group-5">
                    <mask id="mask-2" fill="white">
                        <use xlink:href="#path-1"></use>
                    </mask>
                    <g id="Clip-2"></g>
                    <path d="M107.945206,168.067751 L108.053604,168.067751 C112.154664,162.958159 117.841045,159.612365 131.132228,156.499183 C142.459824,153.846712 154.020025,151.439276 156.674648,135.051318 C170.652352,140.595649 196.918555,137.463271 208.727168,111.67818 C228.011859,69.5627205 205.826391,28.4138487 178.6038,16.9706209 C169.177686,13.011675 151.736891,7.09245256 128.964267,14.6828786 C124.627215,12.2720545 120.893128,12.1534894 116.795456,12.8750428 C117.034835,7.81626439 110.288185,1.90946303 108.000535,0 C105.709497,1.90946303 98.963976,7.81626439 99.2056133,12.8750428 C95.107941,12.1534894 91.3727247,12.2720545 87.0368026,14.6828786 C64.264178,7.09245256 46.8222536,13.011675 37.3938812,16.9706209 C10.1758073,28.4138487 -12.0130485,69.5627205 7.27390108,111.67818 C19.0802558,137.463271 45.3464593,140.595649 59.3230334,135.051318 C61.9776566,151.439276 73.5412448,153.846712 84.8665832,156.499183 C98.1588946,159.612365 103.843018,162.958159 107.945206,168.067751 L108.053604,168.067751 L107.945206,168.067751" id="Fill-1" fill="#007853" mask="url(#mask-2)"></path>
                    <path d="M162.703161,146.752001 L162.703161,145.123707 L163.783754,145.123707 C164.339294,145.123707 164.92645,145.24566 164.92645,145.896074 C164.92645,146.703446 164.326873,146.752001 163.653902,146.752001 L162.703161,146.752001 Z M162.703161,147.421612 L163.61664,147.421612 L164.998716,149.694675 L165.889612,149.694675 L164.396881,147.385478 C165.169217,147.289497 165.757502,146.882988 165.757502,145.944629 C165.757502,144.908031 165.144375,144.452967 163.905702,144.452967 L161.911629,144.452967 L161.911629,149.694675 L162.703161,149.694675 L162.703161,147.421612 Z M163.665194,151.617688 C166.141412,151.617688 168.254045,149.694675 168.254045,147.062529 C168.254045,144.452967 166.141412,142.541246 163.665194,142.541246 C161.164134,142.541246 159.042468,144.452967 159.042468,147.062529 C159.042468,149.694675 161.164134,151.617688 163.665194,151.617688 Z M159.959335,147.062529 C159.959335,144.908031 161.585306,143.297804 163.665194,143.297804 C165.72024,143.297804 167.337178,144.908031 167.337178,147.062529 C167.337178,149.250902 165.72024,150.86113 163.665194,150.86113 C161.585306,150.86113 159.959335,149.250902 159.959335,147.062529 L159.959335,147.062529 Z" id="Fill-3" fill="#007853" mask="url(#mask-2)"></path>
                    <path d="M107.949723,30.1584498 C135.107952,10.966709 162.458136,15.4857339 174.68905,20.5445123 C206.139165,33.548283 221.559917,77.6567661 204.519969,110.165064 C190.372893,137.156131 164.749174,134.767891 154.743808,130.974936 C152.216778,146.578106 141.436818,149.981489 128.825382,152.498457 C116.096514,155.035751 111.858828,156.429173 107.949723,161.295989 C104.040618,156.429173 99.8040609,155.035751 87.0729352,152.498457 C74.4637574,149.981489 63.6815385,146.578106 61.1567671,130.974936 C51.1468843,134.767891 25.5254234,137.156131 11.3806065,110.165064 C-5.65934175,77.6567661 9.75802315,33.548283 41.2081377,20.5445123 C53.4413098,15.4857339 80.7937521,10.966709 107.949723,30.1584498" id="Fill-4" fill="#F9CC22" mask="url(#mask-2)"></path>
                </g>
                <path d="M106,26 C100.079757,22.1957689 95.9875811,20.0550986 90,17.5959719 C92.7001518,17.0659777 95.6365393,16.8831815 97.6555816,17.0728757 C100.43963,17.333849 101.056713,18.268524 101.777563,18.9445252 C104.072582,21.0851956 106,26 106,26" id="Fill-6" fill="#F9CC22"></path>
                <path d="M109,26 C114.915419,22.1957689 119.010624,20.0550986 125,17.5959719 C122.300034,17.0659777 119.359434,16.8831815 117.341635,17.0728757 C114.558882,17.333849 113.942946,18.268524 113.218834,18.9445252 C110.927285,21.0851956 109,26 109,26" id="Fill-7" fill="#F9CC22"></path>
                <path d="M108.511802,6 L108.488197,6 C108.488197,6 109.231154,6.91618645 111.337028,9.45233059 C114.01565,12.6770735 113.004334,15.3334306 111.468723,17.7493617 C109.853598,20.2936757 108.96528,21.4619593 108.488197,22 L108.515529,22 C108.037204,21.4619593 107.146401,20.2936757 105.530034,17.7493617 C103.996908,15.3334306 102.983106,12.6770735 105.664213,9.45233059 C107.767602,6.91618645 108.511802,6 108.511802,6 L108.488197,6 L108.511802,6" id="Fill-8" fill="#F9CC22"></path>
                <path d="M107.551266,42.4553336 L107.450776,42.4553336 C140.263387,18.309873 183.966113,19.4684326 199.901021,54.401645 C208.814092,73.946579 206.489287,101.400284 189.375604,113.494926 C178.5713,121.130632 171.040241,123.230872 152.754558,119.092196 C151.827571,134.123131 144.712019,137.871874 127.531719,140.414862 C120.079697,141.517235 113.571597,141.876827 107.50836,148 L107.491424,148 L107.50836,148 L107.491424,148 C101.427058,141.876827 94.9234745,141.517235 87.4703227,140.414862 C70.2900232,137.871874 63.1744706,134.123131 62.2474841,119.092196 C43.9584139,123.230872 36.4284837,121.130632 25.6264381,113.494926 C8.51275514,101.400284 6.1845626,73.946579 15.0987625,54.401645 C31.0359292,19.4684326 74.7363967,18.309873 107.551266,42.4553336 L107.450776,42.4553336 L107.551266,42.4553336" id="Fill-9" fill="#CD2B2B"></path>
                <path d="M31.9586946,64.1400443 L24.9414483,67.4415949 C24.9414483,67.4415949 24.9414483,84.2910836 24.9414483,86.1587077 C24.9414483,88.7052614 23.0392091,90.8203882 21.967556,92 C21.967556,92 29.5863745,92 33.4040019,92 C38.5957122,92 44,90.6421408 44,81.4062005 C44,81.4062005 44,72.5721683 44,68.4066287 C44,60.5887202 39.2707003,56.8966148 32.8353025,57.0022008 C28.7733206,57.0737268 24.8735112,57.6141457 23.4040972,58.0512492 L21,65.6103015 C21.3440686,65.4286481 27.8846594,63.5303701 30.6536446,63.4951747 C31.1730348,63.4883627 36.9564555,62.3462169 36.9564555,68.7131688 C36.9564555,68.7131688 36.9564555,79.6452978 36.9564555,81.4255011 C36.9564555,86.1042117 33.7162935,85.5660635 31.9510243,85.5830935 L31.9586946,64.142315 L31.9586946,64.1400443" id="Fill-10" fill="#FFFFFE"></path>
                <path d="M53.8491483,78.6963054 C55.3954,77.3336168 55.8886963,76.8552021 56.7049579,75.9369178 C58.7135366,73.6820198 56.2337825,69.9397279 55.4285813,69.1178068 C54.5603356,68.2244636 53.8491483,68.5804405 53.8491483,69.7436005 C53.8491483,70.3172448 53.8491483,78.6963054 53.8491483,78.6963054 Z M47.0171049,73.5777208 C47.04365,72.1821554 47.0989523,70.9475733 47.2029206,70.1007111 C47.3433884,68.95569 47.5712338,67.9875236 49.9105201,66.618033 C50.6836459,66.1656929 53.2651562,64.7293149 55.6608509,63.6251064 C56.4804306,63.2475896 59.2046208,61.8656284 61.3547734,65.0354097 C62.2042163,66.2926656 62.3468962,66.4661193 63.3257465,68.291351 C64.9925572,71.4033143 63.1609457,73.7216987 62.2086405,74.7567525 C60.1480777,76.9946452 56.8277289,80.0544591 54.0703574,81.9896582 C54.0703574,84.5121057 56.1298142,85.1401668 57.1772393,85.5516942 C58.7754751,86.1797553 59.3096951,86.3577438 62.5227575,87.1456543 L58.7422938,93 C52.4135012,91.0579988 51.485529,90.2292756 50.1383655,89.4288945 C48.4958878,88.4527923 47.5015529,87.039088 47.2471624,84.3976036 C47.1443002,83.3092667 46.9396818,77.7247379 47.0171049,73.5777208 L47.0171049,73.5777208 Z" id="Fill-11" fill="#FFFFFE"></path>
                <path d="M74.2846044,57 L67,60.3979825 C67,60.3979825 67,82.2730676 67,84.7242404 C67,88.1233678 67.7736659,89.9139489 69.7809241,91.4183118 C71.5171744,92.7177424 74.2013903,94 74.2013903,94 L78,88.1771768 C76.0815784,87.1101553 74.2823553,86.4621573 74.2823553,83.2610929 C74.2823553,81.333127 74.2846044,57 74.2846044,57" id="Fill-12" fill="#FFFFFE"></path>
                <path d="M98.2421558,91.6995534 L105.626603,91.6973035 L105.629935,64.4284238 C105.629935,64.4284238 106.378712,63.9244445 106.96529,63.5914582 C107.842936,63.0964785 109.327158,63.4452142 109.327158,65.1663935 C109.327158,65.1663935 109.327158,83.1825283 109.327158,85.1579472 C109.327158,88.0637028 110.395887,89.1470333 111.24687,90.0087479 C111.583486,90.3529837 112.548897,91.1337017 112.673322,91.2191982 C113.247681,91.6253065 114.198649,92.440898 115.346254,93 L120,87.5754729 C118.599099,86.7407571 116.711605,86.1895298 116.711605,83.0081605 C116.711605,83.0081605 116.72938,65.1630186 116.713827,63.1009783 C116.701606,61.2459295 116.684942,61.1221846 115.544002,59.8599865 C114.79967,59.0365203 113.804264,58.3401739 112.806636,57.730449 C111.07023,56.6628678 109.593785,56.8237362 107.561868,57.8350697 C106.525357,58.3502985 105.177781,59.04327 104.281249,59.505626 C103.455817,58.7957802 102.614833,58.2794264 101.59943,57.6595769 C100.738448,57.1342235 99.2197868,56.4615011 96.7179402,57.925066 C95.2281639,58.7969052 94.4871641,59.2435118 93.2962318,59.9331085 C91.2098784,58.3502985 89.8200871,57.7371987 88.8413451,57.3940878 L83,62.2415136 C83,62.2415136 84.0987239,62.7837414 85.2274433,63.3608427 C87.1749287,64.3564268 87.1604864,64.1246863 87.1604864,66.6704567 C87.1604864,68.562629 87.1604864,91.6950536 87.1604864,91.6950536 L94.548266,91.6950536 L94.5427113,64.4160493 C94.7460141,64.2855547 95.5236751,63.7782005 95.9313917,63.5565846 C96.6812791,63.1448515 98.2377121,63.3900915 98.2377121,65.1213953 L98.2377121,91.6973035 L98.2421558,91.6995534" id="Fill-13" fill="#FFFFFE"></path>
                <path d="M121,78.3577611 C121,82.4167991 121,85.5856671 121,85.5856671 C121,87.0864686 121.39321,88.5162398 123.533888,90.018187 C124.688571,90.8281616 125.05327,91.1386327 127.49331,92.3885369 C129.784857,93.5605369 131.206827,92.8765838 133.343941,91.7733228 C134.806302,91.0194851 136.575153,89.8898742 137.717956,89.0226171 C138.86076,88.1542144 140,87.2720639 140,84.6427971 C140,84.6427971 140,74.4510945 140,70.7197124 C140,68.2989539 140.004751,67.3377536 138.475866,66.1084711 C137.470864,65.2996422 136.480117,64.626 135.16625,63.820608 C133.447292,62.7689013 132.22846,62.6566276 129.356008,63.9030948 C127.966112,64.5068524 126.285169,65.2377771 124.317932,66.2253274 C121.956296,67.4076382 121,68.5005883 121,70.4275717 C121,71.3337808 121.002376,74.6653311 121.002376,78.3600524 M128.686007,78.3543242 C128.686007,74.7650026 128.686007,70.8342774 128.686007,70.384037 C128.686007,69.7287252 129.091097,69.4239823 129.445104,69.2292218 C130.396649,68.7033684 130.605727,69.0505003 131.41353,69.7355991 C131.973052,70.2144808 132.279542,70.5787975 132.279542,71.4105394 C132.279542,72.6810653 132.279542,85.7208538 132.279542,85.7208538 C132.279542,86.5789457 131.832875,87.406105 130.699575,86.6178978 C129.915531,86.073714 129.88108,86.0782966 129.424909,85.638367 C128.971114,85.2007287 128.686007,85.0987658 128.686007,84.2211979 C128.686007,84.2211979 128.686007,81.4326858 128.686007,78.3543242" id="Fill-14" fill="#FFFFFE"></path>
                <path d="M186.847133,78.6933082 C188.395678,77.3340591 188.889001,76.8533906 189.705306,75.9373995 C191.713991,73.6802978 189.232999,69.9381117 188.43218,69.1173474 C187.559464,68.2228958 186.847133,68.5788626 186.847133,69.7408562 L186.847133,78.6933082 Z M180.016939,73.5726009 C180.041274,72.1793422 180.098791,70.9470622 180.202765,70.1013576 C180.34324,68.9552351 180.568885,67.9870961 182.910508,66.6165105 C183.683675,66.1641832 186.265322,64.7301131 188.662249,63.6248021 C189.480766,63.2484296 192.202889,61.8653738 194.353155,65.0339319 C195.207068,66.2911523 195.347543,66.4634674 196.325339,68.2931822 C197.992238,71.4005231 196.162742,73.718842 195.207068,74.7561339 C193.145289,76.9916962 189.826977,80.0525573 187.067247,81.9888354 C187.067247,84.5123454 189.127919,85.1381214 190.177612,85.5507709 C191.778145,86.1788142 192.305756,86.3579313 195.524519,87.1435523 L191.742749,93 C185.410303,91.0580536 184.487812,90.2304875 183.135047,89.426728 C181.495801,88.4506534 180.499201,87.0358554 180.247009,84.3978465 C180.140823,83.307273 179.940618,77.7240355 180.016939,73.5726009 L180.016939,73.5726009 Z" id="Fill-15" fill="#FFFFFE"></path>
                <path d="M150.811126,69.9593078 L150.811126,91.4849925 L143.654669,91.4849925 C143.654669,91.4849925 143.654669,73.7563726 143.654669,71.8662632 C143.654669,69.4191161 143.258215,69.5359143 141.925812,68.4892227 C141.727584,68.3342405 141,67.8580632 141,67.8580632 L146.621321,63.2591339 C147.615837,63.6701737 148.915577,64.7101269 149.824494,65.5984671 C151.0285,64.9100316 151.582636,64.6045593 153.541257,63.6634353 C155.941384,62.5134222 156.589002,63.0558601 157.615053,63.8060639 C158.557759,64.4967456 159.281965,65.0964595 160.068116,65.9432465 C161.100926,67.0573217 161.167377,67.703081 161.167377,69.2899643 C161.167377,71.3519018 161.162872,83.2990106 161.162872,83.2990106 C161.162872,86.1021675 161.652808,86.1729203 164,87.5531606 L159.270702,93 C158.201851,92.3621021 157.509182,91.7567729 156.778219,91.2109659 C156.261251,90.8223873 156.088928,90.6943585 155.185642,89.8363409 C153.908428,88.6200673 153.94109,87.0567682 153.94109,85.1295978 C153.94109,83.1575051 153.94109,70.2344575 153.94109,70.2344575 C153.94109,68.946308 152.634592,68.7924488 151.866461,69.2517802 C151.242495,69.6313744 150.811126,69.9593078 150.811126,69.9593078" id="Fill-16" fill="#FFFFFE"></path>
                <path d="M174.420336,69.3109687 L174.420336,82.6045986 C174.420336,85.215605 175.91576,85.8567659 179,87.2397286 L175.095986,93 L171.215032,90.9917075 C168.791453,89.5646438 166.953592,88.0233698 166.953592,84.9521297 L166.953592,69.3109687 L163,69.3109687 L163,63.9532605 L166.953592,63.9532605 L166.953592,60.4794572 L174.420336,57 L174.420336,63.9532605 L178.809757,63.9532605 L178.809757,69.3109687 L174.420336,69.3109687" id="Fill-17" fill="#FFFFFE"></path>
                <path d="M93.2238012,111.506329 L93,111.054076 C93.6837747,110.546127 94.5846028,109.986937 95.7013598,109.375392 C96.1624578,109.125873 96.5155915,109 96.7618853,109 C96.902464,109 97.0194254,109.053468 97.1127697,109.159291 C97.2061139,109.266228 97.2522237,109.411038 97.2522237,109.593722 C97.2522237,109.761924 97.1926183,110.088304 97.0734076,110.571747 C96.0353747,114.735595 95.5169206,117.184 95.5169206,117.915848 C95.5169206,118.085165 95.5495348,118.207696 95.6158879,118.283443 C95.6822411,118.361418 95.7654637,118.399291 95.8678049,118.399291 C96.0083836,118.399291 96.1871997,118.344709 96.4053778,118.233316 C96.9744402,117.947038 97.6109805,117.459139 98.3127492,116.76962 C99.0145179,116.082329 99.657806,115.292557 100.243738,114.400304 C100.594622,113.87119 100.902771,113.222886 101.168183,112.45762 C101.432471,111.691241 101.69451,110.656405 101.95205,109.353114 C102.104999,109.324152 102.508741,109.20719 103.1644,109 L103.33197,109.165975 L102.936101,111.16881 C102.744914,112.215899 102.514365,113.354329 102.242204,114.585215 C101.968919,115.816101 101.78448,116.682734 101.685513,117.185114 C101.646151,117.435747 101.627032,117.678582 101.627032,117.91362 C101.627032,118.098532 101.660771,118.231089 101.727124,118.312405 C101.793477,118.393722 101.877824,118.433823 101.982415,118.433823 C102.084756,118.433823 102.22421,118.38481 102.397403,118.285671 C102.571721,118.187646 103.023822,117.854582 103.755955,117.285367 L104,117.73762 C102.743789,118.740152 101.853083,119.38957 101.329005,119.681418 C100.944382,119.894177 100.645231,120 100.430426,120 C100.289848,120 100.162765,119.932051 100.048052,119.796152 C99.9333401,119.661367 99.8771087,119.467544 99.8771087,119.215797 C99.8771087,119.068759 99.8928535,118.883848 99.9254677,118.664405 C99.9918209,118.319089 100.14702,117.636253 100.393314,116.620354 L100.846539,114.676557 L100.775688,114.644253 C99.9760761,115.716962 99.4981086,116.345215 99.3406605,116.527899 C98.7524793,117.205165 98.0810756,117.853468 97.3242,118.473924 C96.5673244,119.095494 95.8486862,119.556658 95.1671608,119.856304 C94.9467335,119.952101 94.7544218,120 94.5902259,120 C94.3709232,120 94.1786116,119.899747 94.0144157,119.698127 C93.8502198,119.49762 93.7681219,119.184608 93.7681219,118.759089 C93.7681219,118.187646 93.9120744,117.327696 94.2022288,116.178127 C94.6262141,114.478278 94.9309887,113.136 95.1165525,112.146835 C95.2346386,111.508557 95.2942439,111.088608 95.2942439,110.883646 C95.2942439,110.766684 95.2683775,110.678684 95.2166445,110.619646 C95.1649116,110.561722 95.0940599,110.531646 95.0052142,110.531646 C94.7589204,110.531646 94.165116,110.856911 93.2238012,111.506329" id="Fill-18" fill="#FFFFFE"></path>
                <path d="M93.2238012,111.506329 L93,111.054076 C93.6837747,110.546127 94.5846028,109.986937 95.7013598,109.375392 C96.1624578,109.125873 96.5155915,109 96.7618853,109 C96.902464,109 97.0194254,109.053468 97.1127697,109.159291 C97.2061139,109.266228 97.2522237,109.411038 97.2522237,109.593722 C97.2522237,109.761924 97.1926183,110.088304 97.0734076,110.571747 C96.0353747,114.735595 95.5169206,117.184 95.5169206,117.915848 C95.5169206,118.085165 95.5495348,118.207696 95.6158879,118.283443 C95.6822411,118.361418 95.7654637,118.399291 95.8678049,118.399291 C96.0083836,118.399291 96.1871997,118.344709 96.4053778,118.233316 C96.9744402,117.947038 97.6109805,117.459139 98.3127492,116.76962 C99.0145179,116.082329 99.657806,115.292557 100.243738,114.400304 C100.594622,113.87119 100.902771,113.222886 101.168183,112.45762 C101.432471,111.691241 101.69451,110.656405 101.95205,109.353114 C102.104999,109.324152 102.508741,109.20719 103.1644,109 L103.33197,109.165975 L102.936101,111.16881 C102.744914,112.215899 102.514365,113.354329 102.242204,114.585215 C101.968919,115.816101 101.78448,116.682734 101.685513,117.185114 C101.646151,117.435747 101.627032,117.678582 101.627032,117.91362 C101.627032,118.098532 101.660771,118.231089 101.727124,118.312405 C101.793477,118.393722 101.877824,118.433823 101.982415,118.433823 C102.084756,118.433823 102.22421,118.38481 102.397403,118.285671 C102.571721,118.187646 103.023822,117.854582 103.755955,117.285367 L104,117.73762 C102.743789,118.740152 101.853083,119.38957 101.329005,119.681418 C100.944382,119.894177 100.645231,120 100.430426,120 C100.289848,120 100.162765,119.932051 100.048052,119.796152 C99.9333401,119.661367 99.8771087,119.467544 99.8771087,119.215797 C99.8771087,119.068759 99.8928535,118.883848 99.9254677,118.664405 C99.9918209,118.319089 100.14702,117.636253 100.393314,116.620354 L100.846539,114.676557 L100.775688,114.644253 C99.9760761,115.716962 99.4981086,116.345215 99.3406605,116.527899 C98.7524793,117.205165 98.0810756,117.853468 97.3242,118.473924 C96.5673244,119.095494 95.8486862,119.556658 95.1671608,119.856304 C94.9467335,119.952101 94.7544218,120 94.5902259,120 C94.3709232,120 94.1786116,119.899747 94.0144157,119.698127 C93.8502198,119.49762 93.7681219,119.184608 93.7681219,118.759089 C93.7681219,118.187646 93.9120744,117.327696 94.2022288,116.178127 C94.6262141,114.478278 94.9309887,113.136 95.1165525,112.146835 C95.2346386,111.508557 95.2942439,111.088608 95.2942439,110.883646 C95.2942439,110.766684 95.2683775,110.678684 95.2166445,110.619646 C95.1649116,110.561722 95.0940599,110.531646 95.0052142,110.531646 C94.7589204,110.531646 94.165116,110.856911 93.2238012,111.506329 Z" id="Stroke-19" stroke="#FFFFFE" stroke-width="0.2"></path>
                <path d="M112.10723,110.529073 C111.826942,110.396931 111.532364,110.300323 111.223498,110.238139 C110.913532,110.177064 110.589277,110.144862 110.248534,110.144862 C109.59233,110.144862 109.094406,110.251464 108.754763,110.462447 C108.595383,110.557945 108.422814,110.79891 108.233757,111.186453 C107.847948,111.960428 107.515999,112.825459 107.23681,113.782657 C106.79934,115.272865 106.579507,116.583182 106.579507,117.715829 C106.579507,117.912376 106.597093,118.058954 106.631168,118.154452 C106.665242,118.248839 106.715804,118.319907 106.783952,118.367656 C106.852101,118.415405 106.915852,118.438724 106.976307,118.438724 C107.120298,118.438724 107.339033,118.343226 107.63361,118.154452 C108.213972,117.766909 108.826209,117.2128 109.468124,116.488795 C110.10894,115.765899 110.63764,114.945286 111.053127,114.023622 C111.468613,113.103069 111.819248,111.93933 112.10723,110.529073 Z M113.707621,117.432667 L113.82743,117.883505 L112.284196,119.16273 C111.797264,119.538058 111.409257,119.791238 111.121275,119.92338 C111.024548,119.97446 110.935515,120 110.854177,120 C110.73107,120 110.610161,119.931153 110.493649,119.791238 C110.377137,119.651322 110.318881,119.480315 110.318881,119.273773 C110.318881,118.495356 110.559599,117.199475 111.041036,115.385019 L110.970689,115.352816 C110.405716,116.129013 109.961651,116.700888 109.638495,117.066222 C109.051539,117.748031 108.45469,118.337674 107.849047,118.836261 C107.243405,119.334848 106.692721,119.692409 106.195896,119.912275 C106.053004,119.971129 105.917807,120 105.790303,120 C105.586957,120 105.425379,119.904502 105.30447,119.714617 C105.101124,119.407026 105,118.887341 105,118.154452 C105,117.217242 105.17257,116.117908 105.518808,114.857561 C105.865046,113.598324 106.276136,112.502322 106.752076,111.571775 C106.990596,111.10428 107.328041,110.704523 107.767709,110.374722 C108.488764,109.832829 109.139472,109.45528 109.719834,109.243186 C110.113337,109.104381 110.549707,109.034424 111.024548,109.034424 C111.352101,109.034424 111.659868,109.061074 111.945652,109.112154 C112.232535,109.163234 112.598559,109.268726 113.044822,109.43085 L113.759282,109 L114,109.198768 C113.533952,110.820008 113.122863,112.351302 112.765633,113.794872 C112.487543,114.661014 112.299585,115.309509 112.197362,115.74258 C112.021495,116.424389 111.883,117.073996 111.780777,117.689178 C111.765388,117.806885 111.758793,117.905714 111.758793,117.985665 C111.758793,118.133354 111.788471,118.246618 111.845628,118.32657 C111.89619,118.37765 111.966536,118.4043 112.053371,118.4043 C112.168784,118.4043 112.31937,118.358772 112.50403,118.265496 C112.688691,118.173329 113.089888,117.89572 113.707621,117.432667 L113.707621,117.432667 Z" id="Fill-20" fill="#FFFFFE"></path>
                <path d="M112.10723,110.529073 C111.826942,110.396931 111.532364,110.300323 111.223498,110.238139 C110.913532,110.177064 110.589277,110.144862 110.248534,110.144862 C109.59233,110.144862 109.094406,110.251464 108.754763,110.462447 C108.595383,110.557945 108.422814,110.79891 108.233757,111.186453 C107.847948,111.960428 107.515999,112.825459 107.23681,113.782657 C106.79934,115.272865 106.579507,116.583182 106.579507,117.715829 C106.579507,117.912376 106.597093,118.058954 106.631168,118.154452 C106.665242,118.248839 106.715804,118.319907 106.783952,118.367656 C106.852101,118.415405 106.915852,118.438724 106.976307,118.438724 C107.120298,118.438724 107.339033,118.343226 107.63361,118.154452 C108.213972,117.766909 108.826209,117.2128 109.468124,116.488795 C110.10894,115.765899 110.63764,114.945286 111.053127,114.023622 C111.468613,113.103069 111.819248,111.93933 112.10723,110.529073 Z M113.707621,117.432667 L113.82743,117.883505 L112.284196,119.16273 C111.797264,119.538058 111.409257,119.791238 111.121275,119.92338 C111.024548,119.97446 110.935515,120 110.854177,120 C110.73107,120 110.610161,119.931153 110.493649,119.791238 C110.377137,119.651322 110.318881,119.480315 110.318881,119.273773 C110.318881,118.495356 110.559599,117.199475 111.041036,115.385019 L110.970689,115.352816 C110.405716,116.129013 109.961651,116.700888 109.638495,117.066222 C109.051539,117.748031 108.45469,118.337674 107.849047,118.836261 C107.243405,119.334848 106.692721,119.692409 106.195896,119.912275 C106.053004,119.971129 105.917807,120 105.790303,120 C105.586957,120 105.425379,119.904502 105.30447,119.714617 C105.101124,119.407026 105,118.887341 105,118.154452 C105,117.217242 105.17257,116.117908 105.518808,114.857561 C105.865046,113.598324 106.276136,112.502322 106.752076,111.571775 C106.990596,111.10428 107.328041,110.704523 107.767709,110.374722 C108.488764,109.832829 109.139472,109.45528 109.719834,109.243186 C110.113337,109.104381 110.549707,109.034424 111.024548,109.034424 C111.352101,109.034424 111.659868,109.061074 111.945652,109.112154 C112.232535,109.163234 112.598559,109.268726 113.044822,109.43085 L113.759282,109 L114,109.198768 C113.533952,110.820008 113.122863,112.351302 112.765633,113.794872 C112.487543,114.661014 112.299585,115.309509 112.197362,115.74258 C112.021495,116.424389 111.883,117.073996 111.780777,117.689178 C111.765388,117.806885 111.758793,117.905714 111.758793,117.985665 C111.758793,118.133354 111.788471,118.246618 111.845628,118.32657 C111.89619,118.37765 111.966536,118.4043 112.053371,118.4043 C112.168784,118.4043 112.31937,118.358772 112.50403,118.265496 C112.688691,118.173329 113.089888,117.89572 113.707621,117.432667 Z" id="Stroke-21" stroke="#FFFFFE" stroke-width="0.2"></path>
                <path d="M119.363572,117.285714 L119.560478,117.750857 C119.358884,117.923429 118.886545,118.270857 118.144632,118.790857 C117.401547,119.313143 116.797937,119.666286 116.334974,119.853714 C116.109939,119.950857 115.901313,120 115.707923,120 C115.48992,120 115.3188,119.922286 115.189873,119.768 C115.063291,119.613714 115,119.370286 115,119.038857 C115,118.758857 115.026957,118.484571 115.0797,118.213714 C115.158228,117.761143 115.526254,116.114286 116.186123,113.270857 C116.684248,111.234286 116.998359,109.904 117.128458,109.28 C117.456634,107.748571 117.688701,106.516571 117.827004,105.580571 C117.860994,105.377143 117.877403,105.178286 117.877403,104.981714 C117.877403,104.770286 117.82466,104.620571 117.719175,104.533714 C117.616034,104.448 117.401547,104.404571 117.076887,104.404571 L116.006798,104.393143 L116.064229,103.929143 C116.787389,103.851429 117.419128,103.744 117.954759,103.604571 C118.490389,103.465143 119.070558,103.264 119.697609,103 L120,103.181714 C119.845288,103.868571 119.280356,106.456 118.306376,110.942857 C117.518753,114.571429 117.066338,116.796571 116.950305,117.618286 C116.928036,117.761143 116.916315,117.886857 116.916315,117.992 C116.916315,118.149714 116.953821,118.275429 117.031177,118.364571 C117.108533,118.456 117.194093,118.500571 117.286685,118.500571 C117.355837,118.500571 117.433193,118.482286 117.518753,118.444571 C117.688701,118.377143 117.986404,118.211429 118.411861,117.944 L119.363572,117.285714" id="Fill-22" fill="#FFFFFE"></path>
                <path d="M119.363572,117.285714 L119.560478,117.750857 C119.358884,117.923429 118.886545,118.270857 118.144632,118.790857 C117.401547,119.313143 116.797937,119.666286 116.334974,119.853714 C116.109939,119.950857 115.901313,120 115.707923,120 C115.48992,120 115.3188,119.922286 115.189873,119.768 C115.063291,119.613714 115,119.370286 115,119.038857 C115,118.758857 115.026957,118.484571 115.0797,118.213714 C115.158228,117.761143 115.526254,116.114286 116.186123,113.270857 C116.684248,111.234286 116.998359,109.904 117.128458,109.28 C117.456634,107.748571 117.688701,106.516571 117.827004,105.580571 C117.860994,105.377143 117.877403,105.178286 117.877403,104.981714 C117.877403,104.770286 117.82466,104.620571 117.719175,104.533714 C117.616034,104.448 117.401547,104.404571 117.076887,104.404571 L116.006798,104.393143 L116.064229,103.929143 C116.787389,103.851429 117.419128,103.744 117.954759,103.604571 C118.490389,103.465143 119.070558,103.264 119.697609,103 L120,103.181714 C119.845288,103.868571 119.280356,106.456 118.306376,110.942857 C117.518753,114.571429 117.066338,116.796571 116.950305,117.618286 C116.928036,117.761143 116.916315,117.886857 116.916315,117.992 C116.916315,118.149714 116.953821,118.275429 117.031177,118.364571 C117.108533,118.456 117.194093,118.500571 117.286685,118.500571 C117.355837,118.500571 117.433193,118.482286 117.518753,118.444571 C117.688701,118.377143 117.986404,118.211429 118.411861,117.944 L119.363572,117.285714 Z" id="Stroke-23" stroke="#FFFFFE" stroke-width="0.2"></path>
                <path d="M123.939459,105.455647 C123.939459,105.047141 124.064865,104.703599 124.315676,104.421719 C124.568649,104.14094 124.855135,104 125.179459,104 C125.431351,104 125.63027,104.078178 125.778378,104.235634 C125.926486,104.39199 126,104.610006 126,104.886381 C126,105.267359 125.890811,105.615305 125.675676,105.93242 C125.460541,106.249535 125.171892,106.409194 124.812973,106.409194 C124.561081,106.409194 124.351351,106.322208 124.187027,106.146033 C124.021622,105.970959 123.939459,105.74083 123.939459,105.455647 Z M121.182703,111.639392 L121,111.191246 C122.268108,110.303764 123.116757,109.755419 123.547027,109.544009 C123.977297,109.335903 124.313514,109.230198 124.557838,109.230198 C124.694054,109.230198 124.797838,109.277545 124.869189,109.372239 C124.96973,109.509875 125.020541,109.710275 125.020541,109.971234 C125.020541,110.094556 124.994595,110.268529 124.944865,110.494254 C124.851892,110.929186 124.656216,111.725277 124.355676,112.879224 C123.580541,115.819145 123.191351,117.555571 123.191351,118.085197 C123.191351,118.238249 123.219459,118.348359 123.272432,118.417728 C123.326486,118.485995 123.401081,118.52123 123.494054,118.52123 C123.637838,118.52123 123.819459,118.467277 124.038919,118.358269 C124.259459,118.24926 124.660541,117.970683 125.243243,117.522538 L125.459459,117.970683 C124.298378,118.87248 123.423784,119.47698 122.835676,119.781983 C122.555676,119.927328 122.323243,120 122.137297,120 C121.957838,120 121.798919,119.916317 121.659459,119.750052 C121.52,119.582685 121.450811,119.350354 121.450811,119.051958 C121.450811,118.819627 121.475676,118.561971 121.525405,118.277889 C121.575135,117.993806 121.700541,117.481798 121.900541,116.73966 C122.728649,113.686326 123.143784,111.795747 123.143784,111.067924 C123.143784,110.914872 123.124324,110.81247 123.084324,110.757415 C123.044324,110.703462 122.989189,110.675934 122.916757,110.675934 C122.83027,110.675934 122.727568,110.701259 122.604324,110.754112 C122.548108,110.783841 122.073514,111.078935 121.182703,111.639392 L121.182703,111.639392 Z" id="Fill-24" fill="#FFFFFE"></path>
                <path d="M123.939459,105.455647 C123.939459,105.047141 124.064865,104.703599 124.315676,104.421719 C124.568649,104.14094 124.855135,104 125.179459,104 C125.431351,104 125.63027,104.078178 125.778378,104.235634 C125.926486,104.39199 126,104.610006 126,104.886381 C126,105.267359 125.890811,105.615305 125.675676,105.93242 C125.460541,106.249535 125.171892,106.409194 124.812973,106.409194 C124.561081,106.409194 124.351351,106.322208 124.187027,106.146033 C124.021622,105.970959 123.939459,105.74083 123.939459,105.455647 Z M121.182703,111.639392 L121,111.191246 C122.268108,110.303764 123.116757,109.755419 123.547027,109.544009 C123.977297,109.335903 124.313514,109.230198 124.557838,109.230198 C124.694054,109.230198 124.797838,109.277545 124.869189,109.372239 C124.96973,109.509875 125.020541,109.710275 125.020541,109.971234 C125.020541,110.094556 124.994595,110.268529 124.944865,110.494254 C124.851892,110.929186 124.656216,111.725277 124.355676,112.879224 C123.580541,115.819145 123.191351,117.555571 123.191351,118.085197 C123.191351,118.238249 123.219459,118.348359 123.272432,118.417728 C123.326486,118.485995 123.401081,118.52123 123.494054,118.52123 C123.637838,118.52123 123.819459,118.467277 124.038919,118.358269 C124.259459,118.24926 124.660541,117.970683 125.243243,117.522538 L125.459459,117.970683 C124.298378,118.87248 123.423784,119.47698 122.835676,119.781983 C122.555676,119.927328 122.323243,120 122.137297,120 C121.957838,120 121.798919,119.916317 121.659459,119.750052 C121.52,119.582685 121.450811,119.350354 121.450811,119.051958 C121.450811,118.819627 121.475676,118.561971 121.525405,118.277889 C121.575135,117.993806 121.700541,117.481798 121.900541,116.73966 C122.728649,113.686326 123.143784,111.795747 123.143784,111.067924 C123.143784,110.914872 123.124324,110.81247 123.084324,110.757415 C123.044324,110.703462 122.989189,110.675934 122.916757,110.675934 C122.83027,110.675934 122.727568,110.701259 122.604324,110.754112 C122.548108,110.783841 122.073514,111.078935 121.182703,111.639392 Z" id="Stroke-25" stroke="#FFFFFE" stroke-width="0.2"></path>
                <path d="M131.734461,116.985928 L131.987128,117.446664 C131.32512,117.99478 130.666421,118.504312 130.00993,118.976396 C129.352335,119.449614 128.870173,119.75261 128.561236,119.887653 C128.392424,119.962551 128.228025,120 128.065833,120 C127.874954,120 127.710555,119.90808 127.571534,119.725374 C127.432512,119.541534 127.361898,119.238538 127.361898,118.818656 C127.361898,118.639355 127.377345,118.433954 127.406032,118.204721 C127.435822,117.976623 127.486576,117.666818 127.559397,117.276441 L128.06142,114.96936 C128.232438,114.151158 128.498345,112.766682 128.855829,110.815933 L127,110.851112 L127.055167,110.514072 C127.643251,110.288243 128.043766,110.128234 128.258919,110.037449 C128.472968,109.946664 128.722324,109.827508 129.005885,109.681117 C129.119529,109.097821 129.200074,108.654108 129.249724,108.351112 C129.299375,108.046981 129.41633,107.200409 129.598382,105.807989 L130.535123,105.391512 L131.289812,105 L131.550202,105.200862 C131.258919,106.409442 131.10114,107.056287 131.079073,107.147072 C131.021699,107.409215 130.842957,108.30118 130.54395,109.822969 C130.873851,109.837721 131.138654,109.84453 131.337256,109.84453 C132.063259,109.84453 132.581832,109.790059 132.889665,109.681117 L133,109.774172 L132.735197,110.921471 C132.42626,110.921471 131.63185,110.886291 130.354174,110.815933 C130.222876,111.437812 130.017654,112.5 129.737403,113.995688 C129.45605,115.49478 129.272894,116.580799 129.18573,117.256015 C129.148216,117.527236 129.130563,117.737177 129.130563,117.885837 C129.130563,118.05833 129.170283,118.189968 129.250828,118.276214 C129.331372,118.36246 129.428466,118.404448 129.546524,118.404448 C129.641412,118.404448 129.73961,118.385157 129.841118,118.345438 C130.052961,118.251248 130.319971,118.087835 130.641045,117.854063 L131.734461,116.985928" id="Fill-26" fill="#FFFFFE"></path>
                <path d="M131.734461,116.985928 L131.987128,117.446664 C131.32512,117.99478 130.666421,118.504312 130.00993,118.976396 C129.352335,119.449614 128.870173,119.75261 128.561236,119.887653 C128.392424,119.962551 128.228025,120 128.065833,120 C127.874954,120 127.710555,119.90808 127.571534,119.725374 C127.432512,119.541534 127.361898,119.238538 127.361898,118.818656 C127.361898,118.639355 127.377345,118.433954 127.406032,118.204721 C127.435822,117.976623 127.486576,117.666818 127.559397,117.276441 L128.06142,114.96936 C128.232438,114.151158 128.498345,112.766682 128.855829,110.815933 L127,110.851112 L127.055167,110.514072 C127.643251,110.288243 128.043766,110.128234 128.258919,110.037449 C128.472968,109.946664 128.722324,109.827508 129.005885,109.681117 C129.119529,109.097821 129.200074,108.654108 129.249724,108.351112 C129.299375,108.046981 129.41633,107.200409 129.598382,105.807989 L130.535123,105.391512 L131.289812,105 L131.550202,105.200862 C131.258919,106.409442 131.10114,107.056287 131.079073,107.147072 C131.021699,107.409215 130.842957,108.30118 130.54395,109.822969 C130.873851,109.837721 131.138654,109.84453 131.337256,109.84453 C132.063259,109.84453 132.581832,109.790059 132.889665,109.681117 L133,109.774172 L132.735197,110.921471 C132.42626,110.921471 131.63185,110.886291 130.354174,110.815933 C130.222876,111.437812 130.017654,112.5 129.737403,113.995688 C129.45605,115.49478 129.272894,116.580799 129.18573,117.256015 C129.148216,117.527236 129.130563,117.737177 129.130563,117.885837 C129.130563,118.05833 129.170283,118.189968 129.250828,118.276214 C129.331372,118.36246 129.428466,118.404448 129.546524,118.404448 C129.641412,118.404448 129.73961,118.385157 129.841118,118.345438 C130.052961,118.251248 130.319971,118.087835 130.641045,117.854063 L131.734461,116.985928 Z" id="Stroke-27" stroke="#FFFFFE" stroke-width="0.2"></path>
                <path d="M133.052428,123.836323 L134.12392,123.102438 L134.351107,123.180629 C134.335816,123.320258 134.329262,123.434194 134.329262,123.522439 C134.329262,123.979302 134.467977,124.354623 134.745408,124.650634 C135.022838,124.944412 135.360342,125.092976 135.756827,125.092976 C136.016781,125.092976 136.28875,125.024837 136.573826,124.889677 C136.858902,124.7534 137.116672,124.545634 137.347135,124.267495 C137.657333,123.90111 137.995929,123.301268 138.364015,122.470202 C138.732102,121.638018 139.147155,120.438334 139.608083,118.868914 L140.439281,115.812734 C139.913911,116.630396 139.376527,117.340824 138.829312,117.945134 C137.883428,119.007425 137.258663,119.631842 136.952835,119.819502 C136.647006,120.007162 136.391421,120.100992 136.190448,120.100992 C135.959984,120.100992 135.765564,119.978119 135.606097,119.736842 C135.353788,119.368224 135.22818,118.829818 135.22818,118.121624 C135.22818,117.842368 135.278423,117.253696 135.37891,116.354491 C135.552577,114.74039 135.638864,113.319535 135.638864,112.088573 C135.638864,111.595966 135.61265,111.238518 135.562407,111.01623 C135.534009,110.876602 135.483765,110.773835 135.412769,110.707931 C135.362526,110.66325 135.30136,110.640909 135.230364,110.640909 C135.015192,110.640909 134.564095,110.9224 133.877073,111.483146 C133.755834,111.582561 133.666269,111.6507 133.60838,111.688679 L133.317843,111.23405 C134.150134,110.502398 134.919075,109.909258 135.624665,109.454629 C136.023334,109.19883 136.340085,109.070373 136.57601,109.070373 C136.783537,109.070373 136.949558,109.163086 137.075166,109.347395 C137.200775,109.532821 137.265217,109.909258 137.265217,110.477824 C137.265217,110.957027 137.199682,111.970169 137.069705,113.51278 C136.91133,115.32236 136.831596,116.633747 136.831596,117.446941 C136.831596,117.823379 136.875285,118.07806 136.963757,118.210986 C137.035845,118.30705 137.134148,118.355082 137.257571,118.355082 C137.379903,118.355082 137.504419,118.322689 137.627842,118.25455 C137.903088,118.099284 138.231854,117.821145 138.613047,117.419016 C138.994241,117.018004 139.355774,116.55779 139.697647,116.038373 C140.264522,115.191668 140.742925,114.210921 141.136133,113.097247 C141.380796,112.421447 141.710654,111.194954 142.123523,109.421118 C142.550591,109.354097 143.096713,109.214469 143.761891,109 L144,109.222288 C143.797935,109.656811 143.600238,110.169525 143.404726,110.759314 C143.065038,111.762402 142.600834,113.302779 142.00993,115.381563 C141.533711,117.070504 141.176547,118.267955 140.938437,118.977265 C140.494986,120.333333 140.036243,121.439188 139.562208,122.295946 C139.088174,123.149353 138.512561,123.910047 137.833184,124.573559 C137.329659,125.075103 136.822858,125.43702 136.314964,125.662659 C135.805978,125.88718 135.32539,126 134.871016,126 C134.553172,126 134.238606,125.920691 133.929501,125.762074 C133.619303,125.602339 133.386655,125.383402 133.232648,125.10638 C133.077549,124.828241 133,124.532229 133,124.21276 C133,124.102175 133.017476,123.975951 133.052428,123.836323" id="Fill-28" fill="#FFFFFE"></path>
                <path d="M133.052428,123.836323 L134.12392,123.102438 L134.351107,123.180629 C134.335816,123.320258 134.329262,123.434194 134.329262,123.522439 C134.329262,123.979302 134.467977,124.354623 134.745408,124.650634 C135.022838,124.944412 135.360342,125.092976 135.756827,125.092976 C136.016781,125.092976 136.28875,125.024837 136.573826,124.889677 C136.858902,124.7534 137.116672,124.545634 137.347135,124.267495 C137.657333,123.90111 137.995929,123.301268 138.364015,122.470202 C138.732102,121.638018 139.147155,120.438334 139.608083,118.868914 L140.439281,115.812734 C139.913911,116.630396 139.376527,117.340824 138.829312,117.945134 C137.883428,119.007425 137.258663,119.631842 136.952835,119.819502 C136.647006,120.007162 136.391421,120.100992 136.190448,120.100992 C135.959984,120.100992 135.765564,119.978119 135.606097,119.736842 C135.353788,119.368224 135.22818,118.829818 135.22818,118.121624 C135.22818,117.842368 135.278423,117.253696 135.37891,116.354491 C135.552577,114.74039 135.638864,113.319535 135.638864,112.088573 C135.638864,111.595966 135.61265,111.238518 135.562407,111.01623 C135.534009,110.876602 135.483765,110.773835 135.412769,110.707931 C135.362526,110.66325 135.30136,110.640909 135.230364,110.640909 C135.015192,110.640909 134.564095,110.9224 133.877073,111.483146 C133.755834,111.582561 133.666269,111.6507 133.60838,111.688679 L133.317843,111.23405 C134.150134,110.502398 134.919075,109.909258 135.624665,109.454629 C136.023334,109.19883 136.340085,109.070373 136.57601,109.070373 C136.783537,109.070373 136.949558,109.163086 137.075166,109.347395 C137.200775,109.532821 137.265217,109.909258 137.265217,110.477824 C137.265217,110.957027 137.199682,111.970169 137.069705,113.51278 C136.91133,115.32236 136.831596,116.633747 136.831596,117.446941 C136.831596,117.823379 136.875285,118.07806 136.963757,118.210986 C137.035845,118.30705 137.134148,118.355082 137.257571,118.355082 C137.379903,118.355082 137.504419,118.322689 137.627842,118.25455 C137.903088,118.099284 138.231854,117.821145 138.613047,117.419016 C138.994241,117.018004 139.355774,116.55779 139.697647,116.038373 C140.264522,115.191668 140.742925,114.210921 141.136133,113.097247 C141.380796,112.421447 141.710654,111.194954 142.123523,109.421118 C142.550591,109.354097 143.096713,109.214469 143.761891,109 L144,109.222288 C143.797935,109.656811 143.600238,110.169525 143.404726,110.759314 C143.065038,111.762402 142.600834,113.302779 142.00993,115.381563 C141.533711,117.070504 141.176547,118.267955 140.938437,118.977265 C140.494986,120.333333 140.036243,121.439188 139.562208,122.295946 C139.088174,123.149353 138.512561,123.910047 137.833184,124.573559 C137.329659,125.075103 136.822858,125.43702 136.314964,125.662659 C135.805978,125.88718 135.32539,126 134.871016,126 C134.553172,126 134.238606,125.920691 133.929501,125.762074 C133.619303,125.602339 133.386655,125.383402 133.232648,125.10638 C133.077549,124.828241 133,124.532229 133,124.21276 C133,124.102175 133.017476,123.975951 133.052428,123.836323 Z" id="Stroke-29" stroke="#FFFFFE" stroke-width="0.2"></path>
                <path d="M72.0764129,110.616524 C71.6861931,114.204774 72.7217763,117.881039 76.7809855,119.369373 C81.6864405,121.16237 88.4310082,119.070352 91.0875044,113.878672 C94.7530303,106.714583 92.8331029,101.343491 88.0142351,99.6746158 C82.4460991,97.7462132 76.326114,100.044725 73.6315195,105.385351 C72.8753244,106.884969 72.2807587,108.73777 72.0764129,110.616524 M74.6844201,110.626679 C74.7917883,109.540048 74.9995976,108.562871 75.2258789,107.683862 C76.5893391,102.423351 79.8761903,99.3586692 85.3958373,100.378725 C89.6062855,101.157308 91.1625466,105.089715 89.6836368,111.355613 C88.3005502,117.213037 83.8776746,119.553299 79.6660719,118.701371 C75.5953178,117.876525 74.2815009,114.693363 74.6844201,110.626679" id="Fill-30" fill="#FFFFFE"></path>
                <path d="M72.0764129,110.616524 C71.6861931,114.204774 72.7217763,117.881039 76.7809855,119.369373 C81.6864405,121.16237 88.4310082,119.070352 91.0875044,113.878672 C94.7530303,106.714583 92.8331029,101.343491 88.0142351,99.6746158 C82.4460991,97.7462132 76.326114,100.044725 73.6315195,105.385351 C72.8753244,106.884969 72.2807587,108.73777 72.0764129,110.616524 M74.6844201,110.626679 C74.7917883,109.540048 74.9995976,108.562871 75.2258789,107.683862 C76.5893391,102.423351 79.8761903,99.3586692 85.3958373,100.378725 C89.6062855,101.157308 91.1625466,105.089715 89.6836368,111.355613 C88.3005502,117.213037 83.8776746,119.553299 79.6660719,118.701371 C75.5953178,117.876525 74.2815009,114.693363 74.6844201,110.626679" id="Stroke-31" stroke="#FFFFFE" stroke-width="0.2"></path>
                <path d="M77.4829781,123.342239 C78.4086497,121.523715 79.9536716,120.65653 82.4444885,121.334884 C84.3003036,121.84288 89.9706012,123.785581 90.8426107,124.067801 C93.8555153,125.047875 97.7873837,125.653365 98.9254679,123.798922 C99.4911561,122.876319 99.8254264,122.110733 99.8254264,122.110733 C100.192118,121.706388 99.8612012,120.711947 99.8992118,120.913093 C99.6051881,120.508749 99.3480571,120.76326 99.2742717,120.965432 C99.3860678,122.532524 98.6683369,123.460258 95.1959504,123.393552 C93.6531644,123.36379 92.1640405,123.021021 90.0153196,122.246199 C88.5653244,121.723835 87.4753125,121.47856 87.1298626,121.370803 C85.4775164,120.847413 82.9073243,120.195741 81.5825406,120.036672 C78.6232982,119.681587 77.5880664,122.00195 77.0603889,122.820901 C76.8222632,123.191379 77.3566485,123.594698 77.4829781,123.342239" id="Fill-32" fill="#FFFFFE"></path>
                <path d="M77.4829781,123.342239 C78.4086497,121.523715 79.9536716,120.65653 82.4444885,121.334884 C84.3003036,121.84288 89.9706012,123.785581 90.8426107,124.067801 C93.8555153,125.047875 97.7873837,125.653365 98.9254679,123.798922 C99.4911561,122.876319 99.8254264,122.110733 99.8254264,122.110733 C100.192118,121.706388 99.8612012,120.711947 99.8992118,120.913093 C99.6051881,120.508749 99.3480571,120.76326 99.2742717,120.965432 C99.3860678,122.532524 98.6683369,123.460258 95.1959504,123.393552 C93.6531644,123.36379 92.1640405,123.021021 90.0153196,122.246199 C88.5653244,121.723835 87.4753125,121.47856 87.1298626,121.370803 C85.4775164,120.847413 82.9073243,120.195741 81.5825406,120.036672 C78.6232982,119.681587 77.5880664,122.00195 77.0603889,122.820901 C76.8222632,123.191379 77.3566485,123.594698 77.4829781,123.342239 Z" id="Stroke-33" stroke="#FFFFFE" stroke-width="0.2"></path>
            </g>
        </g>
    </g>
</svg>