<?xml version="1.0" encoding="utf-8"?>
<!-- Generator: Adobe Illustrator 21.1.0, SVG Export Plug-In . SVG Version: 6.00 Build 0)  -->
<svg version="1.1" id="LeftSide-NavBar" xmlns="http://www.w3.org/2000/svg" xmlns:xlink="http://www.w3.org/1999/xlink" x="0px"
	 y="0px" viewBox="0 0 171.7 142.3" style="enable-background:new 0 0 171.7 142.3;" xml:space="preserve">
<style type="text/css">
	.st0{fill:#FFFFFF;}
	.st1{fill:#008752;}
	.st2{fill:#00833E;}
	.st3{fill:#FFDD00;}
	.st4{fill:#ED3024;}
	.st5{fill:none;stroke:#FFFFFF;stroke-width:0.1158;}
</style>
<g>
	<path class="st0" d="M167.6,44.5c-5.3-13.6-15.5-24.7-27.2-29.7l0,0c-4.9-2.1-19.4-8.1-38.6-2.6c-1.8-0.7-3.5-1-5.1-1.2
		c-1.4-2.5-3.7-5.2-6.9-7.9L85.8,0L82,3.3c-3.2,2.7-5.5,5.3-6.9,7.9c-1.6,0.1-3.3,0.5-5.1,1.2c-19.2-5.6-33.7,0.5-38.6,2.6
		c-11.7,4.9-21.9,16-27.2,29.7c-6,15.5-5.4,32.7,1.8,48.4c8.8,19.2,26.7,24.2,39.8,22.1c4.3,10.4,14,12.6,21.3,14.3l0.4,0.1
		c9.7,2.3,12.1,4.4,13.7,6.5l4.7,6.4l4.7-6.4c1.6-2,4-4.2,13.7-6.5l0.4-0.1c7.3-1.7,17-3.9,21.3-14.3c5.7,0.9,11.9,0.4,17.6-1.6
		c6.9-2.3,16.3-7.8,22.2-20.5C173,77.2,173.6,60,167.6,44.5z"/>
	<g>
		<path class="st1" d="M85.8,131.3L85.8,131.3c3.1-3.8,7.3-6.3,17.1-8.6c8.4-1.9,16.9-3.7,18.9-15.9c10.3,4.1,29.8,1.8,38.5-17.3
			c14.3-31.1-2.1-61.6-22.3-70c-7-2.9-19.9-7.3-36.7-1.7c-3.2-1.8-6-1.9-9-1.3c0.2-3.7-4.8-8.1-6.5-9.5c-1.7,1.4-6.7,5.8-6.5,9.5
			c-3-0.5-5.8-0.4-9,1.3c-16.8-5.6-29.7-1.2-36.7,1.7c-20.1,8.5-36.5,38.9-22.3,70c8.7,19.1,28.2,21.4,38.5,17.3
			c2,12.1,10.5,13.9,18.9,15.9C78.6,125.1,82.8,127.6,85.8,131.3L85.8,131.3L85.8,131.3"/>
		<path class="st2" d="M126.4,115.1v-1.5h1c0.5,0,1,0.1,1,0.7c0,0.7-0.5,0.8-1.1,0.8H126.4 M126.4,115.7h0.8l1.3,2h0.8l-1.3-2.1
			c0.7-0.1,1.2-0.4,1.2-1.3c0-0.9-0.6-1.3-1.7-1.3h-1.8v4.7h0.7V115.7z M127.2,119.4c2.2,0,4.1-1.7,4.1-4.1c0-2.3-1.9-4.1-4.1-4.1
			c-2.2,0-4.1,1.7-4.1,4.1C123.1,117.7,125,119.4,127.2,119.4z M123.9,115.3c0-1.9,1.5-3.4,3.3-3.4c1.8,0,3.3,1.5,3.3,3.4
			c0,2-1.4,3.4-3.3,3.4C125.4,118.8,123.9,117.3,123.9,115.3z"/>
		<path class="st3" d="M85.8,29.4c20.1-14.2,40.3-10.9,49.3-7.1c23.3,9.6,34.7,42.2,22.1,66.3c-10.5,20-29.4,18.2-36.8,15.4
			c-1.9,11.5-9.8,14-19.2,15.9c-9.4,1.9-12.5,2.9-15.4,6.5c-2.9-3.6-6-4.6-15.4-6.5c-9.3-1.9-17.3-4.4-19.2-15.9
			c-7.4,2.8-26.3,4.6-36.8-15.4c-12.6-24-1.2-56.7,22.1-66.3C45.5,18.5,65.7,15.2,85.8,29.4"/>
		<path class="st3" d="M85,26.4c-4.5-2.8-7.6-4.3-12.1-6.1c2-0.4,4.3-0.5,5.8-0.4c2.1,0.2,2.6,0.9,3.1,1.4
			C83.6,22.8,85,26.4,85,26.4"/>
		<path class="st3" d="M86.6,26.4c4.5-2.8,7.5-4.3,12.1-6.1c-2-0.4-4.3-0.5-5.8-0.4c-2.1,0.2-2.6,0.9-3.1,1.4
			C88.1,22.8,86.6,26.4,86.6,26.4"/>
		<path class="st3" d="M85.8,11.9L85.8,11.9c0,0,0.5,0.6,1.9,2.5c1.8,2.3,1.1,4.2,0.1,5.9c-1.1,1.8-1.7,2.7-2,3h0
			c-0.3-0.4-0.9-1.2-2-3c-1-1.7-1.7-3.6,0.1-5.9C85.3,12.5,85.8,11.9,85.8,11.9L85.8,11.9L85.8,11.9"/>
		<path class="st4" d="M85.9,38.3L85.9,38.3c24.2-17.9,56.5-17.1,68.3,8.9c6.6,14.5,4.9,34.9-7.8,43.9c-8,5.7-13.6,7.2-27.1,4.2
			c-0.7,11.2-5.9,13.9-18.7,15.9c-5.5,0.8-10.3,1.1-14.8,5.6h0h0h0c-4.5-4.6-9.3-4.8-14.8-5.6c-12.7-1.9-18-4.7-18.7-15.9
			c-13.5,3.1-19.1,1.5-27.1-4.2c-12.7-9-14.4-29.4-7.8-43.9C29.3,21.2,61.6,20.4,85.9,38.3L85.9,38.3L85.9,38.3"/>
		<path class="st0" d="M29.5,54.5l-5.3,2.4c0,0,0,12.4,0,13.8c0,1.9-1.5,3.4-2.3,4.3c0,0,5.8,0,8.7,0c4,0,8.1-1,8.1-7.8
			c0,0,0-6.5,0-9.6c0-5.7-3.6-8.5-8.5-8.4c-3.1,0-6.1,0.4-7.2,0.8l-1.8,5.6c0.3-0.1,5.2-1.5,7.3-1.6c0.4,0,4.8-0.8,4.8,3.9
			c0,0,0,8,0,9.3c0,3.5-2.5,3-3.8,3.1L29.5,54.5"/>
		<path class="st0" d="M46.3,65.4c1.2-1,1.5-1.4,2.2-2c1.5-1.7-0.3-4.4-1-5c-0.7-0.7-1.2-0.4-1.2,0.5C46.3,59.2,46.3,65.4,46.3,65.4
			 M41.1,61.6c0-1,0.1-1.9,0.1-2.6c0.1-0.9,0.3-1.6,2-2.6c0.6-0.3,2.5-1.4,4.4-2.2c0.6-0.3,2.7-1.3,4.3,1.1c0.7,0.9,0.8,1.1,1.5,2.4
			c1.3,2.3-0.1,4-0.8,4.7c-1.6,1.7-4.1,3.9-6.2,5.3c0,1.9,1.6,2.3,2.4,2.6c1.2,0.5,1.6,0.6,4,1.2L50,75.9c-4.8-1.4-5.5-2-6.5-2.6
			c-1.2-0.7-2-1.8-2.2-3.7C41.2,68.8,41,64.6,41.1,61.6"/>
		<path class="st0" d="M61,48.9l-5.4,2.5c0,0,0,16,0,17.7c0,2.5,0.6,3.8,2.1,4.9C59,75,61,75.9,61,75.9l2.8-4.3
			c-1.4-0.8-2.8-1.2-2.8-3.6C61,66.7,61,48.9,61,48.9"/>
		<path class="st0" d="M78.5,75H84l0-20.3c0,0,0.6-0.4,1-0.6c0.7-0.4,1.8-0.1,1.8,1.2c0,0,0,13.4,0,14.8c0,2.2,0.8,3,1.5,3.6
			c0.2,0.3,1,0.8,1.1,0.9c0.4,0.3,1.1,0.9,2,1.3l3.5-4c-1.1-0.6-2.5-1-2.5-3.4c0,0,0-13.2,0-14.8c0-1.4,0-1.5-0.9-2.4
			c-0.6-0.6-1.3-1.1-2.1-1.6c-1.3-0.8-2.4-0.7-4,0.1c-0.8,0.4-1.8,0.9-2.4,1.2c-0.6-0.5-1.2-0.9-2-1.4c-0.6-0.4-1.8-0.9-3.7,0.2
			c-1.1,0.7-1.7,1-2.6,1.5c-1.6-1.2-2.6-1.6-3.4-1.9L67,53.1c0,0,0.8,0.4,1.7,0.8c1.5,0.7,1.5,0.6,1.5,2.5c0,1.4,0,18.6,0,18.6h5.6
			l0-20.3c0.2-0.1,0.8-0.5,1.1-0.6c0.6-0.3,1.7-0.1,1.7,1.2V75L78.5,75"/>
		<path class="st0" d="M95.6,64.8c0,3,0,5.3,0,5.3c0,1.1,0.3,2.1,1.8,3.2c0.8,0.6,1.1,0.8,2.8,1.7c1.6,0.8,2.6,0.4,4.1-0.4
			c1-0.6,2.3-1.4,3.1-2c0.8-0.6,1.6-1.3,1.6-3.2c0,0,0-7.4,0-10.1c0-1.8,0-2.5-1.1-3.4c-0.7-0.6-1.4-1.1-2.3-1.7
			c-1.2-0.8-2-0.8-4.1,0.1c-1,0.4-2.1,1-3.5,1.7c-1.7,0.9-2.3,1.7-2.3,3.1C95.6,59.7,95.6,62.1,95.6,64.8 M101,64.8
			c0-2.6,0-5.5,0-5.8c0-0.5,0.3-0.7,0.5-0.8c0.7-0.4,0.8-0.1,1.4,0.4c0.4,0.3,0.6,0.6,0.6,1.2c0,0.9,0,10.4,0,10.4
			c0,0.6-0.3,1.2-1.1,0.7c-0.6-0.4-0.6-0.4-0.9-0.7c-0.3-0.3-0.5-0.4-0.5-1C101,69.1,101,67.1,101,64.8"/>
		<path class="st0" d="M144.6,65.2c1.2-1,1.6-1.4,2.2-2c1.5-1.7-0.3-4.4-0.9-5c-0.7-0.7-1.2-0.4-1.2,0.5V65.2 M139.5,61.4
			c0-1,0.1-1.9,0.1-2.6c0.1-0.9,0.3-1.6,2.1-2.6c0.6-0.3,2.5-1.4,4.3-2.2c0.6-0.3,2.7-1.3,4.3,1c0.6,0.9,0.8,1.1,1.5,2.4
			c1.3,2.3-0.1,4-0.8,4.8c-1.6,1.7-4.1,3.9-6.1,5.3c0,1.8,1.6,2.3,2.3,2.6c1.2,0.5,1.6,0.6,4,1.2l-2.8,4.3c-4.8-1.4-5.5-2.1-6.5-2.6
			c-1.2-0.7-2-1.8-2.2-3.7C139.6,68.6,139.4,64.5,139.5,61.4"/>
		<path class="st0" d="M117.6,58.9v16h-5.3c0,0,0-13.2,0-14.6c0-1.8-0.3-1.7-1.3-2.5c-0.1-0.1-0.7-0.5-0.7-0.5l4.2-3.4
			c0.7,0.3,1.7,1.1,2.4,1.7c0.9-0.5,1.3-0.7,2.7-1.5c1.8-0.8,2.3-0.4,3,0.1c0.7,0.5,1.3,1,1.8,1.6c0.8,0.8,0.8,1.3,0.8,2.5
			c0,1.5,0,10.4,0,10.4c0,2.1,0.4,2.1,2.1,3.1l-3.5,4.1c-0.8-0.5-1.3-0.9-1.8-1.3c-0.4-0.3-0.5-0.4-1.2-1c-0.9-0.9-0.9-2.1-0.9-3.5
			c0-1.5,0-11.1,0-11.1c0-1-1-1.1-1.5-0.7C117.9,58.7,117.6,58.9,117.6,58.9"/>
		<path class="st0" d="M134.8,58.5v9.8c0,1.9,1.1,2.4,3.3,3.4l-2.8,4.2l-2.8-1.5c-1.7-1-3.1-2.2-3.1-4.5V58.5h-2.9v-4h2.9V52
			l5.4-2.6v5.1h3.2v4H134.8"/>
		<path class="st0" d="M74.3,89l-0.2-0.3c0.5-0.4,1.2-0.8,2-1.3c0.4-0.2,0.6-0.3,0.8-0.3c0.1,0,0.2,0,0.3,0.1
			c0.1,0.1,0.1,0.2,0.1,0.3c0,0.1,0,0.4-0.1,0.7c-0.8,3.1-1.2,5-1.2,5.5c0,0.1,0,0.2,0.1,0.3c0,0.1,0.1,0.1,0.2,0.1
			c0.1,0,0.2,0,0.4-0.1c0.4-0.2,0.9-0.6,1.4-1.1c0.5-0.5,1-1.1,1.4-1.8c0.3-0.4,0.5-0.9,0.7-1.4c0.2-0.6,0.4-1.3,0.6-2.3
			c0.1,0,0.4-0.1,0.9-0.3l0.1,0.1l-0.3,1.5c-0.1,0.8-0.3,1.6-0.5,2.6c-0.2,0.9-0.3,1.6-0.4,2c0,0.2-0.1,0.4-0.1,0.5
			c0,0.1,0,0.2,0.1,0.3c0,0.1,0.1,0.1,0.2,0.1c0.1,0,0.2,0,0.3-0.1c0.1-0.1,0.5-0.3,1-0.7l0.2,0.3c-0.9,0.8-1.6,1.2-2,1.5
			c-0.3,0.2-0.5,0.2-0.7,0.2c-0.1,0-0.2,0-0.3-0.2c-0.1-0.1-0.1-0.2-0.1-0.4c0-0.1,0-0.3,0-0.4c0.1-0.3,0.2-0.8,0.4-1.5l0.3-1.4
			l-0.1,0c-0.6,0.8-0.9,1.3-1.1,1.4c-0.4,0.5-0.9,1-1.5,1.5c-0.6,0.5-1.1,0.8-1.6,1c-0.2,0.1-0.3,0.1-0.4,0.1
			c-0.2,0-0.3-0.1-0.4-0.2c-0.1-0.2-0.2-0.4-0.2-0.7c0-0.4,0.1-1.1,0.3-1.9c0.3-1.3,0.5-2.3,0.7-3c0.1-0.5,0.1-0.8,0.1-1
			c0-0.1,0-0.2-0.1-0.2c0,0-0.1-0.1-0.2-0.1C75.5,88.2,75,88.5,74.3,89"/>
		<path class="st5" d="M74.3,89l-0.2-0.3c0.5-0.4,1.2-0.8,2-1.3c0.4-0.2,0.6-0.3,0.8-0.3c0.1,0,0.2,0,0.3,0.1
			c0.1,0.1,0.1,0.2,0.1,0.3c0,0.1,0,0.4-0.1,0.7c-0.8,3.1-1.2,5-1.2,5.5c0,0.1,0,0.2,0.1,0.3c0,0.1,0.1,0.1,0.2,0.1
			c0.1,0,0.2,0,0.4-0.1c0.4-0.2,0.9-0.6,1.4-1.1c0.5-0.5,1-1.1,1.4-1.8c0.3-0.4,0.5-0.9,0.7-1.4c0.2-0.6,0.4-1.3,0.6-2.3
			c0.1,0,0.4-0.1,0.9-0.3l0.1,0.1l-0.3,1.5c-0.1,0.8-0.3,1.6-0.5,2.6c-0.2,0.9-0.3,1.6-0.4,2c0,0.2-0.1,0.4-0.1,0.5
			c0,0.1,0,0.2,0.1,0.3c0,0.1,0.1,0.1,0.2,0.1c0.1,0,0.2,0,0.3-0.1c0.1-0.1,0.5-0.3,1-0.7l0.2,0.3c-0.9,0.8-1.6,1.2-2,1.5
			c-0.3,0.2-0.5,0.2-0.7,0.2c-0.1,0-0.2,0-0.3-0.2c-0.1-0.1-0.1-0.2-0.1-0.4c0-0.1,0-0.3,0-0.4c0.1-0.3,0.2-0.8,0.4-1.5l0.3-1.4
			l-0.1,0c-0.6,0.8-0.9,1.3-1.1,1.4c-0.4,0.5-0.9,1-1.5,1.5c-0.6,0.5-1.1,0.8-1.6,1c-0.2,0.1-0.3,0.1-0.4,0.1
			c-0.2,0-0.3-0.1-0.4-0.2c-0.1-0.2-0.2-0.4-0.2-0.7c0-0.4,0.1-1.1,0.3-1.9c0.3-1.3,0.5-2.3,0.7-3c0.1-0.5,0.1-0.8,0.1-1
			c0-0.1,0-0.2-0.1-0.2c0,0-0.1-0.1-0.2-0.1C75.5,88.2,75,88.5,74.3,89z"/>
		<path class="st0" d="M88.5,88.2c-0.2-0.1-0.4-0.2-0.7-0.2c-0.2-0.1-0.5-0.1-0.7-0.1c-0.5,0-0.9,0.1-1.1,0.2
			c-0.1,0.1-0.3,0.2-0.4,0.5c-0.3,0.6-0.6,1.2-0.8,2c-0.3,1.1-0.5,2.1-0.5,3c0,0.1,0,0.2,0,0.3c0,0.1,0.1,0.1,0.1,0.2
			c0,0,0.1,0.1,0.2,0.1c0.1,0,0.3-0.1,0.5-0.2c0.5-0.3,0.9-0.7,1.4-1.2c0.5-0.6,0.9-1.2,1.2-1.9C88,90.2,88.3,89.3,88.5,88.2
			 M89.7,93.4l0.1,0.3l-1.1,1c-0.4,0.3-0.7,0.5-0.9,0.6c-0.1,0-0.1,0-0.2,0c-0.1,0-0.2,0-0.3-0.2c-0.1-0.1-0.1-0.2-0.1-0.4
			c0-0.6,0.2-1.6,0.5-2.9l-0.1,0c-0.4,0.6-0.8,1-1,1.3c-0.5,0.5-0.9,1-1.3,1.3c-0.5,0.4-0.9,0.6-1.3,0.8c-0.1,0-0.2,0.1-0.3,0.1
			c-0.1,0-0.3-0.1-0.4-0.2c-0.2-0.2-0.2-0.6-0.2-1.2c0-0.7,0.1-1.5,0.4-2.5c0.3-0.9,0.6-1.8,0.9-2.5c0.2-0.4,0.4-0.7,0.8-0.9
			c0.5-0.4,1-0.7,1.5-0.9c0.3-0.1,0.6-0.2,1-0.2c0.2,0,0.5,0,0.7,0.1c0.2,0,0.5,0.1,0.8,0.2l0.5-0.3l0.2,0.1
			c-0.4,1.2-0.7,2.4-0.9,3.5c-0.2,0.7-0.4,1.1-0.4,1.5c-0.1,0.5-0.2,1-0.3,1.5c0,0.1,0,0.2,0,0.2c0,0.1,0,0.2,0.1,0.3
			c0,0,0.1,0.1,0.2,0.1c0.1,0,0.2,0,0.3-0.1C88.9,94,89.2,93.8,89.7,93.4z"/>
		<path class="st5" d="M88.5,88.2c-0.2-0.1-0.4-0.2-0.7-0.2c-0.2-0.1-0.5-0.1-0.7-0.1c-0.5,0-0.9,0.1-1.1,0.2
			c-0.1,0.1-0.3,0.2-0.4,0.5c-0.3,0.6-0.6,1.2-0.8,2c-0.3,1.1-0.5,2.1-0.5,3c0,0.1,0,0.2,0,0.3c0,0.1,0.1,0.1,0.1,0.2
			c0,0,0.1,0.1,0.2,0.1c0.1,0,0.3-0.1,0.5-0.2c0.5-0.3,0.9-0.7,1.4-1.2c0.5-0.6,0.9-1.2,1.2-1.9C88,90.2,88.3,89.3,88.5,88.2z
			 M89.7,93.4l0.1,0.3l-1.1,1c-0.4,0.3-0.7,0.5-0.9,0.6c-0.1,0-0.1,0-0.2,0c-0.1,0-0.2,0-0.3-0.2c-0.1-0.1-0.1-0.2-0.1-0.4
			c0-0.6,0.2-1.6,0.5-2.9l-0.1,0c-0.4,0.6-0.8,1-1,1.3c-0.5,0.5-0.9,1-1.3,1.3c-0.5,0.4-0.9,0.6-1.3,0.8c-0.1,0-0.2,0.1-0.3,0.1
			c-0.1,0-0.3-0.1-0.4-0.2c-0.2-0.2-0.2-0.6-0.2-1.2c0-0.7,0.1-1.5,0.4-2.5c0.3-0.9,0.6-1.8,0.9-2.5c0.2-0.4,0.4-0.7,0.8-0.9
			c0.5-0.4,1-0.7,1.5-0.9c0.3-0.1,0.6-0.2,1-0.2c0.2,0,0.5,0,0.7,0.1c0.2,0,0.5,0.1,0.8,0.2l0.5-0.3l0.2,0.1
			c-0.4,1.2-0.7,2.4-0.9,3.5c-0.2,0.7-0.4,1.1-0.4,1.5c-0.1,0.5-0.2,1-0.3,1.5c0,0.1,0,0.2,0,0.2c0,0.1,0,0.2,0.1,0.3
			c0,0,0.1,0.1,0.2,0.1c0.1,0,0.2,0,0.3-0.1C88.9,94,89.2,93.8,89.7,93.4z"/>
		<path class="st0" d="M94.2,93.4l0.1,0.3c-0.1,0.1-0.5,0.4-1,0.8c-0.6,0.4-1,0.6-1.3,0.8c-0.2,0.1-0.3,0.1-0.5,0.1
			c-0.2,0-0.3,0-0.4-0.2c-0.1-0.1-0.1-0.3-0.1-0.5c0-0.2,0-0.4,0.1-0.6c0.1-0.3,0.3-1.5,0.8-3.6c0.4-1.5,0.6-2.5,0.7-2.9
			c0.2-1.1,0.4-2,0.5-2.7c0-0.1,0-0.3,0-0.4c0-0.2,0-0.3-0.1-0.3C92.9,84,92.7,84,92.5,84l-0.8,0l0-0.3c0.5,0,1-0.1,1.3-0.2
			c0.4-0.1,0.8-0.3,1.2-0.4l0.2,0.1c-0.1,0.5-0.5,2.4-1.2,5.7c-0.6,2.7-0.9,4.3-1,4.9c0,0.1,0,0.2,0,0.3c0,0.1,0,0.2,0.1,0.3
			c0,0.1,0.1,0.1,0.2,0.1c0.1,0,0.1,0,0.2,0c0.1,0,0.3-0.2,0.6-0.4L94.2,93.4"/>
		<path class="st5" d="M94.2,93.4l0.1,0.3c-0.1,0.1-0.5,0.4-1,0.8c-0.6,0.4-1,0.6-1.3,0.8c-0.2,0.1-0.3,0.1-0.5,0.1
			c-0.2,0-0.3,0-0.4-0.2c-0.1-0.1-0.1-0.3-0.1-0.5c0-0.2,0-0.4,0.1-0.6c0.1-0.3,0.3-1.5,0.8-3.6c0.4-1.5,0.6-2.5,0.7-2.9
			c0.2-1.1,0.4-2,0.5-2.7c0-0.1,0-0.3,0-0.4c0-0.2,0-0.3-0.1-0.3C92.9,84,92.7,84,92.5,84l-0.8,0l0-0.3c0.5,0,1-0.1,1.3-0.2
			c0.4-0.1,0.8-0.3,1.2-0.4l0.2,0.1c-0.1,0.5-0.5,2.4-1.2,5.7c-0.6,2.7-0.9,4.3-1,4.9c0,0.1,0,0.2,0,0.3c0,0.1,0,0.2,0.1,0.3
			c0,0.1,0.1,0.1,0.2,0.1c0.1,0,0.1,0,0.2,0c0.1,0,0.3-0.2,0.6-0.4L94.2,93.4z"/>
		<path class="st0" d="M97.6,84.3c0-0.3,0.1-0.6,0.3-0.8c0.2-0.2,0.4-0.3,0.7-0.3c0.2,0,0.3,0.1,0.4,0.2c0.1,0.1,0.2,0.3,0.2,0.5
			c0,0.3-0.1,0.6-0.2,0.8c-0.2,0.2-0.4,0.4-0.7,0.4c-0.2,0-0.4-0.1-0.5-0.2C97.7,84.7,97.6,84.5,97.6,84.3 M95.5,89l-0.2-0.3
			c1-0.7,1.6-1.1,2-1.3c0.3-0.2,0.6-0.2,0.8-0.2c0.1,0,0.2,0,0.2,0.1c0.1,0.1,0.1,0.3,0.1,0.5c0,0.1,0,0.2-0.1,0.4
			c-0.1,0.3-0.2,0.9-0.5,1.8c-0.6,2.2-0.9,3.5-0.9,3.9c0,0.1,0,0.2,0.1,0.3c0,0.1,0.1,0.1,0.2,0.1c0.1,0,0.3,0,0.4-0.1
			c0.2-0.1,0.5-0.3,0.9-0.6l0.2,0.3c-0.9,0.7-1.6,1.2-2,1.4c-0.2,0.1-0.4,0.2-0.5,0.2c-0.1,0-0.3-0.1-0.4-0.2
			c-0.1-0.1-0.1-0.3-0.1-0.5c0-0.2,0-0.4,0-0.6c0-0.2,0.1-0.6,0.3-1.2c0.6-2.3,1-3.7,1-4.3c0-0.1,0-0.2-0.1-0.2c0,0-0.1-0.1-0.1-0.1
			c-0.1,0-0.1,0-0.2,0.1C96.5,88.4,96.2,88.6,95.5,89z"/>
		<path class="st0" d="M103.9,93.1l0.2,0.3c-0.5,0.4-1,0.8-1.5,1.1c-0.5,0.3-0.9,0.6-1.1,0.7c-0.1,0.1-0.2,0.1-0.4,0.1
			c-0.2,0-0.3-0.1-0.4-0.2c-0.1-0.1-0.2-0.4-0.2-0.7c0-0.1,0-0.3,0-0.5c0-0.2,0.1-0.4,0.1-0.7l0.4-1.7c0.1-0.6,0.3-1.6,0.6-3.1
			l-1.4,0l0-0.2c0.5-0.2,0.8-0.3,0.9-0.4c0.2-0.1,0.4-0.2,0.6-0.3c0.1-0.4,0.2-0.8,0.2-1c0-0.2,0.1-0.8,0.3-1.9l0.7-0.3l0.6-0.3
			l0.2,0.1c-0.2,0.9-0.3,1.4-0.3,1.4c0,0.2-0.2,0.9-0.4,2c0.2,0,0.4,0,0.6,0c0.6,0,0.9,0,1.2-0.1l0.1,0.1l-0.2,0.8
			c-0.2,0-0.8,0-1.8-0.1c-0.1,0.5-0.3,1.2-0.5,2.3c-0.2,1.1-0.3,1.9-0.4,2.4c0,0.2,0,0.4,0,0.5c0,0.1,0,0.2,0.1,0.3
			c0,0.1,0.1,0.1,0.2,0.1c0.1,0,0.1,0,0.2-0.1c0.1-0.1,0.4-0.2,0.6-0.4L103.9,93.1"/>
		<path class="st5" d="M103.9,93.1l0.2,0.3c-0.5,0.4-1,0.8-1.5,1.1c-0.5,0.3-0.9,0.6-1.1,0.7c-0.1,0.1-0.2,0.1-0.4,0.1
			c-0.2,0-0.3-0.1-0.4-0.2c-0.1-0.1-0.2-0.4-0.2-0.7c0-0.1,0-0.3,0-0.5c0-0.2,0.1-0.4,0.1-0.7l0.4-1.7c0.1-0.6,0.3-1.6,0.6-3.1
			l-1.4,0l0-0.2c0.5-0.2,0.8-0.3,0.9-0.4c0.2-0.1,0.4-0.2,0.6-0.3c0.1-0.4,0.2-0.8,0.2-1c0-0.2,0.1-0.8,0.3-1.9l0.7-0.3l0.6-0.3
			l0.2,0.1c-0.2,0.9-0.3,1.4-0.3,1.4c0,0.2-0.2,0.9-0.4,2c0.2,0,0.4,0,0.6,0c0.6,0,0.9,0,1.2-0.1l0.1,0.1l-0.2,0.8
			c-0.2,0-0.8,0-1.8-0.1c-0.1,0.5-0.3,1.2-0.5,2.3c-0.2,1.1-0.3,1.9-0.4,2.4c0,0.2,0,0.4,0,0.5c0,0.1,0,0.2,0.1,0.3
			c0,0.1,0.1,0.1,0.2,0.1c0.1,0,0.1,0,0.2-0.1c0.1-0.1,0.4-0.2,0.6-0.4L103.9,93.1z"/>
		<path class="st0" d="M104.7,98.2l0.8-0.6l0.2,0c0,0.1,0,0.2,0,0.3c0,0.3,0.1,0.6,0.3,0.8c0.2,0.2,0.5,0.3,0.8,0.3
			c0.2,0,0.4-0.1,0.6-0.1c0.2-0.1,0.4-0.3,0.6-0.5c0.2-0.3,0.5-0.7,0.8-1.3c0.3-0.6,0.6-1.5,1-2.7l0.6-2.3c-0.4,0.6-0.8,1.1-1.2,1.6
			c-0.7,0.8-1.2,1.3-1.4,1.4c-0.2,0.1-0.4,0.2-0.6,0.2c-0.2,0-0.3-0.1-0.4-0.3c-0.2-0.3-0.3-0.7-0.3-1.2c0-0.2,0-0.6,0.1-1.3
			c0.1-1.2,0.2-2.3,0.2-3.2c0-0.4,0-0.6-0.1-0.8c0-0.1,0-0.2-0.1-0.2c-0.1,0-0.1,0-0.2,0c-0.2,0-0.5,0.2-1,0.6
			c-0.1,0.1-0.2,0.1-0.2,0.1l-0.2-0.3c0.6-0.6,1.2-1,1.8-1.3c0.3-0.2,0.6-0.3,0.7-0.3c0.2,0,0.3,0.1,0.4,0.2
			c0.1,0.1,0.1,0.4,0.1,0.8c0,0.4,0,1.1-0.1,2.3c-0.1,1.4-0.2,2.3-0.2,2.9c0,0.3,0,0.5,0.1,0.6c0,0.1,0.1,0.1,0.2,0.1
			c0.1,0,0.2,0,0.3-0.1c0.2-0.1,0.5-0.3,0.8-0.6c0.3-0.3,0.6-0.7,0.8-1c0.4-0.6,0.8-1.4,1.1-2.2c0.2-0.5,0.4-1.4,0.8-2.7
			c0.3-0.1,0.7-0.2,1.3-0.3l0.2,0.2c-0.2,0.3-0.3,0.7-0.5,1.2c-0.3,0.8-0.6,1.9-1.1,3.4c-0.4,1.3-0.6,2.2-0.8,2.7
			c-0.3,1-0.7,1.9-1,2.5c-0.4,0.6-0.8,1.2-1.4,1.7c-0.4,0.4-0.7,0.6-1.1,0.8c-0.4,0.2-0.8,0.2-1.1,0.2c-0.3,0-0.5-0.1-0.7-0.2
			c-0.3-0.1-0.4-0.3-0.5-0.5c-0.1-0.2-0.2-0.4-0.2-0.7C104.6,98.4,104.6,98.3,104.7,98.2"/>
		<path class="st5" d="M104.7,98.2l0.8-0.6l0.2,0c0,0.1,0,0.2,0,0.3c0,0.3,0.1,0.6,0.3,0.8c0.2,0.2,0.5,0.3,0.8,0.3
			c0.2,0,0.4-0.1,0.6-0.1c0.2-0.1,0.4-0.3,0.6-0.5c0.2-0.3,0.5-0.7,0.8-1.3c0.3-0.6,0.6-1.5,1-2.7l0.6-2.3c-0.4,0.6-0.8,1.1-1.2,1.6
			c-0.7,0.8-1.2,1.3-1.4,1.4c-0.2,0.1-0.4,0.2-0.6,0.2c-0.2,0-0.3-0.1-0.4-0.3c-0.2-0.3-0.3-0.7-0.3-1.2c0-0.2,0-0.6,0.1-1.3
			c0.1-1.2,0.2-2.3,0.2-3.2c0-0.4,0-0.6-0.1-0.8c0-0.1,0-0.2-0.1-0.2c-0.1,0-0.1,0-0.2,0c-0.2,0-0.5,0.2-1,0.6
			c-0.1,0.1-0.2,0.1-0.2,0.1l-0.2-0.3c0.6-0.6,1.2-1,1.8-1.3c0.3-0.2,0.6-0.3,0.7-0.3c0.2,0,0.3,0.1,0.4,0.2
			c0.1,0.1,0.1,0.4,0.1,0.8c0,0.4,0,1.1-0.1,2.3c-0.1,1.4-0.2,2.3-0.2,2.9c0,0.3,0,0.5,0.1,0.6c0,0.1,0.1,0.1,0.2,0.1
			c0.1,0,0.2,0,0.3-0.1c0.2-0.1,0.5-0.3,0.8-0.6c0.3-0.3,0.6-0.7,0.8-1c0.4-0.6,0.8-1.4,1.1-2.2c0.2-0.5,0.4-1.4,0.8-2.7
			c0.3-0.1,0.7-0.2,1.3-0.3l0.2,0.2c-0.2,0.3-0.3,0.7-0.5,1.2c-0.3,0.8-0.6,1.9-1.1,3.4c-0.4,1.3-0.6,2.2-0.8,2.7
			c-0.3,1-0.7,1.9-1,2.5c-0.4,0.6-0.8,1.2-1.4,1.7c-0.4,0.4-0.7,0.6-1.1,0.8c-0.4,0.2-0.8,0.2-1.1,0.2c-0.3,0-0.5-0.1-0.7-0.2
			c-0.3-0.1-0.4-0.3-0.5-0.5c-0.1-0.2-0.2-0.4-0.2-0.7C104.6,98.4,104.6,98.3,104.7,98.2z"/>
		<path class="st0" d="M58.8,88.5c-0.3,2.7,0.5,5.4,3.4,6.5c3.5,1.3,8.4-0.2,10.4-4.1c2.6-5.3,1.3-9.3-2.2-10.5
			c-4-1.4-8.4,0.3-10.4,4.2C59.3,85.8,58.9,87.1,58.8,88.5 M60.6,88.6c0.1-0.8,0.2-1.5,0.4-2.2c1-3.9,3.4-6.2,7.4-5.4
			c3,0.6,4.2,3.5,3.1,8.1c-1,4.3-4.2,6.1-7.3,5.4C61.3,93.9,60.3,91.6,60.6,88.6"/>
		<path class="st5" d="M58.8,88.5c-0.3,2.7,0.5,5.4,3.4,6.5c3.5,1.3,8.4-0.2,10.4-4.1c2.6-5.3,1.3-9.3-2.2-10.5
			c-4-1.4-8.4,0.3-10.4,4.2C59.3,85.8,58.9,87.1,58.8,88.5 M60.6,88.6c0.1-0.8,0.2-1.5,0.4-2.2c1-3.9,3.4-6.2,7.4-5.4
			c3,0.6,4.2,3.5,3.1,8.1c-1,4.3-4.2,6.1-7.3,5.4C61.3,93.9,60.3,91.6,60.6,88.6"/>
		<path class="st0" d="M63,98c0.7-1.5,1.8-2.2,3.7-1.6c1.4,0.4,5.6,2,6.3,2.2c2.2,0.8,5.2,1.3,6-0.2c0.4-0.7,0.7-1.4,0.7-1.4
			c0.3-0.3,0-1.2,0-1c-0.2-0.3-0.4-0.1-0.4,0.1c0.1,1.3-0.5,2-3.1,2c-1.2,0-2.3-0.3-3.9-0.9c-1.1-0.4-1.9-0.6-2.2-0.7
			c-1.2-0.4-3.2-1-4.2-1.1c-2.2-0.3-3,1.6-3.4,2.3C62.5,97.9,62.9,98.2,63,98"/>
		<path class="st5" d="M63,98c0.7-1.5,1.8-2.2,3.7-1.6c1.4,0.4,5.6,2,6.3,2.2c2.2,0.8,5.2,1.3,6-0.2c0.4-0.7,0.7-1.4,0.7-1.4
			c0.3-0.3,0-1.2,0-1c-0.2-0.3-0.4-0.1-0.4,0.1c0.1,1.3-0.5,2-3.1,2c-1.2,0-2.3-0.3-3.9-0.9c-1.1-0.4-1.9-0.6-2.2-0.7
			c-1.2-0.4-3.2-1-4.2-1.1c-2.2-0.3-3,1.6-3.4,2.3C62.5,97.9,62.9,98.2,63,98z"/>
	</g>
</g>
</svg>
