<?xml version="1.0" encoding="utf-8"?>
<!-- Generator: Adobe Illustrator 21.1.0, SVG Export Plug-In . SVG Version: 6.00 Build 0)  -->
<svg version="1.1" id="Layer_1" xmlns="http://www.w3.org/2000/svg" xmlns:xlink="http://www.w3.org/1999/xlink" x="0px" y="0px"
	 viewBox="0 0 100 110.8" style="enable-background:new 0 0 100 110.8;" xml:space="preserve">
<style type="text/css">
	.st0{fill:#A4D55D;}
	.st1{fill:#FFFFFF;}
</style>
<g>
	<path class="st0" d="M100,43.2l-2.2-0.4l-1.5-0.3c-0.4-0.1-0.9-0.2-1.5-0.2l-1-0.2l0,0.1c-1.3-0.1-2.8-0.2-4.5-0.4l-4.9-0.3
		c-1.4-0.1-2.7-0.2-3.8-0.3c0,0,0,0,0,0c0-0.2,0-0.4-0.1-0.7l-0.1-1.3c0-0.4-0.1-0.8-0.1-1.3c-0.1-0.9-0.1-1.7,0-2.4l0,0
		c0.3-2.9-0.8-10.2-0.9-10.5l-0.5-1.6l-0.3-11.4L77.4,0.1L46.7,9.7L45,10.6c-1.3,0.2-2.7,0.6-4.3,1l-0.2,0.1
		c-0.7,0.2-1.4,0.4-2.2,0.7c-0.8,0.3-1.7,0.6-2.6,0.9c-3.3,1.3-6.4,2.8-9.6,4.4l-1.7,0.9l0.1,0.3c-0.1,0-0.1,0.1-0.2,0.1L24,19.2
		c-1.8,1.2-3.5,2.5-5.4,4.1c-1.8,1.6-3.4,3.2-4.8,4.8c-3,3.4-5.5,7.2-7.4,11.2c-1.9,4-3.3,8.1-4.2,12.4l-0.2,0.8l-0.5,3.2L1,63.5
		c-0.1,0.8-0.2,1.9-0.3,3.6l0,0.2c0,0.9-0.1,2.3-0.2,2.7l-0.1,0.4l0,0.4c0.3,4.6-0.3,23.1-0.3,23.2l0,0.1c0,0.6,0,1.8,0,2.9
		c0,1.2,0,2.4,0,3c0,0.9,0,1.8,0.1,2.6c0,0.8,0.1,1.6,0.1,2.4l0,1.3l1,0.8l1.6,1.2c0.3,0.2,0.5,0.4,0.6,0.4l0.1,0.1
		c0.3,0.2,1.8,1.1,2.2,1.4l0.4,0.2l1.2,0.3c0.4,0.1,0.7,0.1,0.9,0.1l2.4,0c0.9,0,6.1,0,7.8-0.1c3.3,0,24.1-0.4,26-0.4l2.6-0.1
		c0.4,0,0.8,0,1.2-0.1l0.2,0c0.4,0,0.7,0,1.1-0.1l0.4,0c4.8-0.3,9.8-1.8,14.6-4.3c4.2-2.1,8.3-5.2,12.2-9l-0.3,1.1l0.8-1.6
		c0.8-0.7,2-2,3.2-3.5c1.6-2,3.2-4.6,4.5-7c1.6-3.2,2.7-6.1,3.1-7.6c0.3-1.1,0.6-1.9,0.8-2.6l0-0.1c0.3-1,0.4-1.3,0.4-1.5l0.9-4.1
		c0.1-0.2,0.2-0.4,0.2-0.6c0.3-0.5,0.5-1.1,0.7-1.7c0.1-0.2,0.2-0.4,0.2-0.6l0.4-0.4l0.1-0.9c0.2-1.8,0.8-3.7,1.4-5.4l0.2-0.9
		c0.1-0.2,0.2-0.5,0.3-0.9c0.3-0.8,0.8-2.1,1-2.8l0.1-0.1c0,0,0.4-1,0.6-1.6l1.7-5.4c0.1-0.2,0.2-0.5,0.3-0.8c0.2-0.5,0.4-1,0.5-1.5
		L100,43.2z"/>
	<g>
		<path class="st1" d="M21.4,78v-0.1c0-0.1,0-0.3,0.1-0.5c0-0.1,0-0.1,0-0.2c0-0.2,0.2-0.3,0.4-0.3c0.6-0.4,1.1-0.8,1.4-1
			c0.4-0.2,0.9-0.4,1.4-0.5c0.2,0,0.4-0.2,0.6-0.4c0.2-0.2,0.4-0.3,0.6-0.4c0.9-0.2,1.8-0.4,2.7-0.5c0.4-0.1,0.8-0.1,1-0.2
			c0.6-0.1,1.1-0.3,1.7-0.6l3.3-0.8l0.8-0.2c0.2,0,0.3,0,0.4,0.1c0.1,0.1,0.2,0.2,0.4,0.1l1.2-0.3c0.2-0.1,0.4,0,0.4,0.1
			c0.1,0.1,0.2,0.2,0.4,0.1c0.4-0.1,0.7-0.1,0.9-0.1c0.2,0,0.3,0.1,0.3,0.3c0,0.4-0.1,0.9-0.2,1.3c-0.1,0.4-0.2,0.9-0.2,1.3
			c-0.2-0.2-0.4-0.2-0.6,0c-0.2,0.2-0.4,0.3-0.6,0.3c-0.6,0.2-1.3,0.2-1.9,0.3c-0.7,0-1.4,0.1-2.2,0.3l-6.2,1.4
			c-0.3,0.1-0.5,0.2-0.7,0.3c-0.2,0.1-0.4,0.3-0.6,0.5c0.2,1.6,0.3,3.1,0.4,4.5c0.1,1.6,0.2,3.1,0.4,4.6c0.9-0.2,2-0.6,3.4-1
			c0.3-0.1,0.7-0.2,1.2-0.3c0.9-0.2,1.9-0.4,2.9-0.5c0.1,0.1,0.4,0.1,1,0.2c0.4,0,0.7,0.1,0.7,0.3c0.1,0.1,0.1,0.3,0.1,0.4
			c0,0.2-0.1,0.4-0.2,0.6l-0.4,0.5L35.4,88c-0.2,0.2-0.4,0.4-0.8,0.5c-0.3,0.1-0.7,0.3-1.3,0.4c-0.2,0.2-0.3,0.4-0.5,0.5
			c-0.2,0.1-0.4,0.2-0.7,0.2c-0.2,0.1-0.7,0.1-1.3,0.3c-0.3,0.1-0.8,0.2-1.3,0.3c-1,0.3-1.8,0.6-2.3,1.1c0,1.5,0,2.8,0,3.9
			c0,1.1,0.1,2.2,0.2,3.3c0,0.2,0,0.5,0,0.9c0,0.2,0,0.5,0,0.9c0,0.7-0.1,1.2-0.3,1.6c-0.4,0.3-0.7,0.5-1.1,0.6
			c-0.4,0.1-0.8,0.3-1.4,0.4c-0.4,0.3-0.7,0.4-0.9,0.6c-0.2,0.1-0.5,0.2-0.7,0.3c-0.1,0-0.2,0-0.2,0c-0.1,0-0.2-0.1-0.2-0.3
			c-0.3-0.1-0.5-0.4-0.5-1.1c0-0.1,0-0.4,0.1-0.9c0-0.2,0-0.5,0-0.9c-0.2-0.9-0.3-1.9-0.3-3.1s-0.1-2.8-0.1-4.8c0-0.6,0-1-0.1-1.3
			c-0.1-0.9-0.1-1.7-0.1-2.2c0-0.1,0-0.3,0-0.4c0-0.4,0.1-0.8,0.2-1.1v-2.9v-1.7c-0.1-0.3-0.2-0.5-0.2-0.8c0-0.2,0-0.3,0-0.4
			c0.1-0.4,0.1-0.8,0.2-1.3V79c0-0.1,0-0.2-0.1-0.3C21.6,78.6,21.4,78.3,21.4,78z"/>
		<path class="st1" d="M36.9,99c0-0.6,0.1-1.2,0.2-1.8l0.5-2.1c1.8-5.3,3.3-10.5,4.7-15.8c0.5-1.1,0.7-2.1,0.7-3.2l0.5-1.6
			c0.1-0.5,0.2-1,0.2-1.6c0.2-0.4,0.3-0.7,0.3-1.1c0-0.3,0.1-0.9,0.1-1.6c0.5-0.1,1-0.2,1.5-0.2c0.5,0,0.8,0,0.9,0
			c0.6,0,1-0.1,1.3-0.2c0.3-0.1,0.7-0.2,1.1-0.4c0.5,0.8,0.7,1.5,0.7,2.1c0.3,1,0.7,2,1.1,2.9c0.3,0.8,0.7,1.8,1.1,3
			c0.8,1.5,1.6,3.8,2.5,6.9v1.2c0.2,0.2,0.4,0.2,0.6,0.2c0.1,0,0.3,0.1,0.5,0.2c0,0.4-0.1,0.7-0.2,0.9C55.1,86.8,55,87,55,87.2
			c0,0.5,0.1,1,0.4,1.5c0.3,0.6,0.5,1.1,0.7,1.6c0,0.2,0.1,0.3,0.2,0.5c0.2,0.2,0.3,0.3,0.3,0.5c0,0.4,0,0.7-0.1,0.9
			s-0.2,0.5-0.4,0.7c-0.6,0.4-1.1,0.7-1.4,0.7c-0.3,0.3-0.7,0.4-1.1,0.6c-0.4,0.1-1,0.3-1.8,0.5c-0.2-0.3-0.3-0.7-0.5-1.2
			c-0.1-0.3-0.2-0.5-0.3-0.7c-0.1-0.2-0.2-0.4-0.3-0.5c0-0.5,0-0.9-0.1-1.3s-0.3-0.9-0.6-1.6c-1.5,0.4-2.7,0.7-3.6,0.9
			c-0.9,0.3-1.7,0.6-2.5,1c-0.3,0.4-0.6,1-0.7,1.5c-0.1,0.7-0.3,1.3-0.4,1.7c-0.2,0.9-0.4,1.6-0.6,2.2C42.1,97.5,42,98,42,98.3
			c-0.7,0.4-1.5,0.6-2.4,0.9C38.4,99.5,37.5,99.4,36.9,99z M44.5,88c0.4,0,1-0.1,1.6-0.2c0.2-0.1,0.5-0.1,0.7-0.2l1.2-0.4
			c0.3-0.1,0.7-0.2,1.2-0.3c-0.2-1.4-0.5-2.7-0.8-3.8c-0.4-1.1-0.8-2.3-1.4-3.6v0.3c-0.4,1.1-0.8,1.9-1.1,2.6v1.1
			c0,0.2-0.1,0.3-0.2,0.4c-0.1,0.1-0.2,0.2-0.2,0.4l-0.5,1.8L44.5,88z"/>
		<path class="st1" d="M54.8,70.2c0-0.2,0-0.4,0.1-0.6c0-0.1,0-0.1,0-0.2c0-0.1-0.1-0.3-0.2-0.6c0.1,0,0.2,0,0.4,0
			c0.1,0,0.3-0.1,0.5-0.3c0,0,0.1-0.1,0.3-0.3c0.1-0.1,0.2-0.1,0.3-0.2l2.8-0.7c0.6-0.3,1.2-0.5,1.7-0.6c0.6-0.2,1.3-0.4,2.3-0.6
			c0.3-0.1,0.6-0.2,0.9-0.4c0.2-0.2,0.5-0.3,0.9-0.4l2.1-0.5c0.5-0.1,1-0.3,1.5-0.6c0.5-0.3,0.9-0.5,1.2-0.5c0.2,0,0.3,0,0.5,0.1
			s0.3,0.2,0.6,0.5c0.2-0.1,0.4-0.1,0.5-0.3c0.1-0.1,0.2-0.1,0.2,0.1c0.1,0,0.3,0,0.5,0l0.2,0.1c0.3-0.1,0.6-0.1,0.8,0
			c0.1,0,0.1,0,0.2,0c0,0,0.1,0,0.1,0.1c0,1.1-0.3,1.9-1,2.5c-0.4,0.2-0.8,0.4-1.3,0.5c-0.7,0.2-1.3,0.3-2,0.3
			c-0.7,0.1-1.3,0.2-2,0.3c-0.5,0.1-1,0.3-1.3,0.5c0,0.7,0,1.4,0.1,2.2c0.2,2.2,0.4,3.9,0.4,5.1c0,0.5,0,1-0.1,1.5
			c0,0.5,0,1,0.1,1.5c0,0.1,0,0.1,0,0.2c0,0.4-0.2,0.8-0.5,1.2c0.2,0.3,0.2,0.7,0.2,1.2c0,0.6,0,1.1,0,1.4c0,0.6-0.1,1-0.1,1.3
			c0,0.5,0.1,0.8,0.2,1v1.4l0.1,0c-0.1,0-0.2,0.1-0.2,0.2c0,0,0,0.1,0.1,0.2v0.1c0,0.1,0,0.2,0.1,0.2c0,0.1,0.1,0.1,0.3,0.2
			c0,0.2-0.1,0.3-0.2,0.4c-0.1,0.1-0.2,0.2-0.2,0.4c0,0.2,0.1,0.2,0.2,0.1c0.1-0.1,0.2,0,0.2,0.2v1c0.1,0.1,0.2,0.3,0.3,0.4
			c0,0.2,0.1,0.3,0.1,0.6c-0.1,0.2-0.2,0.2-0.2,0c0-0.2,0-0.3-0.1-0.3c-0.1,0-0.2,0.2-0.2,0.4c0,0.2-0.1,0.4-0.2,0.4
			c-0.2,0-0.4,0.2-0.5,0.5c-0.1,0.3-0.3,0.4-0.5,0.5c0,0.1,0,0.2-0.1,0.2c-0.1,0-0.2,0.1-0.2,0.2l-0.1,0c0,0,0,0,0,0v0.1
			c-0.1,0.2-0.2,0.2-0.2,0.3L63.7,93c-0.2,0-0.3,0.1-0.3,0.3c0,0.1-0.2,0.2-0.4,0.3l-1.4,0.3c-0.3-0.7-0.5-1.6-0.6-2.5
			C61,90.4,61,89.2,61,87.6c0.1-2.2,0.2-4.6,0.2-7c0-2.4-0.1-4.6-0.2-6.6c-0.1-0.5-0.1-1.2-0.1-2.1c0-0.9-0.1-1.6-0.2-2.1
			c-0.5,0.1-0.9,0.2-1.2,0.3c-0.3,0.1-0.8,0.2-1.4,0.4c-1.1,0.3-2,0.3-2.6,0.2c-0.1,0-0.1-0.1-0.2-0.2L54.8,70.2z"/>
	</g>
	<g>
		<path class="st1" d="M14.4,60.8c0.1-0.1,0.2-0.2,0.2-0.4v-3.8c0-0.8,0-1.3,0.1-1.7c0-0.4,0.1-0.8,0.3-1.4c0-0.5,0-1,0-1.3
			c-0.1-0.9-0.1-1.7-0.1-2.2c0-0.1,0-0.2,0-0.3c0-0.5,0-0.8,0.1-1c0-0.1,0-0.3,0-0.3c-0.1-0.3-0.1-0.6-0.1-0.8c0-0.1,0-0.3,0.1-0.4
			c0-0.2,0-0.3,0.1-0.4c0.1-0.1,0.1-0.2,0.1-0.4v-4.9c0-0.1,0.1-0.2,0.2-0.2c0.1,0,0.2,0,0.3,0.1c0.2-0.2,0.2-0.5,0.1-0.7
			c-0.1-0.2-0.1-0.5-0.1-0.9c0.3-0.4,0.5-0.6,0.6-0.7c0.1-0.1,0.3-0.2,0.4-0.3c0-0.3,0.1-0.5,0.2-0.6c0.1-0.2,0.4-0.3,0.6-0.5
			c0.6-0.4,1.1-0.8,1.4-1.3c0.1,0,0.2,0,0.3,0.1c0,0,0,0.1,0,0.2c0.1,2.8,0.2,5.3,0.2,7.4c0,1.5,0,2.6,0,3.4
			c-0.1,3.1-0.1,6.5-0.1,10.3c0.3,0,0.5,0,0.8,0c0.2,0,0.4-0.1,0.5-0.1c0.4-0.2,0.9-0.4,1.3-0.5c1-0.2,2-0.5,2.9-0.9
			c0.2-0.1,0.6-0.2,1-0.3c0.6-0.2,1.4-0.3,2.2-0.4c0.5-0.1,0.9-0.2,1.2-0.2s0.5,0,0.7,0.1c0,0.2-0.1,0.4-0.2,0.6
			c-0.1,0.2-0.2,0.4-0.2,0.7L28.5,57c-0.2,0.4-0.4,0.7-0.7,0.9c-0.3,0.2-0.6,0.4-0.7,0.6c-0.4,0.1-0.6,0.2-0.7,0.4
			c-0.1,0.1-0.3,0.2-0.4,0.3c-0.2,0-0.3,0.1-0.3,0.3c-0.1,0.2-0.2,0.3-0.4,0.3c-0.2,0-0.4,0-0.6-0.1c-0.2-0.1-0.4-0.1-0.5-0.1
			l-2.5,0.6c-0.9,0.2-1.7,0.5-2.3,0.8c-0.6,0.3-1.2,0.8-1.8,1.3c-0.2-0.2-0.4-0.2-0.6,0c-0.2,0.1-0.3,0.2-0.6,0.3l-1.5,0.4
			c0-0.2-0.1-0.4-0.4-0.7c-0.2-0.3-0.4-0.6-0.4-0.9C14.2,61.1,14.3,61,14.4,60.8z"/>
		<path class="st1" d="M29.1,48.4c0-2.1,0.1-4.1,0.3-5.7c0.2-1.7,0.6-3.2,1.1-4.5c0.3-0.4,0.5-0.6,0.6-0.8c0.1-0.2,0.2-0.3,0.2-0.5
			c0.2-0.6,0.5-1.2,0.9-1.8c0.4-0.6,0.7-1.2,0.9-1.8c0-0.2,0.1-0.3,0.2-0.4c0.1-0.1,0.2-0.2,0.2-0.4c0.2-0.1,0.4-0.2,0.6-0.2
			c0.2-0.1,0.5-0.1,0.8-0.1c0.3,0,0.6,0,0.8-0.1c0.2,0,0.4-0.1,0.7-0.3c0.1,0,0.3,0,0.4,0.1c0.1,0.1,0.4,0.1,0.7,0l0.2-0.2
			c0.2-0.2,0.4-0.3,0.5-0.4c0,0.1,0.1,0.1,0.2,0.2c0.2,0.1,0.4,0.1,0.5,0c0.2,0,0.3-0.2,0.5-0.3c0.2-0.2,0.4-0.3,0.5-0.3
			c0.2-0.2,0.6-0.3,1-0.4c0.1,0,0.3-0.1,0.5-0.1l0.8-0.1c0.3,0,0.5-0.1,0.7-0.1l0.7-0.2l0.4,0.3c0.3,0.1,0.6,0.1,0.8,0.1
			s0.4,0,0.7-0.1c0.4,0.1,0.8,0.3,1,0.6s0.4,0.9,0.7,1.6c0.3,0.6,0.5,1.2,0.7,1.8c0.2,0.6,0.4,1.4,0.5,2.3v1.5v1.5
			c0,0.2-0.1,0.4-0.2,0.8c-0.1,0.4-0.2,0.8-0.2,1.1c-0.1-0.1-0.2-0.3-0.2-0.5c0-0.1,0-0.1,0-0.2c0,0,0,0-0.1,0l-0.2,0.1
			c0,0.1-0.1,0.2-0.1,0.3c0,0.1,0,0.2,0,0.3c0.1,0.2,0.1,0.4,0.1,0.5c0,0.1,0,0.1,0,0.1s-0.1,0-0.1-0.1c0,0,0-0.1-0.1-0.1
			c0,0,0,0,0,0.1c0,0.3-0.1,0.5-0.2,0.8c-0.1,0.5-0.2,0.9-0.2,1.3c0,0,0,0.1,0,0.1c0,0.2,0.2,0.5,0.4,0.7c-0.2,0.6-0.4,1.2-0.7,1.8
			c-0.3,0.6-0.6,1.2-0.7,1.9c0.3-0.1,0.5-0.2,0.5-0.5s0.1-0.4,0.2-0.4c0,0.3-0.1,0.6-0.2,0.8C46.1,48.8,46,49,46,49.1
			c-0.1,0.2-0.2,0.4-0.3,0.7c-0.1,0.2-0.1,0.5-0.1,0.8c-0.2,0.2-0.3,0.4-0.3,0.4S45.1,51,44.9,51c-0.4,0.7-0.8,1.2-1.2,1.6
			c-0.7,0.5-1.2,1-1.6,1.4c-0.2,0.3-0.4,0.5-0.6,0.7c-0.2,0.2-0.5,0.3-0.8,0.4c-0.2,0.2-0.3,0.3-0.4,0.4c-0.1,0.1-0.3,0.1-0.6,0.2
			c-0.2,0.3-0.4,0.4-0.5,0.5c-0.1,0.1-0.2,0.3-0.2,0.5c-0.2,0-0.3,0.1-0.4,0.3c-0.1,0.1-0.2,0.2-0.4,0.3c-0.2,0.2-0.6,0.4-1.2,0.7
			c-0.2,0.1-0.4,0.1-0.8,0.2l-0.6,0.2c-0.5,0.1-1,0.1-1.5-0.1c-0.5-0.2-0.9-0.4-1.3-0.7c-0.9-0.6-1.7-1.8-2.4-3.7
			C29.7,52,29.2,50.2,29.1,48.4z M34.2,42.6c0,2.5,0.2,4.6,0.6,6.3c0.4,1.7,1,3.1,1.9,4.2l1.1,0.9c0.2,0,0.4-0.2,0.7-0.4
			c0.3-0.2,0.5-0.5,0.7-0.7c0.6-0.5,1-1,1.4-1.5c0.3-0.5,0.6-1,0.8-1.6c0.3-0.4,0.6-0.8,0.7-1.3c0-0.3,0.2-0.7,0.4-1.2l0.2-1.1
			c0.3-0.8,0.4-1.4,0.5-1.8c0.1-0.2,0.1-0.5,0.1-1V39c-0.3-1.2-0.5-2.2-0.7-2.9c-0.2-0.7-0.4-1.3-0.7-1.9c-0.3-0.3-0.6-0.4-0.7-0.4
			c-0.1,0-0.5,0-1.1,0.1c-0.3,0.1-0.7,0.2-1,0.4c-0.3,0.2-0.7,0.5-1.2,0.8c-0.2,0-0.3,0-0.3-0.2c0,0-0.1,0-0.1,0
			c-0.1,0-0.2,0.1-0.3,0.2c-0.3,0.1-0.7,0.6-1,1.4c-0.2,0.3-0.3,0.7-0.4,1.1c-0.2,0.5-0.3,0.8-0.3,0.9
			C34.8,40.3,34.5,41.6,34.2,42.6z M47.5,40.5c0-0.2,0-0.3,0.1-0.4c0.1,0,0,0-0.1,0V40.5z"/>
		<path class="st1" d="M50,33.3c0-0.2,0-0.4,0.1-0.6c0-0.1,0-0.2,0.1-0.1c0.1,0,0.1,0,0.2,0.1c0.2,0,0.3-0.1,0.3-0.2
			c0-0.1,0.1-0.2,0.3-0.2c0-0.2,0.1-0.3,0.2-0.4c0.1,0,0.1-0.2,0.1-0.4c0.5-0.1,0.9-0.3,1.2-0.6c0.3-0.3,0.6-0.5,1-0.6
			c0.1,0.1,0.2,0.2,0.2,0.4c0,0.2,0.1,0.4,0.2,0.5c0,1,0.1,1.8,0.3,2.2c0,0.6,0.1,1.2,0.2,1.8s0.2,1.2,0.3,1.8l0.1,0.9v1.2
			c0,0.2,0.1,0.3,0.2,0.3c0.1,0,0.1,0.1,0.1,0.3v1.3c0.2,0.3,0.4,0.5,0.4,0.7c0,0.2,0,0.5,0,0.9c0.2,0.3,0.3,0.7,0.3,1.2
			c0,0.5,0.1,0.9,0.3,1.2c0.3-0.4,0.6-1.1,1-2c0-0.1,0.1-0.4,0.3-0.8c0.1-0.4,0.3-0.8,0.5-1.1c0.5-0.3,0.8-0.6,1.1-0.8
			c0.3-0.2,0.6-0.3,1.1-0.4c0,0.1,0,0.1,0,0.2c0,0.1,0.1,0.1,0.3,0.1c0.4-0.1,0.7-0.2,1-0.2c0.3,0,0.5,0,0.8,0.1
			c0.2,0.1,0.3,0.4,0.3,0.7c0.1,0.4,0.3,0.7,0.6,0.9c0,0.2,0,0.3,0,0.3c0,0,0.1,0.1,0.3,0.3v0.6c0.3,0.4,0.4,0.7,0.4,0.7
			C64,43.4,64,43.7,64,44c0.2-0.4,0.3-0.7,0.3-1.1c0-0.5,0.2-1,0.4-1.5c0-0.4,0.1-0.9,0.2-1.5c0.1-0.2,0.1-0.4,0.1-0.6v-0.4
			c0.1-0.4,0.2-0.6,0.2-0.8c0.1-0.6,0.2-1.3,0.3-2.3v-1.3c0.4-0.9,0.5-1.1,0.4-0.7c-0.1,0.4-0.1,0.2-0.1-0.6
			c0.2-0.3,0.3-0.4,0.3-0.5s0-0.2,0-0.5v-1.3c0-0.2,0.1-0.4,0.2-0.7c0.1-0.2,0.1-0.4,0.1-0.7c0.2-0.8,0.3-1.6,0.3-2.5
			c0-0.9,0.1-1.8,0.3-2.7c0.5-0.3,0.8-0.5,1.1-0.6l0.2,0c0.3-0.1,0.6,0,0.7,0.2c0.2,0,0.4-0.1,0.6-0.3c0,0,0.1-0.1,0.2-0.1
			c0.1,0,0.3,0,0.4,0.1l0.3-0.1c0.1,0.1,0.2,0.1,0.4,0.1c0.1-0.1,0.1,0,0.1,0.1c0.1,0,0.2,0,0.3,0.1l0.2,0.1c-0.2,1.5-0.4,3-0.6,4.3
			c-0.2,1.4-0.4,2.8-0.6,4.3c0,0.4,0,0.6,0,0.8c0,0.2,0,0.4,0,0.5v0.9l-0.5,1.9c-0.1,0.5-0.2,1-0.2,1.6c-0.1,0.1-0.1,0.2-0.2,0.3
			c0,0.1,0,0.2,0,0.3c-0.4,2.1-0.7,3.9-0.9,5.4c-0.3,1.5-0.4,3-0.4,4.5l-0.3,0.4l-0.3,0.4c-0.1,0-0.3,0.1-0.4,0.3
			c-0.2,0.2-0.3,0.4-0.5,0.6c-0.2,0-0.4-0.1-0.5,0c-0.4,0.1-0.7,0.3-0.9,0.7l-0.9,0.2c-0.2,0.2-0.3,0.3-0.4,0.4
			c-0.1,0.1-0.2,0.2-0.2,0.4l-0.9,0.2c-0.2-0.1-0.3-0.3-0.5-0.6L61.5,51c-0.3-0.7-0.6-1.5-0.9-2.4c-0.3-0.8-0.7-1.7-1.2-2.6
			c-0.2,0.3-0.4,0.7-0.6,1.3c-0.2,0.5-0.4,1-0.6,1.3c-0.2,0.6-0.4,1.1-0.6,1.5c-0.2,0.4-0.4,1-0.6,1.7c-0.2,0.3-0.6,0.6-1.2,0.9
			c-0.6,0.4-1.1,0.8-1.3,1c-0.5,0.1-0.9,0.2-1.1,0.2c-0.2,0-0.5-0.1-0.8-0.4c0-0.2,0-0.4-0.1-0.5c0-0.1-0.1-0.3-0.3-0.4
			c0.1-0.5,0.2-0.8,0.2-1.1c0-0.2,0-0.3-0.1-0.5c-0.2-0.7-0.3-1.2-0.4-1.5c0-0.5,0-1-0.1-1.3s-0.1-0.6-0.3-0.8
			c0-0.7-0.1-1.4-0.2-2.1s-0.3-1.7-0.5-3.1c-0.2-0.6-0.3-1.3-0.3-2c0-0.3-0.1-0.7-0.3-1.2c0-0.6,0-1.2-0.1-1.7
			c-0.1-0.8-0.2-1.5-0.2-2c0.1-0.2,0.1-0.4,0.1-0.6c0-0.2,0-0.4-0.1-0.6C50,33.8,50,33.6,50,33.3z"/>
	</g>
	<path class="st1" d="M36.4,62.9C36.4,62.9,36.4,62.9,36.4,62.9L36.4,62.9z"/>
	<path class="st1" d="M50.8,58.3C50.8,58.3,50.8,58.3,50.8,58.3c0,0,0-0.1,0-0.1L50.8,58.3z"/>
	<path class="st1" d="M53.3,57.9L53.3,57.9C53.3,57.9,53.3,57.9,53.3,57.9z"/>
	<path class="st1" d="M45.5,60.2C45.5,60.2,45.5,60.2,45.5,60.2C45.5,60.2,45.5,60.2,45.5,60.2z"/>
	<path class="st1" d="M32.2,63.9C32.2,63.9,32.2,63.9,32.2,63.9C32.2,63.9,32.2,63.9,32.2,63.9L32.2,63.9z"/>
	<path class="st1" d="M32.3,63.9C32.3,63.9,32.3,63.9,32.3,63.9c0,0.1,0.1,0.1,0.1,0.1C32.4,63.9,32.3,63.9,32.3,63.9z"/>
	<path class="st1" d="M24.2,65.2L24.2,65.2C24.2,65.2,24.2,65.2,24.2,65.2z"/>
	<path class="st1" d="M46.6,63C46.6,63,46.6,63,46.6,63C46.6,63,46.6,63,46.6,63z"/>
	<path class="st1" d="M25.5,65L25.5,65C25.5,65,25.5,65,25.5,65z"/>
	<path class="st1" d="M50.9,58.2L50.9,58.2C50.9,58.2,50.9,58.2,50.9,58.2z"/>
	<path class="st1" d="M55.5,57.5C55.5,57.5,55.5,57.5,55.5,57.5L55.5,57.5L55.5,57.5z"/>
	<path class="st1" d="M66.9,56.7L66.9,56.7L66.9,56.7C66.9,56.7,66.9,56.7,66.9,56.7z"/>
	<path class="st1" d="M58.7,57.3C58.7,57.3,58.7,57.3,58.7,57.3c-0.1-0.1-0.2,0-0.4,0l0,0.1L58.7,57.3z"/>
	<path class="st1" d="M62.5,59.4l-0.4-0.2c1-0.3,1.5-0.2,2.4-0.6l0,0.1c0.1,0,0.1-0.5,1.6-0.2l0,0c0,0,0-0.1,0.1,0L66,58.4
		c0.1-0.1,0.2-0.2,0.4-0.3c0,0,0.1,0.1,0.1,0.1l0.5-0.1l0.2,0.1c0.1-0.1,0-0.4,0.4-0.3c-0.2-0.2,0.2-0.2,0.1-0.3
		c0,0,0.1,0.1,0.1,0.1c0.2-0.1,0.6-0.2,0.7-0.3c0,0-1-0.3-1.3-0.5c0.3,0,0.1,0,0-0.1l0,0.1c-0.2,0-0.2-0.2-0.3-0.2c0,0,0,0,0,0l0,0
		c0,0,0,0,0,0.1c0,0,0,0.1-0.1,0.1l0,0c-0.1,0-0.2,0-0.3,0l0-0.1c-0.1,0.3-1.1-0.1-1.3-0.1c-0.2-0.1-0.4,0.1-0.7,0.1
		c-0.4,0-0.2-0.1-0.5-0.2c-0.3,0,0.1,0.1,0,0.2l-0.3-0.1c0.2-0.1,0.1-0.1,0-0.1c-0.3,0-0.7-0.1-0.7,0.2c-0.4,0-0.4-0.1-0.5-0.1
		c0.1,0,0.2,0,0.2,0.1c-0.2-0.1-0.1,0,0,0.1c-0.2,0.1-1.2-0.2-1.2,0.1l0,0c0,0.2,0.1,0.4,0,0.5l-0.1-0.1l-0.1,0.1
		c-0.1,0-0.1-0.1-0.1-0.1c-0.2,0.1-0.6,0.1-0.9,0.1l0.4,0.5c-0.3-0.1-0.8-0.2-0.8,0l-0.2-0.1c-0.6-0.2-0.3,0.2-0.5,0.1L59,57.5
		l0.2,0c-0.3-0.1-0.4-0.1-0.6-0.2l0,0c0,0,0,0,0,0l0,0c0,0.1-0.1,0.2-0.3,0.2c-0.3,0-0.4,0.2-0.9,0.1l-0.1,0.2l-0.3-0.1l0-0.2
		c0.3-0.1,0.8-0.2,1.2-0.3l0-0.1c-0.2,0-0.5,0.2-0.6,0.2c-0.1,0-0.3-0.1-0.2-0.3l-0.1,0.2c-0.7,0.2-0.7,0.2-1.6,0.2l0.1,0.1
		c-0.1,0.1-0.3,0.2-0.4,0c-0.5,0.1-1,0.1-1.3,0l0,0.2c-0.1,0-0.3-0.2-0.3,0l-0.2,0.1c-0.1,0-0.2,0.1-0.4,0.1l0,0l0,0l0,0l0,0
		c-0.3,0,0,0.2-0.3,0.1c-0.1-0.1-0.1,0.3-0.2,0.3l-0.2-0.2c-0.3-0.1-0.3,0.2-0.8,0.3c-0.2,0-0.4-0.2-0.3-0.5c-0.1,0.3,0,0.2-0.3,0.4
		c-0.1-0.1,0-0.1,0-0.2c-0.3-0.1-0.1,0.1-0.3,0.2c0,0.2,0,0.5,0,0.5l0.1,0c-0.2,0.1-0.3,0.2-0.6,0.2l0-0.1l-0.2,0.1l0-0.1l-0.3,0.1
		l0.1,0c-0.1,0-0.3,0.1-0.5,0.1l0-0.1c-0.5-0.1-0.7,0.3-1.2,0.4l0-0.2c-0.2-0.1,0,0.2-0.2,0.2l-0.1-0.2c-0.1,0.3-0.2,0-0.4,0
		l0.1,0.2l-0.2,0c-0.3,0-0.2-0.2-0.2-0.4l-0.1,0.2L47,59.3c-0.1,0.3-0.1,0-0.3,0.2c0-0.1,0-0.1-0.1-0.1l-0.3,0.4l0.2-0.2l0.1,0.3
		c-0.2,0.3-0.3,0.1-0.4,0.2l0.1-0.1c-0.2,0.1-0.3,0-0.4,0c0.1,0,0.1,0.1,0.1,0.2c-0.1,0-0.1-0.1-0.1-0.1c0,0.2-0.1,0.3-0.3,0.3
		c0,0,0-0.1,0-0.1c0,0,0,0.1-0.1,0.1l0-0.2l-0.1,0.2c-0.1,0-0.2,0.2-0.2,0l0-0.1l-0.7,0.2l-0.1-0.2c0,0.2-0.4,0-0.3,0.3
		c-0.2-0.1-0.5,0.3-0.5-0.1C43,60.6,42.9,61,42.3,61c-0.3-0.2-0.8,0-1.2,0.1c-0.7,0.3-1.1,0.6-1.7,0.9c-0.5-0.2-1,0.4-1.5,0.4
		l-0.1,0.2c-0.4-0.2-0.7,0.3-1.2,0.1c-0.1,0.1-0.1,0.1-0.2,0.1c0,0,0.1,0,0.1,0.1c-0.1,0-0.4,0.1-0.4-0.1l0,0c0-0.2-0.3,0.2-0.5,0
		l0.1,0.2l-0.2,0l0.1-0.1c-0.9,0.7-1.5,0.1-2.3,0.7c0.1-0.3-0.2,0.2-0.2-0.1c-0.3-0.3-0.4,0.1-0.6,0.3c0,0,0,0,0,0l-0.3,0
		c0.2-0.3-0.2,0.3-0.1,0c-0.9-0.1-2.1,0.2-3.2,0.3l0.1,0.1c-0.3,0-0.6,0.2-0.8,0.1c-0.2-0.1-0.4,0.3-0.5,0.3
		c-0.2,0.2-0.5-0.1-0.4-0.1c-0.2,0.1-0.4,0.4-0.8,0.3c-0.2-0.3-0.9,0.4-0.9,0.1l0,0c-0.5-0.1-0.8,0.3-1.3,0.2c0,0,0,0,0,0l-0.8,1.1
		l0.5,1l0.9,0.7c0.7-0.2,1.4-0.4,2.1-0.5l1.8,0.1c1.4-0.2,2.8-0.4,4.3-0.6l0.3-0.3c0.9,0.3,2-0.4,2.9-0.4l0-0.2
		c0.3-0.1,0.3,0,0.3,0.1c2.4-0.6,4.7-1.7,6.8-2.1c0.2,0.1,0.8-0.2,1-0.1c0.6-0.4,1.3-0.6,2-0.8l0,0l0.3-0.1c0,0,0,0,0,0.1
		c0.3-0.3,0.9-0.3,1.4-0.3l0,0c2.5-0.7,4.8-1.7,7.4-2c1.2,0.1,2.5-0.7,3.9-0.6C59.5,60.2,62.3,59.5,62.5,59.4z"/>
	<path class="st1" d="M66.5,58.2L66.5,58.2C66.5,58.3,66.6,58.3,66.5,58.2z"/>
	<polygon class="st1" points="60.4,57.2 60.4,57.2 60.3,57.1 	"/>
	<path class="st1" d="M64,56.4c-0.2,0-0.2,0-0.1,0.1C63.9,56.4,64,56.4,64,56.4z"/>
	<path class="st1" d="M67.8,57.8C67.9,57.8,67.9,57.7,67.8,57.8c-0.1-0.1-0.2-0.1-0.2-0.1C67.7,57.8,67.8,57.8,67.8,57.8z"/>
	<path class="st1" d="M67.3,56.7L67.3,56.7C67.2,56.7,67.2,56.7,67.3,56.7z"/>
</g>
</svg>
