<?xml version="1.0" encoding="utf-8"?>
<!-- Generator: Adobe Illustrator 21.1.0, SVG Export Plug-In . SVG Version: 6.00 Build 0)  -->
<svg version="1.1" id="Layer_1" xmlns="http://www.w3.org/2000/svg" xmlns:xlink="http://www.w3.org/1999/xlink" x="0px" y="0px"
	 viewBox="0 0 350 300" style="enable-background:new 0 0 350 300;" xml:space="preserve">
<style type="text/css">
	.st0{fill:#622D50;}
</style>
<g>
	<g>
		<g>
			<path class="st0" d="M166.3,219.5c-1.9,0-3.4-1.5-3.4-3.4V207c0-1.9,1.5-3.4,3.4-3.4c1.9,0,3.4,1.5,3.4,3.4v9.1
				C169.6,218,168.1,219.5,166.3,219.5z"/>
		</g>
		<g>
			<path class="st0" d="M169.7,208.3H50.1v-3.4c0-33,26.8-59.9,59.8-59.9s59.8,26.9,59.8,59.9V208.3z M57,201.6h105.9
				c-1.7-27.7-24.8-49.8-52.9-49.8C81.8,151.8,58.7,173.8,57,201.6z"/>
		</g>
		<g>
			<path class="st0" d="M67.6,230.4c-9.6,0-17.4-7-17.4-15.5c0-1.9,1.5-3.4,3.4-3.4s3.4,1.5,3.4,3.4c0,4.9,4.8,8.8,10.6,8.8
				s10.6-4,10.6-8.8c0-1.9,1.5-3.4,3.4-3.4s3.4,1.5,3.4,3.4C84.9,223.4,77.1,230.4,67.6,230.4z"/>
		</g>
		<g>
			<path class="st0" d="M96,230.4c-9.6,0-17.4-7-17.4-15.6c0-1.9,1.5-3.4,3.4-3.4s3.4,1.5,3.4,3.4c0,4.9,4.8,8.8,10.6,8.8
				s10.6-4,10.6-8.8c0-1.9,1.5-3.4,3.4-3.4s3.4,1.5,3.4,3.4C113.4,223.4,105.6,230.4,96,230.4z"/>
		</g>
		<g>
			<path class="st0" d="M124.5,230.4c-9.6,0-17.4-7-17.4-15.6c0-1.9,1.5-3.4,3.4-3.4s3.4,1.5,3.4,3.4c0,4.9,4.8,8.8,10.6,8.8
				c5.8,0,10.6-4,10.6-8.8c0-1.9,1.5-3.4,3.4-3.4c1.9,0,3.4,1.5,3.4,3.4C141.8,223.4,134,230.4,124.5,230.4z"/>
		</g>
		<g>
			<path class="st0" d="M152.3,230.1c-9.6,0-17.4-7-17.4-15.6c0-1.9,1.5-3.4,3.4-3.4c1.9,0,3.4,1.5,3.4,3.4c0,4.9,4.8,8.8,10.6,8.8
				s10.6-4,10.6-8.8c0-1.9,1.5-3.4,3.4-3.4c1.9,0,3.4,1.5,3.4,3.4C169.6,223.1,161.9,230.1,152.3,230.1z"/>
		</g>
		<g>
			<path class="st0" d="M129.8,269.5l-59.1-33.7h118.1L129.8,269.5z M96.2,242.5l33.6,19.2l33.6-19.2H96.2z"/>
		</g>
		<g>
			<path class="st0" d="M114.3,261.4L114.3,261.4l-54.7-0.3l-0.4-0.1c-6.5-1.5-11-6.6-11-12.4c0-5.9,4.5-11,11-12.4l0.3-0.1
				l23.7-0.3l0,0c1.8,0,3.3,1.5,3.4,3.3c0,1.9-1.5,3.4-3.3,3.4l-22.9,0.3c-3.2,0.8-5.5,3.2-5.5,5.8s2.2,4.9,5.4,5.8l53.9,0.3
				c1.9,0,3.4,1.5,3.4,3.4C117.6,259.9,116.1,261.4,114.3,261.4z"/>
		</g>
		<g>
			<path class="st0" d="M169.2,276.7H60.5c-1.9,0-3.4-1.5-3.4-3.4s1.5-3.4,3.4-3.4h108.7c1.9,0,3.4,1.5,3.4,3.4
				C172.5,275.1,171,276.7,169.2,276.7z"/>
		</g>
		<g>
			<path class="st0" d="M53.5,219c-1.9,0-3.4-1.5-3.4-3.4v-9.1c0-1.9,1.5-3.4,3.4-3.4c1.9,0,3.4,1.5,3.4,3.4v9.1
				C56.9,217.4,55.4,219,53.5,219z"/>
		</g>
		<g>
			<circle class="st0" cx="85" cy="177.3" r="5.1"/>
		</g>
		<g>
			<circle class="st0" cx="110.3" cy="164.3" r="5.1"/>
		</g>
		<g>
			<circle class="st0" cx="135.5" cy="177.3" r="5.1"/>
		</g>
	</g>
	<g>
		<g>
			<g>
				<path class="st0" d="M280.1,256.4h-66c-1.9,0-3.4-1.5-3.4-3.4s1.5-3.4,3.4-3.4h66c1.9,0,3.4,1.5,3.4,3.4S282,256.4,280.1,256.4z
					"/>
			</g>
			<g>
				<path class="st0" d="M281.1,276.7h-70.7l-10.7-102.5l-1.5-12l-8.5-80.1h112.1L281.1,276.7z M216.5,269.9H275l19.3-181h-97.1
					l7.7,72.5l1.5,12L216.5,269.9z"/>
			</g>
			<g>
				<path class="st0" d="M291.5,128.4h-92.1c-1.9,0-3.4-1.5-3.4-3.4s1.5-3.4,3.4-3.4h92.1c1.9,0,3.4,1.5,3.4,3.4
					S293.3,128.4,291.5,128.4z"/>
			</g>
			<g>
				<path class="st0" d="M253.7,242.9c-0.1,0-0.3,0-0.4,0c-1.8-0.2-3.1-1.9-2.9-3.8l28.1-212.8c0.2-1.8,1.9-3.2,3.8-2.9
					c1.8,0.2,3.1,1.9,2.9,3.8L257,239.9C256.9,241.6,255.4,242.9,253.7,242.9z"/>
			</g>
		</g>
		<g>
			<circle class="st0" cx="221.2" cy="146.9" r="5.5"/>
		</g>
		<g>
			<circle class="st0" cx="243.8" cy="171.1" r="5.5"/>
		</g>
		<g>
			<circle class="st0" cx="217.8" cy="188.8" r="5.5"/>
		</g>
		<g>
			<circle class="st0" cx="240.4" cy="213.1" r="5.5"/>
		</g>
	</g>
</g>
</svg>
