<svg xmlns="http://www.w3.org/2000/svg" viewBox="0 0 94.08 94.07"><path d="M93.45,93.44s0,0,0,0,0,0,0,0Zm.35-1s.09.06.06.13,0,0-.06,0S93.78,92.47,93.8,92.42Zm-.3.1a0,0,0,0,1,0,0A0,0,0,0,1,93.5,92.52Zm-.31-.41s0,0,0,0S93.21,92.09,93.19,92.11Zm0-.28s0,0,0,0h0A0,0,0,0,1,93.21,91.83Zm.4-1.12s0,0,0,0S93.59,90.69,93.61,90.71Zm-.11.2a0,0,0,0,1,0,0A0,0,0,0,1,93.5,90.91Zm0-.32s0,0,0,0h0S93.5,90.59,93.52,90.59Zm-.17-.29c.08.08,0,.18.09.22-.08,0,0,.17-.12.2s0-.15-.06-.23S93.37,90.41,93.35,90.3Zm.08-.81s0,0,0,0h0S93.41,89.49,93.43,89.49Zm-.06-.78s0,0,0,.05S93.35,88.73,93.37,88.71ZM93.15,87s0,0,0,0,0,0,0,0Zm.06,3.32s0,0,0,0S93.2,90.32,93.21,90.34Zm-.08-2.06s0,0,.09,0-.06.1-.12.07S93.12,88.3,93.13,88.28ZM93,91.44l.12,0-.1,0S93,91.45,93,91.44ZM93,93.15a.14.14,0,0,1-.11.07S92.94,93.13,93,93.15Zm0-6c-.08,0-.08,0-.11-.07A.1.1,0,0,1,93,87.18Zm.64-1.13s0,0,0,0S93.56,86.07,93.59,86.05Zm-.15.09c.09,0,.13.06.12.14h-.12Zm-.18.12s0,0,0,0S93.24,86.24,93.26,86.26Zm-.09-.83s0,0,0,0A0,0,0,0,1,93.17,85.43Zm-.06-.62s0,.06,0,.09S93.08,84.85,93.11,84.81Zm0,1.76s0,0,0,.05a.13.13,0,0,0,.09.09c-.14.06-.13-.09-.18-.13S93,86.56,93.07,86.57ZM93.18,82l-.09,0S93.1,82,93.18,82Zm0,.93a.12.12,0,0,1-.08-.11C93.15,82.85,93.15,82.85,93.16,82.93Zm0-1.45s-.07,0-.12,0S93.12,81.48,93.16,81.48Zm0,1.9v.08s-.06,0-.09,0Zm-.11,0s0,0,0,0,0,0,0,0Zm-.08-2.71H93l-.06.14A.12.12,0,0,1,92.93,80.69Zm.38-1.08s-.06,0-.09,0S93.27,79.58,93.31,79.61Zm.3-.32s-.06,0-.09,0S93.57,79.26,93.61,79.29Zm-.09-.09a0,0,0,0,1,0,0A0,0,0,0,1,93.52,79.2Zm-.32-.09c0,.11,0,.11-.06.09Zm-.14.39s0,.06,0,.09-.09,0-.07-.07S93,79.5,93.06,79.5Zm0-.83s0,0,0,0S93,78.69,93,78.67Zm.06-.26s-.06,0-.08,0S93.05,78.38,93.08,78.41Zm-.08,0s0,0,0,0h0S93,78.44,93,78.44Zm.2-2.53,0,.08s0,0-.1,0Zm0-1.86s0,0,0,0a0,0,0,0,1,0,0Zm0,.27s0,0,0,0,0,0,0,0Zm-.15.8s0,0,0,0S93.06,75.14,93,75.12Zm0-1.09,0,0s.07,0,0,.1,0,0,0,0-.08-.05-.07-.11Zm0-.13s0,0,0,0h0S93,73.9,93,73.9Zm.45-1.55s0,0,0,0,0,0,0,0Zm-.19-.5s0,.05-.08,0S93.27,71.85,93.3,71.85Zm-.11.64s0,0,0,0a0,0,0,0,1,0,0Zm.16-2.28a.1.1,0,0,1-.14,0A.12.12,0,0,1,93.35,70.21ZM93.25,68v.1a.11.11,0,0,1-.07-.09Zm0,1.72s0,0-.09,0S93.18,69.72,93.21,69.75Zm0-2.93s0,0,0,0S93.2,66.8,93.21,66.82Zm-.06-.76s0,0,0,0S93.13,66.08,93.15,66.06Zm-.06.12s-.06,0-.09,0S93.05,66.15,93.09,66.18Zm.19-.8s0,0,0,0,0,0,0,0Zm-.15.25s0,0,0,0S93.11,65.61,93.13,65.63ZM93,64.21a.06.06,0,0,1-.09,0S93,64.17,93,64.21Zm.46-.94a0,0,0,0,1,0,.07.09.09,0,0,1-.12,0Zm-.33-3.58s0,0,0,0h0S93.15,59.69,93.17,59.69Zm-.16.1s0,0,0,0,0,0,0,0Zm.18-.79s0,0,0,0S93.17,59,93.19,59Zm0-1.17c0,.05-.08,0-.12,0A.08.08,0,0,1,93.17,57.83Zm.41-3.27s0,0,0,0,0,0,0,0Zm-.26-2.07a.06.06,0,0,1,0,.09S93.3,52.53,93.32,52.49Zm-.08,1s0,0,0,0S93.22,53.47,93.24,53.45Zm0-2.79s0,0,0,0,0,0,0,0Zm-.11-.38s.08,0,0,.1-.05-.1-.11-.12S93.13,50.24,93.12,50.28Zm.49-1.8a.06.06,0,0,1-.09,0A.06.06,0,0,1,93.61,48.48ZM93.48,48c0,.08,0,.08,0,.13Zm-.24.42a0,0,0,0,1,0,0A0,0,0,0,1,93.24,48.46Zm-.09-2.53s0,0,0,0S93.13,46,93.15,45.93Zm-.09-.22s0,0,0,0a0,0,0,0,1,0,0Zm.07,3.58c0,.05-.06.05-.09,0S93.1,49.29,93.13,49.29Zm.37-7.53s0,0,0,.05S93.48,41.78,93.5,41.76Zm0-1.21s0,0,0,0S93.46,40.53,93.48,40.55Zm0-1.4v0s0,0,0,0S93.44,39.16,93.46,39.15Zm0,.05s0,0,0,0h0S93.41,39.19,93.43,39.2Zm-.24-1.29s0,0,0,.05S93.17,37.93,93.19,37.91Zm0,3.6a.06.06,0,0,1-.09,0A.06.06,0,0,1,93.22,41.51Zm.07.75h-.2A.17.17,0,0,1,93.29,42.26Zm-.14-1.19a0,0,0,0,1,0,0A0,0,0,0,1,93.15,41.07Zm0-3.23-.06,0C93.05,37.82,93.05,37.82,93.11,37.84Zm0,.9h0c0-.06.08-.06.11,0s0,0-.09,0,0,0,0,0v0S93.06,38.74,93.08,38.74Zm0,.92s0,.09.12.1c-.1.05-.11,0-.15-.07Zm0-4a.16.16,0,0,1,0,.15A.14.14,0,0,1,93.11,35.7Zm0,.67s-.06,0-.09,0A.06.06,0,0,1,93.13,36.37Zm0-1.56a.18.18,0,0,1-.16,0S93,34.8,93.08,34.81Zm.07-.43s0,0,0,0S93.13,34.39,93.15,34.38Zm.06-.86s0,0-.09,0S93.18,33.5,93.21,33.52Zm-.08.33s0,0,0,0S93.11,33.83,93.13,33.85Zm.15-1.21a0,0,0,0,1,0,0A0,0,0,0,1,93.28,32.64Zm-.07.07s0,0,0,0S93.2,32.68,93.21,32.71Zm0-1.76a.12.12,0,0,1,0-.15A.14.14,0,0,1,93.24,31Zm0-.6c.06,0,0,.08,0,.1s.06,0,.09,0v.21c-.07.05-.09-.08-.15,0C93.14,30.53,93.22,30.45,93.23,30.35Zm-.06-1.24s0,0,0,0l0,0S93.15,29.1,93.17,29.11Zm0,2.22a0,0,0,0,1,0,0A0,0,0,0,1,93.17,31.33Zm.35-3.39a0,0,0,0,1,0,0A0,0,0,0,1,93.52,27.94Zm0-.3-.13.14c0-.05,0-.09-.06-.12S93.41,27.64,93.49,27.64Zm-.56-.55s0,0,0-.05S93,27.07,92.93,27.09Zm.08,5h.06c0,.06,0,.09,0,.14A.14.14,0,0,1,93,32.05Zm0,2.12s-.06,0-.09,0A.06.06,0,0,1,93,34.17Zm0-2.75v0s0,0,0,0S93.09,31.44,93.09,31.42Zm0-2.15s0,0,0,0S93.11,29.25,93.13,29.27Zm0,2.06s0,0,0,0S93.07,31.31,93.08,31.33ZM93,29.15c0,.08,0,.1,0,.14S93,29.19,93,29.15Zm0-1.88s0,.06,0,.09S93,27.31,93.06,27.27Zm.16-.58a.26.26,0,0,0-.14.17H93s0-.09-.11-.12C93,26.73,93.1,26.64,93.22,26.69Zm-.13-1.56.11.23C93.08,25.31,93.08,25.24,93.09,25.13Zm.21-2.81c-.07,0,0-.09,0-.14S93.27,22.28,93.3,22.32ZM93.13,19s0,0,0,0h0S93.11,19,93.13,19Zm.06,1.66s0,.05,0,.09S93.16,20.66,93.19,20.63Zm0,.33a.06.06,0,0,1,0,.08c0-.05-.07,0-.11-.07A.09.09,0,0,1,93.16,21ZM93,18.52s0,0,0,0,0,0,0,0Zm-.08.14,0-.1S93,18.57,92.93,18.66Zm.4-2c0,.09,0,.1,0,.14S93.3,16.68,93.33,16.63Zm-.25.44s0,0-.08,0S93.06,17,93.08,17.07ZM93,16s-.07,0-.12,0S93,16,93,16Zm.42-3.59a.06.06,0,0,1,0,.09S93.43,12.41,93.45,12.37Zm-.34.69a0,0,0,0,1,0,0A0,0,0,0,1,93.11,13.06Zm0,2.18s0,0,0,0S93.11,15.22,93.13,15.24Zm.15-4.66s0,0,0,.05S93.26,10.6,93.28,10.58Zm-.11.33c0,.06-.08.05-.13,0S93.13,10.94,93.17,10.91ZM93,10.47s0,0,0,0S93,10.45,93,10.47Zm0,1.22c0,.06,0,.11-.09.06Zm.38-2.53a.06.06,0,0,1,0,.09c-.06,0-.08,0-.07-.06S93.35,9.16,93.37,9.16Zm-.09-3a0,0,0,0,1,0,0A0,0,0,0,1,93.28,6.14Zm0,.2s0,0,0,0S93.24,6.32,93.26,6.34Zm-.05-1.85s0,0,0,0v0S93.19,4.48,93.21,4.49Zm-.06-.6s0,0,0,0,0,0,0,0Zm.19-.66h0s0,0,0,0S93.34,3.21,93.34,3.23Zm-.11.07s0,.05,0,.09S93.21,3.33,93.23,3.3Zm.18-1.24a0,0,0,0,1,0,0A0,0,0,0,1,93.41,2.06Zm0-.67v.06l-.14-.06A.1.1,0,0,1,93.39,1.39Zm-.16,1s0,0,0,0,0,0,0,0Zm-.08.27s0,0,0-.05S93.17,2.68,93.15,2.7Zm0-.23s0,0,0-.05S93.17,2.45,93.15,2.47Zm.07-1.4s-.09,0-.13,0A.09.09,0,0,1,93.22,1.07Zm-.15,2.86c-.06,0-.06,0-.11-.12C93.08,3.75,93,3.91,93.07,3.93ZM93,1.18s0,0,0,.05S93,1.2,93,1.18Zm.09,5.69s0,0,0-.1,0,0,0,0h0a0,0,0,0,1,0,0v0C93.09,6.8,93.1,6.83,93.07,6.87Zm.1-.62v0s0,0-.1,0ZM93,6.62a.11.11,0,0,1-.13,0A.09.09,0,0,1,93,6.62ZM93,.31A.13.13,0,0,1,93,.4c0,.08-.18-.09-.17-.08A.11.11,0,0,1,93,.31ZM.7,0C.61.09.7,0,.7,0ZM.6,0c-.07,0,0,0,0,0ZM.07,46.16c0-.14.26-.44,0-.47a.24.24,0,0,1,0,.08A.79.79,0,0,0,.07,46.16Zm0,2.74,0,.05c0-.05.05-.08,0-.1s0,0,0,0Zm0,4.71,0,0s.05-.08,0-.1a.06.06,0,0,0,0,0Zm0,4.89s0,0,0-.11l0,0Zm0,5.6s0,0,0,0a.08.08,0,0,0,0-.1s0,0,0,0Zm0,2c.14,0,.15,0,.19-.14a.81.81,0,0,0-.07-.41l-.12.37h0a.08.08,0,0,0,.08,0c.06,0,0,.1-.08.14S0,66,.07,66.06Zm0,8a.17.17,0,0,0,0,0s.1-.07.06-.17-.08.07-.08.11Zm0,.77a.3.3,0,0,0,0,.13s.09-.29.1-.29-.07.13-.11.17a.15.15,0,0,0,0-.07ZM.63,40,.5,40a.21.21,0,0,1,.19-.08Zm.1-7.73a0,0,0,0,1,0,0c0-.07.11,0,.11-.09.09.09.09.53-.1.39.06,0,.05-.07,0-.08s-.14,0-.14.13-.07.23-.08.06a1.86,1.86,0,0,1,.09-.6s.18-.35.17-.34c.17-.14.19.09.2.1S1,32,1,32H1a.05.05,0,0,1,0,0h0s0,0-.05,0-.24.2-.28.29A.12.12,0,0,0,.73,32.29Zm0,.41s0,0-.05,0S.73,32.68.74,32.7Zm.1-1.29c0,.08-.11.05-.1,0Zm0-.28L.93,31C.93,31.09.92,31.22.84,31.13Zm0,.43s0,0,0,0S.84,31.55.81,31.56Zm.21.7c0,.13-.08.15-.11.21C.91,32.37.91,32.37,1,32.26Zm.09,3.39c-.07.12-.07.22-.16.27C.9,35.78,1,35.73,1.11,35.65ZM1,49.09c-.05,0-.21.23-.22.27s0,.2.13.25,0-.12.05-.13a.05.05,0,0,0-.08,0c-.13-.11.12-.22.22-.08s-.06.46-.22.43.07-.08,0-.14-.21.22-.27.17a1.59,1.59,0,0,1,0-.38.85.85,0,0,1,.07-.41,1.63,1.63,0,0,1,.07-.28c0-.06.17,0,.22-.07A1.09,1.09,0,0,1,1,49c.09-.08.18,0,.09.1S1,49,1,49.09Zm.05,0a.12.12,0,0,1,0,.1C1,49.17,1,49.09,1.08,49.09ZM.94,63.69h0s0,0,0,0,0,0,0,0a.15.15,0,0,1-.09,0A.11.11,0,0,1,1,63.59C1,63.64.9,63.64.94,63.69Zm0,.14s0-.06,0-.09S.91,63.83.91,63.83Zm0-1.67-.11.23C.78,62.28.79,62.21.91,62.16Zm-.14-.6a.08.08,0,0,1,0-.1C.81,61.48.8,61.51.77,61.56Zm.12-.32A.13.13,0,0,1,1,61.15Q1,61.29.89,61.24Zm0-3.56a.12.12,0,0,1-.08.12C.81,57.71.81,57.71.89,57.68ZM.79,57s.06,0,.09,0S.83,57.06.79,57Zm.13,1.71c0,.05-.05.27-.13.17S.83,58.75.92,58.73Zm0,1c0,.12,0,.18-.12.21C.87,59.85,1,59.82,1,59.74Zm0-3L1,56.65C1,56.72,1,56.77.94,56.73Zm0-3.22c-.06-.1,0-.11.05-.17C1.07,53.44,1,53.45,1,53.51Zm0,2.24c0,.09,0,.12-.15.15Zm0-1.08-.13.14C.84,54.71.89,54.67,1,54.67Zm0-2.48A.23.23,0,0,1,1.12,52C1.08,52.06,1.11,52.17,1,52.19ZM1,50c-.06,0,0,0,0-.1A.09.09,0,0,1,1,50ZM1,50.87c-.06-.1,0-.11.05-.16S1,50.82,1,50.87ZM.89,48.38s-.09.2-.1.06Zm0-.3s0,.07,0,.1S.91,48.09.91,48.08Zm-.05.56s0-.07,0-.1S.89,48.59.86,48.64ZM.7,48.5s0-.18.09-.09ZM.84,46c0,.06,0,.13,0,.16a.14.14,0,0,0,0-.13A.08.08,0,0,1,.84,46Zm-.1-1a.24.24,0,0,1,.09-.15V45Zm0-.18c-.05-.15.08-.11-.09-.1s0,0-.12,0,0,.25-.15,0l.1-.3a.92.92,0,0,1,.08-.4,1.4,1.4,0,0,1,.15-.3c.06-.06.23-.06.28-.14.06.09-.06.16,0,.21s.14.06.15.15-.2-.08-.2.1c-.11,0,0,.11-.12,0-.12.17-.24.59.08.38-.06-.09-.15,0-.13-.12s.21,0,.26,0C.86,44.53,1.06,44.81.76,44.78Zm-.14.15c-.06,0,0-.09,0-.09S.66,44.91.62,44.93Zm.24-1.56c.07,0,0,.09,0,.1A.06.06,0,0,1,.86,43.37ZM1,44s0,.12-.07.1S1,44,1,44Zm.2,5.34c.08.12,0,.17,0,.29C1.05,49.5,1.25,49.56,1.23,49.37Zm-.18-4.73c-.06-.14,0-.19.12-.28A.38.38,0,0,1,1.05,44.64Zm.12-14.83a.41.41,0,0,1-.13.24A.23.23,0,0,1,1.17,29.81Zm-.13-3a.24.24,0,0,1,.13-.25A.41.41,0,0,1,1,26.76Zm-.1,16.4c.08.05,0,.19,0,.21s-.18-.09-.08-.15S.91,43.28.94,43.16Zm-.22-1s0-.05,0-.09L.6,42c-.07,0-.09.14-.18.15a1.73,1.73,0,0,1,.08-.26.21.21,0,0,0-.07-.15l.12-.08c0-.11-.06-.16.07-.22s.2.1.14.22-.13,0-.14.05,0,.16-.08.17a.14.14,0,0,0,.14,0s-.07-.2.07-.11-.08.15,0,.24-.1,0-.1.06S.75,42.17.72,42.2Zm-.27,0s0,0,0,0S.44,42.2.45,42.23Zm.38-2.76c0,.09-.06.13-.06.24C.72,39.58.74,39.51.83,39.47ZM.76,38.2c.05,0,0,.1,0,.14A.1.1,0,0,1,.76,38.2Zm0,2.66c0,.15-.08.16-.12.22C.64,41,.73,41,.78,40.86Zm.08,1c-.06,0,0-.09,0-.09S.9,41.87.86,41.89Zm-.1-4.81a.12.12,0,0,1,0-.1.12.12,0,0,0,.08,0C.87,37,.8,37,.76,37.08ZM.65,47.37c0-.1,0-.13.13-.08A.11.11,0,0,1,.65,47.37Zm.09.08s0,0-.05,0S.73,47.42.74,47.45Zm.19,4.3s0,0,0,0A0,0,0,0,1,.93,51.75ZM.52,58.06s0,0,0-.05S.55,58.05.52,58.06Zm.27,1.42a.12.12,0,0,1,0,.1C.7,59.56.74,59.48.79,59.48Zm-.09.91v-.24C.76,60.25.85,60.33.7,60.39Zm.08,3.15a.15.15,0,0,1-.06.09.09.09,0,0,1,0-.1Zm-.13-.82s0,0,0,0S.63,62.78.65,62.72Zm0,0q-.06-.12.06-.09A.15.15,0,0,1,.62,62.72Zm.51,1.7s0,0,0,0S1.11,64.4,1.13,64.42Zm0,15.37s0-.05,0-.09a.45.45,0,0,0-.21.22c-.11.26,0,.19.12.15l0,.06a.07.07,0,0,0,.1,0c0-.1-.15,0-.06-.19s.12.07.21,0c-.09.17,0,.37-.13.48S1,80.38,1,80.33s-.08.06-.17,0a.26.26,0,0,0-.08.19c-.1,0-.06-.62,0-.71l.13-.32c0-.1,0-.14.1-.12a.12.12,0,0,0,.15-.08c.06.06,0,.18,0,.2s.07.19.08.07.07,0,.05.08-.12,0-.14.07S1.14,79.76,1.11,79.79Zm0,.74L1,80.62C1,80.54,1,80.48,1.08,80.53ZM.69,81.77c0-.08-.07,0-.09-.07a.17.17,0,0,1,.14,0A.07.07,0,0,1,.69,81.77Zm0,.1a.05.05,0,0,1,0-.09C.73,81.77.67,81.87.66,81.87Zm.06-.48c0-.11,0-.13.05-.17S.74,81.32.72,81.39Zm.12-.83v.18a.32.32,0,0,0,.09,0s.1,0,0,.15S.7,80.72.84,80.56ZM1,73.27c.08-.07.06-.17.21-.22C1.14,73.15,1.16,73.26,1,73.27Zm-.17.2a.09.09,0,0,1,0,.14C.8,73.58.87,73.51.84,73.47Zm0,0v0s0,0,0,0,0,0,0,0c0-.15-.09-.07-.2-.12a.42.42,0,0,1-.06.31c-.16,0,.08-.82.15-.93s.13-.33.28-.23,0,.12,0,.15.1.06.13.13a.47.47,0,0,1-.17,0c0,.07.08,0,.07.08-.29,0-.17.09-.32.29,0,.07.14,0,.16.08C1,73.11.71,73,1,73c-.06.09,0,.23-.06.31S.94,73.35.84,73.43Zm-.12.09s0,0,0,0S.74,73.5.72,73.52Zm.35-5.29a.44.44,0,0,1-.11.29C.89,68.36,1,68.32,1.07,68.23ZM1,65.2a.17.17,0,0,1,0,.17A.14.14,0,0,1,1,65.2Zm-.12,0s0,0-.05,0S.87,65.21.89,65.23Zm-.1,2v.21a.83.83,0,0,1-.14-.26A.24.24,0,0,1,.79,67.18Zm-.17-.7a.27.27,0,0,1-.06-.1C.62,66.37.69,66.41.62,66.48ZM1,69.66a.15.15,0,0,1-.08.16C.86,69.72.93,69.69,1,69.66Zm-.09-.35a.13.13,0,0,1,0,.09C.8,69.39.84,69.31.89,69.31Zm-.2.3s0,.06,0,.06S.66,69.61.69,69.61Zm.07,1.28c0-.11.06-.14.05-.22C.88,70.77.83,70.83.76,70.89Zm0,.29c-.06,0,0-.06,0-.08S.8,71.15.77,71.18Zm.12.54s0,0-.05,0S.87,71.69.89,71.72Zm-.13,6.2a.12.12,0,0,1,0-.1.2.2,0,0,0,.08,0C.87,77.85.8,77.87.76,77.92Zm0,.19L.83,78C.84,78.1.84,78.15.74,78.11Zm0-1a.06.06,0,0,1-.09,0C.67,77,.7,77.06.74,77.09ZM.53,75.7c-.07-.1,0-.11,0-.16S.55,75.65.53,75.7Zm0,.83s0,0-.05,0S.53,76.51.55,76.53Zm0-1.79s0-.07,0-.1S.56,74.69.52,74.74Zm0,.19c-.11,0-.14-.09-.22-.14l.11-.12C.37,74.79.51,74.81.5,74.93ZM.07,76.59c.06,0,0,0,.1.06s0-.19-.05-.26a.9.9,0,0,1,.17-.26c-.06,0-.12-.13-.17-.06s0,.12,0,.15a1,1,0,0,0,0,.1.12.12,0,0,0,0,.12C.09,76.5,0,76.6.07,76.59Zm0,.54a.19.19,0,0,0,0,.08c.06,0,0-.11.05-.15s.07.07.13,0,0-.18-.12-.24a.57.57,0,0,0-.08.25Zm0,11.12c0-.1.06,0,.09-.12s0,0,0,0a.06.06,0,0,0,0,0C0,88.25.07,88.25.07,88.25ZM.07,93c.1,0,.13,0,.09-.13A.12.12,0,0,0,.07,93Zm0,.22a.21.21,0,0,0,0,.06.07.07,0,0,0,0-.1Zm93,.32.28-.1.08.14c0,.11.1.13.17,0a.1.1,0,0,1,.17,0,0,0,0,0,0,0-.07s-.12,0-.16-.06-.09.11-.13,0,0-.07,0-.1-.09-.07-.13-.11l.16-.16a.24.24,0,0,0,.16,0c-.11,0-.14-.12-.23-.14s.09,0,.16,0l.09-.11s0-.07-.06-.11h.22c0-.08,0-.16,0-.23s.13,0,.16,0l-.14-.16c0,.06-.14.06-.22,0,0,.07.07.08,0,.13-.29-.08-.23-.13-.3-.33-.06,0,0,.07-.06.08V91.8c-.06,0-.1,0-.15,0s0-.06,0-.08,0,0-.09,0,0,0,0-.17,0-.15.12-.19l-.1-.16c.07,0,.12-.05.17,0,0-.08,0-.16,0-.23h.06s-.07.07,0,.13.11,0,.14.06a.07.07,0,0,0,0-.11c0-.06,0-.12.1-.16s0,0,.09,0l.09-.18s0,.08,0,.09h0c0-.11-.11-.15-.12-.25a.31.31,0,0,0-.21-.07.3.3,0,0,0-.08-.16l0,0,0,0a.19.19,0,0,1,0-.17.44.44,0,0,1-.32-.06v-.09a.36.36,0,0,1,.18-.14s0-.05,0-.07l0,0-.09,0c0-.1.11-.12.11-.21l.05,0c.06,0,.08-.06.15,0v-.11s-.06,0-.09,0-.16,0-.07-.15l-.09,0c0-.08.06-.1.07-.15l-.07-.08,0-.13h.07s0,0,0-.06,0-.18.11-.25l0,0s0,0,0-.07-.12,0-.15-.06-.05.07-.11,0l.13-.41c-.1-.06-.23,0-.31-.15l.1-.2-.05-.06s.06-.08.12-.08a.11.11,0,0,0,0-.15c.06,0,.12,0,.18,0l-.08-.07a.17.17,0,0,1,0-.19,3.84,3.84,0,0,1-.39-.22.1.1,0,0,1,.15,0s.07,0,.07,0,.06,0,.08,0-.12-.08-.2-.13,0,.06,0,0h0l0,.05a.24.24,0,0,1-.28-.15c.09-.06.18,0,.23,0l.25.13s0-.07,0-.07-.11-.09-.12-.18h0c0-.07.05,0,.07-.06s-.1-.22-.07-.35a.69.69,0,0,0,.42.08s0-.06,0-.09.06,0,.08-.06V86l0,0,0-.08,0,0c-.07-.06,0-.15-.06-.23a.27.27,0,0,1-.23,0c0,.05,0,.05-.07.05l-.07-.23a.28.28,0,0,1,.27-.09c0-.15-.1-.14-.19-.15l0-.05s-.06-.1,0-.17,0,.08.07.1c0-.16,0-.31-.08-.44s0,0,.07,0,0,0,0,0-.11,0-.09-.09,0,0,0,0l0,0c0-.08-.14,0-.19-.06s0,0,.06,0-.07-.06,0-.11.05,0,.12,0,0,0,0-.05-.13,0-.16-.08.11,0,.12-.11H93a.06.06,0,0,1,0-.08.13.13,0,0,1,.07.09h0c.06,0,0-.06.06-.1l.14.14s.05,0,.06,0l0-.05s.12,0,.08-.1a.1.1,0,0,0-.14,0l-.19-.1c0-.13.14-.11.16-.23s-.08,0-.08,0-.06,0-.09-.08.08,0,0-.1.14-.1.23-.06v-.11c-.06-.07-.12-.15-.24-.12.06-.13.09-.23.19-.28s0,0,0,0a.38.38,0,0,1,0-.27.36.36,0,0,0,.14.23l0,0c.06,0,.07.09.14.08s0-.09,0-.14-.1-.06-.16-.09l0,.08c-.08,0-.07-.15-.15-.19v-.15s0,0,0,0l.31.26a.16.16,0,0,1,0-.12l0-.05s.08,0,.13,0l-.11-.06s-.12.08-.2,0,.08,0,.12,0,0-.06,0-.07a.14.14,0,0,1,.14,0c0-.08-.05-.1,0-.22l-.06.11c-.12,0-.21,0-.28.07l-.13-.06c0-.1,0-.2,0-.3h.06a.14.14,0,0,0,0-.18h-.15c0-.07.06,0,.07-.06v-.1l.15-.12c-.07,0-.06-.1-.07-.16s0-.1,0-.15l0,0c-.06,0,0-.08,0-.12l0,0c0-.05.07-.1.14-.08s-.07,0-.09,0-.14.07-.22,0S93,81,93,81s-.07,0-.08,0,.08,0,.1-.11.1,0,.11,0-.07,0-.1-.06,0-.09-.11-.1,0-.12.12-.19l0,0,0,0,0,0s0,0,0-.08-.06,0-.12,0a.17.17,0,0,1,0-.07.31.31,0,0,1,.18.09s0,0,0-.07l-.09,0s.06-.1.15-.06l0-.06a.61.61,0,0,1-.34-.08.51.51,0,0,1,.4-.09s0,0,0,.06-.09,0-.12,0v0c.1,0,.18.07.28.06s0-.13,0-.16.06-.09.08-.14l-.07-.08c0-.06.06,0,.07-.05s-.22-.06-.35-.08.12,0,.1-.11l.12-.07c.14.09.3,0,.44,0-.06-.07-.08-.17-.17-.21s.08,0,.11,0l.06-.22h-.06a.34.34,0,0,1-.15.18s-.09,0-.12-.06l0,.09a.31.31,0,0,1-.21-.14v-.14s-.12,0-.17,0,0,0,0,0l.09-.19s0,0,.06,0c-.08-.18-.08-.18-.16-.23a.64.64,0,0,1,.11-.25.38.38,0,0,0,.14-.21c0-.09.14-.1.11-.22l-.18.1s0-.13,0-.15l.09-.19-.09,0,0,.06s0,0,0,0,0-.15-.08-.16,0-.09-.09-.1l.08-.24,0,0s.07,0,.08,0,0,0-.09,0,.12-.18.22-.22,0-.15,0-.21-.09.13-.2.13c0-.1.09-.2.14-.31s.15,0,.2-.14-.07-.11,0-.17-.11,0-.16,0-.05-.11-.12-.12a.42.42,0,0,0,.3-.32s-.07-.1-.14-.06,0,0,0,.07-.08.07-.16,0c.1-.14.13-.31.27-.43v-.15s.06.08.11,0l0-.12h-.06s0,.09-.08.12,0-.07,0-.1l.1-.11c-.11,0-.13-.1-.17-.17s.08-.12.07-.21h.05c0-.1-.07-.18-.05-.27l0,0c0-.08-.06-.1,0-.17l0,0c-.06,0-.07,0-.12,0a.1.1,0,0,1,0-.11s0-.07,0-.12a.1.1,0,0,1-.09-.08s0-.09,0-.12l0,0a0,0,0,0,0-.06,0l0,0c-.05,0,0-.12-.05-.14l.13-.13s-.06-.06-.05-.12.15,0,.21-.13v-.13a.15.15,0,0,1-.16,0c0-.06.11,0,0-.13h.18a.37.37,0,0,0,0-.18c.12,0,.2.09.29.13s.06-.11.06-.18,0-.06,0-.09,0,.06,0,.09,0,0,.07,0,0-.08,0-.12.09,0,.08.08h.15s.08-.07.07-.14-.08.12-.17.09c.07-.12,0-.28.12-.38L93.85,72s0,.15-.13.13,0,0,0-.06l0,0s0,0-.06,0,0,.09,0,.09-.09-.07-.15-.08l0,0c-.09-.06.06-.11,0-.18H93.3c0-.07.08,0,.09-.09s-.18,0-.25-.06.12-.06.18-.11-.17,0-.19-.14l0,0-.08,0c0-.07.08-.13,0-.19s.24-.08.26-.23-.09,0-.12,0-.11-.06-.1-.13.1.06.16,0,0,0,0-.06-.11,0-.16,0,0,0,0-.12.09.11.16,0l.13-.15.06.06s0,0,.07,0,.06.07.11.08l.07-.15c-.05,0-.06,0-.09,0s0-.05-.06-.07,0,0-.08,0v-.2c-.07,0,0,.06,0,.07s0-.07,0-.1-.12,0-.17,0l0-.05s-.1,0-.15,0l0-.07a.53.53,0,0,1,.16-.23c0-.08-.07-.09-.08-.15l0,0c0-.05-.06,0-.08-.05s0,0,.08,0v-.19c0-.12.22-.09.23-.23s0,0-.08,0,0-.06,0-.09,0,0-.07,0,0-.13-.06-.16,0-.24,0-.34,0-.16.09-.22,0-.12,0-.19h-.07c0-.12,0-.27-.06-.39a.24.24,0,0,0,.13-.09c0-.07-.11-.06-.17-.08s0-.08,0-.08v-.07a.3.3,0,0,1-.17-.14s0,0,.06,0,0-.09.06-.11l-.08-.1c.06,0,.14,0,.21,0s0,0-.06,0h-.06a.27.27,0,0,1,.17-.19s0,0,0-.08,0-.09,0-.14-.08-.15,0-.21-.07-.08,0-.13,0,0,0,0,0,.08,0,.13h.19c0-.06-.1-.07-.08-.15s-.19-.1-.3-.06.06-.07,0-.13-.15,0-.23,0L93,66a.69.69,0,0,1,.23-.09l-.1,0v-.07h.21c0-.13-.05-.13-.11-.16s.11-.09.12-.17.06.08.12,0,0,0,0-.07l-.08-.09c.08,0,.19,0,.18-.15s0,0-.07,0,0-.08,0-.12a.06.06,0,0,1,.08,0v.08h.06s0,.08,0,.14,0-.1.07-.12S93.6,65,93.52,65s0-.06,0-.1l-.1,0,.13-.06c-.07-.08-.1,0-.13,0l0,0c-.06.07,0,.16,0,.23s0-.12,0-.15l-.22-.2.06-.06,0,.05a.33.33,0,0,0-.12-.36l.12-.24s.06,0,.09,0,0-.08,0-.12a.46.46,0,0,0-.2,0c-.05,0-.06.08-.08.13a.38.38,0,0,1-.15,0,.21.21,0,0,1,0-.11c.12-.09.25,0,.38-.06l0-.09h.15s0,0,0-.06-.08-.08,0-.16.07.06.1.09,0-.06,0-.08,0,0,.06,0,0-.08,0-.11-.06-.05,0-.1.06,0,.09,0l.12.13s0,0,.07,0,0,0,0,0a.08.08,0,0,1,.07-.08V63.4h-.06s0,0,0-.07-.13.05-.2,0,0,0,0-.06a.14.14,0,0,0-.16-.07l0-.09c-.08,0-.14.11-.24.08s.13-.17.17-.27,0,0,0,0,0-.08-.09-.08l0,0,0,0s0,0,0,0h-.07s0,0,0-.09l-.1.09s0,0,0-.06a1.09,1.09,0,0,1,.08-.15l0-.06a.1.1,0,0,0,0,0c.06,0,.11,0,.12-.1s0,0,0-.06.09,0,.09-.06-.13,0-.12-.15l0,0-.08,0c-.05-.06.07-.1,0-.13s0-.1,0-.15.07-.08.05-.14-.08,0-.12,0,0,0,0-.06a.19.19,0,0,1,0-.15s.07,0,.13,0,0-.06,0-.1l-.08-.09s0,0,0,0h.06s0,0,.07-.06-.09-.15,0-.23l.06-.07,0,0a.07.07,0,0,0,0-.06s0,0-.07,0h-.08s0-.1,0-.13-.07.09-.1.13-.11-.1-.11-.17,0,0-.07,0,0,0,0-.07l0,0c.06,0,.15,0,.18-.1h-.25c0-.06,0-.08,0-.1a.87.87,0,0,0,.26-.16c0-.05-.11,0-.16,0s0-.06,0-.08,0-.05.08-.07,0,0-.07,0,0-.08,0-.13.11,0,.17-.06,0-.08,0-.08.07-.07.08-.12-.07,0-.1,0,0-.06-.07-.05v.12s0,.09-.12,0,.05-.14.12-.18a1,1,0,0,0,0-.12s.07-.09,0-.12a.82.82,0,0,0,.25-.1c.06-.05.07-.16.16-.17s-.05-.07,0-.12,0-.08,0-.13h-.08l0,.09h-.12a.33.33,0,0,1,.09-.11c0-.12,0-.12,0-.3,0,0-.06,0-.08-.06s-.06,0-.1,0,0-.06,0-.08.06,0,.09,0,.09-.08.11-.14a.17.17,0,0,0-.18,0l.06.07c-.12,0-.2,0-.29-.12h.29c.06-.1.06-.1.32-.22-.12,0-.19-.07-.33-.06.09,0,.07-.13.12-.14s.06-.05.1-.06-.06-.09-.08-.15l0,0,0,0s0,0,0-.08a0,0,0,0,1,0,0s-.09,0-.11,0,0,.08,0,.09l0-.08s0,.06-.1,0L93,57.17a.62.62,0,0,0,.07-.26l-.05,0,0,0c.07,0,.14,0,.21,0l.1-.11v-.11s-.05,0,0-.06,0,0,0,0v-.17c-.06,0-.14,0-.19,0l.17-.17-.07-.09c-.07,0-.08,0-.12,0s0,0,0-.06.08-.06.13-.08-.1-.05-.1-.11-.08,0-.12,0a.36.36,0,0,0,.14-.11l-.09-.1s0,0,0,0,0,0,0-.07l0,0-.09-.1a.65.65,0,0,0,.23-.09l-.09-.09c0-.05.08,0,.13-.05l-.11-.06.06-.07,0-.05c.06-.08.09.06.15,0l.07-.14,0-.07h.34c0-.07,0-.1,0-.15h.06s0,.09,0,.13a.22.22,0,0,0,.16,0,.87.87,0,0,0-.35-.26c0-.07.1-.08.09-.16h0c-.07.05-.14.1-.12.18l-.1-.11s0-.07,0-.11a.14.14,0,0,1-.07-.11l0,.09s-.07,0-.1-.06l.08-.17c0-.06-.1,0-.13-.11s0-.1,0-.13-.06,0,0-.11.13,0,.2,0,0-.16-.06-.24,0,0,.06,0a.26.26,0,0,0,0-.15s-.07,0-.08-.05l.07-.07s0,0,0-.07.06-.07,0-.12-.06,0-.08,0a.22.22,0,0,0,.13-.19.3.3,0,0,1,.09-.25c-.11,0-.16.08-.21,0s0-.07,0-.09-.1-.13-.17-.19.2-.12.26-.24-.2-.08-.3-.12.07,0,.07-.06-.17-.12-.28-.12,0-.12-.06-.15a.7.7,0,0,1,.31-.07s0,0,0,0-.11-.12-.16-.19a1.33,1.33,0,0,1,.25-.45c.11-.09.11-.13,0-.27s-.1-.09,0-.2S93.17,50,93,50l.1-.37c0-.06-.1,0-.13-.05l.21-.19V49.3s-.06,0-.08,0l.08-.17s-.11,0-.16,0,0-.14.12-.18.06,0,.1,0,.08,0,.08,0,0,0,0-.07l.27-.09s0-.07,0-.1l0,0s0-.12,0-.21-.16.07-.24,0,.06,0,.08,0,0-.08,0-.08,0,0,0,0h.12a2.35,2.35,0,0,0-.1-.42s0,.06,0,.08-.07,0-.11,0,0-.17,0-.26l-.08,0,.09-.11c0-.08-.14-.06-.14-.16s.07,0,.09-.05-.12,0-.2,0l0-.09.17-.09c0-.08-.15-.09-.18-.18s.14,0,.17-.11.13-.08.22-.11c-.06-.05-.13,0-.18-.05l.17-.09v-.29h-.11l0-.08-.08,0c0-.11.09-.21,0-.31s-.13-.11-.17-.2.08-.09.12-.14.06,0,.06.07,0,0,.12.06,0-.06-.07-.1.07,0,.07,0,0,0,0-.06,0,0,0,0-.1-.08-.16-.08l.08,0v-.1l.13-.13s-.1,0-.09-.08h-.07c-.06-.11.11-.21,0-.33l.09-.06c.07-.15-.06-.26,0-.38s-.08.08-.11.13,0-.12,0-.17a.15.15,0,0,1-.11-.08l.18-.1L93.09,44s0-.06.08-.06-.08-.06,0-.13l.07,0a1.09,1.09,0,0,1,0-.18s-.1-.07,0-.14l0,0s0-.05,0-.08.06.07.11.08l0-.1.06.11c.08,0,0-.1.1-.11s-.13-.11-.25-.07l.07-.08c0-.05-.11,0-.16,0s0-.1,0-.15-.08,0-.13,0l0,0,.12-.12c0-.14-.17-.1-.18-.21h0v.08s0,0-.08-.05.06,0,.09,0,0,0,0,0,0,0,0,0h.12l.07.09a.06.06,0,0,0,0-.06s-.08-.06-.09-.12a.65.65,0,0,1-.27-.17c.09,0,.19,0,.26,0l0,.07c.09,0,.17,0,.25-.05s-.11,0-.08-.09.06,0,.08,0-.07,0-.09-.07,0-.15.06-.27a.76.76,0,0,1,.1.13s.09,0,.1.07,0,.08.08.06-.12-.13-.16-.2,0,0,.07,0,0-.09,0-.13l.17.08s0,0,0-.05-.08-.1-.15-.09l-.12-.27s0,.07,0,.09,0-.12,0-.17a.71.71,0,0,0-.22-.07l0-.06c-.06,0-.14,0-.2,0s0,0,0-.07a.22.22,0,0,1,.22,0c0-.06.05,0,.07-.06s0,0,0-.06l0,0a.1.1,0,0,0-.14-.07.25.25,0,0,1,0-.17s.08,0,.12,0-.06,0,0-.09.07.06.12,0,0,0,0,0,.06-.16.14-.14,0,0,0-.07a.37.37,0,0,0-.29-.07,2.72,2.72,0,0,1,.06-.58c-.08,0-.11-.13-.2-.16v-.07c.07,0,.12.06.19.08l.07-.07a.11.11,0,0,0-.08-.07s0,0,0,0-.13-.15-.23-.21c.08-.05.15,0,.23,0l.06.09a.07.07,0,0,0,.08,0c0-.07.06-.14.12-.18s-.06-.08,0-.14.12,0,.15-.07l.1.1c.06,0,.08-.07.12-.1s0,.06.09,0,0-.13-.06-.17,0,0-.06,0c-.17-.09-.3.07-.45.1s0-.05,0-.13-.12.14-.21.07l.3-.31c0-.08-.14,0-.15-.11l0,.12c0-.05,0-.1,0-.14H93.2s0-.08,0-.11.12,0,.13-.12,0,0,0-.09,0,0,0-.05h-.24A.66.66,0,0,1,93.3,38c0-.06-.06-.07,0-.14a.14.14,0,0,0,0-.15l0,0s0-.13-.07-.16l.09,0c0-.08-.1-.12,0-.2l-.13,0s0,0,0-.07v-.1c.09,0,.14,0,.23-.06L93.24,37c-.09.09-.18,0-.28,0S93,37,93,37s.06,0,.08,0c.05-.09.14,0,.2-.07v0a.22.22,0,0,0-.19,0c0-.07-.09-.09-.12-.14a.27.27,0,0,1,.21-.09c.07,0,.07,0,.1-.14s-.09-.09-.12-.16l0,0c0-.06-.07,0-.08-.07s.07,0,.08,0-.08-.07-.13-.1.07-.1.13-.13-.09-.09,0-.13a.14.14,0,0,1,0-.17c0,.06,0,.16.16.2,0-.07,0-.13-.09-.17v-.21c.11.08.2,0,.3,0a.11.11,0,0,1,0,0h0c.06,0,.09,0,.07.06s.09,0,.13,0a.23.23,0,0,1,0-.25.16.16,0,0,0-.06-.21s-.08.07-.1.13,0,0,0,0h0s0,0,0,0,0,0,0,0,0,0,0,0,0,0-.06,0l-.11-.06c0-.07.07-.11,0-.19l-.07,0s0,0,0-.05,0,0-.06-.07,0,.11-.09.13,0-.07,0-.1l-.06-.12h-.09s0-.08,0-.13-.19,0-.27-.08a.81.81,0,0,1,.4-.07c.06,0,0-.1.08-.09s0,0-.07-.06.13,0,.12-.14-.08,0-.11,0,0,.08,0,.09,0,0-.06,0l0,0s0,0,0,0l.17-.18c.07,0,.19.09.32,0,0-.06-.13,0-.18-.05s.1,0,.1-.06,0,.06.1,0a.06.06,0,0,0,0-.08.25.25,0,0,0-.12,0s0-.06-.09,0-.05.06-.09,0,0-.17-.18-.15c0-.06.1,0,.13,0s0-.09,0-.12.05.11.18.19,0,0,.06.06a.09.09,0,0,0,.13,0c0-.16-.22-.13-.23-.3h-.34c0-.08.11,0,.14-.07v0a.09.09,0,0,0-.15,0l-.06-.06c0-.07.08-.06.12-.1l-.09-.09c0-.16.15-.22.24-.28a.54.54,0,0,0,.16-.21c0-.06-.07,0-.08-.05s-.05-.11,0-.13v-.08l-.12.05s0,.07-.08.07.09-.11,0-.2l-.11-.07,0-.06s0,0,0-.1.15-.1.3-.13c-.11,0-.19,0-.23-.13s-.07.06-.07.1,0,0,0,0l0,0s0,0,0,0,0,0,0,0-.06.08-.12,0,0,0,0-.07L93,31.85a.53.53,0,0,1,.16-.24c0-.06,0-.07,0-.09s0,0,0-.07h.15c0-.05,0-.06,0-.11a.41.41,0,0,0,0-.11l-.09,0c0-.08.13-.07.17-.15v-.14l.07,0s0,0,0,0-.06-.1,0-.18a.37.37,0,0,0,0-.35c.11-.06.07.13.17.08v.22l-.07,0s0,0,0,0,.06.08.11.09,0-.06,0-.08.09,0,.1.11-.09,0-.13,0a.29.29,0,0,0,0,.13c0-.06.1,0,.15-.05s0,0,0,0v-.35s0-.06,0-.06-.1,0-.16,0a.22.22,0,0,0,0,.22h-.08c0-.06,0-.14,0-.21l-.08,0,0-.06c-.09,0-.17,0-.25,0l-.07-.07.13,0,0,0c0-.08,0-.17.06-.21s-.11,0-.13-.06.09,0,.08-.13h-.07s0-.05,0-.08h-.1c0-.05,0-.06,0-.1v-.11c0-.05.11,0,.13-.12s0-.16-.13-.18l0-.1a.09.09,0,0,0-.09,0s-.05.08-.11.05v-.21c.11,0,0-.25.2-.25v-.11s0,0-.06,0-.09-.13-.06-.23a.28.28,0,0,0,.25-.07s0-.07,0-.11l0,0s0-.07,0-.08l0,0s0-.06,0-.08,0,0,0,0l.1-.09s0,0,.08,0l.06-.05s-.06-.05,0-.14,0,0,.07,0,0-.18-.06-.27-.08,0-.08.05.05.08,0,.12l-.1.2h-.06c0-.14,0-.29,0-.43-.06,0-.06,0-.09,0s0,.08-.09.08,0,.06-.09,0,.12-.07.13-.15c-.19-.07-.19.2-.35.21.06-.06,0-.11,0-.16s.07-.12,0-.19.07-.11,0-.2-.1.12-.18.15,0-.2,0-.29,0,0,0,0,0,0,0,0v-.05s0,0,0,.05a.28.28,0,0,0,.14-.19l0,0,.09-.13s-.06,0-.09,0,0-.08,0-.11,0-.12,0-.18,0,0-.08,0,0,0-.07,0a0,0,0,0,1,0-.07s.06,0,.07,0v-.1c-.06,0,0,.06-.06.08a.16.16,0,0,1-.15,0s.08,0,.12,0,0,0,0-.07v-.09c-.06,0-.14,0-.22,0S93,26,93,25.9h.08c.07-.06.08-.16.15-.21l0-.05.08,0v0h-.16a.22.22,0,0,1,.12-.2s0-.09,0-.12l.06,0a2.45,2.45,0,0,0,0-.27s0,0,0,0,.07-.11.15-.07-.07.06,0,.11l.07,0c0,.07,0,.15,0,.22s0-.06.07-.06,0-.22-.05-.33l-.06-.07,0,0s0,0-.05,0a.17.17,0,0,1-.14,0s0,0,0-.06a.29.29,0,0,0-.18-.33l.1,0L93,24.41s0-.11.09-.14.11,0,.16,0-.06,0-.07,0,0-.07,0-.11l-.1-.07c0-.07.11,0,.14-.06s-.09,0-.13-.05.07,0,.11,0,0-.11,0-.17-.07,0-.11,0l0,.08H93s.07-.06,0-.11.08,0,.12,0,.06-.06.12,0l0,0s0,0,.07,0-.07-.08,0-.15,0,0,0,0-.07.06-.1,0,0,0,.09,0-.09,0-.1,0,0-.1,0-.13.15,0,.18-.1-.09,0-.11,0,0-.08,0-.1a.18.18,0,0,1,0-.14s.08-.06.09-.13l-.08-.16c0-.05.07,0,.1,0l.06-.07,0,0c0-.08.1-.07.18-.08s-.12,0-.18-.05,0,0,0-.08a.27.27,0,0,1,.18-.05v-.13h-.13v-.09s-.07.05-.11.08l-.11-.06c0-.11.07-.18.05-.3s0-.1-.07-.13l0,0s0-.08,0-.09H93v-.07c.06-.05.08,0,.14,0h0a.12.12,0,0,1,0-.09.32.32,0,0,1-.27-.21c.1,0,.17,0,.27,0l.12.14a.27.27,0,0,0,0-.23c.09-.08.14,0,.22,0s-.1-.12-.17-.16.07,0,.1,0,0-.06,0-.09l.2.1c0-.08-.07-.1-.09-.16s0-.11-.08-.13v.08s0,0-.07-.05,0,0,.08,0a1.05,1.05,0,0,0-.15-.36l-.07.06c0-.11,0-.2,0-.27-.08,0-.08-.16-.17-.18.06-.09.07-.21.16-.28s0-.07,0-.1l0,0c0-.05-.08,0-.1,0L93,19.46l.12-.14c0-.06,0-.07,0-.1s.08-.1.13-.13-.07-.1-.13-.12.09-.18.05-.25-.13-.08-.14-.16h.09l0-.09s0,0-.08,0l-.13-.14c0-.06.12,0,.14-.07s0,.07.13,0,0-.05,0-.1l-.07,0c0-.07.09-.14.08-.23s-.14,0-.15-.07,0,0,0,0h0c.09-.06.12-.18.26-.24l-.32-.1c0-.05.12,0,.17,0s.07-.15.06-.25.09-.08.18,0c-.08-.09,0-.13,0-.18s0,.06.1,0,.07-.12,0-.2l.08,0s0-.06,0-.06-.08,0-.11,0,0-.05,0-.08,0,0-.06,0-.07.06-.11,0l-.13-.13c0-.06.06-.08.08-.13s0-.15,0-.23l.11,0c-.07,0-.15,0-.18-.09a.13.13,0,0,1,.15-.07c-.06-.05-.08-.09-.07-.14s0,0-.08,0,0,0,0,.08,0,.06-.06.1h-.14l0,0a.14.14,0,0,0,0-.15.38.38,0,0,0,.32-.2c0-.08-.11,0-.14-.06s0-.09.13-.06a1.08,1.08,0,0,1,.09-.51c0-.06-.09-.11,0-.19l0,.08s0,0,0,0l.06,0c.05-.07-.11-.12,0-.2s.1,0,.15,0l0-.09.09.09a.24.24,0,0,1,.11-.15.41.41,0,0,0-.18-.12h0a.13.13,0,0,1-.07.14c0-.08,0-.11.07-.14s-.09,0-.14-.08,0,0,0-.05-.06.08-.11,0a.27.27,0,0,1,.11-.2c0-.06-.08,0-.11,0L93.21,14a.61.61,0,0,1,.09-.18s-.11,0-.12-.1.07,0,.1,0a.82.82,0,0,0,.06-.39l.06,0c.08-.1-.05-.16,0-.24-.11,0-.19.1-.29,0,.07,0,.15,0,.18-.09s-.1,0-.14,0a.12.12,0,0,1-.06-.17h.18c.05-.06,0-.13,0-.19s.12,0,.18,0,0,0,0-.07.1-.1.17-.13-.09-.08-.15-.08-.08-.1-.06-.17,0,0,0,.06,0-.05-.08,0,0,0-.08,0-.11,0-.11.1,0-.05,0-.07.08,0,.13,0-.08,0-.09-.07l.06-.06H93c.08-.08.06-.19.17-.19s0-.13.07-.16l-.09,0,0-.05s-.07,0-.11,0,0-.14-.06-.16.07,0,.12,0,0,0,0,0l0-.05-.19-.1c.09,0,.12-.08.15-.1s.08,0,.13,0,0,0,.08-.07a.11.11,0,0,1,0-.15s.06.07.11,0,0,0,0-.06-.11,0-.17,0,.08-.08.11-.13h.17a.3.3,0,0,0,.1-.17c-.06-.06-.09.07-.16,0,.09-.06,0-.17.08-.24l0,0s0,0,0,0,0,.11-.09.12,0-.07-.06-.09l-.06.05a.39.39,0,0,1-.17-.19s-.05,0-.07,0,0-.11-.08-.1l.09-.1,0-.05S93,10,93,10s0-.06,0-.08.07-.06.1-.09.11,0,.16,0v0s-.14,0-.17-.09.13,0,.19,0l.07-.08c-.07,0-.14,0-.2,0l-.06-.06.06-.12h.46c0-.1-.07-.11-.09-.17s.13-.22,0-.32a.21.21,0,0,0-.16.12V8.81L93.3,9s0,.11,0,.16l0-.1h0s0-.11,0-.17-.06-.08-.13,0,.06-.05.08-.06,0-.05,0-.08.09,0,.12-.07V8.35s-.07.07-.12,0l0,0s-.08,0-.12,0,0,0,0-.07l-.1,0,.13,0L93,8a.23.23,0,0,0,.15-.1s0,.06.09,0,0,0,0-.06l.08-.17c0-.06-.07-.07-.09-.12a.49.49,0,0,1,0-.11,0,0,0,0,1,0,0,.08.08,0,0,1-.07,0s0-.11,0-.16S93,7.3,93,7.24s0-.08,0-.11-.13-.1-.19-.19a.83.83,0,0,1,.26,0c0,.06.1.06.14.09s-.07-.1,0-.16.07.08.12,0-.12-.15-.22-.18l.08,0c0-.07-.06,0-.06,0l.17-.18s0,0,0,0A.69.69,0,0,0,93.38,6c-.12,0-.13.15-.24.13s0,0,0,0l0,0s-.09-.07,0-.14l.15-.12c0-.06-.09-.08-.06-.13a.07.07,0,0,0-.1,0L93,5.59s0,0,.08,0,.05,0,.07-.06-.07-.09-.06-.15,0,0,0,0-.09,0-.12-.11a1.57,1.57,0,0,1,.32-.47c0-.06,0-.13,0-.17l.12-.25s0,0-.08,0a.49.49,0,0,0,0-.14s0,.14-.12.14h0c0-.14.18-.24.13-.4s0-.06,0-.1,0,.06,0,.1h.05V4s.07,0,.09,0,0-.08-.07-.11,0,.05,0,.07v0a.39.39,0,0,1-.12-.25c0-.05.06,0,.09,0a.16.16,0,0,1,.07,0c.08.07.08.16.14.23s.06,0,.1-.07V3.61s-.06.08-.11.05,0-.08,0-.13l-.07,0s.07-.06.08-.1a.28.28,0,0,0-.07-.25s-.06,0-.06,0-.09,0-.13-.09,0-.17,0-.26,0,0,.07,0,0,0,.05,0a.14.14,0,0,0-.06-.13.24.24,0,0,0,.06-.19l.14-.07-.12-.07.13-.13,0,0c0-.06.12,0,.15-.11l0,0c.06-.05,0-.13,0-.21s0,.08.07.09h.08c0,.09.12.15.15.12V2s-.09,0-.09-.07.06-.05.05-.1-.05-.09-.11-.08l-.05,0-.06-.06a.54.54,0,0,0,0-.24c0,.12,0,.23-.06.31s0-.08-.11-.05,0-.1,0-.16-.11,0-.12-.11.07,0,.11,0,0-.16.06-.2c-.07-.1-.19-.06-.26-.14l.17-.09c0-.05-.1,0-.13-.05s.11,0,.16,0,0-.09,0-.13h0a.07.07,0,0,1,0,.05s-.06,0-.09-.05h0c-.13.13-.13.14-.18.14s0-.11,0-.16l.14,0,0,0a.64.64,0,0,1-.21,0c-.17-.09-.2-.16-.16-.33.13,0,.1.13.2.18.07-.23,0-.25.21-.28A.32.32,0,0,0,93,.15a.15.15,0,0,0,.14.08c-.09.06-.43,0-.31.08-.19,0-.28-.21-.11-.34l0,0h-.07L92.48,0h.08c0,.07-.24.52-.34.41.07.12-.06.25-.16.12s.1-.28.18-.32S92.06.12,92,.13s-.15-.06-.1-.06c-.15,0-.15.17-.3.27a.37.37,0,0,0,.34,0c-.13,0,0-.19.08-.18s-.08.2-.12.23c-.21.16-.23.08-.48.09a1.13,1.13,0,0,1-.28.07c.08,0,.2.12.14.23s-.08-.1-.17-.17c-.07.11.13.25.09.33s-.09,0-.22,0-.26.07-.4,0-.25-.29,0-.27c-.08-.06,0-.05,0,0L90.47.5s.18-.07.2,0-.11.27.1.3c0-.11,0-.24,0-.34s.15,0,.21,0-.31-.11-.43-.14.12.07.12.15-.18,0-.2.12-.21,0-.22,0,.19.12.22.23-.17,0-.21,0-.55.13-.62.11-.53-.22-.5-.07a.57.57,0,0,1,.13,0c-.16.34-.36-.22-.46-.26a.07.07,0,0,0,.06.09c-.06.11-.26,0-.09-.1-.18-.08-.06-.11,0-.24s0,.1-.09,0c0,.07,0,.13-.11.13a.08.08,0,0,0,.06.08c-.09,0,.18.16.09.23S88.53.52,88.5.49s.08.22,0,.32,0,0-.16,0-.56,0-.56-.34c0,0-.09.05-.07.06s-.22.16-.25,0,0-.1.11-.11-.11-.1-.17-.12a.92.92,0,0,1,0,.16c-.09,0,0-.08,0-.13s-.08.23-.12.22L87.08.3c0,.27-.27-.15-.43.06.27,0-.28.4-.17.13a1.33,1.33,0,0,1-.21.09s0,.13-.1.16-.06-.33-.24-.16,0,.28-.13.32,0-.1,0-.2-.09.24-.19.29-.17-.33-.25-.32h0c-.1-.13-.17-.08-.31-.06s0-.18,0-.19.12.1.19,0-.17-.14-.22-.13-.19.23,0,.17a.24.24,0,0,1-.24.07q.12,0,.09.15c-.07,0-.13-.11-.14-.09.26.36-.15.22-.4.18s-.54,0-.35-.35c-.06,0-.2.16-.23.12.07.13.08.31-.17.3,0,0,.07-.14,0-.17s-.14-.07-.15,0a0,0,0,0,0-.05,0c-.08,0,.1.1.05.15s-.2.06-.16.08c-.14-.06,0-.14,0-.21s-.23.12-.27.13,0-.08,0-.12-.09.09,0,.07S83,.7,83,.68a1.32,1.32,0,0,0-.08.19c0,.09.16.05,0,.16-.1-.05,0-.08-.08-.16s0,.23,0,.31-.43-.31-.5-.32-.06.09-.12.08,0,0-.06-.08a.82.82,0,0,1-.44.06c-.06,0-.27-.21-.09-.23,0-.09-.27-.13-.34-.11a.11.11,0,0,1,.07,0c-.08.07-.23.1-.29,0l.11,0c0-.11-.21-.15-.26-.12L81,.52h0s.06,0,.06,0,0,.28-.19.41C80.65.9,80.7.68,80.54.8s0,.35-.16.42c-.09-.09,0-.11,0-.22-.1,0-.09.33-.17.34S80,1.13,80,1.09A2.45,2.45,0,0,0,79.63.8c0,.2-.38-.09-.44-.1s-.14,0-.24.05a2.65,2.65,0,0,1-.63-.07c.18.06-.07,0-.06,0s-.1-.1-.11-.12.08.3,0,.21c0,.07-.16.2-.22.21s-.1,0-.14-.11.1-.24-.14-.22-.17.16-.27.18.15.08.14.17h0a0,0,0,0,1,0,0c-.12,0-.06-.07-.14-.12-.06.1.13.2.11.3s-.35,0-.39,0-.22-.08-.24-.25c-.06,0-.1.06,0,.13a.41.41,0,0,1-.3.07,1.33,1.33,0,0,1-.1-.28s.07,0,.09,0h-.12c.15.17-.14.07-.1.07s-.2.11-.12.1c-.08,0-.09.1-.18.08s.06-.09.13-.18c-.1,0-.28.17-.36.13s0-.17,0-.2-.11.09-.1-.15a.45.45,0,0,1-.27.14c-.06,0-.21-.14-.24-.14A.16.16,0,0,1,75.1,1a1,1,0,0,1-.37-.17c.07.12-.11.19-.14,0L74.46.9l.06,0s0,0-.06,0a.06.06,0,0,1,0-.07C74.24,1,74.11.8,74,.7c0,.07-.06.09-.06.15s.16,0,.19,0c-.15.27-.28-.23-.45-.11.06,0,.08,0,.06.07s-.07,0-.1,0a.1.1,0,0,1-.08.12.08.08,0,0,1,0-.14S73.4,1,73.37,1A1.11,1.11,0,0,1,73.3.82a.72.72,0,0,1-.09-.2s0,.19-.1.11c0,.08.1.18,0,.24s-.08-.09,0-.15c-.17.07-.13.46-.26.07a.26.26,0,0,1-.34.06s.16-.07.14-.14-.16-.1-.19-.08c.22.09-.1.28-.22.27s.06-.18,0-.26a1.59,1.59,0,0,1-.41.21c.08.1-.13.17-.18.07s.21-.22.23-.24-.4.29-.61.07A.37.37,0,0,1,70.7,1,.38.38,0,0,1,71,.84s-.3-.15-.29-.19.12-.14,0-.17c.1.11,0,.09-.06.14s0,.08,0,.1,0-.1-.1,0-.1.06-.12.11a.92.92,0,0,0,.28.09c-.09.13-.25.12-.4.1.07.15-.14.13-.23.12l.13-.1H70s0,0,.07,0S70,1,69.93.9c.13,0,0-.05.08-.11S69.9.9,69.82.9s-.08,0-.14-.11-.21.14-.24.17a.44.44,0,0,0,.4,0c0,.16-.23.37-.4.25s0-.26-.18-.34-.05.07-.1.05c0,.17.16,0,0,.29s-.24.23-.28,0c0,0,.26-.32-.09-.19-.11.05-.11.28-.28.25s.07-.09.11-.19c-.11,0-.26.22-.34.19s-.06-.34,0-.36S68.14,1,68,1s0,0,.06,0-.19-.23-.22-.28c.15,0,0-.16.05-.13S68,.47,68,.45h-.17l.07-.09a.36.36,0,0,1-.17.07.31.31,0,0,0,.14.11c-.08,0-.15,0-.22.08s0,0,0,0h0a.34.34,0,0,0-.12.06c.19.12,0,.08,0,.2s.1.09,0,.18a.2.2,0,0,1-.22,0c0-.11.2-.14,0-.21S67.08,1,67,.92s.07-.07.12-.11-.22.09-.27,0A.15.15,0,0,1,66.91.7s0,0,0,0-.12,0,0-.09-.22.27-.14,0c-.08.05-.09.11-.2.09s0,0,0-.11-.06,0-.07-.09-.15.19-.27.15,0-.12.1-.12c-.1,0-.25.14-.37.12S66,.59,66,.56s-.11.06-.18.1,0-.07-.13,0c.13,0,.17,0,.09.06a.19.19,0,0,1-.1.05s-.17,0-.12-.09-.12.12-.19.14-.12,0-.19,0a2.09,2.09,0,0,1-.59-.17c0,.2-.13.07-.27.07s.15.07.17.1-.34.17-.41.19a.52.52,0,0,1-.21,0s-.13-.14-.15-.14h0c0,.17,0,.05-.17,0,.11.21.15.24,0,.29,0,0-.18,0-.17,0a1.5,1.5,0,0,1-.2,0c-.11,0-.24-.1-.25-.21S63,.8,63,.75s-.11-.08-.07-.11-.23.18-.31,0c0,0,.07,0,.08,0l-.25,0c0-.05.13-.14.12-.21a.08.08,0,0,1-.08,0s0,.06,0,0c0,.13-.18.08-.26,0,0,.09,0,.18,0,.24s.22.06.19.19-.08-.06-.18-.1.21.25.17.31-.42,0-.49,0S61.52,1,61.78.88c-.12-.07,0-.13,0-.24-.15.07,0,.29-.15.3s-.16-.2-.3-.19-.31.47-.66.2a.14.14,0,0,1,.16-.09.16.16,0,0,0,0-.11c-.08.08-.06.11-.21.12,0-.1,0-.14.14-.14s0-.07-.08-.06,0-.07,0-.1-.05,0-.14,0c.16.1,0,0-.05,0s-.17.12-.21.11.2.14.29.15c-.08.08-.27.14-.36.05s0-.06,0-.15.08-.34-.06-.36c0,0-.07.17-.1.19a.17.17,0,0,0,.17,0c-.07.29-.31-.06-.23-.12l-.15.11c.13,0,.28.2.06.18s-.1-.1-.16-.15c0,.28-.35-.1-.28-.09h-.07l0,0s.07.11,0,.1a.18.18,0,0,1-.09-.12.17.17,0,0,0-.13.15c0,.1.22.34-.08.24,0,0-.11-.23-.1-.14,0-.11.06-.09.09-.2-.14,0-.13.2-.24.24.23.17-.11.15,0,0-.08,0-.17-.3-.32-.33s-.4.22-.37,0C58,.58,58,.8,58,.87s-.5,0-.28-.1h0c-.05,0,0,0,0,0s0-.1-.06-.11L57.6.74s.12.05.09.09a.3.3,0,0,1-.3.12c0-.14.21-.19,0-.24s-.08,0-.16.07-.47.31-.28,0c-.11,0,0-.09,0-.13a.33.33,0,0,0-.25.06c-.15.12-.06.07,0,.17s-.2,0-.23-.05.13-.13.14-.14-.3.24-.38.14,0-.13,0-.2c0,.11-.1,0-.14,0s-.36,0-.42-.07,0-.12,0-.12,0,0,0,0h0l0-.06s-.12.09,0,.16c-.08,0-.26,0-.26-.11-.09.11-.17,0-.3,0s.18.37-.07.11c0,0,.13.17.11.22s-.09,0-.14,0a1,1,0,0,1-.36,0,.09.09,0,0,1,0,.12.09.09,0,0,1-.12-.05c0,.06.15.23.13.27l-.27,0c-.27,0-.45.09-.56-.19.13,0,.19.08.31.05,0-.15-.17-.24-.1-.41.07,0,.09.08.15,0C54,.65,54.06.56,54,.51s0,.07-.09.09,0,.07,0,.11-.12,0-.08-.12c-.19,0-.33.15-.12.28-.26.07-.27,0-.4-.16,0,.05,0,.05-.06,0s0,0,0,0h0c-.06,0-.14-.15,0-.17a.15.15,0,0,1,.05.14s.09,0,.1-.08,0-.09-.07-.16h0s0,0,0,0l0-.06a.19.19,0,0,1,0,.09l.06,0s0,.06,0,.06,0,0,0-.05-.28,0-.34-.06a.32.32,0,0,1-.17,0,1.13,1.13,0,0,1-.22-.11c-.22.2.28.35.26.5s-.1-.07-.21-.11c0,.11.25.25.21.33a2.26,2.26,0,0,0-.45.08c-.23,0-.29,0-.37-.21.13,0,.19.06.31,0,0-.08-.09-.24-.14-.26s-.25.08-.34,0a.15.15,0,0,0,.11.12.37.37,0,0,1-.36-.11c-.06.25,0,.13-.17.15a.66.66,0,0,1-.41-.14c.09-.07.35-.1.06-.21s-.28,0-.43,0h0l-.08,0s-.19-.2-.24-.18,0,.09-.06.11-.18.23-.34.32,0-.23-.1-.25c0,.22-.06.21-.26.22.11.32-.25.57-.36.15,0,.2-.23-.2-.25-.24-.12-.3,0-.21.15-.26C48.88.29,48.9.29,48.9.2s-.14.19-.22.22-.13,0,0,0c0,0,0,0-.08,0,0,.13-.08,0-.16.06s.18.1.16.19a.08.08,0,0,1-.12-.06c0,.08.21.13.16.22s-.46,0-.51-.12.1.05.18,0,0-.05,0-.08,0,0,0,0,0-.22-.05-.21c0,.38-.49.24-.45,0L47.68.5s0,0,0-.07-.1,0-.1,0l-.12,0-.17,0c-.12-.06,0-.14-.13-.22S47,.26,47,.08c0,.12.09,0,0,0a.3.3,0,0,0-.21,0l-.19.21-.07,0a.17.17,0,0,1,0,.14s-.29-.06-.24,0,0-.1-.12-.11-.16.1-.35,0a.47.47,0,0,1,0,.17c-.05,0-.07-.1-.12-.09s.09.2.05.23L45.41.43a.08.08,0,0,0-.07,0h0l0,0c-.07-.06-.4.08-.27-.12-.09,0-.14,0-.21.06s.35.08.21.16S45,.41,44.89.4s.28.19.26.27-.27.08-.23.07l-.19.07a.37.37,0,0,1-.23,0c-.16-.07-.1-.13,0-.21-.34-.13,0,.09-.22.09,0,0-.15,0-.06-.09-.12,0-.13.2-.22.2A2.25,2.25,0,0,1,43.86.6L43.78.5s-.16-.28-.27-.19c.05,0-.06.18-.09.2s0-.15,0-.21c-.07.1-.15-.07-.13-.13s-.17.1-.16.14a.15.15,0,0,1,.16.12c-.07.06-.12,0-.16,0,0,.12.2.15.2.25,0-.05-.37.13-.41.15a.28.28,0,0,1-.38-.15c.12-.07.17,0,.29,0a.82.82,0,0,1-.13-.31s.17-.16,0-.16-.07.09-.13.15h0s0,0,0,0-.1,0-.24,0c0,0,.09.17.17.12-.14.11-.5-.08-.36-.13-.08,0-.1,0,0-.1A.4.4,0,0,1,41.76.2c0,.11-.19,0-.28,0,0,.15,0,.05-.06.11a.27.27,0,0,0,.07-.08s-.28.18-.2.16c-.12,0-.27,0-.32-.09,0,0,0,.18-.07,0a1,1,0,0,1,0,.17.13.13,0,0,1-.14-.06c0,.29-.14,0-.15,0s-.06.24-.15.28-.1-.23-.09-.19S40.27.4,40.22.38c0,.13-.43.16-.54.1s.09-.13.08,0c0-.08.23-.19.09-.26s-.09,0-.17.07-.15.34-.32.16c0,0,0,.22,0,.23S39,.49,39,.49s-.09.05-.17,0-.06-.16-.06-.16.12,0,.11,0-.28.08-.31.11-.09.09-.14.19-.51-.11-.51-.26.09.09.18.1a.58.58,0,0,1,0-.1h0c0-.09.05-.2,0-.23s-.13.11-.17.09S37.86,0,37.84,0a.29.29,0,0,0,0,.24s-.06,0,0,0,0,0-.1,0,0,0-.09,0v0c0,.07-.07.09-.13.07s.05-.16.1-.17,0,0,0,0,0-.08,0,0,0,0,0,0h0l0,0c.12-.15-.32-.08-.34-.08s.08.09.08.14a.18.18,0,0,1-.16,0h0s0,0,0,0h0s.05-.06,0-.09a.22.22,0,0,1-.1,0c0,.08,0,.12,0,0h0v0l-.32,0s0,0,0,0-.14.14-.11.21-.26,0-.22.08.08.06-.08.1a.54.54,0,0,1-.28,0C36,.4,36,.1,35.85.08c0,.19-.11.13-.25.17s0,.09,0,.11-.07,0-.16.06-.07,0,0-.09,0,.17,0,.19S35.13.45,35.1.44s0,0-.1-.13-.1-.16-.15-.14c.15.16-.3.61-.43.24.08,0,0,0,.12,0s-.07-.12,0-.15a1.41,1.41,0,0,1-.22-.06.16.16,0,0,0,.07.14c-.11,0,0,.08,0,.11s-.26,0-.24-.16.08-.08.13-.13h0a.15.15,0,0,0,0-.09c-.32,0-.42.21-.68-.08,0,.06,0,.11,0,.17l-.05,0a.31.31,0,0,1,0,.1s-.11-.06-.16,0l-.12,0c-.16.08,0,.2-.31.15,0-.13.16-.12.21-.23s-.07,0-.11.05S32.88.17,33,.28l-.15.11c0-.08,0-.44-.17-.28s-.06.38.16.28c-.16.64-.66-.2-.79-.07.09,0,.17.23.13.29s-.15,0-.23,0,0-.13-.14,0,0,.09-.05.15.11.26,0,.33,0-.11-.08-.21c-.09.06,0,.34-.08.37s-.23-.17-.19-.13S31.31,1,31.24.89s-.13-.1-.18-.15,0,0,0,0h0A.2.2,0,0,1,31,.48l.09.2c0-.25.21,0,.25.08a.31.31,0,0,1,.16-.25c.09,0,.09.05.2,0-.05-.26-.23-.16-.47-.13-.07,0-.06.1-.16,0S31,.22,31,.14c-.18.12,0,.22,0,.31s-.12-.11-.18-.09.2.14,0,.26-.21.18-.21,0a.14.14,0,0,1-.17,0c.08.08-.06.08-.1.12S30,.44,30,.41a.28.28,0,0,1-.15.08s-.07,0-.09,0a1.28,1.28,0,0,1,.07.16c0,.22-.15.09-.12,0-.16.1.17.62-.21.23-.05.16-.2-.06-.27-.07s-.15.07-.18.06S29,.76,29,.74s0-.31-.22-.08c-.09.09,0,.32-.19.35-.08-.12,0-.12,0-.24s-.14.28-.23.29,0,0-.08-.08-.15-.22-.15-.19,0,.11-.1.12,0-.07.05-.16-.22.22-.24.2a2.76,2.76,0,0,1-.08-.27c-.07.11,0-.06,0-.09L27.7.67c-.11,0,0,.12,0,.16S27.58.56,27.5.52s0,.22,0,.24-.3-.15-.3-.13c-.1.47-.18,0-.3,0,.08,0-.08.13-.07,0-.13.07,0,.32-.21.34s0-.1,0-.21-.17.29-.25.28-.12-.25-.15-.28A.75.75,0,0,0,26,.59s-.06.11-.12.12a.08.08,0,0,1-.09-.06c0-.07-.07-.07-.16,0s-.16-.07-.21-.06-.08.1-.12.07a.15.15,0,0,1,.09.06,0,0,0,0,1-.08,0c0,.07-.34.18-.4.19a.39.39,0,0,1-.26,0c-.12-.06-.06-.21-.16-.26s0,0,0,0-.2,0-.25,0,.12.21,0,.3,0-.09-.07-.17,0,.24,0,.31S23.63.8,23.7.63a.19.19,0,0,1-.17.1c-.06-.25-.08-.09-.29,0-.23-.19,0,0-.2.1a.07.07,0,0,1,0-.11C23,.75,23,.86,23,.89s-.2-.21-.28-.15l.09-.12-.11,0a.24.24,0,0,1,.06-.09.3.3,0,0,0-.23,0,.2.2,0,0,0,.17.09.33.33,0,0,1-.16,0c0,.09.2.09.15.21S22.59.86,22.5.81c0,.11.15.19.14.29s-.94,0-.69-.28a.74.74,0,0,0,.28.14c-.06-.14-.09-.24.06-.33a.13.13,0,0,1-.08-.1c0,.11-.51,0-.24.25-.13,0-.16-.1-.24-.1s-.24.07-.23.07-.29.19-.39,0l.07,0s.07-.09.08,0c0-.16,0,0,.14-.07,0-.06-.09-.21-.2-.19a.56.56,0,0,1-.08.15S21,.67,21,.72s0,.07,0,.1c-.24.31-.07-.11-.41,0,.06-.09,0-.15.13-.23l-.12,0s0-.08,0-.1-.08.13-.2.07c.09,0,.05-.06,0,0a.35.35,0,0,0-.19.12.36.36,0,0,0,.32,0c0,.09-.13.28-.25.25s-.08-.17-.13-.24-.18.09-.22.17c.2-.06-.08.27-.2.14s0-.27,0-.32-.24.08-.31.07-.05,0-.08,0a0,0,0,0,1,0,0h0L19.25.51h-.12l0,.06s0,0,0-.06h0c-.05,0-.13.05-.17.05L18.81.51a1,1,0,0,0-.43.07c0,.07.06.23,0,.27s0-.12-.08-.23c-.17.11,0,.67-.26.23-.11.21-.19-.12-.26-.11s-.06.18-.19.15,0-.11.08-.12-.21.14-.24.12,0-.31,0-.34c-.17,0-.24.2-.41.21a.76.76,0,0,1,0-.15c-.07,0-.24,0-.12-.11-.15,0-.09,0-.1.09s-.08.19-.21.18,0-.12.1-.19c-.13,0-.42.42-.31,0-.08.06-.28,0-.38,0s.06,0,.08,0-.16.09-.22.14l0,0s.1.06.06.11a.1.1,0,0,1-.08-.07s0,.05,0,.1a1,1,0,0,1-.52-.14s.13-.06.13-.08-.12,0-.19-.06.07,0,0,0c-.12.13-.09,0-.22,0s0,.2-.09.22,0-.18,0-.2-.09.24-.18.24,0-.15-.07-.18-.18,0-.2,0,.15-.07.12-.11-.11,0-.09-.12c-.21.19-.08-.14,0-.05-.07-.23-.29.11-.32.16a.45.45,0,0,0,.23,0,.13.13,0,0,1-.11.14.1.1,0,0,1,.09.08c-.11,0-.23-.06-.29-.13,0,.18-.14,0-.19,0s0,.12-.1.17c.1-.06-.23,0-.2,0s-.12-.05-.07-.14c-.2.1,0,.4-.25.18a.28.28,0,0,1,0-.13.07.07,0,0,1-.11,0A2,2,0,0,1,13,.44s-.08.12-.1.16-.08,0-.1.05.06.08,0,.11a.06.06,0,0,1,0-.08c-.05,0,0,.11,0,.16s-.27-.11-.25-.21.08,0,.08.06c0-.11,0-.07.12-.12s-.31-.11-.22.12c-.22.08-.08-.11-.06-.17s-.23.22-.27.18a.26.26,0,0,1,0-.15c-.11,0-.23.07-.28,0s-.3.15-.31.15c-.24,0-.11-.16-.1-.1.08-.18-.14-.06-.2-.1.1.09,0,.14,0,.12s0,0,0,0l0,0a.09.09,0,0,1-.06,0V.67a.11.11,0,0,1,0-.06c0,.14-.2.11-.19,0-.24.17-.19,0-.21-.13,0,.06-.1.11-.13.16a.41.41,0,0,1-.54.21c.07-.12.18,0,.25-.15s-.23,0-.22-.09.06.13-.14.19c0-.07,0-.45.11-.38,0-.2-.25.13-.17.07a1.08,1.08,0,0,1-.28.21.39.39,0,0,0,.34.11C10,.88,9.77,1,9.67.94s0-.2,0-.3A.2.2,0,0,1,9.37.57a.41.41,0,0,1,.16,0c0-.14-.06-.09,0-.21-.1-.07-.19,0-.3,0,0,.14.14.09.21.13C9.25.69,9.09.31,9.21.3c-.06,0-.12,0-.18,0s.08.31-.09.31S9,.48,8.86.47s0,.16-.16.15,0-.09.05-.11-.11.12-.17.12,0-.12,0-.14a.23.23,0,0,1-.12.24C8.27.78,8.3.61,8.22.6S8,.76,7.9.74,7.84.61,7.82.61s-.05.06-.14.12-.25.18-.45,0A.51.51,0,0,1,7.46.64S7.34.52,7.3.5s0,.07-.07.06c.21,0,0,.13-.09.14a.1.1,0,0,1,0-.12c-.09,0,0-.06,0-.09l0,0,0,0h0c.06-.07.2-.09.21-.18-.21,0-.57.38-.21.39a.28.28,0,0,1-.26.08S6.6.78,6.37.7h0C6.2.64,6.08.56,6.12.47s-.41.13-.55,0c0-.07.23-.1.22-.17S5.58.15,5.5.15c-.43,0,0,.14,0,.28A.08.08,0,0,1,5.36.37c0,.08.13.12.13.19S5.06.6,5,.47s.1.05.17,0,0-.11,0-.24C5.09.17,4.75.26,5,.41c-.09,0-.1.07-.21.09.07-.11.13-.06,0-.17,0,.09-.06.09-.09.17s.06.09,0,.12-.13.3-.34.23c0-.07.16-.17.13-.23-.22.24-.09,0-.22,0S4,.74,3.92.7,4,.64,4.09.55C4,.47,3.87.7,3.75.66s.07-.18,0-.24S3.68.31,3.61.29h0l0,0S3.48.1,3.45.07c-.05.14-.06.25-.3.2,0,0,.26-.11.23-.16L3.21.2c-.12.07-.13,0,0-.06S3,.27,3,.23s0-.05,0-.08C3,.41,2.84.36,2.71.23s0-.13,0-.16S2.54,0,2.44,0l0,0H2.28c.08.06.19,0,.07.12s.12,0,.14,0c0,.21,0,.23-.09.35s-.09,0-.09.06a.11.11,0,0,1,0,.11s-.06,0-.07,0,0,.14,0,.16a.17.17,0,0,1-.13-.1c0,.07,0,.1-.07.1A.91.91,0,0,0,1.94.52c-.07,0,0,.3,0,.32S1.75.69,1.76.69s-.09,0-.13,0S1.45.61,1.42.45c-.18.08-.18.37-.29.39s0-.1,0-.21S1,.93.92.93.85.72.85.74C.79,1,.73.69.73.61s0,.11,0,.15l0,0C.74.88.62.91.79,1c0,.05-.23.13-.24.15s0,.16.13.07c.07.12.06.56-.09.33-.18,0,0,.41.05.46-.33.09-.28.42-.37.63.12.1.3-.26.33-.33s0-.17.06-.2S.84,2.12.91,2c.06.07,0,.16,0,.22s.14,0,.12.09-.06,0-.12.07-.23.16-.24.31.21.2.12.07c-.1.08-.11-.09,0-.11s.18.23.13.36a.31.31,0,0,1-.16.19c-.07,0,0-.16,0-.17s-.29.38-.16.49.1-.21.17-.31.06.14.17,0v.25s.06,0,0,0-.06,0-.08,0-.15.06-.18.1c-.19.2,0,.26,0,.37,0-.05.07-.2,0-.14s0-.11.09-.11,0,.38-.05.45A.39.39,0,0,0,.55,4.1c0,.07,0,.25-.1.25s0-.11,0-.16l.11-.13a.76.76,0,0,1,0-.15.81.81,0,0,0,0-.17c0-.14.14,0,0-.18-.2.15-.15.32-.15.57a1.5,1.5,0,0,1,0,.3c0,.05-.12.05-.13.13.13-.08,0,.08.12.09a.86.86,0,0,0,.16-.3.56.56,0,0,1,.17.22c0,.13-.05.08-.14.17l-.12,0c0,.07,0,.09.07.08s.07.07.07.1,0,0,.07,0S.61,5,.6,5,.67,5,.69,5,.55,5.19.55,5a3.09,3.09,0,0,0-.09.31c.07.09.06.15,0,.18l-.06.09c0,.1-.13.34-.08.43.08-.07.07-.24.14,0,.07-.14.12-.61.35-.51,0,0,.14.33.16.27s-.07,0-.14.07.06.08,0,.11,0,0,0-.1a.27.27,0,0,0-.12.05c-.15.17-.07.54.12.34,0,0-.22-.27,0-.18s.09.26.07.36-.06,0-.08.1.07.1,0,.15-.06,0-.12,0,.18,0-.06-.12c.23-.14,0-.07-.07-.14,0,.21-.09.22,0,.36s.14.15.27.05c0,.07,0,.17,0,.24S1,7,1,7.08s-.11,0-.12.06-.21.13-.25.25,0,.35.2.18L.69,7.52c0-.08.09-.16.17-.13s0,.16,0,.25S.77,7.87.74,8c0,0,0,0,.07,0a1.64,1.64,0,0,1,0,.23l0,.1a.3.3,0,0,1,.14.11.29.29,0,0,1-.16,0,.12.12,0,0,0,0,.08.54.54,0,0,0-.24.3.26.26,0,0,0,.21,0s-.15,0-.09-.09l.11-.09.11.14c-.17.13,0,.34-.27.31A.11.11,0,0,1,.59,9,.12.12,0,0,0,.46,9c.11.11-.05.22,0,.33.17-.07,0-.21.26-.19a1.19,1.19,0,0,0,0,.24s0-.06-.07,0a2.16,2.16,0,0,0-.21.29.11.11,0,0,0,.14,0c.05-.13-.1-.09.11-.13-.06.11,0,.26-.12.34a.24.24,0,0,0-.06-.09c-.17.24.12.3,0,.55a1.09,1.09,0,0,0-.21.49.4.4,0,0,0,0,.19c0,.08.12.19.11.27a.27.27,0,0,1-.09.1.22.22,0,0,1,.08.2l.1,0c0,.15-.24.23-.23.44s.21-.18.22-.21.27-.2.16-.06l.21.15c-.09,0-.26,0-.31.12s0,.16.08.21c0-.11-.07,0-.08-.08a.11.11,0,0,1,.14-.06c0,.12.05.24-.06.33s-.05,0,0-.08l-.16.07.21.31s-.09,0-.11,0,0,.11-.12.13a.13.13,0,0,1,0-.06s-.06,0-.09,0,.1.15.11.22-.11.19,0,.31c.06,0,0-.13.07-.14s.11,0,.13-.06c.06.11,0,.28,0,.35-.13,0-.05-.08-.19,0s0,.26.07.15a.11.11,0,0,0-.08,0c0-.17.22-.17.25,0S.59,13.7.59,14c-.06,0,0-.08,0-.09s-.06.1,0,.22-.19,0-.19.25.12.21.12.44-.07.24.08.36.09,0,.2.14c.13-.13,0,.06.13.06-.07.11-.2.09-.28.14s-.11,0-.16.21c0,0,0,0,.07.06s0,0,0,0,0-.13.13-.08c-.09.15,0,.37-.18.49,0,0,0-.25,0-.25a.1.1,0,0,0-.1,0c.11.08.06.54.31.22,0,0,.1.36.12.27,0,.13,0,0-.07.05s-.35.24,0,.14a3.15,3.15,0,0,1,0,.5c.11,0,.08.05.08.2.2,0,.07,0,.15.14l-.14,0s0,.07,0,.09,0,0,0-.09l-.07.06c-.15.11-.11.22-.21.39a.37.37,0,0,0,.18,0c-.06.07,0,.13.11.05s-.17-.05-.14-.12,0-.2.17-.1,0,.15,0,.27a.48.48,0,0,1-.11.28c-.06.09-.12-.06-.12.14,0,.4,0,0,.13.16A1.7,1.7,0,0,1,1,19s0,0-.09,0,0,0,0,0,0-.05,0,0-.15,0-.18.17c.14.18.25-.05.09.31.1.07.15-.05.15.1l-.22,0c-.06.14.08.42-.22.47.11.13-.09.49-.13.63,0-.13.15.06.17.07.07-.18,0-.29.11-.45A2.36,2.36,0,0,1,.77,20l0-.12a.48.48,0,0,0,.2-.07,2.54,2.54,0,0,1,.1.36c-.15-.14-.34.28-.41.39.45.06,0,0,.21-.14s0,.84-.07.33c-.11-.08-.18.23-.16.29s.16.27.24.2,0,.29.06.22c0,.09,0,0-.1.08s-.42.42-.1.35c0,0-.08-.21,0-.15s0,.11,0,.25L1,21.94a1.09,1.09,0,0,1-.07.35c-.1-.06.08-.19-.13-.15s0,.11-.05.16a1.21,1.21,0,0,0-.19.5c0,.2,0,.49,0,.65s-.18.15,0,.46c0-.13.07-.27.11-.39s.08,0,.09-.15-.06-.19-.05-.31a1.93,1.93,0,0,1,.19-.46s0,0,0-.1.17-.06.24-.09a.81.81,0,0,1,0,.22.19.19,0,0,1,.14.09s-.19.11-.23.15a.51.51,0,0,0-.2.41s.24,0,.22,0-.19-.39.1-.23S1,23.52,1,23.6c-.08-.07.09-.11,0-.17-.17.14-.14.38.08.18.14.15-.16.16-.17.23s.19.05.13.23C.84,24,.79,23.89.64,24s.06.11,0,.11c.18,0,.15-.14.19.13l-.05.12.06.09s0,.18,0,.19.09,0,.07.07-.07,0-.07.05-.15.07-.13.2.14,0,.15.07,0,.11,0,.16a1.13,1.13,0,0,1,0,.44c-.09,0-.09-.24-.06-.29-.14-.1-.2,0-.19.15a.94.94,0,0,0,.1.1c0,.08,0,.07.13.14s0,.11.08.09a.07.07,0,0,1,.11,0c-.12.21.13.2.11.29s-.1,0-.13,0-.09.11-.06.09-.26.11-.24.28.14.2.24.1c-.1,0-.26-.11-.06-.2s.12.14.11.25S1,27,.76,27c0-.05.09-.11,0-.14a.22.22,0,0,0-.21.07.13.13,0,0,1,.1.21c.2.07,0,.13,0,.09s.14.08.14.1-.07.15-.08.26-.07.5-.28.17A.37.37,0,0,0,.37,28l-.22.22c.19.09.05,0,.18-.08a.31.31,0,0,1,0,.1s0-.24,0-.28h0c.06-.09.09-.07.13-.07S.5,28,.45,28s0,.14.18.1,0,.16,0,.2.12,0,.1.13-.11,0-.13,0-.12.16,0,.27.12,0,.14,0-.06.2-.05.3-.09-.19,0-.2-.12.35-.13.44-.09,0-.17.11.09,0,.07,0-.08.26-.06.14c0,.07-.07.08-.07.19s.06.1.16.25c.09-.05,0-.17,0-.22s.1-.17.14-.27.05-.29.05-.3.17,0,.22-.07c0,.06,0,.17,0,.23s.14,0,.14.05-.07.09-.13.13H1a.15.15,0,0,1-.06.09.11.11,0,0,1,0-.08l0,0c-.09.07-.23.18-.2.32a.14.14,0,0,0,.24.08c-.05-.06-.33-.15,0-.17s.1,0,.12.16,0,.39-.23.39l.09-.19s-.08,0-.11,0-.13,0-.12.18a1.07,1.07,0,0,0,.1.22c.22-.11.13.08.23.19-.06.07-.14,0-.08.16-.09-.09-.2-.06-.21.11.19,0,.23,0,.15.17s-.29.22-.08.46c-.42.14-.36.88-.36,1.24.17,0,.11-.15.23-.19a.54.54,0,0,0,.08.19c0,.12,0,.07-.08.17s-.11,0-.11.14c0-.06.11.17.09.15s0-.07.06-.09c.19.18-.05.09-.09.15a2.39,2.39,0,0,0-.15.39s-.1,0-.13.15,0,.22.09.22c0-.16.19-.46.34-.45s0,0,.08.11,0,.13.05.13.08,0,.06.06-.12,0-.18.1-.17.07-.14.19H.66c.09,0,.13,0,.13.09a.41.41,0,0,0,0,.19l.16-.17c.07.11-.08.15-.1.21s-.07,0-.06,0,.08.08,0,.15-.13-.07-.17,0a.17.17,0,0,1,0,.18c.12,0,.2,0,.31-.06,0,.1-.1.2,0,.32s0-.06.07,0a.41.41,0,0,0,0,.11c-.07,0-.07-.06-.13,0l0,0c.05.05.05.08,0,.11s0,0,0-.09,0,.07,0,.08-.12,0-.16.06-.09.25-.12.3l.21.07s0-.17,0-.11-.09-.23.13-.14,0,.7-.16.74c-.11-.12,0-.25,0-.37s-.2.13-.25.15a.24.24,0,0,1,0,.32c.2,0,.29,0,.28.25s-.12,0-.06,0c-.12,0-.37.34-.09.34,0,0-.09-.23.06-.13s0,.13,0,.18c-.06.26-.1.06-.11.06s-.26.13-.27.12a1.11,1.11,0,0,1,0,.33l.05.14a.08.08,0,0,1-.07,0c0,.13-.12.24-.11.38s.12.24.11.38c0-.08,0-.14,0-.22a1.18,1.18,0,0,1,0-.31c0-.07,0-.18.1-.22s.1,0,.15-.09c0,0,0,.23,0,.24s.06,0,.05.07L.59,38c-.09.12-.19.1-.11.28s.12,0,.11-.07,0,0-.07,0,.13-.09.17-.08a1,1,0,0,1,0,.32c-.09.09-.08,0-.12-.07s-.07.06-.1,0a.74.74,0,0,0,0,.14.39.39,0,0,0-.14.05c.23.21-.29.9,0,1a2.37,2.37,0,0,0,.13-.36s0-.22.08-.25.13,0,.15-.09.11.24.12.21c0,.14-.06,0-.12.12l.09.06c-.1.07-.16,0-.23.11s0,.29.13.19c0,0-.11-.06-.09-.08a.5.5,0,0,0,.12-.13c.05.08.11.39,0,.46s-.08-.06-.1,0-.07,0-.11,0a.41.41,0,0,1-.08.13,2.22,2.22,0,0,0,.23.22c0,.19-.14,0-.29.15a1.45,1.45,0,0,0-.18.35c0,.12,0,.12,0,.2a.19.19,0,0,1,0,.09s0,0-.06.1a.57.57,0,0,0,.06.32c0-.1.1-.21,0-.28h0v0c.16.07.09-.1.15-.2a1.23,1.23,0,0,1,.17-.32c.07-.08.11-.31.29-.18s0,.12,0,.16.15,0,.09.11-.11,0-.14.07-.23,0-.24.17L.48,41s-.06-.16,0-.17.15,0,.18.12a1.52,1.52,0,0,0-.06.2s.07.07.07.09-.07-.08-.1,0a.53.53,0,0,0,0,.14,1,1,0,0,0-.2.44,2.9,2.9,0,0,1-.08.56c0,.12-.27.38,0,.45,0-.15.12-.51.31-.46v-.15c.15.06.15,0,.14.18a.35.35,0,0,0-.14,0c0,.17.11.13.12.25s-.12,0-.12,0a.85.85,0,0,0,.23.29c0,.18-.14.23-.15.4l.07.27-.13.07a.31.31,0,0,0-.11.09V44c0,.09-.07,0-.1.15s0,.41,0,.66S.39,45,.25,45l-.08.09s-.05.34-.05.36.3-.38.28-.51a1.62,1.62,0,0,1,.2,0c0,.15.14.15.14.23s-.05,0-.14.1-.11,0-.18.09,0,.1.06.24c.08-.1-.06-.1.09-.2s-.12.45.14.08c.06.1-.28.71,0,.78a.57.57,0,0,0-.25.32s-.14.48,0,.42.16-.33.2-.41.09-.22.14-.25.1.07.13,0c.07.07,0,.18.12.27s-.24.1-.29.18c-.15.23,0,.11,0,.25.05,0,0-.09,0-.13.2-.15.19,0,.12.19s0,.11-.06.14-.12,0-.05-.07c-.13-.09-.27.54.12.39a.15.15,0,0,1,0,.18c.2.07,0,.08,0,.12h0s0,0,0,0a.06.06,0,0,1,0,0h0c0,.06-.21.13-.2.23s.11.06.12.12,0-.24.07-.18,0,.1,0,.19v.13a.07.07,0,0,1-.1,0c-.08.11-.06.07,0,.25s0,.26-.15.42c.1,0,0,.28,0,.43v.41s0,.12,0,.14-.08.1-.12.19-.13.31,0,.43a2.57,2.57,0,0,1,.27-.49C.64,50,.63,50,.66,50s0,.06,0,.12.07-.11.1-.16.12.22.12.24.09.08,0,.2-.2.1-.25.22.06.12,0,.25c.14-.14,0-.11,0-.17s.16-.12.2,0-.23.73-.17.4a.08.08,0,0,0-.08,0s0,.1-.05.1,0-.1.05-.1a.42.42,0,0,1,.09-.14c-.4-.18-.13.64.13.39l0,.24a.2.2,0,0,1,.13.09c-.09.1-.26.05-.34.22-.15.33.18.24.13.17-.18.1,0-.24.1-.1s-.11.26,0,.38c-.15.07,0,.17-.13.27-.13-.17,0,0-.11-.23a.24.24,0,0,0,.09-.06c-.19-.07-.2,0-.19.17s.13.18.32.23c0,0,0,.24,0,.19s.07,0,0,.09A.12.12,0,0,1,.9,53s-.6.48-.12.39c0,0-.16-.33.08-.16s-.08.56-.14.63,0-.18,0-.2a.08.08,0,0,0,0-.08L.58,53.5a.27.27,0,0,0,0,.2s.11,0,0,.13c.15.15.3.17.32.39,0,0,.07.28-.11.19s0-.1,0-.09a.33.33,0,0,0-.22.24c-.06.27,0,0,.07.22.06-.09-.07-.28.1-.25s.07.12.05.24,0,.18-.19.2c.11-.12,0-.11-.08,0a1.63,1.63,0,0,0,0,.31c.13.06.09-.15.15-.19a.6.6,0,0,0,.19,0c0,.06,0,.1,0,.14s.12.09.13.13-.2.1-.23.13-.09.22-.18.27a.28.28,0,0,0,.22,0c0-.09-.09,0-.09-.12.23-.18.2.25.14.34s-.24.11-.3.19.08.16.09.16,0-.16.09-.21.15,0,.19-.09,0,.13,0,.17a.24.24,0,0,1,.14.12s-.15,0-.18.08l-.15.27s.16,0,.18,0-.08-.12-.08-.13a.64.64,0,0,1,.2,0c-.06.16,0,.31-.14.42-.09-.26-.14,0-.24,0-.17-.16.13-.39,0-.58s-.09.19-.1.26-.11.31,0,.38a.27.27,0,0,0-.11.44,3,3,0,0,0,.19-.45c.06.09.1.06.13-.07l.14.26c0,.16,0,0-.13.14s-.21.16-.19.42c0-.08.06-.23.15-.24s.07.11.07.17c0,.25-.11.29-.27.12,0,.21-.36.39-.18.58s.13-.13.16-.18,0-.18.15-.13L.69,58v.28l.15.05c0,.1-.13.07-.12.17a.41.41,0,0,1,0-.09c0,.12-.35.25-.2.45.08,0,.13-.38.29-.15a.9.9,0,0,1,0,.22c-.08.43-.12-.07-.33.1.07.12-.1.35-.12.5s-.11.59,0,.45c.06,0,0,.09.08.09a2.35,2.35,0,0,1,0-.46c0-.09,0-.22,0-.3s.31-.26.31,0c.06,0,.15-.08.11.09s-.07,0-.11,0-.19.17-.19.27.09.27.19.11c-.28-.1.24-.26.05.15-.07.16-.06.15-.11.06s-.11.26-.07.38c.12,0,.17,0,.08.16H.88c0,.17.05.14,0,.3,0-.08-.21.07-.22.14s0,.16.12.16-.09-.22.12-.13c0,.06,0,.28-.05.31s-.11,0-.1,0-.21,0-.14,0,0,.1-.07.11,0-.17-.13-.21c-.05.33-.19.61-.22.93,0,0,0,.23,0,.23s.12,0,.23,0c-.18-.15,0-.44,0-.6s.12-.19.26-.35a1.28,1.28,0,0,1,.13.29.07.07,0,0,1-.05.07.07.07,0,0,1,0,0,.2.2,0,0,1,0,.09c-.15.1,0-.22-.19.06s0,.36.15.22-.2-.21,0-.16.1.49-.06.44a.07.07,0,0,0,0-.1c-.1,0-.05.33-.05.4a.34.34,0,0,1,.14,0c0,.27-.05.12-.2.22a.21.21,0,0,0-.11.19c0,.14.16,0,.13,0S.53,63,.68,63a.88.88,0,0,0,0,.15c0,.09-.08.31-.08.38s0,.17,0,.26,0,.07-.07.21a1.25,1.25,0,0,0-.1.31,2,2,0,0,1-.06.34c0,.09,0,.23,0,.31a2.21,2.21,0,0,0-.14.59,3.61,3.61,0,0,0,.33-.39s0-.1,0-.1A.11.11,0,0,0,.69,65s0,0-.07,0a.07.07,0,0,1-.07,0c0-.05,0-.08,0-.08s0-.25,0-.28a1.48,1.48,0,0,1,.17-.33.41.41,0,0,0,0-.19A.52.52,0,0,0,1.05,64s.13.44.17.28c0,.11-.14.1-.23.17s-.21.19-.19.32.11,0,.16.15A.14.14,0,0,0,1,64.75c-.14.12-.09-.21.05-.12s-.08.28.08.44a.66.66,0,0,1-.19.09c0-.06,0-.1,0-.13L.75,65a1.11,1.11,0,0,0,0,.4c.06,0,.09,0,.08-.11a.46.46,0,0,1,0,.2c.15,0,.13-.06.14.14,0-.06-.33-.08-.37-.06a.57.57,0,0,0-.15.14l.24.06c0,.1-.07.21-.1.31s-.08,0-.09.1-.08.49,0,.48a.73.73,0,0,1,.23,0c0,.08,0,.36-.16.3,0,0,.09.15.09.17s-.07.12-.07.17a2.4,2.4,0,0,1,0,.24s-.17.11-.2.16a1,1,0,0,0-.14.4c0,.21.13.1.17.23s0-.08,0-.09a1,1,0,0,1,0-.24,1.48,1.48,0,0,1,.15-.31s.18,0,.22-.13.14.38.07.41a.12.12,0,0,1-.08.1.16.16,0,0,1,0-.1H.93c0-.12-.22.08-.22.08s-.12.21,0,.38c.16-.19-.11-.07,0-.17s.11-.15.2,0a1.59,1.59,0,0,1-.06.3c0,.12.05.22-.09.35-.13-.09,0-.31-.07-.36s-.15.14-.16.06a1.46,1.46,0,0,0,.1.23.5.5,0,0,0,.08.2H.88v.14s.07.14.09.09c0,.14-.08,0-.12,0a.78.78,0,0,0-.3.38.35.35,0,0,0,.16.06s0-.39.13-.15-.28.54-.16.28c-.08-.09-.07.07-.17,0-.08.06,0,.17-.11.13s0-.16,0-.24a.41.41,0,0,0,0-.19.2.2,0,0,1,.1-.24c0-.1.13-.08,0-.2s-.3.42-.31.52a1.38,1.38,0,0,0,0,.29c0,.13.07.08.1.16a.26.26,0,0,0-.2.28s.11.17,0,.19.13-.15.15-.18,0-.16.15-.31a.1.1,0,0,1,0,.08c.08,0,.08-.14.18-.07-.07.21-.05.12,0,.31l-.13,0c0,.07.06,0,.08,0s-.08.08-.08.17c0-.11.09.31,0,.25A1.3,1.3,0,0,0,.84,71c0,.09-.22.06-.29.14s.15.07,0,.2c0,.06.11.09.1.18s-.27-.16-.27.13.06.15.19,0,.06-.27.23-.28.08,0,.13.05c-.13-.1,0,.19.08.23H1c-.07.06-.14,0-.2.1s0,0,0,.17c0,0,.09.18,0,.15S.91,72,1,72s-.09.18-.13.24a.3.3,0,0,0-.09-.13.75.75,0,0,1-.16.45,0,0,0,0,0,0-.06c0,.1,0,.19,0,.28s-.08-.06-.11,0a1.91,1.91,0,0,0,0,.53s0,.37,0,.34-.16.09-.19.15a1.44,1.44,0,0,0-.05.31c-.07.23-.09.2.11.35a1,1,0,0,1,.07-.61,1.51,1.51,0,0,0,.25-.13q-.09-.07,0-.18s.17.24.17.21c0,.13-.12,0-.19.11s.09,0,0,.18c-.05-.08-.1-.06-.14.05a.41.41,0,0,0-.13.23l.15,0c0-.09,0-.28.09-.11a.33.33,0,0,1-.08.3c-.05,0-.07-.08-.06-.08s0-.1-.17.09,0,.14-.07.25a.12.12,0,0,0,0,.12l-.08.09-.12,0a.53.53,0,0,1,0,.25v0c.18-.06.34-.57.44-.23s0,.11-.15.24-.17.21,0,.2c0,0-.07-.25,0-.14s0,.28-.08.36c.08,0,.07.09,0,.14-.1-.1-.06-.19,0-.22-.16-.14-.19.07-.12.18s.29.11.17.21l.09,0c0,.09,0,.13-.13.14s-.23.19,0,.24c-.05,0,0-.26.1-.1s-.06.23-.08.29.08,0,.16,0c.11.1,0,.52,0,.6a.18.18,0,0,0-.07,0s0,.06,0,.09a1.34,1.34,0,0,0-.13.27c.09-.08.25-.42.39-.35s-.06.24-.12.26.14.05.12.22S.66,78,.59,78a.78.78,0,0,1,.05.41c.07-.08.17,0,.23-.12a.13.13,0,0,1,0,.18l.09,0a.87.87,0,0,1-.07.17.11.11,0,0,1,0-.08c-.13,0,0,.48.17.17.06.11-.07.17,0,.31S.9,79,.86,79a1.42,1.42,0,0,1-.07.22c0,.06-.17.16-.18.23l.1.08c-.15.07-.18.24-.21.36a.11.11,0,0,0,0,.11s0,.08-.05.1-.09.24.05.12c0,.13-.1.16-.13.24s-.08.32-.14.47c-.09,0,0-.11-.07-.14s-.15.5,0,.54.06-.16.06-.17c.11-.29.19-.48.47-.58,0,.18-.19.22.06.25,0,.22-.14,0-.19.16a4.71,4.71,0,0,1,.09.52,1.66,1.66,0,0,1-.14.13s0,.27.07.34.16,0,.21.09.07.26.08.19c0,.15,0,0-.09.05s-.11.16-.17.22.25,0,.33,0a.39.39,0,0,1-.11.31c-.07-.07,0-.12,0-.19a.1.1,0,0,0-.09,0c0,.21-.47.57-.16.51.06.06,0,.07,0,.12S.74,83,.76,83,1,83,1,82.89s0,.16,0,.24.09.12.1.08c0,.16,0,0-.11.06a.75.75,0,0,0-.26.27c-.13.25.06.11.08.27.2-.19-.09-.07,0-.18s.07,0,.25,0C1,83.7.91,84,.9,84c-.18.1-.13-.05-.12-.12s-.12,0-.16,0a.58.58,0,0,0,0,.23l-.18.12a2.33,2.33,0,0,1-.19.27l.16.14c.1-.13.33-.75.55-.43,0,0-.07.15,0,.19s.09.15.11.2c-.17-.08-.27,0-.4.13s.06.44.13.23L.6,85c.09-.2.24-.13.24,0a.48.48,0,0,1-.3.41c.13,0,.15.29.15.44a.26.26,0,0,1,0,.17.48.48,0,0,0,.07.2l-.2.18a.2.2,0,0,0,0,.15c0,.1-.15.13-.07.26.14-.18.26-.56.5-.56v.23c.06,0,.1,0,.09.06s-.08,0-.08,0c0,.19-.13,0-.23.2S.7,87,.87,87s-.07-.16,0-.17c.22-.07.15.08.15.2a2.18,2.18,0,0,0-.06.3c-.08.06-.06.13-.13,0s.06-.07,0-.22a.26.26,0,0,0-.22.35c.18-.18.16,0,.09,0s.09,0,.16.13c.16-.14,0,.13,0,.16s.12,0,.08.18-.1,0-.24.07-.29.28-.14.3.2-.34.28,0a1.87,1.87,0,0,0-.07.22.28.28,0,0,0,.13.28s-.6.49-.2.37c0,0,0-.31.1-.11s0,.11,0,.18.15,0,0,.24c-.12-.1,0,0-.1.06a.67.67,0,0,1,0-.24c-.16,0,0,.43,0,.5-.16-.15-.22.22-.24.35a.18.18,0,0,0,0,.18l-.09.09c0,.12,0,.22,0,.34s0,.14,0,.23-.12.19-.15.3v.26s.14,0,.14,0a.48.48,0,0,1,.09-.46c.08-.09.25-.18.15,0,.17.06,0,.16,0,.2s-.25.25-.09.22,0-.17.07-.15,0,.3,0,.36,0,.26,0,.38-.15.42-.08.63c.08-.07.07,0,.1,0s0-.3,0-.37.11-.18.07-.32.16,0,.21.06,0,.08,0,.25l0-.06c-.15.19-.18.19,0,.29,0,0-.17-.22,0-.15,0,.2-.23.65.1.65a.76.76,0,0,0-.06.2,2.62,2.62,0,0,0-.17-.21.24.24,0,0,0,0,.24s.14,0,.14.18.09-.18.18-.13.17-.08.17-.08a.62.62,0,0,1,.43-.43c.36-.14.08.6.27.76,0-.14.23-.37.37-.17.08-.16.09-.22.21-.27s.15.07.25,0a.18.18,0,0,0,.27,0c.21-.23.34-.39.56-.37s.5.17.53.31c.1,0,.49.11.43.19a2.08,2.08,0,0,0,.3,0c.18-.19.22-.24.26-.14.21-.15.25.15.34.33.07-.17.17-.2.31-.08l.3-.31c.17-.06.42.11.58,0s.27-.32.46-.42a.75.75,0,0,1,.57,0c.25.08.27.13.37.4s.07.25.3.29a.08.08,0,0,0,0,.06,1.88,1.88,0,0,1,.21-.36c0-.11,0-.16.16-.16s0-.08,0-.1.06,0,0,.06l0,0h0c.11,0,.18,0,.19-.1s0-.32.35-.21c-.12,0,.27.43.22.4,0-.24.34,0,.35,0,.38,0,.46-.2.79,0-.08-.14,0-.21.17-.23.07.25.05.28.28.44,0-.14.45,0,.48,0,.24.06.35.24.6,0s0-.08.11-.29a.41.41,0,0,1-.33-.13c.12-.16.14-.33.36-.26s.13.1.13.26.18,0,.24-.11a.26.26,0,0,1,.39-.08c.27,0,.38.07.49.28s.05.42,0,.71c.31,0,0,.24.34.13.1,0,.14-.1.2-.14s.19-.1.24-.14.18-.24.36-.23.43.28.49.25c-.18-.11-.19-.18-.1-.36a.19.19,0,0,1-.14-.36c.17-.11.25.12.3.14s.09.15.24.08h.2a.21.21,0,0,1,.31.11l.16.19c.18,0,.17-.06.38-.2S17,93,17,93l.16-.24.21,0a.51.51,0,0,1,.65.17s0-.06.06,0,0,.09,0,.1.21-.16.36-.15.37.27.57.28.16-.12.22-.11a.11.11,0,0,1-.06.1l.4,0c-.08-.32.09-.22.26-.2l.25.08c.38.43-.33.22-.4.23.22.31.18.14.47.18s.28.22.4.29c.54.31.18-.23.47-.23-.16-.1-.16-.2,0-.31.14.15.23,0,.44,0s.36-.07.61.12c0-.11,0-.47.22-.26s0,.17,0,.26,0,.25,0,.37,0,.7.19.29c-.27.1-.15-.41.06-.16.15-.34.14-.49.5-.51,0,0,.17.18.29,0s-.39-.21.1-.48l.25.68c0-.12.32,0,.45,0,.35-.18-.13-.3.26-.52.1.27.14.49.42.51l-.05.19a1.07,1.07,0,0,1,.29-.07s.14-.57.21-.23c.13-.24.1-.35.42-.52s.2-.07.57,0a.23.23,0,0,0,.33,0l.1-.07c.21.08.35.27.11.42a.21.21,0,0,1,.1.23.34.34,0,0,1,0,.11h0v0s0,0,0,0v.14l-.69,0,.17.32c.22-.44.14-.08.36-.09s.37-.33.45-.34a0,0,0,0,1,0,.05c.11,0,.18-.1.26,0-.16.15,0,.18.15.21s.49-.23.33.1c.15,0,.23.22.36.07s.12-.1.19-.15a.37.37,0,0,0,.13-.17l.23,0c.07,0,.53-.18.57-.1-.1-.61.6-.07.21.14.18.09.16.12.25.23a.77.77,0,0,1,.11.19c.09-.08.15,0,.19-.11-.07.11,0-.14,0,0,.08-.19.61-.14.58-.44a.18.18,0,0,1-.12-.31c.09-.09.24,0,.26,0l.25,0c-.08,0-.13-.07-.11-.18.07-.33.29-.17.38,0s0,.07,0,.06a.29.29,0,0,1-.14.08.69.69,0,0,1,.58.25c0-.15.43.07.18.21,0,0,.26,0,.22.13.11-.15.11,0,.29,0,0-.15-.18,0,0-.22s.14,0,.33-.06c0,.23,0,.28.23.32s.29,0,.28-.25a.32.32,0,0,1-.25.18c-.09-.19-.2-.3,0-.43l.21.12c0,.08.06.07.19,0,.05.33.05,0,.17.2a.1.1,0,0,1,0,.17l.3,0s0,0,.08,0,.11,0,.15,0,.2.12.24.12.2-.23.25-.22-.32.14-.49,0,0-.36,0-.47,0-.1.12-.22.17,0,.22,0c.26,0,.58-.11.74.16.31-.27.33-.39.8-.32,0-.24.25-.29.38-.08s-.07.15-.06.22a1.34,1.34,0,0,0,.13.27c-.11,0-.16,0-.15.13s.47.1.4.13c.15,0,0,0,.07-.2s-.08-.17-.06-.2c.12-.18.2,0,.28-.05a1,1,0,0,1,.77,0c.16.07.33.09.31.31.16-.06.29-.14.44,0s0,.33-.19.51l.25,0a.16.16,0,0,1,0-.19.7.7,0,0,0,.34-.06c.06.1.1.07.15.19.13-.18,0-.22.23-.36-.15.08-.32,0-.26-.14a.32.32,0,0,1-.27,0c0-.26.14-.49.34-.18.07-.15.45.14.2.28.12-.08.34-.28.48-.22,0-.07,0-.38.17-.41a.2.2,0,1,1,0,.38c.08.18.25.78.44.74-.16-.21-.13-.17,0-.42a1.7,1.7,0,0,1,.26-.38.71.71,0,0,1,.87.2c.14-.31.45-.27.79-.23.17,0,.12.08.27.06s0-.1.07-.11a3.44,3.44,0,0,1,.46,0c.16,0,.26.06.37.07a1.34,1.34,0,0,1,.37.09c.17.1,0,.23.28.24-.22-.17.46-.6.37,0,.1,0,.38-.13.45-.22s-.14-.22.08-.31.39.28.09.36a.34.34,0,0,0,.53-.25c-.32.22-.44-.24-.22-.35s.44.12.27.31c.66-.06.31.35.68.56.08-.18.4-.2.61-.17s.2.07.46.26c0,0,.6.4.66.25s-.08-.12-.14-.09c.1-.23.16-.26.33-.24-.05,0,0-.07.07-.13-.23-.1.22-.55.29-.2.06-.11.33-.14.47-.14l.23,0,.19.19c.17.05.32,0,.52,0s.2,0,.39.2l.21.23,0,.17c.13.16.17.18.31,0-.17,0-.23-.09-.21-.25s.2-.25.38-.29c.33-.08.19,0,.51.07.11,0,.16.12.24.11,0-.27-.13-.34.16-.45l.06.3c.3-.18.45-.33.79-.14s.21.24.39.42a1.55,1.55,0,0,0,1.17.29c0-.18-.29-.23,0-.4.06,0,.24.13.23.13a1.06,1.06,0,0,0,.45,0c.15-.07.19-.16.35-.25A1.3,1.3,0,0,1,56,93c.15,0,.33.29.47.28.35,0,.07-.25.39-.28,0,0,.3.2.29.19s0-.08.08-.07a.1.1,0,0,1-.07.08c0,.07.1.06.15,0-.1,0-.11-.24,0-.28s.19.1.26.11.08.08.16.07l.08-.1c.12,0,.11-.12.28,0s.1.72.19.22c0,0-.07,0,0,0s-.06-.14.21-.26l.06.24a8,8,0,0,1,1,0c0-.25-.17,0-.26-.17s-.08-.17,0-.3c-.3.3-.49-.51-.09-.43s.1.26.17.34.27,0,.27.31c.26-.2.33-.29.64-.29l.46.09.07.18c.13,0,.35-.1.51-.07s.26.23.35.27.09,0,.1.06c.16,0,.23,0,.22.15s-.07.11.08.2.21,0,.23,0c.18,0,.61,0,.3.3l.15.09c.06,0,.11-.5.27-.32q0-.21.24,0l.12-.1q.08-.18.18-.06a.36.36,0,0,0,.12.08c.2,0,0,.12.23,0-.19-.18.13-.41.31-.31a.49.49,0,0,1,.56-.24c0-.13-.09-.37.16-.35s.13.2.16.28-.08.15.08.22l.15.14a.19.19,0,0,1,.27-.11c.11-.1.2-.09.26,0,.08-.15.42-.53.5-.13,0,.22-.26.17-.3.28a.46.46,0,0,1,0,.21c.25,0,0,0,.11.16.45-.11,0-.28.23-.52l.24.35s-.06-.16,0-.22.06-.13.31-.21a.66.66,0,0,1,.61.1c.19.13.17.24.37.26,0,0,.2-.07.27-.07.22,0,.24,0,.43.2-.1.1-.12.34,0,.23-.2-.26.35-.19.45-.22s.51-.22.66-.17c0,0,0,.05,0,.06a4.12,4.12,0,0,0,.41.32s-.06-.15,0-.16l.19-.17c-.17,0-.22,0-.16-.14s0-.22.22-.19c-.14.07.22.14.2.14-.27-.46.52-.31.28,0a.42.42,0,0,0,.34-.15c.08.08.35,0,.47,0,0,0,0-.11,0-.12,0,.14,0,.16.09.28,0-.16.12-.31.19-.09,0-.77.67.07,0,0,0,.1.15,0,.29.11.11-.17.24.06.37.18s.27-.19.3-.19c.35-.07.34.28.09.27,0,0,.31.16.31.16s.25-.27.19,0c.47-.18-.08-.32.2-.6l.23.29c.12-.21.29-.16.49-.27s.25-.2.57-.13a1.38,1.38,0,0,0,.51.08c.26,0,.3-.16.53,0a1,1,0,0,1,.54-.47.66.66,0,0,1,.78.29c.08-.1.29-.17.37,0s-.16.26-.14.36c.06.26.39.33.49.52.07-.16.39.1.48.11,0-.24-.44-.24-.16-.54a.46.46,0,0,1,.21-.09s0-.07.08-.08,0,0,0,.05a1.33,1.33,0,0,1,.43,0c.16,0,.18.13.34.13s.15-.14.29-.1a4.18,4.18,0,0,1,.49-.43,1.62,1.62,0,0,1,.59.08l.11.22L81,93a.48.48,0,0,0,.29-.1,1,1,0,0,1,.44-.19,3.13,3.13,0,0,1,.46,0c.09,0,.1,0,.18,0s.11-.24.33,0c-.06-.78.8.09.07.09l.3.17v.17q.15,0,.18.09l.11.19c.06-.15,0-.28.22-.32,0,0,0,.12.06.11l.34-.11.12.08c-.24,0,.55.18.31.1.06,0,.24-.08.24.1.29,0,.07,0,.16-.06.09.13.11,0,.22-.05a.79.79,0,0,1,.34,0c.12,0,.12.09.2.13a.93.93,0,0,0,.36.18c.1,0,.28.12.33.12a1,1,0,0,0,.42,0l0,.26c.16,0,.3-.35.48-.43a3.52,3.52,0,0,1,.58-.22c0,.09.37.33.45.29-.14-.14-.51-.14-.28-.35s.3.09.46.22c.09-.28.62-.18.8,0,0-.16,0-.23.14-.21-.09-.16,0-.24.16-.27.07.24,0,.07.12,0a1.33,1.33,0,0,0,.41-.14c.07.16.24.1.35.07l.32-.17.21.08a.71.71,0,0,1,.61.1c-.06-.13,0-.2.19-.21l.09.37a.61.61,0,0,1,.4-.06s.2.12.14.22.33-.18.32-.1a.59.59,0,0,0,.08.24s-.06,0,0,0A.17.17,0,0,1,93.05,93.54ZM.48,80.46s0,0,0,0S.5,80.44.48,80.46ZM.6,81c0-.08,0-.11.05-.1S.65,81,.6,81Zm.19,1.32a.12.12,0,0,1,0,.1C.7,82.41.74,82.33.79,82.33Zm-.23.75A.15.15,0,0,1,.62,83C.67,83,.65,83.13.56,83.08Zm.47.3s-.07,0-.09,0S1,83.37,1,83.38Zm-.34.75a0,0,0,0,1,0,0A0,0,0,0,1,.69,84.13ZM.88,86A.18.18,0,0,1,.79,86a.13.13,0,0,1,.1,0Zm0,.09s0,0-.05,0S.87,86.08.89,86.11Zm0-.92c0-.11,0-.11.17-.23C1,85.09.94,85.13.86,85.19Zm-.07-.5.09-.09S.87,84.79.79,84.69Zm.14,5.7s-.17-.1-.09-.13l0-.07a.64.64,0,0,1,.18.06c0,.08,0,.29-.08.33a.13.13,0,0,1-.13,0c.05,0-.1-.06-.11-.06s0,.14-.11.14,0-.21,0-.26a1.17,1.17,0,0,1,0-.41,2,2,0,0,1,.1-.26c.05,0,.13,0,.16-.07a.58.58,0,0,1,0,.19.21.21,0,0,1,.15.11c-.12,0-.18.09-.28.11S.65,90.55.93,90.39Zm0,2.12c.05.1,0,.12,0,.16S.93,92.56,1,92.51ZM.9,90.7c.06,0,0,0,0,.1A.08.08,0,0,1,.9,90.7Zm-.18.86s0-.07,0-.1S.75,91.51.72,91.56Zm0,.22-.07.1C.65,91.76.65,91.76.73,91.78Zm0-1c.15.09-.12.07.17.11V91C.78,91,.63,91,.71,90.79Zm0-.07s0,0,.05,0S.76,90.74.74,90.72Zm-.12.07s0,0,0-.05S.64,90.78.62,90.79Zm.17-1.24s0,0,0,0S.81,89.58.79,89.55Zm.2-.44-.08.16C.82,89.18.92,89.13,1,89.11Zm-.1-.61c0-.15.07-.18.14-.28C1,88.38,1,88.4.89,88.5ZM.43,90.79l.1-.1a.34.34,0,0,1,0,.2C.44,90.89.58,90.74.43,90.79Zm.14,1s0,0,0,0S.6,91.79.57,91.81ZM.84,92.9s0,0,0,0S.82,92.87.84,92.9Zm.21-2.47c0-.11.05-.12.12-.13S1.16,90.47,1.05,90.43Zm0-3.39c.05-.12.05-.12.12-.13S1.16,87.08,1.05,87Zm0-3.15a.45.45,0,0,1,.14-.26C1.17,83.79,1.15,83.79,1,83.89Zm.13-3.68c.05-.09.14-.11.12-.21C1.33,80.14,1.33,80.14,1.16,80.21Zm0-15.3a.4.4,0,0,1,.11-.2l0,.05Zm.07-41.56c-.1,0,0-.18.05-.19A.13.13,0,0,1,1.25,23.35ZM1,14.24a.15.15,0,0,1-.06.09s0,0,0-.06c-.16.17-.43.41,0,.41,0-.13-.13-.07-.13-.17.2-.11.18-.07.21.13s0,.25-.15.35c-.06-.06,0-.08,0-.13s-.15,0-.17,0,0,0,0,0c-.2.32-.12.06-.15-.07a2.09,2.09,0,0,1,0-.43,2.29,2.29,0,0,1,.17-.46c.07-.08.19,0,.24-.1a.74.74,0,0,1,0,.25c0,.11.15-.07,0,.1a.1.1,0,0,1,0,.05Zm-.12.9c-.07-.05,0-.1.08-.08ZM.86,17c-.08-.07,0-.16.06-.21C1,16.87.85,16.88.86,17Zm-.12-1.9s0,0-.05,0S.73,15.05.74,15.07Zm.05-2.84c0-.06,0-.09.08-.12S.87,12.2.79,12.23ZM.66,11.3s0,.36-.16.14a2.09,2.09,0,0,1,.05-.32,2,2,0,0,1-.06-.26,1.32,1.32,0,0,1,.16-.38c.06-.1.23-.13.27-.22l0,.26a.22.22,0,0,1,.14.09c-.05.06-.12,0-.17.07H1a.15.15,0,0,1-.06.09.09.09,0,0,1,0-.07l-.17.19c0,.09-.11.13-.06.23s.13,0,.16.07c0-.06.15-.2,0-.12-.05-.12.06-.24.16-.14s0,.07,0,.19-.22.47-.16.18C.78,11.23.71,11.4.66,11.3Zm.06.25s0,0,0-.05S.74,11.53.72,11.55Zm.1-1.9c0,.07,0,.07-.06,0Zm0-.72c0-.09.09-.12.14-.19C.94,8.87.89,8.9.79,8.93Zm0,.87c.06.12-.06.13,0,.24,0-.09-.13,0-.18-.1S.78,9.91.81,9.8Zm0,.38a.06.06,0,0,1,0-.1A.07.07,0,0,1,.77,10.18ZM1,4c0,.09,0,.11-.09.08A.14.14,0,0,1,1,4ZM.85,3.74a.16.16,0,0,1,0-.1H.93A.12.12,0,0,1,.85,3.74ZM1,6.08c0,.09-.06.13-.07.24C.91,6.19.93,6.12,1,6.08ZM1,3l.12-.13C1.09,2.94,1,3,1,3Zm.17,4.49A.51.51,0,0,1,1,7.7C1,7.56,1,7.56,1.13,7.48ZM1,11.2A.36.36,0,0,1,1.15,11C1.17,11.13,1.17,11.13,1,11.2Zm0,3.54c-.1,0,.09-.2.1-.21S1.13,14.77,1.06,14.74ZM1,12.06S1,12,1,12,1,12,1,12.06Zm-.07-.49-.09.07C.79,11.57.89,11.4.94,11.57Zm.12,6.26h.07c-.06.06,0,.16-.13.18S1,17.87,1.06,17.83Zm.15,2.73a.31.31,0,0,1-.11.21C1.08,20.63,1.08,20.63,1.21,20.56ZM.61,1.76a.08.08,0,0,1,0-.07A.4.4,0,0,0,.81,1.6S.65,1.75.61,1.76Zm.16.16a.11.11,0,0,1,0-.15A.14.14,0,0,1,.77,1.92Zm0-.46a.05.05,0,0,1,0-.09C.88,1.36.81,1.46.81,1.46Zm-.09,3a.07.07,0,0,1,0-.11A.08.08,0,0,1,.72,4.41Zm-.1.86s0,0,0,0S.64,5.25.62,5.27Zm0,1.36c-.06,0,0-.09,0-.09S.66,6.6.62,6.63ZM.81,8.51s0,0,0,0S.84,8.49.81,8.51Zm-.07.86s0,0,0,0S.69,9.35.74,9.37Zm0,3.42c0,.09-.09.07-.12.07S.66,12.83.72,12.79Zm0-.3a0,0,0,0,1,0,0S.68,12.46.69,12.49ZM.8,15.85H.68C.75,15.82.78,15.77.8,15.85Zm0,.66s0,0,0,0S.74,16.5.79,16.51Zm.18,3H1v0H1s0,0,0,0,0-.12,0-.17,0,.1,0,.17S1,19.47,1,19.49ZM.89,18.36a1.13,1.13,0,0,0-.08.24C.79,18.54.71,18.24.89,18.36Zm0,1.35s0,0,0-.05S.93,19.69.91,19.71Zm.1.6s0,0,0,0S1,20.3,1,20.31Zm-.15.82,0-.1C1,20.93.92,21,.86,21.13ZM.74,21s0,0-.05,0S.73,21,.74,21ZM1,24.37c-.09,0,.09-.22.1-.23S1,24.4,1,24.37Zm0,.87c-.06-.1,0-.11.05-.17C1.07,25.17,1,25.18,1,25.24Zm0,1s0,0,0,0S.88,26.23.93,26.24Zm-.12.91c0-.09,0-.09.08-.12S.85,27.12.81,27.15Zm-.05.51s0-.19.05-.2A.13.13,0,0,1,.76,27.66ZM.62,28s0,0,0,0S.64,28,.62,28Zm0,.45v.1C.57,28.5.58,28.42.65,28.42Zm.2,2.06v-.2C1,30.4.93,30.37.85,30.48Zm-.11-.13s0,0,0,0S.76,30.29.74,30.35ZM.62,33.54a.07.07,0,0,1,0-.1A.06.06,0,0,1,.62,33.54ZM.53,37.59c-.06-.08-.2-.21-.08-.32C.45,37.42.6,37.4.53,37.59Zm.12,1s0,0-.05,0S.63,38.56.65,38.58Zm-.05.28c-.09-.06-.19,0-.2-.14s0-.2.14-.15S.59,38.89.6,38.86ZM.45,39.92s0,0,0,0S.5,39.94.45,39.92ZM2.57.36h0s0,0,0,0h0a.09.09,0,0,1,.07,0S2.6.44,2.57.36Zm0,.14A.14.14,0,0,1,2.73.41s0,0,.06,0S2.68.55,2.61.5Zm0-.11s0,0,.07,0ZM3.3.76s.05,0,0,0ZM3.61.43h0s0,0,.05,0S3.65.46,3.61.43ZM4,.94C3.75,1,3.91.76,4,.72H4C4.19.72,4.09.92,4,.94ZM4.31.83s0,0,.05,0ZM4.89.51A.33.33,0,0,1,5,.57C5,.65,4.91.57,4.89.51ZM5.06.36l.05,0A.15.15,0,0,1,5,.41Zm0,0s0,0,0,0Zm.48,93h0Zm0-.48c0,.09-.1.13,0,0-.13.18-.43.17-.36-.08s.28-.23.35,0C6.08,92.32,5.71,93.6,5.45,92.83ZM5.22.65c.07-.05,0,0,0,0ZM5.58.16c0,.1-.07.08-.13,0s.07,0,.07,0S5.57.2,5.58.16Zm0,.2a.07.07,0,0,1,0,.06S5.62.33,5.61.36Zm0-.08s0,0,0,0ZM5.83.7Zm.52.14s0-.06,0,0ZM7.1.9l.23,0C7.31,1.05,7.19,1,7.1.9ZM7.17.76c.06,0,0,0,0,0Zm.61.05s0,0,.07,0Zm.13,0s0,0,0,0ZM8.82.73h0Zm.11,0A.1.1,0,0,1,9,.75C8.92.78,8.91.68,8.93.7ZM9.2.7s.17,0,.21.08S9.09.86,9.2.7ZM9.27.6a.42.42,0,0,1,.12.05C9.33.72,9.29.66,9.27.6ZM9.53,1s0,0,.07,0Zm.67,91.61c0,.21-.28.32-.38.08s.19-.3.39-.16C10.21,92.57,10.21,92.59,10.2,92.58ZM10.06,1l.23-.07C10.31,1.11,10.17,1.07,10.06,1Zm.6,0c-.07,0-.1,0-.09-.11S10.73.9,10.66,1Zm.58.07s0-.07,0,0Zm0-.23Zm.05.2s0,.05,0,0ZM11.4.7s0-.07,0,0Zm1,.1c.08,0,0,0,0,0Zm.14-.06a.09.09,0,0,1,.09.05C12.51.84,12.47.71,12.51.74Zm.43.34Zm.18-.26h0l0,0,0,0a.1.1,0,0,1,.05-.08.09.09,0,0,1,0,.1ZM13.69,93c.05,0,.05,0,0,.06S13.66,93,13.69,93Zm0,.59c-.05,0-.06,0,0,0S13.78,93.54,13.72,93.58Zm.13-.36v0ZM14,.86c0,.08,0,0,0,0ZM14.09,93c-.1.11-.05,0,0-.07S14.14,92.9,14.09,93Zm0-92s.15.06.07.13A.09.09,0,0,1,14.09.91ZM14,.79s0,0,.06,0Zm.05,92.86s-.07,0,0,0S14.06,93.62,14.06,93.65Zm.3-.31c-.13.1-.36.09-.28-.12s.27-.12.32.08C14.37,93.35,14.36,93.35,14.36,93.34Zm.49-92.16s0-.08,0,0ZM16,.87c.06.06,0,0,0,0Zm.06.3c.08,0,0,0,0,0Zm.06-.28c.05,0,.14,0,.11.1S16.14,1,16.13.89Zm.09-.24Zm0,.47.09.06C16.21,1.26,16.16,1.1,16.22,1.12Zm.1-.17s0,0,0,0Zm.21,0s0,0,0,0Zm.38-.29h0Zm0,.3s0,0,0,0Zm.4-.05Zm.05-.23c0-.06,0,0,0,0Zm.93.27,0-.06S18.35.86,18.31.91Zm0,0Zm.16-.2s0,.05,0,0Zm.1.12s-.06,0,0-.08S18.64.84,18.59.88Zm0-.15Zm0-.09a.09.09,0,0,1,.07-.09C18.74.81,18.51.61,18.59.64Zm.19,0c-.07.07-.15-.05-.09-.09S18.82.59,18.78.63Zm.2.05h0l.05,0s-.05,0-.06,0,0,0,0,0v0s0,0,0,.06C18.55,1,19,.44,19,.68ZM19,.93a.05.05,0,0,1,0-.09S19.1.9,19,.93ZM19,1S19,1,19,1Zm.34,91.67c-.06.2-.3.29-.38.06s.22-.28.39-.13C19.32,92.68,19.31,92.69,19.31,92.68ZM19.12.58c.09,0,.09.16,0,.2a.16.16,0,0,1,0-.15S19.1.59,19.12.58Zm.12.15c.05,0,0,0,0,0ZM19.34,93s.07-.09.11-.07A.11.11,0,0,1,19.34,93Zm0-92.31h0l0-.06s0,.1,0,.06h0v0h0v0Zm.06.44s0,0,0,0Zm0-.29h0s0,0,0,0,0,0,0,0a.08.08,0,0,1,0-.08S19.59.87,19.48.84Zm.1-.1Zm0,.23s0,0,0,0Zm.51-.1s0,0,.06,0Zm.24.21s0-.07,0,0Zm.18,92.11c.07-.28.24-.15.32,0s0,.06,0,0S20.49,93.4,20.54,93.19Zm.13.17c.54-.06-.12.58,0,0ZM21.09.92s0,.09,0,0Zm.15.22c-.06,0-.08-.07,0-.14S21.34,1.09,21.24,1.14Zm.06,0c.09,0,0,0,0,0ZM21.46,1l.09.05C21.46,1.17,21.39,1,21.46,1Zm.27-.29a.08.08,0,0,1,.06.08C21.69.84,21.7.7,21.73.74Zm.18.69ZM21.83.9S22,1,22,1s0,.06,0,.05C21.83,1.15,21.89,1,21.83.9Zm1,92c-.16.15-.42.12-.37-.12s.33-.15.42.06C22.88,92.87,22.87,92.88,22.87,92.87ZM22.64.77a.38.38,0,0,1,.13,0C22.76.85,22.69.81,22.64.77Zm.78,91.87c0,.21-.29.31-.38.08s.2-.3.39-.16C23.43,92.63,23.43,92.65,23.42,92.64ZM24.4.85s0,0,0,0,0,0,0,0l0,0,.14,0C24.49,1,24.43.92,24.4.85ZM25,92.48c-.15.16-.43.14-.38-.11s.34-.18.43,0C25,92.48,25,92.49,25,92.48Zm.12.41c0,.13-.06,0,0-.06S25.09,92.82,25.07,92.89ZM25.56.74c.05.05,0,0,0,0Zm.16.11s-.08,0-.07-.08S25.77.79,25.72.85Zm.22-.11h0Zm1.32,92.48s0,.06,0,0Zm.22-.17s.06-.09.1-.07A.11.11,0,0,1,27.48,93.05Zm1,.3c0,.17-.18.32-.29.11s.09-.28.29-.17C28.52,93.35,28.52,93.36,28.51,93.35Zm.16-.06s0-.06.07-.05S28.64,93.4,28.67,93.29Zm.33-.54c0,.1-.29.18-.28.23h0c-.09.09-.28.16-.39.06s0-.24.07-.36a1.58,1.58,0,0,0,.27-.16C28.83,92.46,29.1,92.49,29,92.75Zm1,0c-.13.17-.4.18-.38-.07s.31-.2.42,0S30,92.73,30,92.72ZM30.18.59c.06,0,0,0,0,0Zm.08.47Zm.6-.24s0-.06,0,0Zm0,.31s0-.08,0,0Zm1.5-.42s0,0,.08,0ZM33,.61l.12,0s0,0,0,0C33.21.42,33.25.69,33,.61Zm.27-.15c0,.08,0,0,0,0Zm.13.19c-.06,0-.07-.07,0-.13S33.44.61,33.36.65Zm.58.24s0-.07,0,0Zm0-.4h0s0,.06,0,0a.11.11,0,0,1,0,0,.11.11,0,0,1,0-.13.15.15,0,0,1,.07.12ZM34,.31ZM34,.19h.1C34.07.26,34,.26,34,.19Zm1,.27A.05.05,0,0,1,34.87.4S35,.4,34.93.46Zm.12,0c.05,0,0,0,0,0ZM35,.51s0,0,.06,0Zm.59-.1c.07,0,0,0,0,0Zm.13,0c-.15,0-.17-.18.08-.14C35.79.27,35.93.42,35.71.41Zm.11.31c.08,0,0,0,0,0ZM36,.46h-.07A.06.06,0,0,1,36,.46Zm0-.24ZM36,.7a.1.1,0,0,1,.08.08C36,.81,36,.66,36,.7Zm.58-.2Zm0-.13s0,0,0,0Zm.11.19s0,0,0,0Zm.12,0s0-.05,0,0Zm0-.28c.09-.05,0,0,0,0Zm.1.42c.09,0,0,0,0,0Zm0-.36c0-.06,0,0,0,0Zm0,0s-.18-.14,0-.15c0,.08,0,.1,0,.06S37,.3,36.91.34Zm.1.29a.09.09,0,0,1,.09.05C37,.74,37,.6,37,.63Zm.13-.15Zm.1-.19c-.05,0,0-.06,0,0S37.27.25,37.24.29Zm.13.11s0,0,0,0Zm.13.08s-.06,0-.06-.07S37.54.43,37.5.48Zm.24-.15a.71.71,0,0,1,.11.12C37.74.51,37.73.41,37.74.33ZM38,.24A.1.1,0,0,1,38,.3c0,.06-.15,0-.14,0ZM37.86.13c.06,0,0,0,0,0Zm.89,93.19c0,.09,0,0,0,0S38.78,93.28,38.75,93.32Zm.31-.71c-.09.21-.36.28-.41,0-.08-.4.26-.29.43-.11C39.07,92.61,39.06,92.62,39.06,92.61ZM38.75.4h0S38.61.35,38.75.4Zm1.11.14s0,0,.06,0Zm1,.1Zm.42,92c-.09.11,0,0,0-.07S41.38,92.58,41.33,92.64ZM41.4.82Zm0-.44c.06,0,0,0,0,0Zm.06.33c.06,0,0,0,0,0Zm0-.33s.11,0,.09.08A.1.1,0,0,1,41.54.38Zm.09.31a.07.07,0,0,1,.06.06C41.61.78,41.6.66,41.63.69Zm.26-.25c0,.06,0,.22-.11.09a.14.14,0,0,1,.11-.1,0,0,0,0,1,0,0s.06,0,.07,0a.05.05,0,0,1,0,.07A.08.08,0,0,1,41.89.44ZM41.78.38c.06,0,0,0,0,0Zm.17,0c0-.1,0,0,0,0Zm.11.46c-.27,0,.08-.33.13-.25S42.18.82,42.06.81Zm.27-.08.06,0,.18,0C42.48.94,42.39.83,42.33.73Zm.23-.3a.15.15,0,0,1,.1,0c.05.08-.22.06-.21.06A.13.13,0,0,1,42.56.43Zm-.09,0s0,.07,0,0Zm.1,0s0,0,0,.07S42.57.36,42.57.34Zm.7,92.2c-.15.16-.42.13-.38-.11.07-.39.34-.18.43,0S43.27,92.55,43.27,92.54Zm0-91.83s0,0,0,0Zm.11-.2c.06,0,0,0,0,0Zm.29,0c-.08.17-.23-.11-.06-.09S43.69.45,43.66.53Zm0-.12s0,0,0,0Zm.14.3s0-.07,0,0Zm.42.05,0,0h.17C44.34,1,44.25.86,44.2.76ZM45.72.59s0,0,0,0Zm.11,0a0,0,0,0,1,0,.05C45.79.65,45.81.56,45.83.59Zm.3-.22a0,0,0,0,0,0,0s0,0,0-.07.14,0,.05.07h0S46.14.38,46.13.37Zm.15,0Zm.09,0s0,0,0,0S46.35.37,46.37.39ZM43.26.29ZM34.4.37l.06,0C34.52.37,34.48.4,34.4.37ZM33.15.19s0,0,0,0S33.15.23,33.15.19Zm-.36.09v0h0Zm-1.41.2s.05.11,0,.12-.13-.11-.15-.15A.12.12,0,0,1,31.38.48Zm0-.09c-.05,0,0,0,0,0Zm.26,0V.5S31.62.46,31.64.43Zm-7.35.4ZM22.64.58ZM22,.65c.06-.08.09,0,.11,0A.08.08,0,0,1,22,.65Zm.13.08a.14.14,0,0,1,.06.07c0,.07-.19,0-.18,0A.1.1,0,0,1,22.1.73ZM21.18.66l0,.06S21.15.68,21.18.66Zm0,0,.07-.07s.06,0,.06,0A.12.12,0,0,1,21.18.62ZM14.28.44s0,0,0,0ZM12.56.58h.07C12.66.63,12.61.65,12.56.58Zm.08,0c0,.06,0,0,0,0ZM10,.51c.08,0,0,0,0,0Zm0,.14c0,.07,0,0,0,0ZM9.87.76c0-.05.05,0,0,0ZM5.67.18s0,0,0,0ZM46.51.44a.07.07,0,0,1,0-.11s.07,0,.06,0S46.57.42,46.51.44Zm.07.13s0-.09,0-.13S46.67.57,46.58.57Zm.1,0c.07.05,0,0,0,0Zm.06-.34h0v0C46.63.17,46.84.22,46.74.24Zm.08-.12s0,.06,0,.09S46.74.16,46.82.12Zm0,.45a.1.1,0,0,1,.07.08C46.81.68,46.81.53,46.85.57Zm.12.48ZM47,.2c0,.08,0,0,0,0Zm.3.53L47.2.7h0s-.05,0,0,0l0,0a.1.1,0,0,1,.06-.1A.12.12,0,0,1,47.27.73Zm.29.18s0-.08,0,0Zm0-.06c-.16.07-.11-.13-.07-.2h0C47.59.56,47.65.79,47.53.85Zm.2-.27s0,0,0-.07Zm0,0s0,0,0,0Zm0,0c0-.05,0,0,0,0Zm.06,92.76,0,0ZM48,93h0c0,.13-.06,0,0-.06S48,92.89,48,93ZM48,.65a.42.42,0,0,1,.14.06C48.06.79,48,.71,48,.65Zm.61.57Zm0-.46s0,0,0,0Zm.66,91.74c-.13,0-.08-.38.09-.43s.19,0,.29.11C50.11,92.65,49.26,92.57,49.28,92.5ZM49.61.81l0,.08S49.58.84,49.61.81Zm.52,0c-.21.11-.12-.15,0-.22h0C50.26.52,50.23.73,50.13.78Zm.09-.31s0,0,.06,0Zm.1.12s0,0,0,0Zm.09,0s0-.06,0-.06S50.47.49,50.41.59Zm.31,92.69Zm-.17-.75c.12-.36.36-.12.42.11,0,.06-.06.07-.06.06C50.73,92.83,50.47,92.77,50.55,92.53ZM50.82.72Zm.11,92.36c-.06,0,0-.1,0-.11s0,0,.1,0S51,93.09,50.93,93.08ZM51.69,1l.08.07s0,0,0,0C52,1.1,51.77,1.27,51.69,1ZM51.76,1s-.09,0,0,0Zm.06,0c0-.05.13-.05.15,0A.12.12,0,0,1,51.82.9Zm0-.07A.14.14,0,0,1,52,.74a.15.15,0,0,1,.09.07C52.11.9,51.83.83,51.84.83Zm1,0s-.08,0-.07-.08S52.88.77,52.83.83Zm0-.25c0-.13,0,0,0,0ZM53,1s0,0,0,0ZM53,.9Zm0,0Zm0-.15h0s0,0,0,0v0a.07.07,0,0,1,0-.08S53.13.74,53,.72Zm.82.05s.08,0,.09.08-.24,0-.23,0A.14.14,0,0,1,53.85.77ZM53.79.71c0,.06,0,0,0,0ZM53.55,1l.08.08s0,0,0,0C53.85,1.14,53.63,1.31,53.55,1ZM53.87,93c-.11.15-.32.15-.31-.06s.26-.16.35,0S53.86,93,53.87,93Zm.41.46c-.07.12-.25.18-.26,0s.17-.19.28,0S54.28,93.46,54.28,93.45Zm.61-.31c-.07,0-.08,0-.07,0-.23.08-.51-.14-.21-.31S54.9,92.93,54.89,93.14ZM55.09.92Zm0-.26c-.08-.05,0-.13,0-.09A.08.08,0,0,1,55.12.66Zm.1.27a.08.08,0,0,1,.05.08C55.18,1,55.21.9,55.22.93Zm.35,0ZM55.49.71s0,0,0,0l0,0,0,0,.11,0C55.56.82,55.52.77,55.49.71ZM56.5,93c-.25.11-.59-.12-.27-.32s.34.05.34.28C56.5,93.05,56.49,93.05,56.5,93ZM56.37.9c.09,0,0,0,0,0Zm.31,0Zm.1,0s0,0,0,0S56.75.84,56.78.87ZM58,1c0,.08,0,0,0,0ZM58.05.8c.06,0,0,0,0,0Zm.1.41c-.07,0-.09-.07-.06-.14S58.23,1.15,58.15,1.21Zm0-.52s.05,0,.09,0S58.07.69,58.12.69Zm.17.29c.06,0,0,0,0,0Zm.08,0s.09-.08.1,0S58.4,1,58.37.94Zm.45.49c0-.08,0,0,0,0ZM59,.86l0,0S59,.82,59,.86Zm.26-.13c0-.06,0,0,0,0Zm0,.18s0,0,0,0Zm0-.26.06,0S59.18.71,59.21.65Zm.54.24Zm.11,0A.1.1,0,0,1,60,.93h0L60,1C59.91.92,60,1,59.86.88Zm.63.21a.93.93,0,0,1,.24,0C60.7,1.25,60.58,1.17,60.49,1.09Zm.66-.17s.05,0,0,0Zm.4,0,.19.11C61.62,1.2,61.57,1.08,61.55,1Zm.55,92.3s0,0,0,0S62.05,93.31,62.1,93.27Zm.09-.66c-.08.2-.34.28-.4,0s.25-.28.42-.11C62.2,92.6,62.2,92.62,62.19,92.61Zm.27.57s.11,0,0,0-.07,0,0,0c0-.14.09-.35.29-.27C62.67,93,62.84,93.31,62.46,93.18Zm0-92.35c.08.06,0,0,0,0Zm.12,0s.06,0,.08,0a.31.31,0,0,0,0-.1l0,.1s0,0,0,0C63,1,62.73,1,62.6.84Zm.3,0c-.08,0,0-.07,0,0Zm.8.2a.52.52,0,0,1,.21,0C63.86,1.16,63.76,1.08,63.7,1Zm.68.18Zm.2.13c-.07,0-.1,0-.09-.1S64.63,1.25,64.58,1.32Zm.13-.45Zm.05-.16s0,0,0,0Zm.31.25s0,0,0,0Zm0,0Zm0-.16.12,0C65.15.91,65,1,65,.83Zm.11.14s0,0,0,.05S65.14,1,65.15,1Zm.06.35s0,0,0,0Zm.36-.48s0,0,.05,0Zm.37,0s0,0,0,0h0L66,.71C66.06.8,66,.81,65.94.79Zm1.71,0c0-.05.06-.06.12,0l-.06.09S67.65.79,67.65.78Zm.2.26c-.18.08-.21-.1,0-.13h0S68,1,67.85,1ZM68,1c.06,0,0,0,0,0Zm.08,0s0,0,.06,0Zm.72,92.19s0-.06,0-.07S68.78,93.36,68.75,93.24Zm.12.21c-.06.09,0,0,0,0S68.9,93.4,68.87,93.45Zm.39-.69c-.07.12-.44.19-.41,0,0,0-.06.06,0,0-.3.26-.49-.19-.26-.33s.19,0,.32,0S69.42,92.47,69.26,92.76Zm.11-91.43s0,0,.08,0Zm1.55,91.45c-.18.14-.45.07-.36-.18s.37-.12.42.12C70.93,92.78,70.92,92.79,70.92,92.78Zm-.16-92c0,.09,0,.13-.17.16C70.6.8,70.63.77,70.76.76ZM70.64.62s0,0,0,0Zm-.07.53a1.09,1.09,0,0,1,.25,0C70.81,1.3,70.67,1.23,70.57,1.15Zm1,91.76c-.11.16-.33.17-.33,0s.26-.18.36,0S71.52,92.93,71.53,92.91ZM71.28,1l-.07,0S71.25,1,71.28,1Zm0-.07ZM72,1s0,0,0,0Zm1.09,0s-.06,0,0,0Zm0,.12ZM73.09,1a.06.06,0,0,1,.1,0S73.15,1,73.09,1Zm.09.18a.07.07,0,0,1,0,.08C73.13,1.26,73.16,1.13,73.18,1.17Zm0-.31a0,0,0,0,1,.06,0Zm.12,92.56c0,.1,0,0,0,0S73.33,93.38,73.31,93.42Zm.67-.83c-.18.14-.45.08-.37-.17s.37-.12.43.11ZM73.65.91c0-.11,0,0,0,0Zm.15.29s0,0,0,0Zm0-.15v0Zm.08,0s.12,0,0,.1A.07.07,0,0,1,73.91,1.09Zm.42.17c.07.08,0,0,0,0ZM74.44,1c.08.1-.11,0,0,0Zm.12.43a.09.09,0,0,1-.1-.11S74.63,1.33,74.56,1.41Zm.92,91.36c-.19.13-.45.06-.36-.18s.37-.11.42.12C75.49,92.77,75.48,92.78,75.48,92.77ZM75.28,1.4s0,.05,0,0Zm.65,91.28c-.07.2-.32.28-.38,0s.22-.28.4-.12C75.94,92.67,75.94,92.69,75.93,92.68Zm-.37-91.5c0-.06,0,0,0,0Zm0,.05c.06.08,0,0,0,0Zm0-.33c.07-.08,0,0,0,0Zm.08.37s.16.06.09.13S75.71,1.35,75.73,1.27Zm.81.2s0,.06,0,0Zm.21-.29h0S76.75,1.2,76.75,1.18Zm.8-.26Zm.17.28c-.08,0-.11,0-.1-.12S77.78,1.12,77.72,1.2ZM77.61.9a0,0,0,0,1,.06,0h-.06Zm.27,92.5s0,0,0,0S77.93,93.43,77.88,93.4Zm.12-.15c0,.07,0,0,0,0a.08.08,0,0,1-.07,0s.15-.68.35-.21C78.37,93.3,78.16,93.61,78,93.25Zm.21-91.93Zm.21-.12s0,.05,0,0ZM78.49,1l-.07,0h0s0,.05,0,0l0,0a.11.11,0,0,1,.06-.1A.2.2,0,0,1,78.49,1Zm0-.22a.6.6,0,0,1,.2,0C78.65.94,78.55.87,78.48.79Zm.28.3c-.11.15-.14-.08-.1-.16h0C78.79.84,78.8,1,78.76,1.09Zm.16-.23s0,0,0-.07Zm0,0ZM79.32,93c-.12.14-.33.14-.31-.07s.26-.16.35,0S79.31,93,79.32,93ZM79.19.81ZM81,.67s.06,0,0,0S81,.69,81,.67Zm.14.27c0-.08.1-.1.14-.14s-.06,0,0,0,0,0,0,0l0,0,.2.07C81.49.93,81.2,1.08,81.15.94Zm.22-.16s0,0,0,0Zm0,0s0,0,.06,0H81.4Zm.15.25s0,0,.07,0Zm1.45,0s0,0,0,0Zm.48.25Zm0-.44ZM84,1c-.15,0-.08-.13,0-.17h0C84.14.81,84,1,84,1Zm.28-.06s0,0,0,0Zm.83,92.25c0,.07,0,0,0,0ZM85.16.9Zm-.1-.27a.61.61,0,0,1,.15,0C85.21.71,85.12.67,85.06.63Zm.19,92.26c-.08.11,0,0,0-.06S85.28,92.84,85.25,92.89ZM85.26.7Zm.09,92.52s.05-.09.09-.08A.1.1,0,0,1,85.35,93.22Zm0-92.46c0,.09,0,0,0,0Zm.12.23q-.1-.06,0-.15S85.58,1,85.49,1Zm.33,92.44s.05,0,.05,0S85.81,93.47,85.82,93.43Zm.21-.72c.27-.16.32.06.31.29-.08,0-.08,0-.07,0C86,93.12,85.71,92.89,86,92.71ZM86.1,1.35s0-.09,0,0Zm.1-.46s0,.06,0,0S86.2.94,86.2.89Zm0-.14c0,.05.13.2,0,.14A.14.14,0,0,1,86.23.75Zm-.12,92.61,0,0C86.49,92.66,86.59,93.67,86.11,93.36ZM86.46.74v0c.09-.14.22.08.16.19S86.45.81,86.46.74Zm.16,92.9Zm.21-.12c-.16.08-.39,0-.25-.18s.3-.06.3.15C86.83,93.53,86.83,93.53,86.83,93.52Zm-.12-93V.55S86.69.51,86.71.48Zm.08-.09v0S86.72.38,86.79.39Zm0,.13,0-.07.06,0C86.88.55,86.84.56,86.81.52Zm.62,92.21c-.07.21-.33.29-.4,0s.24-.29.42-.12C87.44,92.72,87.44,92.74,87.43,92.73Zm.85.21c-.07.15-.25.2-.33.09s0-.37.2-.32.12.14.16.18S88.28,93,88.28,92.94Zm.08-92Zm.35-.26c.05,0,0,0,0,0Zm.06,0Zm.36,92.51c-.13.11-.36.1-.29-.11s.26-.14.33.06C89.14,93.17,89.12,93.18,89.13,93.17ZM91.53.64s0,0,.07,0Zm.61,92.05c-.1.19-.36.23-.39,0s.27-.24.42,0C92.15,92.68,92.14,92.7,92.14,92.69Zm.27.36c-.08.11,0,0,0-.07S92.45,93,92.41,93.05Zm0-92.61s0,0,0,0ZM90.84.11m-8.26,0M67.43.18c0,.09,0,0,0,0s.12-.13.11-.09m-7.21,0h.08M45.76.09s.37,0,.2-.11c0,.17-.11,0-.16,0Zm-2-.14a.41.41,0,0,1,0,.11s.07,0,0-.1h0ZM41.68,0l0,.07s.14,0,0-.07Zm-.19,0c-.07,0-.14.13-.1.2s0-.06,0-.06a.22.22,0,0,0,.09-.1c0,.07,0,0,.1,0A.13.13,0,0,0,41.54,0ZM31.67,0c-.1.16-.05.08,0,.12a.12.12,0,0,1,0-.12ZM14.43,0a.08.08,0,0,0,0,.07l-.07,0h.08A.19.19,0,0,0,14.54,0c-.06,0-.07,0-.09,0ZM11,0s0,.05,0,.07,0,0,0-.07ZM8.83,0a.21.21,0,0,0,.08.14H9L8.85,0ZM.46,0,.43,0c.12,0,.1.06.22,0a.44.44,0,0,0,0,.2C.69.08.8.22.85.26S.89.1.87.08.76,0,.69,0A.42.42,0,0,0,.46,0ZM.07,2.74a.08.08,0,0,0,0,0s0-.06,0-.1,0,0,0,0Zm0,1.2a.19.19,0,0,0,.12,0C0,4,.18,3.8.08,3.8s0,0,0,0A.22.22,0,0,0,.07,3.94Zm0,1.29a.29.29,0,0,0,0,.09c0-.05,0-.15.07-.18a.06.06,0,0,0-.09,0v.11Zm0,5.21s0,0,0,.05.05-.08,0-.1a.06.06,0,0,0,0,0Zm0,.75s0,0,0-.1.16,0,.07-.09-.09,0-.12.08A.13.13,0,0,0,.07,11.19Zm0,1a.53.53,0,0,0,0,.13c.16-.07.1-.13,0-.16Zm0,7.16c.16-.06,0-.21,0,0Zm0,3.22s0,0,0,.05a.07.07,0,0,0,0-.11s0,0,0,.05Zm0,7.75s0,0,0,.05a.07.07,0,0,0,0-.11s0,0,0,.05Zm0,3.75s0,0,0,.05a.07.07,0,0,0,0-.11s0,0,0,0Zm0,2.9s0,0,0-.07.05,0,0,0l-.07,0Zm0,.62s0,.06.09.07a.91.91,0,0,1,.11-.3c-.13,0-.06.2-.15.2a.1.1,0,0,0,0-.1h0ZM.07,40h0s0-.09,0-.1,0,.1,0,.1a.37.37,0,0,0,0,.15c.13-.08.15-.22.18-.36A1.23,1.23,0,0,0,.07,40C0,40,.07,40,.07,40ZM91.6.06m.28.19s0,.06,0,0Zm-.09.08s0,0,0,0Zm-6.71,0,0,0S85.06.35,85.08.34ZM85,.4ZM70.65.59s0,0,0,0S70.69.58,70.65.59Zm-.11.17ZM67.81.43ZM60.49.72c0,.07,0,0,0,0ZM60.1.57h0ZM53.28.49s0,0,0,0Zm-.59.26s0,0,0,0ZM52.41.47s0,0,0,0ZM52.1.94c.08,0,0,0,0,0ZM48.61.49c0-.08,0,0,0,0Zm-.07,0c.07,0,0,0,0,0ZM67.47,0,92.89,73.48c0,.09,0,.1,0,.15S92.87,73.53,92.89,73.48ZM93.06,59h0a0,0,0,0,1,0,0S93.08,59,93.06,59Zm0,0s0,0,0,0h0S93.11,58.91,93.08,58.91Zm0-.55c0,.06-.08.06-.12,0S93.05,58.39,93.08,58.36Zm.09.21c0,.09-.09.1-.08.16s0,.11-.11.15l-.08-.09A.43.43,0,0,1,93.17,58.57ZM93,60.05h-.12C92.94,60,92.94,60,93,60.05ZM93,57a.09.09,0,0,1-.13,0S93,57,93,57Zm.18-.54s-.06,0-.08,0S93.14,56.38,93.17,56.41Zm0,.14,0,0s0,0,0,0S93.16,56.53,93.17,56.55Zm-.07-.07a0,0,0,0,1,0,.05s0,0,0,0Zm-.1-.11s-.06,0-.08,0S93,56.34,93,56.37Zm.09-4.5a.1.1,0,0,1-.14,0A.12.12,0,0,1,93.09,51.87ZM93,51.71l0,0s-.07,0-.08,0S93,51.72,93,51.71Zm-.09,0s0,0,0,0,0,0,0,0ZM93,56.62h.16l.06.07s-.09,0-.12,0l0,.07a.32.32,0,0,1-.26-.06Zm.19-32.71-.1,0-.05,0A.11.11,0,0,1,93.14,23.91Zm0,1.67c-.06.07-.11.12-.18.08s0,0,0-.08Zm-.32-9.47a0,0,0,0,1,0,0A0,0,0,0,1,92.78,16.11ZM93,9.87v0a0,0,0,0,1,0,.05S93,9.89,93,9.87Zm0-.16s0,0,0,0S93,9.73,93,9.71Zm0-.87a.06.06,0,0,1,0,.08.13.13,0,0,1-.12,0C93,8.87,93,8.83,93.06,8.84Zm0-.35.15,0c0,.06-.08,0-.12,0s.06,0,0,.09-.08,0-.23,0l-.06-.07C92.91,8.61,92.93,8.49,93.07,8.49Zm-.24-.22s0,0,.06,0l0-.05a.08.08,0,0,1,0,.09A.11.11,0,0,1,92.83,8.27ZM93,7.88a0,0,0,0,1,0,0S93,7.89,93,7.88Zm0-.62c-.08.06-.11,0-.23,0C92.86,7.16,92.91,7.2,93,7.26Zm0,14.35c-.08.06-.11-.05-.23,0C92.86,21.51,92.91,21.56,93,21.61ZM92.73.55c-.14,0-.15,0-.13-.13s0,0,0,0a.06.06,0,0,1,0,0V.43Zm-.1-.34-.07,0S92.61.18,92.63.21Z" transform="translate(0 0.07)" style="fill:#1e1e1e"/></svg>