<?xml version="1.0" encoding="utf-8"?>
<!-- Generator: Adobe Illustrator 25.4.1, SVG Export Plug-In . SVG Version: 6.00 Build 0)  -->
<svg version="1.1" id="Layer_1" xmlns="http://www.w3.org/2000/svg" xmlns:xlink="http://www.w3.org/1999/xlink" x="0px" y="0px"
	 viewBox="0 0 124.4 93.9" style="enable-background:new 0 0 124.4 93.9;" xml:space="preserve">
<style type="text/css">
	.st0{fill:#1E1E1E;}
</style>
<path class="st0" d="M123.5,93.4L123.5,93.4L123.5,93.4z M124,92.3C124,92.3,124.1,92.3,124,92.3C124.1,92.5,124.1,92.4,124,92.3
	C123.9,92.4,124,92.3,124,92.3z M123.6,92.4L123.6,92.4L123.6,92.4L123.6,92.4z M123.2,92L123.2,92L123.2,92L123.2,92z M123.2,91.7
	L123.2,91.7L123.2,91.7L123.2,91.7L123.2,91.7z M123.7,90.6L123.7,90.6L123.7,90.6L123.7,90.6z M123.6,90.8L123.6,90.8L123.6,90.8
	L123.6,90.8z M123.6,90.5L123.6,90.5L123.6,90.5L123.6,90.5L123.6,90.5z M123.3,90.2c0.1,0.1,0,0.2,0.1,0.2c-0.1,0,0,0.2-0.2,0.2
	s-0.1-0.1-0.1-0.2S123.4,90.3,123.3,90.2L123.3,90.2z M123.4,89.4L123.4,89.4L123.4,89.4C123.4,89.4,123.5,89.4,123.4,89.4
	L123.4,89.4z M123.4,88.6L123.4,88.6L123.4,88.6L123.4,88.6z M123.1,86.9L123.1,86.9C123.1,86.9,123,86.9,123.1,86.9L123.1,86.9z
	 M123,88.1L123,88.1C123.1,88.1,123.1,88.2,123,88.1C122.9,88.2,123.1,88.2,123,88.1L123,88.1z M123,91.3l0.2,0.1L123,91.3
	C123,91.4,123,91.3,123,91.3z M122.9,93c0,0-0.1,0.1-0.2,0.1C122.8,93.1,122.8,93,122.9,93L122.9,93z M122.9,87.1
	C122.8,87.1,122.8,87.1,122.9,87.1C122.8,87,122.8,87,122.9,87.1L122.9,87.1z M123.8,86L123.8,86C123.8,86,123.7,86,123.8,86
	L123.8,86z M123.6,86.1c0.1,0,0.2,0.1,0.2,0.1L123.6,86.1L123.6,86.1z M123.2,85.4L123.2,85.4C123.1,85.4,123.1,85.3,123.2,85.4
	L123.2,85.4z M123.1,84.7C123.1,84.7,123.1,84.8,123.1,84.7C123.1,84.8,123,84.7,123.1,84.7L123.1,84.7z M123.1,86.5L123.1,86.5
	C123.1,86.6,123.2,86.6,123.1,86.5C123,86.6,123,86.5,123.1,86.5L123.1,86.5L123.1,86.5z M123.3,81.9L123.3,81.9
	C123.2,81.9,123.1,81.8,123.3,81.9L123.3,81.9z M123.3,82.9C123.2,82.9,123.2,82.9,123.3,82.9C123.2,82.7,123.2,82.8,123.3,82.9
	L123.3,82.9z M123.3,81.4c-0.1,0-0.1,0-0.2,0l0,0H123.3z M123.3,83.3L123.3,83.3C123.3,83.4,123.2,83.4,123.3,83.3L123.3,83.3z
	 M123.1,83.3L123.1,83.3L123.1,83.3z M123,80.6L123,80.6L123,80.6c0,0.2-0.1,0.2-0.2,0.1c0,0-0.1-0.1,0-0.2L123,80.6z M123.5,79.5
	L123.5,79.5h-0.2H123.5z M123.9,79.2L123.9,79.2h-0.2H123.9z M123.4,79C123.4,79.1,123.4,79.1,123.4,79L123.4,79z M123.2,79.4
	C123.2,79.4,123.2,79.5,123.2,79.4C123.2,79.5,123.1,79.5,123.2,79.4c-0.1-0.1-0.2,0-0.2,0H123.2z M123.1,78.6L123.1,78.6
	C123.1,78.6,122.9,78.6,123.1,78.6L123.1,78.6z M123.2,78.3L123.2,78.3H123H123.2z M123.1,78.3L123.1,78.3L123.1,78.3h-0.2H123.1z
	 M123.2,75.8L123.2,75.8C123.2,75.9,123.1,75.9,123.2,75.8L123.2,75.8z M123.2,73.9L123.2,73.9L123.2,73.9z M123.2,74.2L123.2,74.2z
	 M123,73.9L123,73.9C123,73.9,123.1,73.9,123,73.9L123,73.9C123.1,74,123,74,123,73.9S123,74,123,73.9L123,73.9z M123,73.8L123,73.8
	L123,73.8L123,73.8L123,73.8z M123.6,72.2L123.6,72.2L123.6,72.2L123.6,72.2z M123.3,71.7L123.3,71.7
	C123.2,71.7,123.3,71.8,123.3,71.7L123.3,71.7z M123.2,72.4L123.2,72.4L123.2,72.4L123.2,72.4L123.2,72.4z M123.4,70.1
	c-0.1,0-0.1,0-0.2,0C123.3,70.1,123.3,70.1,123.4,70.1L123.4,70.1z M123.3,67.9v0.2C123.3,68.1,123.2,68.1,123.3,67.9L123.3,67.9z
	 M123.2,69.6L123.2,69.6L123.2,69.6L123.2,69.6z M123.1,66L123.1,66L123.1,66L123.1,66z M123.1,66.1L123.1,66.1
	C122.9,66.1,123,66.1,123.1,66.1L123.1,66.1z M123.3,65.3L123.3,65.3z M123,64.1L123,64.1L123,64.1z M123.6,63.3c-0.1,0-0.1,0-0.2,0
	H123.6z M123.2,59.6L123.2,59.6L123.2,59.6C123.2,59.6,123.1,59.6,123.2,59.6L123.2,59.6z M123,59.7L123,59.7L123,59.7z M123.2,58.9
	L123.2,58.9C123.2,59.1,123.2,59,123.2,58.9L123.2,58.9z M123.2,57.8c-0.1,0-0.1,0-0.2,0C123.1,57.8,123.1,57.8,123.2,57.8
	L123.2,57.8z M123.7,54.5L123.7,54.5L123.7,54.5z M123.4,52.4L123.4,52.4C123.4,52.6,123.3,52.5,123.4,52.4L123.4,52.4z M123.3,53.4
	L123.3,53.4C123.3,53.4,123.2,53.4,123.3,53.4L123.3,53.4z M123.3,50.6L123.3,50.6L123.3,50.6z M123.1,50.2
	C123.1,50.2,123.2,50.2,123.1,50.2c-0.1,0.2-0.1,0-0.2,0S123.1,50.2,123.1,50.2L123.1,50.2z M123.8,48.4L123.8,48.4
	C123.7,48.4,123.7,48.4,123.8,48.4L123.8,48.4z M123.6,48C123.7,48.1,123.7,48.1,123.6,48L123.6,48z M123.3,48.4L123.3,48.4
	C123.3,48.4,123.2,48.4,123.3,48.4L123.3,48.4z M123.2,45.9L123.2,45.9C123.2,45.9,123.1,45.9,123.2,45.9L123.2,45.9z M123,45.7
	L123,45.7L123,45.7L123,45.7z M123.1,49.2L123.1,49.2C123,49.2,123.1,49.3,123.1,49.2L123.1,49.2z M123.6,41.7L123.6,41.7
	L123.6,41.7L123.6,41.7z M123.6,39.1L123.6,39.1L123.6,39.1C123.6,39.1,123.5,39.2,123.6,39.1L123.6,39.1z M123.6,39.1L123.6,39.1
	L123.6,39.1C123.6,39.1,123.4,39.2,123.6,39.1L123.6,39.1z M123.3,37.8L123.3,37.8C123.3,37.8,123.1,37.9,123.3,37.8L123.3,37.8z
	 M123.3,41.4L123.3,41.4L123.3,41.4L123.3,41.4z M123.4,42.2h-0.3C123.2,42.2,123.2,42.2,123.4,42.2L123.4,42.2z M123.2,41L123.2,41
	C123.2,40.9,123.1,41.1,123.2,41L123.2,41z M123.2,37.8L123.2,37.8c-0.2,0.1-0.2,0.1-0.2,0.1L123.2,37.8z M123.2,38.7L123.2,38.7
	C123.3,38.6,123.3,38.6,123.2,38.7C123.4,38.7,123.3,38.7,123.2,38.7C123.2,38.7,123.3,38.7,123.2,38.7L123.2,38.7l-0.2,0.1
	L123.2,38.7z M123.2,39.6c0.1,0,0.1,0.1,0.2,0.1C123.3,39.7,123.3,39.7,123.2,39.6L123.2,39.6z M123.3,35.6L123.3,35.6L123.3,35.6
	c0,0.2-0.1,0.2-0.1,0.2c-0.1,0-0.1-0.1-0.1-0.2L123.3,35.6z M123.3,36.3L123.3,36.3c-0.1,0-0.1,0.1-0.2,0.1L123.3,36.3z M123,34.8
	c-0.1,0.1-0.1,0-0.2,0S123,34.8,123,34.8z M123.1,34.4L123.1,34.4C123.1,34.5,123.1,34.4,123.1,34.4L123.1,34.4z M123.2,33.5
	L123.2,33.5L123.2,33.5L123.2,33.5z M123.1,33.9L123.1,33.9L123.1,33.9z M123.3,32.6L123.3,32.6C123.3,32.6,123.3,32.7,123.3,32.6
	L123.3,32.6z M123.2,31c0,0,0-0.1,0-0.2C123.2,30.8,123.3,30.9,123.2,31C123.2,30.9,123.2,31,123.2,31L123.2,31z M123.2,30.4
	C123.3,30.4,123.2,30.4,123.2,30.4c0,0.1,0.1,0.1,0.1,0.1v0.3c-0.1,0.1-0.1-0.1-0.2,0C123.1,30.5,123.2,30.5,123.2,30.4L123.2,30.4z
	 M123.1,29.1L123.1,29.1L123.1,29.1L123.1,29.1L123.1,29.1z M123.1,31.3L123.1,31.3C123,31.3,123.1,31.3,123.1,31.3L123.1,31.3z
	 M123.6,27.6l-0.2,0.1c0-0.1,0-0.1-0.1-0.1C123.4,27.6,123.5,27.6,123.6,27.6L123.6,27.6z M122.8,27.1L122.8,27.1z M122.9,32
	L122.9,32C123,32.1,123,32.1,122.9,32C122.9,32.1,122.9,32.1,122.9,32L122.9,32z M122.9,34.2L122.9,34.2
	C122.8,34.1,122.9,34.1,122.9,34.2C123,34.1,123,34.1,122.9,34.2L122.9,34.2L122.9,34.2z M123,31.4L123,31.4z M122.9,29.1
	c0.1,0.1,0,0.1-0.1,0.1S122.9,29.2,122.9,29.1L122.9,29.1z M123,27.3L123,27.3C123,27.4,123,27.3,123,27.3L123,27.3z M123.2,26.7
	c-0.1,0-0.1,0.1-0.2,0.2h-0.2c0,0,0-0.1-0.1-0.1C122.9,26.8,123.1,26.7,123.2,26.7L123.2,26.7z M123,25.1l0.1,0.2
	C123,25.3,123,25.3,123,25.1L123,25.1z M123.3,22.3c-0.1,0,0-0.1-0.1-0.1C123.2,22.1,123.3,22.3,123.3,22.3L123.3,22.3z M123.1,19
	L123.1,19L123.1,19z M123.1,20.7C123.2,20.7,123.1,20.7,123.1,20.7C123.1,20.8,123.2,20.7,123.1,20.7L123.1,20.7z M123.1,21
	L123.1,21c0,0.2-0.1,0.1-0.2,0C123,21,123.1,21,123.1,21L123.1,21z M123,18.6L123,18.6L123,18.6z M122.9,18.7L122.9,18.7
	C122.9,18.6,122.9,18.6,122.9,18.7L122.9,18.7z M123.4,16.7c0.1,0.1,0,0.1-0.1,0.1S123.3,16.7,123.4,16.7L123.4,16.7z M123.1,17.1
	L123.1,17.1C123,17.1,123,17.1,123.1,17.1L123.1,17.1z M123,16c-0.1,0-0.1,0-0.2,0C122.9,16,122.9,16,123,16L123,16z M123.6,12.4
	L123.6,12.4C123.6,12.6,123.5,12.5,123.6,12.4L123.6,12.4z M123.1,13.1L123.1,13.1C123.1,13.2,123,13.1,123.1,13.1L123.1,13.1z
	 M123.3,10.7L123.3,10.7C123.3,10.7,123.3,10.6,123.3,10.7L123.3,10.7z M123.2,11c-0.1,0-0.1,0-0.2,0C123,10.9,123.1,11,123.2,11
	L123.2,11z M122.9,11.8c0,0.1,0,0.1-0.1,0.1L122.9,11.8z M123.4,9.2C123.4,9.2,123.4,9.3,123.4,9.2C123.4,9.4,123.3,9.3,123.4,9.2
	L123.4,9.2L123.4,9.2z M123.3,6.2L123.3,6.2L123.3,6.2L123.3,6.2z M123.3,4.6L123.3,4.6L123.3,4.6z M123.2,4L123.2,4z M123.4,3.3
	L123.4,3.3L123.4,3.3L123.4,3.3L123.4,3.3z M123.3,3.4C123.4,3.4,123.3,3.4,123.3,3.4C123.3,3.6,123.2,3.4,123.3,3.4L123.3,3.4z
	 M123.5,2.2L123.5,2.2C123.5,2.2,123.4,2.1,123.5,2.2L123.5,2.2z M123.5,1.5L123.5,1.5h-0.2C123.4,1.5,123.4,1.5,123.5,1.5
	L123.5,1.5z M123.3,2.5L123.3,2.5L123.3,2.5z M123.2,2.8L123.2,2.8z M123.2,2.6L123.2,2.6z M123.2,1.1c0,0-0.1,0-0.2,0
	C123.1,1.1,123.2,1.1,123.2,1.1z M123,4c-0.1,0-0.1-0.1-0.2-0.1C123,3.8,123,4,123,4z M122.9,1.3L122.9,1.3L122.9,1.3L122.9,1.3z
	 M123,6.9C122.9,6.9,123,6.9,123,6.9C123,6.7,123,6.8,123,6.9L123,6.9L123,6.9L123,6.9C123.1,6.9,123.1,6.9,123,6.9z M123.1,6.3
	L123.1,6.3L123.1,6.3L123.1,6.3z M123,6.7c-0.1,0-0.1,0-0.2,0C122.9,6.6,122.9,6.6,123,6.7L123,6.7z M122.9,0.4L122.9,0.4
	c-0.1,0.2-0.2,0-0.2,0C122.7,0.3,122.8,0.3,122.9,0.4L122.9,0.4z M1.1,0.1C1,0.2,1.1,0.1,1.1,0.1z M1,0.1C0.9,0.1,1,0.1,1,0.1z
	 M0.3,46.1c0.1-0.1,0.3-0.4,0-0.5v0.1C0.3,45.9,0.3,46,0.3,46.1z M0.3,48.9L0.3,48.9C0.3,48.9,0.4,48.8,0.3,48.9L0.3,48.9L0.3,48.9z
	 M0.3,53.6L0.3,53.6C0.3,53.6,0.4,53.5,0.3,53.6L0.3,53.6L0.3,53.6z M0.3,58.5C0.3,58.5,0.3,58.5,0.3,58.5L0.3,58.5L0.3,58.5z
	 M0.3,64L0.3,64L0.3,64L0.3,64L0.3,64z M0.3,66c0.2,0,0.2,0,0.3-0.1c0-0.1,0-0.3-0.1-0.4C0.5,65.6,0.4,65.7,0.3,66L0.3,66L0.3,66
	C0.5,65.8,0.4,65.9,0.3,66C0.2,66,0.1,65.9,0.3,66z M0.3,74L0.3,74c0,0,0.1-0.1,0.1-0.2C0.3,73.7,0.3,73.8,0.3,74L0.3,74z M0.3,74.8
	L0.3,74.8c0,0,0.1-0.2,0.2-0.2S0.3,74.7,0.3,74.8C0.2,74.8,0.3,74.8,0.3,74.8L0.3,74.8z M1,40l-0.2-0.1C0.9,39.8,1,39.8,1,39.8V40z
	 M1.2,32.3L1.2,32.3C1.1,32.3,1.3,32.3,1.2,32.3c0.2,0,0.2,0.4-0.1,0.3c0.1,0,0.1-0.1,0-0.1c-0.1,0-0.2,0-0.2,0.1s-0.1,0.2-0.1,0.1
	c0-0.2,0-0.4,0.1-0.6c0,0,0.2-0.4,0.2-0.3c0.2-0.1,0.3,0.1,0.3,0.1L1.5,32l0,0l0,0c0,0,0,0-0.1,0l0,0c0,0,0,0-0.1,0
	c-0.1,0-0.3,0.2-0.4,0.3C1.1,32.3,1.1,32.3,1.2,32.3L1.2,32.3z M1.2,32.7L1.2,32.7C1,32.7,1.2,32.7,1.2,32.7L1.2,32.7z M1.3,31.4
	C1.3,31.5,1.2,31.4,1.3,31.4L1.3,31.4z M1.3,31.2l0.1-0.1C1.4,31.1,1.4,31.2,1.3,31.2L1.3,31.2z M1.3,31.6L1.3,31.6L1.3,31.6
	L1.3,31.6z M1.6,32.3c0.1,0.1-0.1,0.1-0.1,0.2C1.4,32.6,1.4,32.4,1.6,32.3L1.6,32.3z M1.7,35.7c-0.1,0.1-0.1,0.2-0.2,0.3
	C1.4,35.8,1.5,35.7,1.7,35.7L1.7,35.7z M1.6,49.1c-0.1,0-0.3,0.2-0.3,0.3c0,0,0,0.2,0.2,0.3c0,0,0-0.1,0.1-0.1H1.5
	c-0.2-0.1,0.2-0.2,0.3-0.1c0.1,0.1-0.1,0.5-0.3,0.4c-0.1,0,0.1-0.1,0-0.1C1.4,49.7,1.2,50,1.1,50s0-0.3,0-0.4c0-0.1,0-0.3,0.1-0.4
	c0,0,0-0.3,0.1-0.3c0.1,0,0.2,0,0.3-0.1C1.6,48.9,1.6,49,1.6,49.1c0.1-0.1,0.2,0,0.1,0.1C1.6,49.3,1.6,49,1.6,49.1L1.6,49.1z
	 M1.7,49.1C1.7,49.1,1.7,49.2,1.7,49.1C1.5,49.1,1.6,49.1,1.7,49.1L1.7,49.1z M1.5,63.6L1.5,63.6L1.5,63.6
	C1.5,63.6,1.4,63.6,1.5,63.6L1.5,63.6C1.4,63.6,1.4,63.5,1.5,63.6C1.5,63.6,1.4,63.6,1.5,63.6z M1.4,63.8
	C1.4,63.8,1.4,63.7,1.4,63.8C1.4,63.7,1.4,63.8,1.4,63.8z M1.4,62.1l-0.1,0.2C1.2,62.2,1.2,62.2,1.4,62.1z M1.2,61.5
	C1.1,61.5,1.2,61.5,1.2,61.5C1.2,61.4,1.3,61.5,1.2,61.5z M1.4,61.2L1.4,61.2C1.5,61.2,1.5,61.2,1.4,61.2L1.4,61.2z M1.4,57.6
	C1.4,57.7,1.4,57.7,1.4,57.6C1.2,57.7,1.3,57.7,1.4,57.6L1.4,57.6z M1.2,57L1.2,57C1.4,57,1.3,57,1.2,57L1.2,57z M1.4,58.7
	c0,0.1-0.1,0.3-0.2,0.2C1.3,58.8,1.3,58.7,1.4,58.7L1.4,58.7z M1.5,59.7c0,0.1,0,0.2-0.2,0.2C1.3,59.8,1.5,59.8,1.5,59.7L1.5,59.7z
	 M1.5,56.7L1.5,56.7C1.6,56.7,1.6,56.7,1.5,56.7L1.5,56.7z M1.5,53.5c-0.1-0.1,0-0.1,0.1-0.2C1.6,53.3,1.5,53.4,1.5,53.5L1.5,53.5z
	 M1.5,55.7c0,0.1-0.1,0.1-0.2,0.2L1.5,55.7z M1.5,54.6l-0.2,0.1C1.3,54.7,1.4,54.6,1.5,54.6L1.5,54.6z M1.5,52.1
	c0-0.1,0.1-0.2,0.2-0.2C1.7,52,1.7,52.1,1.5,52.1L1.5,52.1z M1.5,49.9C1.4,49.9,1.4,49.9,1.5,49.9C1.5,49.8,1.6,49.9,1.5,49.9
	L1.5,49.9z M1.4,50.8c-0.1-0.1,0-0.1,0.1-0.2C1.6,50.5,1.5,50.8,1.4,50.8L1.4,50.8z M1.4,48.3C1.4,48.3,1.3,48.5,1.4,48.3L1.4,48.3z
	 M1.4,48C1.4,48,1.4,48.1,1.4,48C1.4,48.1,1.4,48.1,1.4,48L1.4,48z M1.3,48.6C1.3,48.6,1.3,48.5,1.3,48.6
	C1.3,48.5,1.4,48.6,1.3,48.6L1.3,48.6z M1.1,48.4C1.1,48.4,1.1,48.2,1.1,48.4L1.1,48.4z M1.3,46c0,0.1,0,0.1-0.1,0.2
	C1.2,46.1,1.2,46,1.3,46C1.2,46,1.3,46,1.3,46L1.3,46z M1.2,44.9c0-0.1,0.1-0.1,0.1-0.2L1.2,44.9L1.2,44.9z M1.2,44.8
	C1.1,44.7,1.3,44.7,1.2,44.8c-0.3-0.1-0.1-0.1-0.3-0.1s0,0.3-0.2,0l0.1-0.3c0-0.2,0-0.3,0.1-0.4c0.1-0.1,0.2-0.2,0.2-0.2
	c0.1-0.1,0.3-0.1,0.4-0.1c0.1,0.1-0.1,0.2,0,0.2c0.1,0.1,0.2,0,0.2,0.2S1.4,44,1.4,44.2c-0.1,0,0,0.1-0.2,0
	c-0.2,0.2-0.3,0.6,0.1,0.4c-0.1-0.1-0.2,0-0.2-0.1s0.3,0,0.4,0C1.3,44.5,1.6,44.8,1.2,44.8z M1,44.9C0.9,44.9,1,44.8,1,44.9
	C1,44.8,1.1,44.9,1,44.9L1,44.9z M1.3,43.4C1.4,43.4,1.3,43.4,1.3,43.4L1.3,43.4L1.3,43.4z M1.6,44C1.6,44,1.6,44.1,1.6,44
	C1.4,44.1,1.5,44,1.6,44L1.6,44z M1.8,49.3c0.1,0.1,0,0.2,0,0.3C1.6,49.4,1.9,49.5,1.8,49.3L1.8,49.3z M1.6,44.6
	c-0.1-0.1,0.1-0.2,0.2-0.3C1.8,44.5,1.7,44.6,1.6,44.6z M1.7,29.8c0,0.1-0.1,0.2-0.2,0.2C1.6,29.9,1.6,29.9,1.7,29.8z M1.6,26.8
	c0-0.1,0-0.2,0.2-0.2C1.7,26.6,1.7,26.7,1.6,26.8z M1.4,43.1c0.1,0,0,0.2-0.1,0.2c-0.1,0-0.2-0.1-0.1-0.2C1.3,43,1.4,43.3,1.4,43.1z
	 M1.2,42.2L1.2,42.2L1,42c-0.1,0-0.1,0.1-0.2,0.2s0.1-0.2,0.1-0.3c0,0,0-0.1-0.1-0.1L1,41.7c0.1-0.1-0.1-0.2,0.1-0.2
	s0.3,0.1,0.2,0.2c-0.1,0.1-0.2,0-0.2,0s0,0.2-0.1,0.2c0.1,0,0.1,0,0.2,0c0,0-0.1-0.2,0.1-0.1S1.1,41.9,1.2,42c0,0.1-0.1,0-0.1,0
	L1.2,42.2z M0.8,42.2L0.8,42.2L0.8,42.2z M1.3,39.4c0,0.1-0.1,0.1-0.1,0.2C1.2,39.5,1.2,39.5,1.3,39.4L1.3,39.4z M1.2,38.2
	C1.3,38.3,1.2,38.3,1.2,38.2C1.2,38.4,1.2,38.2,1.2,38.2z M1.2,40.8C1.2,41,1.1,41,1,41.1C1.1,41,1.2,40.9,1.2,40.8z M1.3,41.9
	C1.2,41.9,1.3,41.8,1.3,41.9C1.3,41.8,1.4,41.9,1.3,41.9L1.3,41.9z M1.2,37.1C1.2,37,1.2,37,1.2,37.1L1.2,37.1
	C1.4,37,1.3,37,1.2,37.1z M1.1,47.3C1.1,47.2,1.1,47.2,1.1,47.3C1.2,47.3,1.1,47.3,1.1,47.3z M1.2,47.4L1.2,47.4
	C1.1,47.4,1.2,47.4,1.2,47.4L1.2,47.4z M0.9,58L0.9,58C0.9,57.9,0.9,58,0.9,58z M1.2,59.4C1.3,59.5,1.3,59.5,1.2,59.4
	C1.1,59.5,1.2,59.4,1.2,59.4z M1.1,60.3V60C1.2,60.2,1.3,60.3,1.1,60.3z M1.2,63.5C1.2,63.5,1.2,63.6,1.2,63.5
	C1.1,63.5,1.1,63.5,1.2,63.5L1.2,63.5z M1,62.7L1,62.7C1.1,62.7,1,62.7,1,62.7L1,62.7z M1,62.7C1,62.6,1,62.5,1,62.7
	C1.1,62.6,1.1,62.7,1,62.7L1,62.7z M1.7,79.7C1.6,79.7,1.7,79.7,1.7,79.7c-0.2-0.1-0.3,0-0.3,0.1C1.2,80.1,1.3,80,1.5,80
	c0,0,0,0-0.1,0.1h0.1c0-0.1-0.2,0-0.1-0.2c0.1-0.2,0.2,0.1,0.3,0c-0.1,0.2,0,0.4-0.2,0.5s-0.1,0-0.1-0.1s-0.1,0.1-0.2,0l-0.1,0.1
	c-0.1,0-0.1-0.6,0-0.7s0.1-0.2,0.2-0.3c0-0.1,0-0.1,0.1-0.1c0.1,0,0.2,0,0.2-0.1s0,0.2,0,0.2s0.1,0.2,0.1,0.1S1.8,79.5,1.7,79.7
	C1.8,79.7,1.6,79.6,1.7,79.7C1.6,79.8,1.7,79.7,1.7,79.7L1.7,79.7z M1.7,80.5L1.7,80.5C1.5,80.4,1.5,80.4,1.7,80.5L1.7,80.5z
	 M1.1,81.7C1.1,81.6,1,81.7,1.1,81.7C1.1,81.6,1.1,81.6,1.1,81.7C1.2,81.6,1.2,81.7,1.1,81.7z M1.1,81.8C1.1,81.8,1.1,81.7,1.1,81.8
	C1.2,81.7,1.1,81.8,1.1,81.8L1.1,81.8z M1.2,81.3c-0.1-0.1,0-0.1,0.1-0.2C1.3,81.1,1.2,81.2,1.2,81.3z M1.4,80.5v0.2h0.1
	c0,0,0.1,0,0,0.1C1.2,80.8,1.1,80.6,1.4,80.5L1.4,80.5z M1.6,73.2C1.7,73.1,1.7,73,1.9,73C1.7,73.1,1.7,73.2,1.6,73.2L1.6,73.2z
	 M1.4,73.4C1.5,73.4,1.5,73.5,1.4,73.4C1.3,73.5,1.4,73.4,1.4,73.4L1.4,73.4z M1.4,73.4L1.4,73.4C1.4,73.4,1.3,73.4,1.4,73.4
	L1.4,73.4c0-0.1-0.2-0.1-0.3-0.1c0,0.1,0,0.2-0.1,0.3c-0.2,0,0.1-0.8,0.2-0.9c0.1-0.1,0.2-0.3,0.4-0.2c0.2,0.1,0,0.1,0,0.2
	s0.1,0,0.2,0.1c-0.1,0-0.2,0-0.2,0c0,0.1,0.1,0,0.1,0.1c-0.4,0-0.2,0.1-0.4,0.3C1.4,73.3,1.5,73.2,1.4,73.4C1.5,73,1.2,72.9,1.6,73
	C1.5,73.1,1.6,73.2,1.4,73.4C1.4,73.4,1.5,73.3,1.4,73.4L1.4,73.4z M1.2,73.4L1.2,73.4L1.2,73.4z M1.7,68.2c0,0.1-0.1,0.2-0.1,0.3
	C1.4,68.3,1.5,68.2,1.7,68.2L1.7,68.2z M1.5,65.1c0,0,0,0.1,0,0.2l0,0C1.5,65.3,1.5,65.2,1.5,65.1z M1.4,65.1L1.4,65.1L1.4,65.1z
	 M1.2,67.1v0.2C1.1,67.2,1.1,67.1,1,67C1.1,67.1,1.2,67.1,1.2,67.1z M1,66.4L1,66.4C1,66.3,1.1,66.3,1,66.4z M1.5,69.6
	c0,0.1,0,0.1-0.1,0.2C1.3,69.8,1.4,69.6,1.5,69.6z M1.4,69.2C1.4,69.2,1.4,69.3,1.4,69.2C1.3,69.3,1.3,69.2,1.4,69.2z M1.1,69.5
	L1.1,69.5C1,69.5,1.1,69.5,1.1,69.5L1.1,69.5z M1.2,70.8c-0.1-0.1,0.1-0.1,0.1-0.2C1.4,70.7,1.3,70.8,1.2,70.8z M1.2,71.1
	C1.1,71.1,1.2,71,1.2,71.1C1.2,71,1.3,71.1,1.2,71.1z M1.2,77.8L1.2,77.8C1.2,77.7,1.3,77.7,1.2,77.8C1.4,77.8,1.3,77.8,1.2,77.8z
	 M1.2,78L1.2,78C1.3,78,1.3,78.1,1.2,78z M1.2,77C1.1,77,1.1,77,1.2,77C1.1,77,1.1,77,1.2,77L1.2,77z M0.9,75.6
	c-0.1-0.1,0-0.1,0.1-0.2S0.9,75.6,0.9,75.6z M0.9,74.7C0.9,74.7,0.9,74.6,0.9,74.7C0.9,74.6,0.9,74.6,0.9,74.7z M0.9,74.9
	c-0.2,0-0.2-0.1-0.3-0.1l0.1-0.1C0.7,74.7,0.9,74.7,0.9,74.9L0.9,74.9z M0.3,76.5C0.4,76.5,0.3,76.5,0.3,76.5c0.2,0.2,0.2-0.1,0-0.2
	c0.1-0.1,0.1-0.2,0.2-0.3c-0.1,0-0.2-0.1-0.2-0.1c-0.1,0.1,0,0.1,0,0.2c0,0,0,0.1-0.1,0.1v0.1C0.3,76.4,0.2,76.5,0.3,76.5z M0.3,77
	C0.3,77,0.3,77.1,0.3,77C0.3,77.2,0.3,77,0.3,77c0.2-0.1,0.2,0,0.2-0.1c-0.1-0.1,0-0.2-0.2-0.2C0.3,76.8,0.3,76.9,0.3,77L0.3,77z
	 M0.3,88.1C0.3,88,0.4,88.1,0.3,88.1C0.4,87.9,0.4,88,0.3,88.1L0.3,88.1C0.3,88.1,0.3,88.1,0.3,88.1z M0.3,92.9
	C0.4,92.9,0.5,92.9,0.3,92.9C0.3,92.8,0.3,92.8,0.3,92.9z M0.3,93.1L0.3,93.1C0.3,93.1,0.3,93,0.3,93.1L0.3,93.1z M123,93.4l0.4-0.1
	l0.1,0.1c0.1,0.1,0.1,0.1,0.2,0c0.1-0.1,0.2-0.1,0.2,0c0,0,0.1,0,0-0.1s-0.2,0-0.2-0.1s-0.1,0.1-0.2,0c0.1,0,0-0.1,0.1-0.1
	c0.1,0-0.1-0.1-0.2-0.1l0.2-0.2c0.1,0,0.1,0,0.2,0c-0.1,0-0.2-0.1-0.3-0.1c0.1,0,0.1,0,0.2,0l0.1-0.1c0,0,0-0.1-0.1-0.1h0.3
	c0.1-0.1,0-0.2,0-0.2h0.2l-0.2-0.2c-0.1,0.1-0.2,0.1-0.3,0c-0.1,0.1,0.1,0.1,0,0.1c-0.4-0.1-0.3-0.1-0.4-0.3c-0.1,0,0,0.1-0.1,0.1
	v-0.4c-0.1,0-0.1,0.1-0.2,0s0-0.1,0-0.1h-0.1c0,0,0,0,0-0.2s0.1-0.2,0.2-0.2l-0.1-0.2c0.1,0,0.2,0,0.2,0v-0.2h0.1c0,0-0.1,0.1,0,0.1
	s0.2,0,0.2,0v-0.1c0,0,0.1-0.1,0.1-0.2s0.1,0.1,0.1,0l0.1-0.2c0,0,0,0.1,0.1,0.1h0.1c0-0.1-0.2-0.2-0.2-0.3c-0.1,0-0.2,0-0.3,0
	c0-0.1,0-0.1-0.1-0.2l0,0l0,0c0,0-0.1-0.1,0-0.2c-0.1,0-0.3,0-0.4-0.1v-0.1c0.1-0.1,0.1-0.1,0.2-0.1v-0.1l0,0h-0.1
	c0-0.1,0.2-0.1,0.2-0.2h0.1c0.1,0,0.1,0,0.2,0V89h-0.1c0,0-0.2,0-0.1-0.2h-0.1c-0.1-0.1,0.1-0.1,0.1-0.2l-0.1-0.1l0.1-0.1h0.1
	c0,0,0,0,0-0.1s0-0.2,0.1-0.3h0.1c0,0,0,0,0-0.1s-0.2,0-0.2-0.1s-0.1,0.1-0.2,0l0.2-0.4c-0.1,0-0.3,0-0.4-0.2l0.1-0.2l-0.1-0.1
	c0,0,0.1-0.1,0.2-0.1c0,0,0-0.1,0-0.2c0.1,0,0.2,0,0.2,0l-0.1-0.1c0-0.1,0-0.1,0-0.2l0,0c-0.2-0.1-0.4-0.1-0.5-0.2
	c0.1,0,0.1,0,0.2,0h0.1h0.1c0,0-0.2-0.1-0.3-0.1s0,0,0,0l0,0l0,0c-0.1,0-0.3,0-0.4-0.2c0.1,0,0.2,0,0.3,0l0.3,0.1v-0.1
	c0,0-0.2-0.1-0.2-0.2s0,0,0,0h0.1c0,0-0.1-0.2-0.1-0.4c0.2,0.1,0.4,0.1,0.6,0.1c0,0,0,0,0-0.1s0.1,0,0.1-0.1v-0.2l0,0l-0.1-0.1h-0.1
	c-0.1-0.1,0-0.2-0.1-0.2s-0.2,0-0.3,0c0,0,0,0-0.1,0l-0.1-0.2c0.1-0.1,0.2-0.1,0.3-0.1c0-0.1-0.1-0.1-0.2-0.1l0.1-0.1
	c0,0-0.1-0.1,0-0.2s0,0.1,0.1,0.1c0-0.2,0.1-0.3-0.1-0.4h0.1l0,0c0,0-0.1,0-0.1-0.1l0,0H123c-0.1-0.1-0.2,0-0.2,0h0.1
	c0,0-0.1-0.1,0-0.1s0,0,0.2,0s0,0,0,0s-0.2,0-0.2-0.1s0.2,0,0.2-0.1H123 M123,84C123,84,123.1,84,123,84L123,84c0.2,0.1,0.1,0,0.2,0
	l0.2,0.1h0.1h-0.1c0,0,0.2,0,0.1-0.1c-0.1,0-0.1,0-0.2,0H123c0-0.2,0.2-0.2,0.3-0.3s-0.1,0-0.1,0s-0.1,0-0.1-0.1s0.1,0,0-0.1
	c0.1,0,0.2-0.1,0.3-0.1v-0.1c-0.1-0.1-0.2-0.1-0.3-0.1c0.1-0.1,0.1-0.2,0.3-0.3s0,0,0,0c0-0.1,0-0.2,0-0.3c0,0.1,0.1,0.2,0.2,0.2
	l0,0c0.1,0,0.1,0.1,0.2,0.1s0-0.1,0-0.1s-0.1-0.1-0.2-0.1v0.1c-0.1,0-0.1-0.2-0.2-0.2v-0.2l0,0l0.4,0.3v-0.1l0,0c0,0,0.1,0,0.2,0
	h-0.2c-0.1,0-0.2,0.1-0.3,0c0,0,0.1,0,0.2,0c0.1,0,0,0,0-0.1c0.1,0,0.1,0,0.2,0c0.1-0.1-0.1-0.1,0-0.2l-0.1,0.1
	c-0.2,0-0.3,0-0.4,0.1h-0.2c-0.1-0.1,0-0.2,0-0.3h0.1c0.1-0.1,0-0.1-0.1-0.2H123c0-0.1,0.1,0,0.1,0v0l0.2-0.1
	c-0.1,0-0.1-0.1-0.1-0.2s0-0.1,0-0.2h-0.1c-0.1,0,0-0.1,0-0.1l0,0c0-0.1,0.1-0.1,0.2-0.1h-0.1c-0.1,0-0.2,0-0.3,0l0.1-0.1h-0.1
	c0.1,0,0.1-0.1,0.1-0.1s0.1,0,0.2,0s-0.1,0-0.1,0c0-0.1-0.1-0.1-0.1-0.1c0-0.1,0-0.1,0.2-0.2H123h0.1l-0.1-0.7c0,0,0.1,0,0-0.1
	s-0.1,0-0.2,0c0,0,0,0,0-0.1c0.1,0,0.2,0,0.2,0.1c0,0,0,0,0-0.1l0,0c0.1,0,0.1-0.1,0.2-0.1v-0.1c-0.2,0-0.3,0-0.5-0.1
	c0.2-0.1,0.3-0.1,0.5-0.1c0,0,0,0,0,0.1s-0.1,0-0.2,0l0,0c0.1,0,0.2,0.1,0.4,0s0-0.1,0-0.2l0.1-0.1l-0.1-0.1c0-0.1,0.1,0,0.1-0.1
	S123.2,79,123,79c0,0,0.2,0,0.1-0.1c0.1,0,0.1,0,0.2-0.1c0.2,0,0.4,0,0.6,0c-0.1-0.1-0.1-0.2-0.2-0.2c0,0,0.1,0,0.2,0l0.1-0.2h-0.1
	c0,0.1-0.1,0.1-0.2,0.2c-0.1,0-0.1,0-0.2-0.1v0.1c-0.1,0-0.2-0.1-0.3-0.1v-0.1c-0.1-0.1-0.1,0-0.2,0s0,0,0,0s0.1-0.1,0.1-0.2
	s0.1,0,0.1,0c-0.1-0.2-0.1-0.2-0.2-0.2c0.1-0.1,0.1-0.2,0.1-0.2s0.2-0.1,0.2-0.2s0.2-0.1,0.2-0.2l-0.2,0.1c0,0,0-0.1-0.1-0.1
	l0.1-0.2h-0.1v0.1l0,0c0,0,0-0.2-0.1-0.2s0-0.1-0.1-0.1l0.1-0.2l0,0h0.1h-0.1c0.1-0.1,0.2-0.2,0.3-0.2s-0.1-0.2-0.1-0.2
	s-0.1,0.1-0.3,0.1l0.2-0.3c0.1,0,0.2,0,0.3-0.1c0,0-0.1-0.1,0-0.2c-0.1,0-0.2,0-0.2,0c0-0.1-0.1-0.1-0.2-0.1c0.2,0,0.4-0.2,0.4-0.3
	c-0.1,0-0.1-0.1-0.2-0.1s0,0,0,0.1s-0.1,0.1-0.2,0c0.1-0.1,0.2-0.3,0.3-0.4V75c0.1,0,0.1,0.1,0.2,0l-0.1-0.1c0,0,0,0-0.1,0
	s0,0.1-0.1,0.1s0-0.1,0-0.1l0.1-0.1c-0.1,0-0.2-0.1-0.2-0.2s0.1-0.1,0.1-0.2h0.1c0-0.1-0.1-0.2-0.1-0.3h0.1c0-0.1-0.1-0.1-0.1-0.2
	h-0.1c-0.1,0-0.1,0-0.2,0c0,0,0-0.1,0.1-0.1l0,0l0.1-0.1c-0.1,0-0.1,0-0.1-0.1s0-0.1-0.1-0.1h0.1c0,0,0,0-0.1,0c0,0,0,0-0.1,0
	s0-0.1-0.1-0.1l0.2-0.1c0-0.1-0.1-0.1-0.1-0.1s0.2-0.1,0.3-0.1V73c-0.1,0-0.1,0-0.2,0s0.1,0,0-0.1h0.2c0-0.1,0-0.1,0-0.2
	c0.1,0,0.3,0.1,0.4,0.1c0.1,0,0.1-0.1,0.1-0.2s-0.1,0-0.1-0.1s0,0,0.1,0.1c0.1,0.1,0,0,0.1,0s0-0.1,0-0.1s0.1,0,0.1,0.1h0.2l0.1-0.1
	c0-0.1-0.1,0.1-0.2,0.1c0.1-0.1,0-0.3,0.2-0.4l-0.1-0.1c-0.1,0,0,0.2-0.2,0.1s0,0,0-0.1h0.1h-0.1v0.1c0,0-0.1-0.1-0.2-0.1l0,0
	c-0.1,0,0.1-0.1,0-0.2h-0.2c0-0.1,0.1,0,0.1-0.1c-0.1,0-0.2,0-0.3-0.1c0-0.1,0.2,0,0.2-0.1c0.1-0.1-0.2,0-0.2-0.1l0,0h-0.1
	c0-0.1,0.1-0.1,0-0.2c0.1-0.1,0.3-0.1,0.3-0.2c0-0.2-0.1,0-0.2,0s-0.1,0-0.1-0.1s0.1,0.1,0.2,0s0,0,0,0h-0.2c0,0,0,0,0.1-0.1
	s0.1,0.1,0.2,0l0.2-0.1h0.1c0,0,0,0,0.1,0s0.1,0.1,0.2,0.1l0.1-0.2c-0.1,0-0.1,0-0.1,0s0-0.1-0.1-0.1h-0.1v-0.2c-0.1,0,0,0-0.1,0.1
	s0-0.1,0-0.1h-0.2l0.1-0.1c-0.1-0.1-0.1-0.1-0.2,0l-0.1-0.1c0-0.1,0.1-0.2,0.2-0.2c0.1,0-0.1-0.1-0.1-0.1l0,0h-0.1h0.1v-0.2
	c0-0.1,0.3-0.1,0.3-0.2s-0.1,0-0.1,0s0,0,0-0.1s0,0-0.1,0c-0.1,0,0-0.1-0.1-0.2c-0.1,0,0-0.2,0.1-0.3c0.1-0.1,0-0.2,0.1-0.2
	c0-0.1,0-0.1,0-0.2h-0.1c-0.1-0.1,0-0.3-0.1-0.4c0.1,0,0.1,0,0.2-0.1c0-0.1-0.1-0.1-0.2-0.1s0-0.1,0-0.1v-0.1
	c-0.1,0-0.2-0.1-0.2-0.1h0.1c0,0,0-0.1,0.1-0.1l-0.2-0.4c0.1,0,0.2,0,0.3,0c0.1,0,0,0-0.1,0h-0.1c0-0.1,0.1-0.1,0.2-0.2
	c0.1,0-0.1,0-0.1-0.1c-0.1,0,0-0.1,0-0.1s-0.1-0.1,0-0.2s-0.1-0.1-0.1-0.1c0-0.1,0,0,0.1,0s0,0.1,0.1,0.1h0.3c0,0-0.1-0.1-0.1-0.2
	s-0.2-0.1-0.4,0c0-0.1,0.1-0.1,0-0.1s-0.2,0-0.3,0l-0.1-0.1c0.1,0,0.2-0.1,0.3-0.1H123v-0.1h0.3c0-0.1-0.1-0.1-0.2-0.2
	c-0.1,0,0.2-0.1,0.2-0.2s0.1,0.1,0.2,0s0,0,0-0.1l-0.1-0.1c0.1,0,0.3,0,0.2-0.2c0-0.2-0.1,0-0.1,0V65h0.1v0.1h0.1c0.1,0,0,0.1,0,0.1
	c0,0.1,0-0.1,0.1-0.1s-0.1-0.1-0.2-0.1c-0.1,0,0-0.1,0-0.1h-0.1l0.2-0.1c-0.1-0.1-0.1,0-0.2,0h-0.1c-0.1,0.1,0,0.2,0,0.2
	c0,0.1,0-0.1,0-0.2l-0.3-0.2l0.1-0.1h0.1c0.1-0.2,0-0.3-0.2-0.4l0.2-0.2c0.1,0,0.1,0,0.1,0v-0.1c-0.1,0-0.2,0-0.3,0
	c-0.1,0-0.1,0.1-0.1,0.1c-0.1,0-0.1,0-0.2,0v-0.1c0.2-0.1,0.3-0.1,0.5-0.1v-0.1h0.2c0,0,0,0,0-0.1s-0.1-0.1,0-0.2
	c0.1-0.1,0.1,0.1,0.1,0.1s0,0,0-0.1s0,0,0.1,0c0.1,0,0-0.1,0-0.1s-0.1-0.1,0-0.1h0.1l0.2,0.1h0.1l0,0l0.1-0.1l0,0h-0.1
	c0,0,0,0,0-0.1s-0.2,0-0.3,0c-0.1,0,0,0,0-0.1c-0.1-0.1-0.1-0.1-0.2-0.1v-0.1c-0.1,0-0.2,0.1-0.3,0.1s0.2-0.2,0.2-0.3s0.1,0,0.1-0.1
	s0-0.1-0.1-0.1l0,0l0,0l0,0h-0.1c0,0,0,0,0-0.1l-0.1,0.1c0,0,0,0,0-0.1s0.1-0.1,0.1-0.1l-0.1-0.1l0,0c0,0,0.1,0,0.2-0.1
	c0-0.1-0.1,0-0.1,0s0.1,0,0.1-0.1s-0.2,0-0.2-0.2l0,0h-0.1c-0.1-0.1,0.1-0.1,0-0.1s0-0.1,0-0.2s0.1-0.1,0.1-0.1s-0.1,0-0.2,0
	s0,0,0,0v-0.1c0,0,0.1,0,0.2,0s0-0.1,0-0.1l-0.1-0.1c0,0,0,0,0.1,0h0.1c0,0,0,0,0.1-0.1s-0.1-0.1-0.1-0.2l0.1-0.1h0.1l0,0h-0.1h-0.1
	c-0.1,0,0-0.1,0-0.1l-0.1,0.1c0,0-0.2-0.1-0.2-0.2c0-0.1,0,0-0.1,0s0,0,0-0.1h-0.1c0.1,0,0.2,0,0.2-0.1h-0.3c0-0.1,0-0.1,0-0.1
	c0.1,0,0.2-0.1,0.3-0.2c-0.1,0-0.1,0-0.2,0s0-0.1,0-0.1s0.1,0,0.1-0.1s-0.1,0-0.1,0s0.1-0.1,0-0.1s0.2,0,0.2,0v-0.1l0.1-0.1h-0.1
	c0,0,0,0-0.1,0v0.1c-0.1,0-0.1,0.1-0.2,0c0-0.1,0.1-0.1,0.2-0.2v-0.1c0,0,0.1-0.1-0.1-0.1c0.1,0,0.2,0,0.3-0.1
	c0.1,0,0.1-0.2,0.2-0.2s-0.1-0.1-0.1-0.1v-0.1h-0.1v0.1H123l0.1-0.1c-0.1-0.1-0.1-0.1,0-0.3c-0.1,0-0.1,0-0.1,0h-0.1c0,0,0,0,0-0.1
	s0.1,0,0.1,0s0.1-0.1,0.2-0.1c-0.1,0-0.2,0-0.2,0l0.1,0.1c-0.1,0-0.3,0-0.4-0.1h0.4c0.1-0.1,0.1-0.1,0.4-0.2c-0.1,0-0.3-0.1-0.4-0.1
	c0.1,0,0.1-0.1,0.2-0.1s0.1-0.1,0.1-0.1s-0.1-0.1-0.1-0.2l0,0l0,0c0,0,0,0,0.1-0.1l0,0c0,0-0.1,0-0.2,0c0,0,0,0.1-0.1,0.1V58
	c0,0-0.1,0.1-0.1,0l-0.1-0.1c0.1-0.1,0.1-0.2,0.1-0.3h-0.1h0.1c0.1,0,0.2,0,0.3,0l0.1-0.1v-0.1h-0.1c0,0,0,0,0.1,0v-0.2
	c-0.1-0.1-0.2,0-0.2,0l0.2-0.2l-0.1-0.1c-0.1,0-0.1,0-0.2,0s0,0,0-0.1s0.1,0,0.2-0.1s-0.1,0-0.1-0.1s-0.1,0-0.2,0
	c0.1,0,0.1-0.1,0.2-0.1l-0.1-0.1c0,0,0,0,0.1,0s0,0,0-0.1l0,0l-0.1-0.1c0.1,0,0.2,0,0.3-0.1l-0.1-0.1c0,0,0.1,0,0.2,0l-0.1-0.1
	l0.1-0.1h-0.1c0.1-0.1,0.1,0,0.2,0l0.1-0.2l-0.1-0.1h0.5c0-0.1-0.1-0.1,0-0.2h0.1c0.1,0,0,0.1,0.1,0.1s0.1,0,0.2,0
	c-0.1-0.1-0.3-0.2-0.5-0.3c0-0.1,0.1-0.1,0.1-0.2l0,0c-0.1,0-0.2,0.1-0.2,0.2l-0.1-0.1v-0.1l-0.1-0.1l-0.1,0.1c-0.1,0-0.1,0-0.1-0.1
	l0.1-0.2c0-0.1-0.2,0-0.2-0.1s0-0.1,0.1-0.1s-0.1,0-0.1-0.1s0.2,0,0.3,0c0.1,0-0.1-0.2-0.1-0.2c0-0.1,0,0,0.1,0c0,0,0-0.1,0-0.2
	h-0.1l0.1-0.1c0,0,0,0,0-0.1s0.1-0.1,0.1-0.1h-0.1c0,0,0.2-0.1,0.2-0.2c0-0.1,0-0.2,0.1-0.2c-0.1,0-0.2,0.1-0.3,0
	c-0.1-0.1,0-0.1,0-0.1s-0.1-0.1-0.2-0.2c0.1-0.1,0.3-0.1,0.3-0.2c-0.1-0.1-0.3-0.1-0.4-0.1s0.1,0,0.1,0c-0.1-0.1-0.2-0.1-0.4-0.1
	c0,0,0-0.1-0.1-0.2c0.1,0,0.3-0.1,0.4-0.1c0,0,0,0,0.1,0s-0.2-0.1-0.2-0.2s0.2-0.3,0.3-0.5c0.1-0.1,0.2-0.1,0.1-0.3
	c-0.1-0.1-0.1-0.1-0.1-0.2c-0.1-0.1-0.1-0.2-0.3-0.2l0.1-0.4c0-0.1-0.1,0-0.2,0l0.3-0.2v-0.1h-0.1l0.1-0.2c-0.1,0-0.1,0-0.2,0
	s0-0.1,0.2-0.2c0.2-0.1,0.1,0,0.1,0h0.1c0,0-0.1,0-0.1-0.1l0.3-0.1v-0.1h0.1c0,0,0-0.1,0-0.2c-0.1,0.1-0.2,0.1-0.3,0
	c0-0.1,0.1,0,0.1-0.1s0-0.1,0.1-0.1s0,0,0,0h0.2c0-0.1-0.1-0.3-0.1-0.4c0,0,0,0,0,0.1h-0.1c-0.1-0.1,0-0.2,0-0.3h-0.1l0.1-0.1
	c-0.1-0.1-0.2-0.1-0.2-0.2c0-0.1,0.1,0,0.1,0s-0.2,0-0.3,0V48l0.2-0.1c-0.1-0.1-0.2-0.1-0.2-0.2c0-0.1,0.2,0,0.2-0.1
	c0.1-0.1,0.2-0.1,0.3-0.1c-0.1-0.1-0.2,0-0.2-0.1l0.2-0.1V47h-0.1v-0.1h-0.1c0-0.1,0.1-0.2,0-0.3s-0.2-0.1-0.2-0.2s0.1-0.1,0.2-0.1
	s0.1,0,0.1,0.1s0,0,0.2,0.1s-0.1-0.1-0.1-0.1s0.1,0,0.1-0.1s0,0,0-0.1s0,0-0.1,0s-0.1-0.1-0.2-0.1h0.1V46l0.2-0.1c0,0-0.1,0-0.1-0.1
	h-0.1c-0.1-0.1,0.2-0.2,0-0.3l0.1-0.1c0.1-0.1-0.1-0.3,0-0.4c0.1-0.1-0.1,0.1-0.2,0.1s0-0.1,0-0.2s-0.1,0-0.2-0.1l0.2-0.1l-0.2-0.1
	c0,0,0,0,0.1,0c0.1,0-0.1-0.1,0-0.1h0.1v-0.2c0,0-0.1-0.1,0-0.1h0.1c0,0,0,0,0-0.1s0.1,0.1,0.2,0.1V45l0.1,0.1c0.1,0,0-0.1,0.1-0.1
	c-0.1-0.1-0.2-0.1-0.3-0.1l0.1-0.1c-0.1,0-0.1,0-0.2,0s0-0.1,0-0.2s-0.1,0-0.2,0l0,0c0.1,0,0.1-0.1,0.2-0.1c0-0.1-0.2-0.1-0.2-0.2
	h-0.1v-1.5c0,0-0.1,0-0.1-0.1h0.1l0,0l0,0h0.2l0.1,0.1c0,0,0,0,0-0.1s-0.1,0-0.1-0.1c-0.1,0-0.3-0.1-0.4-0.2c0.1,0,0.2,0,0.3,0v0.1
	c0.1,0,0.2,0,0.3-0.1s-0.2,0-0.1-0.1c0-0.1,0.1,0,0.1,0s-0.1,0-0.1-0.1s0.1-0.1,0.1-0.3l0.1,0.1c0,0,0.1,0,0.1,0.1s0,0.1,0.1,0.1
	s-0.2-0.1-0.2-0.2s0.1,0,0.1,0v-0.1l0.2,0.1c0,0,0.1,0,0,0s-0.3,0-0.4,0l-0.2-0.3c-0.1,0,0,0.1-0.1,0.1c-0.1,0,0-0.1,0-0.2
	c-0.1,0-0.2-0.1-0.3-0.1l0.1-0.1c-0.1,0-0.2,0-0.3,0s0,0,0-0.1c0.1,0,0.2,0,0.3,0h0.1c0,0,0,0,0-0.1l0,0c0-0.1-0.1-0.1-0.2-0.1
	c0-0.1,0-0.1,0-0.2c0,0,0.1,0,0.2,0c0.1,0-0.1,0,0-0.1c0.1-0.1,0.1,0,0.2,0s-0.1,0-0.1,0c0-0.1,0.1-0.2,0.2-0.1c0,0,0,0,0-0.1
	c-0.1-0.1-0.3-0.1-0.4-0.1c0-0.2,0.1-0.4,0.1-0.6c-0.1,0-0.1-0.1-0.3-0.2v-0.4c0.1,0,0.2,0.1,0.3,0.1l0.1-0.1l-0.1-0.1
	c0,0,0,0-0.1,0.1s-0.2-0.1-0.3-0.2c0.1,0,0.2,0,0.3,0l0.1,0.1h0.1c0-0.1,0.1-0.1,0.2-0.2s-0.1-0.1,0-0.1s0.2,0,0.2-0.1l0.1,0.1
	c0.1,0,0.1-0.1,0.2-0.1h0.1c0.1-0.1,0-0.1-0.1-0.2h-0.1c-0.2-0.1-0.4,0.1-0.6,0.1c0-0.1,0.1-0.1,0-0.1c-0.1,0-0.2,0.1-0.3,0.1
	l0.4-0.3c-0.1-0.1-0.2,0-0.2-0.1l-0.1,0.1v-0.1h-0.1c-0.1,0,0-0.1,0-0.1s0.2,0,0.2-0.1s-0.1,0,0-0.1c0,0,0,0,0-0.1H123
	c0.1-0.1,0.2-0.2,0.3-0.2c0-0.1-0.1-0.1-0.1-0.1s0-0.1,0-0.2h-0.1c-0.1-0.1,0-0.1-0.1-0.2h0.1c0-0.1-0.1-0.1,0-0.2H123
	c0,0,0,0,0-0.1v-0.1c0.1,0,0.2,0,0.3-0.1l-0.1-0.1c-0.1,0.1-0.2,0-0.4,0s0.1-0.1,0.1-0.1h0.1c0,0,0.2,0,0.3-0.1l0,0
	c-0.1,0-0.2,0-0.3,0c0-0.1-0.1-0.1-0.2-0.1c0.1-0.1,0.2-0.1,0.3-0.1c0.1,0,0.1,0,0.1-0.1c0.1-0.1-0.1-0.1-0.2-0.2l0,0
	c0,0-0.1,0-0.1-0.1s0.1,0,0.1,0s-0.1-0.1-0.2-0.1c0-0.1,0.1-0.1,0.2-0.1s-0.1-0.1,0-0.1c-0.1,0-0.1-0.1,0-0.2s0.1,0.2,0.2,0.2
	c-0.1-0.1-0.1-0.1-0.1-0.2v-0.2c0.1,0.1,0.3,0.1,0.4,0l0,0l0,0c0.1,0,0.1,0,0.1,0.1s0.1,0,0.2,0s-0.1-0.2,0-0.3s0-0.1-0.1-0.2
	c-0.1-0.1-0.1,0.1-0.2,0.1s0.1,0,0,0l0,0l0,0l0,0c0,0-0.1,0-0.1-0.1s-0.1,0-0.1,0h-0.2c0-0.1,0.1-0.1,0-0.2H123l0,0
	c0,0,0-0.1-0.1-0.1s0,0.1-0.1,0.1s0-0.1,0-0.1l-0.1-0.1l0,0c-0.1,0,0-0.1,0-0.1c-0.1,0-0.2,0-0.4-0.1c0.2-0.1,0.4-0.1,0.5-0.1
	s0-0.1,0.1-0.1s-0.1,0-0.1-0.1s0.2,0,0.2-0.1s-0.1,0-0.2,0s0,0.1-0.1,0.1h-0.1h0.1h-0.1l0.2-0.2c0.1,0,0.3,0,0.4,0
	c-0.1-0.1-0.2,0-0.2,0s0.1,0,0.1-0.1s0.1,0.1,0.1,0s0,0,0-0.1c-0.1,0-0.1,0-0.2,0s-0.1-0.1-0.1-0.1c-0.1,0-0.1,0.1-0.1,0.1
	s-0.1-0.2-0.2-0.2c0.1-0.1,0.1,0,0.2,0s0-0.1,0-0.1s0,0.1,0.2,0.2l0.1,0.1c0.1,0,0.1,0,0.2,0c0-0.2-0.3-0.1-0.3-0.3h0
	c0-0.1,0.1,0,0.2-0.1l0,0c-0.1-0.1-0.1-0.1-0.2,0l-0.1-0.1c0-0.1,0.1-0.1,0.2-0.1l-0.1-0.1c0-0.2,0.2-0.2,0.3-0.3
	c0.1,0,0.2-0.1,0.2-0.2c0-0.1-0.1,0-0.1-0.1s-0.1-0.1,0-0.1v-0.1h-0.2l-0.1,0.1c0,0,0.1-0.1,0-0.2l-0.2-0.1l0.1-0.1c0,0-0.1,0,0-0.1
	s0.2-0.1,0.4-0.1c-0.2,0-0.2,0-0.3-0.1c-0.1-0.1-0.1,0.1-0.1,0.1c0,0.1,0.1,0,0,0l0,0l0,0l0,0c0,0-0.1,0.1-0.2,0s0,0,0-0.1l-0.1-0.1
	c0-0.1,0.1-0.2,0.2-0.2c0.1-0.1,0-0.1,0-0.1s0.1,0,0.1-0.1h0.2c0.1-0.1-0.1-0.1,0-0.1s0-0.1,0-0.1h-0.1c0-0.1,0.2-0.1,0.2-0.2v-0.1
	h0.1l0,0c0,0-0.1-0.1,0-0.2s0.1-0.2,0-0.4c0.1-0.1,0.1,0.1,0.2,0.1V30h-0.1l0,0c0,0,0.1,0.1,0.2,0.1c0.1,0,0-0.1,0-0.1
	c0.1,0,0.1,0,0.1,0.1c-0.1,0.1-0.1,0-0.2,0c-0.1,0,0,0.1,0,0.1s0.1,0,0.2-0.1l0,0v-0.4c0,0,0,0,0.1,0s-0.2,0-0.2,0
	c-0.1,0.1-0.1,0.2,0,0.2h-0.1c0-0.1,0-0.1,0-0.2h-0.1l0.1-0.1c-0.1,0-0.2,0-0.3,0l-0.1-0.1h0.2h-0.1c0-0.1,0-0.2,0.1-0.2
	c0.1-0.1-0.1,0-0.2-0.1c0-0.1,0.1-0.1,0.1-0.1h-0.1V29H123c-0.1,0,0,0,0-0.1v-0.1c0,0,0.2,0,0.2-0.1s0-0.2-0.2-0.2l0.1-0.1H123
	c0,0.1-0.1,0.1-0.2,0.1v-0.2c0.2,0,0-0.3,0.3-0.3v-0.6H123c0,0-0.1-0.1-0.1-0.2c0.1,0,0.2,0,0.3-0.1V27h0.1c0.1,0,0-0.1,0.1-0.1h0.1
	v-0.1c0,0,0,0,0.1,0l0.1-0.1h0.1l0.1-0.1c0,0-0.1,0,0-0.1h0.1c-0.1-0.1,0-0.2-0.1-0.3c-0.1-0.1-0.1,0-0.1,0s0.1,0.1,0,0.1
	c0,0.1-0.1,0.1-0.1,0.2h-0.1c0-0.1,0-0.3,0.1-0.4c-0.1,0-0.1,0-0.1,0l-0.1,0.1c0,0-0.1,0.1-0.1,0s0.2-0.1,0.2-0.1
	c-0.2-0.1-0.2,0.2-0.5,0.2c0.1-0.1,0-0.1,0-0.2s0.1-0.1,0.1-0.2s0.1-0.1,0.1-0.2s-0.1,0.1-0.2,0.2s0-0.2,0-0.3c0-0.1-0.1,0-0.1,0
	h0.1l0,0h0.1c0.1,0,0.2-0.1,0.2-0.2h0.1l0.1-0.1h-0.1v-0.1c0,0,0-0.1-0.1-0.2s-0.1,0-0.1,0h-0.1c0,0,0,0,0-0.1s0.1,0,0.1,0V26
	c-0.1,0,0,0-0.1,0.1c-0.1,0-0.1,0-0.2,0c0,0,0.1,0,0.2,0s0,0,0-0.1l0,0c-0.1,0-0.2,0-0.3,0c0.1,0,0.2,0,0.2-0.1h0.3
	c0.1-0.1,0.1-0.2,0.2-0.2h-0.1h0.1l0,0H123c0-0.1,0.1-0.2,0.2-0.2v-0.1h0.1c0-0.1,0-0.2,0-0.3c0-0.1,0,0,0.1,0s0.1-0.1,0.2-0.1
	c0.1,0-0.1,0.1,0,0.1h0.1c0,0.1,0,0.2,0,0.2c0,0.1,0-0.1,0.1-0.1s0-0.2-0.1-0.3l-0.1-0.1l0,0c0,0,0,0-0.1,0s-0.1,0-0.2,0
	c0,0,0,0,0-0.1s0-0.3-0.2-0.3h0.1l-0.2-0.1c0.1,0,0-0.1,0.1-0.1s0.2,0,0.2,0h-0.1c0,0,0-0.1,0.1-0.1l-0.1-0.1c0-0.1,0.1,0,0.2-0.1
	c0-0.1-0.1,0-0.2,0s0.1,0,0.2,0s0-0.1,0-0.2h-0.1v0.1h-0.2c-0.1-0.1,0.1-0.1,0-0.1s0.1,0,0.2,0s0.1-0.1,0.2,0h0.1c0,0,0,0,0.1,0
	c0.1,0-0.1-0.1-0.1-0.2s0,0,0,0s-0.1,0.1-0.1,0s0.1,0,0.1,0h-0.1v-0.1c0,0,0.2,0,0.2-0.1s-0.1,0-0.1,0v-0.1c0,0-0.1-0.1,0-0.1
	c0.1,0,0.1-0.1,0.1-0.1l-0.1-0.2c0.1,0,0.1,0,0.1,0l0.1-0.1l0,0c0-0.1,0.1-0.1,0.2-0.1c-0.1-0.1-0.2,0-0.2-0.1c-0.1-0.1,0-0.1,0-0.1
	c0.1,0,0.2-0.1,0.2-0.1v-0.1h-0.2v-0.1c-0.1,0-0.1,0.1-0.1,0.1l-0.2-0.1c0-0.1,0.1-0.2,0.1-0.3s0-0.1-0.1-0.1h-0.1
	c-0.1,0,0-0.1-0.1-0.1H123v-0.1c0.1-0.1,0.1,0,0.2,0l0,0v-0.1c-0.1,0-0.3-0.1-0.4-0.2c0.1,0,0.2-0.1,0.3,0l0.2,0.1
	c0-0.1,0-0.2,0-0.2c0.1-0.1,0.2,0,0.3,0c0.1,0-0.1-0.1-0.2-0.2s0.1,0,0.1,0v-0.1l0.3,0.1c0-0.1-0.1-0.1-0.1-0.2s0-0.1-0.1-0.1V21
	c-0.1,0-0.1,0-0.1-0.1s0.1,0,0.1,0c0-0.1-0.1-0.3-0.2-0.4l-0.1,0.1c0-0.1-0.1-0.2,0.1-0.3c-0.1,0-0.1-0.2-0.2-0.2
	c0.1-0.1,0.1-0.2,0.2-0.3c0.1-0.1,0-0.1,0-0.1v-0.1c-0.1,0-0.1,0-0.1,0l-0.1-0.1l0.2-0.1c0-0.1-0.1-0.1-0.1-0.1s0.1-0.1,0.2-0.1
	s-0.1-0.1-0.2-0.1s0.1-0.2,0.1-0.3s-0.3-0.4-0.3-0.4h0.1l-0.1-0.1H123l-0.2-0.1c0-0.1,0.2,0,0.2-0.1s0.1,0.1,0.2,0s0,0,0-0.1H123
	c0-0.1,0.1-0.1,0.1-0.2s-0.2,0-0.2-0.1s0,0,0,0l0,0c0.1-0.1,0.2-0.2,0.3-0.2l-0.4-0.1c0.1-0.1,0.2,0,0.2,0l0.1-0.2
	c0-0.1,0.1-0.1,0.2-0.1c-0.1-0.1,0-0.1,0-0.2s0,0.1,0.1,0s0.1-0.1,0-0.2h0.1v-0.1c0,0-0.1,0-0.2,0s0-0.1,0-0.1s0,0-0.1,0
	s-0.1,0.1-0.2,0l-0.2-0.1l0.1-0.1c0,0,0-0.2-0.1-0.2h0.1c-0.1,0-0.2,0-0.2-0.1s0.1-0.1,0.2-0.1c-0.1,0-0.1-0.1-0.1-0.1
	s-0.1-0.1-0.1,0C123,16,123,16,123,16s0,0.1-0.1,0.1h-0.2c0,0,0-0.1,0-0.2c0.2,0,0.3-0.1,0.4-0.2c0-0.1-0.1,0-0.2-0.1s0.1-0.1,0.2,0
	c0-0.2,0-0.4,0.1-0.5c0-0.1-0.1-0.1,0-0.2V15c0,0,0,0,0.1,0h0.1c0.1-0.1-0.1-0.1,0-0.2s0.1,0,0.2,0v-0.1l0.1,0.1
	c0-0.1,0.1-0.1,0.1-0.2c-0.1-0.1-0.1-0.1-0.2-0.1l0,0c0,0.1,0,0.1-0.1,0.1s0-0.1,0.1-0.1c0.1,0-0.1,0-0.2-0.1s0,0,0-0.1
	s-0.1,0.1-0.1,0s0.1-0.1,0.2-0.2c-0.1,0-0.1,0-0.2,0l-0.1-0.1c0-0.1,0.1-0.1,0.1-0.2c0,0-0.2,0-0.2-0.1s0.1,0,0.1,0
	c0.1-0.1,0.1-0.3,0.1-0.4h0.1c0.1-0.1-0.1-0.2,0.1-0.2c-0.2,0-0.2,0.1-0.4,0c0.1,0,0.2,0,0.2-0.1c-0.1-0.1-0.1-0.1-0.2,0
	c-0.1,0-0.1-0.1-0.1-0.2h0.2c0.1-0.1,0-0.1,0.1-0.2c0.1-0.1,0.2,0,0.2,0s0,0,0-0.1s0.1-0.1,0.2-0.1c0.1,0-0.1-0.1-0.2-0.1
	s-0.1-0.1-0.1-0.2c0-0.1,0,0-0.1,0.1s-0.1-0.1-0.1,0s-0.1,0-0.1,0s-0.1,0-0.2,0.1s0,0,0-0.1s0.1,0,0.2,0s-0.1,0-0.1-0.1l0.1-0.1
	h-0.3c0.1-0.1,0.1-0.2,0.2-0.2s0-0.1,0.1-0.2H123h0.1H123c0,0,0-0.1-0.1-0.2c0,0,0.1,0,0.2,0s0,0,0,0h0.1l-0.2-0.1
	c0.1,0,0.2-0.1,0.2-0.1s0.1,0.1,0.2,0s0.1-0.1,0.1-0.1s-0.1-0.1,0-0.1l0,0c0,0,0.1,0.1,0.1,0s0,0-0.1-0.1c-0.1,0-0.2,0-0.2,0
	c0-0.1,0.1-0.1,0.2-0.1h0.2c0.1,0,0.1-0.1,0.1-0.2c-0.1,0-0.1,0.1-0.2,0c0.1,0,0-0.2,0.1-0.2h-0.1l0,0c0,0.1-0.1,0.1-0.1,0.1
	c-0.1,0,0-0.1-0.1-0.1h-0.1c-0.1,0-0.2-0.1-0.2-0.2H123c0,0,0-0.1-0.1-0.1L123,10l0,0c0-0.1,0.1,0,0.2,0s0,0,0-0.1s0.1-0.1,0.1-0.1
	h0.2l0,0c-0.1,0-0.2,0-0.2-0.1s0.2,0,0.3,0l0.1-0.1c-0.1,0-0.2,0-0.3,0l-0.1-0.1l0.1-0.1h0.6c0-0.1-0.1-0.1-0.1-0.2
	c0-0.1,0.2-0.2,0-0.3c-0.1,0-0.2,0-0.2,0.1V8.9c0,0.1-0.1,0.1-0.1,0.2c0,0,0,0.1,0,0.2l-0.1-0.1h-0.1c-0.1,0,0-0.1,0-0.2
	c0-0.1-0.1-0.1-0.2,0s0.1,0,0.1-0.1s0,0,0-0.1c0.1,0,0.1,0,0.2-0.1V8.4c-0.1,0-0.1,0.1-0.2,0h0.1c0,0-0.1,0-0.2,0s0,0,0-0.1h-0.1
	h0.2l-0.1-0.1c0.1,0,0.1-0.1,0.2-0.1c0,0,0.1,0.1,0.1,0c0.1-0.1,0,0,0-0.1l0.1-0.2c0-0.1-0.1-0.1-0.1-0.1V7.6l0,0h-0.1
	c-0.1,0,0-0.1,0-0.2s-0.2,0-0.3-0.1c-0.1-0.1,0-0.1,0-0.1s-0.2-0.1-0.2-0.2c0.1,0,0.2,0,0.3,0c0,0,0.1,0,0.2,0.1s-0.1-0.1,0-0.2
	s0.1,0.1,0.2,0c-0.1-0.1-0.2-0.1-0.3-0.2h0.1c0-0.1-0.1,0-0.1,0l0.2-0.2h0.1c0.1-0.1,0.1-0.3,0.1-0.5c-0.2,0-0.2,0.2-0.3,0.1
	c-0.1,0-0.1,0,0,0l0,0c0,0-0.1-0.1,0-0.1l0.2-0.1l-0.1-0.1h-0.1L123,5.6h0.1c0,0,0.1,0,0.1-0.1s-0.1-0.1-0.1-0.2s0,0-0.1,0
	s-0.1,0-0.2-0.1c0.1-0.2,0.3-0.3,0.4-0.5c0-0.1,0-0.1,0-0.2l0.2-0.2h-0.1V4.2c0,0-0.1,0.1-0.2,0.1l0,0c0-0.1,0.2-0.2,0.2-0.4
	c-0.1-0.2,0-0.1-0.1-0.1s0,0.1,0.1,0.1h0.1l0,0c0,0,0.1,0,0.1-0.1s-0.1-0.1-0.1-0.1v0.1l0,0c-0.1-0.1-0.1-0.1-0.2-0.2
	c0.1-0.1,0.1,0,0.1,0h0.1c0.1,0.1,0.1,0.2,0.2,0.2c0.1,0.1,0.1,0,0.1-0.1v0c-0.1,0-0.1,0.1-0.2,0s0-0.1,0-0.1h-0.1l0.1-0.1
	c0-0.1,0-0.2-0.1-0.2h-0.1c-0.1,0-0.1,0-0.2-0.1c0,0,0-0.2,0-0.3s0.1,0,0.1,0s0,0,0.1,0s0-0.1-0.1-0.1c0.1,0,0.1-0.1,0.1-0.2
	l0.2-0.1l-0.2-0.1l0.2-0.1h0.1c0,0,0.2,0,0.2-0.1l0,0c0.1-0.1,0-0.1,0-0.2s0,0.1,0.1,0.1h0.1c0.1,0.1,0.2,0.1,0.2,0.1l0,0
	c0,0-0.1,0-0.1-0.1s0.1,0,0.1-0.1c0-0.1-0.1-0.1-0.1-0.1H124l-0.1-0.1c0-0.1,0-0.1,0-0.2c0,0.1,0,0.2-0.1,0.3s-0.1-0.1-0.2,0
	c-0.1,0.1,0-0.1,0-0.2s-0.2,0-0.2-0.1s0.1,0,0.2,0c0.1,0,0-0.2,0.1-0.2c-0.1-0.1-0.2-0.1-0.3-0.1l0.2-0.1c0-0.1-0.1,0-0.2,0
	s0.2,0,0.2,0s0-0.1-0.1-0.1l0,0l0,0h-0.1l0,0c-0.2,0.1-0.2,0.1-0.2,0.1V1.1h0.2l0,0c-0.1,0-0.2,0-0.3,0c-0.2-0.1-0.3-0.2-0.2-0.3
	c0.2,0,0.1,0.1,0.3,0.2c0.1-0.2,0-0.2,0.3-0.3c0-0.1-0.2-0.1-0.3-0.2c0,0.1,0.1,0.1,0.2,0.1c-0.1,0-0.6,0-0.4,0.1
	c-0.2,0-0.4-0.2-0.1-0.3l0,0h-0.1c-0.1,0-0.1,0-0.2,0.1h0.1c0,0.1-0.3,0.5-0.4,0.4c0.1,0.1-0.1,0.2-0.2,0.1s0.1-0.3,0.2-0.3
	c-0.1,0-0.2-0.1-0.3-0.1c0.1,0-0.2-0.1-0.1-0.1c-0.2,0-0.2,0.2-0.4,0.3c0.1,0.1,0.3,0.1,0.4,0c-0.2,0,0-0.2,0.1-0.2
	c0.2,0-0.1,0.2-0.2,0.2c-0.3,0.2-0.3,0.1-0.7,0.1c-0.1,0-0.2,0.1-0.4,0.1c0.1,0,0.3,0.1,0.2,0.2c-0.1,0.1-0.1-0.1-0.2-0.2
	c-0.1,0.1,0.2,0.2,0.1,0.3c0,0.1-0.1,0-0.3,0s-0.4,0.1-0.5,0c-0.2-0.1-0.3-0.3,0-0.3c-0.1-0.1,0,0,0,0l-0.2-0.1c0,0,0.2-0.1,0.3,0
	s-0.2,0.3,0.1,0.3c0-0.1-0.1-0.2,0-0.3c0.1-0.1,0.2,0,0.3,0c-0.2-0.1-0.4-0.1-0.6-0.1c0,0.1,0.2,0.1,0.2,0.1c-0.2,0.1-0.2,0-0.3,0.1
	s-0.3,0-0.3,0s0.3,0.1,0.3,0.2s-0.2,0-0.3,0s-0.7,0.1-0.8,0.1s-0.7-0.2-0.7-0.1c0.1,0,0.1,0,0.2,0c0,0.4-0.2-0.2-0.3-0.2
	c-0.1,0,0,0.1,0.1,0.1c0.1,0-0.3,0-0.1-0.1c-0.2-0.1-0.1-0.1-0.1-0.2s0,0.1-0.1,0c-0.1,0.1,0,0.1-0.2,0.1c0,0,0,0.1,0.1,0.1
	c-0.1-0.1,0.2,0.2,0.1,0.2c-0.1,0.1-0.2-0.2-0.2-0.2s0.1,0.2,0.1,0.3c0,0.1,0,0-0.2,0s-0.8,0-0.8-0.3c-0.1,0-0.1,0.1-0.1,0.1
	s-0.3,0.2-0.3,0s0.1-0.1,0.1-0.1l-0.2-0.1c-0.1,0,0,0.1,0,0.2S116.1,1,116.1,1s-0.1,0.2-0.2,0.2l-0.8-0.8c-0.1,0.3-0.4-0.2-0.6,0
	c0.4,0-0.4,0.4-0.2,0.1l-0.2,0.2c-0.1,0,0,0.1-0.1,0.2c-0.1,0-0.1-0.3-0.3-0.2s0,0.3-0.2,0.3c-0.2,0,0-0.1,0-0.2
	c-0.2,0-0.1,0.2-0.3,0.3s-0.2-0.3-0.3-0.3l0,0c-0.1-0.1-0.2-0.1-0.4-0.1c-0.2,0,0-0.2,0-0.2s0.2,0.1,0.2,0c-0.1,0-0.2-0.1-0.3-0.1
	c-0.1,0-0.2,0.2,0,0.2c-0.1,0.1-0.2,0.1-0.3,0.1c0.1,0,0.1,0.1,0.1,0.2s-0.1-0.2-0.1-0.2c0.3,0.4-0.2,0.2-0.5,0.2s-0.7,0-0.5-0.4
	c-0.1,0-0.3,0.2-0.3,0.1c0.1,0.1,0.1,0.3-0.2,0.3c0,0,0.1-0.1,0-0.2s-0.2-0.1-0.2,0h-0.1c-0.1,0,0.1,0.1,0.1,0.1S110.1,1,110.2,1
	c-0.2-0.1,0-0.1,0.1-0.2c-0.1,0-0.2,0.1-0.4,0.1V0.8l-0.1,0.1c0.1,0-0.2-0.1-0.2-0.1c0,0.1-0.1,0.1-0.1,0.2s0.2,0,0,0.2
	c-0.1-0.1,0-0.1-0.1-0.2s0.1,0.2,0,0.3S108.9,1,108.8,1s-0.1,0-0.1,0s-0.1,0-0.1-0.1C108.4,1,108.2,1,108,1c-0.1,0-0.4-0.2-0.1-0.2
	c0-0.1-0.3-0.1-0.4-0.1h0.1c-0.1,0.1-0.3,0.1-0.4,0h0.1c0-0.1-0.3-0.1-0.3-0.1l0.1,0.1H107h0.1c-0.2,0.1,0,0.3-0.3,0.4
	c-0.2-0.1-0.1-0.3-0.3-0.2c-0.2,0.1,0,0.4-0.2,0.4s0-0.1,0-0.2s-0.1,0.3-0.2,0.3l-0.3-0.3c-0.1-0.1-0.3-0.2-0.5-0.3
	c0,0.2-0.5-0.1-0.6-0.1s-0.2,0-0.3,0c-0.3,0-0.6,0-0.8-0.1c0.2,0-0.1,0-0.1,0c-0.1,0-0.1-0.1-0.2-0.1c0,0,0.1,0.3,0,0.2
	c0,0.1-0.2,0.2-0.3,0.2c-0.1,0-0.1,0-0.2-0.1s0.1-0.2-0.2-0.2c-0.1,0-0.2,0.2-0.4,0.2c0,0.1,0.2,0.1,0.2,0.2l0,0l0,0
	c-0.2,0-0.1-0.1-0.2-0.1c-0.1-0.1,0.2,0.2,0.1,0.3s-0.5,0-0.5,0c-0.2,0-0.3-0.1-0.3-0.3c-0.1,0-0.1,0.1,0,0.1
	c-0.1,0.1-0.3,0.1-0.4,0.1c0,0-0.2-0.3-0.1-0.3h0.1h-0.2c0.2,0.2-0.2,0.1-0.1,0.1S100.7,1,100.7,1c-0.1,0-0.1,0.1-0.2,0.1
	s0.1-0.1,0.2-0.2c-0.1,0-0.4,0.2-0.5,0.1c-0.1,0,0.1-0.2,0-0.2s-0.1,0.1-0.1-0.2c-0.1,0.1-0.2,0.1-0.4,0.1c-0.1,0-0.3-0.1-0.3-0.1
	c0.2,0.1,0,0.3-0.1,0.3c-0.2,0-0.3-0.1-0.5-0.2c0.1,0.1-0.2,0.2-0.2,0l-0.2,0.1h0.1h-0.1c0,0-0.1,0,0-0.1c-0.2,0.1-0.5,0.1-0.7,0
	c0.1,0.1-0.1,0.1-0.1,0.1h0.2c-0.2,0.3-0.4-0.2-0.6-0.1c0.1,0,0.1,0,0.1,0.1h-0.1c0,0.1,0,0.1-0.1,0.1s0-0.1,0.1-0.1
	C97.2,0.8,97.1,1,97,1l-0.1-0.2c0-0.1-0.1-0.1-0.1-0.2c0,0-0.1,0.2-0.1,0.1c0,0.1,0.1,0.2,0,0.2c-0.1,0.1-0.1-0.1,0-0.1
	c-0.2,0.1-0.2,0.5-0.3,0.1C96.3,1,96.1,1,96,1c0-0.1,0.2-0.1,0.2-0.1c-0.1,0-0.2-0.1-0.2-0.1c0.3,0.1-0.1,0.3-0.3,0.3
	s0.1-0.2,0.1-0.3C95.5,0.9,95.3,1,95.1,1c0.1,0.1-0.2,0.2-0.2,0s0.3-0.2,0.3-0.2c-0.2-0.1-0.5,0.3-0.8,0.1c-0.2,0.2-0.5,0.3-0.7,0.1
	c0.1-0.1,0.2-0.1,0.3-0.2c0,0-0.4-0.1-0.4-0.2c0,0,0.2-0.1-0.1-0.2c0.1,0.1,0,0.1-0.1,0.1s0,0.1,0,0.1s-0.1-0.1-0.1,0
	s-0.1,0.1-0.2,0.1c0.1,0.1,0.3,0.1,0.4,0.1C93.3,1,93.1,1.1,92.9,1c0.1,0.1-0.2,0.1-0.3,0.1h0.1h-0.1h0.1c0,0-0.1,0-0.2-0.1
	c0.2,0,0-0.1,0.1-0.1c-0.1,0-0.2,0.1-0.2,0.1c-0.3,0-0.1,0-0.2-0.1S91.9,1,91.8,1c0.2,0.1,0.4,0.1,0.5,0c-0.1,0.2-0.3,0.3-0.5,0.3
	c-0.2-0.1-0.1-0.3-0.2-0.4C91.6,1,91.5,1,91.5,1c0,0.2,0.2,0,0,0.3s-0.3,0.2-0.4,0c0,0,0.3-0.3-0.1-0.2c-0.2,0-0.2,0.3-0.4,0.3
	c0-0.1,0.1-0.1,0.1-0.2c-0.1,0-0.3,0.2-0.4,0.2s0-0.4,0-0.4c-0.2,0-0.2,0-0.3,0s0.1,0,0.1,0s-0.3-0.2-0.3-0.3c0.2,0,0.1-0.2,0.1-0.1
	s0.2,0,0.2-0.1h-0.2L90,0.4c-0.1,0-0.2,0.1-0.2,0.1c0.1,0.1,0.1,0.1,0.2,0.1c-0.1,0-0.2,0.1-0.3,0.1l0,0c-0.1,0-0.2,0-0.2,0
	c0.2,0.1,0,0.1,0,0.2s0.1,0.1,0,0.2c-0.1,0-0.2,0-0.3,0C89,1,89.3,1,89.1,0.9S88.7,1,88.6,1s0.1-0.1,0.2-0.1s-0.3,0.1-0.4,0
	c-0.1-0.1,0-0.1,0.1-0.2c0.1,0-0.1,0,0,0c0.1,0-0.2,0,0-0.1c0,0-0.3,0.3-0.2,0c-0.1,0-0.1,0.1-0.3,0.1c-0.1,0,0,0,0-0.1
	S88,0.6,88,0.5c-0.2,0-0.2,0.2-0.4,0.2s0-0.1,0.1-0.1c-0.1,0-0.3,0.1-0.5,0.1c0-0.1,0.1-0.1,0.1-0.1c-0.1-0.1-0.2,0.1-0.2,0.1
	s-0.1-0.1-0.2,0c0.2,0,0.2,0,0.1,0c0,0-0.1,0-0.1,0.1c-0.1,0-0.2,0-0.2-0.1c-0.1,0-0.2,0.1-0.2,0.1s-0.2,0-0.3,0
	c-0.3,0-0.5-0.1-0.8-0.2c-0.1,0.2-0.2,0.1-0.3,0.1l0.2,0.1c0,0-0.4,0.2-0.5,0.2s-0.2,0-0.3,0c-0.1,0.2-0.2,0-0.2,0h-0.1
	c0,0.2,0,0-0.2,0c0.2,0.2,0.2,0.2,0,0.3h-0.2h-0.3c-0.2,0-0.3-0.1-0.3-0.2s0.1-0.1,0.1-0.2c0.1,0-0.2-0.1-0.1-0.1
	c-0.1,0-0.3,0.2-0.4,0h0.1h-0.3c0,0,0.2-0.1,0.2-0.2h-0.1c0,0,0,0.1,0,0c0,0.1-0.2,0.1-0.3,0s0,0.2,0,0.2s0.3,0.1,0.2,0.2
	s-0.1,0-0.2-0.1c-0.1,0,0.3,0.3,0.2,0.3s-0.6,0-0.7,0s-0.5-0.1-0.2-0.3c-0.2-0.1,0-0.1-0.1-0.2c-0.2,0,0.1,0.3-0.2,0.3
	c-0.2,0-0.2-0.2-0.4-0.2c-0.3,0-0.4,0.5-0.9,0.2c0.1-0.1,0.1-0.1,0.2-0.1c0,0,0-0.1-0.1-0.1c-0.1,0.1-0.1,0.1-0.3,0.1
	c0-0.1,0-0.1,0.2-0.1s0-0.1-0.1-0.1c0.1,0,0.1-0.1,0.1-0.1s-0.1,0-0.2,0c0.2,0.1,0,0-0.1,0s-0.2,0.1-0.3,0.1c0,0.1,0.3,0.1,0.4,0.2
	c-0.2,0.1-0.3,0.1-0.5,0c-0.1-0.1,0-0.1,0-0.1s0.1-0.3-0.1-0.4c0.1,0-0.1,0.2-0.1,0.2c0.1,0,0.2,0,0.2,0c-0.1,0.3-0.4-0.1-0.3-0.1
	l-0.2,0.1c0.2,0,0.4,0.2,0.1,0.2s-0.1-0.1-0.2-0.2c0,0.3-0.5-0.1-0.4-0.1l0,0h0.1c0,0,0.1,0.1,0,0.1c0,0,0,0-0.1,0s-0.1,0.1-0.2,0.1
	c0,0.1,0.3,0.3-0.1,0.2c0,0-0.2-0.2-0.1-0.1c0-0.1,0.1-0.1,0.1-0.2c-0.2,0-0.2,0.2-0.3,0.2c0.3,0.2-0.1,0.1,0,0
	c-0.1,0-0.2-0.3-0.4-0.3S77,0.7,77,0.5c-0.1,0-0.2,0.2-0.1,0.3c0,0,0,0,0,0.1c0,0-0.7,0-0.4-0.1l0,0c-0.1,0-0.1-0.1-0.1-0.1
	l-0.1,0.1c0,0,0.2,0.1,0.1,0.1C76.3,1,76.2,1,76,1c0-0.1,0.3-0.2,0-0.2c-0.3,0-0.1,0-0.2,0.1s-0.6,0.3-0.4,0c-0.1,0,0-0.1,0-0.1
	c-0.1,0-0.2,0-0.3,0.1C74.9,1,75,1,75.1,1.1c-0.1,0-0.2,0-0.3,0c0,0,0.2-0.1,0.2-0.2s-0.4,0.1-0.5,0s0-0.1-0.1-0.2
	c0,0.1-0.1,0-0.2,0s-0.6,0.1-0.7,0s0-0.1,0-0.1l0,0l0,0c0,0-0.1-0.1,0,0s-0.2,0.1,0,0.1c-0.1,0-0.3,0-0.3-0.1
	c-0.1,0.1-0.2,0-0.4,0.1c-0.2,0.1,0.2,0.4-0.1,0.1c0,0,0.2,0.2,0.1,0.2c0,0.1-0.1,0-0.2,0c-0.2,0-0.3,0-0.5,0c0.1,0,0.1,0.1,0,0.1
	c0,0-0.1,0-0.2,0c0,0.1,0.2,0.2,0.2,0.3h-0.4c-0.4,0-0.6,0.1-0.7-0.2c0.2,0,0.2,0.1,0.4,0.1c0-0.3-0.2-0.4-0.1-0.6
	c0.1,0,0.1,0.1,0.2,0c-0.2,0-0.1-0.1-0.2-0.1s0,0.1-0.1,0.1s0,0.1,0,0.1s-0.2,0-0.1-0.1c-0.2,0-0.4,0.1-0.2,0.3
	c-0.3,0.1-0.4,0-0.5-0.2c0,0,0,0-0.1,0c-0.1,0,0,0,0,0l0,0c-0.1,0-0.2-0.2,0-0.2c0.2,0,0.2,0.1,0.2,0.1l0,0c0,0,0.1,0,0.1-0.1
	s0-0.1-0.1-0.2l0,0v0.1c0,0,0,0.1-0.1,0.1h0.1c0,0,0,0.1-0.1,0.1s-0.1,0-0.1-0.1c-0.2,0-0.3,0-0.5,0c-0.1,0-0.1,0-0.2,0
	s-0.2-0.1-0.3-0.1C69,0.7,69.7,0.8,69.6,1c-0.2,0-0.1-0.1-0.3-0.1c-0.2,0,0.3,0.3,0.3,0.3c-0.2,0-0.4,0-0.6,0.1
	c-0.3,0-0.4,0-0.5-0.2c0.2,0,0.2,0.1,0.4,0c0-0.1-0.1-0.2-0.2-0.3s-0.3,0.1-0.5,0c0,0.1,0.1,0.1,0.2,0.1c-0.2,0-0.3,0-0.5-0.1
	c-0.1,0.3,0,0.1-0.2,0.2c-0.2,0-0.4,0-0.5-0.1c0.3-0.2,0.6-0.2,0.3-0.3c-0.2,0-0.4,0-0.6,0l0,0h-0.1l-0.3-0.2c-0.1,0,0,0.1-0.1,0.1
	c-0.1,0.1-0.3,0.2-0.5,0.3c-0.1,0,0-0.2-0.1-0.3c0,0.2-0.1,0.2-0.3,0.2c0.1,0.3-0.3,0.6-0.5,0.2c0,0.2-0.3-0.2-0.3-0.2
	c-0.2-0.3,0-0.2,0.2-0.3c-0.1-0.1-0.1-0.1-0.1-0.2s-0.2,0.3-0.3,0.3c-0.1,0-0.2,0,0,0c-0.1,0,0,0-0.1-0.1s-0.1,0-0.2,0.1
	s0.2,0.1,0.2,0.2s-0.1,0-0.2-0.1s0.3,0.1,0.2,0.2s-0.6,0-0.7-0.1c0.1,0,0.1,0,0.2,0V0.6l0,0c0,0,0-0.2-0.1-0.2c0,0.4-0.7,0.2-0.6,0
	l-0.1,0.1c0,0,0,0,0-0.1s-0.1,0-0.1,0h-0.2c-0.1,0-0.1,0-0.2,0c-0.2,0-0.1-0.1-0.2-0.2s-0.3,0-0.3-0.2c0,0.1,0.1,0,0,0S62,0,61.9,0
	l-0.2,0.2l-0.1,0v0.1c0.1,0-0.4,0-0.3,0c-0.1,0-0.1-0.1-0.2-0.1s-0.2,0.1-0.5,0c0,0,0,0.1,0,0.2s-0.1-0.1-0.2-0.1
	c-0.1,0,0.1,0.2,0.1,0.2l-0.4-0.1H60l0,0l0,0c-0.1-0.1-0.5,0.1-0.4-0.1c-0.1,0-0.2,0-0.3,0.1c-0.1,0.1,0.5,0.1,0.3,0.2
	c-0.2,0.1-0.2-0.1-0.3-0.1c-0.1,0,0.4,0.2,0.4,0.3l-0.3,0.1L59.2,1c-0.1,0-0.2,0-0.3,0c-0.2-0.1-0.1-0.1,0-0.2
	c-0.5-0.1-0.1,0.1-0.3,0.1c0,0-0.2,0-0.1-0.1c-0.2,0-0.2,0.2-0.3,0.2c-0.1-0.1-0.1-0.1-0.2-0.2l-0.1-0.1c0,0-0.2-0.3-0.4-0.2
	c0.1,0-0.1,0.2-0.1,0.2V0.5l-0.2-0.1l-0.2,0.1c0,0,0.2,0,0.2,0.1s-0.2,0-0.2,0c0,0.1,0.3,0.1,0.3,0.2c-0.2,0-0.4,0.1-0.5,0.1
	c-0.2,0.1-0.4,0-0.5-0.1c0.2-0.1,0.2,0,0.4,0c-0.1-0.1-0.1-0.3-0.2-0.4c0,0,0.2-0.2,0-0.2c-0.2,0-0.1,0.1-0.2,0.2l0,0l0,0
	c0,0-0.1,0-0.3,0c0,0,0.1,0.2,0.2,0.1c-0.2,0.1-0.7-0.1-0.5-0.1c-0.2,0-0.2,0-0.2-0.1c-0.1,0-0.3,0-0.4-0.1c0,0.1-0.2,0-0.4,0
	c-0.2,0,0,0-0.1,0.1c0,0,0.1,0,0.1-0.1c0,0-0.4,0.2-0.3,0.2c-0.2,0-0.4,0-0.4-0.1S54,0.5,54,0.3c0,0.1,0,0.1,0,0.2
	c-0.1,0-0.1,0-0.2-0.1c0,0.3-0.2,0-0.2,0s0.1,0.3,0,0.4c-0.1,0.1-0.1-0.2-0.1-0.2c-0.2,0.1-0.2-0.1-0.2-0.1s-0.6,0.1-0.8,0
	c-0.3-0.1,0.1-0.1,0.1,0c0-0.1,0.3-0.2,0.1-0.3s-0.1,0-0.2,0.1c-0.3,0.1-0.2,0.3-0.4,0.2c0,0,0.1,0.2,0,0.2c-0.2,0-0.3-0.1-0.5-0.2
	c-0.1,0-0.1,0.1-0.2,0c0.1,0-0.1-0.2-0.1-0.2s0.2,0,0.1,0S51,0.4,51,0.4c-0.2,0.1-0.1,0.1-0.2,0.2c-0.1,0.1-0.7-0.1-0.7-0.3
	s0.1,0.1,0.2,0.1V0.3l0,0c0-0.1,0.1-0.2,0-0.2c-0.1,0.1-0.1,0.1-0.2,0.1c0,0-0.1-0.1-0.1-0.2s0,0.2,0,0.2h-0.1h-0.1c0,0,0,0-0.1,0
	s0,0,0,0l0,0c-0.1,0,0.1-0.2,0.1-0.2c0.1,0,0,0,0,0s0-0.1,0,0l0,0l0,0h0.1c0.2-0.1-0.4-0.1-0.5-0.1S49.5,0,49.5,0
	c-0.1,0-0.1,0-0.2,0l0,0l0,0l0,0c0,0,0.1-0.1,0-0.1h-0.1c0,0.1,0,0.1,0,0l0,0l0,0c-0.2,0-0.2,0-0.4,0l0,0c0,0-0.2,0.2-0.1,0.2
	s-0.4,0-0.3,0.1c0.1,0.1,0.1,0-0.1,0.1c-0.1,0-0.3,0-0.4,0c-0.2,0-0.2-0.4-0.4-0.4c0,0.2-0.2,0.1-0.3,0.2c-0.1,0.1,0,0.1-0.1,0.1
	s-0.1,0-0.2,0.1s-0.1,0-0.1-0.1s0,0.2,0,0.2l-0.3-0.1c0,0,0-0.1-0.1-0.1S46.4,0,46.3,0.1c0.2,0.2-0.4,0.6-0.6,0.2c0.1,0,0.1,0,0.2,0
	s-0.1-0.1,0-0.2h-0.3c0,0,0,0.1,0.1,0.1c-0.1,0,0,0.1,0,0.1s-0.4,0-0.3-0.1s0.1-0.1,0.2-0.1l0,0V0c-0.4,0-0.5,0.2-0.9-0.1
	c-0.1,0.1,0.1,0.1,0,0.2c0,0,0,0-0.1,0v0.1c0,0-0.1-0.1-0.2,0c-0.1,0-0.1,0-0.2,0c-0.2,0.1-0.1,0.2-0.4,0.1c0-0.1,0.2-0.1,0.3-0.2
	c-0.1,0-0.1,0-0.2,0.1c-0.1,0.1-0.3-0.1-0.1,0l-0.2,0.1c0-0.1,0-0.4-0.2-0.3c-0.2,0.1-0.1,0.4,0.2,0.3c-0.2,0.6-0.9-0.2-1-0.1
	c0.1,0,0.2,0.2,0.2,0.3s-0.2,0-0.3,0s0-0.1-0.2,0c-0.2,0.1,0,0.1-0.1,0.2c-0.1,0.1,0.1,0.3,0,0.3c-0.1,0,0-0.1-0.1-0.2
	s0,0.3-0.1,0.4l-0.3-0.3c-0.1,0.1-0.2,0.1-0.3,0l-0.2-0.1l0,0l0,0c-0.1-0.1-0.2-0.1-0.1-0.3l0.1,0.2c0-0.3,0.3,0,0.3,0.1
	c0-0.1,0.1-0.2,0.2-0.3c0.1,0,0.1,0,0.3,0c-0.1-0.2-0.3-0.1-0.7-0.1c-0.1,0-0.1,0.1-0.2,0C41,0.3,41,0.2,41,0.1
	c-0.2,0.1,0,0.2,0,0.3s-0.1,0-0.2,0c0.1,0.1,0.3,0.1,0.1,0.3c-0.2,0.2-0.3,0.2-0.3,0c-0.1,0.1-0.2,0.1-0.2,0
	c0.1,0.1-0.1,0.1-0.1,0.1l-0.5-0.3c-0.1,0-0.1,0.1-0.2,0.1h-0.1c0,0.1,0.1,0.1,0.1,0.2c0,0.2-0.2,0.1-0.2,0
	c-0.2,0.1,0.2,0.6-0.3,0.2c0,0.2-0.2-0.1-0.3-0.1c-0.1,0-0.2,0.1-0.2,0.1l-0.1-0.1c0,0,0-0.3-0.3-0.1c-0.1,0.1,0,0.3-0.3,0.3
	s0-0.1,0-0.2c-0.1,0-0.1,0.3-0.3,0.3c-0.2,0,0,0-0.1-0.1S37.4,1,37.3,0.9c0,0.1,0,0.1-0.1,0.1s0-0.1,0.1-0.2S37,1,36.9,1
	c0-0.1-0.1-0.2-0.1-0.2c-0.1,0.1-0.1-0.1,0-0.1l-0.1,0.1c-0.2,0,0,0.1,0,0.2s-0.1-0.3-0.2-0.3c-0.1,0,0,0.2,0,0.2
	c-0.1-0.1-0.3-0.1-0.4-0.1c-0.1,0.5-0.2,0-0.4,0c0.1,0-0.1,0.1-0.1,0c-0.2,0-0.1,0.2-0.3,0.2c-0.2,0,0-0.1,0-0.2
	c-0.2,0-0.2,0.3-0.3,0.3s-0.2-0.2-0.2-0.3c-0.1-0.1-0.2-0.1-0.3-0.2c0,0-0.1,0.1-0.2,0.1s-0.1,0-0.1,0s-0.1-0.1-0.2,0
	c-0.1,0-0.2,0-0.3-0.1c0,0-0.1,0.1-0.2,0.1h0.1h-0.1c0,0-0.4,0.3-0.5,0.3c-0.1,0-0.2,0-0.3,0c-0.2-0.1-0.1-0.2-0.2-0.3
	c-0.1-0.1,0,0,0,0h-0.3c0,0,0.2,0.2,0,0.3s0-0.1-0.1-0.2s0,0.2,0,0.3s-0.7-0.3-0.6-0.4c-0.1,0.1-0.1,0.1-0.2,0.1
	c-0.1-0.3-0.1-0.1-0.4,0c-0.3-0.2,0,0-0.3,0.1c-0.1,0-0.1-0.1,0-0.1c0.1,0-0.1,0.1-0.2,0.2c-0.1,0.1-0.3-0.2-0.4-0.2l0.1-0.1h-0.1
	c0,0,0-0.1,0.1-0.1c-0.1,0-0.2,0-0.3,0C30,0.7,30,0.7,30.1,0.7c-0.1,0-0.1,0-0.2,0c0,0.1,0.3,0.1,0.2,0.2c-0.1,0.1-0.1,0-0.2,0
	c-0.1,0,0.2,0.2,0.2,0.3s-1.2-0.1-0.9-0.3C29.3,1,29.4,1,29.5,1c-0.1-0.1-0.1-0.2,0.1-0.3c0,0-0.1,0-0.1-0.1c0,0.1-0.7,0-0.3,0.3
	c-0.2,0-0.2-0.1-0.3-0.1c0.1,0-0.3,0.1-0.3,0.1c-0.2,0.1-0.4,0.2-0.5,0h0.1c0,0,0.1-0.1,0.1,0c0-0.2,0,0,0.2-0.1
	c-0.1-0.1-0.1-0.2-0.3-0.2c0,0.1-0.1,0.1-0.1,0.1s-0.1,0-0.2,0.1c-0.1,0.1,0,0.1,0,0.1c-0.3,0.3-0.1-0.1-0.5,0
	c0.1-0.1,0-0.2,0.2-0.2h-0.2V0.6c0,0-0.1,0.1-0.3,0.1c0.1,0,0.1-0.1,0-0.1s-0.2,0.1-0.2,0.1c0.1,0,0.3,0,0.4,0
	c-0.1,0.1-0.2,0.2-0.3,0.2s-0.1-0.2-0.2-0.2s-0.2,0.1-0.3,0.2c0.3,0-0.1,0.3-0.2,0.1c-0.1-0.2,0-0.3,0.1-0.3
	c-0.1,0.1-0.3,0.1-0.4,0.1h-0.1l0,0h-0.1h-0.2v0.1c0,0,0,0,0-0.1l0,0c-0.1,0-0.2,0-0.2,0h-0.2c-0.2,0-0.4,0-0.6,0.1
	c0,0.1,0.1,0.2,0,0.3c-0.1,0,0-0.1-0.1-0.2c-0.2,0.1,0,0.7-0.3,0.2c-0.1,0.2-0.3-0.1-0.4-0.1c-0.1,0-0.1,0.2-0.3,0.2
	c-0.2,0,0-0.1,0.1-0.1c-0.1,0-0.3,0.1-0.3,0.1c0-0.1,0-0.2,0-0.3c-0.2,0-0.3,0.2-0.5,0.2c0-0.1,0-0.1,0-0.2c-0.1,0-0.3,0-0.2-0.1
	c-0.2,0-0.1,0-0.1,0.1s-0.2,0-0.4-0.1c-0.2-0.1,0-0.1,0.1-0.2c-0.2,0-0.5,0.4-0.4,0c-0.1,0.1-0.4,0-0.5,0c0,0.1,0.1,0,0.1,0.1
	c-0.1,0.1-0.2,0.1-0.3,0.1l0,0c0,0,0.1,0,0.1,0.1s-0.1,0.1-0.2,0.1C21,1.1,21,1,21,0.9c0,0,0,0,0,0.1c-0.2,0-0.5,0-0.7-0.1l0.2-0.1
	c0,0-0.2,0-0.2-0.1c0.1,0,0.1,0,0,0s-0.1,0-0.3,0c0,0.1,0,0.2-0.1,0.2c-0.1,0,0-0.2,0-0.2S19.7,1,19.6,1c-0.1,0,0-0.2-0.1-0.2h-0.3
	c0,0,0.2-0.1,0.1-0.1c-0.1,0-0.1,0-0.1-0.1c-0.3,0.2-0.1-0.1,0,0c-0.1-0.2-0.4,0.1-0.4,0.1c0.1,0,0.2,0,0.3,0c0,0.1,0,0.1-0.1,0.1
	c0.1,0,0.1,0,0.1,0.1c-0.1,0-0.3,0-0.4-0.1c0.1,0.2-0.2,0-0.2,0s0,0.1-0.1,0.2c0.1-0.1-0.3,0-0.3,0S17.9,0.8,18,0.7
	c-0.3,0.1,0.1,0.4-0.3,0.2V0.8h-0.1c0-0.1-0.1-0.1-0.1-0.2c0,0-0.1,0.1-0.1,0.2s-0.1,0-0.1,0.1s0.1,0.1,0,0.1c-0.1,0-0.1,0-0.1-0.1
	s0.1,0.1,0,0.2S16.8,1,16.9,0.9S17,0.9,17,1s0-0.1,0.2-0.1S16.8,0.8,16.9,1c-0.3,0.1-0.1-0.1-0.1-0.2S16.5,1,16.4,1c0,0,0-0.1,0-0.2
	c-0.1,0-0.3,0.1-0.4,0c-0.1-0.1-0.4,0.1-0.4,0.2c-0.3,0-0.1-0.2-0.1-0.1c0.1-0.2-0.2,0-0.3-0.1c0.1,0.1,0.1,0.1,0,0.1
	c-0.1,0,0,0,0,0l0,0l-0.2-0.2v0.1c0,0,0,0,0-0.1s-0.3,0.1-0.2,0c-0.3,0.2-0.3,0-0.3-0.1c-0.1,0.1-0.1,0.1-0.2,0.2
	C14.2,1,13.9,1.1,13.7,1c0.1-0.1,0.2,0,0.3-0.1s-0.3,0-0.3-0.1s0.1,0.1-0.2,0.2c0-0.1,0-0.5,0.1-0.4c0-0.2-0.3,0.1-0.2,0
	c-0.1,0.1-0.2,0.2-0.4,0.2c0.1,0.1,0.3,0.1,0.4,0.1C13.3,1,13,1.1,12.9,1c-0.1-0.1,0-0.2,0-0.3c-0.1,0.1-0.3,0-0.4-0.1h0.2
	c-0.1-0.1-0.1-0.1,0-0.2c-0.1-0.1-0.2,0-0.4,0c0,0.1,0.2,0.1,0.3,0.1c-0.3,0.2-0.5-0.2-0.3-0.2c-0.1,0-0.2,0-0.2,0s0.1,0.3-0.1,0.3
	c-0.1-0.1,0.1-0.1-0.1-0.1c-0.2,0-0.1,0.2-0.2,0.1s0-0.1,0.1-0.1c-0.1,0-0.1,0.1-0.2,0.1c-0.1,0,0.1-0.1,0-0.1
	c-0.1,0-0.1,0.2-0.2,0.2s-0.2,0-0.3,0s-0.3,0.2-0.4,0.1s-0.1-0.1-0.1-0.1s-0.1,0.1-0.2,0.1s-0.3,0.2-0.6,0c0.1-0.1,0.2-0.1,0.3-0.1
	C10,0.6,9.9,0.6,9.8,0.6c0,0,0,0-0.1,0c0.3,0,0,0.1-0.1,0.1c-0.1,0,0-0.1,0.1-0.1c-0.1,0.1-0.1,0-0.1,0l0,0l0,0l0,0
	c0.1-0.1,0.3-0.1,0.3-0.2c-0.3,0-0.8,0.4-0.3,0.4c-0.1,0-0.2,0.1-0.4,0c-0.2,0-0.4,0-0.7-0.1l0,0c-0.2,0-0.4-0.1-0.3-0.2
	c0.1-0.1-0.6,0.1-0.7,0c0.1-0.1,0.3-0.1,0.3-0.2S7.5,0.2,7.4,0.2c-0.6,0,0,0.1,0,0.3s-0.1,0-0.2-0.1C7.1,0.3,7.4,0.5,7.4,0.6
	s-0.6,0-0.6-0.1c0.1,0,0.1,0,0.2,0c-0.1-0.1-0.1,0,0.1-0.2c-0.2-0.1-0.6,0-0.3,0.1c-0.1,0-0.2,0.1-0.3,0.1c0.1-0.1,0.2,0,0-0.2
	c0,0.1-0.1,0.1-0.1,0.2s0.1,0.1,0.1,0.1C6.4,0.9,6.2,1,6,0.9C5.9,0.8,6.1,0.7,6.1,0.7c-0.3,0.2-0.1,0-0.3,0c-0.1,0-0.3,0.1-0.5,0.1
	c0-0.1,0.1-0.1,0.2-0.2C5.4,0.5,5.3,0.8,5.2,0.7C5,0.7,5.2,0.5,5.2,0.5S5.1,0.4,5,0.4l0,0l0,0L4.8,0.2c0,0-0.1,0.2-0.4,0.1
	c0,0,0.3-0.1,0.3-0.2L4.5,0.3c-0.2,0.1-0.2,0-0.1-0.1S4.2,0.3,4.2,0.3V0.2c0,0.3-0.2,0.2-0.4,0.1s0-0.1-0.1-0.2S3.6,0.1,3.4,0l0,0
	H3.2c0.1,0.1,0.2,0,0.1,0.1h0.2c0,0.2,0,0.2-0.1,0.4s-0.2,0-0.2,0v0.1l0,0l0,0c0,0,0,0.1,0,0.2C3.1,0.8,3,0.8,3,0.7
	c0,0.1,0,0.1-0.1,0.1c0-0.1-0.1-0.1-0.1-0.1C2.7,0.7,2.8,1,2.7,1C2.6,1,2.5,0.8,2.5,0.8s-0.1,0-0.2,0S2.1,0.7,2.1,0.5
	C1.8,0.6,1.9,0.9,1.7,0.9s0-0.1,0-0.2C1.5,0.7,1.5,1,1.4,1c-0.1,0,0-0.2,0-0.2C1.2,1,1.2,0.8,1.2,0.7c0,0.1-0.1,0.1-0.1,0.1h0.1
	c0,0.1-0.2,0.2,0,0.3c0,0-0.3,0.1-0.3,0.2S1,1.5,1.1,1.4c0.1,0,0.1,0.5-0.1,0.3c-0.2,0,0,0.4,0.1,0.5c-0.5,0-0.4,0.3-0.5,0.5
	C0.8,2.8,1,2.4,1,2.4s0-0.2,0.1-0.2s0.2,0,0.4-0.1c0.1,0.1,0,0.2,0,0.2c0,0.1,0.2,0,0.2,0.1s-0.1,0-0.2,0.1C1.4,2.6,1.1,2.7,1.1,2.8
	C1.1,3,1.4,3,1.3,2.9C1.1,3,1.1,2.8,1.3,2.8c0.3,0,0.2,0.2,0.2,0.4c-0.1,0-0.2,0.1-0.3,0.1s0-0.2,0-0.2S0.8,3.5,1,3.6
	s0.1-0.2,0.2-0.3s0.1,0.1,0.2,0c0.1-0.1,0,0.3,0,0.3s0.1,0,0,0c-0.1,0-0.1,0-0.1,0s0,0.1-0.1,0.2C1,4,1.2,4,1.2,4.1
	c0.1,0,0.1-0.2,0-0.1c-0.1,0,0-0.1,0.1-0.1c0.1,0,0.1,0.4-0.1,0.4c0-0.1-0.1-0.1-0.2-0.1c0,0.1-0.1,0.2-0.2,0.2S0.7,4.3,0.7,4.2
	l0.1-0.1V4c0-0.1,0-0.1,0-0.2c0-0.1,0.2,0,0-0.2C0.6,3.8,0.7,3.9,0.7,4.2c0,0.1,0,0.2,0,0.3c0,0-0.2,0-0.2,0.1
	c0.2-0.1,0.1,0.1,0.2,0.1s0.2-0.3,0.2-0.3c0-0.1,0.2,0.2,0.2,0.2S1,4.7,0.9,4.8H0.7c0,0,0,0.1,0.1,0.1s0.1,0,0.1,0.1
	C0.9,5,1,5,1,4.9C1.1,5,1,5,1,5s0.1-0.1,0.1,0C1.2,5.1,1,5.2,1,5L0.9,5.3c0,0,0,0.2-0.1,0.2L0.7,5.6c0,0.1-0.2,0.3-0.1,0.4
	c0.1-0.1,0.1-0.2,0.2,0c0-0.2,0.1-0.6,0.4-0.5l0.2,0.3c0,0-0.1,0-0.2,0c0.1,0,0.1,0.1,0,0.1c0,0.1,0,0,0-0.1c-0.1,0-0.1,0-0.2,0
	C0.9,6,1,6.4,1.2,6.2c0,0-0.3-0.3,0-0.2c0.1,0,0.1,0.3,0.1,0.4s-0.1,0-0.1,0.1s0.1,0.1,0,0.1s0,0.1-0.1,0C1,6.5,1.3,6.6,1,6.5
	c0.3-0.1,0-0.1-0.1-0.1c0,0.2-0.1,0.2,0.1,0.4s0.2,0.2,0.4,0c0,0.1,0,0.2,0,0.2s0.2,0,0.1,0.1c0,0.1-0.1,0-0.2,0
	C1.2,7.1,1.1,7.2,1,7.3C0.9,7.5,1.1,7.6,1.3,7.5L1.1,7.4c0-0.1,0.1-0.2,0.2-0.1c0.2,0,0,0.2,0,0.2c0,0.1-0.1,0.4-0.1,0.6h0.1v0.2
	v0.1c0.1,0,0.1,0.1,0.2,0.1c-0.1,0-0.2,0-0.2,0s0,0,0,0.1C1.2,8.6,1,8.7,0.9,8.9c0.1,0,0.2,0,0.3,0c0,0-0.2,0-0.1,0l0.1-0.2l0.1,0.1
	c-0.2,0.1,0,0.3-0.4,0.3V9c0,0-0.1,0-0.1,0c0.1,0.1-0.1,0.2,0,0.3c0.2-0.1,0-0.2,0.3-0.2c0,0,0,0.3,0.1,0.2c0.1-0.1,0-0.1-0.1,0
	C1,9.5,0.9,9.6,0.8,9.7c0.1,0,0.1,0,0.2,0c0.1-0.2-0.1-0.1,0.2-0.2c0,0.1,0,0.3-0.1,0.3H1c-0.2,0.2,0.2,0.3,0,0.5s-0.2,0.2-0.3,0.5
	c0,0.2,0,0.1,0,0.2s0.2,0.2,0.1,0.3c0,0.1-0.1,0.1-0.1,0.1c0.1,0,0.1,0.1,0.1,0.2h0.1c0,0.1-0.3,0.2-0.3,0.4s0.3-0.2,0.3-0.2
	s0.4-0.2,0.2,0L1.4,12c-0.1,0-0.3,0-0.4,0.1s0,0.2,0.1,0.2c0-0.1-0.1,0-0.1-0.1S1.1,12,1.2,12l0,0c0,0.1,0.1,0.2-0.1,0.3
	S1,12.3,1,12.2l-0.2,0.1l0.3,0.3H1c-0.1,0,0,0.1-0.2,0.1l0.1-0.1H0.8c0,0.1,0.1,0.2,0.2,0.2c0,0.1-0.1,0.2,0,0.3
	C1.1,13.2,1,13,1.1,13c0.1,0,0.2,0,0.2-0.1c0.1,0.1,0,0.3,0,0.4c-0.2,0-0.1-0.1-0.3,0s-0.1,0.3,0.1,0.2H1c0-0.2,0.3-0.2,0.3,0
	S1,13.7,1,14c-0.1,0,0-0.1-0.1-0.1s-0.1,0.1,0,0.2c-0.1,0.1-0.2,0-0.2,0.2s0.2,0.2,0.1,0.4c0,0.2-0.1,0.2,0.1,0.4
	c0.2,0.1,0.1,0,0.3,0.1c0.2-0.1,0,0.1,0.2,0c-0.1,0.1-0.3,0.1-0.4,0.1c-0.1,0.1-0.1,0-0.2,0.2c0,0,0,0,0.1,0.1s0.1,0,0.1,0
	s0-0.1,0.2-0.1c-0.1,0.2,0,0.4-0.2,0.5c0-0.1,0-0.2,0-0.3H0.9c0,0.3-0.1,0.7,0.3,0.4c0,0,0.1,0.4,0.2,0.3c0,0.1-0.1,0-0.1,0
	s-0.5,0.2,0,0.1c0,0.2,0,0.3,0,0.5c0.1,0,0.1,0.1,0.1,0.2c0.3,0,0.1,0,0.2,0.1H1.4v0.1v-0.1l-0.2,0.3C1,17.7,1.1,17.8,0.9,18
	c0.1,0,0.2,0,0.2,0c-0.1,0.1,0,0.1,0.1,0S1,18,1,17.9s0-0.2,0.2-0.1s0.1,0.1,0,0.3c-0.1,0.1-0.1,0.2-0.1,0.3
	c-0.1,0.1-0.2-0.1-0.2,0.1c0,0.4,0,0,0.2,0.2c0.1,0.1,0.2,0.2,0.2,0.4H1.2l0,0l0,0c-0.1,0-0.2,0-0.2,0.1l0,0c0.2,0.2,0.3,0,0.1,0.3
	c0.1,0.1,0.2,0,0.2,0.1H1.1c0,0.1,0.1,0.4-0.3,0.4c0.2,0.1-0.1,0.5-0.2,0.6c0.1-0.1,0.2,0.1,0.2,0.1c0.1-0.2,0.1-0.3,0.2-0.5
	C1,20.1,1.1,20,1.2,20l0,0c0.1,0,0.2,0,0.3-0.1c0.1,0.1,0.1,0.2,0.1,0.4c-0.2-0.1-0.5,0.3-0.6,0.4c0.6,0,0.1,0,0.3-0.2
	c0.4-0.2,0,0.8-0.1,0.3C1.1,20.7,1,21,1,21.1c0,0.1,0.2,0.3,0.3,0.2c0.1-0.1,0.1,0.3,0.1,0.2c0,0.1-0.1,0-0.1,0.1
	C1.2,21.7,0.8,22,1.2,22c0,0-0.1-0.2,0-0.2c0.1,0.1,0.1,0.1,0,0.3L1.5,22c0,0.1,0,0.2-0.1,0.4c-0.1,0,0.1-0.2-0.2-0.2s0,0.1-0.1,0.2
	s-0.2,0.3-0.2,0.5s0,0.4,0,0.7c-0.1,0.2-0.2,0.1-0.1,0.5C0.9,24,0.9,23.8,1,23.7c0.1-0.1,0.1,0,0.1-0.2S1,23.3,1,23.2
	c0.1-0.2,0.1-0.3,0.2-0.5c0,0-0.1,0,0-0.1c0.1,0,0.2-0.1,0.3-0.1c0,0.1,0,0.1,0,0.2c0.1,0,0.1,0,0.2,0.1l-0.3,0.1
	c0,0-0.2,0.2-0.2,0.4c0.1,0,0.2,0,0.3,0c0,0-0.2-0.4,0.1-0.2s-0.1,0.5-0.2,0.5c-0.1,0.1,0.1-0.1,0-0.2c-0.2,0.2-0.2,0.4,0.1,0.2
	c0.2,0.2-0.2,0.2-0.2,0.2s0.3,0.1,0.2,0.2c-0.3,0-0.3-0.1-0.5,0s0.1,0.1,0.1,0.1c0.2,0,0.2-0.1,0.3,0.1l-0.2,0.2l0.1,0.1v0.2
	c0,0,0.1,0,0.1,0.1s-0.1,0-0.1,0.1S1.1,25,1.1,25.1s0.2,0,0.2,0.1s0,0.1,0,0.2s0,0.3-0.1,0.4c-0.1,0-0.1-0.2-0.1-0.3
	c-0.2-0.1-0.3,0-0.3,0.2l0.1,0.1c0,0.1,0.1,0.1,0.2,0.1c0,0.1,0,0.1,0.1,0.1h0.1c-0.1,0.2,0.2,0.2,0.1,0.3c0,0.1-0.1,0-0.2,0
	s-0.1,0.1-0.1,0.1c-0.1,0.1-0.3,0.1-0.3,0.3s0.2,0.2,0.3,0.1c-0.1,0-0.4-0.1-0.1-0.2s0.1,0.1,0.1,0.3c0,0.1,0,0.3-0.2,0.3
	c-0.1-0.1,0.1-0.1,0-0.1s-0.2,0-0.3,0.1c0.1,0,0.2,0.1,0.1,0.2c0.2,0.1,0,0.1,0,0.1l0.2,0.1c0,0,0,0.2-0.1,0.3
	c-0.1,0.1-0.1,0.5-0.4,0.2c-0.1,0.1-0.1,0.2-0.1,0.3L0,28.6c0.2,0.1,0.1,0,0.2-0.1c0,0,0,0.1,0.1,0.1c0,0,0-0.2,0.1-0.3l0,0
	c0.1-0.1,0.1-0.1,0.2-0.1s-0.1,0-0.1,0.1s0.1,0.1,0.2,0.1c0.2,0,0,0.2,0,0.2s0.1,0,0.1,0.1s-0.1,0-0.2,0s-0.2,0.2,0,0.3s0.2,0,0.2,0
	s0.3-0.1,0.3,0s-0.1-0.2,0-0.2c-0.1,0-0.2,0.4-0.2,0.4c-0.1,0-0.2,0-0.2,0.1h0.1c0,0-0.1,0.3-0.1,0.1c0,0.1-0.1,0.1-0.1,0.2
	s0.1,0.1,0.2,0.3c0.1,0,0-0.2,0-0.2c0-0.1,0.1-0.2,0.2-0.3c0-0.1,0.1-0.2,0.1-0.3c0.1-0.1,0.2,0,0.3-0.1c0.1-0.1,0,0.2,0,0.2
	c0,0.1,0.2,0,0.2,0s-0.1,0.1-0.2,0.1h0.1c0,0,0,0.1-0.1,0.1v-0.1l0,0c-0.1,0.1-0.3,0.2-0.3,0.3c0,0.1,0.2,0.2,0.3,0.1c0,0,0,0,0.1,0
	c-0.1,0-0.4-0.1,0-0.2c0.2,0,0.1,0,0.1,0.2s0,0.4-0.3,0.4L1.4,30c-0.1-0.1-0.1,0-0.1,0s-0.2,0-0.2,0.2c0,0.1,0.1,0.1,0.1,0.2
	c0.3-0.1,0.2,0.1,0.3,0.2c-0.1,0.1-0.2,0-0.1,0.2c-0.1-0.1-0.2-0.1-0.2,0.1c0.3,0,0.3,0,0.2,0.2c-0.1,0.2-0.4,0.2-0.1,0.5
	c-0.6,0.1-0.5,0.9-0.5,1.2c0.2,0,0.1-0.1,0.3-0.2l0.1,0.2c0,0,0,0.1-0.1,0.2C1,33.1,1,33,1,33.1c0-0.1,0.1,0.2,0.1,0.2
	s0-0.1,0.1-0.1c0.2,0.2-0.1,0.1-0.1,0.1C1,33.4,1,33.6,0.9,33.7c-0.1,0.1-0.1,0-0.2,0.1c0,0.1,0,0.2,0.1,0.2c0-0.2,0.2-0.4,0.4-0.4
	c0.4,0,0,0,0.1,0.1c-0.1,0.1,0,0.1,0.1,0.1c0.1,0,0.1,0,0.1,0.1s-0.3,0.2-0.4,0.2c-0.1,0-0.2,0.1-0.2,0.2H1c0.1,0,0.2,0,0.2,0.1
	s0,0.1-0.1,0.2l0.2-0.2c0.1,0.1-0.1,0.2-0.1,0.2l0,0c-0.1,0,0.1,0.1,0,0.1c-0.1,0.1-0.2-0.1-0.2,0c0.1,0,0.1,0.1,0.1,0.2
	c0.2,0,0.2,0,0.4-0.1c0,0.1-0.1,0.2,0,0.3c0.1,0.1,0,0,0.1,0v0.1c-0.1,0-0.1-0.1-0.2,0l0,0c0.1,0,0.1,0.1,0,0.1c-0.1,0,0,0,0-0.1
	s0,0.1-0.1,0.1c-0.1,0-0.2,0-0.2,0.1C1,35.5,1,35.6,0.9,35.7c0.1,0,0.2,0,0.3,0.1c0,0,0.1-0.2,0-0.1s-0.1-0.2,0.2-0.1
	c0.3,0.1-0.1,0.7-0.3,0.8s0-0.3,0.1-0.4c-0.1-0.1-0.3,0.1-0.3,0.2c0.1,0,0.2,0.2,0.1,0.3c0.3,0,0.4,0,0.4,0.2s-0.2,0-0.1,0
	c-0.2,0-0.5,0.4-0.1,0.4c0,0-0.1-0.2,0.1-0.1c0.2,0.1,0,0.1,0,0.2c-0.1,0.3-0.1,0-0.1,0c-0.1,0-0.2,0.1-0.3,0.1c0,0.1,0,0.2,0,0.3
	L1,37.7H0.9c0,0.1-0.2,0.2-0.2,0.4c0,0.1,0.2,0.2,0.2,0.4c0-0.1,0-0.1,0-0.2c0-0.1,0-0.2,0.1-0.3c0-0.1,0.1-0.2,0.1-0.2
	c0.1,0,0.1,0,0.2-0.1c0.1-0.1,0.1,0.2,0.1,0.2s0.1,0,0.1,0.1l-0.6,0c-0.1,0.1-0.2,0.1-0.1,0.3s0.2,0,0.2-0.1s0,0-0.1,0
	s0.2-0.1,0.2-0.1c0,0.1,0,0.2,0,0.4c-0.1,0.1-0.1,0-0.2,0s-0.1,0-0.1,0v0.1c-0.1,0-0.1,0-0.2,0c0.3,0.2-0.4,0.9,0,1
	c0,0,0.1-0.3,0.2-0.4s0.1-0.2,0.1-0.3s0.2,0,0.2-0.1c0,0.1,0.1,0.1,0.1,0.2c0,0.1-0.1,0-0.1,0.1l0.1,0.2c-0.1,0.1-0.2,0-0.3,0.1
	s0,0.3,0.2,0.2L1,39.5l0.1-0.1c0,0,0.1,0.4,0.1,0.5c-0.1,0.1-0.1-0.1-0.1,0s-0.1,0-0.2,0C0.9,40,0.8,40,0.8,40
	c0.1,0.1,0.2,0.2,0.3,0.2c-0.1,0.2-0.2,0-0.4,0.1c-0.1,0.1-0.2,0.2-0.3,0.4c0,0.1,0,0.1,0,0.2c0,0.1,0,0.1-0.1,0.1s0,0-0.1,0.1
	s0.1,0.3,0.1,0.3s0.1-0.2,0-0.3l0,0l0,0c0.2,0.1,0.1-0.1,0.2-0.2c0.1-0.1,0.1-0.2,0.2-0.3s0.1-0.3,0.4-0.2c0.1,0-0.1,0.1-0.1,0.2
	c0,0,0.2,0,0.1,0.1s-0.1,0-0.2,0s-0.3,0-0.3,0.2l0.2,0.2c0,0-0.1-0.2,0-0.2S1,40.9,1,41l-0.1,0.2L1,41.3c0,0-0.1-0.1-0.1,0v0.1
	c-0.1,0.2-0.2,0.3-0.3,0.4c0,0.2,0,0.4-0.1,0.6c0,0.1-0.4,0.4,0,0.5c0-0.2,0.1-0.5,0.4-0.5v-0.1c0.3,0,0.3-0.1,0.3,0.1
	c-0.1,0-0.1,0-0.2,0c0,0.2,0.1,0.1,0.2,0.3c0,0.1-0.1,0-0.1,0c0.1,0.1,0.2,0.2,0.3,0.3c0,0.2-0.2,0.2-0.2,0.4s0.1,0.2,0.1,0.3
	l-0.2,0.1c-0.1,0-0.1,0-0.2,0.1v0.2c0,0.1-0.1,0-0.1,0.1c-0.1,0.1,0,0.4-0.1,0.7c0.1,0.1,0.1,0.2-0.1,0.2L0.4,45
	c0,0.1,0,0.2-0.1,0.4c0,0,0.4-0.4,0.4-0.5H1C1,45,1.2,45,1.2,45.1s-0.1,0-0.2,0.1s-0.1,0-0.2,0.1s0,0.1,0.1,0.2
	C1,45.4,0.8,45.4,1,45.3s-0.2,0.5,0.2,0.2c0.1,0.1-0.4,0.7,0,0.8c-0.1,0-0.3,0.2-0.3,0.3c0,0-0.2,0.5,0,0.4s0.2-0.3,0.3-0.4
	s0.1-0.2,0.2-0.2c0.1,0,0.1,0.1,0.2,0c0.1,0.1,0,0.2,0.2,0.3c0,0.1-0.3,0.1-0.4,0.2c-0.2-0.1-0.2,0-0.2,0.1c0.1,0,0.1-0.1,0-0.1
	c0.3-0.1,0.2,0.1,0.1,0.2c-0.1,0.1,0,0.1-0.1,0.1s0,0,0-0.1C1,47,0.8,47.6,1.4,47.5c0,0.1,0,0.1,0,0.2c0.3,0.1,0,0.1,0,0.1h0.1l0,0
	l0,0l0,0c0,0.1-0.3,0.1-0.3,0.2c0,0.1,0.1,0,0.2,0.1c0,0.1,0-0.2,0.1-0.2c0.1,0,0,0.1,0,0.2v0.1H1.4c-0.1,0.1-0.1,0.1-0.1,0.3
	s0,0.3-0.2,0.4c0.1,0,0.1,0.3,0.1,0.4v0.4c0,0,0.1,0.1,0,0.1S1.1,49.9,1,50c-0.1,0.1-0.2,0.3,0,0.4c0.1-0.2,0.2-0.3,0.4-0.5
	C1.1,50.1,1.1,50,1.2,50s0,0,0,0.1c0,0,0.1-0.1,0.1-0.2l0.2,0.2c0,0,0.1,0.1,0,0.2c-0.1,0.2-0.3,0.2-0.3,0.3
	c-0.1,0.1,0.1,0.1,0.1,0.3c0.2-0.1-0.1-0.1,0-0.2c0.1-0.1,0.2-0.1,0.3,0c0,0.1-0.3,0.7-0.2,0.4H1.3c0,0,0,0.1-0.1,0.1s0-0.1,0.1-0.1
	C1.2,51,1.2,51,1.2,50.9c-0.5-0.2-0.2,0.6,0.2,0.4c0,0.1,0,0.2,0,0.2c0.1,0,0.1,0,0.2,0.1c-0.1,0.1-0.4,0-0.4,0.2
	C1,52,1.4,52.1,1.3,52c-0.2,0.1,0-0.2,0.1-0.1c0.1,0.1-0.1,0.3,0,0.4c-0.2,0.1,0,0.2-0.2,0.3c-0.2-0.2,0.1,0-0.1-0.2l0.1-0.1
	c-0.2-0.1-0.3,0-0.3,0.2s0.2,0.2,0.4,0.2c0,0.1,0,0.1,0,0.2c0.1,0,0.1,0,0.1,0.1H1.3c0,0-0.8,0.5-0.2,0.4c0,0-0.2-0.3,0.1-0.2
	c0.1,0.1-0.1,0.6-0.2,0.6c-0.1,0-0.1-0.2-0.1-0.2s0,0,0-0.1c-0.1,0-0.1,0-0.1-0.1c-0.1,0.1-0.1,0.1-0.1,0.2c0,0.1,0.1,0,0,0.1
	c0.2,0.1,0.4,0.2,0.4,0.4c0,0,0.1,0.3-0.1,0.2c-0.1,0,0-0.1,0-0.1c-0.1,0-0.2,0.1-0.3,0.2c-0.1,0.3,0,0,0.1,0.2
	c0.1-0.1-0.1-0.3,0.1-0.2S1,54.5,1,54.6c0,0.1,0.1,0.2-0.2,0.2c0.1-0.1,0-0.1-0.1,0c0,0.1,0,0.2,0,0.3c0.2,0.1,0.1-0.2,0.2-0.2
	s0.2,0,0.2,0S1,55,1.1,55c0.1,0,0.2,0.1,0.2,0.1l-0.1,0.3c-0.1,0.1-0.1,0.2-0.2,0.3c0.1,0,0.2,0,0.3,0c0-0.1-0.1,0-0.1-0.1
	c0.3-0.2,0.3,0.3,0.2,0.3c-0.1,0-0.4,0.1-0.5,0.2S1,56.3,1,56.3l0.1-0.2c0,0,0.2,0,0.2-0.1s0,0.1,0,0.2c0.1,0,0.1,0.1,0.2,0.1
	c0,0-0.2,0-0.2,0.1l-0.1,0.2c0.1,0,0.2,0,0.2,0l-0.2-0.1c0.1,0,0.2,0,0.3,0c-0.1,0.2,0,0.3-0.2,0.4c-0.1-0.3-0.2,0-0.3,0
	c-0.2-0.2,0.2-0.4,0-0.6s-0.1,0.2-0.1,0.3S0.8,56.9,1,57c-0.2,0.1-0.3,0.3-0.1,0.4c0.1-0.1,0.2-0.3,0.2-0.5C1.2,57,1.2,57,1.3,56.8
	c0-0.1,0.2,0.3,0.2,0.3c0,0.2-0.1,0-0.2,0.1C1.2,57.3,1,57.4,1,57.6c0.1-0.1,0.1-0.2,0.2-0.2s0,0.2,0,0.3c0,0.3-0.1,0.3-0.4,0.1
	c0,0.2-0.5,0.4-0.2,0.6c0.2,0.2,0.1-0.1,0.2-0.1s0-0.2,0.2-0.1L1.1,58v0.2h0.2c0,0.1-0.2,0.1-0.2,0.2L1,58.3c0,0.1-0.5,0.3-0.3,0.5
	c0.1,0,0.2-0.4,0.4-0.2c0,0.1,0,0.2,0,0.2c-0.1,0.4-0.2-0.1-0.4,0.1c0.1,0.1-0.1,0.4-0.2,0.5c0,0.1-0.1,0.6,0.1,0.5s0,0.1,0.1,0.1
	c0-0.2,0-0.3,0-0.5c0-0.1,0-0.2,0-0.3s0.5-0.2,0.5,0.1c0.1,0,0.2-0.1,0.1,0.1c-0.1,0.2-0.1,0-0.1,0S1,59.6,1,59.7s0.1,0.3,0.2,0.1
	c-0.4-0.1,0.3-0.3,0.1,0.1c-0.1,0.2-0.1,0.2-0.2,0.1C0.9,60,1,60.3,1,60.4s0.2,0,0.1,0.2h0.2c0,0.2,0.1,0.1,0,0.3
	C1.3,60.8,1,61,1,61s0,0.2,0.2,0.2S1.1,60.9,1.4,61c0,0.1,0,0.3-0.1,0.3c-0.1,0-0.1,0-0.1,0s-0.3,0-0.2,0s0,0.1-0.1,0.1
	s0-0.2-0.2-0.2c-0.1,0.3-0.3,0.6-0.3,0.9c0,0-0.1,0.2,0,0.2s0.2,0,0.3,0c-0.2-0.1,0-0.4,0.1-0.6c0.1-0.2,0.2-0.2,0.4-0.3
	c0,0.1,0,0.2,0.1,0.3c0,0.1,0,0.1-0.1,0.1s0,0,0,0v0.1C1,62,1.2,61.7,1,62s0,0.4,0.2,0.2c0,0-0.3-0.2,0-0.2s0.1,0.5-0.1,0.4
	c0,0,0-0.1-0.1-0.1c-0.1,0-0.1,0.3-0.1,0.4c0.1,0,0.1,0,0.2,0c0,0.3-0.1,0.1-0.3,0.2S0.6,63,0.6,63.1c0,0.1,0.2-0.1,0.2,0
	C0.9,63.2,1,63,1.2,63l0.1,0.1c0,0.1-0.1,0.3-0.1,0.4s0,0.2,0,0.3s0,0.1-0.1,0.2C1,64.1,1,64.2,1,64.3c0,0.1,0,0.2-0.1,0.3
	c0,0.1,0,0.2,0,0.3c-0.1,0.2-0.2,0.4-0.2,0.6c0.2-0.1,0.3-0.3,0.4-0.4V65c0.1,0.1,0.2,0,0.1,0l0,0H1.1L1,64.8v-0.3
	c0.1-0.1,0.1-0.2,0.2-0.3c0-0.1,0.1-0.1,0.1-0.2c0.1,0,0.2,0,0.3-0.1c0,0,0.2,0.5,0.2,0.3c0,0.1-0.2,0.1-0.3,0.2
	c-0.1,0.1-0.3,0.2-0.3,0.3s0.2,0,0.2,0.2c0.1,0,0.1-0.1,0.1-0.2c-0.2,0.1-0.1-0.2,0.1-0.1S1.5,64.9,1.7,65l-0.2,0.1
	c0-0.1,0-0.1,0-0.1H1.1c0,0.1,0,0.3,0,0.4c0.1,0,0.1,0,0.1-0.1c0,0.1,0,0.1,0,0.2c0.2,0,0.2,0,0.2,0.1c0-0.1-0.4-0.1-0.5-0.1
	s-0.1,0.1-0.2,0.1L1,65.7c-0.1,0.1-0.1,0.2-0.1,0.3c0,0.1-0.1,0-0.1,0.1s-0.1,0.5-0.1,0.5c0.1,0,0.2,0,0.3,0c-0.1,0.1,0,0.4-0.2,0.3
	l0.1,0.2c0,0-0.1,0.1-0.1,0.2s0.1,0.2,0.1,0.2s-0.2,0.1-0.3,0.2S0.4,68,0.4,68.1c0,0.2,0.2,0.1,0.2,0.2v-0.1c0,0,0-0.2,0.1-0.2
	c0.1-0.1,0.1-0.2,0.2-0.3c0.1-0.1,0.3-0.1,0.3-0.1C1.3,67.5,1.4,68,1.3,68l-0.1,0.1c0-0.1,0-0.1,0-0.1h0.1c0-0.1-0.3,0.1-0.3,0.1
	c-0.2,0.2-0.2,0.2,0,0.4c0.2-0.2-0.1-0.1,0-0.2s0.2-0.1,0.3,0c0.1,0.1-0.1,0.3-0.1,0.3s0.1,0.2-0.1,0.4c-0.2-0.1,0-0.3-0.1-0.4
	c-0.1-0.1-0.2,0.1-0.2,0.1l0.1,0.2C0.9,69,1,69.1,1,69.1h0.2v0.1l0.1,0.1c0,0.1-0.1,0-0.2,0c-0.2,0.1-0.3,0.2-0.4,0.4
	c0.1,0,0.1,0,0.2,0c0,0,0-0.4,0.2-0.2S0.9,70,1,69.8c-0.1-0.1-0.1,0.1-0.2,0s0,0.2-0.2,0.1c-0.2,0,0-0.2,0-0.2c0-0.1,0-0.1,0-0.2
	s0-0.2,0.1-0.2s0.2-0.1,0.1-0.2s-0.4,0.4-0.4,0.5s0,0.2,0,0.3c0,0.1,0.1,0.1,0.1,0.2c-0.2,0-0.3,0.2-0.3,0.3c0,0.1,0.2,0.2,0,0.2
	c0.1,0,0.3-0.1,0.4-0.2s0-0.2,0.2-0.3c0,0,0.1,0,0,0.1s0.1-0.1,0.2-0.1c-0.1,0.2-0.1,0.1,0,0.3H0.9c0,0.1,0.1,0,0.1,0
	s-0.1,0.1-0.1,0.2c0-0.1,0.1,0.3,0,0.3L1.2,71c0,0.1-0.3,0-0.4,0.1c0.1,0.1,0.2,0.1-0.1,0.2c0,0.1,0.2,0.1,0.1,0.2
	c-0.2,0-0.4-0.2-0.3,0.1c0,0.3,0.1,0.2,0.3,0s0.1-0.3,0.3-0.3s0.1,0,0.2,0.1c-0.2-0.1,0,0.2,0.1,0.2l0,0c-0.1,0-0.2,0-0.3,0.1
	s0,0,0,0.2s0.1,0.2,0.1,0.2c0.1,0,0.1,0,0.2,0c0.1,0-0.1,0.2-0.2,0.2c0.1-0.2,0.1-0.3,0-0.3c0,0.2-0.1,0.4-0.2,0.5c0,0,0,0,0-0.1
	s0,0.2,0,0.3s-0.1,0-0.1,0s0,0.3,0,0.5c0,0,0,0.4,0,0.3s-0.2,0.1-0.3,0.2s0,0.2-0.1,0.3s-0.1,0.2,0.1,0.4c0-0.2,0-0.4,0.1-0.6
	c0.1,0,0.2-0.1,0.3-0.1c-0.1,0-0.1-0.1,0-0.2c0.1,0.1,0.1,0.2,0.2,0.2c0,0.1-0.2,0-0.3,0.1c0.1,0.1,0.1,0,0,0.2
	c-0.1-0.1-0.1-0.1-0.2,0s-0.1,0.1-0.2,0.2c0.1,0,0.1,0,0.2,0c0-0.1,0-0.3,0.1-0.1c0,0.1,0,0.2-0.1,0.3c-0.1,0-0.1-0.1-0.1-0.1
	c-0.2,0-0.1-0.1-0.2,0.1s0,0.1-0.1,0.2c0,0.1,0,0.1,0.1,0.1l-0.1,0.1l-0.2,0.1c0,0.1,0,0.2-0.1,0.3l0,0c0.2-0.1,0.5-0.6,0.6-0.2
	s-0.1,0.1-0.2,0.2s-0.2,0.2,0,0.2c0,0-0.1-0.2,0.1-0.1s0,0.3-0.1,0.4c0.1,0,0.1,0.1,0,0.1s-0.1-0.2,0-0.2c-0.2-0.1-0.2,0.1-0.2,0.2
	s0.4,0.1,0.2,0.2h0.1c0,0.1-0.1,0.1-0.2,0.1c-0.2,0-0.3,0.2,0,0.2c-0.1,0,0-0.3,0.1-0.1s-0.1,0.2-0.1,0.3c0.2,0,0.1,0,0.2,0
	s0,0.5,0,0.6h0.3c-0.1,0,0,0,0,0.1c-0.1,0.1-0.1,0.2-0.2,0.3C0.8,77.4,1,77,1.2,77.1c0.4,0.1-0.1,0.2-0.2,0.3
	c-0.1,0.1,0.2,0,0.2,0.2c0,0.1,0,0.3-0.1,0.4H1c0.1,0.1,0.1,0.3,0.1,0.4c0.1-0.1,0.2,0,0.3-0.1c0.1-0.1,0,0.1,0,0.2l0.1,0.1
	l-0.1,0.2v-0.1c-0.2,0-0.1,0.5,0.2,0.2c0.1,0.1-0.1,0.2,0,0.3c-0.1,0-0.1-0.1-0.2-0.2c0,0.1,0,0.2-0.1,0.2l-0.2,0.2h0.1
	c-0.2,0-0.3,0.2-0.3,0.4v0.1c0.1,0,0,0.1-0.1,0.1s-0.1,0.2,0.1,0.1c0.1,0.1-0.1,0.2-0.2,0.2c0,0.1-0.1,0.3-0.2,0.5
	c-0.1,0,0-0.1-0.1-0.1s-0.2,0.5,0,0.5S0.5,81,0.5,81c0.1-0.3,0.3-0.5,0.6-0.6c0,0.2-0.2,0.2,0.1,0.3c0,0.2-0.2,0-0.2,0.2l0.1,0.5
	c-0.1,0-0.1,0.1-0.2,0.1c0,0,0,0.3,0.1,0.3c0.1,0,0.2,0,0.3,0.1c0.1,0.1,0.1,0.3,0.1,0.2c0,0.1-0.1,0-0.1,0S1.1,82.3,1,82.3
	c0.1,0.1,0.3,0,0.4,0c0,0.1-0.1,0.2-0.1,0.3c-0.1-0.1,0-0.1,0-0.2H1.2c0,0.2-0.6,0.6-0.2,0.5C1.1,83,1,83,1,83l0.2-0.1l0.3-0.1V83
	l0.1,0.1c0,0.2,0,0-0.1,0.1c-0.1,0.1-0.2,0.2-0.3,0.3c-0.2,0.3,0.1,0.1,0.1,0.3c0.3-0.2-0.1-0.1,0-0.2c0.1-0.1,0.1,0,0.3,0
	c-0.1,0.1-0.1,0.3-0.2,0.4c-0.2,0.1-0.2,0-0.1-0.1c-0.1,0-0.2,0-0.2,0c0,0.1,0,0.1,0,0.2l-0.2,0.1c-0.1,0.1-0.2,0.2-0.2,0.3l0.1,0.1
	c0.1-0.1,0.4-0.7,0.7-0.4l-0.1,0.2l0.1,0.2c-0.2-0.1-0.4,0-0.5,0.1c-0.3,0.2,0.1,0.5,0.2,0.2H1c0.1-0.2,0.3-0.1,0.3,0
	s-0.2,0.3-0.4,0.4c0.2,0,0.2,0.3,0.2,0.4s0,0.1-0.1,0.2C1,86,1,86,1.1,86.1l-0.3,0.2c0,0.1,0,0.1,0.1,0.2c0,0.1-0.2,0.1-0.1,0.3
	c0.2-0.2,0.3-0.6,0.7-0.6v0.2c0.1,0,0.1,0,0.1,0.1s-0.1,0-0.1,0c0,0.2-0.2,0-0.3,0.2c-0.1,0.2-0.1,0.3,0.1,0.2s-0.1-0.2,0-0.2
	c0.3-0.1,0.2,0.1,0.2,0.2s-0.1,0.3-0.1,0.3s-0.1,0.1-0.2,0c-0.1-0.1,0.1-0.1,0-0.2c-0.2,0-0.4,0.2-0.3,0.4c0.2-0.2,0.2,0,0.1,0
	c0.1,0.1,0.1,0,0.2,0.1c0.2-0.1,0,0.1,0,0.2s0.2,0,0.1,0.2c-0.1,0.2-0.1,0-0.3,0.1s-0.4,0.3-0.2,0.3s0.3-0.3,0.4,0l-0.1,0.2
	c0,0.1,0.1,0.2,0.2,0.3c0,0-0.8,0.5-0.3,0.4c0,0,0-0.3,0.1-0.1s0.1,0,0.1,0c0,0.1,0.2,0,0,0.2c-0.2-0.1,0,0-0.1,0.1
	c0-0.1,0-0.2,0-0.2c-0.2,0,0,0.4,0,0.5c-0.2-0.2-0.3,0.2-0.3,0.4c0,0.1,0,0.1,0,0.2l0,0l-0.1,0.1c0,0.1,0,0.2-0.1,0.3
	c-0.1,0.1,0,0.1,0,0.2s-0.2,0.2-0.2,0.3s0,0.3,0,0.3c0.1,0,0.1,0,0.2,0c-0.1-0.2,0-0.4,0.1-0.5l0,0c0.1-0.1,0.3-0.2,0.2,0
	c0.2,0,0,0.2,0,0.2s-0.3,0.3-0.1,0.2c0,0,0-0.2,0.1-0.1c0.2,0.1,0,0.3-0.1,0.4s0,0.3-0.1,0.4s-0.2,0.4-0.1,0.6c0.1-0.1,0.1,0,0.1,0
	s0-0.3,0-0.4s0.1-0.2,0.1-0.3c0.1-0.1,0.2,0,0.3,0c0.1,0,0,0.1,0,0.2h0.1c-0.2,0.2-0.2,0.2,0,0.3c0,0-0.2-0.2,0.1-0.1
	C1.2,92.5,0.9,93,1.4,93c0,0.1-0.1,0.1-0.1,0.2L1.1,93c0,0.1,0,0.2,0.1,0.2c0,0,0.2,0,0.2,0.2s0.1-0.2,0.2-0.1
	c0.1,0.1,0.2-0.1,0.2-0.1c0.1-0.2,0.3-0.4,0.6-0.4c0.5-0.1,0.1,0.6,0.4,0.7c0.1-0.1,0.3-0.4,0.5-0.2c0.1-0.2,0.1-0.2,0.3-0.3
	c0.2-0.1,0.2,0.1,0.3,0c0.1,0.1,0.3,0.1,0.4,0c0.3-0.2,0.5-0.4,0.7-0.4s0.7,0.2,0.7,0.3c0.1,0,0.7,0.1,0.6,0.2L6.6,93
	c0.2-0.2,0.3-0.2,0.3-0.1c0.3-0.1,0.3,0.1,0.5,0.3C7.5,93,7.6,93,7.8,93.1l0.3-0.2c0.2,0,0.6,0.1,0.8,0c0.2-0.1,0.4-0.3,0.6-0.4
	s0.5-0.1,0.8,0s0.4,0.1,0.5,0.4c0.1,0.2,0.2,0.3,0.4,0.3l0,0c0.1-0.1,0.2-0.3,0.3-0.4c0-0.1,0.1-0.2,0.2-0.2v-0.1c0.1,0,0.1,0,0,0
	l0,0l0,0c0,0,0.2,0,0.3-0.1c0.2-0.1,0.1-0.3,0.5-0.2c-0.2,0,0.4,0.4,0.3,0.4c-0.1-0.2,0.4,0,0.5,0c0.5,0,0.6-0.2,1.1,0.1
	c-0.1-0.1,0-0.2,0.2-0.2c0.1,0.2,0.1,0.3,0.4,0.4c0-0.1,0.6,0,0.6,0c0.3,0,0.5,0.2,0.8,0c0.3-0.2,0-0.1,0.2-0.3
	c-0.1,0-0.2,0.1-0.3,0.1c0.2-0.2,0.2-0.3,0.5-0.3s0.2,0.1,0.2,0.3c0.1,0,0.2,0,0.3-0.1c0.1-0.1,0.3-0.2,0.5-0.1
	c0.4,0,0.5,0.1,0.7,0.3c0.1,0.2,0.1,0.4,0,0.7c0.4,0,0,0.2,0.5,0.1c0.1,0,0.2-0.1,0.2-0.1l0.3-0.1c0.2-0.1,0.2-0.2,0.5-0.2
	c0.2,0.1,0.4,0.2,0.6,0.2c-0.2-0.1-0.2-0.2-0.1-0.4c-0.3,0-0.5-0.2-0.2-0.4c0.3-0.1,0.3,0.1,0.4,0.1s0.1,0.1,0.3,0.1H21
	c0.1-0.1,0.3,0,0.4,0.1l0.2,0.2c0.2,0.1,0.2,0,0.5-0.2s0.5-0.1,0.6-0.2l0.2-0.2h0.3c0.3-0.1,0.6-0.1,0.9,0.2c0,0,0,0,0.1,0
	c0.1,0,0,0.1,0,0.1c0.2-0.1,0.3-0.1,0.5-0.1c0.3,0,0.5,0.3,0.8,0.3c0.1,0,0.2-0.1,0.3-0.1c0,0,0,0.1-0.1,0.1h0.5
	c-0.1-0.3,0.1-0.2,0.4-0.2l0.3,0.1c0.5,0.4-0.5,0.2-0.5,0.2c0.3,0.3,0.2,0.1,0.6,0.2c0.4,0.1,0.4,0.2,0.5,0.3
	c0.7,0.3,0.2-0.2,0.6-0.2c-0.2-0.1-0.2-0.2,0-0.3c0.2,0.1,0.3,0,0.6,0c0.3-0.1,0.6,0,0.8,0.1c0-0.1,0-0.5,0.3-0.3s0,0.2,0,0.3
	c0,0.1,0,0.2,0,0.4c0,0,0,0.7,0.2,0.3c-0.4,0.1-0.2-0.4,0.1-0.2c0.2-0.3,0.2-0.5,0.7-0.5c0,0,0.2,0.2,0.4,0s-0.5-0.2,0.1-0.5
	l0.3,0.7c0-0.1,0.4,0,0.6,0c0.5-0.2-0.2-0.3,0.3-0.5c0.1,0.3,0.2,0.5,0.6,0.5l-0.1,0.1c0.1,0,0.3-0.1,0.4-0.1c0,0,0.2-0.6,0.3-0.2
	c0.2-0.2,0.1-0.4,0.6-0.5c0.4-0.2,0.3-0.1,0.8,0c0.1,0.1,0.3,0.1,0.4,0l0.1-0.1c0.3,0.1,0.5,0.3,0.1,0.4c0.2,0.1,0.2,0.1,0.2,0.2
	v0.1l0,0l0,0l0,0l0,0l0,0h-0.9l0.2,0.3c0.3-0.4,0.2-0.1,0.5-0.1c0.3,0,0.5-0.3,0.6-0.3s0,0,0,0c0.2,0,0.2-0.1,0.3,0
	c-0.2,0.2,0,0.2,0.2,0.2c0.2,0,0.7-0.2,0.5,0.1c0.2-0.1,0.3,0.2,0.5,0c0.1,0,0.2-0.1,0.2-0.1c0.1,0,0.1-0.1,0.2-0.2h0.3
	c0.1,0,0.7-0.2,0.8-0.1c-0.1-0.6,0.8-0.1,0.3,0.1c0.1,0,0.2,0.1,0.3,0.2l0.2,0.2c0,0,0.2,0,0.2-0.1c-0.1,0.1,0-0.1,0,0
	c0.1-0.2,0.8-0.2,0.8-0.5c-0.2,0-0.3-0.2-0.2-0.3s0.3,0,0.3,0h0.3c-0.1,0-0.2-0.1-0.1-0.2c0.1-0.3,0.4-0.2,0.5,0c0.1,0.2,0,0.1,0,0
	c-0.1,0-0.1,0.1-0.2,0.1c0.3,0,0.5,0.1,0.8,0.2c0-0.1,0.6,0.1,0.2,0.2c0,0,0.3,0,0.3,0.1c0.1-0.1,0.2,0,0.4,0c0-0.2-0.2,0-0.1-0.2
	s0.2,0,0.4,0c0,0.2-0.1,0.3,0.3,0.3s0.4,0,0.4-0.3C44.1,93,44,93.1,43.8,93c-0.1-0.2-0.3-0.3,0.1-0.4l0.3,0.1c0,0.1,0.1,0.1,0.2,0
	c0.1,0.3,0.1,0,0.2,0.2c0.1,0.2,0.1,0.1,0,0.2H45c0,0,0,0,0.1,0c0-0.1,0.1-0.1,0.2,0l0,0c0.1,0,0.3,0.1,0.3,0.1
	c0.1,0,0.3-0.2,0.3-0.2c-0.1-0.1-0.4,0.1-0.7,0c-0.3-0.1-0.1-0.4,0-0.5s-0.1-0.1,0.2-0.2c0.3-0.1,0.2,0,0.3,0c0.4,0,0.8-0.1,1,0.2
	c0.3-0.3,0.6-0.4,1-0.3c0-0.2,0.3-0.3,0.5-0.1S48,92.3,48,92.3s0.1,0.2,0.2,0.3c-0.1,0-0.2,0-0.2,0.1c0,0,0.6,0.1,0.5,0.1
	c0.2,0,0,0,0.1-0.2s-0.1-0.2-0.1-0.2s0.3,0,0.4,0c0.3-0.1,0.7-0.1,1,0c0.2,0.1,0.4,0.1,0.4,0.3c0.2-0.1,0.4-0.1,0.6,0
	c0.2,0.1,0,0.3-0.2,0.5H51c0,0-0.1-0.1,0-0.2l0,0c0.2,0,0.3,0,0.5-0.1c0.1,0.1,0.1,0.1,0.2,0.2c0.2-0.2,0-0.2,0.3-0.4
	c-0.2,0.1-0.4,0-0.3-0.2c-0.1,0-0.3,0-0.4,0c0-0.3,0.2-0.5,0.5-0.2c0.1-0.2,0.6,0.1,0.3,0.3c0.2-0.1,0.5-0.3,0.6-0.2
	c0-0.1,0.1-0.4,0.2-0.4c0.4-0.1,0.5,0.4,0.1,0.4c0.1,0.2,0.3,0.8,0.6,0.7c-0.2-0.2-0.2-0.2,0-0.4c0.1-0.2,0.2-0.3,0.3-0.4
	c0.4-0.1,0.8-0.1,1.2,0.2c0.2-0.3,0.6-0.3,1-0.2c0.2,0,0.2,0.1,0.3,0c0.1-0.1,0-0.1,0.1-0.1c0.2,0,0.4,0,0.6,0c0.2,0,0.3,0,0.5,0.1
	c0.2,0,0.3,0,0.5,0.1c0.2,0.1,0,0.2,0.4,0.2c-0.3-0.2,0.6-0.6,0.5,0c0.2,0,0.4-0.1,0.6-0.2c0.1-0.1-0.2-0.2,0.1-0.3
	c0.3-0.1,0.5,0.3,0.1,0.4c0.4,0.1,0.6,0,0.7-0.2c-0.4,0.2-0.6-0.2-0.3-0.4c0.3-0.2,0.6,0.1,0.3,0.3c0.9-0.1,0.4,0.4,0.9,0.6
	c0.3,0.2,0.7,0.2,1,0.2c0.3,0,0.3,0.1,0.6,0.3c0,0,0.8,0.4,0.9,0.3c0-0.1-0.1-0.1-0.2-0.1c0.1-0.2,0.3-0.3,0.4-0.2
	c-0.1,0,0-0.1,0.1-0.1c-0.3-0.1,0.3-0.5,0.4-0.2c0.2-0.1,0.4-0.2,0.6-0.1h0.3l0.2,0.2c0.2,0,0.4,0,0.7,0c0.2,0,0.4,0.1,0.5,0.2
	l0.3,0.2L67,93.7c0.2,0.2,0.2,0.2,0.4,0c-0.2,0-0.3-0.1-0.3-0.2s0.3-0.3,0.5-0.3c0.4-0.1,0.3,0,0.7,0.1c0.2,0,0.2,0.1,0.3,0.1
	c0-0.3-0.2-0.3,0.2-0.5l0.1,0.3c0.3-0.2,0.7-0.3,1-0.1c0.3,0.1,0.3,0.2,0.5,0.4c0.5,0.3,1,0.4,1.6,0.3c0-0.2-0.4-0.2,0-0.4
	c0.1,0,0.3,0.1,0.3,0.1c0.2,0,0.4,0,0.6,0c0.2-0.1,0.3-0.2,0.5-0.2c0.2-0.1,0.4-0.1,0.6-0.1c0.2,0,0.4,0.3,0.6,0.3
	c0.5,0,0.1-0.3,0.5-0.3c-0.1,0,0.4,0.2,0.4,0.2l0.1-0.1c0,0,0,0.1-0.1,0.1c0,0.1,0.1,0.1,0.2,0l0,0c-0.1,0-0.1-0.1-0.1-0.2
	c0,0,0-0.1,0.1-0.1c0.2-0.1,0.3,0.1,0.3,0.1s0.1,0.1,0.2,0.1l0.1-0.1c0.2,0,0.2-0.1,0.4,0c0.2,0.1,0.1,0.7,0.3,0.2h-0.1
	c0,0-0.1-0.1,0.3-0.3l0.1,0.2h1.3c-0.1-0.3-0.2,0-0.3-0.2c-0.1-0.2-0.1-0.2,0-0.3c-0.4,0.3-0.7-0.5-0.1-0.4c0.4,0,0.1,0.3,0.2,0.3
	c0.1,0,0.4,0,0.4,0.3c0.2-0.2,0.6-0.3,0.9-0.3l0.6,0.1l0.1,0.2c0.2,0,0.5-0.1,0.7,0s0.3,0.2,0.5,0.3s0.1,0,0.1,0.1
	c0.2,0,0.3,0,0.3,0.1s-0.1,0.1,0.1,0.2c0.1,0,0.2,0,0.3,0c0.2,0,0.8,0,0.4,0.3l0.2,0.1c0.1,0,0.1-0.5,0.3-0.3c0-0.1,0.1-0.1,0.3,0
	l0.2-0.1c0.1-0.1,0.2-0.1,0.2,0l0.2,0.1c0.3,0,0,0.1,0.3,0c-0.3-0.2,0.2-0.4,0.4-0.3c0.1-0.2,0.5-0.3,0.8-0.2c0-0.1-0.1-0.4,0.2-0.3
	s0.2,0.2,0.2,0.3c-0.2,0.1-0.1,0.1,0.1,0.2l0.2,0.1c0.1-0.1,0.2-0.2,0.4-0.1c0.1-0.1,0.3-0.1,0.3,0c0.1-0.2,0.6-0.5,0.7-0.1
	c0.1,0.2-0.3,0.2-0.4,0.3s0.1,0.2,0.1,0.2c0.3,0,0,0,0.1,0.2c0.6-0.1,0-0.3,0.3-0.5l0.3,0.3c0,0-0.1-0.2,0-0.2s0.1-0.1,0.4-0.2
	c0.3-0.1,0.6,0,0.8,0.1c0.3,0.1,0.2,0.2,0.5,0.3l0.3-0.1c0.2,0,0.4,0,0.6,0.2c-0.1,0.1-0.2,0.3,0,0.2C90.2,93.9,91,94,91.1,94
	c0.3-0.1,0.6-0.2,0.9-0.2c0,0,0,0.1-0.1,0.1c0.2,0.1,0.4,0.2,0.6,0.3c0,0-0.1-0.1-0.1-0.2c0.1-0.1,0.2-0.1,0.3-0.2
	c-0.2,0.1-0.3,0-0.2-0.1s0-0.2,0.3-0.2c-0.2,0.1,0.3,0.1,0.3,0.1c-0.4-0.5,0.7-0.3,0.4,0c0.2,0,0.3,0,0.4-0.1c0.1,0.1,0.5,0,0.6,0
	c0,0,0-0.1,0.1-0.1s-0.1,0.2,0.1,0.3c0-0.1,0-0.2,0.1-0.2s0.1,0,0.2,0.1c0-0.8,0.9,0.1,0,0c0,0.1,0.2,0,0.4,0.1
	c0.2-0.2,0.3,0,0.5,0.2l0.4-0.2c0.5,0,0.4,0.3,0.1,0.3l0.4,0.2c0,0,0.3-0.3,0.3,0c0.6-0.2-0.1-0.3,0.3-0.6l0.3,0.3
	c0.2-0.2,0.4-0.2,0.7-0.3s0.3-0.2,0.8-0.1c0.2,0.1,0.5,0.1,0.7,0.1c0.3,0,0.4-0.2,0.7,0c0.2-0.2,0.4-0.4,0.7-0.5
	c0.4-0.1,0.7,0,1,0.3c0.1-0.1,0.4-0.2,0.5,0s-0.2,0.3-0.2,0.4c0.1,0.3,0.5,0.3,0.7,0.5c0.1-0.2,0.5,0.1,0.6,0.1
	c0.1-0.2-0.6-0.2-0.2-0.5c0.1-0.1,0.2-0.1,0.3-0.1l0.1-0.1l0,0c0.2,0,0.4,0,0.6,0s0.2,0.1,0.4,0.1s0.2-0.2,0.4-0.1
	c0.2-0.2,0.4-0.3,0.6-0.4c0.3,0,0.5,0,0.8,0.1l0.1,0.2h0.2c0.1,0,0.3,0,0.4-0.1c0.2-0.1,0.4-0.2,0.6-0.2s0.4,0,0.6,0
	c0.1,0,0.2,0,0.2,0c0.2,0,0.2-0.3,0.4,0c-0.1-0.8,1.1,0.1,0.1,0.1l0.4,0.2v0.2c0.1,0,0.2,0,0.2,0.1l0.2,0.2c0.1-0.1,0-0.3,0.3-0.3
	c0.1,0,0,0.1,0.1,0.1l0.5-0.1l0.2,0.1c-0.3,0,0.7,0.2,0.4,0.1c0.1,0,0.3-0.1,0.3,0.1c0.4,0,0.1,0,0.2,0c0.1,0.1,0.1,0,0.3,0
	c0.1,0,0.3,0,0.4,0c0.1-0.1,0.3-0.1,0.4-0.1c0.1,0.1,0.3,0.1,0.5,0.2c0.2,0,0.4,0.1,0.4,0.1c0.2,0,0.4,0,0.6,0l0.1,0.3
	c0.2,0,0.4-0.4,0.6-0.4c0.2-0.1,0.6-0.2,0.8-0.2c0.2,0.2,0.4,0.3,0.6,0.3c-0.2-0.1-0.7-0.1-0.4-0.4c0.3-0.2,0.4,0.1,0.6,0.2
	c0.1-0.3,0.8-0.2,1.1,0c0-0.2,0-0.2,0.2-0.2c-0.1-0.2-0.1-0.2,0.2-0.3c0.1,0.2,0,0,0.2,0s0.4-0.1,0.5-0.1c0.1,0.2,0.3,0.1,0.5,0.1
	l0.4-0.2l0.3,0.1c0.3-0.1,0.6,0,0.8,0.1c-0.1-0.1,0-0.2,0.2-0.2l0.1,0.4c0.2-0.1,0.4-0.1,0.5-0.1c0,0,0.3,0.1,0.2,0.2
	s0.4-0.2,0.4-0.1s0.1,0.2,0.1,0.2s-0.1,0,0.1,0c0.2,0,0.4,0,0.4,0L123,84z M0.8,80.4L0.8,80.4C0.8,80.4,0.9,80.3,0.8,80.4z M1,80.9
	C0.9,80.8,1,80.8,1,80.9C1.2,80.8,1.1,80.9,1,80.9z M1.2,82.2C1.2,82.3,1.2,82.3,1.2,82.2L1.2,82.2C1.1,82.3,1.2,82.2,1.2,82.2z
	 M0.9,83C1,82.9,1,82.9,0.9,83C1.1,82.9,1.1,83,0.9,83z M1.6,83.3L1.6,83.3L1.6,83.3z M1.1,84L1.1,84L1.1,84z M1.4,85.9L1.4,85.9
	C1.3,85.9,1.3,85.9,1.4,85.9L1.4,85.9z M1.4,85.1c0-0.1,0-0.1,0.2-0.2C1.6,85,1.5,85,1.4,85.1L1.4,85.1z M1.2,84.6L1.2,84.6
	C1.4,84.5,1.4,84.7,1.2,84.6z M1.4,90.3C1.4,90.3,1.2,90.2,1.4,90.3l-0.1-0.2h0.2c0,0.1,0,0.3-0.1,0.3c-0.1,0-0.1,0-0.2,0
	c0.1,0-0.1-0.1-0.1-0.1s0,0.1-0.1,0.1c-0.1,0,0-0.2,0-0.3c0-0.1,0-0.3,0-0.4c0.1-0.1,0.1-0.1,0.2-0.2c0.1,0,0.2,0,0.2-0.1
	c0,0.1,0,0.1,0,0.2c0.1,0,0.1,0,0.2,0.1c-0.2,0-0.2,0.1-0.4,0.1S1.1,90.4,1.4,90.3z M1.4,92.4c0.1,0.1,0,0.1-0.1,0.2
	C1.2,92.7,1.4,92.4,1.4,92.4L1.4,92.4z M1.4,90.6C1.5,90.6,1.4,90.6,1.4,90.6C1.4,90.7,1.4,90.6,1.4,90.6z M1.2,91.4L1.2,91.4
	C1.2,91.3,1.2,91.4,1.2,91.4z M1.2,91.7L1.2,91.7C1.1,91.6,1.1,91.6,1.2,91.7z M1.2,90.7c0.2,0.1-0.2,0.1,0.2,0.1v0.1
	C1.2,90.9,1.1,90.8,1.2,90.7z M1,90.7L1,90.7C1,90.7,1.1,90.7,1,90.7L1,90.7z M1.5,89l-0.1,0.2C1.3,89.1,1.4,89,1.5,89L1.5,89z
	 M1.4,88.4c0-0.1,0.1-0.2,0.2-0.3C1.6,88.3,1.5,88.3,1.4,88.4L1.4,88.4z M0.8,90.7L0.8,90.7C0.9,90.7,0.9,90.7,0.8,90.7
	C0.8,90.8,1,90.6,0.8,90.7z M1,91.7L1,91.7z M1.6,90.3C1.7,90.2,1.7,90.2,1.6,90.3C1.7,90.2,1.7,90.4,1.6,90.3L1.6,90.3z M1.6,86.9
	c0.1-0.1,0.1-0.1,0.2-0.1C1.7,86.8,1.7,87,1.6,86.9L1.6,86.9z M1.6,83.8c0-0.1,0.1-0.2,0.2-0.3C1.8,83.7,1.7,83.7,1.6,83.8L1.6,83.8
	z M1.8,80.1C1.8,80,2,80,1.9,79.9C2,80,2,80,1.8,80.1L1.8,80.1z M1.8,64.9c0-0.1,0.1-0.2,0.1-0.2l0,0L1.8,64.9z M1.9,23.4
	c-0.1,0,0-0.2,0.1-0.2S2,23.3,1.9,23.4L1.9,23.4z M1.5,14.3C1.5,14.3,1.5,14.4,1.5,14.3C1.4,14.4,1.4,14.3,1.5,14.3
	c-0.3,0.2-0.7,0.4-0.1,0.4c0-0.1-0.2-0.1-0.2-0.2c0.3-0.1,0.2-0.1,0.3,0.1c0.1,0.2,0,0.3-0.2,0.4c-0.1-0.1,0-0.1,0-0.1
	c-0.1,0-0.1,0-0.2,0l0,0c-0.3,0.3-0.2,0.1-0.2-0.1c0-0.1,0-0.3,0-0.4C1,14.2,1,14.1,1.1,13.9c0.1-0.1,0.3,0,0.3-0.1
	c0.1-0.1,0,0.2,0,0.3S1.6,14,1.5,14.3l-0.1-0.1L1.5,14.3z M1.3,15.2c-0.1,0,0-0.1,0.1-0.1L1.3,15.2z M1.3,17c-0.1-0.1,0-0.2,0.1-0.2
	C1.5,16.8,1.3,16.9,1.3,17L1.3,17z M1.2,15.1L1.2,15.1C1.1,15.1,1.2,15.1,1.2,15.1z M1.3,12.3c0-0.1,0-0.1,0.1-0.1
	C1.5,12.2,1.3,12.2,1.3,12.3L1.3,12.3z M1.1,11.4c0,0-0.1,0.4-0.2,0.1S1,11.2,1,11.2S0.8,11,0.9,10.9c0-0.1,0.1-0.3,0.2-0.4
	c0.1-0.1,0.3-0.1,0.4-0.2c0,0.1,0,0.2,0,0.3c0.1,0,0.1,0,0.2,0.1c-0.1,0.1-0.1,0-0.2,0.1h0.1c0,0,0,0.1-0.1,0.1v-0.1L1.1,11
	C1.2,11.1,1,11.1,1,11.2S1.2,11.2,1.1,11.4c0.1,0,0.3-0.3,0.1-0.2c0-0.2,0.1-0.3,0.3-0.2s0,0.1,0,0.2c0,0.1-0.3,0.5-0.2,0.2
	C1.2,11.3,1.2,11.4,1.1,11.4L1.1,11.4z M1.2,11.6L1.2,11.6L1.2,11.6L1.2,11.6z M1.3,9.7C1.3,9.8,1.3,9.8,1.3,9.7L1.3,9.7z M1.3,9
	c0-0.1,0.1-0.1,0.2-0.2C1.4,8.9,1.4,9,1.3,9z M1.3,9.8c0,0.2-0.1,0.2-0.1,0.3C1.2,10,1,10.1,1,10C1.1,10,1.2,10,1.3,9.8L1.3,9.8z
	 M1.2,10.2C1.1,10.2,1.1,10.2,1.2,10.2C1.3,10.1,1.3,10.1,1.2,10.2z M1.5,4.1C1.5,4.2,1.5,4.2,1.5,4.1C1.4,4.1,1.5,4.1,1.5,4.1
	L1.5,4.1z M1.3,3.8C1.3,3.8,1.3,3.7,1.3,3.8L1.3,3.8C1.4,3.8,1.4,3.8,1.3,3.8L1.3,3.8z M1.6,6.1c0,0.1-0.1,0.1-0.1,0.2
	C1.4,6.2,1.4,6.2,1.6,6.1L1.6,6.1z M1.5,3l0.2-0.1C1.7,3,1.6,3,1.5,3z M1.7,7.5c0,0.1-0.1,0.2-0.2,0.2C1.5,7.6,1.5,7.6,1.7,7.5z
	 M1.6,11.3c0-0.1,0.1-0.2,0.1-0.2C1.8,11.2,1.8,11.2,1.6,11.3z M1.6,14.8c-0.1,0,0.1-0.2,0.1-0.2S1.7,14.8,1.6,14.8L1.6,14.8z
	 M1.5,12.1L1.5,12.1C1.5,12.1,1.6,12.1,1.5,12.1z M1.5,11.6l-0.1,0.1C1.2,11.6,1.4,11.4,1.5,11.6L1.5,11.6z M1.6,17.9L1.6,17.9
	c0,0,0.1,0.1-0.1,0.1C1.4,18.1,1.6,17.9,1.6,17.9L1.6,17.9z M1.8,20.6c0,0.1-0.1,0.2-0.1,0.2C1.6,20.7,1.6,20.7,1.8,20.6L1.8,20.6z
	 M1,1.8L1,1.8c0.1-0.1,0.2-0.1,0.3-0.1C1.3,1.7,1.1,1.8,1,1.8z M1.2,2c0-0.1,0-0.1,0-0.2S1.3,1.9,1.2,2L1.2,2z M1.3,1.5
	C1.2,1.5,1.3,1.5,1.3,1.5C1.3,1.4,1.3,1.5,1.3,1.5z M1.2,4.5C1.2,4.5,1.1,4.4,1.2,4.5C1.3,4.4,1.2,4.4,1.2,4.5z M1.1,5.3L1.1,5.3
	L1.1,5.3L1.1,5.3z M1.1,6.7C1,6.7,1.1,6.6,1.1,6.7C1.1,6.6,1.1,6.7,1.1,6.7L1.1,6.7z M1.3,8.6L1.3,8.6C1.3,8.6,1.3,8.5,1.3,8.6
	L1.3,8.6z M1.2,9.4L1.2,9.4C1.2,9.4,1.1,9.4,1.2,9.4z M1.2,12.8c-0.1,0.1-0.1,0.1-0.2,0.1C0.9,12.9,1.1,12.9,1.2,12.8z M1.2,12.5
	L1.2,12.5L1.2,12.5z M1.3,15.9H1.1C1.2,15.9,1.2,15.8,1.3,15.9L1.3,15.9z M1.3,16.5L1.3,16.5C1.3,16.5,1.2,16.5,1.3,16.5L1.3,16.5z
	 M1.6,19.5L1.6,19.5L1.6,19.5c0,0,0-0.1,0-0.2C1.6,19.3,1.6,19.4,1.6,19.5S1.5,19.5,1.6,19.5L1.6,19.5z M1.5,18.4
	c0,0.1-0.1,0.2-0.1,0.2C1.3,18.6,1.2,18.3,1.5,18.4L1.5,18.4z M1.5,19.8L1.5,19.8C1.5,19.8,1.4,19.8,1.5,19.8L1.5,19.8z M1.6,20.4
	L1.6,20.4C1.6,20.3,1.6,20.3,1.6,20.4L1.6,20.4z M1.4,21.2v-0.1C1.5,21,1.4,21.1,1.4,21.2L1.4,21.2z M1.2,21L1.2,21
	C1.1,21,1.2,21,1.2,21z M1.5,24.4c-0.1,0,0.1-0.2,0.1-0.2S1.6,24.4,1.5,24.4L1.5,24.4z M1.5,25.3c-0.1-0.1,0-0.1,0.1-0.2
	C1.7,25,1.5,25.2,1.5,25.3L1.5,25.3z M1.5,26.3L1.5,26.3C1.5,26.3,1.4,26.2,1.5,26.3L1.5,26.3z M1.3,27.2c0-0.1,0-0.1,0.1-0.1
	C1.5,27.1,1.3,27.1,1.3,27.2L1.3,27.2z M1.2,27.7c0,0,0-0.2,0.1-0.2C1.4,27.5,1.3,27.6,1.2,27.7z M1,28L1,28C1,28,1.1,28,1,28L1,28z
	 M1,28.4v0.1C1,28.6,1,28.4,1,28.4L1,28.4z M1.3,30.5v-0.2C1.5,30.4,1.4,30.4,1.3,30.5L1.3,30.5z M1.2,30.4L1.2,30.4
	C1.1,30.4,1.2,30.3,1.2,30.4z M1,33.5L1,33.5C1,33.4,1.1,33.5,1,33.5L1,33.5z M0.9,37.6c-0.1-0.1-0.3-0.2-0.1-0.3
	C0.8,37.4,1,37.4,0.9,37.6z M1,38.9c-0.1-0.1-0.2,0-0.2-0.1s0-0.2,0.1-0.2c0,0,0,0,0.1,0C0.9,38.6,1,38.9,1,38.9z M0.8,40L0.8,40
	C0.9,40,0.9,39.9,0.8,40L0.8,40z M3.6,0.4L3.6,0.4C3.7,0.4,3.7,0.4,3.6,0.4C3.7,0.4,3.7,0.5,3.6,0.4z M3.6,0.6
	c0-0.1,0.1-0.1,0.2-0.1h0.1C3.9,0.5,3.8,0.6,3.6,0.6L3.6,0.6z M3.6,0.5L3.6,0.5L3.6,0.5z M4.6,0.8C4.6,0.8,4.7,0.8,4.6,0.8z M5,0.5
	L5,0.5L5,0.5C5.1,0.5,5.1,0.5,5,0.5z M5.4,1c-0.3,0.1-0.1-0.2,0-0.2l0,0C5.7,0.8,5.5,1,5.4,1z M5.8,0.9L5.8,0.9L5.8,0.9z M6.6,0.6
	c0.1,0,0.1,0,0.2,0C6.7,0.7,6.6,0.6,6.6,0.6z M6.8,0.4L6.8,0.4C6.9,0.4,6.8,0.4,6.8,0.4L6.8,0.4z M6.8,0.4L6.8,0.4z M7.5,93.2
	L7.5,93.2z M7.4,92.7C7.4,92.8,7.3,92.9,7.4,92.7c-0.2,0.2-0.6,0.2-0.5-0.1c0-0.1,0.2-0.2,0.3-0.2C7.3,92.5,7.4,92.6,7.4,92.7
	C8.2,92.2,7.7,93.5,7.4,92.7L7.4,92.7z M7.1,0.7C7.2,0.7,7.1,0.7,7.1,0.7z M7.5,0.2c0,0.1-0.1,0.1-0.2,0C7.5,0.2,7.5,0.2,7.5,0.2
	S7.5,0.3,7.5,0.2z M7.5,0.4L7.5,0.4C7.5,0.4,7.6,0.4,7.5,0.4L7.5,0.4z M7.5,0.3L7.5,0.3z M8.6,0.9L8.6,0.9z M9.6,1h0.3
	C9.8,1.1,9.7,1.1,9.6,1z M9.7,0.8L9.7,0.8z M10.5,0.9L10.5,0.9L10.5,0.9z M10.6,0.9C10.7,0.9,10.6,0.9,10.6,0.9z M11.9,0.8L11.9,0.8
	z M12,0.8L12,0.8C12,0.8,12,0.7,12,0.8L12,0.8z M12.4,0.8c0,0,0.2,0,0.3,0.1S12.2,0.9,12.4,0.8L12.4,0.8z M12.5,0.7
	c0.1,0,0.1,0,0.1,0.1C12.5,0.8,12.5,0.7,12.5,0.7z M12.8,1L12.8,1L12.8,1z M13.7,92.5c-0.1,0.2-0.4,0.3-0.5,0.1
	C13.1,92.3,13.4,92.2,13.7,92.5C13.7,92.4,13.7,92.5,13.7,92.5z M13.5,1.1L13.8,1C13.8,1.2,13.7,1.1,13.5,1.1z M14.3,1.1
	c-0.1,0-0.1,0-0.1-0.1C14.2,0.9,14.4,1,14.3,1.1L14.3,1.1z M15.1,1.1C15.1,1.1,15.1,1,15.1,1.1z M15.2,1.1L15.2,1.1z M16.5,0.9
	C16.6,0.9,16.5,0.9,16.5,0.9z M16.7,0.8c0,0,0.1,0,0.1,0.1C16.7,0.9,16.6,0.8,16.7,0.8z M17.2,1.1L17.2,1.1z M17.5,0.9L17.5,0.9
	C17.5,0.9,17.4,0.9,17.5,0.9L17.5,0.9C17.5,0.9,17.5,0.8,17.5,0.9C17.6,0.8,17.6,0.9,17.5,0.9L17.5,0.9z M18.2,92.9
	C18.3,92.9,18.3,92.9,18.2,92.9C18.1,92.9,18.2,92.9,18.2,92.9z M18.2,93.5L18.2,93.5C18.2,93.5,18.4,93.4,18.2,93.5L18.2,93.5z
	 M18.4,93.1L18.4,93.1z M18.8,92.8C18.6,92.9,18.7,92.8,18.8,92.8C18.9,92.7,18.8,92.8,18.8,92.8z M18.8,1c0,0,0.2,0,0.1,0.1
	S18.7,1.1,18.8,1L18.8,1z M18.7,0.9L18.7,0.9L18.7,0.9z M18.8,93.5C18.8,93.5,18.7,93.5,18.8,93.5C18.9,93.5,18.7,93.5,18.8,93.5
	L18.8,93.5z M19.1,93.2c-0.2,0.1-0.5,0.1-0.4-0.1C18.8,92.9,19.1,93,19.1,93.2C19.3,93.4,19.1,93.2,19.1,93.2L19.1,93.2z M21.4,1.2
	C21.5,1.2,21.4,1.2,21.4,1.2z M21.5,0.9c0.1,0,0.2,0.1,0.1,0.1C21.6,1.1,21.5,1.1,21.5,0.9z M21.6,0.7C21.6,0.6,21.6,0.7,21.6,0.7z
	 M21.6,1.2L21.6,1.2C21.6,1.3,21.5,1.2,21.6,1.2L21.6,1.2z M21.7,1L21.7,1z M22,1C22,1,22,1.1,22,1z M22.5,0.7L22.5,0.7L22.5,0.7
	L22.5,0.7z M22.5,1C22.6,1,22.5,1,22.5,1z M23.1,0.9L23.1,0.9z M23.2,0.7C23.2,0.6,23.2,0.7,23.2,0.7z M24.4,1L24.4,1
	C24.3,0.9,24.5,0.9,24.4,1z M24.6,0.8C24.6,0.8,24.6,0.9,24.6,0.8z M24.7,0.9L24.7,0.9C24.7,0.8,24.8,0.9,24.7,0.9L24.7,0.9z
	 M24.7,0.8C24.7,0.7,24.7,0.8,24.7,0.8z M24.7,0.7C24.7,0.7,24.7,0.6,24.7,0.7C25,0.9,24.7,0.7,24.7,0.7L24.7,0.7z M25,0.7
	c-0.1,0.1-0.2,0-0.1-0.1S25.1,0.7,25,0.7L25,0.7z M25.3,0.7L25.3,0.7L25.3,0.7L25.3,0.7C25.2,0.7,25.2,0.7,25.3,0.7L25.3,0.7
	C25.2,0.7,25.2,0.7,25.3,0.7C24.7,1,25.4,0.5,25.3,0.7L25.3,0.7z M25.3,1C25.3,1,25.3,0.9,25.3,1C25.4,0.8,25.5,1,25.3,1L25.3,1z
	 M25.3,1.1L25.3,1.1z M25.7,92.6c-0.1,0.2-0.4,0.3-0.5,0S25.5,92.3,25.7,92.6C25.7,92.6,25.7,92.6,25.7,92.6L25.7,92.6z M25.5,0.7
	c0.1,0,0.1,0.2,0,0.2C25.4,0.8,25.4,0.7,25.5,0.7L25.5,0.7z M25.6,0.8C25.7,0.8,25.6,0.8,25.6,0.8z M25.8,92.9L25.8,92.9
	C25.9,92.9,25.8,92.9,25.8,92.9z M25.8,0.8L25.8,0.8L25.8,0.8C25.8,0.7,25.8,0.8,25.8,0.8L25.8,0.8L25.8,0.8
	C25.8,0.8,25.8,0.9,25.8,0.8L25.8,0.8L25.8,0.8z M25.9,1.2C25.9,1.2,25.9,1.1,25.9,1.2z M25.9,0.9L25.9,0.9L25.9,0.9L25.9,0.9
	 M25.9,0.8C25.9,0.8,26,0.9,25.9,0.8L25.9,0.8z M26,0.8L26,0.8z M26,1L26,1z M26.7,0.9L26.7,0.9L26.7,0.9z M27,1.1L27,1.1z
	 M27.3,93.1c0.1-0.3,0.3-0.2,0.4,0s0,0,0,0S27.2,93.3,27.3,93.1z M27.4,93.2C28.2,93.2,27.3,93.8,27.4,93.2z M28.2,1.2
	c-0.1,0-0.1-0.1-0.1-0.1C28.2,1,28.3,1.2,28.2,1.2L28.2,1.2z M28.3,1.2C28.4,1.2,28.3,1.2,28.3,1.2z M28.5,1.1l0.1,0.1
	C28.5,1.2,28.4,1.1,28.5,1.1L28.5,1.1z M28.9,0.8C28.9,0.8,29,0.8,28.9,0.8C29,1,28.8,0.8,28.9,0.8z M29,1l0.2,0.1c0,0,0,0,0.1,0
	C29,1.2,29.1,1,29,1L29,1z M30.4,92.8c-0.2,0.1-0.5,0.1-0.5-0.1C30,92.5,30.3,92.5,30.4,92.8C30.4,92.8,30.4,92.8,30.4,92.8
	L30.4,92.8z M30.1,0.8c0.1,0,0.1,0,0.2,0C30.2,0.9,30.1,0.9,30.1,0.8z M31.1,92.5c-0.1,0.2-0.2,0.2-0.4,0.2l-0.1-0.1
	C30.4,92.3,30.8,92.3,31.1,92.5L31.1,92.5L31.1,92.5z M32.4,0.9L32.4,0.9L32.4,0.9L32.4,0.9h0.2C32.5,1.1,32.5,1,32.4,0.9z
	 M33.1,92.4c-0.2,0.2-0.6,0.1-0.5-0.1C32.7,92.1,33.1,92.1,33.1,92.4C33.2,92.4,33.1,92.4,33.1,92.4z M33.3,92.8
	C33.2,92.9,33.2,92.8,33.3,92.8S33.3,92.7,33.3,92.8z M34,0.8L34,0.8z M34.2,0.9C34.1,0.9,34.1,0.9,34.2,0.9
	C34.1,0.7,34.2,0.9,34.2,0.9z M34.5,0.8L34.5,0.8z M36.4,92.9L36.4,92.9C36.5,92.9,36.5,92.9,36.4,92.9L36.4,92.9z M37.8,93.2
	c0,0.1-0.1,0.2-0.2,0.2s-0.1,0-0.2-0.1C37.2,93,37.5,93,37.8,93.2L37.8,93.2L37.8,93.2z M38,93.1C38,93.1,38.1,93.1,38,93.1
	C38.1,93.1,38,93.3,38,93.1L38,93.1z M38.5,92.6c0,0.1-0.4,0.2-0.4,0.2c-0.2,0.1,0,0,0,0c-0.2,0.1-0.4,0.1-0.5,0
	c-0.1-0.1,0-0.2,0.1-0.4l0.3-0.2C38.2,92.3,38.6,92.4,38.5,92.6L38.5,92.6z M39.8,92.6c-0.2,0.2-0.5,0.2-0.5-0.1
	C39.3,92.3,39.7,92.3,39.8,92.6L39.8,92.6L39.8,92.6z M40,0.7C40.1,0.7,40,0.7,40,0.7z M42.9,0.8C42.9,0.8,42.9,0.8,42.9,0.8
	L42.9,0.8z M43.7,0.7L43.7,0.7L43.7,0.7C43.8,0.7,44.1,0.8,43.7,0.7L43.7,0.7z M44,0.5C44,0.6,44,0.5,44,0.5z M44.2,0.7
	c-0.1,0-0.1-0.1,0-0.1S44.4,0.7,44.2,0.7L44.2,0.7z M45,0.6L45,0.6L45,0.6L45,0.6V0.5l0,0C45,0.4,45.1,0.5,45,0.6L45,0.6z M45.1,0.4
	C45,0.4,45.2,0.4,45.1,0.4z M45.1,0.3L45.1,0.3C45.2,0.3,45.2,0.3,45.1,0.3z M46.3,0.5L46.3,0.5C46.3,0.4,46.4,0.5,46.3,0.5z
	 M46.5,0.5C46.6,0.5,46.5,0.5,46.5,0.5z M46.4,0.5L46.4,0.5L46.4,0.5z M47.1,0.4C47.2,0.4,47.1,0.4,47.1,0.4z M47.3,0.4
	C47.1,0.4,47.1,0.2,47.3,0.4C47.4,0.3,47.6,0.5,47.3,0.4L47.3,0.4z M47.4,0.8C47.5,0.8,47.4,0.8,47.4,0.8z M47.7,0.5L47.7,0.5
	C47.6,0.5,47.6,0.5,47.7,0.5z M47.7,0.8C47.8,0.8,47.8,0.8,47.7,0.8C47.6,0.9,47.6,0.7,47.7,0.8z M48.5,0.4
	C48.6,0.4,48.5,0.4,48.5,0.4z M48.6,0.6C48.7,0.6,48.7,0.6,48.6,0.6z M48.8,0.3C48.9,0.3,48.8,0.3,48.8,0.3z M48.9,0.8
	C49,0.8,48.9,0.8,48.9,0.8z M48.9,0.4C49,0.3,48.9,0.4,48.9,0.4z M49,0.4C48.9,0.4,48.8,0.3,49,0.4C48.9,0.4,48.9,0.4,49,0.4
	C48.9,0.3,49,0.4,49,0.4L49,0.4z M49.1,0.7L49.1,0.7C49,0.8,48.9,0.7,49.1,0.7L49.1,0.7z M49.4,0.4L49.4,0.4L49.4,0.4L49.4,0.4z
	 M49.6,0.5C49.7,0.5,49.6,0.5,49.6,0.5z M49.7,0.5C49.6,0.5,49.6,0.5,49.7,0.5C49.6,0.5,49.7,0.5,49.7,0.5z M50,0.4
	c0.1,0,0.1,0.1,0.2,0.1C50,0.6,50,0.5,50,0.4L50,0.4z M50.4,0.3L50.4,0.3c0,0.1-0.2,0.1-0.2,0.1L50.4,0.3z M51.3,93.2
	C51.3,93.3,51.3,93.2,51.3,93.2S51.4,93.2,51.3,93.2z M51.7,92.5c-0.1,0.2-0.5,0.3-0.5,0C51.1,92.2,51.5,92.2,51.7,92.5
	C51.8,92.5,51.7,92.5,51.7,92.5z M51.3,0.5L51.3,0.5L51.3,0.5C51.3,0.5,51.2,0.4,51.3,0.5z M52.8,0.6L52.8,0.6L52.8,0.6z M54.2,0.7
	L54.2,0.7z M54.8,92.5C54.7,92.6,54.7,92.5,54.8,92.5C54.9,92.4,54.8,92.5,54.8,92.5z M54.9,0.9C54.9,0.8,54.9,0.9,54.9,0.9z
	 M54.9,0.4L54.9,0.4z M54.9,0.8C55,0.8,54.9,0.8,54.9,0.8z M55,0.5c0,0,0.2,0,0.1,0.1S55.1,0.5,55,0.5L55,0.5z M55.1,0.8
	C55.2,0.8,55.2,0.8,55.1,0.8C55.2,0.9,55.1,0.7,55.1,0.8L55.1,0.8z M55.5,0.5c0,0.1,0,0.2-0.2,0.1C55.3,0.5,55.4,0.5,55.5,0.5
	L55.5,0.5L55.5,0.5C55.6,0.5,55.6,0.5,55.5,0.5C55.5,0.6,55.5,0.6,55.5,0.5L55.5,0.5z M55.4,0.5C55.5,0.5,55.4,0.5,55.4,0.5z
	 M55.6,0.5C55.5,0.4,55.6,0.5,55.6,0.5z M55.7,0.9c-0.4,0,0.1-0.3,0.2-0.3C56,0.6,55.9,0.9,55.7,0.9L55.7,0.9z M56.1,0.8L56.1,0.8
	h0.3C56.3,1,56.2,0.9,56.1,0.8L56.1,0.8z M56.4,0.5L56.4,0.5l-0.2,0.1C56.2,0.6,56.3,0.5,56.4,0.5L56.4,0.5z M56.4,0.5
	C56.5,0.5,56.5,0.5,56.4,0.5C56.3,0.6,56.4,0.4,56.4,0.5L56.4,0.5z M57.3,92.5c-0.2,0.2-0.6,0.1-0.5-0.1S57.2,92.2,57.3,92.5
	C57.3,92.4,57.3,92.4,57.3,92.5L57.3,92.5z M57.4,0.6C57.5,0.6,57.4,0.6,57.4,0.6z M57.8,0.6C57.7,0.7,57.5,0.5,57.8,0.6
	C57.9,0.5,57.8,0.5,57.8,0.6L57.8,0.6z M57.8,0.5L57.8,0.5L57.8,0.5z M58,0.8C58,0.8,58,0.7,58,0.8z M58.5,0.8L58.5,0.8h0.3
	C58.7,1,58.6,0.9,58.5,0.8L58.5,0.8z M60.5,0.6C60.6,0.6,60.5,0.6,60.5,0.6z M60.7,0.6L60.7,0.6C60.7,0.7,60.6,0.6,60.7,0.6
	L60.7,0.6z M61.1,0.4L61.1,0.4C61.1,0.4,61,0.4,61.1,0.4C61,0.3,61.2,0.3,61.1,0.4L61.1,0.4L61.1,0.4L61.1,0.4z M61.4,0.4L61.4,0.4
	L61.4,0.4L61.4,0.4z M45.6,0.4L45.6,0.4C45.8,0.4,45.7,0.5,45.6,0.4z M44,0.3L44,0.3L44,0.3z M43.5,0.3L43.5,0.3z M41.6,0.5
	c0,0,0.1,0.1,0,0.1c-0.1,0-0.2-0.1-0.2-0.1C41.5,0.5,41.6,0.5,41.6,0.5z M41.6,0.5L41.6,0.5z M42,0.5v0.1C42,0.6,41.9,0.5,42,0.5
	L42,0.5z M29.2,0.7C29.3,0.6,29.3,0.7,29.2,0.7C29.3,0.7,29.2,0.8,29.2,0.7z M29.4,0.8L29.4,0.8c0.1,0.1-0.2,0.1-0.2,0.1
	C29.2,0.8,29.3,0.8,29.4,0.8z M28.1,0.7L28.1,0.7C28.1,0.8,28.1,0.8,28.1,0.7z M28.1,0.7l0.1-0.1h0.1C28.2,0.7,28.2,0.7,28.1,0.7
	L28.1,0.7z M19,0.5L19,0.5z M16.7,0.7L16.7,0.7C16.9,0.7,16.8,0.7,16.7,0.7z M16.8,0.7L16.8,0.7z M13.4,0.8L13.4,0.8z M13.3,0.9
	L13.3,0.9z M7.7,0.2L7.7,0.2z M61.6,0.5C61.5,0.5,61.5,0.4,61.6,0.5C61.7,0.4,61.7,0.4,61.6,0.5C61.7,0.4,61.7,0.5,61.6,0.5z
	 M61.7,0.6c-0.1,0,0-0.1,0-0.1S61.8,0.6,61.7,0.6L61.7,0.6z M61.9,0.3L61.9,0.3C61.7,0.2,62,0.3,61.9,0.3L61.9,0.3z M62,0.2
	C62.1,0.2,62.1,0.2,62,0.2C62,0.3,61.9,0.2,62,0.2L62,0.2z M62,0.6C62.1,0.6,62.1,0.6,62,0.6C62,0.8,62,0.6,62,0.6L62,0.6z
	 M62.2,0.3L62.2,0.3z M62.6,0.8L62.6,0.8L62.6,0.8L62.6,0.8L62.6,0.8c-0.1,0-0.1-0.1,0-0.1V0.8L62.6,0.8z M63,1C63,1,63,0.9,63,1z
	 M62.9,0.9c-0.2,0.1-0.1-0.1-0.1-0.2l0,0C63,0.6,63.1,0.9,62.9,0.9z M63.2,0.7L63.2,0.7L63.2,0.7z M63.2,0.7L63.2,0.7z M63.2,0.7
	L63.2,0.7z M63.3,93.2L63.3,93.2z M63.4,92.9L63.4,92.9C63.4,93,63.4,92.9,63.4,92.9C63.4,92.7,63.6,92.8,63.4,92.9L63.4,92.9z
	 M63.6,0.7c0.1,0,0.1,0,0.2,0C63.6,0.9,63.6,0.8,63.6,0.7z M65.3,92.4c-0.2,0-0.1-0.4,0.1-0.4c0.1,0,0.3,0,0.4,0.1
	C66.4,92.5,65.2,92.4,65.3,92.4L65.3,92.4z M65.7,0.9L65.7,0.9L65.7,0.9z M66.4,0.9c-0.3,0.1-0.2-0.2,0-0.2l0,0
	C66.6,0.6,66.5,0.8,66.4,0.9L66.4,0.9z M66.5,0.6L66.5,0.6L66.5,0.6z M66.7,0.7L66.7,0.7z M66.8,0.7L66.8,0.7
	C66.8,0.6,66.8,0.6,66.8,0.7L66.8,0.7z M67,92.4c0.2-0.4,0.5-0.1,0.6,0.1c-0.1,0-0.1,0.1-0.1,0C67.2,92.7,66.8,92.7,67,92.4L67,92.4
	z M67.3,0.8C67.4,0.8,67.3,0.8,67.3,0.8z M67.5,93C67.4,93,67.5,92.9,67.5,93C67.5,92.9,67.5,92.9,67.5,93
	C67.5,92.9,67.5,92.9,67.5,93z M68.4,1.1L68.4,1.1L68.4,1.1C68.8,1.2,68.5,1.3,68.4,1.1z M68.5,1.1C68.5,1.1,68.3,1.1,68.5,1.1z
	 M68.5,1h0.2C68.7,1.1,68.6,1,68.5,1L68.5,1z M68.5,1c0-0.1,0.1-0.1,0.2-0.1c0,0,0.1,0,0.1,0.1S68.6,0.9,68.5,1L68.5,1z M69.9,1
	C69.8,1,69.8,1,69.9,1C69.8,0.8,70,0.8,69.9,1L69.9,1z M69.9,0.7C69.9,0.6,69.9,0.7,69.9,0.7z M70.2,0.9L70.2,0.9L70.2,0.9L70.2,0.9
	L70.2,0.9c0-0.2,0.1-0.1,0-0.1V0.9z M71.3,0.9c0,0,0.1,0,0.1,0.1s-0.3,0-0.3,0C71.1,0.9,71.2,0.8,71.3,0.9L71.3,0.9z M71.2,0.8
	C71.2,0.8,71.1,0.8,71.2,0.8z M70.9,1.1L71,1.2l0,0C71.3,1.2,71,1.4,70.9,1.1z M71.3,92.9c-0.2,0.1-0.4,0.1-0.4-0.1
	C70.9,92.6,71.2,92.6,71.3,92.9L71.3,92.9L71.3,92.9z M71.8,93.3c-0.1,0.1-0.3,0.2-0.3,0C71.5,93.1,71.7,93.1,71.8,93.3
	C71.8,93.4,71.8,93.4,71.8,93.3L71.8,93.3z M72.6,93C72.6,93,72.5,93,72.6,93c-0.4,0.1-0.8-0.1-0.4-0.3C72.7,92.5,72.7,92.8,72.6,93
	L72.6,93z M72.9,0.7C72.8,0.7,72.9,0.6,72.9,0.7C72.9,0.7,73,0.7,72.9,0.7L72.9,0.7z M73.1,1L73.1,1C73,1.2,73.1,1,73.1,1L73.1,1z
	 M73.5,1C73.5,1,73.5,0.9,73.5,1z M73.4,0.8L73.4,0.8L73.4,0.8L73.4,0.8h0.2C73.5,0.8,73.5,0.8,73.4,0.8L73.4,0.8z M74.7,92.9
	c-0.3,0.1-0.8-0.1-0.4-0.3C74.8,92.4,74.8,92.6,74.7,92.9C74.8,92.9,74.8,92.9,74.7,92.9L74.7,92.9z M74.6,1C74.7,1,74.6,1,74.6,1z
	 M75.2,1L75.2,1C75.2,1,75.1,0.9,75.2,1L75.2,1z M76.8,1.1C76.8,1.2,76.8,1.1,76.8,1.1z M76.8,0.9C76.9,0.9,76.8,0.9,76.8,0.9z
	 M77,1.3c-0.1,0-0.1-0.1-0.1-0.1S77.1,1.2,77,1.3L77,1.3z M77,0.8L77,0.8C77,0.8,76.9,0.8,77,0.8L77,0.8z M77.2,1.1
	C77.3,1.1,77.2,1.1,77.2,1.1z M77.3,1.1C77.3,1.1,77.4,1,77.3,1.1C77.4,1.1,77.4,1.1,77.3,1.1C77.3,1.1,77.3,1,77.3,1.1L77.3,1.1z
	 M77.8,1.6C77.8,1.5,77.8,1.6,77.8,1.6z M78,1L78,1C78,1,78,0.9,78,1L78,1z M78.3,0.9C78.3,0.8,78.3,0.9,78.3,0.9z M78.3,0.7
	L78.3,0.7C78.4,0.7,78.2,0.8,78.3,0.7z M79,1C79.1,1,79,1,79,1z M79.2,1c0,0,0.1,0,0.2,0l0,0l0,0C79.2,1,79.3,1.1,79.2,1L79.2,1z
	 M80,1.2c0.1,0,0.2,0,0.3,0S80.1,1.2,80,1.2L80,1.2z M80.9,1C80.9,1,81,1,80.9,1z M81.4,1.1c0.1,0,0.2,0.1,0.2,0.1
	C81.5,1.3,81.5,1.1,81.4,1.1z M82.1,93.2C82.2,93.2,82.1,93.2,82.1,93.2L82.1,93.2L82.1,93.2z M82.3,92.5c-0.1,0.2-0.4,0.3-0.5,0
	C81.6,92.3,82.1,92.3,82.3,92.5L82.3,92.5L82.3,92.5z M82.6,93.1C82.6,93.1,82.8,93.1,82.6,93.1C82.6,93.1,82.5,93.1,82.6,93.1
	s0.1-0.4,0.4-0.3C82.9,92.9,83.1,93.2,82.6,93.1L82.6,93.1z M82.8,1C82.8,1,82.9,1,82.8,1C82.9,0.9,82.9,0.9,82.8,1L82.8,1L82.8,1
	C83.3,1,83,1.1,82.8,1L82.8,1z M83.2,1C83.1,1,83.2,0.9,83.2,1z M84.3,1.1c0.1,0,0.2,0,0.3,0C84.5,1.2,84.4,1.1,84.3,1.1z M85.2,1.3
	C85.3,1.4,85.2,1.3,85.2,1.3z M85.4,1.4c-0.1,0-0.1,0-0.1-0.1C85.3,1.2,85.5,1.3,85.4,1.4L85.4,1.4z M85.6,1L85.6,1z M85.7,0.8
	L85.7,0.8z M86.1,1L86.1,1z M86.1,0.9h0.2C86.2,0.9,86,1,86.1,0.9z M86.2,1L86.2,1L86.2,1z M86.3,1.4L86.3,1.4z M86.8,0.9L86.8,0.9z
	 M87.3,0.9L87.3,0.9L87.3,0.9L87.3,0.9C87.4,0.9,87.4,0.9,87.3,0.9L87.3,0.9z M89.4,0.9c0-0.1,0-0.1,0.2,0H89.4L89.4,0.9z M89.7,1.2
	c-0.2,0.1-0.3-0.1,0-0.1l0,0C89.7,1,89.9,1.1,89.7,1.2L89.7,1.2z M89.8,1.2C89.9,1.2,89.8,1.2,89.8,1.2z M90,1.2L90,1.2L90,1.2z
	 M91,93.2L91,93.2C91,93.1,91,93.2,91,93.2L91,93.2z M91.1,93.4C91,93.5,91.1,93.4,91.1,93.4S91.1,93.3,91.1,93.4L91.1,93.4z
	 M91.6,92.7c-0.1,0.1-0.6,0.2-0.5,0c0,0-0.1,0,0,0c-0.4,0.3-0.7-0.2-0.3-0.3c0.4-0.1,0.2,0,0.4,0S91.8,92.3,91.6,92.7L91.6,92.7z
	 M91.8,1.4C91.8,1.4,91.8,1.4,91.8,1.4L91.8,1.4z M93.8,92.7c-0.2,0.1-0.6,0.1-0.5-0.2S93.8,92.4,93.8,92.7L93.8,92.7z M93.6,0.8
	c0,0.1,0,0.1-0.2,0.2C93.4,0.9,93.4,0.8,93.6,0.8z M93.4,0.7L93.4,0.7z M93.3,1.2c0.1,0,0.2,0,0.3,0C93.7,1.4,93.5,1.3,93.3,1.2z
	 M94.6,92.8c-0.1,0.2-0.4,0.2-0.4,0C94.1,92.6,94.5,92.6,94.6,92.8L94.6,92.8L94.6,92.8z M94.3,1.1L94.3,1.1
	C94.2,1.1,94.2,1.1,94.3,1.1z M95.2,1.1L95.2,1.1z M96.7,1.1C96.7,1.1,96.6,1.1,96.7,1.1z M96.7,1.2C96.8,1.2,96.7,1.2,96.7,1.2z
	 M96.7,1.1L96.7,1.1L96.7,1.1z M96.8,1.3C96.8,1.3,96.9,1.3,96.8,1.3C96.9,1.5,96.8,1.2,96.8,1.3L96.8,1.3z M96.8,1L96.8,1L96.8,1z
	 M97,93.3C97,93.4,96.9,93.3,97,93.3S97,93.3,97,93.3L97,93.3z M97.9,92.5c-0.2,0.1-0.6,0.1-0.5-0.2C97.5,92.1,97.9,92.2,97.9,92.5
	L97.9,92.5L97.9,92.5z M97.4,1C97.4,0.9,97.4,1,97.4,1z M97.6,1.3L97.6,1.3z M97.6,1.1L97.6,1.1L97.6,1.1z M97.7,1.1
	C97.7,1.1,97.9,1.1,97.7,1.1C97.7,1.3,97.8,1.2,97.7,1.1L97.7,1.1z M98.3,1.3C98.4,1.4,98.3,1.3,98.3,1.3z M98.5,1.1
	C98.6,1.2,98.3,1.1,98.5,1.1z M98.6,1.5c-0.1,0-0.2,0-0.1-0.1C98.5,1.3,98.6,1.4,98.6,1.5L98.6,1.5z M99.8,92.7
	c-0.2,0.1-0.6,0.1-0.5-0.2S99.8,92.4,99.8,92.7C99.8,92.6,99.8,92.7,99.8,92.7L99.8,92.7z M99.5,1.5C99.6,1.5,99.5,1.5,99.5,1.5z
	 M100.4,92.6c-0.1,0.2-0.4,0.3-0.5,0C99.8,92.3,100.2,92.3,100.4,92.6L100.4,92.6L100.4,92.6z M99.9,1.3L99.9,1.3z M100,1.4L100,1.4
	z M100,1C100.1,0.9,100,1,100,1z M100.1,1.4c0,0,0.2,0,0.1,0.1S100.1,1.4,100.1,1.4L100.1,1.4z M101.2,1.5
	C101.3,1.5,101.2,1.6,101.2,1.5z M101.5,1.2L101.5,1.2C101.5,1.2,101.5,1.3,101.5,1.2L101.5,1.2z M102.5,1C102.5,1,102.6,1,102.5,1z
	 M102.8,1.3c-0.1,0-0.1,0-0.1-0.1S102.9,1.2,102.8,1.3z M102.6,1C102.6,0.9,102.7,0.9,102.6,1L102.6,1z M103,93.2
	C102.9,93.2,103,93.2,103,93.2S103,93.3,103,93.2L103,93.2z M103.1,93.1C103.1,93.2,103.1,93.1,103.1,93.1L103.1,93.1
	c-0.1,0,0.1-0.7,0.4-0.2C103.6,93.2,103.4,93.5,103.1,93.1L103.1,93.1z M103.4,1.3L103.4,1.3z M103.7,1.2L103.7,1.2z M103.8,1
	L103.8,1L103.8,1L103.8,1L103.8,1C103.7,1,103.7,1,103.8,1L103.8,1C103.8,1.1,103.8,1.1,103.8,1L103.8,1z M103.8,0.8
	c0.1,0,0.2,0,0.3,0C104,1,103.9,0.9,103.8,0.8L103.8,0.8z M104.2,1.1C104,1.3,104,1,104.1,0.9s0,0,0,0L104.2,1.1L104.2,1.1z
	 M104.4,0.9L104.4,0.9L104.4,0.9z M104.4,0.9L104.4,0.9z M104.9,92.8c-0.2,0.1-0.4,0.1-0.4-0.1C104.5,92.6,104.8,92.6,104.9,92.8
	C104.9,92.9,104.9,92.9,104.9,92.8L104.9,92.8z M107.2,0.7C107.2,0.7,107.3,0.7,107.2,0.7S107.1,0.8,107.2,0.7z M107.4,1
	c0-0.1,0.1-0.1,0.2-0.1s-0.1,0,0,0s0,0,0,0h0.1L108,1C107.8,1,107.4,1.1,107.4,1L107.4,1z M107.7,0.8L107.7,0.8z M107.7,0.8
	L107.7,0.8L107.7,0.8z M107.9,1.1L107.9,1.1L107.9,1.1z M109.8,1.1C109.8,1,109.8,1.1,109.8,1.1z M111,1c-0.2,0-0.1-0.1,0.1-0.2l0,0
	C111.2,0.9,111.1,1.1,111,1L111,1z M111.3,1L111.3,1L111.3,1z M112.5,93.1L112.5,93.1z M112.5,0.7c0.1,0,0.1,0,0.2,0
	C112.6,0.8,112.5,0.7,112.5,0.7z M112.7,92.8C112.6,92.9,112.6,92.8,112.7,92.8C112.8,92.6,112.7,92.7,112.7,92.8z M112.7,0.8
	C112.8,0.8,112.7,0.8,112.7,0.8z M112.8,93.1L112.8,93.1C112.9,93.1,112.9,93.1,112.8,93.1L112.8,93.1z M112.8,0.8
	C112.8,0.9,112.8,0.8,112.8,0.8z M113,1.1c-0.1,0-0.1-0.1,0-0.2S113.1,1,113,1.1L113,1.1z M113.4,93.3
	C113.4,93.3,113.5,93.3,113.4,93.3C113.5,93.3,113.4,93.4,113.4,93.3L113.4,93.3z M113.7,92.6c0.4-0.2,0.4,0,0.4,0.3
	c-0.1,0-0.1,0-0.1,0C113.7,93,113.3,92.8,113.7,92.6L113.7,92.6z M113.8,1.5C113.8,1.5,113.8,1.4,113.8,1.5z M113.9,1
	C113.9,1,113.9,1.1,113.9,1S114,1,113.9,1L113.9,1z M113.9,0.9c0.1,0.1,0.2,0.2,0,0.1V0.9C113.9,0.8,114,0.8,113.9,0.9L113.9,0.9
	L113.9,0.9z M113.8,93.3L113.8,93.3C114.3,92.5,114.5,93.5,113.8,93.3L113.8,93.3z M114.3,0.8L114.3,0.8c0,0,0.3,0.1,0.2,0.2
	S114.3,0.9,114.3,0.8z M114.8,93.4c-0.2,0.1-0.5,0-0.3-0.2C114.7,93,114.9,93.2,114.8,93.4L114.8,93.4z M114.6,0.5L114.6,0.5
	C114.6,0.6,114.6,0.6,114.6,0.5z M114.8,0.5L114.8,0.5C114.8,0.5,114.7,0.4,114.8,0.5z M114.8,0.6L114.8,0.6l0.1-0.1
	C114.9,0.6,114.8,0.6,114.8,0.6L114.8,0.6z M115.6,92.6c-0.1,0.2-0.4,0.3-0.5,0S115.4,92.3,115.6,92.6
	C115.6,92.6,115.6,92.6,115.6,92.6L115.6,92.6z M116.7,92.8c-0.1,0.2-0.3,0.2-0.4,0.1s0-0.4,0.3-0.3
	C116.6,92.6,116.7,92.7,116.7,92.8C116.8,92.8,116.7,92.8,116.7,92.8L116.7,92.8z M116.9,1C116.9,1,116.9,0.9,116.9,1z M117.3,0.8
	C117.4,0.8,117.3,0.8,117.3,0.8z M117.4,0.8C117.4,0.8,117.4,0.7,117.4,0.8z M117.9,93.1c-0.2,0.1-0.5,0.1-0.4-0.1
	S117.8,92.8,117.9,93.1L117.9,93.1L117.9,93.1z M121,0.7L121,0.7L121,0.7z M121.8,92.6c-0.1,0.2-0.5,0.2-0.5,0
	S121.7,92.3,121.8,92.6L121.8,92.6L121.8,92.6z M122.2,92.9C122.1,93,122.1,92.9,122.2,92.9C122.2,92.8,122.2,92.9,122.2,92.9
	L122.2,92.9z M122.2,0.5L122.2,0.5L122.2,0.5z M89.1,0.2C89.1,0.3,89.2,0.2,89.1,0.2s0.2-0.1,0.2-0.1 M79.8,0.1L79.8,0.1 M60.6,0.2
	c0,0,0.5,0,0.3-0.1C60.8,0.2,60.7,0.1,60.6,0.2L60.6,0.2z M57.9,0v0.1C58,0.1,58,0,57.9,0L57.9,0L57.9,0z M55.2,0L55.2,0
	C55.2,0.1,55.4,0.1,55.2,0L55.2,0z M55,0c-0.1,0-0.2,0.1-0.1,0.2s0,0,0,0S54.9,0.1,55,0c0,0.2,0,0.1,0.1,0.1C55.1,0.1,55,0.1,55,0
	L55,0z M42,0c-0.1,0.2-0.1,0.1,0.1,0.1C42,0.1,42,0,42,0L42,0z M19.2,0C19.2,0,19.2,0.1,19.2,0L19.2,0L19.2,0c0.1,0,0.1,0,0.2,0
	C19.3,0,19.3,0,19.2,0L19.2,0z M14.8,0L14.8,0C14.8,0.1,14.9,0.1,14.8,0z M11.9,0c0,0,0,0.1,0.1,0.1h0.1L11.9,0L11.9,0z M0.8,0
	C0.8,0,0.8,0.1,0.8,0C0.9,0.1,0.9,0.2,1,0.1c0,0.1,0,0.1,0,0.2c0.1-0.1,0.2,0,0.3,0c0.1,0,0-0.2,0-0.2S1.2,0.1,1.1,0
	C1,0,0.9,0,0.8,0z M0.3,2.8L0.3,2.8C0.3,2.8,0.3,2.7,0.3,2.8C0.2,2.7,0.3,2.7,0.3,2.8L0.3,2.8z M0.3,4c0.1,0,0.1,0,0.2,0
	C0.2,4,0.4,3.9,0.3,4C0.2,3.9,0.3,3.9,0.3,4C0.3,3.9,0.3,4,0.3,4z M0.3,5.3L0.3,5.3C0.4,5.3,0.3,5.2,0.3,5.3
	C0.4,5.2,0.3,5.2,0.3,5.3L0.3,5.3L0.3,5.3z M0.3,10.5L0.3,10.5C0.3,10.5,0.4,10.4,0.3,10.5L0.3,10.5L0.3,10.5z M0.3,11.2
	C0.3,11.2,0.4,11.2,0.3,11.2c0.1-0.1,0.3-0.1,0.2-0.2C0.4,11,0.4,11,0.3,11.2L0.3,11.2z M0.3,12.2v0.1C0.5,12.3,0.4,12.2,0.3,12.2
	L0.3,12.2z M0.3,19.4C0.5,19.3,0.3,19.1,0.3,19.4z M0.3,22.6L0.3,22.6C0.3,22.6,0.3,22.5,0.3,22.6L0.3,22.6L0.3,22.6z M0.3,30.3
	L0.3,30.3C0.3,30.3,0.3,30.2,0.3,30.3C0.2,30.1,0.3,30.2,0.3,30.3L0.3,30.3z M0.3,34.1L0.3,34.1L0.3,34.1L0.3,34.1L0.3,34.1z
	 M0.3,36.9C0.3,36.9,0.4,36.9,0.3,36.9L0.3,36.9C0.4,36.9,0.4,36.9,0.3,36.9L0.3,36.9L0.3,36.9z M0.3,37.6L0.3,37.6
	c0.1,0,0.2-0.1,0.2-0.2C0.4,37.3,0.5,37.5,0.3,37.6C0.4,37.6,0.4,37.5,0.3,37.6L0.3,37.6L0.3,37.6L0.3,37.6z M0.3,40L0.3,40
	C0.4,40,0.4,39.9,0.3,40C0.4,39.9,0.4,40,0.3,40c0,0.1,0,0.1,0.1,0.2c0.1-0.1,0.2-0.2,0.2-0.4C0.5,39.8,0.4,39.9,0.3,40
	C0.2,40,0.3,40,0.3,40z M121.3,0.4L121.3,0.4z M112.5,0.4L112.5,0.4C112.5,0.4,112.4,0.4,112.5,0.4L112.5,0.4z M93.5,0.7L93.5,0.7
	C93.6,0.7,93.5,0.7,93.5,0.7z M79.5,0.6L79.5,0.6z M70.5,0.6L70.5,0.6z M69.7,0.8L69.7,0.8z M69.3,0.5C69.3,0.5,69.4,0.5,69.3,0.5z
	 M68.9,1C69,1,68.9,1,68.9,1z M64.4,0.6C64.4,0.5,64.4,0.6,64.4,0.6z M64.3,0.6C64.4,0.6,64.3,0.6,64.3,0.6z M122.8,73.4
	c0.1,0.1,0,0.1-0.1,0.2S122.8,73.5,122.8,73.4z M123,58.9L123,58.9L123,58.9C123.1,58.9,123,58.9,123,58.9z M123,58.9L123,58.9
	L123,58.9L123,58.9L123,58.9z M123,58.4c-0.1,0-0.1,0-0.2,0C122.9,58.3,123,58.3,123,58.4L123,58.4z M123.1,58.6
	C123.1,58.7,123,58.7,123.1,58.6c-0.1,0.1-0.1,0.2-0.2,0.3l-0.1-0.1C122.8,58.6,123,58.5,123.1,58.6L123.1,58.6z M122.9,60h-0.2
	C122.8,60,122.8,60,122.9,60L122.9,60z M122.9,56.9c0,0-0.1,0-0.2,0C122.7,56.9,122.9,56.9,122.9,56.9L122.9,56.9z M123.1,56.4
	L123.1,56.4C123,56.4,123.1,56.3,123.1,56.4L123.1,56.4z M123.1,56.6L123.1,56.6L123.1,56.6C123.1,56.5,123.1,56.5,123.1,56.6
	L123.1,56.6z M123,56.5L123,56.5z M122.9,56.4L122.9,56.4C122.8,56.4,122.9,56.3,122.9,56.4L122.9,56.4z M123,51.9
	c-0.1,0-0.1,0-0.2,0C122.9,51.8,122.9,51.8,123,51.9L123,51.9z M122.9,51.7L122.9,51.7L122.9,51.7L122.9,51.7L122.9,51.7z
	 M122.7,51.7L122.7,51.7L122.7,51.7L122.7,51.7L122.7,51.7z M122.8,56.7h0.2l0.1,0.1C123.1,56.8,123,56.8,122.8,56.7L122.8,56.7
	c0,0.1-0.1,0.1-0.2,0.1L122.8,56.7z M123.1,24L123.1,24h-0.2C122.9,23.9,123,23.9,123.1,24L123.1,24z M123,25.7
	c-0.1,0.1-0.1,0.1-0.2,0.1S122.8,25.8,123,25.7L123,25.7z M122.6,16.2L122.6,16.2L122.6,16.2z M122.9,10L122.9,10L122.9,10V9.9V10z
	 M122.9,9.8L122.9,9.8L122.9,9.8L122.9,9.8z M123,9L123,9c-0.1,0.1-0.1,0.1-0.2,0.1C122.8,9,122.9,8.9,123,9C123,8.9,123,8.9,123,9
	L123,9z M123,8.6h0.2C123.2,8.7,123.1,8.6,123,8.6C123,8.6,123.1,8.6,123,8.6c0,0.1-0.2,0.1-0.3,0.1l-0.1-0.1
	C122.8,8.7,122.8,8.5,123,8.6L123,8.6z M122.7,8.4L122.7,8.4L122.7,8.4L122.7,8.4C122.7,8.5,122.7,8.4,122.7,8.4L122.7,8.4z
	 M122.8,8L122.8,8C122.8,8,122.9,7.9,122.8,8L122.8,8z M122.8,7.4c-0.1,0-0.2,0-0.3,0C122.7,7.2,122.8,7.3,122.8,7.4L122.8,7.4z
	 M122.8,21.7c-0.1,0.1-0.2-0.1-0.3,0C122.7,21.5,122.8,21.6,122.8,21.7L122.8,21.7z M122.6,0.6c-0.2,0-0.2,0-0.2-0.1s0,0,0,0l0,0
	l0,0L122.6,0.6z M122.4,0.3L122.4,0.3L122.4,0.3z"/>
</svg>
