<?xml version="1.0" encoding="utf-8"?>
<!-- Generator: Adobe Illustrator 21.1.0, SVG Export Plug-In . SVG Version: 6.00 Build 0)  -->
<svg version="1.1" id="Layer_1" xmlns="http://www.w3.org/2000/svg" xmlns:xlink="http://www.w3.org/1999/xlink" x="0px" y="0px"
	 viewBox="0 0 100 110.8" style="enable-background:new 0 0 100 110.8;" xml:space="preserve">
<style type="text/css">
	.st0{fill:#A4D55D;}
	.st1{fill:#FF5B35;}
	.st2{fill:#FFFFFF;}
</style>
<g>
	<path class="st1" d="M100,43.2l-2.2-0.4l-1.5-0.3c-0.4-0.1-0.9-0.2-1.5-0.2l-1-0.2l0,0.1c-1.3-0.1-2.8-0.2-4.5-0.4l-4.9-0.3
		c-1.4-0.1-2.7-0.2-3.8-0.3c0,0,0,0,0,0c0-0.2,0-0.4-0.1-0.7l-0.1-1.3c0-0.4-0.1-0.8-0.1-1.3c-0.1-0.9-0.1-1.7,0-2.4l0,0
		c0.3-2.9-0.8-10.2-0.9-10.5l-0.5-1.6l-0.3-11.4L77.4,0L46.7,9.6L45,10.6c-1.3,0.2-2.7,0.6-4.3,1l-0.2,0.1c-0.7,0.2-1.4,0.4-2.2,0.7
		c-0.8,0.3-1.7,0.6-2.6,0.9c-3.3,1.3-6.4,2.8-9.6,4.4l-1.7,0.9l0.1,0.3c-0.1,0-0.1,0.1-0.2,0.1l-0.3,0.2c-1.8,1.2-3.5,2.5-5.4,4.1
		c-1.8,1.6-3.4,3.2-4.8,4.8c-3,3.4-5.5,7.2-7.4,11.2c-1.9,4-3.3,8.2-4.2,12.4L2,52.6l-0.5,3.2l-0.6,7.8c-0.1,0.8-0.2,1.9-0.3,3.6
		l0,0.2c0,0.9-0.1,2.3-0.2,2.7l-0.1,0.4l0,0.4c0.3,4.6-0.3,23.1-0.3,23.3l0,0.1c0,0.6,0,1.8,0,2.9c0,1.2,0,2.4,0,3
		c0,0.9,0,1.8,0.1,2.6c0,0.8,0.1,1.6,0.1,2.4l0,1.3l1,0.8l1.6,1.2c0.3,0.2,0.5,0.4,0.6,0.4l0.1,0.1c0.3,0.2,1.8,1.1,2.2,1.4l0.4,0.2
		l1.2,0.3c0.4,0.1,0.7,0.1,0.9,0.1l2.4,0c0.9,0,6.1,0,7.8-0.1c3.3,0,24.2-0.4,26-0.4l2.6-0.1c0.4,0,0.8,0,1.2-0.1l0.2,0
		c0.4,0,0.7,0,1.1-0.1l0.4,0c4.8-0.3,9.8-1.8,14.7-4.3c4.2-2.2,8.3-5.2,12.3-9l-0.3,1.1l0.8-1.6c0.8-0.7,2-2,3.2-3.5
		c1.6-2,3.2-4.6,4.5-7c1.6-3.2,2.7-6.1,3.1-7.6c0.3-1.1,0.6-1.9,0.8-2.6l0-0.1c0.3-1,0.4-1.3,0.4-1.5l0.9-4.1
		c0.1-0.2,0.2-0.4,0.2-0.6c0.3-0.5,0.5-1.1,0.7-1.7c0.1-0.2,0.2-0.4,0.2-0.6l0.4-0.4l0.1-0.9c0.2-1.8,0.8-3.7,1.4-5.4l0.2-0.9
		c0.1-0.2,0.2-0.5,0.3-0.9c0.3-0.8,0.8-2.1,1.1-2.8l0.1-0.1c0,0,0.4-1,0.6-1.6l1.7-5.5c0.1-0.2,0.2-0.5,0.3-0.8
		c0.2-0.5,0.4-1,0.5-1.5L100,43.2z"/>
	<g>
		<path class="st2" d="M10.8,97.1c0.1,0,0.2,0,0.2,0c0,0.1,0.1,0.1,0.3,0.1c0-0.1,0-0.2-0.1-0.2C11,97,11,96.9,11,96.8
			c0-0.1,0-0.2,0.1-0.2c0.1-0.1,0.1-0.2,0.1-0.3C11.1,96,11,95.7,11,95.6c0.3-0.4,0.5-0.7,0.5-0.9c0.1,0,0.2,0,0.3,0.1
			c0,0.1,0.1,0.2,0.2,0.3c0.1-0.2,0.2-0.3,0.2-0.4c0-0.1,0-0.2,0-0.5c0.1,0.1,0.1,0.1,0.2,0.1c0.1,0,0.3-0.2,0.5-0.5
			c0.1,0.1,0.3,0.1,0.4,0.1c0.1,0,0.3-0.1,0.4-0.3c0,0.1,0,0.2,0.1,0.3c0,0.1,0.1,0.1,0.1,0.1c0,0.5,0.1,0.9,0.3,1.1l0.5,0.7
			c0.1,0.1,0.2,0.2,0.2,0.3s0,0.2,0,0.4l0.1,0.1c0.1,0.1,0.1,0.2,0.1,0.3l0.6,0.5c0.2,0.2,0.5,0.2,0.8,0.1c0.1,0,0.2-0.1,0.4-0.2
			c0.1-0.1,0.2-0.2,0.4-0.2l0.3-0.1c0.2-0.2,0.5-0.4,0.8-0.6c0.3-0.2,0.5-0.3,0.6-0.5c0.1-0.2,0.2-0.2,0.2-0.3s0-0.1,0-0.2
			c0.2-0.2,0.3-0.3,0.4-0.4c0.1-0.1,0.1-0.1,0.1-0.3c0-0.1,0-0.3,0.1-0.4c0.1-0.1,0.1-0.3,0.1-0.4c0.3-0.6,0.4-1.4,0.4-2.2
			c0-0.6-0.1-1.1-0.2-1.6c0-0.3-0.1-0.5-0.3-0.8l-0.5-0.8c-0.3-0.4-0.6-0.6-0.9-0.7c-0.3-0.1-0.7-0.1-1.3,0
			c-0.5,0.3-1.1,0.5-1.9,0.8c-0.5,0.1-0.8,0.2-1,0.3c-0.3,0.1-0.7,0.1-1,0.2c-0.6,0-1-0.2-1.4-0.5c-0.4-0.3-0.5-0.8-0.5-1.5
			c0-0.1,0-0.3,0.1-0.5c0.1-0.2,0.1-0.4,0.1-0.6c0-0.1,0.1-0.3,0.3-0.7c0.2-0.4,0.3-0.8,0.4-1.3c0.2-0.7,0.5-1.5,1-2.2
			c0.1,0,0.2-0.1,0.3-0.1c0.1-0.2,0.2-0.3,0.3-0.3c0,0,0.1,0,0.2,0c0-0.1,0-0.2,0.1-0.3c0.1,0,0.1-0.1,0.1-0.3c0.2,0,0.4,0,0.6,0
			c0.2-0.1,0.5-0.2,0.7-0.3s0.4-0.3,0.4-0.3c0.3,0,0.5,0,0.7,0c0.1,0,0.2-0.1,0.4-0.2c0.4-0.1,0.7-0.3,1.1-0.3c0.4,0,0.7,0.1,1,0.2
			c0.3,0.2,0.6,0.3,1,0.3l0.1,0c-0.1-0.1-0.1-0.1-0.1-0.2c0,0,0-0.1,0.1-0.1c0.2,0,0.3,0.1,0.4,0.2s0.1,0.3,0.1,0.4
			c0,0.3-0.1,0.6-0.2,1c-0.1,0.1-0.2,0.2-0.2,0.2c-0.1,0-0.1,0-0.2-0.1C20,81.7,20,81.6,20,81.5v0.1c0,0.1,0,0.1-0.1,0.2
			c0,0.1-0.1,0.2-0.2,0.3l-1.9,0.5c0-0.1,0-0.2-0.1-0.2c-0.1,0-0.2,0-0.4,0.1c-0.1-0.1-0.2-0.2-0.3-0.3c0,0-0.1,0-0.1,0
			c-0.1,0-0.2,0.1-0.3,0.2c-0.1,0-0.2,0.1-0.4,0.3c-0.2,0.2-0.3,0.4-0.4,0.7c-0.3,0.6-0.4,1-0.4,1.3c-0.2,0.5-0.3,0.9-0.3,1.1
			c0,0.3,0.2,0.5,0.5,0.6l0.7-0.2c0.3-0.1,0.7-0.2,1-0.4c0.3-0.1,0.6-0.3,1-0.4c0.5,0,1,0,1.5-0.1c0.6-0.1,1-0.1,1.4-0.1
			c0.3,0.3,0.5,0.4,0.7,0.3c0,0.2,0,0.3,0,0.4c0,0.1,0.1,0.1,0.2,0.1c0.1,0.3,0.3,0.6,0.5,0.8c0.2,0.2,0.3,0.4,0.3,0.8l0.2-0.1v0.8
			c0,0.1,0,0.2,0.1,0.3c0.1,0.1,0.1,0.2,0.2,0.2s0.1,0.1,0.2,0.1c-0.1,0.2-0.1,0.4-0.1,0.5c0,0.1,0,0.2,0.1,0.2
			c0.1,0.2,0.1,0.5,0.1,0.7c-0.1,0-0.2,0-0.2-0.1c0,0,0-0.1,0-0.1c-0.1,0.1-0.1,0.4-0.1,0.8c0,0.5,0,0.8-0.1,1v0.5
			c0,0.2,0,0.3-0.1,0.3c-0.1,0.1-0.1,0.1-0.1,0.3c-0.3,1.2-0.8,2.3-1.5,3.1c-0.3,0.4-0.6,0.7-1,1l-0.2,0.2c0,0-0.1,0.1-0.3,0.3
			c0,0-0.1,0.1-0.3,0.2c-0.2,0.2-0.4,0.4-0.7,0.7c-0.3,0.3-0.5,0.5-0.8,0.6l-1,0.2c-0.1,0-0.3,0.1-0.5,0.3c-0.2,0.2-0.4,0.3-0.5,0.5
			l-0.5,0.1c-0.2,0.1-0.6,0.2-1.1,0.3c-0.1,0-0.1,0-0.2,0.1c-0.3,0.1-0.6,0-0.9-0.1c-0.1,0-0.1-0.1-0.2-0.1l-0.3-0.3
			c0-0.1,0-0.2-0.1-0.2c-0.3,0-0.5-0.2-0.7-0.5c-0.1-0.2-0.3-0.3-0.6-0.4c-0.1-0.2-0.3-0.6-0.5-1C11.1,97.8,10.9,97.5,10.8,97.1z"/>
		<path class="st2" d="M24.8,90.9v-1c0-1,0-1.9,0.1-2.7s0.1-1.5,0.2-2.2v-1.3c0-0.1,0-0.3,0.1-0.6c0.1-0.2,0.1-0.5,0.1-0.8v-0.1
			c0-0.3,0.1-0.5,0.3-0.7c0-0.7,0-1.3,0-1.7c0-0.4,0.1-0.8,0.2-1.3c0.2-0.1,0.4-0.1,0.5-0.3c0.1-0.1,0.2-0.2,0.5-0.2l0.8-0.2
			c0-0.1,0-0.2,0.1-0.3c0,0,0.1,0,0.1-0.1c0.2,0,0.4,0,0.5,0c0.1,0,0.2-0.1,0.3-0.1c0.2-0.1,0.5-0.2,0.7-0.3
			c-0.1,1.2-0.2,2.1-0.3,2.7c-0.3,2.3-0.5,4.2-0.6,5.5c-0.1,1.2-0.1,2.2-0.1,3c0,1,0.1,1.9,0.3,2.5c0,0.7,0,1.3,0.1,1.7
			c0.1,0.4,0.2,0.8,0.4,1.1l0.3,0.2c0.2,0.3,0.5,0.5,0.8,0.6c0.1,0.1,0.2,0.1,0.4,0.1c0.4-0.1,0.7-0.3,1-0.5
			c0.2-0.2,0.3-0.5,0.3-0.9c0.1-0.3,0.2-0.6,0.2-1.1c0-0.4,0.1-0.9,0.3-1.4c0.2-0.6,0.4-1.4,0.8-2.5c0.3-1.6,0.6-3.1,0.8-4.3
			c0.2-1.2,0.3-2.5,0.3-3.9c0-0.2,0-0.5-0.1-0.9c-0.1-0.3-0.1-0.8-0.1-1.4c0-0.6,0.1-1,0.3-1.4l0.1,0c0.1,0,0.2-0.1,0.3-0.1
			c0.1-0.1,0.2-0.2,0.3-0.3c0.2,0.4,0.5,0.5,1,0.4c0.2,0,0.4-0.1,0.6-0.2c0.1,0,0.2,0,0.2,0.1c0,0,0,0.1,0,0.1l1-0.3v1.1V78v2.6
			c0,1.7,0,2.9-0.1,3.7c-0.1,1.3-0.3,2.5-0.7,3.6c-0.3,0.7-0.5,1.5-0.5,2.2c-0.1,0.2-0.2,0.4-0.2,0.6c0,0.2-0.1,0.4-0.3,0.6v0.6
			c0,0.2,0,0.3-0.1,0.4c0,0.1-0.1,0.2-0.2,0.2v1.3c-0.1,0.1-0.4,0.3-0.9,0.6c-0.4,0.2-0.7,0.4-0.9,0.6c-0.1,0-0.2,0.1-0.2,0.2
			c0,0.1-0.1,0.2-0.3,0.2c-0.1,0.1-0.2,0.2-0.3,0.3c-0.1,0.1-0.2,0.1-0.4,0.1c-0.2,0.2-0.3,0.3-0.5,0.4c-0.2,0.1-0.4,0.2-0.7,0.4
			c-0.3,0.2-0.7,0.3-1.1,0.4c-0.4,0.1-0.8,0.2-1.5,0.4l-0.7,0.2c-0.2-0.1-0.5-0.2-0.6-0.3c-0.2-0.2-0.4-0.3-0.7-0.3
			c-0.2-0.1-0.5-0.2-0.6-0.4c-0.2-0.2-0.4-0.3-0.7-0.3c-0.2-0.6-0.4-1.4-0.6-2.3C24.8,93,24.8,92,24.8,90.9z"/>
		<path class="st2" d="M38.6,85.7c0-0.1,0-0.3,0.1-0.4c0.1-0.2,0.1-0.3,0.1-0.4c0-0.1,0-0.3-0.1-0.6c-0.1-0.2-0.1-0.5-0.1-0.7
			c0.1,0,0.2-0.1,0.3-0.2c0-0.1,0.1-0.1,0.3-0.2c0-0.4,0-0.7,0-0.9c0-0.2,0.1-0.4,0.2-0.5c0-0.1,0-0.2-0.1-0.2c-0.1,0,0,0,0.1-0.1
			V81c0-0.1,0-0.2,0.1-0.3c0.1-0.1,0.1-0.2,0.1-0.3c0.1-0.2,0.1-0.2,0-0.2c0,0,0,0-0.1,0l0.1,0c0-0.1,0-0.2,0.1-0.3
			c0.1-0.1,0.1-0.2,0.1-0.3c0.2-0.2,0.2-0.4,0.3-0.5c0-0.1,0.1-0.3,0.3-0.5c-0.2-0.1-0.3-0.1-0.3,0.1c0.1-0.1,0.1-0.3,0.2-0.5
			c0.1-0.4,0.2-0.7,0.4-0.9c0.1-0.1,0.3-0.2,0.5-0.3v-0.1c0-0.1,0-0.2,0.1-0.2c0-0.1,0.1-0.2,0.2-0.3c0-0.1,0-0.2,0.1-0.3
			c0.1,0,0.2-0.1,0.4-0.1l0.8-1c0.2-0.2,0.4-0.4,0.6-0.6c0.2-0.2,0.4-0.4,0.7-0.6l0.5-0.1c0.3-0.2,0.6-0.4,0.9-0.5
			c0.3-0.1,0.7-0.3,1.2-0.6c0.3-0.1,0.5-0.1,0.7-0.1s0.5,0,0.9,0c0.4-0.1,0.7-0.1,1-0.1c0.3,0.1,0.6,0.2,0.8,0.4
			c0.2,0.1,0.4,0.2,0.5,0.2c0.1,0.1,0.2,0.2,0.3,0.3l0.2,0.4l0.3,0.6c0.2,0.7,0.3,1.2,0.3,1.5c0,0.6-0.2,1.1-0.5,1.5
			c-0.1,0-0.3,0.1-0.4,0.2c-0.2,0.1-0.5,0.2-0.7,0.3c0,0-0.1,0-0.1,0c-0.1,0-0.2,0-0.4-0.1c-0.2,0.1-0.5,0.2-0.7,0.3
			c-0.2,0.1-0.4,0.2-0.6,0.3C48.1,78.4,48,78,48,77.4c0-0.8-0.1-1.4-0.4-1.8s-0.6-0.7-1.1-0.7c-0.2,0-0.4,0-0.6,0
			c-0.2,0.1-0.4,0.2-0.6,0.3c-0.2,0.2-0.4,0.4-0.6,0.6c-0.7,0.7-1.3,1.7-1.8,3c-0.4,1.2-0.6,2.4-0.6,3.7c0,0.5-0.1,0.8-0.1,1.1
			c0,1,0.1,1.9,0.4,2.7c0.3,1.1,0.7,2,1.2,2.6c0.1,0.2,0.4,0.5,0.7,0.7c0.3,0.2,0.6,0.3,0.9,0.3l0,0c0.2-0.1,0.5-0.2,0.7-0.3
			s0.4-0.3,0.6-0.5c0.2-0.2,0.5-0.4,0.7-0.7s0.4-0.6,0.6-0.9c0.2-0.3,0.3-0.8,0.5-1.4c0.1-0.2,0.1-0.5,0.2-0.7
			c0.1-0.2,0.2-0.4,0.3-0.6c0.1-0.2,0.2-0.3,0.1-0.5c-0.1-0.1-0.1-0.2-0.1-0.4c-0.1,0-0.4,0-0.7,0c-0.6,0.2-1.2,0.2-1.6,0.3
			c-0.2,0-0.4,0-0.5-0.1C46.1,84,46,83.9,46,83.8c0-0.1,0-0.2,0-0.3c0-0.2-0.1-0.4-0.2-0.6c0.2-0.2,0.3-0.3,0.4-0.4
			c0.1,0,0.2-0.2,0.4-0.4l2.1-0.5l1.8-0.5c0.2,0,0.4,0,0.6,0c0.5-0.1,0.9-0.1,1.2-0.1c0.2,0,0.4,0.1,0.6,0.1v2.7
			c0,0.3-0.1,0.5-0.2,0.7c-0.2,0.4-0.3,0.7-0.4,0.8v0.8v0.5v0.8c0,0.1,0,0.3-0.1,0.6s-0.1,0.4-0.1,0.6c-0.1,0-0.2,0.1-0.2,0.2
			s0,0.2,0,0.5c-0.1,0.1-0.1,0.2-0.1,0.3s0,0.2,0.1,0.3c0.1,0.1,0.2,0.1,0.3,0.1c-0.1,0.2-0.1,0.4-0.1,0.6l0.1,0.2c0,0,0,0.2,0,0.3
			c-0.1,0.1-0.1,0.1-0.1,0.2c-0.1,0.2-0.1,0.3-0.1,0.4c-0.3,0.1-0.6,0.3-0.9,0.5c0,0-0.1,0.1-0.3,0.3l-0.4,0.3
			c-0.1,0-0.3,0.1-0.4,0.2c-0.1,0.1-0.2,0.3-0.2,0.4c-0.1-0.1-0.3-0.1-0.4,0c-0.1,0.1-0.2,0.2-0.4,0.2c-0.2-0.1-0.3-0.3-0.4-0.5
			s-0.1-0.5-0.1-0.7c0-0.3,0-0.6,0.1-1c0-0.1,0-0.2,0-0.3c0-0.2,0-0.4-0.1-0.6c-0.2,0.1-0.5,0.2-0.8,0.5c-0.4,0.3-0.7,0.6-1,0.8
			L45.9,92c-0.6,0.5-1.4,0.9-2.3,1.1c-0.7,0-1.4-0.1-1.8-0.3c-0.5-0.3-0.9-0.7-1.3-1.3c-0.3-0.3-0.6-0.8-0.7-1.3
			c-0.2-0.5-0.3-1.1-0.4-1.6c-0.1-0.5-0.2-0.9-0.2-1c-0.1-0.3-0.3-0.5-0.4-0.9C38.6,86.3,38.6,86,38.6,85.7z"/>
		<path class="st2" d="M53.3,90.5c0-0.4,0.1-0.9,0.2-1.3l0.4-1.5c1.3-3.8,2.4-7.6,3.4-11.3c0.3-0.8,0.5-1.5,0.5-2.3l0.4-1.2
			c0.1-0.3,0.2-0.7,0.2-1.1c0.1-0.3,0.2-0.5,0.2-0.8c0-0.2,0-0.6,0-1.2c0.4-0.1,0.7-0.1,1.1-0.2c0.3,0,0.6,0,0.6,0
			c0.4,0,0.7-0.1,0.9-0.1c0.2-0.1,0.5-0.2,0.8-0.3c0.3,0.6,0.5,1,0.5,1.5c0.2,0.7,0.5,1.4,0.8,2.1c0.2,0.6,0.5,1.3,0.8,2.1
			c0.6,1.1,1.2,2.7,1.8,4.9v0.8c0.1,0.1,0.3,0.2,0.4,0.2c0.1,0,0.2,0.1,0.4,0.2c0,0.3,0,0.5-0.1,0.6c-0.1,0.1-0.1,0.3-0.1,0.5
			c0,0.4,0.1,0.7,0.3,1.1c0.2,0.4,0.4,0.8,0.5,1.1c0,0.1,0.1,0.2,0.2,0.4c0.1,0.1,0.2,0.2,0.2,0.4c0,0.3,0,0.5-0.1,0.7
			c0,0.2-0.1,0.4-0.3,0.5c-0.5,0.3-0.8,0.5-1,0.5c-0.2,0.2-0.5,0.3-0.8,0.4c-0.3,0.1-0.7,0.2-1.3,0.4c-0.1-0.2-0.2-0.5-0.4-0.9
			c-0.1-0.2-0.2-0.4-0.2-0.5s-0.1-0.3-0.2-0.3c0-0.4,0-0.7-0.1-0.9c-0.1-0.2-0.2-0.6-0.4-1.1c-1.1,0.3-1.9,0.5-2.6,0.7
			c-0.6,0.2-1.2,0.4-1.8,0.7c-0.2,0.3-0.4,0.7-0.5,1.1c-0.1,0.5-0.2,0.9-0.3,1.2c-0.2,0.6-0.3,1.1-0.4,1.6c-0.1,0.5-0.2,0.8-0.2,1
			c-0.5,0.3-1.1,0.5-1.7,0.6C54.3,90.8,53.7,90.8,53.3,90.5z M58.7,82.7c0.3,0,0.7-0.1,1.2-0.2c0.2,0,0.3-0.1,0.5-0.1l0.9-0.3
			c0.2-0.1,0.5-0.1,0.8-0.2c-0.1-1-0.3-1.9-0.6-2.7c-0.3-0.8-0.6-1.7-1-2.6v0.2c-0.3,0.8-0.6,1.4-0.8,1.8v0.8c0,0.1,0,0.2-0.1,0.3
			c-0.1,0.1-0.1,0.2-0.1,0.3l-0.4,1.3L58.7,82.7z"/>
		<path class="st2" d="M68.2,78.4c0-0.6,0-1.1,0-1.5c0.1-1.4,0.1-2.9,0.1-4.6v-2c0-0.2,0-0.3,0-0.4c0-0.1,0.1-0.1,0.2-0.2
			c0-0.2,0-0.3-0.1-0.3c-0.1-0.1-0.1-0.2-0.1-0.3c0-0.1,0-0.2,0.1-0.3c0,0,0,0,0-0.1c0-0.1,0-0.1-0.1-0.2c0.1-0.1,0.3-0.3,0.5-0.6
			c0.1-0.2,0.3-0.3,0.5-0.4c0,0,0.1-0.1,0.2-0.2c0.1-0.1,0.1-0.1,0.2-0.2c0,0,0.1,0,0.2-0.1l0.1,0c0.1,0,0.2-0.1,0.2-0.1
			c0,0,0.1-0.1,0.2-0.3c0.1,0,0.3,0,0.4,0c0,0,0.1,0,0.1,0c0.1,0,0.2-0.1,0.3-0.2c0.1,0,0.3,0,0.4,0c0.1,0.1,0.3,0.1,0.6,0
			c0.1-0.1,0.2-0.2,0.4-0.3c0,0,0.1-0.1,0.2-0.1c0.2,0,0.4,0.1,0.7,0.3c0.2,0.1,0.5,0.1,0.9,0.1l1.1,0.1c0.2,0.1,0.5,0.2,0.8,0.4
			c0.3,0.2,0.6,0.3,1,0.5c0.2,0,0.4,0.2,0.5,0.3c0.1,0.2,0.3,0.4,0.4,0.7c0.2,0.1,0.3,0.4,0.3,1c0,0.5-0.1,1-0.3,1.3
			c-0.2,0.4-0.4,0.8-0.5,1.1c-0.1,0.2-0.2,0.4-0.3,0.5c-0.1,0.1-0.1,0.1-0.2,0.1c-0.1,0.2-0.2,0.5-0.4,0.7s-0.4,0.5-0.6,0.7
			c-0.1,0.1-0.2,0.3-0.4,0.6s-0.4,0.6-0.6,0.9c0.1,0.1,0.2,0.2,0.4,0.2s0.4,0.1,0.6,0.1c0.5,0.1,0.8,0.1,1,0.3
			c0.2,0.2,0.5,0.4,0.6,0.7c0.2,0.3,0.4,0.6,0.6,0.7c0.2,0.3,0.2,0.5,0.3,0.7c0,0.2,0.1,0.6,0.2,0.9c0.1,0.1,0.2,0.2,0.2,0.3
			c0,0.1,0,0.2,0,0.4c0,0.5,0.1,0.8,0.2,1c0,0.6,0,1,0,1.2c0,0.3,0.1,0.5,0.2,0.7c-0.1,0.1-0.2,0.3-0.2,0.4c0,0.1,0,0.3,0,0.5
			c-0.3,0.2-0.6,0.4-0.8,0.6c-0.2,0.2-0.4,0.4-0.7,0.8c-0.2,0-0.3,0.1-0.4,0.2c0,0-0.1,0-0.1,0.1c-0.1,0-0.2,0-0.3-0.1
			c-0.1,0-0.3-0.1-0.4-0.3s-0.2-0.5-0.2-0.8c0-0.5,0-0.9-0.1-1.3c-0.1-0.4-0.1-0.8-0.1-1.1c-0.1-0.3-0.2-0.6-0.3-0.9
			c-0.2-0.7-0.4-1.3-0.7-1.7c-0.2-0.3-0.4-0.4-0.7-0.5c-0.4-0.3-1-0.4-1.8-0.2c-0.2,0-0.5,0.2-1,0.3c-0.1,0.3-0.2,0.6-0.2,1
			c0,0.5,0.1,1.3,0.4,2.2c0,0.6,0,1,0,1.3c0,0.3,0.1,0.5,0.2,0.7c0,0.2,0,0.5-0.1,0.8c-0.1,0.3-0.1,0.6-0.1,0.8
			c-0.1,0-0.2,0-0.3-0.1c0-0.1-0.1-0.1-0.3-0.1c0,0.2,0,0.3-0.1,0.3c-0.1,0.1-0.1,0.1-0.1,0.3c-0.4,0.1-0.6,0.2-0.8,0.3
			c-0.2,0.1-0.3,0.3-0.4,0.5c0-0.1-0.1-0.1-0.2-0.1c-0.1,0.1-0.2,0.2-0.3,0.2c0-0.1,0-0.1,0-0.1c0-0.1-0.1-0.1-0.2-0.1
			c0,0.1,0,0.1,0,0.1c0,0.1-0.1,0.1-0.2,0.2v-0.2c-0.1,0-0.2,0-0.2-0.1c0-0.1-0.1-0.2-0.2-0.3c-0.1-0.2-0.1-0.5-0.1-0.8
			c0-0.1,0-0.3,0.1-0.6c0.1-0.6,0.1-1.2,0.1-1.9c0,0-0.1-0.1-0.1-0.1c-0.1-0.1-0.1-0.1-0.1-0.1c0,0,0-0.1,0-0.2v-1.3
			C68.3,80.3,68.2,79.3,68.2,78.4z M71.6,75.6c0.3-0.1,0.4-0.2,0.6-0.4c0.1-0.1,0.2-0.3,0.4-0.6c0.3-0.3,0.6-0.6,0.9-1
			s0.5-0.8,0.8-1.2c0.3-0.6,0.4-1.1,0.4-1.6c0-0.4-0.1-0.7-0.3-1c-0.5-0.2-0.9-0.5-1.3-0.6c-0.6-0.2-1.1-0.4-1.5-0.4L71.6,75.6z"/>
	</g>
	<g>
		<path class="st2" d="M31.3,34.6c0,5.3,0.2,10.4,0.4,15.4c0.1,1.8,0.2,3.6,0.2,5.5c0,1.9,0.1,3.8,0.1,5.5c0,0.2-0.2,0.3-0.6,0.5
			c-0.4,0.2-0.8,0.3-1.3,0.5c-0.5,0.1-0.9,0.3-1.4,0.3c-0.5,0.1-0.7,0.1-0.8,0v0c-0.2-0.1-0.4-0.4-0.4-0.8c0-0.4,0-0.7,0-1
			c0-0.6,0.1-1.2,0-1.9c0-0.7,0-1.3,0-2V29c0-0.5,0-1,0.2-1.3c0.2-0.3,0.8-0.6,2-1c1.1-0.3,1.8-0.4,2.1-0.3c0.3,0.1,0.5,0.5,0.8,1
			l0.1,0.4c0.5,1,1,2.1,1.3,3.2c0.4,1.1,0.7,2.2,1,3.3l1.7,6.3c0.2,1.1,0.4,2.1,0.6,2.9c0.2,0.8,0.4,1.6,0.6,2.4
			c0.2,0.8,0.4,1.6,0.6,2.4c0.2,0.8,0.5,1.8,0.7,2.8c-0.1-1.9-0.2-4-0.2-6.2c0-2.2,0-4.2,0-6.1v-1.3c0-0.6,0-1.3,0-1.8
			c0-0.6,0-1.2,0-1.8v-6.5c0-0.4,0-0.7,0-1c0-0.3,0-0.7,0-1.1c0-0.5,0.2-0.8,0.6-1c0.3-0.2,0.8-0.3,1.3-0.5l0.8-0.2
			c0.4-0.1,0.8-0.2,1.1-0.2c0.3,0,0.5,0.2,0.5,0.6c0,0.3,0,0.5,0,0.8c0,0.3,0,0.5,0,0.7v6.9c0,2.2,0,4.5,0,6.7c0,2.2,0,4.5,0.1,6.7
			c0,0.9,0,1.8,0,2.8c0,1,0,1.9-0.1,2.9c0,0.9-0.1,1.8-0.1,2.9c0,1,0,2,0,2.8c0,0.5-0.1,0.9-0.2,1.1c-0.2,0.2-0.6,0.5-1.2,1
			c-0.2,0.1-0.6,0.2-1.2,0.3c-0.6,0.1-1.1,0.1-1.3,0.1c-0.7-0.1-1.2-0.4-1.5-1c-0.3-0.6-0.5-1.2-0.7-2l-0.2-0.7
			c-0.7-2.5-1.4-4.9-2.1-7.3c-0.7-2.4-1.3-4.8-1.9-7.3c-0.3-1-0.5-2-0.7-3.1c-0.2-1.1-0.4-2.1-0.6-3.2L31.3,34.6z"/>
		<path class="st2" d="M55.3,20.5c1.3-0.3,2.4-0.5,3.2-0.4c0.8,0,1.4,0.2,1.9,0.4c0.4,0.2,0.8,0.6,1,1c0.2,0.4,0.4,0.9,0.5,1.4
			l0.1,0.4c0.1,0.3,0.2,0.8,0.2,1.4c0,0.6,0.1,1.3,0.1,2.1c0,0.8,0.1,1.6,0.1,2.4c0,0.8,0,1.6,0,2.4v0.8c0,0.2,0,0.5,0,0.7
			c0,0.2,0,0.4,0,0.7c0,0.5,0.1,1.2,0.1,1.9c0,0.7,0,1.4,0,2v4.7c0,1,0,2-0.1,3.1c-0.1,1.1-0.2,2.1-0.4,3.1c-0.2,1-0.5,2-0.8,2.9
			c-0.4,0.9-0.8,1.8-1.5,2.5c-0.3,0.4-0.8,0.8-1.3,1.1c-0.5,0.3-1.1,0.5-1.8,0.7C56,55.9,55.3,56,54.4,56c-1.1,0.1-1.9,0-2.6-0.2
			c-0.6-0.2-1.3-0.5-1.9-0.9c-0.9-0.6-1.5-1.4-1.8-2.3c-0.2-0.9-0.4-1.9-0.5-3c0-0.2,0-0.3,0-0.4c0-0.1,0-0.3,0-0.4
			c-0.2-1.8-0.4-3.6-0.5-5.5c-0.1-1.9-0.1-3.7-0.1-5.6c0-0.8,0-1.6,0-2.4c0-0.8,0-1.6,0.1-2.4c0-1.7,0.2-3.2,0.6-4.6
			c0.4-1.4,0.9-2.8,1.7-4.4c0.3-0.6,0.7-1,1.1-1.4c0.4-0.4,0.9-0.7,1.5-1c0.5-0.3,1.1-0.5,1.6-0.7C54.2,20.8,54.7,20.6,55.3,20.5z
			 M58.1,25.1c0-0.4-0.2-0.8-0.4-1.3c-0.2-0.5-0.6-0.8-1.2-0.9c-0.9,0-1.5,0-1.8,0.1c-0.7,0.2-1.1,0.5-1.4,0.9
			c-0.3,0.5-0.5,0.9-0.7,1.3c-0.2,0.7-0.4,1.4-0.5,2c-0.1,0.6-0.2,1.2-0.3,1.8l-0.2,1.4c0,0.2-0.1,0.5-0.1,0.8c0,0.3,0,0.7,0,1.1
			v4.9c0,0.4,0,0.9,0,1.6c0,0.7,0.1,1.4,0.1,2.2c0.1,0.8,0.1,1.7,0.2,2.5c0.1,0.9,0.2,1.7,0.2,2.5l0.3,2.9c0.1,0.7,0.2,1.4,0.5,2.2
			c0.2,0.7,0.6,1.3,1,1.7c0.2,0.1,0.4,0.1,0.7,0.1c0.3,0,0.6,0,1-0.1c0.3-0.1,0.6-0.2,0.9-0.3c0.3-0.1,0.5-0.3,0.6-0.5
			c0.6-1,0.9-1.9,1-2.7c0.1-0.8,0.1-1.6,0.1-2.5v-1.2c0-0.9,0.1-1.9,0.1-2.8c0-0.9,0-1.9,0-2.8c0-0.7,0-1.3,0-2c0-0.7,0-1.4-0.1-2
			c0-1-0.1-2-0.1-2.9s0-1.7,0-2.5c0-0.9,0-1.8,0-2.7C58.3,26.9,58.2,26.1,58.1,25.1L58.1,25.1z"/>
	</g>
	<path class="st0" d="M36.3,66.1C36.3,66.1,36.3,66.1,36.3,66.1L36.3,66.1z"/>
	<path class="st0" d="M50.8,61.5C50.8,61.5,50.8,61.5,50.8,61.5c0,0,0-0.1,0-0.1L50.8,61.5z"/>
	<path class="st0" d="M53.2,61.1L53.2,61.1C53.3,61.1,53.3,61.1,53.2,61.1z"/>
	<path class="st0" d="M45.4,63.4C45.4,63.4,45.4,63.4,45.4,63.4C45.4,63.4,45.4,63.4,45.4,63.4z"/>
	<path class="st0" d="M32.2,67.2C32.2,67.2,32.2,67.1,32.2,67.2C32.2,67.1,32.2,67.1,32.2,67.2L32.2,67.2z"/>
	<path class="st0" d="M32.2,67.1C32.3,67.1,32.2,67.1,32.2,67.1c0,0.1,0.1,0.1,0.1,0.1C32.4,67.1,32.2,67.1,32.2,67.1z"/>
	<path class="st0" d="M24.1,68.4L24.1,68.4C24.2,68.4,24.1,68.4,24.1,68.4z"/>
	<path class="st0" d="M46.5,66.2C46.5,66.2,46.5,66.2,46.5,66.2C46.5,66.2,46.5,66.2,46.5,66.2z"/>
	<path class="st0" d="M25.4,68.2L25.4,68.2C25.4,68.2,25.4,68.2,25.4,68.2z"/>
	<path class="st0" d="M50.8,61.4L50.8,61.4C50.8,61.3,50.8,61.4,50.8,61.4z"/>
	<path class="st0" d="M55.5,60.7C55.5,60.7,55.5,60.7,55.5,60.7L55.5,60.7L55.5,60.7z"/>
	<path class="st0" d="M66.9,59.9L66.9,59.9L66.9,59.9C66.9,59.9,66.9,59.9,66.9,59.9z"/>
	<path class="st0" d="M58.6,60.5C58.6,60.5,58.6,60.5,58.6,60.5c-0.1-0.1-0.2,0-0.4,0l0,0.1L58.6,60.5z"/>
	<path class="st0" d="M62.5,62.6l-0.4-0.2c1-0.3,1.5-0.2,2.4-0.6l0,0.1c0.1,0,0.1-0.5,1.6-0.2l0,0c0,0,0-0.1,0.1,0L66,61.6
		c0.1-0.1,0.2-0.2,0.4-0.3c0,0,0.1,0.1,0.1,0.1l0.5-0.1l0.2,0.1c0.1-0.1,0-0.4,0.4-0.3c-0.2-0.2,0.2-0.2,0.1-0.3
		c0,0,0.1,0.1,0.1,0.1c0.2-0.1,0.6-0.2,0.7-0.3c0,0-1-0.3-1.3-0.5c0.3,0,0.1,0,0-0.1l0,0.1c-0.2,0-0.2-0.2-0.3-0.2c0,0,0,0,0,0l0,0
		c0,0,0,0,0,0.1c0,0,0,0.1-0.1,0.1l0,0c-0.1,0-0.2,0-0.3,0l0-0.1c-0.1,0.3-1.1-0.1-1.3-0.1c-0.2-0.1-0.4,0.1-0.7,0.1
		c-0.4,0-0.2-0.1-0.5-0.2c-0.3,0,0.1,0.1,0,0.2l-0.3-0.1c0.2-0.1,0.1-0.1,0-0.1c-0.3,0-0.7-0.1-0.7,0.2c-0.4,0-0.4-0.1-0.5-0.1
		c0.1,0,0.2,0,0.2,0.1c-0.2-0.1-0.1,0,0,0.1c-0.2,0.1-1.2-0.2-1.2,0.1l0,0c0,0.2,0.1,0.4,0,0.5l-0.1-0.1l-0.1,0.1
		c-0.1,0-0.1-0.1-0.1-0.1c-0.2,0.1-0.6,0.1-0.9,0.1l0.4,0.5c-0.3-0.1-0.8-0.2-0.8,0l-0.2-0.1c-0.6-0.2-0.3,0.2-0.5,0.1L59,60.7
		l0.2,0c-0.3-0.1-0.4-0.1-0.6-0.2l0,0c0,0,0,0,0,0l0,0c0,0.1-0.1,0.2-0.3,0.2c-0.3,0-0.4,0.2-0.9,0.1L57.4,61l-0.3-0.1l0-0.2
		c0.3-0.1,0.8-0.2,1.2-0.3l0-0.1c-0.2,0-0.5,0.2-0.6,0.2c-0.1,0-0.3-0.1-0.2-0.3l-0.1,0.2c-0.7,0.2-0.7,0.2-1.6,0.2l0.1,0.1
		c-0.1,0.1-0.3,0.2-0.4,0c-0.5,0.1-1,0.1-1.3,0l0,0.2c-0.1,0-0.3-0.2-0.3,0l-0.2,0.1c-0.1,0-0.2,0.1-0.4,0.1l0,0l0,0l0,0l0,0
		c-0.3,0,0,0.2-0.3,0.1c-0.1-0.1-0.1,0.3-0.2,0.3l-0.2-0.2c-0.3-0.1-0.3,0.2-0.8,0.3c-0.2,0-0.4-0.2-0.3-0.5c-0.1,0.3,0,0.2-0.3,0.4
		c-0.1-0.1,0-0.1,0-0.2c-0.3-0.1-0.1,0.1-0.3,0.2c0,0.2,0,0.5,0,0.5l0.1,0c-0.2,0.1-0.3,0.2-0.6,0.2l0-0.1L50,62.3l0-0.1l-0.3,0.1
		l0.1,0c-0.1,0-0.3,0.1-0.5,0.1l0-0.1c-0.5-0.1-0.7,0.3-1.2,0.4l0-0.2c-0.2-0.1,0,0.2-0.2,0.2l-0.1-0.2c-0.1,0.3-0.2,0-0.4,0
		l0.1,0.2l-0.2,0c-0.3,0-0.2-0.2-0.2-0.4l-0.1,0.2L47,62.5c-0.1,0.3-0.1,0-0.3,0.2c0-0.1,0-0.1-0.1-0.1l-0.3,0.4l0.2-0.2l0.1,0.3
		c-0.2,0.3-0.3,0.1-0.4,0.2l0.1-0.1c-0.2,0.1-0.3,0-0.4,0c0.1,0,0.1,0.1,0.1,0.2c-0.1,0-0.1-0.1-0.1-0.1c0,0.2-0.1,0.3-0.3,0.3
		c0,0,0-0.1,0-0.1c0,0,0,0.1-0.1,0.1l0-0.2l-0.1,0.2c-0.1,0-0.2,0.2-0.2,0l0-0.1l-0.7,0.2l-0.1-0.2c0,0.2-0.4,0-0.3,0.3
		c-0.2-0.1-0.5,0.3-0.5-0.1c-0.5,0.1-0.6,0.5-1.2,0.5c-0.3-0.2-0.8,0-1.2,0.1c-0.7,0.3-1.1,0.6-1.7,0.9c-0.5-0.2-1,0.4-1.5,0.4
		l-0.1,0.2c-0.4-0.2-0.7,0.3-1.2,0.1c-0.1,0.1-0.1,0.1-0.2,0.1c0,0,0.1,0,0.1,0.1c-0.1,0-0.4,0.1-0.4-0.1l0,0c0-0.2-0.3,0.2-0.5,0
		l0.1,0.2l-0.2,0l0.1-0.1C34.6,67,34,66.4,33.2,67c0.1-0.3-0.2,0.2-0.2-0.1c-0.3-0.3-0.4,0.1-0.6,0.3c0,0,0,0,0,0l-0.3,0
		c0.2-0.3-0.2,0.3-0.1,0c-0.9-0.1-2.1,0.2-3.2,0.3l0.1,0.1c-0.3,0-0.6,0.2-0.8,0.1c-0.2-0.1-0.4,0.3-0.5,0.3
		c-0.2,0.2-0.5-0.1-0.4-0.1c-0.2,0.1-0.4,0.4-0.8,0.3c-0.2-0.3-0.9,0.4-0.9,0.1l0,0c-0.5-0.1-0.8,0.3-1.3,0.2c0,0,0,0,0,0l-0.8,1.1
		l0.5,1l0.9,0.7c0.7-0.2,1.4-0.4,2.1-0.5l1.8,0.1c1.4-0.2,2.8-0.4,4.3-0.6l0.3-0.3c0.9,0.3,2-0.4,2.9-0.4l0-0.2
		c0.3-0.1,0.3,0,0.3,0.1c2.4-0.6,4.7-1.7,6.8-2.1c0.2,0.1,0.8-0.2,1-0.1c0.6-0.4,1.3-0.7,2-0.8l0,0l0.3-0.1c0,0,0,0,0,0.1
		c0.3-0.3,0.9-0.3,1.4-0.3l0,0c2.5-0.7,4.8-1.7,7.4-2c1.2,0.1,2.5-0.7,3.9-0.6C59.5,63.4,62.3,62.7,62.5,62.6z"/>
	<path class="st0" d="M66.5,61.4L66.5,61.4C66.5,61.5,66.5,61.5,66.5,61.4z"/>
	<polygon class="st0" points="60.3,60.4 60.3,60.4 60.2,60.3 	"/>
	<path class="st0" d="M64,59.5c-0.2,0-0.2,0-0.1,0.1C63.9,59.6,63.9,59.6,64,59.5z"/>
	<path class="st0" d="M67.8,61C67.9,61,67.8,60.9,67.8,61c-0.1-0.1-0.2-0.1-0.2-0.1C67.7,60.9,67.8,61,67.8,61z"/>
	<path class="st0" d="M67.2,59.9L67.2,59.9C67.2,59.9,67.2,59.9,67.2,59.9z"/>
</g>
</svg>
