<?xml version="1.0" encoding="utf-8"?>
<!-- Generator: Adobe Illustrator 21.1.0, SVG Export Plug-In . SVG Version: 6.00 Build 0)  -->
<svg version="1.1" id="Layer_1" xmlns="http://www.w3.org/2000/svg" xmlns:xlink="http://www.w3.org/1999/xlink" x="0px" y="0px"
	 viewBox="0 0 350 300" style="enable-background:new 0 0 350 300;" xml:space="preserve">
<style type="text/css">
	.st0{fill:none;}
	.st1{fill:#622D50;}
</style>
<g>
	<path class="st0" d="M235.3,102.8c-1.8,0.9-3.1,2.5-3.7,4.4c-0.6,1.9-0.4,3.9,0.5,5.7c0.9,1.8,2.4,3.1,4.3,3.7
		c1.9,0.6,3.9,0.5,5.7-0.5l16-8.4c0,0,0,0,0.1,0l6.1-3.2c3.7-1.9,5.1-6.4,3.3-10c-1.3-2.6-3.9-4.1-6.7-4.1c-1.1,0-2.3,0.3-3.4,0.8
		L235.3,102.8z"/>
	<circle class="st0" cx="185.3" cy="121.4" r="3.9"/>
	<path class="st0" d="M185.3,71.9c18.9,0,35.9,10.1,45.1,26.5c0.6-0.5,1.3-0.9,2-1.3l6.3-3.3c-10.8-19.4-30.9-31.4-53.3-31.4
		c-24.3,0-46.3,14.3-56.1,36.5l-0.5-0.2c0.4,1.7,0.7,3.5,0.8,5.4c0.6,15.7-0.8,25.3-1.8,29.8c2,0.8,4.8,2.1,7.8,3.8
		c-1.3-4.6-2-9.3-2-14.1C133.5,95.1,156.7,71.9,185.3,71.9z"/>
	<path class="st0" d="M270.1,67c3.4-2.5,4-7.2,1.6-10.5c-2.5-3.3-7.1-4-10.4-1.5l-27.6,21.5c3.4,3.5,6.5,7.5,9.1,11.8L270.1,67z"/>
	<path class="st0" d="M185.3,169c25,0,45.3-20.3,45.3-45.3c0-0.7,0-1.4-0.1-2.1l1.2-0.1c-2.3-1.3-4.2-3.3-5.5-5.7
		c-1.7-3.3-2-7.1-0.8-10.6c0.3-0.9,0.7-1.7,1.1-2.5l-0.8,0.4c-7.8-15.3-23.3-24.8-40.4-24.8c-25,0-45.3,20.3-45.3,45.3
		c0,6.6,1.4,13,4.1,18.9l-1,0.5c4.6,3.9,9.1,9,11.9,15.9c0.4,0.9,0.6,1.8,0.9,2.7l1.6-2.1C165.5,165.8,175.1,169,185.3,169z
		 M168.2,159.9l-5.6-3.2l3-5.3l5.6,3.2L168.2,159.9z M188.5,163.6h-6.4v-6.1h6.4V163.6z M202.4,159.9l-3-5.3l5.6-3.2l3,5.3
		L202.4,159.9z M225,120.6v6.4h-6.1v-6.4H225z M218.1,101.2l3.2,5.6l-5.3,3l-3.2-5.6L218.1,101.2z M216.1,137.9l5.3,3l-3.2,5.6
		l-5.3-3L216.1,137.9z M202.4,87.8L208,91l-3,5.3l-5.6-3.2L202.4,87.8z M182.1,84.1h6.4v6.1h-6.4V84.1z M168.2,87.8l3,5.3l-5.6,3.2
		l-3-5.3L168.2,87.8z M176.3,116.5c1.8-3.2,5.1-5.4,9-5.4c5.7,0,10.3,4.6,10.3,10.3c0,1.4-0.3,2.8-0.8,4.1l14.1,16.3L204,146
		l-13.5-15.7c-1.5,0.9-3.3,1.4-5.2,1.4c-5.2,0-9.5-3.9-10.2-8.9l-17.4-3.1l1.1-6.3L176.3,116.5z M152.5,101.2l5.3,3l-3.3,5.6l-5.3-3
		L152.5,101.2z M145.5,127v-6.4h6.1v6.4H145.5z M152.5,146.5l-3.2-5.6l5.3-3l3.2,5.6L152.5,146.5z"/>
	<path class="st0" d="M235.6,135.9c-5.5,22.7-25.9,39.6-50.3,39.6c-10.2,0-19.7-3-28.1-8.5c0.6,3.6,0.8,7.4,0.4,11.3
		c8.5,4.3,18,6.7,27.7,6.7c22.3,0,42.6-12.1,53.5-31.5c-0.5-2.3-0.4-4.7,0.3-7c0.6-1.8,1.6-3.5,2.8-4.9
		C239.2,140.4,237,138.4,235.6,135.9z"/>
	<path class="st0" d="M257.4,140.6c-1.1,0-2.3,0.3-3.4,0.8l-5.1,2.6c-1.8,0.9-3.1,2.4-3.7,4.3c-0.6,1.9-0.4,3.9,0.5,5.7
		c0.9,1.8,2.4,3.1,4.3,3.7c1.9,0.6,3.9,0.4,5.7-0.5l5.1-2.6c3.7-1.9,5.1-6.4,3.3-10C262.8,142.1,260.1,140.6,257.4,140.6z"/>
	<path class="st0" d="M264.4,112.6c-1.1,0-2.3,0.3-3.3,0.8l-16,8.4l0,0l-0.8,0.4c-1.8,0.9-3.1,2.5-3.7,4.4c-0.6,1.9-0.4,3.9,0.5,5.7
		c0.9,1.8,2.4,3.1,4.3,3.7c1.9,0.6,3.9,0.5,5.7-0.5l16.8-8.9c3.7-1.9,5.1-6.4,3.3-10C269.7,114.1,267.1,112.6,264.4,112.6z"/>
	<rect x="219" y="120.6" class="st1" width="6.1" height="6.4"/>
	<rect x="145.5" y="120.6" class="st1" width="6.1" height="6.4"/>
	<rect x="182.1" y="84.1" class="st1" width="6.4" height="6.1"/>
	<rect x="182.1" y="157.5" class="st1" width="6.4" height="6.1"/>
	
		<rect x="163.7" y="89.1" transform="matrix(0.8662 -0.4997 0.4997 0.8662 -23.6973 95.7393)" class="st1" width="6.4" height="6.1"/>
	
		<rect x="200.4" y="152.7" transform="matrix(0.866 -0.5001 0.5001 0.866 -50.5785 122.7101)" class="st1" width="6.4" height="6.1"/>
	
		<rect x="150.3" y="102.5" transform="matrix(0.5004 -0.8658 0.8658 0.5004 -14.6534 185.6087)" class="st1" width="6.4" height="6.1"/>
	
		<rect x="213.9" y="139.1" transform="matrix(0.5003 -0.8659 0.8659 0.5003 -14.6264 259.0238)" class="st1" width="6.4" height="6.1"/>
	
		<rect x="150.5" y="138.9" transform="matrix(0.866 -0.5001 0.5001 0.866 -50.5017 95.8254)" class="st1" width="6.1" height="6.4"/>
	
		<rect x="214" y="102.3" transform="matrix(0.8658 -0.5004 0.5004 0.8658 -23.6471 122.7567)" class="st1" width="6.1" height="6.4"/>
	
		<rect x="163.9" y="152.4" transform="matrix(0.4999 -0.8661 0.8661 0.4999 -51.303 222.4361)" class="st1" width="6.1" height="6.4"/>
	
		<rect x="200.6" y="88.9" transform="matrix(0.5004 -0.8658 0.8658 0.5004 22.0327 222.303)" class="st1" width="6.1" height="6.4"/>
	<path class="st1" d="M175.1,122.8c0.7,5,5,8.9,10.2,8.9c1.9,0,3.6-0.5,5.2-1.4l13.6,15.7l4.9-4.2l-14.2-16.3
		c0.5-1.2,0.8-2.6,0.8-4.1c0-5.7-4.6-10.3-10.3-10.3c-3.9,0-7.3,2.2-9,5.4l-17.4-3.1l-1.1,6.3L175.1,122.8z M185.3,117.5
		c2.2,0,3.9,1.8,3.9,3.9s-1.8,3.9-3.9,3.9c-2.2,0-3.9-1.8-3.9-3.9S183.1,117.5,185.3,117.5z"/>
	<path class="st0" d="M185.3,71.9c18.9,0,35.9,10.1,45.1,26.5c0.6-0.5,1.3-0.9,2-1.3l6.3-3.3c-10.8-19.4-30.9-31.4-53.3-31.4
		c-24.3,0-46.3,14.3-56.1,36.5l-0.5-0.2c0.4,1.7,0.7,3.5,0.8,5.4c0.6,15.7-0.8,25.3-1.8,29.8c2,0.8,4.8,2.1,7.8,3.8
		c-1.3-4.6-2-9.3-2-14.1C133.5,95.1,156.7,71.9,185.3,71.9z"/>
	<path class="st0" d="M185.3,169c25,0,45.3-20.3,45.3-45.3c0-0.7,0-1.4-0.1-2.1l1.2-0.1c-2.3-1.3-4.2-3.3-5.5-5.7
		c-1.7-3.3-2-7.1-0.8-10.6c0.3-0.9,0.7-1.7,1.1-2.5l-0.8,0.4c-7.8-15.3-23.3-24.8-40.4-24.8c-25,0-45.3,20.3-45.3,45.3
		c0,6.6,1.4,13,4.1,18.9l-1,0.5c4.6,3.9,9.1,9,11.9,15.9c0.4,0.9,0.6,1.8,0.9,2.7l1.6-2.1C165.5,165.8,175.1,169,185.3,169z"/>
	<path class="st0" d="M235.3,102.8c-1.8,0.9-3.1,2.5-3.7,4.4c-0.6,1.9-0.4,3.9,0.5,5.7c0.9,1.8,2.4,3.1,4.3,3.7
		c1.9,0.6,3.9,0.5,5.7-0.5l16-8.4c0,0,0,0,0.1,0l6.1-3.2c3.7-1.9,5.1-6.4,3.3-10c-1.3-2.6-3.9-4.1-6.7-4.1c-1.1,0-2.3,0.3-3.4,0.8
		L235.3,102.8z"/>
	<path class="st0" d="M270.1,67c3.4-2.5,4-7.2,1.6-10.5c-2.5-3.3-7.1-4-10.4-1.5l-27.6,21.5c3.4,3.5,6.5,7.5,9.1,11.8L270.1,67z"/>
	<path class="st0" d="M257.4,140.6c-1.1,0-2.3,0.3-3.4,0.8l-5.1,2.6c-1.8,0.9-3.1,2.4-3.7,4.3c-0.6,1.9-0.4,3.9,0.5,5.7
		c0.9,1.8,2.4,3.1,4.3,3.7c1.9,0.6,3.9,0.4,5.7-0.5l5.1-2.6c3.7-1.9,5.1-6.4,3.3-10C262.8,142.1,260.1,140.6,257.4,140.6z"/>
	<path class="st0" d="M235.6,135.9c-5.5,22.7-25.9,39.6-50.3,39.6c-10.2,0-19.7-3-28.1-8.5c0.6,3.6,0.8,7.4,0.4,11.3
		c8.5,4.3,18,6.7,27.7,6.7c22.3,0,42.6-12.1,53.5-31.5c-0.5-2.3-0.4-4.7,0.3-7c0.6-1.8,1.6-3.5,2.8-4.9
		C239.2,140.4,237,138.4,235.6,135.9z"/>
	<path class="st0" d="M264.4,112.6c-1.1,0-2.3,0.3-3.3,0.8l-16,8.4l0,0l-0.8,0.4c-1.8,0.9-3.1,2.5-3.7,4.4c-0.6,1.9-0.4,3.9,0.5,5.7
		c0.9,1.8,2.4,3.1,4.3,3.7c1.9,0.6,3.9,0.5,5.7-0.5l16.8-8.9c3.7-1.9,5.1-6.4,3.3-10C269.7,114.1,267.1,112.6,264.4,112.6z"/>
	<path class="st1" d="M270.5,107.6c4.2-4.1,5.5-10.6,2.7-16.2c-2.8-5.5-8.9-8.3-14.8-7.3L273.9,72c6.1-4.6,7.4-13.3,2.9-19.4
		c-4.6-6.1-13.3-7.4-19.5-2.8l-28.4,22.1c-11.2-9.5-25.3-15-40.5-15.7V45.9h9.7v-6.4h-25.8v6.4h9.7V56c-15.2,0.7-29.3,6.5-40.6,16
		l-2.8-3.4l4-3.3l-4.1-4.9l-12.9,10.8l4.1,4.9l4-3.3l3,3.6c-4.4,4.5-8.1,9.6-11.2,15.2c-1-1.5-2.1-2.8-3.5-4
		c-8.7-7.5-22.1-6.1-22.6-6.1l-2.9,0.3l0.1,60.8c-5.8,31.6,7.5,50.9,12.9,57.2l-39,46.9h8.4l39.3-47.3l-2.2-2.1
		c-0.8-0.8-19.4-18.9-13-54.2V87.8c3.8,0,10.4,0.7,15,4.7c3.2,2.8,4.9,6.6,5.1,11.8c0.8,21.2-2.2,30.5-2.2,30.6l-1.1,3.2l3.3,0.9
		c0.2,0.1,19.3,5.8,26.1,22.3c4.8,11.8,2.4,26.5-7.2,43.5l5.6,3.2c4.6-8.2,7.6-16,9.2-23.3c8.9,4.2,18.7,6.5,28.7,6.5
		c23.2,0,44.5-11.9,56.9-31.3c1.6,1.7,3.6,3.1,5.9,3.8c1.4,0.5,2.9,0.7,4.3,0.7c0.4,0,0.8-0.1,1.2-0.1
		c-10.4,12.8-28.3,34.6-39.4,46.7c-15.1,16.5-39.6,11.1-39.8,11.1l-1.9-0.4l-46.2,55.6h8.4l40-48.4c6.8,1.1,28.9,3.2,44-13.4
		c16.5-18.1,47.6-56.8,47.9-57.2l0,0c4.5-4.1,6-10.9,3.1-16.6c-1.3-2.6-3.3-4.6-5.7-5.9l6.6-3.5c6.8-3.5,9.5-11.9,6-18.7
		C275.3,110.9,273.1,108.9,270.5,107.6z M260.8,90.3c2.7,0,5.3,1.5,6.7,4.1c1.9,3.7,0.4,8.2-3.3,10l-6.1,3.2c0,0,0,0-0.1,0l-16,8.4
		c-1.8,0.9-3.8,1.1-5.7,0.5s-3.4-1.9-4.3-3.7c-0.9-1.8-1.1-3.8-0.5-5.7c0.6-1.9,1.9-3.4,3.7-4.4L257.3,91
		C258.5,90.6,259.7,90.3,260.8,90.3z M261.3,54.9c3.3-2.5,8-1.8,10.4,1.5c2.5,3.3,1.8,8-1.6,10.5l-27.3,21.2
		c-2.6-4.3-5.7-8.3-9.1-11.8L261.3,54.9z M127.7,133.9c1-4.5,2.4-14.1,1.8-29.8c-0.1-1.9-0.4-3.7-0.8-5.4l0.5,0.2
		c9.8-22.2,31.8-36.5,56.1-36.5c22.4,0,42.5,12,53.3,31.4l-6.3,3.3c-0.7,0.4-1.4,0.8-2,1.3c-9.2-16.4-26.2-26.5-45.1-26.5
		c-28.5,0-51.7,23.2-51.7,51.7c0,4.8,0.7,9.5,2,14.1C132.4,136,129.6,134.8,127.7,133.9z M155.8,161.6c-0.3-0.9-0.5-1.8-0.9-2.7
		c-2.8-6.8-7.3-12-11.9-15.9l1-0.5c-2.7-5.9-4.1-12.3-4.1-18.9c0-25,20.3-45.3,45.3-45.3c17.2,0,32.6,9.5,40.4,24.8l0.8-0.4
		c-0.4,0.8-0.8,1.6-1.1,2.5c-1.1,3.5-0.8,7.3,0.8,10.6c1.2,2.4,3.2,4.4,5.5,5.7l-1.2,0.1c0,0.7,0.1,1.4,0.1,2.1
		c0,25-20.3,45.3-45.3,45.3c-10.2,0-19.8-3.3-27.8-9.5L155.8,161.6z M239.1,146.4c-0.7,2.3-0.8,4.7-0.3,7
		c-10.8,19.4-31.2,31.5-53.5,31.5c-9.6,0-19.2-2.4-27.7-6.7c0.3-3.9,0.2-7.7-0.4-11.3c8.4,5.5,18,8.5,28.1,8.5
		c24.4,0,44.8-16.9,50.3-39.6c1.5,2.5,3.7,4.5,6.3,5.7C240.6,142.9,239.7,144.6,239.1,146.4z M260.8,154.8l-5.1,2.6
		c-1.8,0.9-3.8,1.1-5.7,0.5s-3.4-1.9-4.3-3.7c-0.9-1.8-1.1-3.8-0.5-5.7c0.6-1.9,1.9-3.4,3.7-4.3l5.1-2.6c1.1-0.6,2.2-0.8,3.4-0.8
		c2.7,0,5.3,1.5,6.7,4.1C265.9,148.4,264.5,152.9,260.8,154.8z M267.8,126.7l-16.8,8.8c-1.8,0.9-3.8,1.1-5.7,0.5
		c-1.9-0.6-3.4-1.9-4.3-3.7c-0.9-1.8-1.1-3.8-0.5-5.7c0.6-1.9,1.9-3.4,3.7-4.4l0.8-0.4l0,0l16-8.4c1.1-0.5,2.2-0.8,3.3-0.8
		c2.7,0,5.3,1.5,6.7,4.1C272.9,120.3,271.4,124.8,267.8,126.7z"/>
</g>
</svg>
