<?xml version="1.0" encoding="utf-8"?>
<!-- Generator: Adobe Illustrator 21.1.0, SVG Export Plug-In . SVG Version: 6.00 Build 0)  -->
<svg version="1.1" id="Layer_1" xmlns="http://www.w3.org/2000/svg" xmlns:xlink="http://www.w3.org/1999/xlink" x="0px" y="0px"
	 viewBox="0 0 100 110.8" style="enable-background:new 0 0 100 110.8;" xml:space="preserve">
<style type="text/css">
	.st0{fill:#A65A95;}
	.st1{fill:#A4D55D;}
</style>
<g>
	<path class="st0" d="M100,43.2l-2.2-0.4l-1.5-0.3c-0.4-0.1-0.9-0.2-1.5-0.2l-1-0.2l0,0.1c-1.3-0.1-2.8-0.2-4.5-0.4l-4.9-0.3
		c-1.4-0.1-2.7-0.2-3.8-0.3c0,0,0,0,0,0c0-0.2,0-0.4-0.1-0.7l-0.1-1.3c0-0.4-0.1-0.8-0.1-1.3c-0.1-0.9-0.1-1.7,0-2.4l0,0
		c0.3-2.9-0.8-10.2-0.9-10.5l-0.5-1.6l-0.3-11.4L77.4,0L46.7,9.6L45,10.6c-1.3,0.2-2.7,0.6-4.3,1l-0.2,0.1c-0.7,0.2-1.4,0.4-2.2,0.7
		c-0.8,0.3-1.7,0.6-2.6,0.9c-3.3,1.3-6.4,2.8-9.6,4.4l-1.7,0.9l0.1,0.3c-0.1,0-0.1,0.1-0.2,0.1l-0.3,0.2c-1.8,1.2-3.5,2.5-5.4,4.1
		c-1.8,1.6-3.4,3.2-4.8,4.8c-3,3.4-5.5,7.2-7.4,11.2c-1.9,4-3.3,8.2-4.2,12.4L2,52.6l-0.5,3.2l-0.6,7.8c-0.1,0.8-0.2,1.9-0.3,3.6
		l0,0.2c0,0.9-0.1,2.3-0.2,2.7l-0.1,0.4l0,0.4c0.3,4.6-0.3,23.1-0.3,23.3l0,0.1c0,0.6,0,1.8,0,2.9c0,1.2,0,2.4,0,3
		c0,0.9,0,1.8,0.1,2.6c0,0.8,0.1,1.6,0.1,2.4l0,1.3l1,0.8l1.6,1.2c0.3,0.2,0.5,0.4,0.6,0.4l0.1,0.1c0.3,0.2,1.8,1.1,2.2,1.4l0.4,0.2
		l1.2,0.3c0.4,0.1,0.7,0.1,0.9,0.1l2.4,0c0.9,0,6.1,0,7.8-0.1c3.3,0,24.2-0.4,26-0.4l2.6-0.1c0.4,0,0.8,0,1.2-0.1l0.2,0
		c0.4,0,0.7,0,1.1-0.1l0.4,0c4.8-0.3,9.8-1.8,14.7-4.3c4.2-2.2,8.3-5.2,12.3-9l-0.3,1.1l0.8-1.6c0.8-0.7,2-2,3.2-3.5
		c1.6-2,3.2-4.6,4.5-7c1.6-3.2,2.7-6.1,3.1-7.6c0.3-1.1,0.6-1.9,0.8-2.6l0-0.1c0.3-1,0.4-1.3,0.4-1.5l0.9-4.1
		c0.1-0.2,0.2-0.4,0.2-0.6c0.3-0.5,0.5-1.1,0.7-1.7c0.1-0.2,0.2-0.4,0.2-0.6l0.4-0.4l0.1-0.9c0.2-1.8,0.8-3.7,1.4-5.4l0.2-0.9
		c0.1-0.2,0.2-0.5,0.3-0.9c0.3-0.8,0.8-2.1,1.1-2.8l0.1-0.1c0,0,0.4-1,0.6-1.6l1.7-5.5c0.1-0.2,0.2-0.5,0.3-0.8
		c0.2-0.5,0.4-1,0.5-1.5L100,43.2z"/>
	<g>
		<path class="st1" d="M17.3,62.7c0.8-0.2,1.4-0.2,1.8-0.2c0.5,0.1,0.8,0.2,1.1,0.5c0.3,0.2,0.4,0.6,0.5,0.9
			c0.1,0.4,0.2,0.8,0.3,1.2l0.1,0.3c0.1,0.3,0.1,0.7,0.1,1.2s0.1,1.1,0.1,1.8c0,0.7,0,1.3,0.1,2c0,0.7,0,1.4,0,2v0.7
			c0,0.2,0,0.4,0,0.6c0,0.2,0,0.4,0,0.6c0,0.5,0,1,0.1,1.6c0,0.6,0,1.2,0,1.7v4c0,0.8,0,1.7-0.1,2.6c0,0.9-0.1,1.8-0.2,2.6
			c-0.1,0.9-0.3,1.7-0.5,2.4c-0.2,0.8-0.5,1.5-0.8,2c-0.2,0.4-0.4,0.6-0.7,0.9c-0.3,0.2-0.6,0.4-1,0.5c-0.4,0.1-0.9,0.1-1.3,0.1
			c-0.6,0-1.1-0.1-1.5-0.3c-0.4-0.2-0.7-0.5-1.1-0.9c-0.5-0.6-0.9-1.3-1-2.1C13.1,88.9,13,88,13,87.1c0-0.1,0-0.3,0-0.4
			c0-0.1,0-0.2,0-0.4c-0.1-1.6-0.2-3.1-0.3-4.7c0-1.6-0.1-3.2-0.1-4.8c0-0.7,0-1.3,0-2c0-0.7,0-1.4,0-2c0-1.5,0.1-2.7,0.3-3.9
			c0.2-1.1,0.5-2.3,1-3.6c0.2-0.5,0.4-0.8,0.6-1.1c0.3-0.3,0.5-0.5,0.8-0.7c0.3-0.2,0.6-0.4,0.9-0.5C16.7,62.9,17,62.8,17.3,62.7z
			 M18.9,66.8c0-0.3-0.1-0.7-0.2-1.2c-0.1-0.5-0.3-0.7-0.7-0.8c-0.5-0.1-0.8-0.1-1.1-0.1c-0.4,0.1-0.6,0.3-0.8,0.7
			c-0.1,0.4-0.3,0.7-0.4,1.1c-0.1,0.6-0.2,1.1-0.3,1.6c-0.1,0.5-0.1,1-0.2,1.5l-0.1,1.2c0,0.2,0,0.4,0,0.7c0,0.3,0,0.6,0,0.9v4.2
			c0,0.3,0,0.8,0,1.3c0,0.6,0,1.2,0.1,1.9c0,0.7,0.1,1.4,0.1,2.2c0,0.8,0.1,1.5,0.1,2.1l0.2,2.5c0.1,0.6,0.1,1.3,0.3,1.9
			c0.1,0.6,0.3,1.1,0.6,1.5c0.1,0.1,0.2,0.1,0.4,0.2c0.2,0,0.4,0,0.5,0c0.2,0,0.4-0.1,0.5-0.2c0.2-0.1,0.3-0.2,0.3-0.4
			c0.3-0.8,0.5-1.5,0.6-2.2c0.1-0.7,0.1-1.4,0.1-2.1v-1c0-0.8,0-1.6,0-2.4c0-0.8,0-1.6,0-2.4c0-0.6,0-1.1,0-1.7s0-1.2,0-1.7
			c0-0.9,0-1.7,0-2.4c0-0.8,0-1.5,0-2.2c0-0.8,0-1.6,0-2.3C19,68.4,19,67.7,18.9,66.8L18.9,66.8z"/>
		<path class="st1" d="M24,71.1c0-0.3,0-0.6,0-0.9c0-0.1,0.1-0.3,0.4-0.5c0.2-0.2,0.5-0.3,0.8-0.4c0.5-0.1,0.9-0.1,1.2,0.1
			c0.3-0.4,0.7-0.7,1.1-0.9c0.4-0.3,0.9-0.5,1.3-0.6c0.5-0.1,1-0.1,1.4,0c0.4,0.1,0.8,0.4,1.1,0.7c0.3,0.4,0.5,0.8,0.5,1.2
			c0,0.6-0.4,1.1-1.1,1.6l0,0c-0.2,0.2-0.4,0.2-0.6,0.1c-0.1-0.1-0.3-0.2-0.4-0.4c-0.1,0-0.1-0.1-0.1-0.2s0-0.1,0,0
			c-0.5-0.6-0.9-0.8-1.5-0.6c-0.5,0.1-0.9,0.4-1.2,0.9c-0.3,0.5-0.5,0.9-0.5,1.3v14.5c0,0.3,0,0.6,0,1c0,0.4,0,0.8,0,1.2
			c0,0.4-0.1,0.8-0.1,1.1c-0.1,0.3-0.2,0.5-0.3,0.5c-0.3,0.1-0.6,0.2-1,0.3s-0.7,0.1-0.8-0.1c-0.1-0.1-0.1-0.4-0.1-0.8
			c0-0.4,0-0.7,0-1v-0.4v-5.2c0-0.9,0-1.8-0.1-2.6c0-0.9,0-1.7,0-2.6c0-0.4,0-0.9,0-1.3c0-0.5,0-1,0-1.5v-3.6
			C24,71.7,24,71.4,24,71.1z"/>
		<path class="st1" d="M38.6,93.1c0.1-0.5,0.2-1.2,0.2-1.9c0.1-0.8,0.1-1.6,0.1-2.4c0-0.4,0-0.8,0-1.1s0-0.7,0-1.1
			c-0.4,0.4-0.8,0.7-1.2,1c-0.4,0.2-0.8,0.4-1.2,0.5c-0.8,0.2-1.5,0.1-2-0.4c-0.6-0.4-0.9-1-1-1.8c-0.1-0.7-0.2-1.5-0.2-2.5
			c0-1-0.1-2-0.1-3.1c0-0.5,0-0.9,0-1.4s0-0.9,0-1.3v-2.4c0-0.8,0-1.7,0-2.7c0-0.9,0.2-1.8,0.4-2.7c0.2-0.8,0.6-1.6,1.1-2.2
			c0.5-0.6,1.2-1.1,2.2-1.3c0.6-0.1,1.2-0.2,1.9-0.1c0-0.1,0.1-0.3,0.2-0.5c0.1-0.2,0.4-0.3,0.8-0.3c0.1,0,0.2,0,0.3,0
			c0.1,0,0.2-0.1,0.2-0.1c0.3-0.1,0.5-0.1,0.7,0.1c0.2,0.2,0.2,0.8,0.2,1.8c0,0.4,0,0.8,0,1.3c0,0.4,0,0.9,0,1.3v2
			c0,1.3,0,2.4,0,3.4c0,1,0,2.1,0,3.2v9c0,1.2,0,2.3-0.1,3.4c0,1.1-0.2,2.1-0.3,3.2c-0.1,0.4-0.2,0.8-0.4,1.2
			c-0.2,0.4-0.5,0.9-0.8,1.3c-0.3,0.4-0.7,0.8-1.1,1.2c-0.4,0.4-0.9,0.7-1.3,0.9c-0.4,0.2-0.8,0.2-1.1,0.1c-0.3-0.1-0.4-0.4-0.5-0.8
			c-0.1-0.3,0-0.6,0.1-0.8c0.1-0.2,0.4-0.5,0.9-0.8c0.8-0.5,1.3-0.9,1.5-1.4c0.2-0.4,0.4-0.9,0.5-1.4C38.5,93.3,38.5,93.2,38.6,93.1
			L38.6,93.1z M38.8,72.7c0-0.6,0-1.1,0-1.7c0-0.6,0-1.2-0.1-2c0-0.4-0.1-0.6-0.3-0.7c-0.2-0.1-0.4-0.1-0.7-0.1
			c-0.4,0.1-0.8,0.3-1.1,0.7c-0.4,0.3-0.6,0.7-0.6,1c0,0.4,0,0.8,0,1.2c0,0.4,0,0.9,0,1.3c0,0.5,0,0.9-0.1,1.3c0,0.4,0,0.8,0,1.2
			c0,0.6,0,1.1,0,1.5c0,0.5,0,0.9,0,1.4c0,0.5,0,0.9,0,1.4c0,0.4,0,0.9,0,1.4c0,0.5,0,1,0,1.5c0,0.5,0,1,0.1,1.6
			c0,0.2,0,0.4,0.1,0.6c0,0.3,0.1,0.5,0.2,0.7c0.1,0.2,0.2,0.4,0.3,0.6c0.1,0.1,0.3,0.2,0.5,0.1c0.5-0.2,0.9-0.6,1.1-1.1
			c0.3-0.5,0.4-1.2,0.5-1.8c0.1-0.7,0.2-1.3,0.2-2c0-0.7,0-1.3,0-1.7V72.7z"/>
		<path class="st1" d="M45.8,65.2c0.4-0.6,0.8-1,1.1-1.3c0.4-0.3,0.8-0.4,1.2-0.5c0.2-0.1,0.5-0.1,0.8-0.1c0.3,0,0.5,0.1,0.6,0.3
			c0.1-0.4,0.3-0.7,0.8-0.8c0.1,0,0.2,0,0.3,0c0.1,0,0.3,0.1,0.5,0.2c0.2,0.1,0.3,0.1,0.5,0.2c0.1,0.1,0.2,0.1,0.3,0.1
			c0.1,0.1,0.1,0.3,0.2,0.4c0.1,0.2,0.1,0.4,0.1,0.6c0,0.2,0,0.5,0,0.7c0,0.3-0.1,0.5-0.1,0.7c0,0.2,0,0.3,0,0.4s0,0.2,0,0.4
			c0,0.7,0,1.4,0,2c0,0.6,0,1.3,0,1.9c0,0.6,0,1.3,0.1,1.9c0,0.6,0,1.3,0,2c0,0.3,0,0.7,0,1c0,0.3,0,0.7,0,1V78c0,0.4,0,0.9,0,1.3
			c0,0.4,0,0.8,0.1,1.3c0,0.1,0,0.1,0,0.2c0,0.1,0,0.2,0.1,0.3c0.1,0.3,0.1,0.7,0.2,1.1c0.1,0.4,0.1,0.8,0.1,1.1
			c0,0.5-0.1,0.8-0.3,1c-0.2,0.2-0.5,0.3-0.9,0.4c-1,0.3-1.5,0.1-1.5-0.5c-0.4,0.3-0.7,0.6-1.2,0.9c-0.4,0.3-0.8,0.5-1.1,0.5
			c-0.9,0.2-1.6,0-2.1-0.6c-0.5-0.6-0.9-1.4-1.2-2.5c-0.3-1-0.4-2.1-0.5-3.4c-0.1-1.2-0.1-2.3-0.1-3.3v-0.4c0-0.9,0-1.7,0-2.6
			c0-0.9,0.1-1.8,0.2-2.7c0.1-0.9,0.3-1.8,0.6-2.7C44.9,66.8,45.3,66,45.8,65.2z M49.4,78.6c0-0.6,0-1.3,0-2.1
			c0-0.7,0.1-1.5,0.1-2.2c0-0.7,0.1-1.4,0.1-2.1c0-0.7,0-1.4,0-2c0-0.2,0-0.7,0-1.2c0-0.6-0.1-1.1-0.1-1.7c-0.1-0.6-0.2-1.1-0.4-1.5
			c-0.2-0.4-0.4-0.6-0.6-0.5c-0.2,0-0.4,0.2-0.7,0.5c-0.3,0.3-0.5,0.6-0.7,1c-0.3,0.7-0.5,1.4-0.6,2.1c-0.1,0.7-0.2,1.4-0.2,2.1v7
			c0,0.4,0,0.9,0.1,1.6c0.1,0.6,0.2,1.3,0.3,1.9c0.1,0.6,0.3,1.1,0.6,1.5c0.2,0.4,0.5,0.7,0.9,0.7c0.2,0,0.4,0,0.4,0
			c0.3-0.1,0.6-0.2,0.7-0.5c0.2-0.2,0.2-0.5,0.2-0.8c0-0.2,0-0.4,0-0.8c0-0.4,0-0.8-0.1-1.2c0-0.3,0-0.6,0-0.9
			C49.4,78.9,49.4,78.7,49.4,78.6z"/>
		<path class="st1" d="M55.2,69.5c0-1.2,0-2.4-0.1-3.4c0-1-0.1-2.2-0.3-3.4c0-0.2,0.1-0.3,0.3-0.5c0.2-0.2,0.4-0.3,0.6-0.4
			c0.2-0.1,0.4-0.2,0.6-0.3c0.2-0.1,0.3-0.1,0.4-0.1c0.2,0.1,0.4,0.3,0.4,0.6c0.1,0.3,0.1,0.7,0,1c0.4-0.7,0.9-1.4,1.5-1.9
			c0.6-0.6,1.3-0.9,2-0.9c0.8,0,1.3,0.4,1.6,1c0.3,0.6,0.5,1.4,0.5,2.4c0,1.2,0,2.3,0,3.4c0,1.1,0,2.3,0,3.4c0,1.2,0,2.3,0.1,3.5
			c0,1.1,0,2.3,0,3.6v1.7c0,0.5,0,0.9,0,1.2c0,0.3-0.1,0.6-0.2,0.9c-0.1,0.2-0.3,0.4-0.5,0.6c-0.2,0.1-0.6,0.3-1.1,0.4
			c-0.2,0-0.3,0-0.4-0.2c-0.1-0.2-0.2-0.5-0.2-0.8c0-0.3-0.1-0.7-0.1-1.1c0-0.4,0-0.8,0-1.1v-0.9c0-0.9,0-2,0-3.3c0-1.3,0-2.6,0-3.9
			c0-1.4,0-2.7-0.1-3.9c0-1.3,0-2.4,0-3.2c0-0.6-0.2-0.9-0.6-0.8c-0.2,0.1-0.5,0.2-0.7,0.4c-0.3,0.2-0.5,0.5-0.7,0.8
			c-0.2,0.3-0.4,0.7-0.5,1.1c-0.1,0.4-0.2,0.9-0.2,1.3v13.3v0.8c0.1,0.5,0.1,1,0,1.5c0,0.5-0.2,0.9-0.5,1.1
			c-0.2,0.1-0.6,0.3-0.9,0.3c-0.4,0.1-0.6,0-0.8-0.2c-0.1-0.1-0.2-0.4-0.2-0.8s0-0.9,0-1.5c0-0.5,0-0.9,0-1.3c0-0.4,0-0.8,0-1.3
			c0-0.4,0-0.8,0-1.2c0-0.4,0-0.8,0-1.2c0-0.5,0-0.9,0-1.4c0-0.5,0-1,0-1.4V69.5z"/>
		<path class="st1" d="M65.7,64.2c0-0.5,0-0.9,0-1.4c0-0.5,0-0.9,0-1.4c0-0.3,0-0.6,0-0.9c0-0.3,0-0.6,0-1c0-0.1,0.1-0.2,0.3-0.3
			c0.2-0.1,0.4-0.2,0.6-0.3c0.2-0.1,0.5-0.2,0.7-0.2c0.2-0.1,0.4-0.1,0.4-0.1c0.3,0.1,0.5,0.4,0.5,0.8c0.1,0.4,0.1,0.7,0,1
			c0,0.1,0,0.1,0,0.3c0,0.1,0,0.2,0,0.3c0,0.4,0,0.8,0,1.4c0,0.5,0,1.1,0,1.7s0,1.1,0,1.7c0,0.5,0,1,0,1.3c0,0.4,0,0.8,0,1.2
			c0,0.4,0,0.8,0,1.1c0,0.5,0,0.9,0,1.3c0,0.4,0,0.8,0,1.3c0,0.4,0,0.9,0,1.4c0,0.5,0,1,0,1.5v1.3c0,0.3,0,0.5,0,0.8
			c0,0.3,0,0.5,0,0.8c0,0.8,0,1.4-0.1,2c-0.1,0.6-0.1,0.9-0.3,1c-0.1,0.1-0.5,0.2-1.1,0.3c-0.4,0.1-0.7,0.1-0.8,0
			c-0.1,0-0.2-0.3-0.3-0.7c-0.1-0.4-0.1-0.8-0.2-1.2c0-0.5,0-0.9,0-1.4c0-0.3,0-0.6,0-0.8c0-0.3,0-0.6,0-0.9c0-0.3,0-0.5,0-0.8
			c0-0.3,0-0.5,0-0.7c0-0.7,0-1.4,0-2.1c0-0.7,0-1.4,0-2.2V64.2z M65.9,56.7c-0.1-0.5-0.1-0.8-0.1-1c0-0.2,0-0.4,0-0.6
			c0-0.1,0-0.2,0-0.3c0-0.1,0-0.2,0-0.3c0-0.1,0.1-0.3,0.2-0.4c0.1-0.1,0.3-0.2,0.5-0.3c0.2-0.1,0.4-0.2,0.5-0.2
			c0.2-0.1,0.3-0.1,0.4-0.1c0,0,0.1,0,0.1,0c0,0,0.1,0,0.1,0c0.3,0,0.4,0,0.5,0.1c0,0,0.1,0.2,0.1,0.5v0.2c0,0.3,0,0.7,0,1.2
			c0,0.5-0.2,1-0.5,1.5c-0.1,0.2-0.3,0.3-0.5,0.4c-0.2,0.1-0.4,0.1-0.7,0.1c-0.2,0-0.4,0-0.5-0.1C66.1,57.2,66,57,65.9,56.7z"/>
		<path class="st1" d="M78.7,61.2c0,0.2-0.1,0.3-0.2,0.4c-0.1,0.1-0.3,0.1-0.5,0.2l-0.4,0.1c-0.6,0.1-1,0.2-1.2,0.2
			c-0.2,0-0.3-0.2-0.3-0.6v-1.5c0-0.2-0.1-0.4-0.2-0.6c-0.1-0.2-0.4-0.2-0.7-0.2c-0.3,0.1-0.6,0.3-0.8,0.8c-0.2,0.4-0.4,0.9-0.5,1.5
			c-0.1,0.5-0.2,1.1-0.3,1.6c-0.1,0.5-0.1,0.9-0.1,1.1c0,0.4,0,0.7,0,1.2c0,0.4,0,0.8-0.1,1.3c0,0.5,0,1-0.1,1.6c0,0.6,0,1.2,0,1.7
			c0,0.9,0,1.8,0.1,2.6c0.1,0.8,0.2,1.6,0.3,2.2c0.1,0.6,0.4,1.1,0.6,1.5c0.3,0.4,0.6,0.5,1.1,0.4c0.4-0.1,0.6-0.3,0.7-0.5
			c0.1-0.2,0.1-0.5,0.1-0.8c0-0.4,0-0.7,0.1-1c0.1-0.3,0.4-0.5,1-0.7c0.4-0.1,0.7-0.2,0.9-0.2c0.2,0,0.4,0,0.4,0
			c0.1,0,0.1,0.1,0.2,0.3c0,0.1,0,0.3,0,0.6c0,0.8-0.1,1.5-0.3,2.1c-0.2,0.6-0.5,1-0.9,1.4s-0.7,0.7-1.2,0.9
			c-0.4,0.2-0.8,0.4-1.1,0.4c-0.5,0.1-1,0.1-1.5,0.1c-0.5-0.1-0.9-0.2-1.3-0.5c-0.4-0.2-0.7-0.6-0.9-1c-0.2-0.4-0.4-0.9-0.4-1.4
			c-0.2-1.7-0.3-3.4-0.3-5.4c-0.1-1.9-0.1-3.7-0.1-5.3c0-0.7,0-1.5,0.1-2.5c0.1-0.9,0.3-1.8,0.6-2.7c0.3-0.9,0.7-1.6,1.3-2.3
			c0.6-0.7,1.3-1.2,2.3-1.4c0.6-0.2,1.2-0.2,1.7,0c0.5,0.1,0.8,0.4,1.1,0.7c0.3,0.3,0.5,0.8,0.6,1.2c0.1,0.5,0.2,1,0.2,1.5v0.4
			c0,0.1,0,0.2,0,0.3C78.7,61.1,78.7,61.2,78.7,61.2z"/>
	</g>
	<path class="st1" d="M46.9,29.9l0.4,0.8c-0.1-0.9-0.9-2.1-1.6-2.4c-0.6-0.4-1.6-1.1-2.6-1.4c-0.9-0.3-1.2-0.7-2.3-0.6
		c-1.1,0.1-3,0.1-4.1,0.3c-1.1,0.2-1.6,0.9-2.4,1.4s-1.9,1.6-2.2,2.4c-0.3,0.8-0.4,2.9-0.7,3.6c-0.3,0.6-0.2,2.5-0.1,3.2
		c0.1,0.7,0.3,4.4,2.1,6.1c1.8,1.7,3.2,3.3,4.1,4.1s2.1,1.9,3.5,2.8s2.9,1.9,3.3,2.8c0.4,0.9,0.9,1.6,1,2.1c0.1,0.5,0.9,1,1.7,0
		c0.9-1,2.8-4.2,3.6-5.1s1.1-1.8,1.9-2.8c0.9-1.1,1.5-2.1,2.4-3c0.9-0.9,1.6-2.4,2.1-3.1c0.4-0.8,0.5-1.4,1.1-2.4
		c0.6-0.9,0.9-2.7,1.1-3.6s0.5-2.1,0.5-2.8c0-0.7-0.3-2.1-0.5-2.9s-0.7-2.4-1.5-2.8c-0.8-0.4-1.5-1.4-2.2-1.8
		c-0.7-0.4-3.4-0.4-4.8-0.1c-1.4,0.4-2.3,0.9-2.8,1.8c-0.6,0.9-0.4,1.6-0.4,2.1s0.4,0.9,0.6,0.6c0.2-0.4,0.8-0.8,1-1
		c0.2-0.2,0.4-0.1,0.8-0.5c0.4-0.4,0.4-0.7,0.9-0.9c0.5-0.1,1.1-0.5,1.8-0.6s1.9,0.1,2.5,0.7c0.6,0.6,0.9,1.7,1.5,2.2
		c0.6,0.5,0.8,1.6,0.9,2.3c0.1,0.7,0.4,2-0.1,3.1c-0.5,1.1-0.9,3.1-1.4,4c-0.5,0.9-0.9,2.1-1.4,2.7s-2.1,3.3-3.1,4.2
		c-1,0.9-1.9,2.4-2.1,2.9c-0.2,0.6-1.1,1.7-1.6,2.2s-1.2,1.8-1.2,1.8s-0.4-0.6-0.5-1.1c-0.1-0.6-0.9-1-1.6-1.3
		c-0.7-0.3-2.1-1.4-2.8-2c-0.7-0.6-2.3-1.2-2.6-1.7s-0.9-1.4-1.6-1.7c-0.7-0.3-1.7-1.5-2-2c-0.3-0.5-1-1.6-1.4-2.4
		c-0.4-0.7-0.7-1.9-0.8-2.6c-0.1-0.8-0.1-2.3-0.1-2.9s0.1-1.9,0.3-2.7c0.1-0.9,1.3-2,1.7-2.3c0.4-0.3,2.1-0.9,2.4-1.2
		c0.3-0.4,1.6-0.6,2.7-0.5c1.1,0.1,2.3,0,3,0.3c0.7,0.3,0.8,0,1.7,0.5S46.5,29.5,46.9,29.9z"/>
	<path class="st1" d="M44.4,29.9c-0.1,0-0.2-0.4-0.2-0.4s0.2-0.1,0.4-0.1C44.6,29.5,44.7,30,44.4,29.9z"/>
	<path class="st1" d="M38.7,29c-0.3,0-0.5,0-0.4-0.3c0.1-0.2,0.2-0.3,0.4-0.3c0.2,0,0.4,0.1,0.4,0.2C39.1,28.8,38.9,29,38.7,29z"/>
	<path class="st1" d="M56.9,33.4c-0.2,0-0.3,0-0.2,0.3c0.2,0.3,0.2,0.2,0.3,0.2C57.2,33.8,57.2,33.5,56.9,33.4z"/>
	<path class="st1" d="M53.9,40.9c-0.2,0.1-0.3,0.2-0.2,0.3s0.2,0.1,0.3,0C54.2,41.1,54.2,40.8,53.9,40.9z"/>
	<path class="st1" d="M43.6,54.4c0,0.2-0.1,0.5-0.2,0.5c-0.2,0-0.3-0.2-0.3-0.5c0-0.3,0-0.4,0.2-0.4C43.6,53.9,43.6,54,43.6,54.4z"
		/>
</g>
</svg>
