<?xml version="1.0" encoding="utf-8"?>
<!-- Generator: Adobe Illustrator 25.4.1, SVG Export Plug-In . SVG Version: 6.00 Build 0)  -->
<svg version="1.1" id="Layer_1" xmlns="http://www.w3.org/2000/svg" xmlns:xlink="http://www.w3.org/1999/xlink" x="0px" y="0px"
	 viewBox="0 0 100 97" style="enable-background:new 0 0 100 97;" xml:space="preserve">
<g>
	<g>
		<path d="M15,96.5c0,0-0.1,0.1-0.1,0.1c-0.1,0.1-0.3,0.2-0.4,0.3c-0.1-0.2-0.3-0.3-0.2-0.5c0.1-0.3-0.1-0.5-0.3-0.6
			c-0.3-0.2-0.5-0.1-0.8,0.1c0,0,0,0-0.1,0c-0.2-0.3-0.4-0.4-0.5-0.1c-0.1,0.1-0.1,0.2,0.1,0.3c0.1,0,0.2,0.1,0.1,0.2
			c0,0.1-0.1,0.2-0.2,0.2c-0.1,0-0.2,0-0.3,0c-0.2,0-0.3-0.1-0.5-0.1c-0.2,0-0.4,0-0.5-0.3c0,0-0.1-0.1-0.1-0.1
			c-0.4,0.2-0.8,0.1-1.3,0c-0.1,0-0.2-0.1-0.2-0.2c-0.1-0.2-0.2-0.2-0.3,0C9.2,95.9,9.2,96,9,95.9c-0.1,0-0.2,0.2-0.3,0.3
			c-0.1,0.1-0.2,0.2-0.2,0.2c-0.1,0-0.2-0.1-0.2-0.2C8,95.6,7.4,95.5,7,96c-0.2,0.2-0.3,0.2-0.6,0.2c-0.2-0.1-0.3,0-0.5,0.1
			c-0.1,0.1-0.3,0.1-0.4,0.2c-0.3-0.4-0.3-0.3-0.7-0.1c-0.1,0-0.2,0.1-0.3,0c-0.2-0.1-0.4-0.2-0.7-0.3c-0.4-0.2-0.5-0.2-0.9,0.1
			c-0.1,0.1-0.2,0.1-0.3,0.1c-0.2,0-0.4,0-0.5,0.2c-0.1,0.1-0.3,0.1-0.4,0.2c0-0.1,0-0.3,0-0.4c0-0.2-0.1-0.3-0.3-0.2
			C1.2,96,1.1,96.1,1,96.2c-0.1,0.1-0.2,0.2-0.4,0.3c0,0-0.1,0-0.1-0.1c0-0.4,0-0.8,0-1.2c0-0.1-0.1-0.1-0.2-0.2
			c-0.1,0.1-0.1,0.1-0.2,0.2c0.1-0.3,0.1-0.5,0.2-0.8c0-0.1,0-0.3,0-0.5c0.1,0,0.2,0,0.2,0c0.1-0.2,0.2-0.5,0.3-0.7
			c0,0-0.1-0.1-0.2-0.2C0.6,93,0.7,93,0.8,92.9c-0.1-0.1-0.2-0.2-0.4-0.3c0.1-0.1,0.2-0.3,0.3-0.5c-0.3-0.1-0.1-0.3-0.1-0.4
			c-0.1-0.2,0-0.3,0.2-0.4c-0.1-0.1-0.2-0.2-0.4-0.3c0.1-0.1,0.2-0.1,0.3-0.2c-0.1-0.2-0.1-0.3-0.2-0.5c0.3-0.2,0.3-0.5,0-0.7
			c0.1-0.1,0.2-0.1,0.2-0.2c0-0.1-0.1-0.2-0.1-0.4c-0.1,0.1-0.2,0.1-0.2,0.1c-0.1,0.1-0.1,0.1-0.2,0.2c0.2-0.4,0.1-0.7,0.1-1.1
			c0-0.1,0.1-0.2,0.2-0.3c0.1-0.1,0.1-0.1,0.2-0.1c-0.2-0.1-0.3-0.2-0.4-0.3c0,0,0,0,0,0c0.4,0,0.3-0.3,0.3-0.5
			c-0.1-0.2,0-0.3,0.2-0.4c0,0,0.1-0.1,0.1-0.1c-0.2-0.1-0.3-0.1-0.5-0.2c0.2-0.1,0.4-0.3,0.2-0.6c-0.1,0-0.2,0.1-0.3,0.1
			c0,0,0,0-0.1,0c0.1-0.1,0.2-0.3,0.4-0.4c-0.2,0-0.3,0-0.4,0c0.2-0.3,0.2-0.4-0.1-0.6c0-0.1,0.1-0.1,0.2-0.3c-0.1,0-0.2,0-0.3,0
			c0.1-0.1,0.2-0.3,0.2-0.4c-0.1-0.1-0.1-0.2-0.2-0.2c0.1-0.1,0.2-0.2,0.4-0.3c0-0.1-0.1-0.2-0.2-0.4c0.1,0,0.2,0.1,0.2,0.1
			C0.8,83,0.9,82.9,1,82.8c-0.1-0.1-0.1-0.3-0.2-0.4c0,0-0.1,0.1-0.1,0.1c0.1-0.1,0.2-0.1,0.2-0.2c0-0.1-0.1-0.2-0.1-0.3
			c-0.1,0-0.2,0-0.4,0c0.1-0.2,0.2-0.3,0.4-0.5c-0.1,0-0.2,0-0.3,0c0-0.1,0-0.1,0.1-0.1c0.1-0.2,0.1-0.3-0.1-0.4
			c-0.1,0-0.1-0.2-0.1-0.3c0-0.1,0.1-0.1,0.2-0.2c-0.1-0.1-0.1-0.1-0.2-0.2c0-0.1,0.1-0.2,0.1-0.3c-0.1,0-0.2-0.1-0.2-0.1
			c-0.1-0.3-0.1-0.6-0.2-0.9c0-0.2-0.1-0.4,0-0.6c0-0.1,0.1-0.2,0.1-0.2c0-0.2,0-0.3,0-0.4c0-0.1,0-0.1,0-0.2c0-0.2,0-0.3,0.1-0.5
			c0.1-0.2,0.2-0.3,0-0.5c0.1-0.2,0.4-0.2,0.2-0.5c0,0,0.1-0.2,0.2-0.3c0.1-0.1,0.1-0.1,0.2-0.2c-0.1-0.1-0.3-0.1-0.4-0.2
			c0.3-0.1,0.3-0.3,0.2-0.5c-0.1,0-0.1,0-0.3,0.1c0.1-0.2,0.2-0.3,0.3-0.4c-0.1-0.1-0.4-0.2-0.1-0.4c0,0,0-0.2-0.1-0.3
			c-0.1-0.1-0.2-0.1-0.3-0.1c0.1-0.2,0.2-0.4,0.3-0.6c-0.2,0-0.2-0.1-0.2-0.2c0-0.2,0-0.4,0.1-0.6c0-0.1,0.1-0.2,0.2-0.3
			c0,0,0.1,0.1,0.1,0.1c-0.1-0.1-0.1-0.2-0.2-0.3c0.2-0.2,0.2-0.4-0.1-0.5c0.1-0.2,0.2-0.4,0.4-0.6c-0.1-0.1-0.2-0.2-0.4-0.3
			c0.3,0,0.4-0.2,0.2-0.4c0-0.1-0.2-0.1-0.4-0.1c0-0.1,0-0.2,0-0.3c0.1,0,0.1,0.1,0.2,0.1c0,0,0,0,0-0.1c-0.1-0.2-0.2-0.4-0.1-0.6
			c0,0-0.1-0.1-0.2-0.2c0-0.1,0.1-0.3,0.1-0.4c0.1-0.2,0.2-0.3-0.1-0.5c0.2,0,0.4,0,0.5,0c-0.1-0.1-0.1-0.2-0.3-0.3
			c0.3,0.1,0.4-0.1,0.4-0.3c0-0.2,0.2-0.4-0.3-0.4c0.1-0.1,0.1-0.1,0.2-0.2c0.1-0.1,0.1-0.1,0.1-0.2c0-0.1-0.1-0.2-0.2-0.3
			c-0.1,0.1-0.2,0.1-0.2,0.2c-0.1,0.2-0.2,0.4-0.3,0.6c0-0.2,0.1-0.4,0.1-0.6c0.1-0.4,0.2-0.8,0.1-1.2c-0.1-0.2-0.1-0.6,0.2-0.7
			c-0.1-0.1-0.2-0.2-0.2-0.2c0.1-0.3,0.2-0.6,0.3-1c0,0-0.1-0.1-0.2-0.2c0.1-0.1,0.2-0.3,0-0.4c-0.1-0.1,0-0.5,0.2-0.7
			c-0.1,0-0.1-0.1-0.2-0.1c-0.1,0-0.1,0-0.2-0.1c0.1-0.1,0.1-0.1,0.2-0.1c0,0,0.1-0.1,0.1-0.1c-0.2-0.3-0.1-0.4,0.1-0.6
			c-0.1-0.1-0.2-0.2-0.4-0.2c0.1-0.1,0.2-0.1,0.2-0.2c-0.2-0.3-0.2-0.5,0-0.7c-0.1-0.1-0.1-0.2-0.2-0.2c0.1-0.3,0.2-0.6,0.3-0.9
			c0,0-0.1-0.1-0.1-0.1c0-0.3,0-0.5,0-0.7c0,0,0,0,0.1,0c-0.1-0.1-0.2-0.2-0.3-0.3c0.1-0.1,0.1-0.1,0.2-0.2
			c-0.1-0.4-0.1-0.4-0.4-0.3c0.1-0.1,0.3-0.2,0.4-0.4c0-0.1-0.1-0.2-0.1-0.3c0.3-0.2,0.1-0.4-0.1-0.6c0.1-0.2,0.2-0.3,0.3-0.5
			c0-0.1-0.1-0.2-0.2-0.3c0.2-0.1,0.2-0.3,0.1-0.5c-0.1-0.2,0-0.4,0.2-0.6c-0.1-0.1-0.2-0.2-0.4-0.3c0.1-0.1,0.2-0.1,0.3-0.2
			c-0.1-0.2-0.3-0.3-0.4-0.5c0.1-0.1,0.2-0.3,0.4-0.5c-0.1-0.1-0.2-0.2-0.3-0.3c0.2-0.1,0.3-0.2,0.2-0.4c0-0.1,0.1-0.3,0.2-0.4
			c0-0.1,0.1-0.1,0.2-0.2C0.9,51,0.7,51,0.6,50.9c0.1,0,0.1-0.1,0.2-0.1c0.1,0,0.1-0.1,0.1-0.1c0-0.1-0.1-0.1-0.1-0.2
			c-0.1-0.1-0.1-0.1-0.2-0.1c-0.1,0-0.1,0.1-0.2,0.2c-0.1,0.2-0.1,0.4-0.1,0.6c-0.2-0.5,0.2-0.9,0.3-1.4c0,0-0.1-0.1-0.1-0.1
			c0-0.1,0.1-0.3,0.1-0.4c-0.1-0.2,0-0.4,0-0.6c0-0.1,0-0.2,0-0.3c0-0.1,0.1-0.2,0.1-0.3c0-0.1-0.2-0.1-0.2-0.2c0,0-0.1,0-0.1,0
			c0-0.2,0-0.3,0-0.5c0-0.1,0.2-0.3-0.1-0.4c0,0,0-0.1,0-0.1c0.3-0.2,0-0.4,0-0.7c0.1,0.1,0.1,0.2,0.2,0.2c0.1-0.2,0.3-0.3,0.4-0.5
			c-0.1-0.1-0.3-0.2-0.4-0.3c0.1-0.1,0.3-0.1,0.4-0.2c-0.1-0.2-0.1-0.3-0.2-0.4c-0.6,0.1-0.5,0.7-0.6,1c0-0.4,0-0.7,0.3-1
			c0,0,0-0.1,0-0.2c0,0,0-0.1,0-0.1c0.1-0.2,0.1-0.5,0-0.7c0-0.2,0-0.3,0.1-0.5c0-0.2,0.1-0.4,0.1-0.6c0-0.1-0.1-0.2-0.1-0.3
			c0,0-0.1,0.1-0.1,0.1c0.1-0.1,0.2-0.3,0.2-0.4c-0.1-0.1-0.2-0.1-0.3-0.2C0.2,42,0.3,42,0.4,41.9c-0.1-0.6-0.1-0.6,0.1-1.1
			c-0.2,0-0.3-0.1-0.2-0.3c0-0.1,0-0.1,0-0.2c-0.1-0.4-0.1-0.4,0.1-0.8c-0.1-0.1-0.2-0.1-0.2-0.2c0.3-0.2,0.2-0.3-0.2-0.9
			c0.2-0.1,0.3-0.1,0.5-0.2c0,0,0-0.1,0-0.1c-0.1,0-0.2-0.1-0.3-0.1c0,0,0.1,0,0.1-0.1c0-0.1,0-0.3,0-0.4c0,0-0.1,0-0.1,0
			c0.2-0.2,0.3-0.5,0.5-0.7c-0.2-0.1-0.3-0.2-0.5-0.2c0.4-0.1,0.4-0.3,0.3-0.6c-0.1,0-0.1,0-0.2,0c0.1-0.1,0.2-0.3,0.2-0.4
			c-0.1-0.1-0.2-0.2-0.3-0.3c0.1-0.1,0.2-0.1,0.3-0.2c-0.2-0.4-0.2-0.4-0.5-0.3c-0.1-0.2,0.6-0.3,0.1-0.6c0.3-0.2,0.1-0.4,0-0.6
			c0.2-0.1,0.4-0.2,0.6-0.2c-0.2-0.1-0.4-0.2-0.2-0.4c0,0,0-0.3-0.1-0.3c-0.2-0.2-0.3-0.3,0-0.5c0,0,0.1,0,0.1-0.1
			c0,0,0-0.1-0.1-0.1C0.5,32,0.5,32,0.5,32c0-0.2,0.1-0.3,0.1-0.4c0-0.1,0.1-0.3,0.1-0.4c0.1-0.2,0.1-0.4-0.2-0.5
			c0.1-0.1,0.2-0.2,0.2-0.3c0-0.1-0.1-0.2-0.1-0.3c-0.1,0-0.2,0-0.3,0c0.1-0.1,0.2-0.3,0.3-0.4c-0.1-0.1-0.2-0.1-0.3-0.1
			c0.1-0.1,0.1-0.1,0.2-0.2c-0.1-0.1-0.1-0.3-0.2-0.4c0.1-0.1,0.2-0.2,0.3-0.4c0,0,0.1-0.1,0-0.1c-0.1-0.3,0-0.5,0.1-0.7
			c0.1-0.3,0-0.4-0.2-0.5c0.1-0.1,0.2-0.2,0.3-0.3c-0.1-0.1-0.2-0.3-0.3-0.4c0.1-0.2,0.1-0.4,0.2-0.6c0,0-0.1-0.1-0.2-0.2
			c0.1-0.3,0.2-0.5,0.3-0.8c0,0-0.1,0-0.1,0c0-0.2,0-0.3,0-0.3c0.2-0.2,0-0.6,0.5-0.6c0,0-0.1-0.1-0.1-0.1c-0.1-0.1-0.3-0.2-0.4-0.3
			c0.1-0.1,0.2-0.1,0.3-0.2c-0.1-0.1-0.1-0.2-0.2-0.3c-0.4,0-0.3,0.4-0.6,0.6c0.1-0.3,0.2-0.5,0.2-0.8c0.1,0,0.1,0,0.3,0.1
			c-0.1-0.2-0.1-0.4-0.2-0.6c0-0.1,0.1-0.3,0.1-0.4c0-0.1-0.2-0.2-0.2-0.3c0.1,0,0.1,0,0.1,0c0.1-0.2,0.2-0.3,0.4-0.5
			c-0.1-0.1-0.2-0.2-0.3-0.3c0.2-0.1,0.3-0.3,0.1-0.5c-0.1,0-0.2,0-0.3,0.1c0,0,0,0-0.1-0.1c0.1-0.2,0.2-0.3,0.4-0.5
			c-0.1-0.1-0.2-0.2-0.3-0.3c0.1-0.1,0.2-0.1,0.3-0.1c-0.1-0.4-0.3-0.8,0.2-1.1c-0.2-0.1-0.3-0.2-0.4-0.3c0,0,0.1,0,0.1-0.1
			c0.1-0.1,0.2-0.1,0.1-0.3c-0.1-0.1,0-0.3-0.1-0.5c-0.1,0-0.2-0.1-0.1-0.3c0-0.1,0-0.2,0-0.3c-0.2-0.1-0.1-0.2-0.1-0.4
			c0-0.1,0-0.2-0.1-0.3c0.3-0.2,0.3-0.2,0-0.5c0.1,0,0.2,0,0.3,0c0.1-0.2,0.2-0.3,0.3-0.4C0.7,15.1,0.6,15,0.6,15
			c0-0.2,0.1-0.4,0.1-0.6c-0.1,0-0.2,0-0.3,0c0.2-0.3,0.1-0.6-0.1-0.8c0,0-0.1-0.2-0.1-0.2c0.1-0.2,0.2-0.5,0.3-0.7
			c0,0-0.1-0.1-0.2-0.1c0.1-0.1,0.2-0.1,0.3-0.1c-0.1-0.1-0.1-0.1-0.1-0.2c0.1-0.2,0.3-0.5,0.4-0.7c-0.1-0.1-0.2-0.1-0.4-0.2
			c0.1-0.1,0.2-0.1,0.3-0.2c0-0.1-0.1-0.2-0.2-0.4c-0.1,0.1-0.2,0.1-0.4,0.2c0-0.2,0-0.3,0-0.5c0.1,0,0.4,0.1,0.1-0.3
			c-0.1-0.1,0-0.3,0-0.5c0-0.1,0.1-0.3,0.1-0.4c0,0,0.1,0,0.1,0C0.6,9.1,0.5,9,0.5,9c0-0.2,0.1-0.3,0.1-0.5c0-0.3,0-0.5,0.3-0.6
			C0.7,7.8,0.6,7.7,0.4,7.6c0.1-0.1,0.2-0.1,0.3-0.2C0.6,7.2,0.5,7,0.4,6.9c0.1-0.1,0.2-0.3,0.3-0.5C0.6,6.3,0.4,6.2,0.6,5.9
			c0-0.1-0.1-0.2-0.2-0.3C0.3,5.7,0.2,5.7,0.2,5.8C0.1,5.9,0.1,6,0.1,6C0.1,6,0,6,0,6C0,6,0,5.9,0,5.8c0.2-0.1,0.1-0.5,0.3-0.5
			c0-0.1-0.1-0.2-0.1-0.3c0.3-0.1,0-0.4,0.1-0.6c0,0.1,0.1,0.1,0.1,0.2c0.1-0.1,0.2-0.2,0.3-0.3C0.6,4.1,0.5,4,0.4,3.9
			c0.1,0,0.2-0.1,0.2-0.2c0-0.1-0.1-0.2-0.1-0.3c0-0.1,0-0.1,0-0.2c0.1-0.3,0.1-0.4-0.1-0.5c0.1-0.1,0.2-0.1,0.3-0.2
			c0-0.1-0.1-0.2-0.1-0.4c-0.1,0-0.2,0-0.2,0C0.4,2.1,0.3,1.9,0.3,1.9c0.3-0.2,0.1-0.4,0-0.7C0.6,1,0.8,0.9,1.2,0.7
			c0.1,0.1,0.3,0.2,0.4,0.2C2,0.7,2.3,0.5,2.4,0.1c0,0,0.1,0,0.1,0c0,0.1,0,0.2,0,0.3c0,0.1,0,0.1,0,0.2c0.1,0,0.1,0,0.2,0
			c0.2-0.3,0.5-0.1,0.8-0.2c0,0,0.2,0.2,0.3,0.3c0,0,0,0-0.1,0.1c0.1,0,0.1,0,0.2,0.1c0,0.1,0,0.2,0,0.2c0,0,0,0,0.1,0.1
			C3.9,1,4,0.9,4.1,0.8c0.1,0,0.2-0.1,0.2-0.1C4.5,1,4.6,1,4.7,0.7c0,0,0-0.1,0-0.1c0.2,0,0.3,0,0.4,0.1c0.4,0,0.4,0,0.3-0.3
			c0.1,0,0.2,0,0.3-0.1c0,0,0,0,0,0.1c-0.1,0-0.1,0.1-0.2,0.2c0.1,0.1,0.2,0.2,0.2,0.1c0.3-0.1,0.5,0.1,0.7,0.2
			C6.7,0.9,7,0.9,7.3,0.9c0,0,0,0.1,0,0.2C7.4,1,7.5,1,7.5,1c0.3-0.1,0.6-0.3,0.8-0.2c0.4,0.2,0.6-0.3,0.9-0.1c0,0,0.1-0.1,0.2-0.2
			c0,0.1,0,0.2,0,0.3c0,0.1,0,0.1,0,0.2c0.1,0,0.1-0.1,0.2-0.1c0.1,0,0.2,0,0.2,0C10,1.3,10.2,1,10.4,0.9c0,0,0.1,0,0.1,0
			c0,0,0,0,0.1,0c0,0.1,0,0.1,0,0.3c0.3-0.2,0.5-0.3,0.7-0.5c0.2,0,0.4,0,0.6,0c0.1,0,0.1,0,0.2,0c0.1,0,0.2,0.1,0.2,0
			c0.3-0.2,0.5,0,0.8,0c0.1,0,0.2,0.1,0.4,0.1c0.1-0.1,0.1-0.2,0.2-0.3c0.1,0.1,0.1,0.1,0.1,0.2C13.7,0.9,13.8,1,14,0.9
			c0.2-0.1,0.5-0.1,0.7-0.1c0.1,0,0.2,0,0.3-0.1c0,0,0-0.1,0-0.1c0.1,0.1,0.2,0.2,0.4,0.3c0.1,0,0.2-0.1,0.3-0.1c0.1,0,0.2,0,0.2,0
			c0.3,0.2,0.5,0.2,0.7,0c0.1-0.1,0.3-0.2,0.5-0.1c0.1,0.1,0.3,0,0.4,0c0.1,0,0.1-0.1,0.2-0.1c0.3,0.1,0.3,0.1,0.5,0
			c0,0.3,0.1,0.4,0.4,0.2c0.1,0,0.3,0.1,0.5,0.2c0.1-0.1,0.2-0.3,0.3-0.4C19.6,0.8,19.8,0.9,20,1c0.1-0.1,0.2-0.2,0.3-0.3
			c0.1,0.1,0.4-0.1,0.4,0.3c0.1,0,0.2,0,0.2,0C21,0.9,21,0.8,21,0.7c0.3,0.2,0.3,0.2,0.6-0.2c0,0.3,0.1,0.4,0.3,0.5
			c0.1,0,0.1-0.1,0.2-0.1c0.2,0,0.3,0,0.5,0c0.1,0,0.3,0,0.3,0.1c0.2,0.3,0.5,0.2,0.8,0.3c0,0,0.1-0.1,0.1-0.1
			c0-0.1,0.1-0.2,0.3-0.2c0.1,0,0.3,0,0.4-0.1c0.2-0.2,0.4,0,0.5,0.1c0.2,0.1,0.3,0.4,0.6,0.1c0,0,0.1,0,0.1,0c0.4,0.1,0.7,0,1-0.2
			c0.1,0,0.2-0.1,0.3-0.1c0.3,0,0.7,0,0.8,0.4c0.2-0.1,0.4,0,0.5-0.3c0,0,0.2,0,0.4,0c0.2-0.2,0.4,0.1,0.7,0
			c0.1,0.3,0.5-0.1,0.6,0.4c0.2-0.2,0.4-0.3,0.6-0.5c0.3,0.1,0.6,0.2,0.9,0.3c0.1-0.2,0.1-0.3,0.2-0.5c0,0,0.2,0,0.3,0
			c0.2,0.1,0.5,0.2,0.8,0.1c0.3,0.2,0.5,0.4,0.8,0.6c0.1-0.2,0.2-0.4,0.3-0.7c0,0,0.1,0.1,0.2,0.1c0.1-0.1,0.1-0.2,0.2-0.3
			c0.4,0.3,0.4,0.3,0.8-0.1c0,0.1,0,0.2,0.1,0.3c0.3-0.5,0.6-0.6,1.1-0.4c0,0.2,0.4,0.4,0.6,0.3c0.1,0,0.2-0.1,0.3-0.1
			c0.2,0,0.5,0,0.7,0c0.1,0,0.1-0.1,0.2-0.2c0,0,0.1,0.1,0.1,0.2c0.1,0.1,0.2,0.2,0.3,0.2c0.1,0,0.3-0.1,0.4-0.2
			c0.1-0.1,0.3,0.2,0.3-0.1c0,0,0,0,0,0c0.2,0.1,0.5,0.1,0.7,0.2c0.2,0.1,0.7,0.3,0.8,0.1c0.1-0.1,0.2-0.1,0.3,0
			c0.2,0.1,0.4,0.1,0.6,0.2c0,0,0,0,0.1,0c0.2-0.4,0.6,0,0.9-0.1c0,0,0.2,0.1,0.3,0.2c0.2,0,0.3-0.1,0.4-0.1
			c0.2-0.1,0.5-0.2,0.7-0.3c0.2,0,0.3,0,0.5-0.1c-0.1,0.1-0.1,0.2-0.2,0.3c0.1,0,0.2,0,0.3,0c0,0.1,0,0.2,0,0.3
			c0.1-0.1,0.2-0.1,0.3-0.2c0.1,0,0.2-0.1,0.2-0.1c0,0.1,0,0.1-0.1,0.3c0.3,0.1,0.6,0,1-0.2c0-0.1,0-0.1,0-0.2
			c0.2,0,0.3,0.1,0.5,0.1c0.2,0,0.1,0.4,0.3,0.2c0.2,0,0.4,0.1,0.5,0.1c0.3-0.1,0.6,0,0.7-0.4c0,0,0.2,0,0.2,0
			c0.2,0.1,0.4,0.1,0.4-0.1c0,0,0.2-0.1,0.2-0.1c0.2,0.1,0.4,0.2,0.6,0.3c0.1-0.1-0.3-0.5,0.2-0.3c0-0.1,0-0.1,0-0.2
			c0.1,0.1,0.2,0.2,0.4,0.3c0.1,0.1,0.2,0.1,0.3,0.1c0.2,0.1,0.4,0.2,0.6,0.2c0.2,0,0.4,0.1,0.6,0c0,0,0.1-0.2,0.1-0.3
			c0,0,0.1,0,0.1,0.1C51.9,0.7,51.9,0.9,52,1c0.3,0.3,0.3,0.3,0.6-0.1c0.1-0.1,0.3-0.1,0.4-0.1c0.3,0.1,0.4,0.1,0.3-0.2
			c0.3,0,0.5,0,0.8,0.1c0,0.1-0.1,0.1-0.1,0.3c0.3,0,0.6,0,1,0c0,0.1,0,0.2,0,0.3c0.4,0,0.7,0,1,0c0.1-0.3,0-0.5-0.3-0.7
			c0.3,0.1,0.7-0.1,0.9,0.3C56.6,0.9,56.8,0.9,57,1c0,0,0.1,0,0.1,0c0.2,0.5,0.5,0.3,0.8,0.2c0,0,0.1,0,0.1,0C58,0.8,58.3,1,58.5,1
			c0.1-0.1,0.1-0.2,0.1-0.2c0.1-0.1,0.2-0.1,0.3,0c0.1,0.1,0.2,0.1,0.3,0.1c0.2,0,0.5,0.1,0.7,0.2c0.1,0,0.2,0.1,0.3-0.1
			c0,0,0.1-0.1,0.2-0.1c0,0.1,0,0.2,0,0.3C60.6,1,60.8,0.9,61,0.8c0,0.1,0,0.2,0,0.3c0.3-0.1,0.6-0.2,0.8-0.3
			c0.3-0.2,0.4-0.2,0.6,0.1c0,0.1,0.1,0.1,0.1,0.2C62.6,1,62.7,1,62.7,1C62.8,1,62.9,1,63,1.1C63,1,63,1,63,0.9
			c0-0.1,0.1-0.2,0.1-0.1c0.2,0.1,0.4,0.1,0.6,0.2c0,0,0-0.1,0.1-0.1c0.3,0.3,0.3,0.3,0.6,0.2c0,0.1,0,0.2,0,0.3
			c0.1,0,0.2-0.1,0.2-0.1c0.1,0,0.2-0.1,0.3-0.1c0.3-0.2,0.3-0.2,0.6,0.1c0,0,0.1,0.1,0.1,0.1c0.3,0,0.6,0,0.9,0
			c-0.1-0.2-0.1-0.4-0.2-0.6c0.2,0.1,0.4,0.1,0.6,0.2c0,0.3,0.2,0.5,0.7,0.4c0.4-0.1,0.7-0.2,1-0.4C68.9,0.7,69,0.7,69.2,1
			c0.3,0,0.6-0.1,0.8-0.1c0.1,0,0.2-0.1,0.3-0.1c0.3,0,0.5,0,0.7,0.2C71.2,1,71.4,1,71.6,1.1c0,0,0.1,0.1,0.1,0.1
			C71.8,1.1,71.9,1,72,0.9c0,0.1,0,0.1,0.1,0.2c0.2,0,0.3-0.1,0.5-0.1c0,0.1,0.1,0.2,0.1,0.3c0.2-0.1,0.4-0.2,0.6-0.2
			c0,0.1,0.1,0.2,0.1,0.3c0.1-0.1,0.2-0.2,0.3-0.3C74,1.4,74.2,1.4,74.4,1c0.1,0.1,0.1,0.2,0.1,0.3c0.2-0.1,0.3-0.1,0.5-0.2
			c0.1,0,0.1,0,0.2,0c0,0.1,0,0.1-0.1,0.2c0.1,0,0.1,0,0.2,0C75.6,1.1,75.8,1,76.1,1c0,0,0.1,0,0.1,0c0.2,0.3,0.3,0.1,0.4,0
			c0,0,0.1,0,0.2,0c0.4,0.2,0.7,0.2,1.1,0C78,1,78,1,78,1c0.1,0,0.2,0,0.3,0c0.1,0,0.2,0,0.3,0C78.8,1,78.8,1,78.9,1
			c0.3,0,0.6,0.1,0.9,0.1c0.1,0,0.2,0,0.2,0c0.2,0,0.3-0.1,0.5-0.1c0,0,0.1,0.1,0.2,0.3c0.1,0,0.3-0.1,0.4-0.1c0.1,0,0.1,0,0.2,0
			c0.3,0.3,0.7,0.1,1,0.2c0.2-0.1-0.1-0.5,0.3-0.5c0.2,0.4,0.2,0.4,0.5,0.1c0.2-0.2,0.4-0.1,0.5,0.1c0,0.1,0,0.1,0,0.2
			c0,0,0.1,0,0.1,0c0-0.1,0-0.2,0-0.3c0.6-0.1,1.1,0,1.5,0.5c0.3,0,0.4-0.3,0.4-0.5c0,0,0.1,0,0.1,0c0,0.1,0.1,0.2,0.1,0.2
			c0.2-0.2,0.2-0.5,0.5-0.3c0,0.1-0.1,0.1-0.1,0.3c0.6,0,1.2-0.2,1.8,0.3c0.1-0.2,0.1-0.3,0.2-0.5c0.2-0.1,0.5,0.4,0.6-0.1
			C89.2,1,89.4,1,89.6,0.9c0.1-0.1,0.3,0,0.4,0c0.3,0.1,0.4,0,0.5-0.3C90.7,0.8,91.1,0.5,91,1c0.3,0,0.5-0.1,0.6-0.4
			c0.1,0.2,0.2,0.3,0.3,0.4c0.1-0.1-0.1-0.4,0.2-0.3c0,0.1,0,0.3,0.1,0.4c0,0,0.1,0,0.1,0c0-0.1,0-0.2,0-0.4
			c0.2,0.1,0.4-0.4,0.7-0.1c0.1,0.1,0.4,0.1,0.6,0.1c0.1,0,0.1,0.1,0.1,0.1c0.2,0.2,0.5,0.1,0.7,0c0.1-0.1,0.3,0,0.3,0
			C94.9,0.9,95,1,95.2,0.9c0,0,0.1,0,0.2,0c0.2,0,0.5,0,0.7,0c0.1,0,0.2,0,0.2,0C96.6,1,96.9,1,97.2,1.1c0.1-0.2,0.1-0.3,0.2-0.5
			c0.1,0,0.2,0,0.3,0c0.1,0,0.2-0.1,0.3-0.1c0.4,0.3,0.4-0.2,0.7-0.3c0.1,0,0.1,0.1,0.3,0.2c-0.1,0-0.2,0.1-0.3,0.1
			c0.3,0.3,0.5,0.6,0.8,0.9c-0.2,0.2,0,0.4,0.1,0.5c0.1,0.2,0.2,0.3-0.1,0.4c-0.1,0-0.1,0.1-0.1,0.2c-0.1,0.2-0.1,0.4-0.1,0.6
			c0,0.2,0,0.4,0.3,0.4c0,0.1,0,0.3,0,0.4c-0.1,0-0.2,0-0.2,0c0,0.3,0,0.5-0.1,0.7c0,0,0,0.1,0.1,0.1c0.1,0.2,0.1,0.4,0,0.5
			c-0.1,0.1-0.3,0.3,0,0.5c0.1,0.1,0.1,0.2,0.1,0.3c0,0.1,0,0.3,0,0.5c0.1,0.2,0,0.3-0.2,0.3c0,0.1,0,0.2,0.1,0.3
			c-0.1,0-0.1,0-0.2,0.1c0,0.1,0,0.2,0,0.4c0.1,0.1,0.2,0.1,0.3,0.2c0.2,0.2,0.2,0.4-0.1,0.5c-0.1,0,0,0.3-0.1,0.4c0,0,0,0,0.1,0
			C99.1,8.8,99,8.9,98.9,9c0.5,0.4,0.5,0.4,0.8,0.4c0,0.1,0,0.2,0,0.3c-0.3,0-0.5,0-0.4,0.4c0,0-0.1,0.1-0.1,0.1
			c-0.3,0.3-0.2,0.4,0.1,0.6c0.1,0.1,0.2,0.1,0.4,0.2c-0.2,0.1-0.3,0.2-0.5,0.2c0.1,0.1,0.1,0.1,0.2,0.2c-0.3,0.2-0.3,0.3-0.1,0.7
			c0,0,0,0.1,0,0.1c0,0.2,0,0.3,0,0.5c0.1,0,0.2,0,0.3-0.1c0.1,0.3-0.2,0.4-0.4,0.6c0.1,0.1,0.2,0.2,0.3,0.3
			c-0.1,0.2-0.1,0.5-0.2,0.7c0,0.2,0,0.4,0.2,0.5c0.1,0,0.1,0.3,0,0.3c-0.3,0.2-0.2,0.5-0.3,0.7c-0.1,0.2,0,0.5-0.3,0.5
			c0,0.1,0,0.3,0.1,0.3c0.2,0.1,0.2,0.2,0.2,0.4c0,0.1,0.1,0.2,0.1,0.4c0.1,0,0.1-0.1,0.2-0.1c0,0.4-0.4,0.6-0.5,0.9
			c0,0,0.1,0.1,0.1,0.1c-0.1,0.1-0.1,0.2-0.2,0.3c0.2,0.2,0.2,0.4-0.1,0.5c0.3,0.3,0.3,0.7,0.2,1.1c0,0.3-0.1,0.8,0.2,1.1
			c0.1,0.1,0.1,0.2,0.1,0.3c-0.1,0.1-0.2,0.3-0.3,0.4c-0.1,0-0.2,0-0.2,0c0,0.1,0,0.3,0,0.4c0.2,0,0.4,0.1,0.3,0.4
			c0,0,0.1,0.1,0.1,0.2c0.1,0.1,0.1,0.3,0,0.4c-0.1,0.3-0.2,0.6,0,1c-0.1,0-0.2,0.1-0.3,0.2c0,0,0,0.1,0,0.1
			c0.2,0.2,0.3,0.3,0.1,0.6c0,0,0.1,0.1,0.1,0.2c0.2,0.2,0.2,0.4,0.1,0.7c-0.1,0-0.1,0-0.1,0c-0.1,0.2-0.1,0.3-0.2,0.5
			c0.1,0,0.1,0,0.3,0c-0.1,0.1-0.2,0.2-0.3,0.3c0.1,0.2,0.3,0.3,0.4,0.5c0,0,0,0.2-0.1,0.2c-0.1,0-0.2,0-0.3,0.1
			c0.1,0.3,0.2,0.5,0.3,0.8c0,0.1,0.1,0.2,0.2,0.3c0.1-0.1,0.1-0.2,0.1-0.2c0.2,0.1,0,0.5-0.3,0.7c0,0-0.1,0-0.1,0
			c-0.1,0.4-0.1,0.7-0.2,1c0.1,0,0.2-0.1,0.2-0.1c0.1,0.4,0.1,0.8,0.2,1.2c-0.1,0-0.1,0.1-0.2,0.1c0.1,0.1,0.1,0.2,0.2,0.3
			c-0.1,0.3-0.2,0.6-0.3,0.9C99,33,99,33.1,99.3,33.3c0.1,0.1,0.2,0.3,0.3,0.4c0,0,0,0.1-0.1,0.2c-0.4,0.4-0.3,0.9,0.1,1.2
			c-0.2,0.1-0.4,0.2-0.2,0.5c-0.1,0-0.3,0.1-0.4,0.1c0.2,0.2,0.4,0.3,0.5,0.5c0.1,0.2,0.2,0.3,0.5,0.3c-0.3,0.2-0.5,0.3-0.8,0.4
			c0,0.3,0.1,0.6,0.1,0.9c-0.2,0.1-0.3,0.3-0.2,0.6c0.1,0.2,0.1,0.4,0.2,0.7c0,0.1,0,0.2-0.1,0.3c0,0.2,0,0.3,0,0.4
			c0,0.1,0.1,0.2,0.2,0.3c0,0,0.1,0,0.1,0c-0.1,0.1-0.1,0.2-0.2,0.3c0.1,0.1,0.2,0.2,0.3,0.3c0,0.4-0.3,0.1-0.4,0.2
			c0,0.1,0,0.2,0,0.4c0.2,0,0.2,0.2,0.2,0.4c0,0.1,0.1,0.2,0.1,0.3c0,0.1,0,0.2,0,0.3c-0.1,0.1-0.2,0.3,0.1,0.4
			c-0.1,0.1-0.2,0.1-0.3,0.1c0.2,0.2,0.3,0.3,0.5,0.4c0,0.1,0,0.3,0,0.3c-0.3,0.1-0.2,0.4-0.3,0.5c-0.1,0-0.2,0-0.4,0
			c0.1,0.4,0.3,0.7,0.4,1c-0.1,0.2-0.2,0.4-0.2,0.6c0,0.2-0.1,0.4,0.2,0.6c0,0,0,0.1,0,0.1c0,0.3,0,0.7-0.1,0.9
			c-0.1,0.3,0,0.6,0.1,0.7c0.3,0.3,0.1,0.4,0,0.6c0,0.1-0.1,0.1-0.2,0.2c0.1,0.3,0.3,0.7,0.4,1.1c0,0,0.1,0,0.1,0
			c-0.1,0.1-0.1,0.2-0.2,0.3c0.2,0.3,0.2,0.3-0.2,0.6c-0.1,0.1-0.3,0.1-0.1,0.3c0,0.1-0.1,0.2-0.1,0.3c0,0.2,0,0.4,0,0.5
			c0,0.2,0.2,0.3,0.2,0.5c0,0.1,0,0.2-0.1,0.3c-0.2,0.3-0.2,0.3-0.1,0.6c-0.1,0.1-0.2,0.2-0.2,0.3c0,0.1,0.1,0.1,0.5,0.4
			c-0.1,0.1-0.1,0.1-0.2,0.2c0.3,0.4,0.1,1,0.2,1.4c0,0,0,0,0,0.1c-0.1,0.1-0.2,0.2-0.2,0.3c0.1,0.2,0.1,0.5,0.4,0.6
			c0.1,0,0.1,0.1,0.1,0.2c-0.3,0.1-0.4,0.2-0.5,0.5c-0.2,0.4-0.1,0.7,0.1,1c0.1,0.1,0,0.3-0.1,0.4c-0.1,0-0.2,0.1-0.2,0.1
			c0,0.2,0,0.3,0.1,0.5c0,0.1,0.1,0.2,0.2,0.2c0.2,0.1,0.2,0.2,0.1,0.3c0,0.1,0,0.2,0,0.3c-0.1,0-0.2,0.1-0.3,0.2
			c0.1,0.1,0.2,0.3,0.3,0.4c0,0-0.1,0-0.1,0.1c-0.1,0.1-0.1,0.1-0.2,0.2c0.1,0,0.2,0,0.3,0.1c0.1,0,0.2,0,0.2,0.1c0,0,0,0.2-0.1,0.2
			c-0.4,0.2-0.3,0.6-0.3,1c0,0.1,0,0.2-0.1,0.3c0.1,0.1,0,0.5,0.4,0.4c0,0.2-0.1,0.3-0.1,0.5c-0.1,0.3,0,0.7,0,1c0,0.1,0,0.2,0,0.3
			c-0.1,0.3-0.1,0.3,0.1,0.4c0,0.1-0.1,0.1-0.1,0.2c0.1,0,0.2,0,0.2,0.1c0.2,0.2,0.1,0.5-0.2,0.6c0,0-0.1,0-0.1,0
			c-0.1,0-0.2,0.1-0.3,0.2c0.1,0,0.2,0,0.3,0c0,0.3,0,0.6,0.1,0.8c0.1,0.1,0.1,0.3,0,0.4c-0.1,0.2-0.2,0.5-0.3,0.7
			c0.4,0.3,0.4,0.5,0.2,1c-0.1,0.3-0.1,0.5,0,0.7c0,0.1,0,0.1,0,0.2c0,0.1,0.1,0.3,0.1,0.4c0,0.1,0,0.2,0,0.3c0,0.1-0.1,0.2-0.1,0.3
			c0.2,0.4-0.1,0.8-0.1,1.1c0,0.2,0,0.3,0.2,0.3c0.1,0,0.2,0.2,0.3,0.3c-0.6,0.3-0.6,0.3-0.4,0.5c-0.2,0.2-0.2,0.7,0.1,0.9
			c0.1,0.1,0.3,0.2,0.4,0.3c0,0,0.1,0.1,0.1,0.1c0,0.1-0.1,0.1-0.1,0.1c-0.1,0.1-0.2,0.1-0.3,0.2c0,0-0.1,0-0.3-0.1
			c-0.1,0.3-0.3,0.5-0.3,0.8c0,0.3,0.1,0.6,0.2,0.9c0.1,0.1,0.1,0.2,0.1,0.4c0,0,0,0.1,0,0.1c0.1,0.3,0.1,0.7-0.2,1
			c0.1,0,0.2,0,0.3,0c-0.1,0.1-0.2,0.2-0.3,0.3c0.3,0.3-0.1,0.5-0.1,0.7c0.1,0,0.1,0,0.2,0c-0.1,0.2-0.1,0.4-0.2,0.6
			c0,0.1,0,0.2,0.1,0.3c0.1,0.2,0.2,0.3,0.2,0.5c0,0.1,0,0.2-0.1,0.2c-0.1,0.2-0.3,0.3-0.1,0.5c0,0,0,0.2-0.1,0.3
			c0.1,0.1,0.3,0.3,0.5,0.5c-0.1,0-0.2,0.1-0.2,0.1c-0.1,0.1-0.1,0.3,0,0.3c0.3,0,0.1,0.2,0.1,0.3c-0.2-0.2-0.3-0.2-0.5,0
			c0.1,0.1,0.1,0.1,0.2,0.1c0,0.2-0.1,0.4-0.1,0.7c0,0.2,0.1,0.3,0.2,0.5c0.1,0.2,0.3,0.5,0,0.6c0,0.2,0,0.3,0,0.4
			c0,0.3,0,0.5,0,0.8c0,0.1-0.1,0.2-0.1,0.3c-0.1,0.2,0,0.3,0.1,0.3c0,0.2-0.1,0.4-0.1,0.6c0,0.1-0.1,0.3,0,0.4
			c0,0.1,0.1,0.2,0.2,0.2c0.1,0.1,0.1,0.3,0.1,0.4c0,0.1,0,0.3-0.1,0.4c-0.1,0.4-0.1,0.4,0.4,0.4c0,0.2-0.1,0.3-0.1,0.5
			c-0.1,0-0.2,0-0.2,0c-0.2,0.1,0.1,0.4-0.2,0.3c0.1,0.1,0.1,0.1,0.2,0.2c-0.1,0-0.2,0-0.4,0c0.2,0.2,0.3,0.3,0.4,0.4
			c0.1,0.1,0.2,0.2,0.1,0.3c0,0.1-0.1,0.1-0.1,0.2c-0.1,0.2-0.1,0.4,0.1,0.5c0,0.2,0.1,0.4,0.1,0.6c0,0.1,0,0.1,0,0.2
			c0,0.1-0.1,0.2-0.1,0.2c0.2,0.3,0,0.5-0.1,0.8c0,0.3-0.1,0.3,0.2,0.4c0,0.1-0.1,0.3-0.1,0.4c0,0,0.1,0,0.1,0
			c0.1,0,0.1-0.1,0.1-0.1c0.1,0,0.2,0.1,0.3,0.1c0,0,0,0.2-0.1,0.2c-0.1,0.1-0.3,0.2-0.4,0.3c-0.2,0.2-0.2,0.5,0,0.7
			c0,0,0.1,0,0.1,0.1c0,0.3,0.2,0.5,0.5,0.6c0,0,0,0.1,0.1,0.1c-0.2,0.2-0.5,0.5-0.4,0.9c-0.3,0-0.6,0.1-0.9-0.2
			c-0.1-0.1-0.2-0.1-0.4-0.2c-0.1,0-0.3,0-0.5-0.1c0,0,0-0.1-0.1-0.2c0.1,0,0.2,0,0.2,0c0.1-0.1,0.1-0.1,0.2-0.2
			c-0.1-0.1-0.2-0.2-0.3-0.2c0,0-0.1,0.1-0.2,0.2c-0.1,0.2-0.2,0.3-0.5,0.3c-0.3,0-0.7-0.1-1,0.1C96,96.1,95.7,96,95.4,96
			c-0.2,0-0.2,0-0.3,0.2c0,0.1-0.1,0.2-0.3,0.2c-0.2,0-0.4,0-0.7,0c-0.1-0.2-0.3-0.3-0.5,0c-0.1,0.1-0.2,0-0.3,0.1
			c-0.3,0.1-0.6,0.3-0.8,0.4c-0.1,0-0.2,0-0.3-0.1c-0.3-0.1-0.6-0.2-0.9-0.3c-0.2-0.1-0.4-0.2-0.7-0.1c-0.3,0.1-0.6,0-0.9-0.1
			c-0.3-0.1-0.6,0-0.9,0.1c-0.1-0.1-0.2-0.2-0.3-0.4c0,0,0.1,0,0.1-0.1c0-0.1,0-0.3,0-0.4c-0.1-0.1-0.2-0.2-0.3,0
			c-0.1,0.1-0.3,0.2-0.5,0.2c-0.4,0-0.8,0-1.2,0.2c-0.1,0.1-0.3,0.1-0.4-0.1c-0.2-0.2-0.6-0.2-0.8,0C85.2,96,85.1,96,85,96.1
			c-0.2,0.1-0.4,0.2-0.7,0.1c-0.2-0.1-0.5,0-0.9,0c0,0,0-0.1,0-0.1c-0.1-0.1-0.1-0.2-0.2-0.2c0,0-0.2,0.1-0.2,0.2
			c0,0.1,0,0.2,0.1,0.3c0.1,0.1,0.2,0.2,0.4,0.3c0,0,0,0.1-0.1,0.1c-0.2-0.1-0.4-0.2-0.6-0.4c-0.1-0.1-0.2-0.2-0.1-0.3
			c0-0.1,0.1-0.2,0-0.2c-0.1-0.1-0.2-0.1-0.3-0.1c-0.1,0-0.2,0-0.2,0c-0.4-0.3-0.8-0.3-1.2,0.1C81,95.9,80.9,96,80.8,96
			c0-0.2,0.1-0.4,0-0.5c-0.1-0.1-0.3,0-0.4-0.1c0,0-0.1-0.1-0.1-0.1c-0.1,0-0.2,0-0.3,0.1c-0.1,0.1-0.1,0.2,0,0.3
			c0,0,0.2,0.1,0.2,0.1c0.1,0,0.2,0,0.3,0c0,0,0,0.1,0,0.1c-0.1,0-0.3,0.1-0.4,0c-0.5-0.2-0.9,0-1.4,0.2c-0.1,0-0.1,0-0.2,0.1
			c-0.1-0.1-0.2-0.1-0.3-0.2c0,0.2,0,0.4,0,0.5c-0.1,0-0.2,0.1-0.4,0.1c0,0-0.1-0.1-0.1-0.1c0-0.2-0.2-0.3-0.3-0.2
			c-0.2,0.1-0.3,0.2-0.5,0c0,0-0.1,0-0.2,0c0-0.1,0-0.2,0-0.3c-0.1-0.1-0.2-0.2-0.3,0c-0.1,0.1-0.2,0.2-0.2,0.2
			c-0.2-0.2-0.3-0.3-0.5-0.4c-0.1,0.1-0.1,0.2-0.2,0.3c0,0,0,0,0,0c-0.1,0-0.2,0.1-0.3,0.1c0-0.1-0.1-0.1-0.1-0.2c0,0,0.1,0,0.1-0.1
			c0-0.1,0.1-0.2,0.1-0.3c0-0.1-0.2-0.1-0.2-0.2c-0.1,0.1-0.1,0.2-0.2,0.3C75,95.8,75,96,74.9,96.1c-0.7-0.2-0.2,0.4-0.4,0.5
			c-0.1,0-0.1,0-0.2-0.1c-0.2-0.2-0.4-0.2-0.6-0.1c-0.3,0.1-0.6,0.2-0.9-0.1c-0.1-0.1-0.3,0-0.4,0c-0.1,0-0.3,0-0.4-0.1
			c-0.4-0.3-0.8-0.4-1.2,0.1c-0.1-0.1-0.2-0.3-0.3-0.4c-0.1-0.2-0.3-0.1-0.4,0c-0.2,0.2-0.8,0.2-1,0c0-0.1,0.1-0.1,0-0.2
			c0-0.1-0.1-0.2-0.2-0.2c-0.1,0-0.2,0.1-0.2,0.1c0,0.2-0.1,0.2-0.2,0.2c-0.2,0.1-0.4,0.2-0.6,0.3c-0.1,0-0.1,0.2-0.2,0.3
			c-0.1,0-0.2-0.1-0.3-0.1c-0.1,0.3-0.7-0.1-0.7,0.4c-0.1-0.5-0.5-0.3-0.8-0.3c0-0.2-0.1-0.4-0.4-0.4c-0.1,0-0.2-0.1-0.2-0.2
			c-0.1,0-0.2-0.1-0.2-0.1c-0.3,0.1-0.5-0.1-0.8-0.2c-0.3-0.1-0.6-0.1-0.9,0.2c-0.1-0.2-0.4-0.2-0.4-0.5c0,0-0.2-0.1-0.3-0.1
			c0,0.1-0.1,0.3,0,0.4c0,0.1,0.2,0.3,0.3,0.4c-0.3,0-0.6,0.2-0.8-0.1c0,0-0.2,0.1-0.3,0.1c-0.1-0.2-0.2-0.2-0.4-0.1
			c-0.1,0-0.2,0-0.2,0c-0.2-0.3-0.4-0.1-0.4,0.1c-0.2,0-0.4-0.1-0.6-0.1c0,0,0,0,0,0c-0.1-0.1-0.1-0.3-0.2-0.4
			c-0.1,0.1-0.3,0.2-0.4,0.3c0,0-0.1,0.1-0.1,0.1c-0.2,0.1-0.5,0.2-0.7,0.3c-0.1,0-0.3,0.1-0.4,0.1c-0.3,0-0.5-0.1-0.8-0.1
			c-0.1,0-0.1,0.2-0.3,0.3c-0.2,0-0.5-0.1-0.7-0.4c-0.3-0.4-0.5-0.5-1-0.2c0,0-0.1,0-0.1,0c0-0.1-0.1-0.2-0.1-0.3
			c-0.1,0.2-0.2,0.3-0.3,0.4c-0.3,0-0.6-0.1-0.9-0.1c-0.1,0.1-0.1,0.3-0.2,0.4c-0.3-0.4-0.7-0.4-1.1-0.5c-0.4-0.2-0.8,0-1.2-0.1
			c-0.1,0-0.1,0-0.2,0.1c-0.2,0.2-0.3,0.5-0.5,0.7c-0.2-0.1-0.4-0.1-0.5-0.3c-0.4-0.3-0.8-0.4-1.2-0.1c0-0.1-0.1-0.2-0.1-0.3
			c0-0.1-0.1-0.2-0.2-0.2c-0.2-0.1-0.3-0.1-0.4-0.3c-0.1-0.2-0.3-0.1-0.4,0c0,0,0,0,0,0c-0.1,0.1-0.4,0.2-0.4,0.3
			c-0.1,0.3-0.2,0.2-0.4,0.3c-0.1-0.4-0.2-0.3-0.6,0c-0.5-0.3-0.9-0.4-1.4-0.3c-0.2,0-0.4,0-0.6,0c-0.2,0-0.4,0.1-0.6,0.1
			c-0.1,0-0.2,0-0.2,0c-0.6-0.3-0.8-0.2-1.1,0.4c0,0.1-0.1,0.1-0.2,0.3c-0.1-0.3-0.4-0.5-0.1-0.7c0,0-0.1-0.2-0.1-0.3
			c-0.1,0-0.2,0.1-0.3,0.1c-0.1,0.1-0.1,0.2-0.2,0.3c-0.2,0.2-0.3-0.1-0.4-0.1c-0.2,0-0.3-0.1-0.2-0.3c0-0.1-0.1-0.2-0.2-0.2
			c-0.1,0-0.2,0-0.2,0c0,0.1,0,0.2,0,0.3c0,0.1,0.1,0.2,0.2,0.4c0.3,0.1,0.3,0.1,0.3,0.3c-0.2,0-0.3,0-0.5-0.1
			c0-0.2-0.2-0.4-0.4-0.3c0,0-0.1,0-0.2-0.1c-0.2-0.2-0.5-0.3-0.8-0.2c-0.1,0-0.1,0-0.2,0c-0.4,0.1-0.4,0.1-0.5,0.5
			c-0.1,0-0.2,0-0.3-0.1c0-0.2,0-0.4,0-0.6c0-0.1-0.2-0.2-0.3-0.1c-0.2,0-0.3,0.1-0.5,0.2c-0.3,0.3-0.7,0.2-1,0.1c0,0,0,0-0.1,0
			c-0.6,0-0.6,0-0.7,0.6c0,0.1-0.1,0.2-0.1,0.2c-0.1,0-0.2,0-0.3-0.1c-0.1-0.3-0.4-0.3-0.6-0.4c0,0-0.2,0.1-0.2,0.2
			c0,0.1,0,0.2,0,0.3c-0.1-0.1-0.1-0.1-0.2-0.2c-0.1-0.2-0.2-0.3-0.4-0.1c-0.2,0.2-0.2,0.2-0.4,0c-0.1-0.1-0.3-0.2-0.5-0.3
			c-0.1-0.1-0.2-0.1-0.3-0.3c0-0.1-0.1-0.2-0.2-0.2c0,0-0.1,0.1-0.2,0.2c0,0,0,0.1,0,0.2c-0.5,0.1-0.5,0.1-0.3,0.5
			c-0.2,0.1-0.5,0.3-0.8,0.4c-0.1-0.2-0.4-0.3-0.3-0.6c0-0.1-0.1-0.2-0.2-0.2c0,0-0.1,0.1-0.2,0.1c-0.1,0.2-0.7,0.3-0.9,0.2
			c-0.1-0.1-0.2-0.1-0.4-0.1c0,0.1,0,0.3,0.1,0.5c-0.1,0-0.2,0-0.3-0.1c-0.1-0.2-0.2-0.1-0.3-0.1c-0.1,0-0.2,0-0.2,0
			c-0.2-0.2-0.3-0.1-0.6-0.1c0-0.2,0-0.4,0-0.6c0-0.2-0.2-0.3-0.3-0.3c-0.1,0-0.3,0.1-0.4,0.1c-0.4-0.1-0.7,0-0.9,0.4
			c-0.1,0.2-0.2,0.3-0.4,0.4c0,0-0.2,0-0.2,0c-0.2-0.2-0.3-0.3-0.5-0.6c0,0.1-0.1,0.2-0.1,0.3c0,0.1-0.1,0.2-0.1,0.2
			c-0.2,0-0.4,0-0.5-0.1c-0.1-0.2-0.2-0.4-0.3-0.6c-0.1-0.1-0.2-0.2-0.3-0.2c0,0-0.2,0.1-0.2,0.1c0,0.1,0.1,0.2,0.2,0.3
			c0,0.1,0.1,0.1,0.2,0.2c0,0,0.1,0.1,0,0.2c0,0-0.1,0.1-0.2,0.1c-0.3-0.1-0.5,0-0.6,0.3c0,0.1-0.1,0.1-0.3,0.2c0-0.2-0.1-0.3,0-0.5
			c0-0.1,0.1-0.3-0.1-0.3c-0.1,0-0.2,0.1-0.2,0.1c-0.2,0-0.5,0-0.7,0c-0.2,0-0.5,0.1-0.7,0c0,0-0.1,0-0.1,0c0,0.1-0.1,0.2,0,0.2
			c0,0.1,0.1,0.2,0.1,0.2c-0.3-0.1-0.6-0.2-0.9-0.3c0.1,0,0.2,0,0.2,0c0.1,0,0.1-0.1,0.2-0.1c0-0.1-0.1-0.2-0.1-0.2
			c-0.2-0.1-0.4-0.3-0.6,0c-0.1,0.1-0.5,0-0.8,0c-0.2-0.1-0.4-0.2-0.6-0.1c-0.1,0-0.2,0-0.3-0.1c-0.3-0.2-0.7-0.1-0.9,0.1
			c-0.1,0.1-0.2,0.1-0.3,0.2c-0.1,0-0.2,0-0.3,0.1c-0.2,0.2-0.4,0.2-0.6-0.1c0-0.1-0.2-0.1-0.3-0.1c-0.2,0-0.4,0.1-0.5-0.2
			c0,0-0.2,0-0.3,0c0,0.1,0,0.2,0,0.3c0,0.1,0.1,0.1,0.1,0.2C15.5,96.2,15.2,96.3,15,96.5c0-0.1,0-0.2,0-0.3c0,0-0.1-0.1-0.2-0.1
			c-0.1,0-0.1,0.1-0.1,0.2c0,0,0,0.2,0,0.2C14.8,96.5,14.9,96.5,15,96.5z M73.8,95.7c0-0.1-0.1-0.1-0.1-0.2
			c-0.2-0.1-0.4-0.1-0.6-0.1c-0.1,0-0.2,0.1-0.2,0.2c0,0.1,0,0.2,0.1,0.3c0.1,0.1,0.6,0.1,0.7,0C73.7,95.8,73.7,95.8,73.8,95.7z
			 M30.4,95.5c-0.2,0.1-0.3,0.2-0.5,0.3c-0.1,0.1-0.1,0.2,0,0.3c0,0.1,0.2,0.1,0.3,0.1c0.1-0.1,0.3-0.2,0.4-0.3c0.1,0,0.1-0.2,0-0.2
			C30.6,95.6,30.5,95.5,30.4,95.5z M91.8,96.2c0,0,0,0.1,0,0.2c0,0,0.1,0.1,0.2,0.1c0.4-0.2-0.1-0.5,0-0.7c-0.1,0-0.2-0.1-0.3-0.1
			c-0.1,0-0.2,0.1-0.2,0.2C91.6,96,91.7,96.1,91.8,96.2z M5.9,95.8c-0.1-0.1-0.2-0.1-0.3-0.2c-0.1,0-0.2,0-0.3,0c-0.1,0-0.2,0-0.2,0
			c-0.1,0.1-0.1,0.2-0.1,0.3c0,0,0.1,0.1,0.2,0.1c0.1,0,0.2,0,0.2,0.1c0.1,0,0.2,0.1,0.2,0C5.8,96.1,5.8,96,5.9,95.8z M52.6,95.7
			c0.1-0.1,0.2-0.2,0.3-0.3c-0.1-0.1-0.2-0.2-0.4-0.4c-0.1,0.1-0.2,0.2-0.2,0.3C52.3,95.5,52.4,95.6,52.6,95.7z M78.9,95.5
			c-0.2-0.1-0.3-0.2-0.4-0.3c-0.1,0.1-0.2,0.2-0.2,0.3c0,0.1,0.1,0.2,0.2,0.2C78.7,95.7,78.8,95.6,78.9,95.5z M92.6,95.7
			c0.1,0.1,0.2,0.3,0.3,0.3c0.1,0,0.2-0.2,0.3-0.2c-0.1-0.1-0.2-0.2-0.3-0.2C92.8,95.5,92.7,95.6,92.6,95.7z M45.7,95.8
			c0.1-0.1,0.3-0.2,0.3-0.3c-0.1-0.1-0.2-0.2-0.3-0.3c-0.1,0.1-0.2,0.2-0.2,0.3C45.5,95.5,45.6,95.6,45.7,95.8z M65.6,95.6
			c0.2,0.1,0.2,0.2,0.3,0.2c0.1,0,0.2-0.1,0.3-0.2c-0.1-0.1-0.2-0.2-0.3-0.2C65.8,95.4,65.7,95.5,65.6,95.6z M26.1,95.1
			c-0.1,0.2-0.2,0.3-0.2,0.4c0,0.1,0.1,0.2,0.2,0.2c0.1,0,0.2-0.1,0.3-0.2C26.3,95.3,26.2,95.2,26.1,95.1z M53.9,95.9
			c0.1-0.1,0.2-0.2,0.3-0.3c-0.1-0.1-0.2-0.2-0.3-0.3c-0.1,0.1-0.2,0.2-0.2,0.3C53.7,95.7,53.8,95.8,53.9,95.9z M10.3,95.9
			c0.1-0.2,0.2-0.3,0.3-0.3c-0.1-0.1-0.2-0.2-0.3-0.2c-0.1,0-0.2,0.1-0.2,0.1C10.1,95.7,10.2,95.8,10.3,95.9z M31.2,95.7
			c0.1,0.1,0.2,0.2,0.3,0.2c0.1,0,0.2-0.1,0.3-0.2c-0.1-0.1-0.2-0.2-0.3-0.2C31.5,95.4,31.4,95.6,31.2,95.7z M24.2,95.8
			c-0.2-0.1-0.3-0.2-0.4-0.2c0,0-0.2,0.1-0.2,0.2c0,0.1,0.1,0.2,0.2,0.2C24,96,24.1,95.9,24.2,95.8z M58.2,96.3
			c0.1-0.1,0.2-0.2,0.2-0.3c0-0.1-0.1-0.2-0.2-0.2c-0.1,0-0.2,0.1-0.3,0.2C58,96.1,58,96.2,58.2,96.3z M20.4,95.7
			c-0.2-0.1-0.3-0.2-0.4-0.2c-0.1,0-0.2,0.1-0.2,0.2c0,0.1,0.1,0.2,0.2,0.2C20.1,95.9,20.2,95.8,20.4,95.7z M93.8,96.2
			c0.1-0.1,0.2-0.2,0.2-0.3c0-0.1-0.1-0.2-0.2-0.2c-0.1,0.1-0.2,0.1-0.2,0.2C93.7,96,93.8,96.1,93.8,96.2z M84.6,95.9
			c-0.1-0.1-0.2-0.2-0.3-0.2c-0.1,0.1-0.2,0.1-0.2,0.2c0,0.1,0.1,0.2,0.2,0.2C84.4,96.1,84.5,96,84.6,95.9z M95.1,96.2
			c-0.1-0.1-0.2-0.2-0.3-0.2c-0.1,0-0.1,0.1-0.2,0.2c0,0,0.1,0.1,0.2,0.2C94.9,96.3,95,96.2,95.1,96.2z M92.7,96.5
			c-0.1-0.1-0.2-0.2-0.3-0.2c-0.1,0-0.1,0.1-0.2,0.2c0.1,0.1,0.1,0.1,0.2,0.2C92.4,96.6,92.5,96.6,92.7,96.5z M57.1,96.2
			c0.1-0.1,0.2-0.2,0.2-0.3c0-0.1-0.1-0.1-0.2-0.2c0,0.1-0.1,0.1-0.1,0.2C56.9,96,57,96.1,57.1,96.2z M66.8,96.1
			c-0.1-0.1-0.1-0.2-0.2-0.2c-0.1,0.1-0.2,0.2-0.2,0.3c0,0,0.1,0.1,0.1,0.1C66.7,96.3,66.7,96.2,66.8,96.1z"/>
	</g>
</g>
</svg>
