<?xml version="1.0" encoding="utf-8"?>
<!-- Generator: Adobe Illustrator 21.1.0, SVG Export Plug-In . SVG Version: 6.00 Build 0)  -->
<svg version="1.1" id="Layer_1" xmlns="http://www.w3.org/2000/svg" xmlns:xlink="http://www.w3.org/1999/xlink" x="0px" y="0px"
	 viewBox="0 0 47.1 44.2" style="enable-background:new 0 0 47.1 44.2;" xml:space="preserve">
<style type="text/css">
	.st0{fill:#808080;}
</style>
<path class="st0" d="M38.2,42.9c0,0.7-0.5,1.2-1.2,1.2H12.8c-0.7,0-1.2-0.5-1.2-1.2c0-0.7,0.5-1.2,1.2-1.2h24.3
	C37.7,41.7,38.2,42.2,38.2,42.9z M47.1,25.8v13.6c0,2.6-2.1,4.7-4.7,4.7h-1.9c0-2.9-0.5-4.5-3.8-4.5c0,0-23.7,0-23.8,0
	c-3.3,0-3.5,1.6-3.5,4.5H4.7C2.1,44.2,0,42,0,39.4V25.8C0,23.2,2.1,21,4.7,21h32.8v-7.7h-7.3c-1.9,0-3.4-1.5-3.4-3.4V2.6H10.9
	c-0.5,0-0.9,0.4-0.9,0.9c0,0,0,12.8,0,12.8v0.1c0,0.7-0.6,1.3-1.3,1.3c-0.7,0-1.3-0.6-1.3-1.3l0-13C7.5,1.5,9,0,10.9,0h16.6
	c1.1,0,1.9,0.7,2.2,1.1c0.4,0.4,8.8,8.8,9.2,9.2c0,0,1.1,1.2,1.1,2.8V21h2.2C44.9,21,47.1,23.2,47.1,25.8z M19.9,27.6
	c0-0.6-0.5-1.1-1.1-1.1H6.3c-0.6,0-1.1,0.5-1.1,1.1c0,0.6,0.5,1.1,1.1,1.1h12.5C19.4,28.7,19.9,28.2,19.9,27.6z M40.5,27.3
	c0-1.1-0.9-1.9-1.9-1.9c-1.1,0-1.9,0.9-1.9,1.9c0,1.1,0.9,1.9,1.9,1.9C39.7,29.3,40.5,28.4,40.5,27.3z M14.7,10.1h7.5
	c0.7,0,1.3-0.6,1.3-1.3c0-0.7-0.6-1.3-1.3-1.3h-7.5c-0.7,0-1.3,0.6-1.3,1.3C13.4,9.5,14,10.1,14.7,10.1z M14.7,15.5h7.5
	c0.7,0,1.3-0.6,1.3-1.3s-0.6-1.3-1.3-1.3h-7.5c-0.7,0-1.3,0.6-1.3,1.3S14,15.5,14.7,15.5z"/>
</svg>
