<?xml version="1.0" encoding="utf-8"?>
<!-- Generator: Adobe Illustrator 21.1.0, SVG Export Plug-In . SVG Version: 6.00 Build 0)  -->
<svg version="1.1" id="Layer_1" xmlns="http://www.w3.org/2000/svg" xmlns:xlink="http://www.w3.org/1999/xlink" x="0px" y="0px"
	 viewBox="0 0 350 300" style="enable-background:new 0 0 350 300;" xml:space="preserve">
<style type="text/css">
	.st0{fill:#622D50;}
</style>
<g>
	<g>
		<g>
			<path class="st0" d="M279.2,127.6c-1.7,0-3.1-1.4-3.1-3.1v-16h-82.3v16c0,1.7-1.4,3.1-3.1,3.1c-1.7,0-3.1-1.4-3.1-3.1v-22.2h94.8
				v22.2C282.4,126.2,281,127.6,279.2,127.6z"/>
		</g>
		<g>
			<path class="st0" d="M272,278.4h-69.4l-21.5-125.8c-0.3-1.7,0.8-3.3,2.5-3.6s3.3,0.8,3.6,2.5l20.6,120.7h58.9l20.6-120.7
				c0.3-1.7,1.9-2.8,3.6-2.5s2.8,1.9,2.5,3.6L272,278.4z"/>
		</g>
		<g>
			<path class="st0" d="M303.5,153.2h-137v-31.4h137V153.2z M172.7,147.1h124.6v-18.9H172.7V147.1z"/>
		</g>
		<g>
			<path class="st0" d="M235,108c-0.2,0-0.4,0-0.6-0.1c-1.7-0.3-2.8-2-2.5-3.6l6.8-34.7c0.3-1.7,2-2.8,3.6-2.5
				c1.7,0.3,2.8,2,2.5,3.6l-6.8,34.7C237.7,107,236.4,108,235,108z"/>
		</g>
		<g>
			<path class="st0" d="M241.7,73.2c-1.1,0-2.1-0.5-2.7-1.5c-0.9-1.5-0.4-3.4,1.1-4.3l26.3-15.8c1.5-0.9,3.4-0.4,4.3,1.1
				c0.9,1.5,0.4,3.4-1.1,4.3l-26.3,15.8C242.8,73.1,242.3,73.2,241.7,73.2z"/>
		</g>
		<g>
			<path class="st0" d="M284.9,181.8H190c-1.7,0-3.1-1.4-3.1-3.1s1.4-3.1,3.1-3.1h94.9c1.7,0,3.1,1.4,3.1,3.1
				C288,180.5,286.6,181.8,284.9,181.8z"/>
		</g>
		<g>
			<path class="st0" d="M275,242.6h-73.4c-1.7,0-3.1-1.4-3.1-3.1c0-1.7,1.4-3.1,3.1-3.1H275c1.7,0,3.1,1.4,3.1,3.1
				S276.7,242.6,275,242.6z"/>
		</g>
	</g>
	<g>
		<g>
			<path class="st0" d="M149.4,278.4H65.6l-1.6-9.5l-14.8-72.6l-2.5-14.7h34.6l0.4,2.6c2.1,12.7,12.9,21.9,25.8,21.9
				s23.7-9.2,25.8-21.9l0.4-2.6h34.7L149.4,278.4z M70.8,272.1h73.5l16.6-84.4H139c-3.6,14.4-16.4,24.5-31.5,24.5
				s-27.9-10.2-31.4-24.5h-22l1.3,7.4l14.7,72.5L70.8,272.1z"/>
		</g>
		<g>
			<path class="st0" d="M97.8,180.4c-6.2,0-11.2-5-11.2-11.2c0-6,4.8-11,10.8-11.2c1.8-6.4,7.7-11,14.6-11c8.4,0,15.2,6.8,15.2,15.2
				c0,1.7-1.4,3.1-3.1,3.1s-3.1-1.4-3.1-3.1c0-4.9-4-9-9-9c-4.7,0-8.6,3.7-8.9,8.4l-0.2,3.9l-3.7-1.1c-3.3-0.9-6.3,1.6-6.3,4.7
				c0,2.7,2.2,4.9,4.9,4.9c1.7,0,3.1,1.4,3.1,3.1C100.9,179,99.5,180.4,97.8,180.4z"/>
		</g>
		<g>
			<path class="st0" d="M49.7,187.4c-1.7,0-3-1.3-3.1-3c-0.2-5.2,2.1-10.2,6-13.4c-0.1-0.7-0.2-1.4-0.2-2c-0.2-4.4,1.4-8.7,4.4-11.9
				c2.7-2.9,6.3-4.8,10.2-5.2c2.3-9.2,10.3-15.9,20-16.3c1.7-0.1,3.3,0.1,4.9,0.4c2-6.5,7.9-11.2,15-11.5c5.6-0.2,10.9,2.5,14,7
				c2.6-1.5,5.5-2.3,8.5-2.4c9.7-0.4,18,6.9,19.1,16.5c0.1,0,0.2,0,0.3,0c8.9,0,16.2,7.1,16.6,16c0.1,2.9-0.5,5.7-1.8,8.2
				c3.2,3,5.1,7.1,5.3,11.6c0.1,1.7-1.3,3.2-3,3.2c-1.7,0.1-3.2-1.3-3.2-3c-0.1-3.4-1.9-6.6-4.9-8.4l-2.9-1.8l2.1-2.7
				c1.5-1.9,2.3-4.4,2.2-6.8c-0.2-5.7-5-10.2-10.7-10c-0.7,0-1.5,0.1-2.2,0.3l-4.3,1.1l0.4-4.4c0.1-0.6,0.1-1.2,0.1-1.6
				c-0.3-6.8-6-12.2-12.8-11.9c-2.8,0.1-5.6,1.2-7.7,3.1l-3.3,3l-1.6-4.2c-1.6-4-5.5-6.7-9.8-6.5c-5.2,0.2-9.3,4.2-9.7,9.4l-0.4,4
				l-3.9-1.5c-1.9-0.7-3.9-1.1-6-1c-7.5,0.3-13.7,6-14.6,13.5l-0.3,2.9l-2.9-0.2c-0.3,0-0.6,0-0.9,0c-2.8,0.1-5.3,1.3-7.2,3.3
				s-2.9,4.7-2.8,7.5c0,0.9,0.2,1.8,0.5,2.7l0.7,2.3l-2,1.3c-3.2,2-5.1,5.5-4.9,9.3c0.1,1.7-1.3,3.2-3,3.2
				C49.8,187.4,49.8,187.4,49.7,187.4z"/>
		</g>
		<g>
			<path class="st0" d="M84.9,277.5c-1.5,0-2.8-1.1-3.1-2.6L68.4,186c-0.3-1.7,0.9-3.3,2.6-3.5c1.7-0.2,3.3,0.9,3.5,2.6L87.9,274
				c0.3,1.7-0.9,3.3-2.6,3.5C85.2,277.5,85,277.5,84.9,277.5z"/>
		</g>
		<g>
			<path class="st0" d="M100.3,277c-1.7,0-3-1.3-3.1-3l-2.6-66.2c-0.1-1.7,1.3-3.2,3-3.2c1.7-0.1,3.2,1.3,3.2,3l2.6,66.2
				C103.5,275.5,102.1,277,100.3,277L100.3,277z"/>
		</g>
		<g>
			<path class="st0" d="M132.4,277.5c-0.1,0-0.3,0-0.4,0c-1.7-0.2-2.9-1.8-2.6-3.5l12.5-88.8c0.2-1.7,1.8-2.9,3.5-2.6
				c1.7,0.2,2.9,1.8,2.6,3.5l-12.6,88.8C135.2,276.4,133.9,277.5,132.4,277.5z"/>
		</g>
		<g>
			<path class="st0" d="M116.2,277L116.2,277c-1.8-0.1-3.2-1.5-3.1-3.2l2.6-66.2c0.1-1.7,1.5-3.1,3.2-3s3.1,1.5,3,3.2l-2.6,66.2
				C119.2,275.6,117.9,277,116.2,277z"/>
		</g>
	</g>
</g>
</svg>
