<?xml version="1.0" encoding="utf-8"?>
<!-- Generator: Adobe Illustrator 21.1.0, SVG Export Plug-In . SVG Version: 6.00 Build 0)  -->
<svg version="1.1" id="Layer_1" xmlns="http://www.w3.org/2000/svg" xmlns:xlink="http://www.w3.org/1999/xlink" x="0px" y="0px"
	 viewBox="0 0 31 31.1" style="enable-background:new 0 0 31 31.1;" xml:space="preserve">
<style type="text/css">
	.st0{fill:none;stroke:#335063;stroke-miterlimit:10;}
	.st1{fill:#335063;}
</style>
<path class="st0" d="M30.3,11.9c-0.1-0.5-0.5-0.8-1-0.8l-9.1-0.9l-3.7-8.8c-0.2-0.4-0.6-0.7-1.1-0.7c-0.5,0-0.9,0.3-1.1,0.7
	l-3.7,8.8L1.6,11c-0.5,0-0.9,0.4-1,0.8c-0.1,0.5,0,1,0.3,1.3l6.9,6.4l-2,9.4c-0.1,0.5,0.1,1,0.5,1.2c0.4,0.3,0.9,0.3,1.3,0.1
	l7.9-4.9l7.9,4.9c0.2,0.1,0.4,0.2,0.6,0.2c0.2,0,0.5-0.1,0.7-0.2c0.4-0.3,0.6-0.8,0.5-1.2l-2-9.4l6.9-6.4
	C30.4,12.8,30.5,12.3,30.3,11.9z"/>
<path class="st1" d="M5.9,28.9c-0.1,0.5,0.1,1,0.5,1.2c0.1,0.1,0.2,0.1,0.2,0.1v-4.6L5.9,28.9z"/>
<path class="st1" d="M1.6,11c-0.5,0-0.9,0.4-1,0.8c-0.1,0.5,0,1,0.3,1.3l5.6,5.2v-7.8L1.6,11z"/>
<path class="st1" d="M10.8,10.1l-4.2,0.4v7.8l1.3,1.2l-1.3,6.1v4.6c0.3,0.1,0.7,0.1,1.1-0.1l4.9-3V5.9L10.8,10.1z"/>
<path class="st1" d="M16.6,1.3c-0.2-0.4-0.6-0.7-1.1-0.7c-0.5,0-0.9,0.3-1.1,0.7l-1.9,4.6v21.3l3-1.8l3,1.8V5.9L16.6,1.3z"/>
<path class="st1" d="M18.5,5.9v21.3l4.9,3c0.2,0.1,0.4,0.2,0.6,0.2c0.2,0,0.3,0,0.5-0.1v-4.6l-1.3-6.1l1.3-1.2v-7.8l-4.2-0.4
	L18.5,5.9z"/>
<path class="st1" d="M30,13.2c0.3-0.3,0.5-0.8,0.3-1.3c-0.1-0.5-0.5-0.8-1-0.8l-4.9-0.5v7.8L30,13.2z"/>
<path class="st1" d="M24.7,30.2c0.4-0.3,0.6-0.8,0.5-1.2l-0.7-3.3v4.6C24.5,30.3,24.6,30.2,24.7,30.2z"/>
</svg>
