<svg id="Layer_1" data-name="Layer 1" xmlns="http://www.w3.org/2000/svg" xmlns:xlink="http://www.w3.org/1999/xlink" viewBox="0 0 10 85.94"><defs><style>.cls-1{fill:#fff;}.cls-1,.cls-3{fill-rule:evenodd;}.cls-2{mask:url(#mask);}.cls-3{fill:#00aca0;}</style><mask id="mask" x="-687" y="-0.75" width="697" height="87" maskUnits="userSpaceOnUse"><g id="mask-2"><polygon id="path-1" class="cls-1" points="-687 -0.75 10 -0.75 10 86.25 -687 86.25 -687 -0.75"/></g></mask></defs><g id="Round-1"><g id="Home_slider1" data-name="Home slider1"><g id="section_1" data-name="section 1"><g id="Group-3-Copy"><g class="cls-2"><path id="Fill-1" class="cls-3" d="M-.73-.5l-.52,0a2.08,2.08,0,0,1,.52,0ZM0-.18c-1,0-1.09,0-.94-.12-.08,0-.12,0,0,0l.07,0,.08.06L0-.18ZM1.65,19.3c-.6.06-.83-.05-1.64,0a5.78,5.78,0,0,1,1.64,0ZM1.65,6C1.05,6.08.82,6,0,6A6.05,6.05,0,0,1,1.65,6ZM.71,7s.29,0,.43,0l.28,0c.24,0,.25.05.14.07A6,6,0,0,1,.71,7Zm1.74.2,1.15,0a9,9,0,0,1-.91,0c-.26,0,.45,0,.14.08-.59,0-.59,0-1.7,0L.69,7.3a17.64,17.64,0,0,1,1.76-.14Zm0,.32c.19,0,.21,0,.11.08a6.69,6.69,0,0,1-.89,0,3.3,3.3,0,0,1,.78-.07ZM2.68,23A5.3,5.3,0,0,1,1.37,23c-.06,0,.23,0,.32-.07ZM3,21.42l-.76,0-.39,0a7.35,7.35,0,0,1,1.15,0ZM1.61,51.67H2.79l.44.07c-.24,0-.64,0-.91,0l.22.06a18.36,18.36,0,0,1-1.92,0l1-.11Zm.15-4.53a.56.56,0,0,1,.16,0,1.79,1.79,0,0,1-.59,0c-.06,0,.29,0,.43,0Zm.85.14a4.18,4.18,0,0,1-1,0,5.57,5.57,0,0,1,1,0ZM2,51.44a2.2,2.2,0,0,1-.63,0,1.84,1.84,0,0,1,.63,0Zm1.29,0a2.2,2.2,0,0,1-.63,0,1.84,1.84,0,0,1,.63,0ZM1.89,52A4,4,0,0,1,1,52a7.1,7.1,0,0,1,.92,0Zm0,2.86H1a3.4,3.4,0,0,1,.91,0Zm1.32-1.36c-.05.08-.65.09-.62.14s-.19.1-.78.14l-.59-.08a10.48,10.48,0,0,1,2-.2Zm-.63-.19a3.68,3.68,0,0,1-.94,0,7.22,7.22,0,0,1,.94,0Zm-1.45,14c.4.08-.16.09-.31.14-.41-.08.15-.1.31-.14Zm-687.63-31,.35,0s-.18-.09.36-.1c-.06,0,.17.09-.36.1-.05,0,0,.09.13.13a2.32,2.32,0,0,0,1.31-.33c-.06,0-1.44.08-1.79.13s0,.05,0,.05Zm0-2.26a3.67,3.67,0,0,0,.71.07c0-.09.5-.19.81-.28-1,0-.47.19-1.17.19.07,0,0-.07-.2-.09h-.15Zm0-.56c.18,0,.35,0,.35-.07.34,0,.41,0,.21,0l-.56,0Zm0-16.3c1.16-.06.08-.2,0,0Zm0-6.62s0,.08.1.12c1.18-.07.75-.13-.1-.15Zm0-.91c.22,0,.35,0,.35-.09.19,0,1.2,0,.58-.09-.25,0-.68,0-.93.08s0,.1,0,.1Zm0-5.51a.46.46,0,0,0,.16.08c.32-.05,0-.14.54-.16a2.56,2.56,0,0,0-.67,0s0,0,0,.06Zm0-1.19a8,8,0,0,0,.87,0c-1.12.05,0-.1-.76-.09,0,0,.06,0-.11,0s0,.11,0,.11Zm2.86-3.7-.18.08a10.77,10.77,0,0,0,1.61,0c-.14.06-.17.12-.12.18a6.34,6.34,0,0,1,1.64,0s.28-.15.14-.17a7,7,0,0,1-1.39-.12c-.58,0-1.7,0-1.7,0Zm62,0c.08.06.12.09.62.13h.57c-.15,0-.68-.08-1-.14Zm16.36,0c-.07,0,0,.05.15.06.52,0,.33,0,0-.06Zm25.09,0s.12.05.31.07l-.48,0,.56,0a1.41,1.41,0,0,0,.47-.11,1.81,1.81,0,0,1-.68,0Zm127.74,0c-.71.15-.39.08.35.12-.17,0-.23-.07-.22-.12Zm72.79,0c-.56,0-1.08.12-.75.19s.21-.06.22-.06a4.12,4.12,0,0,0,.67-.09c.15.07.19,0,.68,0a2.34,2.34,0,0,0-.45-.06Zm1.4,0a.76.76,0,0,1-.2.06c.15,0,1,0,.3-.06ZM-348-.61c.11,0,2.74,0,1.47-.1a2.58,2.58,0,0,1-1.23,0Zm108.09,0h0Zm52.41.09c0,.09.27,0,.19,0s.88-.11.81-.08ZM-2.38,85.36c-.64.1-.39,0-.13-.06s.42,0,.13.06Zm-2-.33a6.88,6.88,0,0,1-2.86,0c-.3-.35,2-.23,3.09-.06-.13.06-.2.08-.23.07ZM-8.9-.1a2.65,2.65,0,0,1,.52,0ZM-26.73,85.47c-.94.1-2.64.1-2.11-.1a4.38,4.38,0,0,1,2.43.06c-.25,0-.33,0-.32,0ZM-33,85.26a8.31,8.31,0,0,1-2.45.08c-.62-.11.18-.34,1.5-.29.35,0,.88.13,1.13.17-.12.07-.18.07-.18,0Zm-6.31-.19a7,7,0,0,1-3,0c-.77-.35,1.77-.27,3.1-.12-.05.07-.1.09-.14.08ZM-43.88-.21l.35-.06.44,0a2.36,2.36,0,0,1-.79,0Zm.14,86c-1.17.07-2.87,0-1.86-.17,1.38-.24,2.22-.06,2.24.14-.34,0-.4,0-.38,0ZM-46.49,0l.09,0c.67-.12,1.66.08,1.21.18-.75.17-1.38-.09-1.3-.16Zm-2.58,85.66-.35,0c3.13-.61,3.89.32.35,0ZM-48.21,0c.35.05,1,.19-.19.13,0,0-.26-.08.19-.13Zm-1.46,85.05c2-.15,2.36.06,2.28.27-.53,0-.61,0-.53,0-1.83.08-4.11-.14-1.75-.3ZM-53.7.22c-.48,0-.54-.07-.21-.13,0,0,.94.1.21.13Zm-1,85.31c-.28,0,.38-.09.65-.08a2.2,2.2,0,0,1-.65.08Zm-.79-.31c-.58.1-.37,0-.13-.06s.4,0,.13.06ZM-56.83-.11s.67,0,1.11,0c0,.11-.67.07-1.11,0ZM-65,.21c-1.17,0-.59-.12.3-.16h.07c1,0,.29.18-.37.16Zm-17.83,0a3.5,3.5,0,0,1,.53,0l-.53,0ZM-84,0a1.45,1.45,0,0,1,.43,0H-84Zm-1.82.16c-.19-.07.68-.1,1-.13-.3,0-.42,0,0,0,0,0,.12,0,.1,0l.29,0,1.46.06a15,15,0,0,1-2.91.07Zm-1.08-.25c.11,0,.43,0,.25,0-.39,0-.47,0-.25,0ZM-99.38,85.28c-.87.13-2.42.13-2.3-.07s2-.14,2.57,0c-.28.07-.32.06-.27,0Zm-4.15-85c-.81.14-1-.08-.72-.15h.11c.8-.07.93.1.61.16ZM-105.61,0s.94,0,1.51,0a3.59,3.59,0,0,1-1.51,0Zm.06.2-.51,0h0s-.33,0-.27,0l.27,0s0-.07.44-.1c.18,0,.2.09.07.12Zm-3.61,85.31c.23.07,0,0,0,0a3,3,0,0,1-.53,0,3.26,3.26,0,0,1,2.61-.2c.7.2-.9.49-2.08.16ZM-112.06.14a1.92,1.92,0,0,1,.49,0h-.49Zm.81.28c-.55,0-.79,0-.74-.11s1.22,0,.74.11ZM-126,.49s1.21.05.65.11-.77,0-.65-.11ZM-124.47,85a6.9,6.9,0,0,1-2.86,0c-.77-.34,1.68-.26,3-.11,0,.07-.09.08-.12.07Zm-3.38.09c-1.36.12-3.34.06-2.67-.17a5.54,5.54,0,0,1,3.14.11,3.84,3.84,0,0,1-.47.06ZM-134.62.61c-.56,0-.81,0-.76-.1s1.24,0,.76.1Zm-.89-.39c.59.09-.86,0,0,0Zm-3.94.1c-.1,0,.9,0,.39.09s-.52,0-.39-.09Zm.48,84.62c-1.32.13-3.32.07-2.7-.15a5.63,5.63,0,0,1,3.16.1,2.2,2.2,0,0,1-.46,0ZM-144.84.39c.25,0,.36,0,.32.08-.73,0-.48-.12-.32-.08Zm-.68-.17a3.21,3.21,0,0,1,.76,0,5.16,5.16,0,0,1-.76,0Zm-13.4,0-.53,0a2,2,0,0,1,.53,0Zm1.81,85c-.8.15-2.42.16-2.44,0s1.93-.17,2.7,0c-.25.07-.29.07-.26,0ZM-164.18.38c.59,0,1.25,0,1.86,0-.07.17-1.1.11-1.86,0Zm1.36-.37c-.13.09.12.12-1.21.15.06-.1.28-.13,1.21-.15Zm1.21,85.1c-1.34.13-3.33.07-2.69-.16a5.73,5.73,0,0,1,3.15.11,2.2,2.2,0,0,1-.46,0ZM-173.07.54a1.73,1.73,0,0,1,.58,0l-.58,0Zm-.83,84.55a10.85,10.85,0,0,1-3,0s-.44,0,0,0c-2.19.24-3.62-.18-1.92-.31a13.23,13.23,0,0,1,2.33,0c1,0,3.83,0,2.63.24Zm-2.86.64c-.48.08-.31,0-.12,0s.33,0,.12,0ZM-184.35.27c-1.3.08-1.56-.09-.16-.12h0c.08,0,1,.06.16.12ZM-185.81,0A2.53,2.53,0,0,1-185,0l-.41.08-.42,0ZM-198.5,0c-.1,0-.16,0-.06,0h.1l.63-.06c.24.08-.21.09-.67.07Zm-6.66,0,.87,0c-.07,0-1.35.1-.87,0Zm-3.44.46c-.49,0-.71,0-.67-.1s1.08,0,.67.1Zm-6.48-.29s1,0,1.51,0a3.66,3.66,0,0,1-1.51,0Zm-8.16-.15a1.12,1.12,0,0,1,.56,0c.11,0,.14-.06.1-.09l.33.09a.26.26,0,0,1,.16,0c1.55.07-.19.09-1.15,0Zm-1,85.39c.28,0,.76,0-.15,0,0,0-.55,0,0,0a4.15,4.15,0,0,1,2.21-.26c-.59.11.72.4-2.09.28Zm-2-.52a7.3,7.3,0,0,1-3,0c-.67-.35,1.85-.26,3.13-.1a.2.2,0,0,1-.15.08ZM-231,.21l1.42.1A2.3,2.3,0,0,1-231,.21Zm-7.87.11c.56,0,1.22,0,1.79,0a4.41,4.41,0,0,1-1.79,0Zm-4.67-.2a3.64,3.64,0,0,1,.89.05h0s0,0,0,0,0,0,0,0h.43a7.2,7.2,0,0,1-1.33-.06Zm-4.78-.21.4,0c-.05,0-.66,0-.4,0Zm-6.27.27a3.6,3.6,0,0,1,.81,0,3.66,3.66,0,0,1-.81,0Zm-1.84-.24a3.74,3.74,0,0,1,.67,0c-.19.07-1,0-.67,0Zm.21.49c-.52,0-.67-.07-.45-.13,0,0,1.08.08.45.13ZM-266.37.11a1.16,1.16,0,0,1,.4,0c-.46,0-.6-.06-.4,0Zm-2.07,85.24c-1.87.1-4.34-.12-2-.3,2.05-.17,2.49,0,2.5.26-.53,0-.61,0-.53,0ZM-275.92,0c-.11,0-.17,0,0,0l-.08,0,.24,0,.84,0a2.49,2.49,0,0,1-1,0Zm-2,.21q.35,0,.3.06c-.66,0-.44-.1-.3-.06Zm-2.52,85.26c-.49,0-.56,0-.48,0-1.71.08-3.75-.12-1.56-.28,1.89-.14,2.16.07,2,.25Zm-4.46.29c-.52.11-1.89.17-1.94,0s1.26-.17,2.1,0c-.1,0-.15,0-.16,0Zm-3.05-.42c-.86.13-2.4.13-2.3-.06s1.94-.14,2.57,0c-.28.07-.32.06-.27,0Zm-2.35-85,.58.08s.17,0,.18,0c1.43,0-.18.17-.76-.08ZM-288,0a5,5,0,0,1,.66.06,10.54,10.54,0,0,1-1.71,0A4.14,4.14,0,0,1-288,0Zm-6.1,0h0l-.08,0,.08,0s-.18,0,0-.06.72.08,0,.07Zm-1.51.1c-.37,0-.54,0-.5-.08s.88,0,.5.08Zm-7.29,0a3.39,3.39,0,0,1,1-.08,5,5,0,0,1,.66.06,12.82,12.82,0,0,1-1.67,0Zm-.17.07a3.55,3.55,0,0,1,1.08,0,8,8,0,0,1-1.08,0Zm-1,.09.58.07a1.07,1.07,0,0,1,.18,0c1.4,0-.16.17-.76-.07Zm-5.66,85.16c-.43,0,.06-.11.25-.11s.14,0,.72,0a9,9,0,0,1-1,.07Zm-2.8-.51a5.55,5.55,0,0,1,3.08.1,2,2,0,0,1-.43.05c-1.29.13-3.23.07-2.65-.15Zm-1-85c-.06,0-.26-.06-.21-.06.53,0,.64,0,.21.06ZM-315-.26a2.08,2.08,0,0,1,.42,0l-.42,0Zm-.65.29c-1.54.1-.91-.14-.29-.2h.14c1.11,0,.86.15.15.2Zm-6.28,84.82c-1,0-.65-.35.67-.39a10,10,0,0,1,2.08.1c3.35.43-3,.36-2.75.29ZM-331.44-.09s.65,0,1,0a1.82,1.82,0,0,1-1,0Zm-.17,85.37h0c-.38.13-.46,0-.28,0,.35,0,.44,0,.28,0ZM-334.9.09c-1.16.07-.79-.12-.52-.18.11,0,.12,0,.11,0,.87-.08,1.29.13.41.18Zm-1.92-.1-.53,0h0a1.68,1.68,0,0,1-.29,0l.29,0s0-.08.49-.1c.18,0,.2.08,0,.13Zm-3.13-.15c.32,0,.5,0,.53.07-.82,0-.78-.11-.53-.07Zm-.18-.42c.33,0,.34.06,0,.08-.1,0-.62,0,0-.08Zm-.62.11h0s0,0,0,0a0,0,0,0,1,0,0c-.75-.06.79,0,0,0Zm-1.18.31c-.3,0-.24-.08.19-.12,0,0,.5.12-.19.12Zm-.49-.12c-.34,0-.37-.07-.08-.11s.47,0,.46,0c-.38,0,0,0-.38.06ZM-594-.15h.49c.25.05-.14.07-.49,0Zm63.86,0,.53-.06.46,0a6.26,6.26,0,0,1-1,0Zm6.81.11a1.91,1.91,0,0,1,.43.06,8.65,8.65,0,0,1-1.34,0,5.53,5.53,0,0,1,.91,0Zm-.94-.08a2.23,2.23,0,0,1,.8,0,2.31,2.31,0,0,1-.8,0Zm69.71-.16s.37.11-.06.11a5.33,5.33,0,0,1-1.13-.13,6.6,6.6,0,0,1,1.19,0Zm22.37-.1.43,0c.42,0,.13.06-.43,0Zm86.89,0,0,0s-.36,0-.33-.06c.24,0,1,0,.34.06h0s.09,0,0,0Zm-14.3.36.39,0h1.27a3.75,3.75,0,0,1-1.66,0Zm-4-.21c-.57.15-1.69-.1-.48-.09.67,0,.72,0,.48.09Zm-2.89,85.09c-1.12.15-3.12.13-2.8-.1.47-.36,2.48-.16,3.17,0a1.22,1.22,0,0,1-.37.06ZM-371.68-.29a5.85,5.85,0,0,1,.71,0,11.56,11.56,0,0,1-1.55,0,2.19,2.19,0,0,1,.84-.1Zm-1.7.27.4,0h1.32a3.84,3.84,0,0,1-1.72,0Zm-2,.08c-2,0,.58-.31.92-.23.54,0,0,.24-.92.23Zm-1.29-.35c0,.07-.21.21-.83.09a2.34,2.34,0,0,1,.82-.09s0,0,0,0a3.16,3.16,0,0,1,.53,0s.31,0,.14.06a1.42,1.42,0,0,1-.62-.07ZM-378.6,0a1.22,1.22,0,0,1,.46.05c-.61,0-.69-.08-.46,0Zm-.67-.28c.25,0,.82,0,.68.06a2.71,2.71,0,0,1-.68-.06ZM-380.79,85c-.67.11-.39,0-.13-.06s.44,0,.13.06ZM-391.73-.19a1.88,1.88,0,0,1,.43,0ZM-400-.32a1.51,1.51,0,0,0-.35,0h0c-.06,0-.67,0,.35,0ZM-397.64,85a7.2,7.2,0,0,1-3,0c-.63-.36,1.91-.26,3.21-.09-.09.07-.14.08-.18.07ZM-405.58-.47s.27,0,.27.06a6.46,6.46,0,0,1-1.09,0l.82,0Zm-1.85.09s.62.06.85.11c-.83.06-.91,0-.85-.11Zm-1.78.13c-.32,0-.45,0-.42-.06s.73,0,.42.06Zm-3.6.14a2.87,2.87,0,0,1,.68.05c-.61,0-1-.07-.68,0Zm-.72-.27c-.39,0-1.36-.12-.32-.14q-.21.12.27.06s.66.05.05.08Zm-6.83.34a1.31,1.31,0,0,1,.54.07c-.79,0-.81-.11-.54-.07Zm0-.22h-.47a2.27,2.27,0,0,1,.47,0Zm-2,0c-1.11,0-1.32-.17.54-.13,0,0,1,.14-.54.13Zm-5.36.09a1.17,1.17,0,0,1,.46,0l-.46,0Zm-.44-.05c-.31,0-.46,0-.47,0s.74,0,.47,0Zm-7-.24s.49,0,.75,0c-.1.07-.34.06-.75,0Zm-.08.27h0s-.15.06-.16,0l.15,0c-.05,0-.28-.07,0-.11s.51.06.54.11Zm-4.52.15c-.45,0-.55-.06-.32-.11,0,0,.88.07.32.11Zm-2.95,0,.84,0c-.14,0,0,0,.11,0,.85-.13,1.15.11-.95,0ZM-447,0a2.83,2.83,0,0,1,.58,0L-447,0ZM-464.6,85.06c-1,.16-2.94.16-2.83-.07s2.29-.18,3.14,0c-.22.06-.3.07-.31.06Zm-7.53,0c-.24.08-2.2.17-2.13.21h0a15.61,15.61,0,0,1-2.86.06c-.72-.08-.26-.22.53-.34-.16,0,2-.14,2-.14,1.23-.06,3.16,0,2.48.21Zm-2.44.49a1.59,1.59,0,0,1,.52,0c-.05,0-.76.15-.52,0Zm-1.19.07a4.07,4.07,0,0,1-2.18.09c-1.09-.26.69-.25,2.17-.15.08,0,.06.06,0,.06Zm-7.66-.28c-.28,0,.48-.09.76-.08a2.91,2.91,0,0,1-.76.08Zm-13-85.28c-.4,0-.58,0-.55-.07s.88,0,.55.07Zm-4.82,85.12c-.33.12-.43,0-.27,0,.32,0,.42,0,.27,0Zm-.89-.37c-1.15.15-3.17.12-2.85-.11.5-.36,2.54-.16,3.23,0a1.3,1.3,0,0,1-.38.06ZM-506.26.1c-.14,0-.22,0,0,0l-.11,0,.29,0,1.05,0a3.07,3.07,0,0,1-1.2,0ZM-513.48,85a6.68,6.68,0,0,1-2.82.07c-1.06-.33,1.46-.28,2.89-.15,0,.07,0,.08-.07.08Zm-5.77-85s.58,0,.91,0a2.16,2.16,0,0,1-.91,0Zm1.64,85.18c-1.12.14-3,.11-2.67-.11a5.92,5.92,0,0,1,3,0,1.22,1.22,0,0,1-.37.06ZM-525.29.14a7.79,7.79,0,0,0,.88.06c-.14,0,0,0,.35,0-1.2.13-.79,0-1.23-.1ZM-526,0c.29,0,.44,0,.45.06-.75,0-.67-.1-.45-.06Zm-2,.26.7,0c-.66.08-1.21-.07-.7,0Zm-1.57.1c-.51,0-.63-.06-.35-.13,0,0,1,.09.35.13Zm-4.28,85.29c4-.06-.84.53,0,0Zm-.9-.15a4.27,4.27,0,0,1,2.35,0c-.22,0-.29,0-.29,0-.82.11-2.43.12-2.06-.07ZM-538,.11a1.63,1.63,0,0,1,.45,0l-.45,0Zm-4.71,0h0l-.12,0,.12,0s-.17,0,.07-.08.73.11-.06.08Zm-.77-.14h0l.18,0c.26,0,0,.09-.19.05h0l0,0h0l0,0Zm-.29,85.38c-.28,0,.58-.08.86-.06a4.41,4.41,0,0,1-.86.06ZM-545.36-.15c.65,0,.66.14,0,.18-.26,0-.35-.08-.25-.14s.05,0,.23,0ZM-543.95,85a6.47,6.47,0,0,1-2.78.06c-.86-.33,1.56-.26,2.88-.12a.08.08,0,0,1-.1.06ZM-546,.17c-.32,0-.38-.05-.19-.08-.1,0,.7.05.19.08Zm-.41-.23h0l.37,0c-.12,0-.32,0-.45,0a.13.13,0,0,1-.09,0l.08,0c-.12,0-.18,0,0,.06-3,.15.57-.34.13-.12Zm-1.45,0c-.5.07-1.09,0-.69-.09s1,.05.69.09Zm-1.44,0s0-.07.54-.08c.57.24-1.13.06-.54.08Zm0,.22c-.29,0-.37,0-.24-.07-.08,0,.66,0,.24.07Zm-2,0-.36-.06c-.07,0,.64,0,.36.06Zm-15.51.2.64.05c-.7.07-1.12-.07-.64-.05Zm-.69-.22c.36,0,1,0,.8.09a4.25,4.25,0,0,1-.8-.09Zm-13.11,85.5c-1,.1-2.63.09-2.06-.1a4.19,4.19,0,0,1,2.39.06c-.27,0-.35,0-.33,0Zm-2.19.29s-.52,0,0,0,0,0,0,0ZM-583.2,0a2.08,2.08,0,0,1,.42,0l-.42,0Zm.56.11s1.13.06.56.12-.71-.06-.56-.12Zm0,85.12c-.75.1-.37,0-.07-.06s.42,0,.07.06Zm-2.77.59c-.32,0-.41,0-.26,0s.74,0,.26,0Zm-.21-.55c.34,0,.37,0,.12.06-.55.09-.34,0-.12-.06ZM-589.81.07h0l-.22,0,.23,0s0,0,.38-.07c.14,0,.14.07,0,.1l-.41,0Zm-4.5-.08a2.36,2.36,0,0,1,.63.05c-.62,0-.94-.07-.63,0ZM-608,.21c-.52,0-.74,0-.66-.11s1.16,0,.66.11Zm-4.42,0c.54,0,1.1,0,1.67-.06.11.16-.91.12-1.67.06Zm1,84.69a6.51,6.51,0,0,1-2.83.08c-1.1-.33,1.44-.29,2.89-.16,0,.07,0,.09-.06.08Zm-5-84.73a2.59,2.59,0,0,1,.56,0Zm-1.88-.34s.59,0,.85.05a1.8,1.8,0,0,1-.85-.05Zm-.52.09a12.56,12.56,0,0,1,1.54.08c.5.13-2.38.08-1.54-.08Zm-2,0a1.16,1.16,0,0,1,.4.05c-.53,0-.6-.07-.4,0Zm-8.56.1a1.68,1.68,0,0,1,.5,0l-.5,0Zm-5,.08,1.71,0a3.85,3.85,0,0,1-1.71,0Zm-11.26-.68c.15.09-.49.07-1,0,.68,0,.47,0,.51,0a.93.93,0,0,0,.44,0Zm-.94,85.7c.23.08-.74.12,0,0-1,.16-3.17.16-2.7-.08a5.44,5.44,0,0,1,2.63,0c4.74-.4,2,.79.07.08ZM-649.52-.36l.39,0a6.37,6.37,0,0,1-1,0l.59,0Zm-1.26.14s.65,0,1,0a1.86,1.86,0,0,1-1,0Zm-4.33.3s.15,0,.44,0l-.44.05Zm-2.37.1c-1.71,0-.52-.17.22-.21h.14c1.15,0,.43.19-.36.21Zm-2.78-.47h0s-.09,0,.34,0c.08,0,0,.07-.34,0Zm-7.13,0a2.05,2.05,0,0,1,.51,0l-.51,0Zm-.26.09a4,4,0,0,1,.84-.08c-.19,0,.31,0,.45,0,.52,0-.77.13-1.29.08Zm-.3-.13h0s-.29,0-.21,0h.22a2.59,2.59,0,0,1,.5,0,.79.79,0,0,1-.52,0Zm-14.64,35.61c-.65,0-1.38,0-1.43-.13s.26-.19,1-.14c-.26,0,.36.29.43.27Zm-.45-1.17c-.51-.08-1.55-.2-.6-.3,0,.14,1.1.11.6.3Zm2.3-6.58v-.19c.83.11.64.09,0,.19Zm-.63-2.61c-.19,0,.1-.18.4-.19s.23.15-.4.19Zm.34-.47c0-.08,0-.08.59-.11.05.06-.25.08-.59.11Zm1.14-1.77c-.46-.09.18-.1.33-.15.46.09-.17.1-.33.15Zm0-.81c-.66,0,.69-.19.73-.2s-.12.23-.73.2Zm-.76-3-.3-.09c1.07-.09.78,0,.3.09Zm.22-2.56a1.84,1.84,0,0,0-.56.22c-.16-.05-.77-.33.56-.22Zm.62,1h-.14s0,0,0,0h0c-.09,0-.13,0-.12,0-.5-.1,0-.12.15-.16.54.07,0,.09,0,.15s.17,0,.16,0ZM-681.1,14H-682c.51,0,.75-.08.86,0Zm-.54-2.83a3.67,3.67,0,0,1-.94.06,6,6,0,0,1,.94-.06Zm-.78-5.7c-.45,0,0-.08,0-.09.25,0,.23.07,0,.09ZM-681,.66c-.24,0-.23-.06.06-.09.45,0,0,.09-.06.09Zm-.32.43c-.28-.05-.28-.1,0-.14s.28.09,0,.14Zm-1.13-.15c-.13,0-.16,0-.12-.07.58,0,1.12,0,1.61-.08a15,15,0,0,1-1.49.15ZM-678,18.32a1.71,1.71,0,0,1-.81.2c-.14-.13-.14-.13.81-.2Zm-1.15-2.52h.55a4.93,4.93,0,0,1-1,.17c-.29,0,.32-.14.43-.18ZM-680,10l-.72.06c-.45-.06.34-.22.72-.06Zm.85,2.93c-.73,0,.64-.18.72-.2s-.18.23-.72.2Zm-.13-3.27a2,2,0,0,1,.81-.2c.14.13.14.13-.81.2Zm.68-3.45a3.63,3.63,0,0,1-.95.21c-.15-.13-.15-.13.95-.21Zm-1.27-4.15L-679,2c.07.07-.35.1-.88.11Zm.46,2.86c.15.09-.42.12-.45.22-.36-.12-.22-.18.45-.22Zm-1.26-2.16q-.2,0-.12-.09h.71a2,2,0,0,1-.59.09Zm1,.24c.15.08-.07.11-.69.08a2.52,2.52,0,0,1,.69-.08ZM-681,8.37c.4.12-.43.12-.32.23a11.53,11.53,0,0,0-1.36-.09A7.14,7.14,0,0,0-681,8.37Zm-.16-.8a5.67,5.67,0,0,1,1-.18c.09.12-.32.15-1,.18Zm.24.66c0,.07,0,.07-.48.06l.48-.06Zm-1.19,1.53a1.41,1.41,0,0,1-1.19.13c-.17,0,.36-.24.34-.3s-.46-.16-.4-.24A5,5,0,0,1-682.22,9c.5-.09,1.71-.12,2.06-.21A2,2,0,0,0-680,9a7.61,7.61,0,0,1,1,.08c-.34.06-.82,0-1.21.06h.44a1.17,1.17,0,0,1-.43.08c-.18,0-.24,0-.22-.07l-1.31.18c.24.08-.8.11-.41.21.22.05,1,0,1.19.06s1.11-.18-.07-.1c-.4-.12.43-.22,1.17-.13s.12.06.21.17-1.6.44-1.18.17c-.41-.07-.85.09-1.24,0Zm.94.86s.25-.08.59-.11c0,.08,0,.08-.59.11Zm.55,4.39c-.61-.07.08-.16.39-.2s-.47.11-.39.2Zm-.07-1.7c-.54,0,.19-.1.58-.07l-.58.07Zm.87-.83a1.44,1.44,0,0,1-.43.08c-.15,0-.21,0-.22-.06-1.2.17-3.18.39,0,.39.26-.13-1-.06-1-.16,1.53-.1,1.35-.07,1.6.12s.07.23-1.14.32c-.46-.05.09-.07.19-.11-.13,0-1.11,0-1.25,0s-.12,0,.21,0c-1.48.3-.94.05-1.11-.06s-.37-.29-.29-.4a5.58,5.58,0,0,1,1.21-.42c.53-.08,1.43,0,1.81-.1s.11.21.12.23,1.11-.07.19.1l-.31,0Zm2,8.42c-.71,0,.21-.16.43-.18s.14.14-.43.18Zm-.5,38.44a2.7,2.7,0,0,1,.8-.18,1,1,0,0,1,.22,0l-1,.14Zm-.13,14.15c.36-.08,1-.1.84-.19.39.13.39.13-.84.19Zm-1,3.4a3.14,3.14,0,0,1,1.06-.24c0,.15-.17.15-1.06.24Zm.13,2.91a2.59,2.59,0,0,1,.89-.12c-.42,0,0,.17-.89.12Zm0,3.15a2.19,2.19,0,0,1,.87-.13c-.39,0,0,.16-.87.13Zm-4.57.32.72-.09q.27.09.12.18c-.76,0,.24-.13-.84-.09Zm3.41-2.12c-.09-.13.55-.16,1-.25,0,.15-.61.16-1,.25Zm.72.57-.59.15c-.68-.09,0-.14.59-.15Zm-2.07,1.55c1.14.08-.91.07,1.28.11v.12c-.74,0-1.83-.08-1.28-.23Zm.14.92-.47.09c-.07-.11-.07-.11.47-.09Zm1.75.67c.32.1-.2.11-.4.15-.5-.07.14-.1.4-.15Zm-.27-2c.31,0-1.26-.09-.68-.12l.17-.06,1.37,0c-.3.08-.23.27-.61.31a8.24,8.24,0,0,1-.93,0c.34,0-.77,0-.87,0-.46,0-.1.12-.8.12-.32,0,.07-.19.07-.24s-.18-.2.22-.37a4.48,4.48,0,0,1,.71-.25,9.75,9.75,0,0,0,1.21-.07c.18.06.26.12.26.18a7.64,7.64,0,0,1,1.07.1c-.88,0-1.31.09-2.1.11-.27.08-1.12.42.91.27Zm-1-5.27.66-.09s0,.18-.66.09Zm.52.47a3.63,3.63,0,0,1,1.27-.22c0,.13-.63.16-1.27.22Zm.17.76a4.92,4.92,0,0,1-.65,0,4.64,4.64,0,0,1,.7,0l-.05.09Zm1.08-2.44a2.37,2.37,0,0,1-.66,0c-.09-.06.63,0,.66,0Zm-3.46-.27a1.16,1.16,0,0,1,.43-.09c.37,0,.23.13-.43.09Zm1.7-.7s0,.06-.13.09c-.53,0-.24-.09.13-.09Zm-1.43-1.22c-.23-.07-.12-.1.36-.09q.18.08-.36.09Zm685,11.59,2-.09.61.12a2.51,2.51,0,0,0,1.22,0,4.84,4.84,0,0,1,1.26,0c.18,0,.33,0,.2-.06-.34,0-.91,0-1.19-.06a3.1,3.1,0,0,1-1,0c.53,0,.24-.06.32-.09a6.45,6.45,0,0,0-1-.1l1.2-.15c.28,0,.66,0,1.18,0-.8,0-1.06-.11-1.74-.12a10.75,10.75,0,0,1,1.2,0l.72-.1c.08-.05-.15-.07-.45-.1H8.58c.28-.07.05-.14.18-.21a11,11,0,0,0,1.24,0l-1.06-.15a5.8,5.8,0,0,1-1.6,0c-.33.07.51.08,0,.13-2.13-.08-1.71-.13-2.26-.31-.41,0,0,.06-.45.07v-.32c-.45,0-.69,0-1.05,0,0,0,.09-.06-.09-.08s-.36,0-.66,0-.21,0-.2-.16c.77,0,.37-.13,1-.17l-.74-.15a4.49,4.49,0,0,1,1.23,0c.3-.07.06-.14.2-.21H4.7c.29.06-.5.06-.09.12a7.43,7.43,0,0,1,1.07.06c.27-.06.07-.08-.13-.1a4.06,4.06,0,0,1,.7-.15,6.54,6.54,0,0,0,.7,0l.64-.17c.29,0,0,.07.36.09h.31c.1-.11-.79-.15-.85-.24-.51,0-1-.07-1.59-.06a1.83,1.83,0,0,0-.61-.15l.27,0h.3c-.2,0-.4-.09-.21-.16a20.8,20.8,0,0,1-2.32-.06v-.08a10.83,10.83,0,0,1,1.28-.14s0,0-.15-.06l-.21,0-.66,0c.14-.08.83-.1.8-.19l.38,0c.44,0,.65-.06,1.1,0v-.1a6,6,0,0,0-.61,0c.13-.08-1.25,0-.53-.13L4,82c-.33-.08.4-.09.52-.14l-.56-.08.43-.11h.48c.06,0-.14,0-.25-.06.36-.07.28-.16.74-.24l.33,0c.19,0,.14,0,.15-.06-.26,0-.88,0-1.07-.06a3.9,3.9,0,0,1-.87,0l1-.38c-.72-.06-1.72,0-2.32-.14l.75-.19-.36,0a5.47,5.47,0,0,1,.86-.08c.17,0,.2-.1-.29-.14.51,0,.94,0,1.35,0l-.58-.06c-.12,0-.2-.12.24-.17-.94-.08-2-.11-2.91-.21a5.12,5.12,0,0,1,1.11,0c.19,0,.5,0,.53,0a6,6,0,0,0,.61,0,14.44,14.44,0,0,0-1.51-.13s-.22.06-.06,0l.11,0,.27,0a8.86,8.86,0,0,1-2.1-.14c.65,0,1.3,0,1.74,0l1.8.13c.16,0,.18-.07,0-.08-.77,0-.85-.08-.9-.16H2.92c0-.06.38,0,.55,0-.11-.11-.74-.2-.51-.33,1,.06,2,.1,3.07.07.21,0,.07-.05.12-.07a5.7,5.7,0,0,0,.6-.06v-.19l-.17,0-.23-.08-.34,0c-.49-.06.08-.15-.4-.22a15.52,15.52,0,0,1-1.72.05s-.22,0-.49,0l-.52-.22a13,13,0,0,1,2-.08c0-.14-.71-.13-1.36-.14l.34,0c-.14,0-.47-.1-.1-.16s0,.07.45.09c0-.15.28-.29-.58-.41a3.74,3.74,0,0,1,.52,0c-.14,0,.26,0,.11,0s-.8,0-.68-.08-.07,0-.12,0l-.34,0c-.32-.08-1,0-1.41,0a2,2,0,0,1,.49,0c.26,0-.52,0-.23-.09a6.89,6.89,0,0,1,.84,0,.33.33,0,0,1-.21,0,8.21,8.21,0,0,1-1.21-.07,4.06,4.06,0,0,0,.92-.11H1.74c-.17,0-.14-.06,0-.08a1.82,1.82,0,0,1,.54.08h0c.43,0,.25,0,.47-.09l1,.13a2.58,2.58,0,0,0,.47,0l-.29,0c.15,0,.87,0,.59-.09a4.35,4.35,0,0,0-1,0L2,77.06c0-.12,1.07-.11,1.21-.21-.22,0-.62,0-.62,0s-.44,0-.62-.07c.05,0,.56-.05.24-.1.66,0,1-.09,1.65-.06v-.1a8.37,8.37,0,0,0-1.78-.11,5.25,5.25,0,0,1,1.46-.25c-.05,0,.13,0,.23,0-.26-.07-.28-.14-.14-.25a3.72,3.72,0,0,0,1.05.21l.24,0c.43,0,.48.09,1,.07s.11-.08.21-.12A7.64,7.64,0,0,1,5,75.88l-.2.08c-.63,0-.55-.14-1.16-.17v-.14a.56.56,0,0,1,.26,0c.76.09,1.53.16,2.3.24-.07,0,.06-.08.29-.1l-.28,0c.25,0,.66,0,1,0l-.82,0a9.7,9.7,0,0,1-1.47,0c.23,0,.61,0,.89,0s-.06-.06.22-.07a7.21,7.21,0,0,1,1.06,0c.31-.07-.38-.1-.21-.2l-.44.1c-.92,0-1.61,0-2.12.06l-1-.05c-.32-.09.29-.18,0-.28h.45c.31-.07.08-.12-.35-.16H2.34c0-.06.45,0,.55,0l0-.09L4,74.77c-.51,0-.44-.09-.46-.14s.13-.1-.12-.14l-.34,0c-.48,0,.06-.07.09-.11l-.23,0a4,4,0,0,1,1-.07,2.66,2.66,0,0,0-.67,0,12.28,12.28,0,0,1-1.62,0,4.93,4.93,0,0,1,.54-.09s-.49,0-.58,0a2.42,2.42,0,0,0,.73-.1,6.83,6.83,0,0,0,.88,0,2.56,2.56,0,0,0-.78,0,2.4,2.4,0,0,0-.79-.1c-.25-.08,0-.11.89-.18l-.3,0,.3,0-.23,0c-.16,0,.31,0,.1-.07s-.42,0-.82,0c0,0,0,0,.09-.06a10.2,10.2,0,0,1,1.35.08c.23,0,.15-.05.16-.07l-.68,0a4.48,4.48,0,0,1,1.1-.06l-.27,0c-.89,0-1.66,0-2.54-.07a21.16,21.16,0,0,1,3-.09c.15,0,.09,0,.07,0-.22,0-.62,0-.87,0l0,0c.7,0,1.34.06,2.08.06.29-.07.21-.12-.2-.15,0-.07.48-.09.64-.13l-.57-.08c0-.06.49,0,.52,0-.65-.09-1.57,0-2.55-.07.14,0,.88,0,.74-.1s.58,0,.88-.06c1,.08,2.18,0,3.26,0a7.7,7.7,0,0,0-1.28-.19c.23,0,.6,0,.86,0l.42-.2H7.28a4.78,4.78,0,0,1-1,.17,3.71,3.71,0,0,1-.94-.07.71.71,0,0,1-.15.09,9,9,0,0,1-1.57-.13v-.12c-.34,0-.82,0-1.2,0-.13,0-.06,0,0,0l.7-.18a1.91,1.91,0,0,0,.43,0,3.82,3.82,0,0,0-1.18-.21,2.7,2.7,0,0,1,.79-.23,4.35,4.35,0,0,0,1.06-.19c.09-.09,1.09-.09.85-.2l-1.37.08c-.27,0,.13-.11-.38-.14L4,70.9l-.68-.05a.49.49,0,0,1-.14.06c-.08,0-.21,0-.22,0s0-.14-.6-.14-.24-.09-.66-.1l.59-.22-.3,0c.08,0,.5,0,.61,0-.12,0-.38,0-.67,0a15.05,15.05,0,0,1,1.58-.2c.26-.1-.32-.14-.38-.2-.86,0-.63.12-1.47.12l1.06-.29a6.8,6.8,0,0,0,1.5-.12c.29-.06-.55-.1,0-.17a5.55,5.55,0,0,0-1.17,0,3.37,3.37,0,0,0-.88-.11,6.92,6.92,0,0,0,2.23-.29A10.68,10.68,0,0,0,3.34,69c-.15,0,.15,0,.11.06-.32,0-.56.07-1.18.06a19,19,0,0,1,2-.4V68.6a4.86,4.86,0,0,0,.86,0l-.4-.1a3.38,3.38,0,0,0-.45,0c-.33,0-.28.08-.57.11s-.07-.07-.13-.1l.67-.1A3.9,3.9,0,0,1,3,68.27c.21-.06.63-.11.59-.19h.33c.16-.09-.49-.16-.33-.25l.28,0c.25-.07-.49-.09-.41-.16l-.31,0c-.44,0-.52,0-.85,0,0,0,0-.09.32-.11s.37-.06.33-.1a1.51,1.51,0,0,1-.63-.09c-.06,0,0-.08-.33-.1l.31-.05a1.73,1.73,0,0,0-.41,0l-.39,0c-.38,0,.07-.11-.37-.14L2,67c-.18,0-.45,0-.38-.11.38-.05,1.13-.05,1.56-.12v-.13a5.22,5.22,0,0,1-1.13.06c-.32-.06.8-.06,0-.12H3.45c.22-.06,0-.12.11-.18.85,0,1.41.09,2.12.12.54,0,.47-.09.47-.16-.49,0-.28,0-.33-.08.48,0,.28,0,.33.08a3.26,3.26,0,0,1,.5,0c.3,0,0-.08.18-.11.55,0,.7,0,.59.07H8.6c.28,0,.57-.07.45-.13a9.81,9.81,0,0,1-1.22.08c.48-.11,0-.26.91-.35l-.48-.06a2.79,2.79,0,0,1-1,.12c-.16,0-.2,0-.15,0a1.43,1.43,0,0,1,.28,0,2.12,2.12,0,0,0-.46,0c-.3,0,0,.08-.22.08-.65,0-.68-.06-1.12-.07l-.25,0c-.61,0,.46-.09,0-.16H4.21c-.08-.07.56,0,.64-.08-.64,0-1.34,0-1.87-.06a8.89,8.89,0,0,1,1.35-.11c-.35-.08-1.23,0-1.36-.12l.28,0-.6,0c.19-.06.56-.12,0-.17.37-.11,1.78-.07,1.91-.21a3.46,3.46,0,0,0-.9,0c-.45,0-.76,0-.72-.11.41,0,.77,0,1.19,0,.16,0,.08,0,.09-.06-.36,0-.84,0-1.2,0-.17,0-.17,0,.41-.11s.6.1,1.13,0l1-.14.47,0a3,3,0,0,1,.49,0c.41,0,.51.07.85.08l.49-.14a4.35,4.35,0,0,0-.66,0c-.41,0-.27,0-.41-.07s-.35,0-.59,0v-.18c-.51,0-.19,0-.41.06-.44,0-.14-.06-.25-.1-.32-.06-.92,0-1.27,0l.32,0a4.7,4.7,0,0,0-1.14,0L3,64.07a7.57,7.57,0,0,1,1.23-.21c.08-.07-.52-.08-.57-.13a1.6,1.6,0,0,1,.23,0c-.07-.05-.5,0-.61-.05a4.3,4.3,0,0,1,.58,0v-.18c.28-.11,1.64-.09,1.67-.22-.32,0-.33,0-.55,0s0-.05-.1-.08a3.52,3.52,0,0,0-.51,0c-.29,0,.06-.11-.44-.14,0-.11-.27-.23.32-.32.36-.06.16-.15.63-.2-.27,0-.11-.11,0-.17l-.55,0c-.37-.11.24-.24-.38-.36a5.25,5.25,0,0,0,.9-.08,6.83,6.83,0,0,0-1.21-.07c-.08,0-.15-.07.27-.08V61.7a8.15,8.15,0,0,1-1.26-.13,2.2,2.2,0,0,1,.45,0c.28,0,.08-.09.47-.1l-.64-.09c.48,0,1,0,1.56,0,0,0-.24,0-.39,0H3.62a4.56,4.56,0,0,1,1.24-.17c-.09,0-.38,0-.33-.08-.77,0,0-.08,0-.13-.41-.06-.53-.14,0-.2,0-.05-.52-.06-.29-.12s.28,0,.44,0c.37,0,.06.08.3.13H6.44s-.75-.07-.65-.14c-.74,0-1.36-.1-2.17,0,0-.06.39-.07.21-.12-.51,0-1.14,0-1.73,0l-.46-.06c.47,0,1.06-.06,1.74-.09l-.74,0-.06-.07H4.15C4.34,60,3.72,60,3.29,60c.17-.07.81-.09.92-.16a6.85,6.85,0,0,0,.84,0c.23,0-.17-.05-.29-.07s-.36-.05-.6-.08c.62,0,1.44,0,1.34-.14a2.13,2.13,0,0,0-.49,0c-.28,0-.13-.07-.14-.11a2.38,2.38,0,0,1,.6,0,.43.43,0,0,1,0,.07H6c.33,0,0,.08.29.13s.17-.1.5-.11a3.67,3.67,0,0,0-.93-.13c-.15,0,.23-.06.26-.09l-.69,0,.93,0a2.93,2.93,0,0,0-1,0l-.34,0c-.42.06.1.15-.32.21s0-.11-.14-.14l-1.63-.18.47-.06.39.05c.34-.14-.2-.24-.91-.34l.84-.22a3.76,3.76,0,0,1,.67,0c.28,0,.07-.07.21-.11-.54,0-1.06,0-1.51,0a2.53,2.53,0,0,0-.62.12c-.36,0-.73,0-1.09,0-.13,0-.07-.06,0-.1.82-.08,1.8,0,2.75-.06l.21-.08H5.36c.18,0,.09,0,.15,0,.21-.06-.55-.08-.27-.15A6.2,6.2,0,0,1,6,58.2c.23,0,.11-.05.24-.07s.24,0,.46,0,0-.07-.22-.1S6,58,6.18,58a2.41,2.41,0,0,1,.66,0l.9.12a2.5,2.5,0,0,0,.56,0c.24,0-.18,0-.12,0A1.39,1.39,0,0,1,8.72,58v0H8.25c-.23,0-.13-.05-.21-.07a13.6,13.6,0,0,0-1.44,0c-.25,0,.13,0,.17-.06a4.71,4.71,0,0,0-1.14-.06l-.23-.09a13.85,13.85,0,0,1-1.78.08,7.5,7.5,0,0,1,1.23-.25c.32,0,.32,0,.33-.05a3.08,3.08,0,0,0-.69-.08l-.27,0a.64.64,0,0,1,.2,0,.45.45,0,0,1,.11,0H4.06c-.22,0-.15,0-.25-.09l-.75.09c-.16,0-.2,0-.13-.06l.6-.13-.31,0s.07-.05.12-.05a3,3,0,0,0,.87-.09c-.32,0-.32,0-.33-.05s.67,0,.66-.06-1,0-.87-.14l.23,0-.58,0c-.35-.06.47-.09.22-.12-.5-.06.15-.1,0-.14s.51-.07.34-.13a8.05,8.05,0,0,0-.88,0c-.21,0,.12,0,.14-.06-.17,0-.34-.08-.19-.13s.51,0,.91,0c.16,0,0-.06,0-.1L3.26,56a1.54,1.54,0,0,1,.36,0h.46l.5-.06c-.13-.08-.69-.14-.35-.22a3.25,3.25,0,0,0,.45-.06l.34,0c.16,0,.16,0,.16-.06a2.59,2.59,0,0,0-.53,0h-.6c-.33,0,0-.08-.22-.11a1.76,1.76,0,0,0-.74.12c-.84,0-.82-.09-.86-.16a2.16,2.16,0,0,0-.46,0c-.27,0,.08,0,.15-.06l-.31-.05a6.66,6.66,0,0,0,1.3-.1H1.1c-.15,0-.18-.06.17-.09.68,0,1.42-.06,2-.14-.34-.05-.81,0-1.19,0-.2,0-.06,0-.1-.08a4,4,0,0,0,.61-.06,2.39,2.39,0,0,0-.53,0s.39-.07.24-.12a12.18,12.18,0,0,0,1.25-.06c.06,0,.13-.07-.28-.07,0,0,.49-.06.62-.11a3.06,3.06,0,0,0-.77,0c-.18,0-.24,0-.5,0v.1a3.62,3.62,0,0,1-.91,0,3.68,3.68,0,0,1,.9-.17c-.12,0-.07-.1-.16-.1-.33,0,.52-.09-.34-.12.8,0,1.38,0,1.89-.09a7.15,7.15,0,0,1,1.2-.16c.21,0-.37-.07-.32-.11-.64,0-.25-.07.09-.11l-.62,0-.2.08H3.23c.16,0,.44-.06.65-.09-.31-.12-.31-.12,0-.28a3,3,0,0,1-.59-.06,5.24,5.24,0,0,0-.71,0s-.08-.05.09-.08a2.74,2.74,0,0,1,.72,0,5.73,5.73,0,0,0,.81-.13,9.26,9.26,0,0,0-1.33,0l.39.06A11.9,11.9,0,0,1,1.19,53H3.31a12.53,12.53,0,0,1,2.39-.21c-.9,0-1.44-.07-2.44-.06.67,0,.47-.12.88-.12s.45,0,.7-.06c.08-.07-.44-.09-.56-.14l.23,0-.28,0s.24,0,.34-.07c-.07,0-.06,0,0,0a3.22,3.22,0,0,1-.83,0c-.28,0,0,.07-.37.07l-.2-.07c-.27,0-.31.06-.7,0l-.67-.14c.15-.06.58-.14.49-.24l-.33,0H1.62c.47,0,1,0,1.51,0l.76-.09v-.11c-.31,0-.35,0-.32-.05a.63.63,0,0,1,.32,0v-.15c-.47,0-1,0-1.37,0l1.24-.17-.55-.07c-.51,0-.58,0-.84,0s-.13,0-.07,0a6,6,0,0,1,.92-.08c-.28,0-.71,0-.7-.1-.25,0-.65,0-.88,0a6.6,6.6,0,0,0,1-.1L2,50.74s0-.05.32,0c0,0-.24-.05-.3-.07l.28,0-.66-.09c.61,0,1.17,0,1.73-.09l-.68-.08c.21,0,.62,0,1,0-.25,0-.52,0-.79-.06l.42-.06-.3-.05a10.37,10.37,0,0,1,1.12,0L4.57,50l-.41-.07H6.7c0-.06-.38-.09-.23-.13H7c.33,0,0,.07.26.12s.77,0,1.17,0a24.37,24.37,0,0,0-2.56-.25c.17-.06.75-.07.64-.14H6.35c-.5,0-1,.09-.88.16l-.74-.09c-.22,0-.27-.07.11-.1a1.12,1.12,0,0,1-.48-.11l-.3.08a3.57,3.57,0,0,1-.78-.06l.64-.15c-.18-.06-.8,0-1-.1s-.15-.09.24-.13c-.06,0-.41,0-.24-.09.51,0,1,0,1.49,0,.32-.09-.37-.14-.48-.21s.27,0,.47,0,.12-.1,0-.14a3.88,3.88,0,0,1-.57,0l.52-.06c.13,0-.23,0-.22-.07s.44-.06.32-.11a5.08,5.08,0,0,0-.62,0c.56,0,.91-.1.93-.18s0-.14.66-.23a12.42,12.42,0,0,1-1.56,0c-.18,0,0-.06.23-.09a8.19,8.19,0,0,0-1.23-.17c.43-.1,1.48-.12,1.88-.22-.54-.09-1.43-.08-2.17-.12,0-.06.5,0,.52-.05-.67,0-1.26-.11-2.1-.11-.24,0,.13-.11-.41-.14.76,0,1.46-.08,2.26-.06,0,0,.1-.05.32-.05-.24-.08-.85-.12-1.19-.18a7.75,7.75,0,0,1,1.84-.41c.79-.09.84-.12.32-.25-.78-.09-.78-.09-.35-.19a6.37,6.37,0,0,0-1.65-.21l.69-.35c-.19-.05-.72,0-.95,0L3.53,45V44.9a4.09,4.09,0,0,0-.61,0l.59-.16c-.33,0-.8,0-1.16,0,0-.13,0-.13.89-.16,0-.08.46,0,.72,0s.57,0,.57,0c-.31,0-.32,0-.33-.06l2-.08c.14,0-.19-.07.06-.11h.42c.27,0,.15-.12-.3-.21a7.44,7.44,0,0,1-1.77,0s.41,0,.53,0-.06-.08.38-.07a.35.35,0,0,0,.12,0h.87a2.22,2.22,0,0,0-.78-.39c-.27,0-.16.06-.26.08a6.88,6.88,0,0,1-.79,0c-.31-.08,0-.16-.2-.24l-.58,0,.71-.11c-.24-.07-1.06-.05-1-.15s.49,0,.62-.05a8.91,8.91,0,0,0-1.45,0L2.45,43l1.22-.09c-.38-.07-1.09-.08-1.37-.16a7.5,7.5,0,0,0,1.29-.1,9.85,9.85,0,0,1,1.63-.1c-.42,0-.94,0-1.33,0l1.24-.08v-.27H4.31l-.21-.08-.59,0c.17-.1.68-.19.28-.29s-1-.1-1.2-.18a3.73,3.73,0,0,0,.85-.12c.37,0,.42,0,.47.06a6,6,0,0,0,.89,0,2.59,2.59,0,0,0-.54-.09c0-.05.49,0,.55-.05s.11,0-.11,0-.16,0-.32,0c-.52,0-.69-.06-1.13-.07l.58,0,.09-.1.91-.12c-.06,0-.7,0-.62-.07H3.67c-.46-.11.8-.2,0-.31l.66-.06c.5-.13-.46-.23-.16-.35a3,3,0,0,0-.83.12c-.33,0,0-.1-.21-.15a5,5,0,0,1-.85-.08l1.35-.09-1-.13A3.29,3.29,0,0,1,3.24,40s-.58-.07-.22-.13l.54,0c0-.05,0-.11,0-.17s-.73-.06-.19-.12l.33,0c.25,0,.13-.05.25-.08.37,0,.44.06.79.07L5,39.53l.43.1c.57,0,.21-.09.75-.1a12.71,12.71,0,0,0-1.84-.06l.48-.07a11.25,11.25,0,0,0-1.18,0c-.21,0-.05-.1-.1-.15-.22,0-.6,0-1,0l.16,0c.31,0,.6-.07.85-.11,0-.12-1.22-.08-1.29-.19H2l0,.08a3.47,3.47,0,0,1-.59,0,3.77,3.77,0,0,1,.63,0s0,0,.2,0a.24.24,0,0,1,.11,0h.9l.52.09c.22,0,.24,0,.19-.06a6,6,0,0,1-.64-.11c-.81,0-1.33-.09-2-.15.67,0,1.39,0,1.94-.06l.12.07a14.08,14.08,0,0,0,1.86,0c0-.05-.8,0-.6-.09s.5,0,.62,0c-.11,0-.52,0-.65-.06.48,0,.29-.13.42-.25l.73.12c.19,0,.66,0,.76.06s.11.09.6.06c0-.1-.88-.12-1.17-.18a3.23,3.23,0,0,1,.46,0c.33,0,0-.07.26-.12l1.22.09c.2,0,.33,0,.29,0-.49,0-.6-.1-1.16-.09L6,37.76c-.34,0-.06.07-.34.09s0-.11-.21-.16c-.54,0-1-.07-1.66-.06l.41-.06c-.47,0-1,0-1.53,0-.14,0,.22,0,.26-.06a10.35,10.35,0,0,1,1.59,0c0-.06.37,0,.58-.06s-.26,0-.21-.05l.22,0A3.87,3.87,0,0,0,4,37.3c-.22-.06-.16-.11-.1-.16.27,0,.67,0,.89,0-.09,0-.41,0-.28-.09.31,0,.54.06.89,0,.17,0-.35,0-.36,0a2.45,2.45,0,0,1,1.08-.13c-.05,0,.23,0,.3-.06a19,19,0,0,0-2.2-.06c-.18-.2.36-.36.43-.54-.58,0-.79-.12-1.44-.14V36c.54,0,.9.06,1.42.07L5.12,36a2,2,0,0,0-.59-.07s-.09,0-.33,0c-.65,0-1-.13-1.7-.19.58,0,1.1,0,1.7,0l.43.09a2.4,2.4,0,0,0,.56,0,7.12,7.12,0,0,1,.91-.16c.15-.07-.45-.08-.26-.13s.85,0,1.07-.07l.74.09c.5,0,.61-.06.93-.08a3.19,3.19,0,0,0,.68,0c.32-.08.06-.13-.46-.16a1.59,1.59,0,0,0-.45,0A32.75,32.75,0,0,0,5,35.47c-.27,0,.32,0-.13-.11a8.48,8.48,0,0,1-1.54.06l2.2-.29c-.31-.07-1,0-1.14-.11l-.32.12c-.29,0-.14-.09-.18-.14H3.42c-.33,0-.13-.06-.17-.1.12-.07.88,0,1-.1-.44,0-.4,0-.2-.09l.2,0H2.44a17.68,17.68,0,0,1,1.77-.2c.19,0-.47-.06-.35-.13s.17-.09-.12-.14l-.35,0c-.33,0,.07-.12-.52-.15l.67,0c.14-.08-.72-.11-.23-.19l-.94,0c-.15,0,.22,0,.22-.06V33.7c.61,0,1.05-.05,1.66-.06l-.47-.07a12,12,0,0,1-2.08,0,1.73,1.73,0,0,1,.41-.07,1.85,1.85,0,0,1,.57.05c.4-.09,1.06,0,1.52-.07v0a11.61,11.61,0,0,0-1.44,0,4.77,4.77,0,0,0-.89-.13,12.22,12.22,0,0,1,1.55-.09,1.33,1.33,0,0,0,.8-.13c-.15-.06-.73-.08-.94-.15l.23,0s-.49,0-.54,0,.48,0,.56,0c-.19,0-.59-.06-.94-.09,0-.08.5-.09.93-.11-.14,0-.68-.09.06-.13-.37-.05-.46-.1-.23-.15a5.88,5.88,0,0,0,1.25.18,5,5,0,0,0-.67-.16v-.2a11.18,11.18,0,0,0,2.17,0l.08,0,.11,0c.42,0,.61,0,.49.07.34,0,.67,0,1,0-.28-.07-.56-.13-.11-.22.28-.05.24-.14-.39-.2a5.64,5.64,0,0,0-.79.13c.15,0,.3,0,.25,0H6.47s0,0-.22,0a.51.51,0,0,1-.1,0c-.23,0-.34,0-.33,0a3.29,3.29,0,0,0-.45,0l-.83,0c-.09-.06.57-.11.26-.18l-.51,0c-.13,0,.13,0,.17,0A1.49,1.49,0,0,0,4,31.53a2,2,0,0,1-.69.12c-.28,0-.06-.06.17-.09l-.42-.12H2.43c-.35,0-.11-.07.23-.11-.73,0-1.45,0-2-.08,1-.05,2-.08,3-.06.43,0,.06-.09.59-.08,0-.06-.38,0-.55-.05s1,0,.87-.14a4.88,4.88,0,0,0-.81,0c-.28,0,0,.08-.36.09a2.68,2.68,0,0,1-.42,0l.29-.05a1.87,1.87,0,0,0-.4,0l1.28-.17c.54,0,1.41.08,2.35,0-.35-.06-.94,0-1.29-.05.17,0,.72,0,.71-.06a5.74,5.74,0,0,0,.73,0c.21,0,.22,0,.12-.07-.28,0-.61,0-.92,0s-.34-.06-.63-.05-.38.06-.68.05a9.54,9.54,0,0,0-1.33-.14c.32-.06.72,0,1-.05s-.1-.08.24-.11a3.85,3.85,0,0,0,1.32.17l.46.06a3.85,3.85,0,0,0,1,0c0-.15-1.64-.12-1.7-.28H2.87c.27-.07.8,0,1-.06v0a4.58,4.58,0,0,0-1.12,0l-.44-.05a5.41,5.41,0,0,1,.91-.1l-.64-.08a5.51,5.51,0,0,1,1.75-.26,6.05,6.05,0,0,0,1.16-.19c0-.06-.46,0-.59,0s-.34-.1.26-.12a.17.17,0,0,0,0-.08l-.88.05a5.4,5.4,0,0,1-.65.07c-.34-.08.67-.11.3-.18l-.82-.07.43-.06c-.11,0-.36,0-.3-.09a17.38,17.38,0,0,1,2.18-.12,10.79,10.79,0,0,1-1.71-.12c-.17.05-.51.05-.49.1s.3,0,.26,0l-.26,0s0,0-.22,0a.24.24,0,0,1-.1,0,7.23,7.23,0,0,1-.85,0c-.24,0,.14,0,.19-.06l-.57-.06a5.08,5.08,0,0,1,1.2-.23c.07-.05-.15-.06-.28-.08.07,0,.36,0,.31-.07H4.05c.38,0-.4-.05-.19-.1s0-.07,0-.1l-.63,0c.22-.08.9-.07,1.24-.14l.06-.13.55,0s.09,0,.06,0c-.2,0-.45-.09-.18-.16s.38-.22-.1-.33c.77-.06.49.12,1.2.08v.2l-.49,0c-.13,0-.11,0,0,0,.29,0,.44.07.8.08.06,0,0-.06.31-.08s.67,0,.71.1a3.86,3.86,0,0,1-1,0s-.08.08.12.12.69,0,1-.05l.11,0c0-.11,0-.22,0-.33s0-.06.32,0a6.42,6.42,0,0,0-1.21-.05c-.15.08-.18.15.31.21H6.57c-.23-.06,0-.13-.12-.19l-.63,0,.35-.06c-.61,0-1.26,0-1.85,0l-.47-.06.94,0-.28,0c.09-.07-.17-.16.39-.2A6.31,6.31,0,0,0,4,26.9c-.39-.1.7,0,.57-.12H4.05c-.23,0-.12-.05-.25-.08H3.11c-.34-.05.2-.05.14-.09s0-.07,0-.1a5,5,0,0,0,.94-.12,2.82,2.82,0,0,0-.94-.16l.32-.09a5.39,5.39,0,0,0-.72,0,2.76,2.76,0,0,1-.83,0V26c.86,0,.26-.23,1.52-.23v-.1a2.16,2.16,0,0,0-.45,0c-.19-.07-.64-.12-.42-.22a15.54,15.54,0,0,0,1.86-.06c.07,0-.1-.07.14-.1l.33,0c.37,0,0-.06.34-.07l.33,0c.22,0,.12-.05.2-.07.24,0,.21,0,.41,0L7,25.17a3.1,3.1,0,0,1,.61,0c.14,0,.29,0,.43-.06s-.45,0,0-.12l.47,0c-.69-.08-.26-.17-.39-.25s-.62,0-.65.05c.59,0,.36.07.25.11s-.51.13-.76.19H6.45c.1-.14-.23-.27.37-.4a1.9,1.9,0,0,0-.6,0,5.79,5.79,0,0,1-.73.08,4.14,4.14,0,0,1-.62,0c-.17-.1.88,0,.94-.13a20.49,20.49,0,0,0-2.55.2c.41-.06,0-.11,0-.16s.51-.11.33-.17.51-.11.27-.19c-.49,0-.75.11-1.28.14s.13-.18.06-.27-.29,0-.25,0l.25,0v0c.23,0,.34,0,.33,0A3.29,3.29,0,0,0,4,24l.36,0L5,23.94a3.14,3.14,0,0,0-.7,0c-.37-.05,0-.08.19-.11-.52,0-.25-.11-.34-.17a5.34,5.34,0,0,0-.59,0,4.8,4.8,0,0,0-.51,0c-.21,0-.21,0-.12-.06s.45,0,.56-.05v-.09c-.47,0-.15.06-.48.08s-.71,0-1.1,0a8.15,8.15,0,0,1,.89,0c.15,0-.24,0-.25-.06V23.4c-.49,0-1.06,0-1.67,0a3,3,0,0,0,.88-.11h.64c.51-.05.53-.15,1.12-.19L3.23,23l.6,0a.45.45,0,0,0-.11,0H2.59c.05-.08.24-.15.89-.18.24,0-.1-.08.23-.11l.38,0c.26-.08,0-.16.17-.24a1.24,1.24,0,0,1,.35,0,11.06,11.06,0,0,1,1.11-.06c.16,0-.48.06-.16.11l.51,0c.22.06-.1.14.2.2s.26-.05.49-.05c-.53-.09-.2-.2-.31-.31L6,22.33l-.22,0c-.23,0-.21,0-.37,0a7.47,7.47,0,0,1-1.07,0c-.19,0-.14,0-.13-.05S4,22.06,2.88,22l.7,0-1.3-.09c.38,0,.25-.1.65-.13s.84,0,1.21,0c0-.06-.47,0-.52,0s0-.06.3-.09l-.73-.07c.27-.06.79,0,1-.05-.23-.05-.63,0-1,0a7,7,0,0,1,.82,0c.27,0,.13-.1.11-.15a7.17,7.17,0,0,0-.81,0l-.21.07H1.74c-.28,0,.54-.05.2-.1a6.65,6.65,0,0,1,.9,0c.36,0,.46-.06.88,0l.31,0a3.26,3.26,0,0,1,.5,0c-.14-.05-.46-.08-.34-.14S4.11,21,4,21a2.17,2.17,0,0,1-.71,0,3.3,3.3,0,0,1,.61,0c-.09-.08-.63,0-.71,0-.37-.05-.16-.09-.28-.12a8,8,0,0,0,1.29-.09c-.23,0-.61,0-.81,0s0-.07.16-.09c-.19,0-.34-.08-.28-.13a4.48,4.48,0,0,0,.65-.12l-.62-.15a2.85,2.85,0,0,1,.79,0l.4-.07-.21,0a6.55,6.55,0,0,1,1.37-.08c-.46-.06-.94,0-1.32,0-.19,0,0-.05-.09-.08.35,0,.78,0,1.29-.05v-.12h-1V19.7a7.34,7.34,0,0,0-.76.07l-.84-.05c-.13-.1.52-.17.4-.28a1.83,1.83,0,0,0-.57-.12l-.32,0c-.29,0,0-.07-.4-.09H1.63v-.06a4.29,4.29,0,0,1,1,0h.2c-.21,0-.25-.06-.25-.08a8.58,8.58,0,0,1-2-.2c.69,0,1.24,0,2,0l.94.13c.29-.08-.07-.15-.29-.22.67-.07,1.1.05,1.65,0a7,7,0,0,0-1.27-.15c.26,0,.54,0,.78,0s.13-.05.25-.08l1.49.09c0-.07-.53-.09-.64-.14s-.14-.11-.6-.12l0,.07a3.69,3.69,0,0,1-.59-.05,5,5,0,0,1,.61,0,3.19,3.19,0,0,0-1.12-.33l-.51.06c.14-.1-.26-.19.36-.26-.54,0-.55-.14-1.26-.16a8.25,8.25,0,0,1,1.23-.26c.15,0-.21-.06-.25-.09l.25,0a2.35,2.35,0,0,0-.79,0l-.48-.07.92-.12c.16-.06-.29-.07-.28-.1a4,4,0,0,1,1-.12c-.35,0-.5-.09-1-.1,0-.1.7-.17.36-.24-.16-.1-.91-.08-1-.14h.65l-.33-.09c-.19,0-.41,0-.6,0l-1-.14c.27,0,1,0,1.05-.06a5,5,0,0,0,1,0s-.13,0-.15-.08l-.56,0c.27-.07.69-.13.61-.22A9.7,9.7,0,0,1,1.8,15.8c-.19,0-.18,0,0,0h.3c.67-.05.87-.16,1.91-.22l-2.39-.09c.39,0,.87,0,1.29,0-.1-.08.48-.14.4-.23.45,0,.71-.07,1.37-.05-.59-.07-.07-.12,0-.16a4.18,4.18,0,0,0,.76,0c-.1-.06.51-.11.16-.19l.54,0c.07,0,.09-.06,0-.07a7.62,7.62,0,0,0-.84,0c-.22,0-.07-.05-.11-.08a2.12,2.12,0,0,1-.45,0c-.27,0-.52.05-.86,0l-1-.12c.08-.06.51-.07.64-.12s-.13-.14-.36-.21l.78,0a8.61,8.61,0,0,1-1.32-.08A4.46,4.46,0,0,1,3.74,14c-.45,0-.55-.09-.5-.13-.31,0-.35-.05-.63-.05-.46,0-.33.06-.33.09S2,14,1.84,14h-1L.66,14C1,14,1,13.92,1,13.86a11.22,11.22,0,0,0,2.32-.19c-.22-.07-.75,0-1-.05a3.22,3.22,0,0,1,1-.06c-.11-.17.13-.32.63-.47,0-.05-.7-.11-.13-.18L4,13a2.12,2.12,0,0,0,.38,0l.42,0c.42-.07-.79-.11-.14-.19.29,0,.76,0,1.11,0L6,12.7l.7.09a2.81,2.81,0,0,1,.81-.15c-.37-.06-.87-.08-1.31-.11h0c.06.06-.15.1-.55.13-.23-.08.19-.1.54-.13a6.84,6.84,0,0,0-1-.08c-.14,0-.27,0-.24,0-.33,0-.42.06-.82,0,0-.08.36-.14.83-.18a2.35,2.35,0,0,0-.82,0l-.51-.07A2.49,2.49,0,0,1,4.2,12,4.85,4.85,0,0,1,3.29,12a6.44,6.44,0,0,1,.77,0c.31-.12.61-.23.44-.36l.44-.05c.6-.1-.41-.15.38-.22-.81,0-1.4.08-2.14,0a8.76,8.76,0,0,0,1.33-.08,4.21,4.21,0,0,0-1.07,0c-.48,0-.65-.08-.45-.15H4.33c.4,0,0-.12.3-.17A12.2,12.2,0,0,0,6,11c.24,0-.17,0-.18-.06s.72-.1,1.23-.12a4,4,0,0,0-1.12-.07c0-.07-.56-.1-.44-.17-.43,0-.27,0-.33.06-.31.05-.33,0-.56,0s-.4,0-.64,0-.82,0-.84.09c-.24,0-.19,0-.2-.06a6.8,6.8,0,0,1,1,0c0-.06-.56,0-.62-.06l.39-.06H1.8a5,5,0,0,1,1.29-.17c.32-.05-.08-.12.5-.15l-.67,0,.31-.05c-.23,0-.52,0-.8,0S2.53,10,2,9.92c.27,0,.56,0,.92,0,.16,0-.2,0-.26-.05l.29,0L1.56,9.71a9.23,9.23,0,0,0,1.08-.09c.6,0,.62,0,.93,0S4,9.6,4.2,9.59c-.37,0-.43-.09-.21-.15a4,4,0,0,0,.8,0s-.24,0-.32-.06c-.39,0-.82,0-1.23,0A5.35,5.35,0,0,1,4,9.27H5.31a2.44,2.44,0,0,0,.76-.16c-.46,0-.69.07-1.2,0,.65,0,0-.16.58-.22L5.1,8.85a.48.48,0,0,0-.22,0c-.06.06-.27.1-.71.11S4,8.91,3.75,8.89l-.48,0a6.07,6.07,0,0,1-1.2-.17,2.6,2.6,0,0,0-.55,0c-.44,0,0-.09-.61-.09l.69-.09-.28,0c.2-.05.59,0,.89,0s0,0,.06-.07A5.83,5.83,0,0,0,3,8.39c.36,0,.84,0,1.19,0,0,0,0,0,0,0A10.11,10.11,0,0,1,3,8.23a11.19,11.19,0,0,1,1.42,0l.46-.07c-.45,0-1,0-1.45,0L3,8.11,3.38,8H6.76c.11-.09-.46-.1-.62-.15s1-.21-.09-.3a6.21,6.21,0,0,0-1.2.11v-.2c-.31.08-.53.11-.63.15s.14.09-.18.14l-.3-.08H3.39c-.35,0,0-.11-.22-.16a3.89,3.89,0,0,0-.94,0,2.2,2.2,0,0,1,.57,0c.22,0,.08-.06.12-.08a5.44,5.44,0,0,0,.93-.06V7a5.65,5.65,0,0,1-.92,0l.31,0a8.14,8.14,0,0,0-.87,0c-.18,0,.23,0,.18-.07l-.76,0,1,0-.54-.09a8.69,8.69,0,0,0,1.1-.1,4.16,4.16,0,0,0,.66,0c.33,0,0,0-.08-.06l.6-.15a3.85,3.85,0,0,0-.65-.11s0-.06.06-.11-.09,0-.06,0l-.48,0c-.38,0,0-.11-.22-.16s-1.13,0-1.56-.1c0,0-.08-.07.27-.09-.18-.09-1-.1-1.38-.18.7,0,1.33,0,1.91,0,.27,0,.71.06,1,.08.53-.06-.52-.08-.17-.14s.53.06.92,0a16,16,0,0,0-1.65-.17l.62,0c0-.06-.45,0-.49,0L4,5.23c.09,0,.21,0,.37,0,.58-.14.58-.28.45-.42C3.92,4.84,3.85,5,3,5c0,0-.25,0-.1,0l.23,0c.1,0-.69-.06-.28-.13l1.07-.11c-.22-.06-.61-.07-.38-.11a2.63,2.63,0,0,0-.75,0l-.72-.12a2.37,2.37,0,0,1,.6,0,3.4,3.4,0,0,0,.55-.06c.07-.06-.5-.08-.46-.14-.2,0-.24.05-.37,0a3,3,0,0,1-.86-.1,15.54,15.54,0,0,1,2.32-.43c0-.06.21-.13-.26-.17l.87-.22a3.81,3.81,0,0,0-.59,0s0-.06-.16-.13a3.72,3.72,0,0,1-.85.13H2.6c.2-.13,1.31-.23,1-.38C3.08,3,3.29,3,3.24,3c.48,0,.27,0,.32.08h.33V3c.12,0,.53,0,.64-.05s-.29-.07-.47-.1-.13.05-.22.07l-.12,0c-.51-.07-.81-.15-.83-.23a3.2,3.2,0,0,1,.64,0c.19,0,.4,0,.49,0a7.27,7.27,0,0,1,1,.21,4.67,4.67,0,0,0,.78-.06v-.2a6.71,6.71,0,0,1-.82,0c-.43,0,.11-.07.11-.11l-.56,0c.07-.05.51-.06.59-.1s-.07-.17-.53-.23c-.22,0-.43,0-.4,0a3.52,3.52,0,0,1-1-.08C3.1,2.12,3.49,2,3,1.94a5.71,5.71,0,0,1,.59,0s.1,0,.33,0c0,0-.05-.09-.47-.12.49-.06.49-.12.47-.18l1-.06-.86-.07,1-.12.32,0c.29,0,.9,0,1.11-.1l-.24,0c.4-.06.24-.13.27-.2.52,0,.16.08.54.09H7.6a4.38,4.38,0,0,0,1.12.1v0c-.09,0-.7,0-.64-.06s.43,0,.31-.1A2.7,2.7,0,0,0,7.61,1L7.26,1,6.82.94C6.7.87,6.93.81,6.54.72c-.15.11.09.2-.39.28S5.71.93,5.31,1,5.24.86,5.17.81a4.59,4.59,0,0,1-.9-.1c.16,0,.55,0,.81,0S4.84.55,5.51.51C5,.42,4.12.45,3.57.39L4.85.3c-.22,0-.73,0-1,0,.36,0,.84,0,1.21,0S4.87.15,4.69.11H4.51s0,0-.1,0a3.66,3.66,0,0,1-.65,0h0A7.21,7.21,0,0,1,2.39.23c-.25,0-.06-.09-.12-.14l1,0L3.14,0c-.2,0-1,0-1.51,0C.35-.08.15-.14.45-.3c.92,0,.67.12,1.47.16.5-.21,0-.23,1.5-.25A8.27,8.27,0,0,0,1.83-.56a4.11,4.11,0,0,0,1,.08C2.19-.42-.31-.49.54-.4c-1.4,0-2-.19-.78-.31a2.58,2.58,0,0,0-.29,0h.36a0,0,0,0,1,0,0H-1l-.83.07c.21,0,.41,0,.61,0A7.81,7.81,0,0,1-3.8-.29c.47.11-.44.23-1.2.11s.75-.26,1.33-.29c-.25,0-1.3-.11-1.58-.1.47,0-1.08-.05-.73-.06a19.56,19.56,0,0,0-2.16.25,18.89,18.89,0,0,0,2.51,0c-1,0,0-.17.57-.17,1.4,0-.57.19-.86.22a34.21,34.21,0,0,1-3.59.09c-.29,0-1.32.06-2.06.06.58,0,1.45.11,1,.21A5.12,5.12,0,0,1-11.78-.1c-.52.1.92.23.63.31a7.06,7.06,0,0,1-1.62,0c-.78,0-2,.06-2.94,0-.51,0-1.86-.27-.26-.25-.57,0-.06,0,.24,0l-1-.1c.24,0,1.34-.06,1.49,0s-.85.26.71.28c0-.1-.39-.22-.1-.31s1.15,0,1.56-.05c-.6-.1-2.29-.1-3.2-.13,0,.07.9.07.91.14-1.12,0-1.31,0-1.46.11s-1.57,0-1.6,0S-17-.13-16.88,0c.39.22-1.23,0-1.55,0,.32.1-4,.11-4.58.1A32.29,32.29,0,0,0-26.69,0h1a10.11,10.11,0,0,1-3.39-.25c-.11,0,0,.08.43.08-.43.1-1.94,0-.66-.09-1.34-.07-.5-.1-.4-.22-.6,0,0,.09-.65,0-.36.06.18.12-.8.12,0,0,.1.06.44.06-.68,0,1.29.16.62.22a5.85,5.85,0,0,1-1.23-.16c-.59.09.55.2.38.29s-.14,0-1.18,0c-1.58,0-4.19,0-4.14-.31-.41,0-.69,0-.55.06.59.07-1.65.15-1.85,0s.38-.09.8-.11c-.49,0-.84-.08-1.23-.1l.08.15c-.71,0-.34-.08-.39-.12-.4,0-.61.2-.88.2l-1.54-.24c-.43.25-2-.15-3.22,0,2,0-2.05.37-1.21.13l-1.56.08c-.39,0-.26.12-.81.15S-49-.31-50.39-.15c-.56.06,0,.26-1,.29-.56-.09.14-.09.1-.18-.95,0-.67.22-1.41.26a10.93,10.93,0,0,0-1.86-.29l.29,0a13.78,13.78,0,0,0-2.29-.05c-.82,0,.14-.16.16-.17A4.91,4.91,0,0,0-55-.27c-.49,0-1.22-.13-1.62-.12s-1.37.21-.15.16a11.9,11.9,0,0,1-1.76.06c.57,0,.8.07.68.14-.56,0-1-.11-1.07-.09,1.95.33-1.1.21-2.93.17-1.66,0-4,0-2.64-.32-.43,0-1.46.14-1.68.11.54.12.58.28-1.23.28-.08,0,.48-.14.2-.16A3.41,3.41,0,0,0-68.3,0l-.37,0c-.61,0,.68.1.36.14.1,0-1.5.07-1.18.08-1.07,0,0-.13.28-.19-.25,0-1.74.1-2,.12A1,1,0,0,1-71.06,0s-.65.08-.34.06a9.07,9.07,0,0,1-1.1-.1,3,3,0,0,0-.57.18c-.2.07,1.16,0,.22.14-.77,0-.2-.08-.58-.15-.68.07.29.22-.17.29-.26,0-3.16-.28-3.73-.3.13.08-.43.08-.87.08-1.1,0-.31,0-.42-.08-.55,0-2.6.1-3.25.06-.46,0-2-.19-.71-.21a16.76,16.76,0,0,0-2.51-.1l.5,0a8.67,8.67,0,0,1-2.1,0l.8,0c.27-.1-1.55-.13-2-.11l.55.07h-.35a1.43,1.43,0,0,1,.44,0c-1.14.05,0,.26-1.46.37-.86-.06-.48-.27-1.68-.16s0,.33-1.15.39c-.71-.08,0-.11-.17-.2-.77,0-.68.3-1.27.31L-94.48.32C-95.21.23-96.16.12-97,.05a20.13,20.13,0,0,1-3.3-.09c-.79,0-1,0-1.8,0-1.69,0-3,0-4.64-.06,1.34,0-.48,0-.42,0-.17,0-.75-.09-.82-.1s.56.27-.19.19c.32.06-1.18.18-1.58.19-1.19,0-.78,0-1.09-.1s.75-.22-1-.2c-.79,0-1.28.14-2,.16.21.08,1.13.08,1,.16.42.06,0,0,0,0s0,0,0,0a5,5,0,0,1-1-.12c-.44.1,1,.2.79.29.07,0-2.6,0-2.87,0-1.34,0-1.67-.08-1.8-.23-.44,0-.72.05-.14.11a19.88,19.88,0,0,1-2.23.07c-.08,0-.81-.24-.7-.26.31,0,.52,0,.67,0-.31,0-.75,0-.93,0,1.1.15-1,0-.73.06-.31,0-1.44.1-.92.09a11.84,11.84,0,0,1-1.27.07c-.12-.12.39-.08.9-.16-.69,0-2,.16-2.65.12-.46,0,.37-.16.29-.19-.34-.15-.8.09-.68-.14a18.75,18.75,0,0,1-2,.13c-.47,0-1.52-.13-1.76-.12.9.12-.26.23-.64.24s-2.24-.12-2.67-.16c.49.11-.84.17-1.08,0-.34,0-.64,0-.94.07l.4,0-.44,0c-.25,0-.31,0-.27-.06A27.68,27.68,0,0,1-139.1,0c.3.06-.43.08-.45.13a8.43,8.43,0,0,0,1.41,0c-1.09.26-2.09-.21-3.31-.1.44,0,.58,0,.43.07a2.58,2.58,0,0,1-.7,0c0,.05-.17.09-.64.1-.28,0-.17-.09.34-.12-.43,0-1.2.17-1.44.15L-144,.07a3.49,3.49,0,0,1-.65-.19,1.3,1.3,0,0,1-.75.1c0,.08.73.17-.25.22-.55,0-.61-.08-.17-.13-1.26.06-1,.42-1.94.07a15,15,0,0,1-2.54,0c.13,0,1.23-.07,1-.13S-150.45,0-150.63,0c1.61.07-.77.26-1.66.24-.11-.06.45-.17.38-.24s-2.85.21-3,.2c.56.09-.95.16-1.34.06-.07,0,1.54-.2,1.72-.22-.9-.11-2.94.27-4.49.06a16.93,16.93,0,0,1-4.16.14,11.74,11.74,0,0,1,1.86-.14c-.29,0-2.23-.14-2.15-.18s.87-.13-.43-.15c.75.1-.08.07-.45.12s0,.08-.16.09a2,2,0,0,0-.78,0c-.16,0-.74.06-.9.1.7,0,1.32.1,2.12.09a20.79,20.79,0,0,1-3,.1c.54.13-1.06.11-1.7.1l1-.09h-.58a2.84,2.84,0,0,1,.58,0c.47-.06-.47,0-1.16-.14,1,0-.08-.05.6-.1-.35,0-.8.1-1.37.1-1.46,0-.6,0-1.08-.1a10.47,10.47,0,0,0-1.78.15,22.62,22.62,0,0,0,3,0,8,8,0,0,1-2.92.24c-.82-.08-.35-.25-1.36-.32a2.93,2.93,0,0,1-.77,0c.09.15,1.22,0,.23.26a4.33,4.33,0,0,1-2.06,0s1.9-.3-.64-.17a14.87,14.87,0,0,1-2.07.23c-.22-.12.5-.08.82-.18-.82,0-2,.21-2.52.17.1,0-.46-.31-.39-.33a18.08,18.08,0,0,1-1.87.07c-.13-.09.35,0,.45,0,.25-.09-1.4-.21-1.64-.26,1.15,0,.34-.14.4-.12s.85,0,.93-.05h-.26l-1,0a4.75,4.75,0,0,0,.55-.07c-.39,0-.83,0-1.31.06.28,0,.63.07,1,.1-.54,0-1.08.05-1.61.07.07,0,.15,0,.06,0h-.06c-.29,0-.59,0-.88.06,1.39.11-.06.07-.21.18s.7.08-.15.17a11.64,11.64,0,0,1-1.69,0c.1-.1,1.48-.13.41-.2s-1.93.13-2.77.05c0-.07.57-.07.9-.1-.21,0-1.64.08-2,0-.06-.06.15-.11.62-.14h-.16s-1,0-.1-.07c-.18,0-1.66.25-1.05,0a11.6,11.6,0,0,1-1.46.08c-.16-.09.23,0,.16-.11-.75-.06-.48,0-.53-.07-.88,0-1.14.17-2,.13-.13-.07.12-.11.75-.11-.75,0-1.87.13-2.75.11a2.68,2.68,0,0,1,.78-.1,4.81,4.81,0,0,0-1.33.09,2.11,2.11,0,0,0-1,0c1,0,1.23,0,.68.05a5,5,0,0,1-.73.05c-.4,0-1.28,0-.91-.08-.52,0-.9.11-1.4.13s-.88,0-1.45,0c-1.53,0-2.87-.06-4.34-.15a6,6,0,0,1-2,.06c-.19,0,1.09.06,1.21.09-.17,0-2.5.16-3,.18s-1.09,0-1.57,0c-.32,0-.93-.13-1.06-.13H-215c.18.16-.16,0-1.26,0,.83.2,1.11.23-.12.27l-1.27,0c-.45,0-1,0-1.46,0A7.09,7.09,0,0,1-221,.15s.32-.1.72-.15c-.34,0-.83-.07-.55-.09a10.51,10.51,0,0,1-2.25,0,2.09,2.09,0,0,0,.57,0l-1.84,0a3.7,3.7,0,0,0,.9-.19c-.19,0-.4,0-.62,0s0,.05.27,0a6,6,0,0,1-1.87,0c.23.07-.19.16,0,.22S-224,0-224.3.16a7.59,7.59,0,0,1-1.31-.1c-.22.09,1.59.24,1.28.29,0,0-3.11,0-3.63,0-1.19,0-3.28-.12-1.33-.24-.94-.06-.1-.12-.34-.21-1.08.06.32.26-1.06.27-.67,0-1.22-.18-2.22-.18-1.84,0-2.32.44-5,.18a5.5,5.5,0,0,1,1.22-.07A.93.93,0,0,0-237,0a7.31,7.31,0,0,1-1.54.12c.12-.1.23-.13,1.07-.13,0,0-.17-.07-.61-.06.46,0,.38-.07.33-.09-.63,0-.41,0-1.07,0,1.17.08,0,0-.34,0s-1.26.11-1.61.09a13.36,13.36,0,0,0,2.16.14,15.8,15.8,0,0,1-2.69.05c-.5-.06-.08-.05-.19-.14s.6-.32-.46-.33c.31,0-.5.15-.73.17a7.66,7.66,0,0,0,1.27,0c-.56.27-2.3-.05-1.72-.11l-1.08.1c.93,0,2.06.19.39.17A4.62,4.62,0,0,1-245-.09c0,.25-2.55-.11-2.06-.09h-.52l.37,0c-.06,0,.54.1.05.09a1.53,1.53,0,0,1-.64-.11,2.24,2.24,0,0,0-.95.13c-.12.1,1.59.32-.57.23.09,0-.84-.21-.75-.12-.11-.11.4-.09.65-.2a16.24,16.24,0,0,0-1.79.23c1.74.15-.78.13-.16,0-.55,0-1.25-.27-2.32-.3-.51,0-3,.2-2.74,0-1,.05-.94.24-.59.31.19,0-3.75,0-2.12-.08h-.15a.68.68,0,0,1-.41-.11l-.57.09c.07,0,.89,0,.66.08a12.37,12.37,0,0,1-2.2.11c0-.13,1.59-.18-.22-.22a4,4,0,0,0-1.18.06c-.76,0-3.49.29-2.09,0-.81,0-.27-.08,0-.12a15.27,15.27,0,0,0-1.87.06c-1.1.11-.49.06-.23.16a11.21,11.21,0,0,1-1.7-.05c-.27,0,1-.12,1.05-.14-.7,0-2.22.23-2.85.14-.34,0,.27-.12-.33-.18.24.09-.76,0-1.09,0a16.42,16.42,0,0,1-3.07-.06c-.14,0,.28-.11.31-.11h-.06a.87.87,0,0,0-.29-.06s-.9.08.06.14a6.9,6.9,0,0,1-1.88-.1,15.6,15.6,0,0,1-2.21,0c-.18,0,1.3.35-.54.1.17,0,1,.16.79.21a5.53,5.53,0,0,1-1,0c-.65,0-1.79,0-2.66,0,.35,0,.45.06.29.11a3.16,3.16,0,0,1-.87,0c0,.06,1.09.22.9.26l-2,0a15.52,15.52,0,0,1-4.11-.17c1,0,1.4.07,2.31.05-.36-.15-1.28-.23-.77-.39a4.65,4.65,0,0,0,1.12,0c-1.15,0-.47-.05-1.27-.1,0,.06-.29.06-.63.08-.57,0,.25.07.29.11-.74,0-.94,0-.64-.11-1.36,0-2.38.13-.85.25a12.71,12.71,0,0,1-3-.14c.12.05-.16,0-.46,0h0c-.49,0-1-.14-.14-.16.34,0,.48.07.41.12a6.15,6.15,0,0,0,.75-.07c.24,0-.17-.08-.51-.14h0l-.31-.06a.89.89,0,0,1-.33.09l.45,0s-.27.05-.32.05c-.24,0-.33,0-.35-.05-.77.05-2.1,0-2.57-.05-.12,0-.63,0-1.2,0s-1.17-.06-1.69-.1c-1.6.19,2.12.32,2,.46a9.87,9.87,0,0,1-1.56-.1c-.18.11,1.85.24,1.57.31.11,0-3.05.07-3.32.07a8.1,8.1,0,0,1-2.73-.2c.94,0,1.37.07,2.27.05a4.14,4.14,0,0,0-1-.25c-.67,0-1.89.08-2.52,0a1.84,1.84,0,0,0,.81.12A18,18,0,0,1-305.68,0c-.45.24-.25.12-1.28.14A30,30,0,0,1-310,0c.64-.06,2.56-.08.45-.19-1.08-.05-2.09,0-3.2,0h-.13l-.59,0c-.21,0-1.43-.18-1.83-.17-.23,0-.25.09-.42.11-.92.09-1.36.21-2.54.29-.43,0-.22-.21-.72-.23-.16.21-.41.2-1.9.21.79.29-1.89.52-2.67.14.21.18-1.74-.19-1.87-.23-.88-.27-.22-.19,1.12-.23-.6-.07-.48-.07-.44-.16-.77,0-1,.18-1.64.21-.25,0-.94,0-.15,0-.39,0-.08,0-.61,0-.05.11-.56,0-1.17,0,.13.08,1.33.09,1.21.17a2.31,2.31,0,0,1-.89,0c-.15.08,1.52.13,1.18.2a31.1,31.1,0,0,1-3.78-.1c.58,0,.75,0,1.31,0a.26.26,0,0,1-.11-.07c-.08,0-.07,0,0,0a.53.53,0,0,0-.42-.2c0,.35-3.64.23-3.34,0l-.62.1c-.07,0,.05,0,.21-.06l-.73,0c-.42,0-.88,0-.91,0l-1.23,0c-.94,0-.31-.12-1-.2s-1.78,0-1.75-.16c0,.11.72,0,.11,0-.41,0-1,0-1.55,0l-1.42.2-.49-.06c.14.05.13.1,0,.14.33,0-2.13-.06-1.83-.05-.46,0-.32-.1-.86-.1-1,0-1.16.09-2.57.05,0,0,0,.13-.16.15-.4,0-.49-.08-.89-.08.06,0,.66.18.34.22,0,0-1.87-.06-2.1-.07a4.79,4.79,0,0,0-.54,0h0l.29,0c-.51,0-3,.08-2-.12-.62,0-1,0-1.5.07.3,0,2.55.07,1.5.14-.59,0-1.09-.08-1.63-.09,0,.09,2.14.18,2,.24,0,0-2,.08-1.71.07l-1.41.07c-.41,0-1.26,0-1.7,0-1.17-.07-.75-.13-.2-.2-2.53-.12-.25.09-1.64.08-.26,0-1.15,0-.45-.08-.89,0-1,.19-1.62.18-.07,0-.78-.18-.86-.2l-.58-.09a8,8,0,0,0-2-.18c.41,0-.4.18-.67.19-.61-.06-.07-.13-.09-.19-.55.09-1.12-.07-1-.12a6.21,6.21,0,0,0-1.2.12,3.57,3.57,0,0,1,1.23.12,3.38,3.38,0,0,1-1.19,0c-.29.11,1.45.14,1.48.23s-2.73.12-3.05.13A10.88,10.88,0,0,1-372-.1c.89-.06,1.32,0,2.2,0a4,4,0,0,1-1-.28s1.28-.15-.09-.16c-.91,0-.52.09-1,.15h0l-.17,0a14.85,14.85,0,0,1-1.8,0,4.8,4.8,0,0,0,1.27.11c-1.06.11-3.7-.07-2.66-.12-.62,0-.72,0-.33-.09a18.83,18.83,0,0,1-2.08-.08,12.58,12.58,0,0,1-2,0c.23.14,0,.06-.5.11a4.67,4.67,0,0,0,.53-.08,14.91,14.91,0,0,0-1.5.15,9.83,9.83,0,0,1-2.31-.08c-.17,0-.35.17-.57,0,0,0,.14.15.06.17a7.36,7.36,0,0,1-1-.06c-.25.26-1,0-1.11,0-.89,0-.41.22-1.08.25a1.79,1.79,0,0,1-.7-.17c-.87.11-.83-.12-1.2-.14a29.17,29.17,0,0,1-4,.09c-1.92-.13.72-.12.61,0,.18-.08,1.7-.18.68-.25A5.37,5.37,0,0,0-393-.47c-1.5.12-1.16.31-2.35.15-.27,0,.36.2.11.21s-3.06-.12-3.11-.13c-.44,0-.68,0-1.3,0,.35,0-.38-.15-.38-.15.58,0,.84,0,.76,0a19.42,19.42,0,0,0-2.28.1c-1.14.1-.66.08-1.06.17a19.75,19.75,0,0,1-3.75-.23c.72,0,.68.08,1.32.09a.55.55,0,0,1,.16-.1h0c.16-.09.34-.19.19-.22a7.71,7.71,0,0,1-1.24.09c.3-.05-.55-.14-.71-.16s-.11.17.2.22c-.3,0-.43,0-.38,0a2,2,0,0,0-.76,0c-.34-.09-.05,0-.67,0l.09,0a3.56,3.56,0,0,1-.95.06c-.37-.06.4-.15.72-.16l.16,0c-.06,0,.05-.07.15,0l-.14,0h0l.39,0c.85-.14-2.39-.07-2.57-.08s.59.09.63.13a7.5,7.5,0,0,1-1.19,0H-411s0,0,0,0h-.18c.15,0,.24,0,.18,0h.06c.21,0,.38-.05.1-.08.08,0-.61,0-.74,0,.06.08.06.11,0,0h0l0,0-2.36,0c.12,0,.1,0-.07,0-.72.09-1.07.13-.81.2-.14,0-2,0-1.66.07.1,0,.64.06-.56.09-.66,0-1.51,0-2.09,0-1,0-1-.33-2.23-.35.2.18-.84.12-1.86.16-.4,0-.08.08-.29.1-.84.07-.48,0-1.19.06q-.6,0-.36-.09c-.29,0,0,.16-.1.18a13.51,13.51,0,0,0-1.72-.07c.32-.08-.26,0-.78-.12a5.86,5.86,0,0,0-1.08-.13c1.06.14-2.27.56-3.22.22.58,0,.39,0,.9,0-.11-.05-.54-.1.05-.13l-1.58,0s.12.09.47.12c-.77,0,0,.08.2.1-.37.07-2,0-1.83-.14a5.67,5.67,0,0,1,1-.12s0,0,0,0,.3,0,.31-.08a27.13,27.13,0,0,1-5-.07c-.32.06.35.1-.11.15a2.45,2.45,0,0,1-.36,0s0,.07-.09.1-.82-.06-1.14,0l-.91,0a10.1,10.1,0,0,1-2.32.13c.19-.11,1.22-.1,1.55-.2a1.9,1.9,0,0,0-.83,0c-.16,0-1.74-.05-.55,0l-1.13.1c-.22-.08.24-.4-1.25-.26-1.18.12-.44.36,1.2.27-1.24.59-4.89-.19-5.84-.08.65,0,1.21.22.93.28a5.27,5.27,0,0,1-1.7,0,3,3,0,0,0-1,0c-.44,0-.29.08-.37.14s.77.23,0,.3-.19-.1-.56-.19c-.67.06,0,.31-.6.34L-453.9.28c-.53-.05-1.12-.09-1.67-.15L-456.92,0h0c-.57-.06-.92-.13-.46-.24l.62.19c-.06-.23,1.57,0,1.88.07a2.68,2.68,0,0,1,1.18-.23c.65,0,.67,0,1.45,0-.35-.24-1.68-.14-3.44-.12a5.65,5.65,0,0,1-1.2,0,2,2,0,0,1-.75-.26c-1.33.11.19.21-.08.28a11.6,11.6,0,0,1-1.33-.07c.45.12,1.49.12.32.23-.49.06-1.53.17-1.56,0a7.2,7.2,0,0,1-1.23,0c.56.08-.46.08-.75.11.08-.08-2.29-.24-2.15-.27-.31,0-.68.07-1.1.09h-.7a3.44,3.44,0,0,1,.55.15c0,.19-1.15.08-.88,0-1.26.09,1.24.57-1.62.21a9.23,9.23,0,0,1-2-.06c-.38,0-1.06.06-1.27.05s-.41-.06-.67-.07c-.82,0,.23-.29-1.62-.08-.7.08-.28.29-1.45.32-.58-.1.23-.11.24-.21-1,0-1,.25-1.73.27s.06,0-.58-.08c.13,0-1.09-.21-1.08-.19s-.25.11-.78.12c-.31-.08.28-.06.41-.15-.34,0-1.66.21-1.78.18a2.58,2.58,0,0,1-.62-.24c-.54.1-.33-.06-.21-.09s-.45.07-.45.07c-.83.05.11.12-.11.16-.73,0-.79-.25-1.37-.29,0,0,.32.21-.13.22.28,0-2.27-.13-2.22-.12-.76.44-1.38,0-2.24,0,.57,0-.62.12-.5,0-1,.07-.42.3-1.61.32-.54-.1.23-.09.25-.2-.8,0-1.27.27-1.84.27a5.8,5.8,0,0,0-1.1-.27c-.26,0-1.4-.17-1.79-.17a6.11,6.11,0,0,1-.9.11A2.2,2.2,0,0,1-496-.09a3.53,3.53,0,0,0-1.15,0c-.43,0-1.2-.07-1.59,0a5.6,5.6,0,0,1-.86.06,5.92,5.92,0,0,1,.69.06,2.89,2.89,0,0,1-.66,0c.1.06-2.46.16-2.94.17s-1.36.06-1.9,0c-.91,0-.44-.19-1.24-.24,0,0,0,0,.08,0a11.91,11.91,0,0,1-1.8,0c-.33.1.85.2.06.28s-.16-.08-.51-.15c-.7.06.19.21-.3.28,0,0-3.77-.25-3.27-.41a6.63,6.63,0,0,1-1.3.09c-.43-.23-.58-.08-2.12,0-1.72-.17.06,0-1.45.09-.3,0-.3-.06,0-.09a2,2,0,0,0-.63.14A8.94,8.94,0,0,0-519,0c.18,0,.4-.08.64-.11l-.81,0a2.88,2.88,0,0,1,.45-.08,15.69,15.69,0,0,0-1.68,0,7.18,7.18,0,0,0,1.2.08c-.37,0-.77,0-1.19.05.23.08,1.51.08,1.17.19a5.12,5.12,0,0,1-1.11-.1c-.34.1,1.11.18,1,.27s-6.9,0-5.05-.26c.47,0,1.38.12,2,.13-.4-.13-.61-.23.44-.31a2.09,2.09,0,0,1-.59-.09c-.15.11-3.75,0-1.77.23-1,0-1.14-.09-1.75-.09.43,0-1.77.06-1.72.06a11.72,11.72,0,0,1-2.91,0l.52,0c.14,0,.56-.08.6,0-.09-.14,0,0,1-.06A5.26,5.26,0,0,0-530-.23a2.49,2.49,0,0,1-.57.13c-.27,0-.8,0-1.08.07s.3.07.11.1c-1.75.29-.53-.1-3,0,.44-.08-.1-.14.95-.21l-.9,0c.25,0,.24-.07,0-.09A7.85,7.85,0,0,1-536-.23c.69,0,.35-.06-.31,0s-1,.06-1.39.1a17.19,17.19,0,0,0,2.39,0,4.77,4.77,0,0,1-1.85.24c-.84,0-.58-.16-1-.22-.09,0-1.32.09-1.65.15,1.51,0-.58.26-1.43.13-.27,0,.31-.24.35-.29-.34,0-1.78.07-2.33.07a4.58,4.58,0,0,1-.55,0h-.08l-.52,0h-.91l-.11.06c-.11,0-.05,0,.09-.06h-.17c-.41,0-1,0-1.25,0l-.94,0c-.74,0-2.16,0-3.15.07.08.06.4.21-.07.25-.94-.07-.21-.12-.62-.22-1.24.11.25.62-1.92.21a5.57,5.57,0,0,1-1.91-.1,9.33,9.33,0,0,1-1.45.14c-.18-.06,0-.1.58-.11-.42,0-1.53.13-1.73.11a.66.66,0,0,1-.16-.31c-1.26,0-1.75.18-3,.19-.07,0-.09-.09-.07-.14-.51,0-1.78,0-.89-.1-1.11,0-.67,0-.8.09-.31-.06-.56.17-1.53.16-.22-.09.2-.11.73-.18-1,0-3.07.39-2.29,0-.58.05-2.06,0-2.82,0,.16.05.44,0,.59.05-.4.06-1.14.08-1.64.12L-570,0c.3,0,.76.06.45.1a1.91,1.91,0,0,1-.59-.07s.15.06-.18.1c-1.13,0-3,0-3.86-.13.08,0,.94,0,1-.07a10.25,10.25,0,0,1-1.4-.06c.42,0,.48,0,.18,0a10.5,10.5,0,0,1-1.59,0c.07.07.09.18-.71.19-.15,0,.28-.16,0-.18a4.9,4.9,0,0,1-1.35.23c-.64,0-.24-.14-.47-.17l-1.51,0c.14,0,1.09-.07.86-.11-.61,0-.82,0-.61-.1-1.63.17-.6-.14-.11,0a7.36,7.36,0,0,0-2.38.14c.6,0,1.17,0,1.74,0,0,.07-.28.11-.83.13a2,2,0,0,1,.68.07,12.53,12.53,0,0,1-2.21-.12c.43.17-1,0-1.33,0A2,2,0,0,1-585,0a11.34,11.34,0,0,0-1.55,0c-.64,0-.83,0-.45-.13-1.55.09.37.37-1.9.17-.13,0-.2-.08-.22-.12a2.72,2.72,0,0,1-.82,0,5.07,5.07,0,0,1-.68-.21,3.69,3.69,0,0,1-.72.15c-.1,0-.57,0-.72.05s.43.08.27.1c-.34,0-.46,0-.37-.07-.34,0,.33.09,0,.15A7.47,7.47,0,0,1-594-.11a1.88,1.88,0,0,1,.59.05,2.53,2.53,0,0,1,.87-.1c.12-.09-2.26-.1-1.65.1-1.62.08-.57-.09-.44-.15-.42,0-1.7.2-2,.17s-.1-.1,0-.14c-.8,0-1.72.06-2.11,0s-2.19.14-2.29.14c-1.75,0-.79-.15-.73-.09.58-.17-1.05-.06-1.43-.1.74.09.29.13-.24.11l-.16,0,.14,0-.43,0,0,.06s-.07,0,0,0c-.27.12-1.45.1-1.36,0-1.79.16-1.4,0-1.55-.12-.28.06-.74.11-1,.15a15.85,15.85,0,0,1-4,.2c.45-.11,1.27-.06,1.81-.14-.18,0-1.68,0-1.62-.09-.67.08.43.12-1,.18,0-.07,0-.42.78-.35.14-.19-1.84.12-1.23.06-.73.07-1.09.14-2.09.19a17.86,17.86,0,0,0,2.48.11,15.28,15.28,0,0,1-2.78.13c-.71-.08.07-.18-.06-.28a8.25,8.25,0,0,1-2.14-.07l1.13,0c-.37-.12-.39-.08.14-.19-.7-.06-1.4,0-2.18,0-.13.13,1,.09,1.55.12-1.53.19-2.73-.16-1.86-.17-.47,0-.89,0-1.3,0,.33.09.58.28-.68.29-.35-.1.72-.13-.58-.13-.81,0-.41.14-1.24.13-.18-.05,0-.08.42-.1-.58,0-.82.11-1.31.11-.21,0,.27-.11-.27-.12.25.06-.37.2-.92.22a7.88,7.88,0,0,1-1.47-.12c-.72,0-1.59.14-2.36.13-.43,0-.45-.13-.58-.13a8,8,0,0,0-1.07.11,15.09,15.09,0,0,1-3.29,0,13.21,13.21,0,0,1,1.7-.11c-.26,0-.87-.12-1.21-.14,0,.05-.14.06-.51.06,1.57,0-.19.11-.68.12-.1,0,0-.08.34-.1-.71,0-.4-.06-.4-.08l-.19,0a.56.56,0,0,1,.19,0h0a12.63,12.63,0,0,0,1.53-.17c-1.49,0-4.22.34-1.54.36a14,14,0,0,1-1.93.07c.21,0-2,0-3.66-.07h-.15c-1.12,0-2-.12-1.75-.2a34.49,34.49,0,0,1-4,0,14.43,14.43,0,0,0,1.62-.16,12.29,12.29,0,0,0-2.17-.11c-3.14,0,0,.13-.14.26a2.43,2.43,0,0,1-.89-.06c-.15.08,1,.11,1,.18a32,32,0,0,1-3.56-.08c.58,0,.75,0,1.3,0-.39-.15-.4-.1.24-.22-.91-.08-3.48,0-1.8.14-.71,0-.77.06-1.6.08.57-.1,1-.05,0-.15,0,.08-.49.08-.7.15s.43.09.37.11a6.28,6.28,0,0,1-2.54.22c0-.07,1.17-.16.95-.22-1.59.22-.67,0-1.59,0-.54,0-2.18.12-2.68.09.11-.13.71-.06,1.29-.14-1-.07-1.64.13-2.52.1-1.57,0,.45-.17.3-.22a8.67,8.67,0,0,0-1.35-.13h-.13a1.1,1.1,0,0,1-.27,0c-.11,0-.59-.13-.83-.16-.38.13-.39.23-2.16.18a13.63,13.63,0,0,0,1.68-.15l-1.27.08c-.85.07-1,0-.35-.05,0,0-.95.12-.95.09s.15-.05.17-.08a5.72,5.72,0,0,1-2.56.07c-.27,0,0-.11-.34-.15-.64-.08-.91,0-1.68-.08l.15,0h-1.35c.65.06,1.42,0,.53.11.2,0,.9,0,1.08,0,.26.19-.22.21-.73.32s-.64,0-.66.06c.14,0,.11.07-.08.1a3.49,3.49,0,0,1-.5,0c0,.06.08.13-.15.15a5,5,0,0,1-1-.09c0,.06-.13.09-.47.09a3.73,3.73,0,0,0-.54-.12c-.54,0,.14.27-.33.29a6,6,0,0,1-1-.15c-.19,0-.62,0-.93,0a6,6,0,0,1-1.58-.22c-1.31.07-1.3.34-2.14.36-.58-.1.21-.09.21-.2-1,0-1,.28-1.79.28-.37,0-.46-.19-.45-.18a.91.91,0,0,1-.94-.11L-682,0h.3c.19.12-.76.15.5.21-.06.05-1.66.12-1.73.15-.37.1.35.15.9.06.56.12.52.51-.66.3-1.31,0,.07.38.41.43-2.44.08-2.07.39-2.76.58a8.69,8.69,0,0,0,2.47-.3c.17,0,.16-.16.4-.19.47-.06,1.37,0,1.91-.05s-.22.14-.14.2,1,0,.86.09c-.31.13-.44,0-.91.06a4.86,4.86,0,0,0-1.73.29c-.08.24,1.51.18.85.06-.73.07-.78-.09-.1-.1,1.55,0,1.38.21,1,.33a4.36,4.36,0,0,1-1.15.18c-.51,0,.11-.15.08-.16-.51.06-2.17.35-1.17.45s.75-.19,1.24-.29c.79,0,.44.14,1.23.05.05,0,.12.25.13.24s.44,0,.32,0-.43,0-.59,0-1.06,0-1.35.09c-1.39.18,0,.24-.14.34.34,0,.55-.18.05-.12.12,0,0-.1.61-.1,1.39,0,.43.34-.37.41a7.32,7.32,0,0,0-1.36-.16c.09.07-.2.24-.73.24.13,0-.37-.11-.37-.16l.75-.11a.25.25,0,0,1,0-.14s-.07-.15-.08-.17,1,0,0-.16c-1.45.14-1,.3-1,.53s.12.2,0,.28-.92,0-1,.12c1-.08.29.07.89.09a7.76,7.76,0,0,0,1.22-.28,8,8,0,0,1,1.23.19c0,.12-.36.08-1,.16l-.92,0c-.06.06.12.09.54.07a1.46,1.46,0,0,1,.52.1,4.8,4.8,0,0,0,.51,0c.65,0-.07.09-.12.11s.5-.07.66,0-1,.14-1-.07a4.55,4.55,0,0,0-.65.28c.52.08.41.14-.33.17l-.43.08c-.16.09-1,.32-.61.4.64-.06.58-.22,1.09,0a4.69,4.69,0,0,1,2.57-.46,4.35,4.35,0,0,0,1.16.24,7.78,7.78,0,0,1-1,.07c.33,0,.38.07.17.1s-.2,0-.25-.1c-.39,0-.77,0-.91.05-1.11.16-.55.5.9.32,0,0-1.62-.26.19-.17.84,0,.65.24.54.33s-.48,0-.64.1.55.09.11.13a2.78,2.78,0,0,1-.89,0c-.29,0,1.3,0-.47-.11,1.74-.13.06,0-.49-.13.11.2-.65.21.31.33a7.11,7.11,0,0,0,2,0c.25.07,0,.16.16.22s1,0,.86.11a6,6,0,0,1-.89,0,9.78,9.78,0,0,0-1.82.24c-.47.16.37.32,1.47.16l-1.08,0a2.89,2.89,0,0,1,1.25-.12c.92,0,.31.14.21.23s-.86.21-1.1.33a2.4,2.4,0,0,1,.54,0c.15,0,.06.18.11.21l-.29.1a7.61,7.61,0,0,1,1,.1c-.38,0-.77,0-1.17,0-.18,0-.27,0-.27.07a8.62,8.62,0,0,0-1.82.27,11.14,11.14,0,0,0,1.53,0c-.08,0-1.08,0-.66-.08l.81-.09.88.13c-1.31.12.17.32-2,.29,0,0,.05-.06.19-.07a5.9,5.9,0,0,0-.94,0c.79.1-.38.2,0,.32,1.25-.08.11-.21,1.93-.18,0,0,.22.23.29.21-.15,0-.22,0-.52,0-.54.09-1,.16-1.51.27a7.19,7.19,0,0,0,1.05,0c.36-.12-.76-.09.82-.13-.45.11-.2.24-.92.32l-.41-.09c-1.26.23.88.28-.06.52a4.28,4.28,0,0,0-1.5.44c-.08.09-.15.11,0,.19s.9.16.8.24a3.57,3.57,0,0,1-.64.1c.46,0,.68.11.6.18h.72c0,.13-1.76.21-1.66.4a4.33,4.33,0,0,0,1.61-.19c.55-.12,2-.19,1.13-.06l1.57.14c-.68,0-1.87,0-2.3.11-.87.15,0,.14.64.19.07-.09-.51,0-.59-.07a3.93,3.93,0,0,1,1-.06c-.17.11.34.22-.49.31-.24,0-.33,0-.29-.08l-1.14.07,1.52.28a2.68,2.68,0,0,1-.83,0c-.47,0-.15.11-.89.12l.34-.05a2.89,2.89,0,0,0-.72,0c0,.05.76.14.88.2s-.83.19,0,.29c.38,0-.08-.12.45-.13a6.78,6.78,0,0,0,1,0c.42.1-.06.25.26.32a7.59,7.59,0,0,0-1.41,0c-.86.09-.31.24.56.14a5.4,5.4,0,0,0-.61,0,3.62,3.62,0,0,1,1.85,0c.27.18-1.61.12-1.64.38-.45,0-.07-.08-.35-.09-1,.09-.47.1.06.2-.45.1-1.4.05-1.4.24s.9.2.86.4-.5.22.61.34a13,13,0,0,1,1.53.12c1-.11.1.06.92.06-.52.1-1.44.09-2.05.14a2.89,2.89,0,0,0-1.2.19,1.71,1.71,0,0,0,.5.05,1.61,1.61,0,0,1,.37,0c0-.05-.06-.13,1-.07-.7.14-.13.34-1.35.44-.08,0-.15-.22-.12-.23a4.24,4.24,0,0,0-.75,0c.77.08.41.5,2.3.21-.08,0,.74.33.86.24-.16.12-.38,0-.51.05-1,.15-2.56.22-.25.13.11.06.42.46.26.46.81,0,.57,0,.57.18,1.51,0,.56,0,1.11.14-.57,0-.71,0-1,0,.24,0,.3.07.11.09s-.23,0-.24-.08l-.56,0a5.91,5.91,0,0,0-1.54.36c.45,0,.89,0,1.33,0-.44.07.25.12.78.05-.19,0-1.19-.05-1-.11s.28-.18,1.24-.09c.8.08.33.14.21.25s-.33.15-.86.25-.85,0-.89.14c-.07.37.21,0,1,.15a10.6,10.6,0,0,1,1.37.35,3.42,3.42,0,0,1-.67,0s0,0-.22,0-.11,0,.08,0a2.79,2.79,0,0,0-1.31.16c1,.17,1.9-.05.71.28.7.07,1.11,0,1.11.1l-1.66,0c-.45.12.62.38-1.65.42.81.12-.67.46-.93.59.24-.13,1.06.05,1.23.06.56-.16.34-.27.84-.42.18-.05.75-.17,1-.21l.16-.11c.54,0,1,0,1.52-.06a3.53,3.53,0,0,1,.75.33,10.12,10.12,0,0,0-3,.36c3.32.06.29,0,1.5-.13,2.42-.22-.06.77-.46.31-.85-.08-1.33.21-1.23.26a4.62,4.62,0,0,0,1.8.19s.31.27.47.2c-.21.09-.38,0-.74.08-.18,0-3.16.39-.76.32,0,0-.62-.2.25-.14s.36.1.18.24l1.13-.09c.08,0-.34.29-.49.32-.8-.05.52-.18-1-.14-.93,0-.19.11-.38.15a3.28,3.28,0,0,0-1.39.47c-.17.18.08.45-.18.6s-1.31.14-.3.43c.35-.13.55-.26.85-.37s.58,0,.66-.14-.47-.18-.36-.28a6.68,6.68,0,0,1,1.38-.43c.16,0-.38,0,.09-.09s1.24-.05,1.76-.09q.14.11.12.21a7.78,7.78,0,0,1,1,.08s-1.44.11-1.72.14c-.77.08-1.56.2-1.46.38-.13,0,1.74,0,1.59,0,.16,0-1.36-.36.78-.22,1.58.11-.56.42-1.17.5s.66-.11.2-.16c-1.24.13-1.06.35.57.16,1.09.14-1.17.15-1.25.21s1.42.06,1,.22a17.56,17.56,0,0,0-2.77-.05c-1.19.13.45.09.36.09,1.3,0,1.1-.13,1.42.13l-.39.11.41.08s-.19.16-.2.18.64,0,.54.06a4.13,4.13,0,0,1-.57,0c-.18.06-1.05.06-.92.18s1,.05,1.1.07-.25.1-.21.15-.07.24-.37.41c-.68,0-.69-.23-.44-.27-1-.1-1.52,0-1.46.13l.75.1a8,8,0,0,0,1,.13c-.09.07.1.1.58.08a2.93,2.93,0,0,1,.8,0c-.86.19,1,.19.81.26a8.64,8.64,0,0,1-1,0c.12,0-.68.11-.46.09-.68.06-1.88.1-1.77.26a4.07,4.07,0,0,0,1.83.09c-.78,0-2-.11-.48-.18s.89.13.86.22.09.26-1.35.26c-.25,0,.67-.1-.08-.13a9.45,9.45,0,0,0-1.55.07c.82,0,1.2.12.75.19,1.42.07.12.12.05.08s1,.08,1,.1c.22.14-.48.14-.62.23s-.46.47-2.07.17c-.51.09-.65.19-.44.29l-1.58.21c1.36.08.34,0,1.28-.08a2.39,2.39,0,0,1,.38.09c.23,0,.07-.21.38-.26h0a4.19,4.19,0,0,1,.94-.06,3.06,3.06,0,0,1-.71.05c0,.17.34.13,1.32.1.23,0,0,.14,0,.18s.87,0,.7.13-.81,0-1,0c-.84.12-.85.15.25.25.36,0,.89,0,1.05,0,.47.1-.49.18-.42.28-.09,0-.65-.17-.31-.18a1.3,1.3,0,0,0-1,.4c-.46,0-.64,0-1.25.1.08,0,.68,0,.52,0,.15,0-.63.24-.49.13-.08.07-.5.08-.49.17s.42.11,1.23.24c.63,0-.25-.16-.19-.2s.77-.16,1-.26.35-.26.4-.27c.4-.06,1.27,0,1.65-.07.3.06,0,.16.2.22,0,0,1,0,1,0a4.31,4.31,0,0,1-.92.12h.51a1.1,1.1,0,0,1-.43.09c-.19,0-.25-.05-.22-.08l-.23,0c-.7.07-1.72.17-1.54.29a4.46,4.46,0,0,0,1.81.08c-.36-.06-2.43-.14-.27-.16,1.21,0,.71,0,.87.15s-.22.36-1.69.36l.65-.17a3.81,3.81,0,0,0-.84,0c-.94,0-.94,0-.85.17a3.62,3.62,0,0,0,.76.2c1.6-.09,1,.08,1.69.18-.44.06-1.08,0-.6.15a2.79,2.79,0,0,0-1.58.1c1.44,0,1.73,0,1.14.15s-2.19.21-.59.43c-3.17.13-2.67.81-2.67,1.15a12.09,12.09,0,0,0,1.66-.18,2.76,2.76,0,0,0,.62.18c.07.11-.15.06-.57.16s-.83,0-.83.12a2.85,2.85,0,0,1,.68.14c.47,0,.08-.06.44-.08,1.37.17-.38.08-.7.14a9.61,9.61,0,0,0-1.13.36c-.19,0-.72,0-.92.14s-.12.2.69.2a5.6,5.6,0,0,1,2.47-.41c2,0,0,0,.58.1-.35.07-.22.12.4.12.41,0,.57,0,.48.05s-.89.05-1.35.09c-1,0-1.29.07-1,.19h.79c.63,0,.94,0,1,.08-.21.05-.3.11-.28.17l1.18-.16c.51.11-.62.14-.8.2a3.44,3.44,0,0,0-.42,0c-.26,0,.6.08.19.14a7.94,7.94,0,0,0-1.29,0c.35.05.45.11.32.17.9,0,1.43,0,2.27-.06-.22.1-.75.19-.23.3a2.53,2.53,0,0,1,.51,0,.1.1,0,0,0,0,.09c-.47,0-.53-.05-1,0l-.11,0c.32,0,.38.07.17.1s-.22-.05-.24-.09l-.41.08c-.3,0-.88,0-1.16.05a9.22,9.22,0,0,0-.88.28c.14,0,1.56,0,1.52.06s.31-.15-.12-.1c0,0-.67-.21.92-.13,1.06.06-.24.65-1.14.69s0-.24.27-.35a10,10,0,0,0-1.88.14c.56.06,1,.2.44.3,1.43,0,2.14,0,2.07.23s-.95,0-.46,0c-.92,0-2.77.32-.7.32.16,0-.65-.21.48-.12.68.06.08.12,0,.17a1,1,0,0,1-.83,0c-.35,0-1.93.12-2,.11s.32.22.24.31l.38.12a3.54,3.54,0,0,1-.48,0c-.2.12-.89.22-.86.35s.89.22.84.35c.27-.07,0-.13.09-.21s0-.16.38-.28a2.91,2.91,0,0,1,.71-.21,5.46,5.46,0,0,0,1.11-.08,3.37,3.37,0,0,0,.35.22c.31,0,.45,0,.4.07l-1.11.08c-.7.11-1.4.09-.79.26a1.61,1.61,0,0,0,.83-.06c-.37,0-.23,0-.53,0-1-.06,1-.09,1.24-.08,0,.06-.15.28-.31.3-.68.08-.56,0-.91-.07a1.84,1.84,0,0,1-.74,0,.46.46,0,0,0-.24.12c-.38,0-.73,0-1.07,0,1.71.2-2.12.83-.06.9a7.38,7.38,0,0,0,.94-.33,1.77,1.77,0,0,1,.59-.24,9,9,0,0,0,1.1-.08c.08,0,.86.22.88.19-.09.13-.39,0-.86.11l.68.06a12.32,12.32,0,0,0-1.73.1c-.3.07-.18.27,1,.18,0,0-.83-.06-.66-.07a8.5,8.5,0,0,0,.86-.13c.38.08.81.36.25.42-.82.09-.61,0-.78,0a2.46,2.46,0,0,0-.81,0,2.37,2.37,0,0,1-.6.12c.15,0,1.74.21,1.74.21a13.51,13.51,0,0,1-2.11.13,12,12,0,0,0-1.41.33c-.27.1,0,.11,0,.18s-.18.06-.35.09a1.34,1.34,0,0,0-.44.09c-.3.1.44.29.44.29.2-.09.74-.2,0-.26h0v0c1.22.06.71-.1,1.09-.19a10.72,10.72,0,0,1,1.32-.3,5.49,5.49,0,0,1,2.12-.16c.33,0-.32.11-.26.15s1.17,0,.67.1c-.17,0-.75,0-1,.07a7.72,7.72,0,0,0-1.73.15l.88.17c.26,0-.49-.15-.21-.16,1,0,1.09,0,1.27.11l-.4.19a1.12,1.12,0,0,1,.5.09c-.33,0-.49-.09-.73,0-.08,0,0,.13,0,.13a5.68,5.68,0,0,0-1.49.4c-.13.15-.13.36-.59.53-.28.11-2,.35-.2.42a4.11,4.11,0,0,1,2.3-.44v-.13c1.1.06,1.09,0,1,.16-.34,0-.68,0-1,0,0,.16.81.13.89.23s-.86,0-.86,0a11.3,11.3,0,0,0,1.66.28c-.23.15-1.06.2-1.06.37l.48.25-1,.06a6,6,0,0,0-.84.08V40c-.21.08-.46,0-.69.13s-.1.39-.34.61c.67.12.52.18-.47.2l-.65.09c.09,0-.33.31-.33.33a9,9,0,0,0,2.08-.47c.07,0,1.33,0,1.44,0s1.08.14,1,.22-.34,0-1,.09a7.49,7.49,0,0,0-1.28.08c-.84.19,0,.1.4.22.64-.09-.44-.09.66-.19.67-.06-.85.42,1.08.08.45.09-2.1.66-.29.72a7.23,7.23,0,0,0-1.89.3c-.09,0-1,.45-.22.39a12.45,12.45,0,0,0,1.52-.38,5.73,5.73,0,0,1,1-.23,4.14,4.14,0,0,0,1,0c.54.07.21.18.88.26-.21.06-1.76.09-2.15.16-1.14.21-.06.11.18.24.32,0,.25-.09-.2-.12,1.48-.14,1.42,0,.89.17-.26.06.11.1-.41.13s-.87,0-.41-.07c-1-.08-1.95.5.94.37.22.06.14.11-.24.16,1.46.07.2.07,0,.11h.35s0,0-.24,0-.15,0-.11,0h0c-.27.06-1.53.12-1.45.22s.78.05.89.11c.28,0-.31-.22.48-.17s.27.09.11.18V44a3.53,3.53,0,0,1-.76,0c-.6.1-.44.06-.29.23s-.08.23-1.15.39c.73,0,.34.26.31.39s0,.26,0,.39.27.11.24.13a8.83,8.83,0,0,1-.92.17c-.47.12-1,.28-.13.4a17.16,17.16,0,0,1,2-.45c-.44-.06-.48-.09-.25-.12s.18.06.26.11l.74-.14a5,5,0,0,1,.9.21c.23.12.63.08-.12.19-.49.08-1.5.09-1.89.2-.69.2.45.11.39.24,1-.13-.31-.1,0-.15a2.85,2.85,0,0,1,1.51,0c.27.14-1.75.67-1.25.37a4.66,4.66,0,0,0-.66,0s.18.09-.36.1c.06,0-.18-.09.36-.1a5.74,5.74,0,0,1,.69-.13c-3-.17-1,.59.94.36a.53.53,0,0,1,.24.23,5.92,5.92,0,0,1,1,.08c-.65.09-1.94.05-2.5.2-1.12.3,1.32.22,1,.16-1.39.09-.22-.23.71-.09.72.1-.79.23.16.34-1.09.08-.21.16-1,.26-.94-.16.38,0-.86-.21l.67-.06c-1.34-.07-1.43,0-1.41.15s1,.18,2.38.21c-.08,0,0,.23.07.19.42,0,.54,0,.37.07a3.09,3.09,0,0,1-.54,0c-.21,0-4.48.45-.91.37,0,0-1.18-.31.56-.15.76.06-.55.52-1,.58-.29,0-.31-.16-.4-.18.17,0,.23,0,.2-.08l-.86-.07c-.41.1-.3.12-.26.19s.78,0,0,.12a7.56,7.56,0,0,1,2.37.36s.56.25-.8.17c-.41,0,.28-.09.08-.08a5.73,5.73,0,0,0-1.64.22c-.46.24.2,0,.53.2.46-.08-.55-.25.76-.23s.52.11.31.22,0,.17-1.38.19c.8-.12-.16-.11-.59,0-.08,0-.14.28-.06.28,1,.06.63-.14,1.12-.17h1.36c.29,0-.36.1-.21.13s.87.08,1,.12c0,0-1.47.09-1.69.12-.57.06-.69.2-1.34.24a14.64,14.64,0,0,0,1.63,0c-.21-.09-.71,0-.71-.11,1.71-.17,1.55.23,1.09.31s-1.77.1-2.27.18a2.6,2.6,0,0,1,.66.14c.58,0,.34-.14.73-.19s1.07,0,1.4-.09.09.13-.15.16a6.24,6.24,0,0,1,1,.11c-.08,0-1.06,0-1.31.08l-1.1.24c.14,0,1.15,0,1.35,0s-.63-.11-.64-.12q.75,0,1.53,0c-.45.15-.25.29-1.08.39-.65-.24-1,0-1.74,0-1.27-.14,1-.36-.22-.53-.92-.13-.71.17-.76.24s-.78.28.38.34c-1.33.08-1.85.29-.83.42a11.33,11.33,0,0,0,1.39-.42,1.43,1.43,0,0,0,1-.06s1,.24,1,.23c-.12.16-.33.06-.93.13-1.06.14-1.55.15-1.42.39a3.11,3.11,0,0,1,1.11-.22c1.07,0,.51.11.53.16.1.23-.83.27-2,.11,0,.2-2.61.36-1.3.53,1,.14,1-.11,1.21-.16-.29-.13.08-.17,1.1-.12.19,0,.41-.07.66-.1v.26l1.08,0c.13.1-1,.07-.86.16a2.1,2.1,0,0,1-.37-.08c-.07.11-2.59.23-1.5.41a5.45,5.45,0,0,1,2.18-.14c.07,0-.11.18-.14.21-.64.39-.91-.06-2.48.09.54.11-.73.33-.91.46s-.76.55.35.42c.43,0-.07.08.54.09-.18-.16,0-.31,0-.43s-.18-.21.13-.28c.88-.2,2.31-.24,2.31,0,.4,0,1.06-.07.76.09-.14.08-.49,0-.75,0a6.59,6.59,0,0,0-1.41.26c0,.13.61.24,1.35.1-2-.09,1.78-.24.4.14-.55.15-.43.14-.8.06-1.33,0-.83.24-.54.35.92,0,1.25,0,.62.14h1.4c-.17.16.37.13-.12.28a7.49,7.49,0,0,0-1.61.13c-.17.11,0,.15.92.15.23,0-.66-.21.89-.12-.23.05-.19.26-.4.28a2.67,2.67,0,0,1-.7,0c.63,0-1.6,0-1,0,.11,0-.25.09-.57.1-.77-.09.24-.16-.91-.19-.39.3-1.43.56-1.69.86,0,0-.35.21-.31.21a10.71,10.71,0,0,0,1.7,0c-1.35-.14-.18-.41.24-.56a7.9,7.9,0,0,1,2-.32,3.88,3.88,0,0,1,.91.27s-.16.06-.35.06c0,0-.12,0-.29.05,0,0,0,.07-.17.08-1.08.09-.06-.2-1.39.06-.79.15.22.33,1.15.21-.14-.05-1.52-.21.08-.16,1,0,.76.45-.43.41.14,0,.05-.08-.27-.09-.71,0-.37.3-.37.36.3,0,.64,0,1,0,0,.26-.32.11-1.44.21-.49,0-.93.09-.84.17a2.34,2.34,0,0,0,1,0,5.46,5.46,0,0,1,1.51-.1,3.94,3.94,0,0,0,.38.14c.18.08-.56.28-.56.35s.33.16.33.24-.15.07-.47.19-.62.15-.76.3a1.52,1.52,0,0,1-.42.31c-.17.08,0,.21-.15.28-.32.18-1.17.35-1,.55.56-.07,2.1-.29,2.44-.37-.18,0-.06-.09-.06-.09q.43,0,.42-.09a1.81,1.81,0,0,0-.49,0,4.52,4.52,0,0,1-.54,0c-.09,0,0-.07.33-.07,0,0,.22-.24.27-.26a8.49,8.49,0,0,1,1.22-.31c.2-.06.31-.11.32-.18.55,0,1.06,0,1.53-.06a2.62,2.62,0,0,0,1.3.26,12.47,12.47,0,0,1-1.72.16c-.61.06-1.58.18-1.45.29s.86,0,1.22.14c.4,0,.55-.08.44-.14-1.06.11-.64-.19.37-.11,1.29.11-.59.26.6.41l-1.42.08c-.28,0-.23-.09.17-.12l-1.7,0c-.27,0-.31.36-.13.37.42,0,.61,0,.56-.1.19.06.26.12.24.19,1.06,0,1-.06,1,.13.21-.05-2.39-.08-2.73-.06-.19,0-.66.07-1.08.13l1.77.06a4.64,4.64,0,0,0-.74.28c-.16.07-.59,0-.7.1.13,0-.6.45-.26.44.57,0,.84,0,1.68,0-.36.08.28.34-1.17.29.07,0,.67.14.64.15s-.47.12-.48.17.33.19.26.21-1.22.1-1.5.16-1,.28-1,.36.94.09,1.21.22c.14,0,0-.08.09-.09-.14,0,.26-.2.34-.22a7.92,7.92,0,0,1,1.14-.28c.37-.06,1.36-.06,1.64-.12s1,.35.54.37a1.45,1.45,0,0,1-.59.09q-.2,0-.12-.09h.71a9.13,9.13,0,0,0-1.68.07c-.94.14-.85.2.08.36,1.17-.18-.78-.07-.2-.17a3.62,3.62,0,0,1,1.44,0c.13,0-.34.25-.38.28s.3.2-.68.32c-1-.08-.09-.28-.5-.33a7.33,7.33,0,0,1-1.25.06l.76.2a1.25,1.25,0,0,0,.59.19h1.42a.84.84,0,0,0,.06.14,3.44,3.44,0,0,0,.67.08c-.33.13-.59,0-.91,0a11.34,11.34,0,0,0-2.21.34c.18,0,1,.06,1.2.06-.24,0-.08-.37.93-.14.75.16-2.07.5-1.14.26-.58-.08-.55.06-1.24,0s.21.16-.82.12.13-.15.21-.22.15-.12.09-.18c-.21-.1,0-.17.72-.22.24-.09,1-.07.34-.18a3.11,3.11,0,0,0-2.27.48c-.13.11.07.17.1.27s.46.06.74.14c-1.25,0-1.43.15-1.53.26s.86.16.26.18a10.64,10.64,0,0,0,1.13-.17c.64-.13-.13-.15,1-.29.17,0,.24.05.23.08a12.43,12.43,0,0,1,1.33-.07c-.5.2-.37.11,0,.29l-1,0c0,.07.5,0,.59,0s-.56.07-.58.15c0-.1.69.29.3.23.09,0,1.42.11,1.42.11s-1.59,0-2.13.12c.35.11,1.12.06-.34.18.21.06.88.09.74.17-1.16,0-2-.14-2,.13s.4.14,1.38,0a6,6,0,0,1,1.7-.26,4.26,4.26,0,0,1,1,0c-1-.09.28.18.58.21h0c-.51.06-1,0-1.48.09-.81.17,0,0,.25.16,0,0,.69.17.34.15.73,0,.5,0,1.26,0,.18.08-.65.17-1,.23a3.54,3.54,0,0,0-.63-.13c0,.16-.43.29-1.17.42.06,0,0,0-.24,0s0,.18-.25.25-.56-.05-.77,0c-.53.18-.11.32-.21.48,0,0,0,.35.07.32-.23.09-1.21.09-1.45.14s-.18.21-.36.29c-.52.21-.69.18.8.32-.24-.15,0-.45.53-.57.07,0,1.67-.08,1.89-.12-.48,0-.43-.1.16-.16-.08,0,1.29.22,1.3.2s-.89,0-1.45.1c.41.13.72,0,.18.16a2.1,2.1,0,0,0-1.06,0,2.47,2.47,0,0,0-.92.21c.34,0,.7,0,1.07,0-.08-.08.07-.25.72-.1.25.06-.16.26-.66.28-.32,0-.49-.07-.44-.07a3.94,3.94,0,0,0-1.25.09c-.48.08-.32.13-.49.22s.06.08.35.12l-.61.07-.85.06c.07.08-.05.16-.31.23v0c1.36,0,2.55-.53,3.28-.21.44.18-.41.1-1.13.22s-1.24.2.19.19c0,0-.5-.23.36-.13s.11.26-.64.33c.59,0,.56.09-.11.13s-.45-.17.22-.21c-1.21-.13-1.42.07-.89.17.34.07,2.14.11,1.24.2l.67.05c0,.07-.32.11-1,.12,0,0-1.65.18-.21.22-.35,0-.08-.24.77-.09.57.1-.45.21-.6.27a4.82,4.82,0,0,0,1.18,0c.84.08.11.48-.08.55l-.53,0c-.34,0-.3.05.13.08a7.66,7.66,0,0,0-.92.26,15.66,15.66,0,0,1,2.86-.33c2,.13-.42.22-.86.25.31.14,1.07,0,.88.2a2.49,2.49,0,0,1-1,.17c.43.07.43.28.37.38.48-.07,1.22,0,1.67-.11s.23.12-.21.16l.71,0-.51.16c-.18,0-.27,0-.28-.08-1,0-.34.46,1.25.16.51.11-.47.17,0,.29a2.94,2.94,0,0,1-1-.14c-.2.07-.2.15-.49.21s-1.27.14-1.38.21l.79.08a2.93,2.93,0,0,0-1.57.33c-.06,0,0,.07.18.09.33,0,.22.09-.32.1,0,0-.67.23.34.11.36.12-.69.14-.94.23-.42.13-.61.29-1.08.43-.63,0,0-.1-.48-.14s-1.12.47-.27.51c1.13,0,.41-.15.43-.16a10.69,10.69,0,0,1,3.45-.54c.07.17-1.36.2.48.23,0,.21-1,0-1.41.16a5.24,5.24,0,0,1,.69.48c-.43,0-.7.08-1.07.12.11,0,.1.25.49.31s1.22,0,1.61.08c-.22,0,.52.24.55.18-.08.14-.37,0-.63,0s-.81.15-1.29.2a20.18,20.18,0,0,0,2.48,0c.1.11-.34.2-.87.28s0-.11.08-.17a5.82,5.82,0,0,0-.61,0c.18.21-3.51.53-1.22.48.46.06-.1.07-.2.11a3.46,3.46,0,0,0,1.55-.23c.46-.06,1.53,0,1.84-.12.42.08-.31.15-.14.22a3,3,0,0,0,.71.07c-.27.16.07,0-.8.06a17.41,17.41,0,0,0-1.93.24c-1,.24.43.11.61.26,1.46-.18-.71-.07-.11-.17a8.37,8.37,0,0,1,1.87,0c-.21.08-.93.38-1.05.39-1.3.09-.94,0-.84-.11a5.94,5.94,0,0,1-1.25,0c-.15.07-.19.14-.15.21l-1.32.11a12.59,12.59,0,0,1-1.35.25l1.13.13a11.11,11.11,0,0,1,4.06-.4c.11,0-.47.14-.36.19s.66.14.85.18a13.76,13.76,0,0,0-3,.12c-1.48.18.4.4,1,.21-.32,0-.64,0-.95,0,.67-.18,1.73-.12,1.77,0s-1.21.31-2.24.38c.94,0,1.08.27,1.11.41s-.11.11-.39.15c0,.07.23.13.55.19l-1.49.16c-.07.06,0,.1.32.14-.2.1-1.15.12-.59.24a17.19,17.19,0,0,1,3.73-.51v.21c.48,0,.72,0,.71,0s-.66,0-.64,0c.3.18-.92,0-1.68.19s-.43.23.83.2c.4,0-.54-.15-.21-.16,1.56-.06,1.11.08,1,.19s-.56.29-.44.28a2.06,2.06,0,0,1-.92,0c-.7-.14.43-.07.24-.21-1.17,0-2.13.15-1.67.32,1.31-.16,1.17,0,.64,0,.43.1.73,0,1.2.11,1.18-.13.17.12.21.16s.94,0,.63.16a16.7,16.7,0,0,0-1.75.06c-.23,0-2.21.26-1.07.28.39,0,1.49-.32,2.07,0,0,0-.55.21-.55.2s.3.23,1,.26c.05,0-4.5.46-1.52.35,0,0,.06-.29.72-.1.24.07-.31.09-.3.16s1.11,0,.24.23c-.87-.1-.16,0-.76,0-.15-.08-.23-.15-.24-.23-1.2,0,.1.4,0,.47-1.19-.14-1.62.21-1.72.33s0,.11.32.15l-.63.09a2.2,2.2,0,0,1-.3.32c-.1.09.12.12,0,.21s-.88.18-1.09.28c0,0,0,.23,0,.24s1,0,1,0c-.32-.17-.2-.29.68-.42.56-.09,1.88-.18,1.07,0,1.29.06.24.15,0,.19s-1.84.23-.65.2c.13,0,0-.16.47-.13,1.37.08-.17.27-.27.33s-.18.24-.32.35-1.06.38-.57.58c.62-.07.49,0,.75,0,.56,0,0-.27.1-.34s.78-.16.48-.29a5.88,5.88,0,0,1,1.54,0c.81.11-.1.08.2.23l-.41,0c-1.13.17-1.29.18,0,.27,0,0-1.26-.21.36-.14,0,.18-1.68.6.78.6a1.12,1.12,0,0,0-.49.19l-1.21-.21c-.23.09-.15.16.26.23,0,0,1.06,0,1.07.17s.64-.17,1.33-.12a4.39,4.39,0,0,0,1.2-.07,11.82,11.82,0,0,1,3.21-.4c2.7-.13.57.55,2,.69a6.93,6.93,0,0,1,2.72-.15,5.65,5.65,0,0,1,1.58-.24c.73,0,1.08.06,1.84,0a9.58,9.58,0,0,0,2,0,23.47,23.47,0,0,1,4.1-.34,28.69,28.69,0,0,1,4,.28,16.09,16.09,0,0,1,3.19.19l2.24,0c1.28-.18,1.61-.23,1.91-.13a5.25,5.25,0,0,1,2.55.3,5.9,5.9,0,0,1,2.24-.07l2.27-.29c1.2-.05,3.08.1,4.24,0,1.45-.08,2.05-.3,3.47-.39,1.11-.07,2.86-.06,4.23,0a8,8,0,0,1,2.73.36,5.11,5.11,0,0,0,2.16.28s.08,0,.13.06a12.41,12.41,0,0,1,1.5-.34c0-.1.4-.15,1.18-.15-.08,0,0-.07.19-.09.36,0,.41,0,.15.06l-.26,0h.31a3.41,3.41,0,0,0,1.42-.09A7.29,7.29,0,0,1-618,85c-.86,0,2,.41,1.66.37-.41-.22,2.47,0,2.61,0a50.18,50.18,0,0,1,5.8,0c-.55-.12-.14-.19,1.25-.21.52.23.39.26,2.08.4a29.59,29.59,0,0,1,3.54,0,25.56,25.56,0,0,0,4.46,0c1.87-.22-.32-.08.84-.27a17.78,17.78,0,0,1-2.47-.12,8.33,8.33,0,0,1,2.66-.24c1.31,0,1,.09,1,.24a6.67,6.67,0,0,0,1.8-.1A11.66,11.66,0,0,1-590,85a15.27,15.27,0,0,1,3.65.27c.94.23.37.38.22.65,2.33,0,.14.22,2.55.12.75,0,1-.09,1.44-.13s1.44-.09,1.8-.13a17.09,17.09,0,0,1,2.67-.21c.47,0,3.17.26,3.63.23-1.31-.1-1.39-.17-.74-.33-1.8,0-2.51-.22-1-.34a9.53,9.53,0,0,1,2.24.13c.08.11.66.14,1.75.08h1.51a8.08,8.08,0,0,1,2.29.1l1.22.17a15.84,15.84,0,0,0,2.77-.18c.79-.06,2.65-.09,3.3-.14l1.13-.22,1.56,0a23.4,23.4,0,0,1,4.85.16s.16-.05.43-.05c0,0-.18.08-.07.1.76,0,1.58-.15,2.62-.14,1.46,0,2.8.25,4.25.26.55,0,1.2-.11,1.66-.11a.91.91,0,0,1-.45.1l2.93,0c-.58-.3.67-.21,1.94-.19l1.89.07c2.82.4-2.51.21-3,.22a15.58,15.58,0,0,0,3.52.16c1.52,0,2.06.21,2.94.27,4,.29,1.35-.21,3.5-.21-1.2-.09-1.19-.19,0-.28a21.1,21.1,0,0,0,3.3,0,26.77,26.77,0,0,1,4.51.11c0-.1,0-.44,1.63-.23,1.12.14-.31.15-.29.24s.2.22.21.34.09.65,1.4.26c-2,.1-1.07-.38.5-.14a8.17,8.17,0,0,1,3.63-.48,9.46,9.46,0,0,0,2.17,0c1.57-.28-2.87-.2.74-.44l1.87.63c.32-.12,2.34,0,3.32,0,2.58-.16-1-.28,1.91-.48a7.27,7.27,0,0,0,3.14.47l-.34.18c.34,0,2.13-.07,2.1-.07a2.1,2.1,0,0,1,1.59-.21,9.78,9.78,0,0,1,3.1-.48,31.2,31.2,0,0,1,4.24,0,9.84,9.84,0,0,0,2.39,0l.77-.07c1.53.07,2.57.25.8.39.79.06.84.12.79.21a.38.38,0,0,0,.07.11l.15,0s0,0,0,0a.16.16,0,0,1-.17,0h-.13a1,1,0,0,1,0,.11l-5.15-.05,1.28.3c1.61-.4,1.07-.07,2.69-.09s2.71-.3,3.34-.3c0,0,0,0-.1,0,.8,0,1.32-.09,1.95,0-1.18.14.05.17,1.06.2.85,0,3.63-.21,2.49.09a23.89,23.89,0,0,0,2.64.06l1.43-.13a5.21,5.21,0,0,0,.94-.16l1.72,0c.53,0,3.89-.17,4.21-.09-.76-.57,4.48-.07,1.59.12a10,10,0,0,1,1.8.22c.22,0,.86.15.87.17a11.27,11.27,0,0,0,1.36-.1c-.54.1.29-.14,0,0,.54-.17,4.51-.13,4.25-.41-1,0-1.68-.15-.85-.28a12.13,12.13,0,0,1,1.9,0l1.84,0c-.56,0-1-.07-.8-.17a5.31,5.31,0,0,1,2.82,0,1.08,1.08,0,0,1-.33,0c-.28,0-.62.06-1,.07a30.85,30.85,0,0,1,4.25.23c.25-.14,3.16.06,1.34.19.31,0,1.91,0,1.64.13a9.57,9.57,0,0,1,2.13,0c.29-.14-1.33,0-.34-.21a11.86,11.86,0,0,1,2.46-.05c-.26.21-.33.25,1.65.29,2.14,0,2.14,0,2.07-.23a8.84,8.84,0,0,1-1.81.17c-.69-.18-1.48-.28.3-.39l1.57.1c-.06.08.4.06,1.39,0,.34.3.38,0,1.24.18.36.06.39.11-.18.16l2.25,0a1.43,1.43,0,0,0,.58,0,2.57,2.57,0,0,1,1.1,0c.3,0,1.53.12,1.83.11.49,0,1.46-.21,1.86-.2-.68-.09-2.41.13-3.65,0-1-.12-.36-.33-.07-.43s-.41-.1.84-.21c.4,0,1.25,0,1.63,0a34.85,34.85,0,0,1,5.54.15,29.56,29.56,0,0,1,5.86-.29c-.25-.22,1.93-.28,2.86-.08.5.1-.55.14-.44.2a6.65,6.65,0,0,0,.95.25q-1.17,0-1.14.12c.27,0,3.55.1,3,.12,1.08-.05.06,0,.48-.18.1,0-.57-.16-.43-.19a10.37,10.37,0,0,1,2.13,0,55.46,55.46,0,0,1,5.7,0c1.14.06,2.42.08,2.29.28a20.13,20.13,0,0,1,3.2,0c1.48.17-.25.31-1.37.47.62,0,1.23,0,1.84,0-.31,0-.23-.13.11-.17-.08,0,2,0,2.52-.06s.72.06,1.07.17c1-.16.07-.2,1.72-.32-1.09.07-2.39,0-1.9-.14a19.49,19.49,0,0,1-2.06,0c.16-.24,1-.45,2.52-.16.56-.15,3.35.12,1.49.25a31.72,31.72,0,0,1,3.59-.2c-.18-.06.33-.35,1.22-.38,2.31-.08,2.87.35.4.35a9.38,9.38,0,0,0,3.25.68c-1.16-.19-1-.15,0-.38a14.84,14.84,0,0,1,1.92-.36,35.15,35.15,0,0,1,6.45.19,29.2,29.2,0,0,1,5.82-.21c1.27,0,.88.07,2,0,.36,0,.19-.09.51-.09,1,0,2.45,0,3.46,0s1.92,0,2.7.06c1.16,0,1.85,0,2.74.09,1.3.09.14.21,2.1.22-1.6-.16,3.4-.56,2.7,0,.76,0,2.84-.11,3.37-.2.71-.12-1.06-.2.6-.29,1.92-.09,2.89.26.67.34a10,10,0,0,0,3.92-.23c-2.35.2-3.26-.23-1.61-.33,1.44-.09,3.23.11,1.95.29,4.94-.06,2.35.32,5.08.52a29.46,29.46,0,0,1,4.5-.16,24,24,0,0,1,3.39.24,48.15,48.15,0,0,0,5,.24,3.21,3.21,0,0,0-1.07-.09,7.11,7.11,0,0,1,2.44-.22c-.38,0-.21-.07.5-.13-1.72-.09,1.64-.5,2.15-.18a30.75,30.75,0,0,1,3.48-.12l1.75,0,1.41.18c1.24,0,2.35,0,3.86,0a22.58,22.58,0,0,1,2.85.18l1.58.22-.35.15a5.89,5.89,0,0,0,2.33,0c-1.26,0-1.69-.08-1.54-.23a10.92,10.92,0,0,1,2.81-.27,29.41,29.41,0,0,1,3.77.06c.82,0,1.15.12,1.74.11-.22-.25-.9-.32,1.2-.41l.48.27a32.78,32.78,0,0,1,5.85-.13,20.69,20.69,0,0,1,2.87.4,86,86,0,0,0,8.71.26c0-.17-2.2-.21.1-.37a14.65,14.65,0,0,1,1.73.12c1.5,0,2.43,0,3.33,0,1.09,0,1.37-.13,2.58-.22.57,0,2.43-.13,3.07-.12,1.1,0,2.38.27,3.47.26,2.59,0,.5-.24,2.91-.26-.34,0,2.16.18,2.08.18s.34-.08.61-.07a1.45,1.45,0,0,1-.53.07,3.11,3.11,0,0,0,1.14,0c-.74,0-.8-.22-.21-.26a7.81,7.81,0,0,1,1.94.1,4.15,4.15,0,0,0,1.17.07l.61-.09a13,13,0,0,1,2,0c.7,0,.77.66,1.41.2,0,0-.5,0-.35,0,.48-.17-.46-.13,1.51-.24l.48.21c.23,0,7.14,0,7.1,0-.39-.24-1.21,0-1.91-.15s-.6-.16.2-.28c-2.23.28-3.63-.47-.65-.4,2.12,0,.76.24,1.23.31,1.14.18,2,0,2,.29a35.8,35.8,0,0,1,4.78-.27l3.35.08.52.17c1,0,2.61-.09,3.84-.06.82,0,1.9.21,2.59.25a2.11,2.11,0,0,1,.74.06c1.17,0,1.71,0,1.63.13.59.08-.55.11.55.18.38,0,1.55,0,1.72,0,1.33,0,4.49,0,2.25.28l1.11.08a3.81,3.81,0,0,1,2-.29c.15-.14.75-.13,1.78,0l.89-.1a3.29,3.29,0,0,1,1.33,0l.88.07a7.78,7.78,0,0,0,1.77,0c-1.42-.16,1-.38,2.23-.28a19.94,19.94,0,0,1,4.16-.22c-.22-.12-.63-.34,1.17-.32,1.58,0,1,.19,1.24.26-.83.07-.64.14.56.2l1.12.12a7.57,7.57,0,0,1,2-.09,5.28,5.28,0,0,1,1.9,0c.59-.14,3.1-.48,3.7-.12.33.21-1.9.16-2.19.27,0,0,.42.14.38.18,1.84,0,.07,0,.79.16,3.34-.11-.23-.27,1.73-.49l1.73.33c.21,0-.45-.15,0-.21a12,12,0,0,1,2.29-.19,33.93,33.93,0,0,1,4.52.1,27.78,27.78,0,0,0,2.81.23c.28,0,1.45-.06,1.94-.06a20.34,20.34,0,0,1,3.23.18c-.77.09-.9.32.23.22-1.52-.25,2.59-.18,3.28-.21.89,0,3.83-.2,4.93-.15a1.43,1.43,0,0,1-.42,0c1.06.11,2,.2,3.11.29.09,0-.45-.13-.36-.14s1.22-.13,1.43-.17c-1.25,0-1.65,0-1.21-.12-.24-.14.3-.2,1.64-.17-1,.06,1.68.12,1.53.12-2-.43,3.8-.28,2,0a18.81,18.81,0,0,0,2.53-.13c.62.07,2.57,0,3.47,0-.26,0,0-.1.35-.11,0,.13-.38.15.72.26-.26-.15.88-.28,1.41-.08-.31-.72,4.92.06,0,0,.25.09,1.18,0,2.16.1a9.61,9.61,0,0,1,2.75.16s2-.17,2.22-.17c2.63-.06,2.54.25.71.24l2.24.15c.06-.12,1.88-.24,1.47,0,3.45-.16-.59-.28,1.44-.55l1.72.27a32.48,32.48,0,0,1,3.64-.25,28.88,28.88,0,0,1,4.18-.12c1.73,0,2.33.09,3.84.08a25.3,25.3,0,0,1,3.91,0,25.15,25.15,0,0,1,4-.43,27.45,27.45,0,0,1,5.75.26,12.51,12.51,0,0,1,2.74,0c.91.19-1.16.25-1,.34A35.33,35.33,0,0,0-109,86a29.81,29.81,0,0,1,3.51.1c.28-.21-3.21-.22-1.13-.49.28,0,.84-.07,1.5-.09a3.08,3.08,0,0,1,.65-.07c.3,0,.24,0,0,0,1.26,0,2.66,0,3.19,0,1.21,0,1.35.12,2.49.12.87,0,1.15-.14,2.2-.09,0,0,3.29-.4,3.6-.41.79,0,3.77,0,4.36.08l.79.2.93,0a21.37,21.37,0,0,0,2.14-.1c1.27-.09,1.66-.14,3.23-.18,1,0,2.68,0,3.43,0s.73,0,1.34,0a9.61,9.61,0,0,1,2.41,0c-.39-.72,6,.09.57.09l2.21.16a.88.88,0,0,1,0,.15,4.64,4.64,0,0,1,1.37.08l.82.18c.41-.13.14-.25,1.64-.3.34,0-.27.12.4.11l2.54-.11.87.08c-1.79,0,4.12.17,2.31.09.42,0,1.77-.08,1.77.09,2.12,0,.55,0,1.2,0a7.68,7.68,0,0,0,1.63,0c.82,0,1.44,0,2.49,0,.89,0,.92.08,1.51.12,1,.06,1.2.12,2.62.16.8,0,2.09.11,2.48.12.91,0,2,0,3.09,0l.3.24c1.21,0,2.24-.33,3.54-.39.8,0,3.23-.17,4.34-.21a21.37,21.37,0,0,0,3.31.27c-1-.13-3.75-.12-2.06-.32a9.52,9.52,0,0,1,3.42.2,28.83,28.83,0,0,1,5.92,0c-.26-.14.09-.21,1.05-.19-.7-.15-.3-.23,1.17-.25.55.21,0,.06.92,0s2.09-.06,3-.12a11.66,11.66,0,0,0,2.56.06l2.37-.16,1.57.08a38.65,38.65,0,0,1,4.56.09c-.48-.13,0-.19,1.34-.19l.7.34a28.88,28.88,0,0,1,3,0s1.43.11,1,.19,2.43-.16,2.37-.09.63.23.63.23l.35,0a5.68,5.68,0,0,1,1.8.12Zm-688.86-.5c.75,0,1,0,.65-.12s-.62.06-.65.11Zm0-4.39c.13-.09.48,0,.66-.12a.51.51,0,0,0-.31,0l-.35,0c-.19.06,0,.07,0,.07Zm0-10.29s0,0,.13.08c.48,0,0-.11.39-.14s.52.06,1,0c-.63-.06-.19-.17-.93-.23-.3.08-.54.15-.57.23s0,0,0,0Zm0-.5c.43,0,.11,0,.72.06-.14-.08.28-.18-.32-.25a9,9,0,0,1,1.22-.23,7.58,7.58,0,0,0-1.25-.06c-.41.07,0,.11-.06.14l-.31.09s-.37.06-.12.11-.3.15.12.14Zm3.19-1.53a13.12,13.12,0,0,1-1.63-.13l.82-.11c-.11.1.88.13.81.24Zm.2.71c-.46-.09.18-.1.34-.15.46.09-.18.1-.34.15Zm1.62,1.28a3.32,3.32,0,0,1-.7,0,1.91,1.91,0,0,1,.7,0Zm-.07,1,.66-.09c.11.07.08.13-.66.09Zm.21-.18c-.16,0-.22-.06-.17-.09a4.8,4.8,0,0,0,.58,0c.4.07-.14.09-.41.13Zm-.06-6.5c-.29-.1.45-.13.39-.2.52.09.13.14-.39.2Zm1-1.46c.05,0,0,.06-.13.09-.52,0-.24-.09.13-.09Zm.71.32c.08.07-.16.11-.62.15-.25-.09.23-.11.62-.15Zm-2.69-2.94a2.66,2.66,0,0,1-.41-.09c.39,0,1,0,.41.09Zm1.27.65v.19a5.46,5.46,0,0,1-1.07-.24c.39,0,.75,0,1.07,0Zm2.1,1c0,.11-.41.18-.85.27-.47-.15.28-.19.85-.27Zm-1.73,4.8s0,0,0,0c-.2,0-.3,0-.28,0a1.27,1.27,0,0,1,.26,0c0-.14-.62-.06-1.46-.12.12.11,0,.21-.46.3-1.19,0,.64-.76,1.13-.86a5.64,5.64,0,0,1,2.11-.21c.36,0-.29.1-.2.13s.74.06,1,.12l-1.32,0c-.12.07.65,0,.56.07a6,6,0,0,0-2.4.27,9.1,9.1,0,0,1,1.18.07c.85-.1-1.07-.24,1.38-.18-.5.09-.11.22-.46.29a8.63,8.63,0,0,1-1,.08Zm1.25-.14a8.21,8.21,0,0,1,1.54-.2,4.92,4.92,0,0,1-1.54.2Zm-1.26,6.74V74l.71,0c.05,0,.72,0,.18.13-1.58,0-1.93-.18-.89-.33Zm-.9.77c-.34-.1.15-.12.37-.16.51.08-.21.1-.37.16Zm-.39.45q-.36-.06.06-.09c.44,0,0,.08-.06.09Zm.21-.09c.07-.08-.54,0-.69-.07a8.92,8.92,0,0,1,1.06,0c.12,0,0,.08-.37.1Zm2.9-1.16-.66.09c-.11-.07-.08-.13.66-.09Zm.17-.67c-.3,0-.22,0-.24-.09a8.33,8.33,0,0,0-1.59.2c-.82.24-.35.18.88.14a1.92,1.92,0,0,1-.34,0,2.47,2.47,0,0,0,.72,0c-.06-.1-1.13-.06-.46-.18s.93.07,1.59,0c-.69.17.11.36-1,.45s-.63,0-.49-.09c-.58-.08-.55.06-1.22,0-.44,0-.64.1-.62.18-.73,0-.45-.57-.23-.66s.83-.26,1-.29q-.4-.15.69-.12a4.48,4.48,0,0,0,1.11-.07c.47.06-.05.17.11.19-.25,0,.53.17.62.06s.5,0,.36.07-.9,0-1,.06c.34,0,.39.08.18.11Zm-3.58-15.79c-.35-.08-.2-.11.44-.08a1.62,1.62,0,0,1-.44.08Zm1.16.75a1.5,1.5,0,0,1-.43.09c-.23,0-.3-.06-.22-.09Zm-.58-2.91v-.23c.42.1,1.06.17,0,.23Zm.65-.84s0,.06-.13.09c-.53,0-.24-.09.13-.09Zm-1-11.2c-.2-.09.13-.12,1-.08a3.93,3.93,0,0,1-1,.08Zm.85-9.51c-.16,0-.22-.06-.17-.1a4.48,4.48,0,0,0,.57,0c.4.07-.12.09-.4.14Zm.7,4.45c-.44,0,0-.09.06-.09q.38,0-.06.09Zm-.6-1c.25.13-.61.14-.85.2-.18-.1.47-.12.85-.2Zm.41-1.29c.15.08-.43.12-.45.22-.37-.12-.22-.18.45-.22Zm-.82,2.53c-.29,0-.22-.05-.24-.08l-.66-.11c-.51,0-.7.12-1.33.14-.11,0,.46-.19.56-.25s-.17-.1-.48-.14l.85-.07c.27-.1-.45-.15.57-.21s1.45.1,1,.21c-.19.05-1,0-1,0A1,1,0,0,1-683,38c.32,0,.65,0,1,0,.16,0-.47-.19.55-.11.64,0-.56.14.28.22-.13.07-.72,0-.72.06.43,0,.47.07.24.11Zm1.62.88c.62.05.09.18-.41.2,0,0-1.27-.08-.55-.14a1.46,1.46,0,0,0,1-.06Zm.76-15.16c-.1-.11.28-.18.9-.23a1.86,1.86,0,0,1-.9.23Zm.9,2.81c-.1.09-.3.17-.9.23-.1-.11.28-.18.9-.23Zm-.86,13.72c-.43-.13.33-.17.91-.25,0,.11-.35.18-.91.25Zm1.34,4.38c.59.11,0,.16-.17.27-1.14-.15.32-.1.17-.27ZM-679.37,40c-.06,0,.08.11-.51.09s.35-.09.51-.09Zm-1.23-.61c.45,0,0,.09,0,.09-.25,0-.23-.06,0-.09Zm-1.82,1.45c-.45,0,0-.09,0-.09.25,0,.24.06,0,.09Zm1-.15c-.38-.13.64-.1-.67-.08a6,6,0,0,0-.88,0c-.44,0-.28.23-1.07,0l.7-.27c.19-.16,0-.23.58-.38a10.17,10.17,0,0,1,1.17-.27c.43-.06,1.69-.06,2-.13.48.08-.37.15-.17.19s1.05.06,1.08.15-1.48-.08-1.43.09c-.82,0,0,.1-.94,0-.88.16-1.78.54.58.35-.42-.09-1.09,0-.94-.11a9.2,9.2,0,0,1,2,0c-1.25.17.26.44-2,.4Zm-.12.17a1.61,1.61,0,0,1,.65-.14v.16l-.65,0Zm.72,1c-.16,0,.32.11-.36.14q.1-.07-.33-.12a3,3,0,0,1,.69,0Zm-1,2.31c0-.05,0-.17.67-.09l-.67.09Zm1.58-.39c.25,0,.23.06,0,.09-.45,0,0-.09,0-.09Zm-.21.28c-.06,0-.66.18-.71,0l.71,0Zm.55,2.3c-.46-.09.18-.1.33-.16.46.1-.17.11-.33.16Zm.26,1.22a1.83,1.83,0,0,1,.92-.18c-.25.06,0,.16-.92.18Zm-.19,2.29-1,.12q.07-.12,1-.12Zm.09,1c0,.09-.38.11-1.13.15l1.13-.15Zm-.16-2.06c-.46-.1.18-.11.33-.16.46.1-.17.11-.33.16Zm-.18,3,.63-.08c.1.07,0,.11-.63.08Zm.18,2.78c.31.1,0,.16-.89.19.19-.09.88-.12.89-.19Zm-.31-.94c.24.05-.39.25-.95.16.5,0,.29-.14.95-.16Zm-1-1.58a2.71,2.71,0,0,1,.7,0,2,2,0,0,1-.7,0Zm.74.62c.05.05-.25.08-.59.11,0-.08,0-.08.59-.11Zm0,3.28a2.62,2.62,0,0,1,.69-.07c.15.08-.07.1-.69.07Zm.15.86L-681,57c-.2-.11-.13-.17.79-.21Zm0,1.54c-.25,0-.23-.06,0-.08.45,0,0,.08,0,.08Zm.29-.13h-.07c.18,0,.28,0,.27,0-.29,0-.38,0-.28,0-.25,0-.47,0-.68,0a2.94,2.94,0,0,1,.91-.07c.32,0-.49,0-.15.09Zm1-13.5s0,.06-.13.09c-.53,0-.24-.09.13-.09Zm-.36,0A11.52,11.52,0,0,0-681,45c-.29.13-.27.19,1,.23.32,0,.26-.11.34-.12a2.23,2.23,0,0,0-.6,0c-.92-.11.91-.2,1.62-.07.39.07-.41.42-1.59.4-.37-.06.5-.09,0-.14a16,16,0,0,1-2,.16c-.19,0,0-.28,0-.35s.06-.21.57-.38c.15-.05.27-.23.47-.27.37,0,1.24,0,1.67-.06a.4.4,0,0,1,.19.24c.68-.07,1.33,0,.7.09-.31,0-.82-.09-.77,0Zm.56-12.43a4.32,4.32,0,0,1-1.17.25c-.36-.13.26-.17,1.17-.25Zm-.66-3.13c.3.12-.54.13-.81.19,0-.09,0-.09.81-.19Zm-1.34-1,.67-.08s0,.16-.67.08Zm0,.26c0,.07-.79.05-.71,0Zm-.79.81c-.15,0-.29,0-.29,0,.22-.06.79,0,.78-.08.71.09.67.49-.75.37.5-.05.4-.08-.3-.08s-1,0-1,.11c-.34.05-.49.22-.54.07s.16-.4.67-.56c0,0,1.3-.32,1.22-.31,1.27-.13,1.45.08,1.51.09-.15,0,.32.12.49.12l.05,0-.05,0a1.22,1.22,0,0,1-.32,0h0s-.24,0-.4,0-1.72.19-2,.26a4.91,4.91,0,0,0,.94,0Zm-.76,7.15-.95-.07a9.83,9.83,0,0,1,1.43-.06l-.48.13Zm-4.15,32.21s0,.08.12.12c.28,0,.68-.27.8-.27a7,7,0,0,0-.87.16s0-.05,0-.07Zm0-.71.16,0c.22,0,.71,0,.41-.15a3.87,3.87,0,0,0-.57.1Zm0-7.42c1.07,0,1.11,0,1.44-.13s-.23-.28-.56-.38l-.88.35h0a5.34,5.34,0,0,0,.59,0c.46,0-.15.09-.59.13,0,0-.9,0,0,0Zm0-18.4c.32-.13,1.93-.41.15-.43a.34.34,0,0,1-.15.07c-.42.13,0,.36,0,.36ZM1.69-.4s.28.05.22.08A7,7,0,0,1,.6-.4a6.61,6.61,0,0,1,1.09,0Zm.6,5.83a5.57,5.57,0,0,1-1,0,5.57,5.57,0,0,1,1,0Zm.92-.35v.06a3.24,3.24,0,0,1-.69,0l.69,0Zm-.75.58c-.29,0-.19,0-.22-.08a.58.58,0,0,1-.25,0h.09c.12,0,.15,0,.16,0l0,0c.43,0,.46.08.24.11Zm0-2.72a3.29,3.29,0,0,1-.81-.11c.89-.05.41.1.81.11ZM3.57.3c-.31,0-.63,0-.91,0a3.9,3.9,0,0,1,.91,0ZM4.85.6V.66L3.85.6a4.18,4.18,0,0,1,1,0ZM4.68,7.78c.25,0,.24.06,0,.09-.44,0-.55,0-.48-.06a1.78,1.78,0,0,1,.46,0ZM1.86,10.13c.15,0,.19.09-.66,0l.66,0ZM3.23,9.4a3.66,3.66,0,0,1-.94,0,7.26,7.26,0,0,1,.94,0Zm-1,4.67a4.1,4.1,0,0,1-.94,0,7.46,7.46,0,0,1,.94,0Zm.38,1a2.43,2.43,0,0,1-.66,0,2.43,2.43,0,0,1,.66,0Zm1.8-.41c.3.08-.18.1-.36.13-.45-.06.13-.09.36-.13Zm-1.21,4c.1,0,.07,0-.11.07a7,7,0,0,0-.85-.07,6.15,6.15,0,0,1,1,0Zm-.54,3.85.78.21c-.9-.05-.88-.11-.78-.21Zm1,1.44a3.53,3.53,0,0,0-1,.16H1.8A3.87,3.87,0,0,0,1,24C2.08,24,2.71,24,3.61,24ZM2.13,26.27c.35.08-.13.09-.37.13s.14-.09.37-.13Zm.15,4.64a2.43,2.43,0,0,1-.66,0,2.43,2.43,0,0,1,.66,0Zm-.2-2h.39c.34.06-.13.08-.38.12s-.21-.09,0-.12Zm3.54-4.07-1,.12a1.38,1.38,0,0,0-.46-.11c.38,0,.79,0,1.42,0Zm-1.95,2.5c.44,0,.1.07.18.09a5.57,5.57,0,0,0,.63,0v.19c-.55.05-.67-.07-1.13,0-.31-.13.22-.21.32-.3Zm-.14,2.93a1.61,1.61,0,0,1-.64,0,2.78,2.78,0,0,1,.64,0Zm-1,1.19a11.71,11.71,0,0,1-1.19,0,9.45,9.45,0,0,1,1.19,0ZM2.92,33a2.36,2.36,0,0,1-.65,0,2.36,2.36,0,0,1,.65,0ZM2.4,36c.39,0,.41.09.9.1A3.18,3.18,0,0,1,2.18,36l.22,0Zm.14-.84H2.42a2.44,2.44,0,0,1,.79,0,3.24,3.24,0,0,1-.64,0s0,0-.17,0H2.31a.59.59,0,0,1,.23,0Zm.26-.84-.43.05c0-.06,0-.06.43-.05Zm1.29,4.09H2.66a8.54,8.54,0,0,1,1.43,0Zm-.52-.69a2.43,2.43,0,0,1-.66,0,2.43,2.43,0,0,1,.66,0Zm-.66,7.19a1.55,1.55,0,0,1-.61,0,2.9,2.9,0,0,1,.61,0Zm3.56-.74a2.36,2.36,0,0,1-.65,0,1.78,1.78,0,0,1,.65,0ZM2.88,45.81c-.1,0,.57,0,.2.09-.72,0-.38-.09-.8-.11.28,0,.67,0,.6,0Zm.37,7a7,7,0,0,1-.91,0,3.89,3.89,0,0,1,.91,0Zm2.44,5c.16,0,.18,0,.07.07a6.89,6.89,0,0,1-.91,0l.84-.07Zm-3.41.87a2.43,2.43,0,0,1-.66,0,2.43,2.43,0,0,1,.66,0Zm.34,1.82a2.7,2.7,0,0,1-.63,0,1.55,1.55,0,0,1,.63,0Zm.9,3.3a1.5,1.5,0,0,1-.62,0,2.6,2.6,0,0,1,.62,0Zm.34-1.58v.09a2.1,2.1,0,0,1-.57-.08Zm.68,2a5.46,5.46,0,0,1-1,0,5.46,5.46,0,0,1,1,0ZM4.2,65.76a1.77,1.77,0,0,1-.61,0,3,3,0,0,1,.61,0Zm-1.81,2,.15,0c.19,0,.52,0,.32.1h-.1c-.17,0-.53,0-.49-.1a.34.34,0,0,0,.12,0Zm1.09,1.73.1.07a3,3,0,0,1-.7,0l.6-.08Zm-.91,2.32a4,4,0,0,1-.62,0,1.82,1.82,0,0,1,.62,0Zm-.15,1c.26,0,.22,0,0,.08-.43,0-.6,0-.46-.06a2,2,0,0,1,.43,0Zm1-.36c.07.1.07.1-.42.09l.42-.09Zm3.05.17a3.35,3.35,0,0,1-.63,0,1.56,1.56,0,0,1,.63,0Zm-2.25.3a2.64,2.64,0,0,1-.63,0,1.84,1.84,0,0,1,.63,0Zm-2.81,1h.5l-.46.13c-.21-.06-.22-.09,0-.13Zm1.44,2.48.05.08a2.28,2.28,0,0,1-.64,0l.59-.08Zm.31-1.76a4.47,4.47,0,0,1-.91,0,7,7,0,0,1,.91,0Zm0,1.35c-.31,0-.59-.05-.55-.1.51,0,.51,0,.55.1Zm.14-.87-.67,0c-.18-.05.09-.06.67,0Zm-.77,4.23c.13,0-.13,0-.17,0A2.54,2.54,0,0,0,3,79.5a3.62,3.62,0,0,1-1.35-.12,6.3,6.3,0,0,1,.87,0ZM5.24,79c.69,0,.93,0,.91.12H5.24Zm-3.64,1a1.8,1.8,0,0,1-.78-.07,2.83,2.83,0,0,1,.78.07Zm.21,5.51a3.23,3.23,0,0,1-.82.07c-.28,0,.54-.08.82-.07Zm.49-1.58.88.06H2.44c-.24,0-.24-.06-.14-.07ZM2.93,81a3.17,3.17,0,0,1,.67,0,3.71,3.71,0,0,1-.91.07c-.18,0,.15,0,.24-.06Zm1.61,1.87c.58.07,0,.16.66.2-.54,0-.14.16-.85.19S4,83.07,3.88,83c.19-.06.84-.08.66-.18Zm3.34,2c.23,0,.67.06.47.12a1.21,1.21,0,0,1-.43,0c-.2,0-.21,0,0-.09Z"/></g></g></g></g></g></svg>