<?xml version="1.0" encoding="utf-8"?>
<!-- Generator: Adobe Illustrator 21.1.0, SVG Export Plug-In . SVG Version: 6.00 Build 0)  -->
<svg version="1.1" id="Layer_1" xmlns="http://www.w3.org/2000/svg" xmlns:xlink="http://www.w3.org/1999/xlink" x="0px" y="0px"
	 viewBox="0 0 100 110.8" style="enable-background:new 0 0 100 110.8;" xml:space="preserve">
<style type="text/css">
	.st0{fill:#A4D55D;}
	.st1{fill:#FFFFFF;}
	.st2{fill:#85B465;}
</style>
<g>
	<path class="st0" d="M100,43.2l-2.2-0.4l-1.5-0.3c-0.4-0.1-0.9-0.2-1.5-0.2l-1-0.2l0,0.1c-1.3-0.1-2.8-0.2-4.5-0.4l-4.9-0.3
		c-1.4-0.1-2.7-0.2-3.8-0.3c0,0,0,0,0,0c0-0.2,0-0.4-0.1-0.7l-0.1-1.3c0-0.4-0.1-0.8-0.1-1.3c-0.1-0.9-0.1-1.7,0-2.4l0,0
		c0.3-2.9-0.8-10.2-0.9-10.5l-0.5-1.6l-0.3-11.4L77.4,0L46.7,9.6L45,10.6c-1.3,0.2-2.7,0.6-4.3,1l-0.2,0.1c-0.7,0.2-1.4,0.4-2.2,0.7
		c-0.8,0.3-1.7,0.6-2.6,0.9c-3.3,1.3-6.4,2.8-9.6,4.4l-1.7,0.9l0.1,0.3c-0.1,0-0.1,0.1-0.2,0.1l-0.3,0.2c-1.8,1.2-3.5,2.5-5.4,4.1
		c-1.8,1.6-3.4,3.2-4.8,4.8c-3,3.4-5.5,7.2-7.4,11.2c-1.9,4-3.3,8.2-4.2,12.4L2,52.6l-0.5,3.2l-0.6,7.8c-0.1,0.8-0.2,1.9-0.3,3.6
		l0,0.2c0,0.9-0.1,2.3-0.2,2.7l-0.1,0.4l0,0.4c0.3,4.6-0.3,23.1-0.3,23.3l0,0.1c0,0.6,0,1.8,0,2.9c0,1.2,0,2.4,0,3
		c0,0.9,0,1.8,0.1,2.6c0,0.8,0.1,1.6,0.1,2.4l0,1.3l1,0.8l1.6,1.2c0.3,0.2,0.5,0.4,0.6,0.4l0.1,0.1c0.3,0.2,1.8,1.1,2.2,1.4l0.4,0.2
		l1.2,0.3c0.4,0.1,0.7,0.1,0.9,0.1l2.4,0c0.9,0,6.1,0,7.8-0.1c3.3,0,24.2-0.4,26-0.4l2.6-0.1c0.4,0,0.8,0,1.2-0.1l0.2,0
		c0.4,0,0.7,0,1.1-0.1l0.4,0c4.8-0.3,9.8-1.8,14.7-4.3c4.2-2.2,8.3-5.2,12.3-9l-0.3,1.1l0.8-1.6c0.8-0.7,2-2,3.2-3.5
		c1.6-2,3.2-4.6,4.5-7c1.6-3.2,2.7-6.1,3.1-7.6c0.3-1.1,0.6-1.9,0.8-2.6l0-0.1c0.3-1,0.4-1.3,0.4-1.5l0.9-4.1
		c0.1-0.2,0.2-0.4,0.2-0.6c0.3-0.5,0.5-1.1,0.7-1.7c0.1-0.2,0.2-0.4,0.2-0.6l0.4-0.4l0.1-0.9c0.2-1.8,0.8-3.7,1.4-5.4l0.2-0.9
		c0.1-0.2,0.2-0.5,0.3-0.9c0.3-0.8,0.8-2.1,1.1-2.8l0.1-0.1c0,0,0.4-1,0.6-1.6l1.7-5.5c0.1-0.2,0.2-0.5,0.3-0.8
		c0.2-0.5,0.4-1,0.5-1.5L100,43.2z"/>
	<g>
		<path class="st1" d="M14.6,62.5c-0.1-1-0.2-2.1-0.2-3.2c-0.1-1.1-0.2-2.1-0.3-3c0-0.2,0.1-0.3,0.4-0.5c0.2-0.1,0.4-0.3,0.7-0.4
			c0.3-0.1,0.5-0.1,0.7-0.2c0.2,0,0.4,0,0.5,0.1c0.1,0.1,0.2,0.4,0.3,0.7c0.1,0.3,0.2,0.6,0.2,1c0.1,0.4,0.1,0.7,0.1,1.1
			c0,0.4,0,0.7,0,0.9v0.3l0.1,2.7c0,0.4,0,0.9,0.1,1.3c0,0.4,0,0.9,0.1,1.3c0.1,0.5,0.1,0.9,0.1,1.4c0,0.4,0.1,0.9,0.1,1.3
			c0.1,0.7,0.1,1.4,0.1,2.1c0,0.7,0.1,1.4,0.2,2.2c0.1,0.6,0.1,1.1,0.1,1.7c0,0.6,0.1,1.2,0.1,1.8c0,0.4,0,0.7,0,0.9
			c0,0.2,0,0.4,0,0.6s0,0.4,0,0.6c0,0.2,0,0.5,0.1,0.8l0.1-1.1c0.1-1.5,0.3-3,0.4-4.5c0.1-1.5,0.3-3,0.6-4.5c0.3-1.8,0.6-3.6,1-5.5
			c0.4-1.9,0.7-3.7,1.1-5.5l0.2-0.8l0.1-0.6c0.1-0.7,0.3-1.1,0.5-1.5c0.2-0.3,0.6-0.4,1.4-0.4c0.1,0,0.1,0,0.2,0c0.1,0,0.1,0,0.2,0
			c0.2,0,0.4,0,0.6,0.1c0.2,0.1,0.2,0.2,0.2,0.5l-0.5,1.8l-0.5,2.2c-0.2,1-0.4,2-0.5,2.9c-0.1,0.9-0.3,1.7-0.4,2.6
			c-0.1,0.4-0.1,0.8-0.2,1.2c-0.1,0.4-0.1,0.8-0.2,1.3c-0.2,1.5-0.4,3.1-0.7,4.7c-0.2,1.6-0.4,3.2-0.6,4.7c-0.1,0.7-0.2,1.4-0.2,2.1
			c-0.1,0.7-0.2,1.4-0.3,2.1c-0.1,0.8-0.2,1.4-0.2,2c0,0.6-0.1,1.1-0.1,1.4c-0.1,0.7-0.1,1.1-0.2,1.4c-0.1,0.3-0.2,0.5-0.5,0.6
			l-0.2,0.1c-0.5,0.2-0.9,0.3-1.3,0.3c-0.4,0-0.6-0.1-0.8-0.5c-0.4-1.4-0.7-2.8-0.9-4.3c-0.2-1.5-0.4-3-0.6-4.5
			c-0.1-1.3-0.2-2.5-0.3-3.6c-0.1-1-0.1-2.1-0.2-3.2l-0.4-5.6L14.6,62.5z"/>
		<path class="st1" d="M30.1,80.7c0.1,0,0.2-0.1,0.4-0.1c0.2-0.1,0.4-0.1,0.7-0.2c0.2-0.1,0.5-0.1,0.7-0.2c0.2,0,0.5-0.1,0.6-0.1V80
			c0.1,0,0.3-0.1,0.4-0.1s0.3,0,0.4-0.1c0.2,0,0.4-0.1,0.6-0.1s0.4-0.1,0.6-0.1c0.1,0,0.2,0.1,0.2,0.3c0.1,0.2,0.1,0.4,0.1,0.7
			c0,0.3,0,0.5-0.1,0.7c-0.1,0.2-0.1,0.3-0.2,0.4c-0.4,0.1-0.8,0.2-1.3,0.4c-0.5,0.1-0.8,0.2-1.1,0.3c-0.2,0.1-0.6,0.1-1,0.2
			c-0.4,0.1-0.9,0.2-1.3,0.3l-1.9,0.5c-0.2,0.1-0.4,0-0.6-0.2c-0.1-0.2-0.2-0.5-0.3-0.8c-0.1-0.3-0.1-0.7-0.1-1.1c0-0.4,0-0.8,0-1.1
			v-0.6c0-0.2,0-0.4,0-0.6c0-0.2,0-0.5,0-0.7c0-0.1,0-0.4,0-0.7c0-0.3,0-0.5,0-0.7c0-1.3,0-2.7-0.1-4.3c0-1.5,0-3,0-4.3c0-1,0-2,0-3
			c0-1,0-2.1,0-3c0-1.2,0-2.5,0-3.7c0-1.2,0-2.4,0-3.6c0-0.1,0-0.2,0-0.2c0-0.1,0-0.1,0-0.2c0-0.3,0-0.6,0-0.9s0.2-0.6,0.4-0.8v0
			c0.1-0.1,0.3-0.2,0.6-0.3s0.5-0.1,0.7-0.1c0.1,0,0.1,0,0.2,0c0.1,0,0.2,0,0.2,0l5.8-1.4c0.1,0,0.2,0.1,0.2,0.3
			c0,0.2,0.1,0.5,0,0.8c0,0.3,0,0.5-0.1,0.8c0,0.3-0.1,0.4-0.2,0.4c-0.5,0.1-1,0.2-1.6,0.4c-0.6,0.2-1.2,0.3-1.8,0.5
			c-0.4,0.1-0.7,0.2-1,0.3c-0.3,0.1-0.5,0.1-0.6,0.2c-0.1,0-0.1,0.1-0.1,0.3c0,0.2,0,0.4,0,0.7c0,0.3,0,0.6,0,0.9
			c0,0.3,0,0.6,0.1,0.9c0,0.1,0,0.3,0,0.4c0,0.1,0,0.2,0,0.3c0,0.5,0,1,0,1.5c0,0.5,0,0.9,0,1.4v2.9c0,0.1,0,0.4,0,0.7
			c0,0.3,0,0.5,0,0.5c0.1,0,0.3,0,0.7-0.1c0.4-0.1,0.8-0.2,1.1-0.3l0.7-0.2c0.3-0.1,0.6-0.1,0.9-0.2c0.3-0.1,0.4,0.1,0.4,0.3
			c0,0.1,0,0.2,0,0.5c0,0.3,0,0.5,0,0.7c-0.1,0.2-0.2,0.4-0.4,0.5c-0.2,0.1-0.3,0.2-0.5,0.2c-0.4,0.1-0.9,0.2-1.5,0.4
			c-0.6,0.2-1.1,0.3-1.4,0.4c0,0,0,0.1,0,0.3s0,0.4,0,0.5V75c0,0.3,0,0.7,0,1.4c0,0.6,0,1.3,0,1.9c0,0.6,0,1.2,0.1,1.7
			C29.9,80.5,30,80.7,30.1,80.7z"/>
		<path class="st1" d="M40.1,49.8c0.2-0.1,0.5-0.3,0.8-0.4c0.3-0.1,0.6-0.2,0.9-0.3c0.7-0.2,1.4-0.2,2.1-0.1s1.3,0.4,1.9,1
			c0.1,0.1,0.2,0.2,0.1,0.4c0,0.2-0.1,0.3-0.1,0.5c-0.1,0.2-0.2,0.3-0.3,0.5c-0.1,0.2-0.2,0.3-0.3,0.4c-0.3,0.2-0.5,0.3-0.7,0.3
			c-0.2,0-0.6-0.2-1-0.5c-0.5-0.2-0.9-0.3-1.4-0.2c-0.4,0.1-0.7,0.2-1,0.5c-0.3,0.2-0.5,0.4-0.6,0.7c-0.5,0.9-0.8,1.8-0.9,2.7
			c-0.2,0.9-0.2,1.9-0.2,2.9c0,0.3,0,0.7,0,1s0,0.7,0,1c0,0.4,0,0.8,0,1.1c0,0.4,0,0.7,0,1.1v2.3c0,2.2,0,4.5,0.1,6.8
			c0,0.5,0.1,1.1,0.1,1.8c0.1,0.7,0.1,1.4,0.3,2c0.1,0.7,0.3,1.2,0.5,1.7c0.2,0.5,0.5,0.8,0.8,0.8c0.5,0,0.9-0.2,1.3-0.5
			c0.4-0.3,0.7-0.8,0.8-1.6c0-0.2,0.1-0.4,0.1-0.7c0-0.3,0-0.6,0.1-0.9c0-0.3,0-0.6,0-0.9s0-0.5,0-0.7c0-0.3,0-0.6,0-1
			c0-0.4,0-0.9,0-1.3c0-0.4,0-0.9,0-1.4c0-0.5,0-1,0-1.4c0-0.4,0-0.8,0-1.2c0-0.4,0-0.7,0-1c0-0.3,0-0.6-0.1-0.9
			c0-0.3-0.1-0.4-0.2-0.4l-0.9,0.2c-0.3,0.1-0.6,0.2-0.9,0.2c-0.3,0.1-0.5,0.1-0.6,0.1c-0.1,0-0.2-0.2-0.2-0.4
			c0-0.2-0.1-0.5-0.1-0.8c0-0.3,0-0.5,0.1-0.8c0.1-0.2,0.1-0.4,0.2-0.4l0.7-0.2c0.2-0.1,0.5-0.1,0.9-0.2s0.7-0.2,1-0.2
			c0.3-0.1,0.6-0.2,0.9-0.2c0.3-0.1,0.5-0.1,0.6-0.2c0.5-0.1,0.8-0.1,0.9,0.1c0.1,0.2,0.1,0.7,0.1,1.2v1.2c0,0.6,0,1.3,0.1,2
			c0,0.7,0,1.5,0,2.2c0,0.8,0,1.5,0,2.3c0,0.7,0,1.4,0,2v6.3c0,0.3,0,0.5-0.1,0.6c-0.1,0.1-0.3,0.2-0.5,0.2l-0.5,0.1
			c-0.4,0.1-0.7,0.1-0.7-0.1c-0.1-0.2-0.1-0.4-0.1-0.6V78c0,0.1-0.1,0.1-0.1,0.2c-0.1,0.1-0.1,0.2-0.2,0.4c-0.2,0.5-0.6,0.8-1,1.1
			c-0.4,0.3-0.8,0.5-1.3,0.6c-0.5,0.1-1,0.1-1.6,0c-0.5-0.1-0.9-0.4-1.2-0.8c-0.4-0.5-0.6-1-0.8-1.6c-0.2-0.6-0.3-1.2-0.5-1.8
			c-0.1-0.6-0.2-1.2-0.2-1.8c0-0.6,0-1.2,0-1.7v-0.5c0-0.6,0-1.2,0-1.8c0-0.6,0-1.2,0-1.8c0-1.2,0-2.4-0.1-3.5c0-1.1,0-2.3,0-3.5
			c0-0.8,0-1.7,0-2.6c0-0.9,0-1.8,0.1-2.7c0.1-1.3,0.3-2.5,0.8-3.7C38.3,51.4,39,50.5,40.1,49.8z"/>
		<path class="st1" d="M51.1,68.5v9c0,0.2-0.1,0.3-0.2,0.4c-0.2,0.1-0.4,0.2-0.6,0.3c-0.3,0.1-0.6,0.1-0.9,0.1s-0.5,0-0.5-0.1
			c-0.2-0.1-0.3-0.4-0.3-0.7c0-0.4,0-0.7,0-0.9s0-0.3,0-0.4v-7.4l0-4.6c0-0.6,0-1.2,0-1.7c0-0.6,0-1.2,0.1-1.8c0-0.1,0-0.3,0-0.4
			c0-0.2,0-0.3,0-0.4c0-0.2,0-0.4,0-0.7c0-0.2,0-0.5,0-0.8c0-0.9,0-1.9,0.1-3.1s0.2-2.3,0.4-3.4c0.2-1.1,0.6-2.2,1-3.1
			c0.5-0.9,1.1-1.7,2-2.2c0.1,0,0.2-0.1,0.5-0.2c0.3-0.1,0.6-0.2,0.9-0.3c0.3-0.1,0.6-0.2,0.9-0.3c0.3-0.1,0.5-0.1,0.6-0.2
			c0.7-0.2,1.3,0,1.8,0.5c0.4,0.5,0.8,1.2,1,2.1c0.2,0.9,0.4,1.9,0.4,3c0.1,1.1,0.1,2.2,0.1,3.3v2.6l0,9.5l0.1,6.1v1
			c0,0.2,0,0.4,0,0.7c0,0.2,0,0.5,0,0.7c0,0.3-0.2,0.6-0.5,0.9c-0.3,0.2-0.8,0.4-1.2,0.5c-0.4,0.1-0.7,0.1-0.8,0
			c-0.2-0.1-0.2-0.3-0.3-0.7c0-0.3,0-0.6-0.1-1c0-0.4,0-1,0-1.8c0-0.8,0-2,0-3.5c0-1.5,0-3.5,0-6c0-0.9-0.2-1.3-0.6-1.2
			c-0.3,0.1-0.6,0.2-0.9,0.3c-0.2,0.1-0.5,0.2-0.9,0.4c-0.3,0.1-0.9,0.3-1.6,0.5c-0.1,0-0.2,0.2-0.3,0.5c-0.1,0.3-0.1,0.5-0.1,0.8
			L51.1,68.5z M51.3,61.1c0.5-0.2,1.1-0.3,1.7-0.6c0.6-0.2,1.1-0.4,1.5-0.5c0.1,0,0.1-0.1,0.2-0.1c0.1,0,0.2,0,0.3-0.1
			c0.4-0.2,0.6-0.4,0.6-0.7c0-0.5,0-1,0-1.5c0-0.5,0-0.9,0-1.4c0-1.3-0.1-2.5-0.1-3.6c0-1.1-0.1-2.3-0.2-3.5c0-0.2-0.1-0.3-0.4-0.4
			c-0.2,0-0.5,0-0.8,0.1c-0.3,0.1-0.6,0.2-0.9,0.4s-0.5,0.3-0.7,0.5c-0.3,0.4-0.5,1-0.6,1.9c-0.1,0.9-0.2,2-0.3,3.3
			c0,0.5-0.1,1-0.1,1.5c0,0.5-0.1,1.1-0.1,1.7L51.3,61.1z"/>
		<path class="st1" d="M63.5,51.1c0,4.6,0.1,9.1,0.2,13.4c0.1,1.5,0.1,3.2,0.1,4.8c0,1.7,0.1,3.3,0.1,4.8c0,0.1-0.1,0.3-0.3,0.4
			c-0.2,0.1-0.5,0.2-0.7,0.3C62.6,75,62.3,75,62,75.1c-0.3,0-0.4,0-0.5-0.1v0c-0.1-0.1-0.2-0.3-0.2-0.7c0-0.4,0-0.6,0-0.9
			c0-0.5,0-1,0-1.6c0-0.6,0-1.2,0-1.7V45.9c0-0.5,0-0.8,0.1-1.1c0.1-0.3,0.5-0.5,1.1-0.7c0.6-0.2,1-0.2,1.2-0.1
			c0.2,0.1,0.3,0.5,0.5,0.9l0.1,0.4c0.3,0.9,0.6,1.9,0.8,2.9c0.2,1,0.4,2,0.6,2.9l1,5.6c0.1,1,0.3,1.9,0.4,2.6
			c0.1,0.7,0.2,1.5,0.3,2.2c0.1,0.7,0.2,1.4,0.4,2.1c0.1,0.7,0.3,1.6,0.4,2.5c-0.1-1.7-0.1-3.5-0.1-5.4c0-1.9,0-3.7,0-5.3v-1.1
			c0-0.6,0-1.1,0-1.6c0-0.5,0-1,0-1.6v-5.7c0-0.3,0-0.6,0-0.9c0-0.3,0-0.6,0-0.9c0-0.4,0.1-0.7,0.3-0.8c0.2-0.1,0.5-0.2,0.8-0.3
			l0.5-0.1c0.2-0.1,0.5-0.1,0.6-0.1c0.2,0,0.3,0.2,0.3,0.6c0,0.2,0,0.5,0,0.7c0,0.2,0,0.4,0,0.6v6c0,2,0,3.9,0,5.9
			c0,1.9,0,3.9,0,5.8c0,0.8,0,1.6,0,2.4c0,0.8,0,1.7,0,2.5c0,0.7,0,1.6-0.1,2.5c0,0.9,0,1.7,0,2.5c0,0.5,0,0.8-0.1,0.9
			c-0.1,0.2-0.3,0.4-0.7,0.7c-0.1,0.1-0.3,0.1-0.7,0.2c-0.4,0-0.6,0-0.8,0c-0.4-0.1-0.7-0.4-0.8-0.9c-0.2-0.5-0.3-1.1-0.4-1.8
			l-0.1-0.6c-0.4-2.2-0.8-4.4-1.2-6.5c-0.4-2.1-0.8-4.3-1.1-6.5c-0.2-0.9-0.3-1.8-0.4-2.8c-0.1-1-0.2-1.9-0.3-2.8L63.5,51.1z"/>
	</g>
	<g>
		<g>
			<g>
				<g>
					<g>
						<path class="st2" d="M27.7,41.5C27.6,41.5,27.6,41.5,27.7,41.5L27.7,41.5z"/>
						<path class="st2" d="M45.5,37.6L45.5,37.6c0-0.1,0-0.1,0-0.2L45.5,37.6z"/>
						<path class="st2" d="M48.2,37.5L48.2,37.5C48.2,37.5,48.2,37.5,48.2,37.5z"/>
						<path class="st2" d="M38.9,39.1C38.9,39.1,38.8,39.1,38.9,39.1C38.9,39.1,38.9,39.1,38.9,39.1z"/>
						<path class="st2" d="M22.6,43.2C22.6,43.2,22.6,43.2,22.6,43.2C22.6,43.2,22.6,43.2,22.6,43.2L22.6,43.2z"/>
						<path class="st2" d="M22.7,43.1c0.1,0,0,0.1,0,0.1c0.1,0.1,0.2,0.1,0.2,0C22.8,43.1,22.7,43.2,22.7,43.1z"/>
						<path class="st2" d="M13.5,46.3L13.5,46.3C13.5,46.2,13.5,46.2,13.5,46.3z"/>
						<path class="st2" d="M40.1,44.3C40.1,44.3,40.1,44.3,40.1,44.3C40.1,44.3,40.1,44.3,40.1,44.3z"/>
						<path class="st2" d="M15,45.9l0-0.2C14.9,45.8,14.9,45.9,15,45.9z"/>
						<path class="st2" d="M45.5,37.4L45.5,37.4C45.5,37.3,45.5,37.3,45.5,37.4z"/>
						<path class="st2" d="M50.7,37.1c0,0.1,0,0.1,0,0.1l0,0L50.7,37.1z"/>
						<path class="st2" d="M64.2,35.6L64.2,35.6L64.2,35.6C64.2,35.6,64.2,35.6,64.2,35.6z"/>
						<path class="st2" d="M54.4,36.9C54.4,36.9,54.4,36.8,54.4,36.9c-0.1-0.1-0.2-0.1-0.4,0l0,0.2L54.4,36.9z"/>
						<path class="st2" d="M59.7,40.4l-0.5-0.3c1.1-0.6,1.9-0.4,2.8-1.1l0,0.1c0.2,0-0.1-0.9,2-0.4l0,0c0.1,0,0-0.1,0.2,0l-0.4-0.1
							c0.1-0.2,0.2-0.4,0.4-0.5c0.1,0,0.1,0.1,0.1,0.2l0.5-0.3l0.3,0.2c0.1-0.2-0.2-0.7,0.4-0.6c-0.3-0.3,0.1-0.3,0-0.5
							c0,0,0.1,0.1,0.2,0.1c0.3-0.2,0.7-0.5,0.8-0.7c0,0-0.4-0.1-0.7-0.2c-0.4-0.1-0.8-0.3-1.1-0.4c0.4,0,0.1-0.1,0-0.2l0,0.1
							c-0.3,0-0.4-0.2-0.5-0.3c0,0,0,0,0,0.1l0,0c0,0,0,0.1,0,0.1c0,0,0,0.1,0,0.1l0,0c-0.1,0.1-0.3,0.1-0.3,0.1l-0.1-0.2
							c0,0.4-1.3-0.2-1.6-0.1c-0.3-0.2-0.5,0.2-0.8,0.2c-0.5,0.1-0.3-0.2-0.6-0.3c-0.3,0,0.1,0.2,0,0.3l-0.4-0.2
							c0.2-0.1,0-0.2,0-0.2c-0.3,0.1-0.9-0.1-0.8,0.3c-0.5-0.1-0.5-0.2-0.7-0.2c0.1,0.1,0.2,0.1,0.2,0.2c-0.2-0.1-0.1,0.1,0,0.1
							c-0.2,0.3-1.5-0.3-1.4,0.1l0-0.1c0.1,0.3,0.2,0.6,0.1,0.9l-0.2-0.1l-0.1,0.2c-0.1-0.1-0.1-0.2-0.1-0.2c-0.2,0.2-0.7,0.2-1,0.2
							l0.6,0.8c-0.3-0.1-1-0.4-1-0.1l-0.3-0.3c-0.7-0.4-0.3,0.4-0.6,0.3l-0.4-0.2l0.3-0.1c-0.3-0.1-0.5-0.2-0.8-0.3l0,0c0,0,0,0,0,0
							l0,0c0,0.2-0.1,0.3-0.3,0.4c-0.3,0-0.4,0.3-1,0.1l0,0.4l-0.4-0.1l-0.1-0.3c0.3-0.1,0.9-0.4,1.3-0.5l0-0.1
							c-0.3,0.1-0.5,0.3-0.7,0.3c-0.1,0-0.4-0.3-0.3-0.5l-0.1,0.3c-0.8,0.3-0.8,0.3-1.8,0.2l0.1,0.1c-0.2,0.1-0.3,0.2-0.4,0
							c-0.5,0.1-1.1,0-1.5-0.2l0,0.3c-0.1,0-0.4-0.4-0.3,0l-0.2,0.2c-0.2,0-0.2,0.2-0.4,0.1l0,0l0,0l0,0l0,0
							c-0.4-0.1,0.1,0.3-0.4,0.2c-0.2-0.2-0.1,0.4-0.3,0.4l-0.3-0.4C47,37.5,47,38,46.5,38.1c-0.3-0.1-0.4-0.5-0.3-0.9
							c-0.1,0.5-0.1,0.3-0.3,0.5c-0.1-0.2,0-0.2,0-0.4c-0.3-0.2-0.1,0.2-0.3,0.2c0,0.3,0,0.9-0.1,0.9l0.1,0.1
							c-0.2,0.2-0.4,0.3-0.6,0.2l0-0.2l-0.2,0.1l0-0.2l-0.3,0.1l0.1,0.1c-0.1,0-0.4,0.1-0.6,0l0-0.1c-0.5-0.3-0.9,0.2-1.5,0.3l0-0.3
							c-0.2-0.2,0,0.4-0.3,0.3L42,38.6c-0.2,0.4-0.3,0-0.4-0.2l0.1,0.4l-0.3,0c-0.3-0.1-0.3-0.5-0.2-0.7L41,38.4l-0.1-0.3
							c-0.1,0.4-0.2,0-0.4,0.2c0-0.1,0-0.2-0.1-0.3L40,38.6l0.2-0.3l0,0.5c-0.2,0.4-0.4,0-0.5,0.2l0.1-0.2c-0.3,0.2-0.3,0-0.5-0.1
							c0.1,0.1,0.2,0.2,0.1,0.3c-0.1,0-0.1-0.2-0.2-0.2c0,0.3-0.2,0.6-0.4,0.4c0,0,0-0.1,0-0.1c0,0.1-0.1,0.2-0.2,0.1l0-0.4
							l-0.1,0.4c-0.1-0.1-0.2,0.2-0.3,0l0.1-0.1l-0.9,0.1l-0.1-0.3c0,0.4-0.5-0.1-0.4,0.4c-0.2-0.2-0.6,0.3-0.6-0.3
							c-0.6,0.1-0.8,0.7-1.5,0.6c-0.3-0.4-1-0.1-1.4-0.1c-0.8,0.4-1.3,0.7-2.1,1.1c-0.7-0.5-1.2,0.5-1.9,0.3l-0.1,0.3
							c-0.5-0.3-0.9,0.3-1.5,0.1c-0.1,0.1-0.2,0.2-0.2,0.2c0,0,0.1,0,0.1,0.2c-0.2-0.1-0.4,0.1-0.5-0.2l0,0c-0.1-0.3-0.4,0.3-0.6,0
							l0.2,0.3l-0.3,0l0.1-0.1c-1,1.1-1.8,0.1-2.8,1.2c0-0.4-0.2,0.3-0.3-0.2c-0.4-0.5-0.5,0.3-0.7,0.5c0,0,0,0,0,0.1l-0.4,0.1
							c0.1-0.6-0.2,0.5-0.1,0c-1.2-0.1-2.4,0.7-3.7,0.9l0.1,0.1c-0.3,0.1-0.7,0.3-1,0.2c-0.3-0.2-0.4,0.5-0.5,0.6
							c-0.2,0.3-0.6-0.1-0.4-0.1c-0.3,0.1-0.4,0.7-0.8,0.6c-0.3-0.4-0.9,0.8-1.1,0.3l0,0c-0.6-0.2-0.9,0.5-1.5,0.4c0,0,0,0,0-0.1
							l-0.6,1.9l0.8,1.6l1.4,1.1l2.4-1.1l2.2,0l4.8-1.6l0.2-0.5c1.1,0.4,2.2-0.7,3.3-0.5l-0.1-0.3c0.3-0.1,0.3,0.1,0.4,0.2
							c2.7-0.8,5.4-1.9,7.9-2c0.3,0.2,1-0.1,1.2,0.1c0.7-0.6,1.5-0.7,2.3-0.8l0,0l0.4-0.1c0,0,0,0.1,0,0.1c0.4-0.4,1.1-0.2,1.6-0.1
							l0,0c0.7-0.1,1.4-0.2,2.1-0.3c0.8-0.1,1.6-0.3,2.3-0.4c1.6-0.3,3.2-0.6,4.8-0.8c1.6,0.2,3.1-1,4.9-1
							C56.2,41.9,59.5,40.6,59.7,40.4z"/>
						<path class="st2" d="M64.3,38.2L64.3,38.2C64.3,38.3,64.3,38.3,64.3,38.2z"/>
						<polygon class="st2" points="56.4,36.7 56.4,36.7 56.2,36.5 						"/>
						<path class="st2" d="M60.5,35.2c-0.2,0-0.2,0.1-0.2,0.1C60.4,35.3,60.5,35.2,60.5,35.2z"/>
						<path class="st2" d="M65.7,37.3c0.1,0,0-0.1-0.1-0.2c-0.1,0.1-0.2,0.1-0.2,0.1C65.6,37.3,65.7,37.3,65.7,37.3z"/>
						<path class="st2" d="M64.6,35.6l0-0.1C64.5,35.6,64.5,35.6,64.6,35.6z"/>
					</g>
				</g>
			</g>
		</g>
	</g>
	<g>
		<g>
			<g>
				<g>
					<g>
						<path class="st2" d="M57.3,87.5C57.3,87.5,57.3,87.5,57.3,87.5L57.3,87.5z"/>
						<path class="st2" d="M41.1,91.8L41.1,91.8c0,0.1,0,0.1,0,0.2L41.1,91.8z"/>
						<path class="st2" d="M38.4,91.8L38.4,91.8C38.4,91.8,38.4,91.8,38.4,91.8z"/>
						<path class="st2" d="M47.2,90C47.2,90,47.2,90,47.2,90C47.2,90,47.2,90,47.2,90z"/>
						<path class="st2" d="M61.8,85.7C61.8,85.7,61.8,85.7,61.8,85.7C61.8,85.8,61.8,85.8,61.8,85.7L61.8,85.7z"/>
						<path class="st2" d="M61.8,85.9c-0.1,0,0-0.1,0-0.1c-0.1-0.1-0.2-0.1-0.2,0C61.6,85.9,61.7,85.8,61.8,85.9z"/>
						<path class="st2" d="M70.1,82.8L70.1,82.8C70.1,82.8,70.1,82.8,70.1,82.8z"/>
						<path class="st2" d="M45.7,84.9C45.7,84.8,45.7,84.8,45.7,84.9C45.7,84.8,45.7,84.8,45.7,84.9z"/>
						<path class="st2" d="M68.7,83.1l0,0.2C68.7,83.2,68.7,83.2,68.7,83.1z"/>
						<path class="st2" d="M41.1,92L41.1,92C41.1,92.1,41.1,92.1,41.1,92z"/>
						<path class="st2" d="M36.1,92c0-0.1,0-0.1,0-0.1l0,0L36.1,92z"/>
						<path class="st2" d="M23.7,92.2L23.7,92.2L23.7,92.2C23.7,92.1,23.7,92.1,23.7,92.2z"/>
						<path class="st2" d="M32.8,91.9C32.8,91.9,32.8,91.9,32.8,91.9c0.1,0.1,0.2,0.1,0.4,0l0-0.2L32.8,91.9z"/>
						<path class="st2" d="M28.1,87.9l0.5,0.3c-1.1,0.5-1.7,0.2-2.6,0.8l0-0.1c-0.2-0.1,0,0.9-1.8,0.2l0,0c-0.1,0,0,0.1-0.2,0
							l0.3,0.2c-0.1,0.1-0.2,0.4-0.4,0.5c-0.1,0-0.1-0.1-0.1-0.2l-0.5,0.2L23,89.6c-0.1,0.2,0.1,0.7-0.4,0.5c0.3,0.3-0.1,0.3,0,0.5
							c0,0-0.1-0.1-0.2-0.2c-0.2,0.1-0.7,0.4-0.7,0.6c0,0,0.3,0.1,0.7,0.3c0.4,0.2,0.8,0.4,1,0.5c-0.4,0-0.1,0.1,0,0.2l0-0.1
							c0.2,0,0.3,0.3,0.4,0.3c0,0,0,0,0-0.1l0,0c0,0,0-0.1,0-0.1c0-0.1,0-0.1,0-0.1l0,0C23.8,92,24,92,24.1,92l0.1,0.2
							c0-0.4,1.2,0.3,1.4,0.2c0.3,0.2,0.4-0.2,0.7-0.1c0.4-0.1,0.3,0.2,0.5,0.4c0.3,0.1-0.1-0.2,0-0.3l0.4,0.2c-0.2,0.1,0,0.2,0,0.2
							c0.3,0,0.8,0.2,0.8-0.2c0.4,0.1,0.5,0.3,0.6,0.2c-0.1-0.1-0.2-0.1-0.2-0.2c0.2,0.1,0.1-0.1,0-0.1c0.2-0.2,1.3,0.5,1.3,0l0,0.1
							c0-0.3-0.2-0.7-0.1-0.9l0.1,0.1l0.1-0.2C30,91.8,30,91.9,30,92c0.2-0.2,0.6-0.1,0.9-0.1L30.4,91c0.3,0.1,0.9,0.5,0.9,0.2
							l0.2,0.3c0.7,0.5,0.3-0.3,0.6-0.2l0.3,0.3l-0.3,0c0.3,0.1,0.4,0.2,0.7,0.4l0,0c0,0,0,0,0,0l0,0c0-0.2,0.1-0.3,0.3-0.3
							c0.3,0,0.4-0.3,0.9,0l0-0.4l0.4,0.1l0.1,0.3c-0.3,0-0.9,0.3-1.3,0.4l0,0.1c0.2,0,0.5-0.2,0.6-0.2c0.1,0,0.3,0.3,0.2,0.5
							l0.1-0.3c0.8-0.2,0.8-0.2,1.6,0l-0.1-0.1c0.1-0.1,0.3-0.2,0.4,0c0.5,0,1,0.1,1.4,0.4l0-0.3c0.1,0,0.3,0.5,0.3,0l0.2-0.2
							c0.1,0,0.2-0.2,0.4,0l0,0l0,0l0,0l0,0c0.3,0.1,0-0.3,0.3-0.1c0.1,0.2,0.1-0.4,0.3-0.4l0.2,0.5c0.3,0.2,0.3-0.2,0.9-0.3
							c0.3,0.1,0.4,0.5,0.3,0.9c0.2-0.5,0.1-0.3,0.3-0.5c0.1,0.2,0,0.2,0,0.4c0.3,0.2,0.1-0.2,0.4-0.2c0-0.3,0-0.9,0.1-0.9l-0.1-0.1
							c0.2-0.2,0.4-0.3,0.7-0.2l0,0.2l0.2-0.1l0.1,0.2l0.3-0.1l-0.1,0c0.1,0,0.3-0.2,0.5-0.1l0,0.1c0.5,0.3,0.8-0.3,1.3-0.4l0,0.3
							c0.2,0.2,0-0.4,0.2-0.3l0.1,0.3c0.1-0.4,0.3,0,0.4,0.2l-0.1-0.4l0.3,0c0.3,0.1,0.3,0.5,0.3,0.7l0.1-0.3l0.1,0.3
							c0-0.4,0.1,0,0.3-0.2c0,0.1,0,0.2,0.1,0.3l0.3-0.6L46,90.8l-0.1-0.5c0.2-0.4,0.3,0,0.5-0.2l-0.1,0.2c0.2-0.2,0.3,0,0.5,0.1
							c-0.1-0.1-0.2-0.2-0.1-0.3c0.1,0,0.1,0.2,0.2,0.2c-0.1-0.3,0.1-0.6,0.3-0.4c0,0,0,0.1,0,0.1c0-0.1,0-0.2,0.1-0.1l0,0.4
							l0.1-0.4c0.1,0.1,0.2-0.2,0.3,0l0,0.1l0.8-0.1l0.1,0.3c0-0.4,0.5,0.1,0.3-0.4c0.2,0.2,0.5-0.3,0.6,0.3
							c0.5-0.1,0.6-0.7,1.3-0.6c0.3,0.4,0.9,0.1,1.3,0.1c0.7-0.4,1.2-0.7,1.9-1.1c0.7,0.5,1.1-0.6,1.7-0.3l0.1-0.3
							c0.5,0.3,0.8-0.3,1.4-0.1c0.1-0.1,0.1-0.2,0.2-0.2c0,0-0.1,0-0.1-0.2c0.2,0.1,0.4-0.1,0.5,0.2l0,0c0.1,0.3,0.4-0.3,0.6,0
							L58,87.1l0.3,0l0,0.1c0.9-1.1,1.7-0.1,2.5-1.2c0,0.4,0.1-0.3,0.3,0.2c0.4,0.5,0.4-0.3,0.6-0.5c0,0,0,0,0-0.1l0.4-0.1
							c-0.1,0.6,0.1-0.5,0.1,0c1.1,0.1,2.2-0.7,3.4-0.8l-0.1-0.1c0.3-0.1,0.6-0.3,0.9-0.2c0.3,0.2,0.4-0.5,0.4-0.5
							c0.2-0.3,0.5,0.1,0.4,0.1c0.2-0.1,0.3-0.7,0.7-0.6c0.3,0.4,0.8-0.8,1-0.2l0,0c0.6,0.2,0.8-0.5,1.4-0.4c0,0,0,0,0,0.1l0.5-1.9
							l-0.8-1.6l-1.3-1.1l-2.2,1l-2,0l-4.3,1.5l-0.2,0.5c-1.1-0.4-1.9,0.7-3,0.5l0.1,0.3c-0.3,0.1-0.3-0.1-0.4-0.2
							c-2.4,0.8-4.8,1.9-7.2,2.1c-0.3-0.2-0.9,0.1-1.1-0.1c-0.6,0.6-1.4,0.8-2.1,0.9l0,0l-0.3,0.1c0,0,0-0.1,0-0.1
							c-0.3,0.4-1,0.2-1.5,0.2l0,0c-1.4,0.3-2.6,0.7-3.9,0.9c-0.6,0.1-1.2,0.2-2,0.3c-0.7,0.1-1.5,0.1-2.2,0.1
							c-1.5-0.4-2.9,0.7-4.5,0.6C31.3,86.7,28.3,87.7,28.1,87.9z"/>
						<path class="st2" d="M23.8,89.6L23.8,89.6C23.7,89.4,23.7,89.5,23.8,89.6z"/>
						<polygon class="st2" points="30.9,91.8 30.9,91.8 31,92 						"/>
						<path class="st2" d="M27.1,92.9c0.2,0,0.2,0,0.1-0.1C27.2,92.9,27.1,92.9,27.1,92.9z"/>
						<path class="st2" d="M22.4,90.3c-0.1,0,0,0.1,0,0.2c0.1,0,0.2-0.1,0.2-0.1C22.5,90.4,22.4,90.3,22.4,90.3z"/>
						<path class="st2" d="M23.4,92.1l0,0.1C23.4,92.2,23.4,92.1,23.4,92.1z"/>
					</g>
				</g>
			</g>
		</g>
	</g>
</g>
</svg>
