<svg xmlns="http://www.w3.org/2000/svg" xmlns:xlink="http://www.w3.org/1999/xlink" width="0" height="0" style="position:absolute">
	
		<symbol id="svg-icon-angle-right" viewBox="0 0 11 19">
			<path d="M1 1l8 8.224L1 17.6" stroke="currentColor" stroke-width="2" fill="none" fill-rule="evenodd"></path>
		</symbol>
	
		<symbol id="svg-icon-calendar" viewBox="0 0 67 66">
			<g fill="none" fill-rule="evenodd"><g transform="translate(0 7.407)"><path d="M33.268 14.872c-8.5 0-16.998 0-25.497.004-.295 0-.598.01-.883.078-1.226.286-1.937 1.23-1.937 2.559-.002 11.153-.002 22.306 0 33.459 0 1.564 1.05 2.61 2.613 2.61 17.247 0 34.495 0 51.742-.003.235 0 .479-.027.704-.094 1.21-.36 1.857-1.252 1.857-2.537l.001-26.876c0-2.213.002-4.427-.002-6.64-.001-.797-.29-1.462-.912-1.985-.55-.462-1.19-.575-1.873-.575H33.268M10.508.02v.38c.009 1.226-.011 2.453.034 3.677.052 1.419.637 2.626 1.638 3.622 1.074 1.068 2.393 1.62 3.899 1.603 2.05-.022 3.65-.934 4.752-2.671.589-.93.828-1.96.813-3.058-.015-1.064-.003-2.128-.003-3.191V.043h6.188c.004.09.012.19.012.292.004 1.207-.036 2.416.018 3.62.089 1.997 1.007 3.542 2.729 4.564 1.706 1.013 3.5 1.08 5.26.205 1.954-.971 3.006-2.607 3.109-4.796.055-1.176.02-2.356.028-3.534V.037h6.173v.34c.012 1.284-.02 2.57.05 3.85.078 1.424.705 2.618 1.75 3.59a5.384 5.384 0 0 0 3.716 1.487c1.442.016 2.724-.47 3.793-1.447 1.23-1.125 1.826-2.542 1.833-4.206.004-1.092 0-2.184 0-3.277v-.3c.033-.024.048-.045.063-.045 1.473.014 2.956-.137 4.415.14 2.142.408 3.785 1.575 4.944 3.417.769 1.223 1.1 2.573 1.1 4.008.002 14.449.004 28.898-.002 43.347-.001 2.627-1.07 4.737-3.21 6.27-1.29.925-2.76 1.327-4.341 1.327l-51.771-.001c-1.814-.001-3.453-.554-4.833-1.732C.94 55.333.009 53.444.008 51.158 0 36.565-.006 21.972.012 7.38c.004-2.584 1.17-4.612 3.274-6.086C4.533.418 5.956.042 7.472.02 8.468.007 9.464.019 10.508.019" fill="currentColor" mask="url(#mask-2)"></path></g><path d="M47.036 7.416c0-1.331-.045-2.663.01-3.992C47.147.967 49.9-.706 52.15.297c1.517.676 2.28 1.876 2.296 3.52.024 2.403.015 4.807.003 7.21-.009 1.833-1.039 3.195-2.767 3.702-2.177.64-4.574-1.06-4.641-3.321-.039-1.33-.007-2.661-.007-3.992h.002M37.108 7.412c0 1.264.002 2.528 0 3.792-.005 2.476-2.488 4.255-4.842 3.469-1.548-.516-2.566-1.89-2.573-3.523-.012-2.471-.02-4.941.001-7.412C29.72.843 32.747-.916 35.26.516c1.177.67 1.815 1.733 1.843 3.104.025 1.264.005 2.528.005 3.792M19.792 7.426v3.651c-.003 2.867-2.91 4.664-5.447 3.339-1.238-.647-1.935-1.722-1.958-3.12a276.79 276.79 0 0 1-.006-7.732c.026-2.448 2.652-4.203 4.947-3.342 1.521.57 2.46 1.922 2.463 3.553.003 1.217.001 2.434.001 3.651M39.424 48.638c.967 0 1.935-.03 2.9.008 1.12.045 2.145 1.078 2.184 2.198.036.994.037 1.991 0 2.984-.042 1.095-1.025 2.127-2.117 2.167-1.626.06-3.254.04-4.88.05a6.384 6.384 0 0 1-.745-.043c-1.08-.12-2.027-1.06-2.08-2.15a26.99 26.99 0 0 1 0-3.038c.076-1.2 1.07-2.124 2.27-2.172.821-.033 1.645-.006 2.468-.006v.002zM27.218 56.026c-.88 0-1.763.03-2.643-.007-1.236-.05-2.225-1.045-2.289-2.298-.047-.917-.066-1.843.004-2.757.111-1.45 1.108-2.33 2.602-2.35 1.561-.02 3.123-.022 4.685 0 1.57.02 2.584 1.075 2.586 2.642.001.747.003 1.495 0 2.242-.007 1.081-.509 1.871-1.477 2.321-.334.155-.737.202-1.11.217-.786.032-1.572.01-2.358.01v-.02M14.835 56.008c-.92 0-1.841.047-2.756-.012-1.16-.075-2.086-1.023-2.156-2.196a24.077 24.077 0 0 1-.007-2.843c.085-1.428 1.123-2.33 2.637-2.345 1.533-.015 3.066-.01 4.599-.001 1.073.006 1.915.434 2.388 1.432.13.278.226.6.233.904.025.957.03 1.916-.014 2.872-.052 1.125-1.014 2.12-2.17 2.18-.915.047-1.835.009-2.754.009M39.589 27.24c.766 0 1.534.027 2.299-.005 1.448-.06 2.638 1.04 2.644 2.428.004.89.049 1.784-.014 2.67-.095 1.344-1.021 2.272-2.361 2.31-1.732.052-3.467.02-5.201-.007-1.208-.02-2.257-1.103-2.28-2.235-.02-.994-.053-1.992.01-2.982.077-1.19 1.093-2.123 2.288-2.163.87-.03 1.743-.006 2.615-.006v-.01M39.604 45.307c-.957 0-1.917.04-2.87-.011-.994-.055-1.987-1.04-2.04-2.028a28.364 28.364 0 0 1-.007-3.154c.07-1.18 1.07-2.135 2.251-2.16 1.781-.04 3.565-.038 5.346.002 1.17.026 2.184 1.058 2.227 2.223a34.04 34.04 0 0 1-.008 3.014c-.057 1.079-1.033 2.024-2.115 2.116-.466.04-.936.036-1.404.043-.46.006-.92 0-1.38 0v-.045M51.951 45.312c-.937 0-1.878.048-2.81-.013-1.09-.07-2.044-1.077-2.089-2.166-.04-.993-.038-1.99 0-2.983.042-1.113 1.053-2.136 2.166-2.193.898-.045 1.8-.02 2.7-.022a406.76 406.76 0 0 1 2.47 0c1.071.002 1.843.505 2.305 1.453.138.282.208.623.216.938.021.928.05 1.861-.026 2.783-.108 1.326-1.153 2.228-2.49 2.242-.814.008-1.628.001-2.442.001v-.04M51.973 27.24c.776 0 1.552.006 2.328 0 1.091-.01 1.901.459 2.375 1.439.145.299.23.657.235.99.02.957.021 1.917-.04 2.87-.066 1.042-1.049 2.022-2.089 2.072-1.204.057-2.412.042-3.619.046-.669 0-1.343.013-2.008-.045-1.114-.098-2.057-1.075-2.103-2.19a35.296 35.296 0 0 1 0-2.928c.048-1.177 1.041-2.174 2.22-2.23.9-.041 1.801-.007 2.701-.007v-.016M27.231 37.943c.872 0 1.744-.025 2.615.006 1.224.043 2.242 1.033 2.296 2.254.043.956.047 1.917.001 2.872-.055 1.16-.985 2.238-2.407 2.267a92.672 92.672 0 0 1-5.057-.01c-1.36-.048-2.28-.934-2.384-2.285a18.83 18.83 0 0 1 .011-2.899c.104-1.306 1.136-2.196 2.453-2.212.824-.01 1.648-.002 2.472-.002v.01M27.208 27.241c.795 0 1.59-.003 2.386 0 1.512.006 2.562 1.053 2.569 2.563.004.757.005 1.513 0 2.27-.01 1.538-1.065 2.584-2.604 2.585-1.571.001-3.143.003-4.714-.001-1.23-.003-2.132-.679-2.481-1.859a1.704 1.704 0 0 1-.085-.477c.002-.986-.034-1.976.039-2.957.085-1.13 1.082-2.029 2.217-2.112.058-.005.115-.011.172-.011l2.5-.001M14.84 37.934c.795 0 1.59-.002 2.385 0 1.504.006 2.563 1.063 2.566 2.566.002.842.039 1.688-.021 2.527-.099 1.378-1.13 2.312-2.508 2.322-1.61.012-3.219.012-4.828.001-1.419-.01-2.456-.983-2.524-2.4a29.215 29.215 0 0 1-.001-2.615c.058-1.415 1.098-2.389 2.517-2.4.805-.006 1.609 0 2.414 0" fill="currentColor"></path></g>
		</symbol>
	
		<symbol id="svg-icon-checkmark" viewBox="0 0 24 24">
			<path fill="currentColor" d="M21 6.285L9.84 19.018 3 13l1.319-1.49 5.341 4.686L19.525 5 21 6.285z"></path>
		</symbol>
	
		<symbol id="svg-icon-close" viewBox="0 0 24 24">
			<title>Group 4</title><g transform="translate(2 2)" stroke="currentColor" stroke-width="2" fill="none" fill-rule="evenodd" stroke-linecap="square"><path d="M19.73.27L.27 19.189M.27.27l19.46 19.46"></path></g>
		</symbol>
	
		<symbol id="svg-icon-facebook" viewBox="0 0 150 150">
			<g fill="currentColor"><path d="M104.9 80.3H40.8V50.7h69z"></path><path d="M55.7 31.1v118.2h29.5V35.8c0-3.2 1.9-4.9 4.9-4.9h19.7V1.3H87.1c-32.2 0-31.4 26-31.4 29.8z"></path></g>
		</symbol>
	
		<symbol id="svg-icon-instagram" viewBox="0 0 150 150">
			<g fill="currentColor"><path d="M119.8 1.2h-89C14.4 1.2 1.1 14.5 1.1 30.8v89c0 16.4 13.3 29.7 29.7 29.7h89c16.4 0 29.7-13.3 29.7-29.7v-89c0-16.3-13.3-29.6-29.7-29.6zm14.8 128.5c0 2.7-2.2 4.9-4.9 4.9H20.9c-2.7 0-4.9-2.2-4.9-4.9V65.5h31.4c4.1-11.5 15-19.8 27.9-19.8 12.9 0 23.9 8.3 28 19.8h31.4v64.2zm0-89c0 2.7-2.2 4.9-4.9 4.9h-19.8c-2.7 0-4.9-2.2-4.9-4.9V20.9c0-2.7 2.2-4.9 4.9-4.9h19.8c2.7 0 4.9 2.2 4.9 4.9v19.8z"></path><path d="M112.3 50.6H91.7c8 5.3 13.3 14.4 13.3 24.7 0 16.4-13.3 29.7-29.7 29.7S45.6 91.7 45.6 75.3c0-10.3 5.3-19.4 13.3-24.7H38.3c-4.7 7.1-7.5 15.6-7.5 24.7 0 24.6 19.9 44.5 44.5 44.5s44.5-19.9 44.5-44.5c0-9.1-2.8-17.6-7.5-24.7z"></path></g>
		</symbol>
	
		<symbol id="svg-icon-pinterest" viewBox="0 0 150 150">
			<path d="M78.9 1.3c-41.7 0-62.3 29-62.3 53.1 0 14.6 5.2 27.6 17.5 32.5 2 .8 3.8 0 4.4-2.1.4-1.5 1.4-5.3 1.8-6.8.6-2.1.4-2.9-1.3-4.7-3.5-4-5.8-9.3-5.8-16.7 0-21.5 16.6-40.7 43.2-40.7 23.6 0 36.5 13.9 36.5 32.6C113 72.9 101.8 95 85.2 95c-9.2 0-16.1-8.8-13.9-17.8 2.6-10.8 8.9-22.4 8.9-30.2 0-7-4.3-11.2-13-11.2-10.8 0-16.6 7.9-16.6 20.5 0 8 2.4 13.4 2.4 13.4S42.6 109 41.8 116.1c-1.7 14.4-.5 30.6-.3 32.3.1 1 1.5 1.2 2.1.5.9-1.1 12-14.5 15.9-27.8 1.1-3.8 6.2-23.4 6.2-23.4 3.1 5.6 12 12.2 21.5 12.2 28.2 0 47-26.5 47-59.8-.2-25.3-21.8-48.8-55.3-48.8z" fill="currentColor"></path>
		</symbol>
	
		<symbol id="svg-icon-print" viewBox="0 0 37 35">
			<title>print-gray</title><path d="M30.008 34.045c0 .556-.392.952-.942.952h-19.01c-.55 0-.943-.396-.943-.952 0-.555.392-.952.942-.952h19.09c.47 0 .863.397.863.952zM37 20.475v10.793c0 2.063-1.65 3.73-3.692 3.73h-1.493c0-2.302-.392-3.572-2.985-3.572H10.134c-2.593 0-2.75 1.27-2.75 3.571H3.692C1.65 35.077 0 33.331 0 31.267V20.476c0-2.064 1.65-3.81 3.692-3.81H29.46v-6.11h-5.735c-1.493 0-2.67-1.19-2.67-2.698V2.063H8.562a.708.708 0 0 0-.707.715v10.237c0 .555-.472 1.032-1.022 1.032s-1.02-.477-1.02-1.032V2.698C5.891 1.19 7.07 0 8.562 0h13.04c.864 0 1.493.556 1.728.873l7.227 7.301s.865.952.865 2.222v6.27h1.728c2.12 0 3.849 1.745 3.849 3.809zm-21.367 1.428a.876.876 0 0 0-.864-.873h-9.82a.876.876 0 0 0-.864.873c0 .476.393.873.864.873h9.82a.876.876 0 0 0 .864-.873zm16.182-.238a1.5 1.5 0 0 0-1.492-1.508c-.864 0-1.493.714-1.493 1.508a1.5 1.5 0 0 0 1.493 1.508c.864.08 1.492-.635 1.492-1.508zM11.548 8.015h5.891c.55 0 1.022-.476 1.022-1.031 0-.556-.472-1.032-1.022-1.032h-5.891c-.55 0-1.021.476-1.021 1.032 0 .555.47 1.031 1.02 1.031zm0 4.286h5.891c.55 0 1.022-.476 1.022-1.032s-.472-1.032-1.022-1.032h-5.891c-.55 0-1.021.476-1.021 1.032s.47 1.032 1.02 1.032z" fill="currentColor" fill-rule="nonzero"></path>
		</symbol>
	
		<symbol id="svg-icon-search" viewBox="0 0 25 27">
			<g stroke="currentColor" stroke-width="2" fill="none" fill-rule="evenodd"><circle cx="9.5" cy="9.5" r="8.5"></circle><path stroke-linecap="square" d="M14.5 16.5l9 9"></path></g>
		</symbol>
	
		<symbol id="svg-icon-sharing" viewBox="0 0 31 30">
			<g fill="none" fill-rule="evenodd"><circle fill="currentColor" cx="21.5" cy="4.5" r="4.5"></circle><circle fill="currentColor" cx="4.5" cy="18.5" r="4.5"></circle><circle fill="currentColor" cx="26.5" cy="25.5" r="4.5"></circle><path stroke="currentColor" d="M21.153 5.015L4.413 18.5l23 7.644"></path></g>
		</symbol>
	
		<symbol id="svg-icon-tag" viewBox="0 0 23 25">
			<g fill="none" fill-rule="evenodd" transform="translate(.812)"><path d="M9.485 2.728L21.92 11.76l-9.485 13.056L0 15.783z" fill="currentColor"></path><path d="M22.188 13V0l-13 3.64" fill="currentColor"></path><circle cx="15.688" cy="8.5" fill="#fff" r="2.5"></circle></g>
		</symbol>
	
		<symbol id="svg-icon-twitter" viewBox="0 0 34 27">
			<path d="M11.162 27C7.338 27 3.78 25.88.782 23.956a13.617 13.617 0 0 0 10.025-2.804 6.79 6.79 0 0 1-6.328-4.703 6.82 6.82 0 0 0 3.062-.117c-3.256-.656-5.506-3.59-5.432-6.725.914.506 1.957.81 3.067.847C2.158 8.437 1.308 4.455 3.079 1.41a19.217 19.217 0 0 0 13.96 7.075C16.05 4.251 19.266.171 23.637.171c1.946 0 3.708.822 4.941 2.138A13.492 13.492 0 0 0 32.881.666a6.792 6.792 0 0 1-2.977 3.747 13.484 13.484 0 0 0 3.887-1.068 13.673 13.673 0 0 1-3.38 3.507C30.843 16.378 23.74 27 11.162 27z" fill="currentColor" fill-rule="evenodd"></path>
		</symbol>
	
		<symbol id="svg-icon-youtube" viewBox="0 0 150 150">
			<path d="M124.3 25.7H25.7C12 25.7 1 36.7 1 50.3v49.3c0 13.6 11 24.7 24.7 24.7h98.7c13.6 0 24.7-11 24.7-24.7V50.3c-.1-13.6-11.1-24.6-24.8-24.6zM97.1 79.5l-40.2 24c-4.2 2.5-6.5.5-6.5-4.5V51c0-5 2.2-7.1 6.5-4.6l40.3 23.9c4.1 2.6 2.5 7.2-.1 9.2z" fill="currentColor"></path>
		</symbol>
	
</svg>
